<svg width="290" height="296" viewBox="0 0 290 296" fill="none" xmlns="http://www.w3.org/2000/svg">
<g filter="url(#filter0_d_216_2290)">
<path d="M143.573 118.244L143.573 117.413C143.573 116.659 144.136 116.047 144.832 116.047C145.527 116.047 146.09 116.659 146.09 117.413L146.09 118.244C146.09 118.998 145.527 119.61 144.832 119.61C144.136 119.61 143.573 118.998 143.573 118.244ZM131.401 122.514C131.634 122.952 132.057 123.197 132.492 123.197C132.705 123.197 132.922 123.138 133.12 123.015C133.722 122.638 133.929 121.802 133.581 121.149L133.198 120.429C132.851 119.776 132.081 119.552 131.479 119.929C130.877 120.306 130.67 121.141 131.018 121.794L131.401 122.514ZM156.543 123.015C156.741 123.139 156.958 123.198 157.171 123.198C157.606 123.198 158.029 122.953 158.262 122.515L158.645 121.795C158.993 121.141 158.787 120.306 158.185 119.929C157.583 119.552 156.813 119.776 156.465 120.429L156.082 121.149C155.735 121.802 155.941 122.637 156.543 123.015ZM166.208 132.999C166.421 132.999 166.638 132.94 166.836 132.816L167.499 132.4C168.101 132.023 168.308 131.188 167.96 130.535C167.612 129.882 166.843 129.658 166.24 130.035L165.577 130.451C164.975 130.828 164.769 131.663 165.116 132.317C165.35 132.754 165.772 132.999 166.208 132.999ZM169.48 157.219C167.845 160.734 163.278 163.095 158.114 163.095C154.574 163.095 151.258 161.987 149.004 160.091C147.713 161.051 146.35 161.669 144.999 161.858C144.937 161.867 144.876 161.87 144.816 161.869C144.766 161.869 144.715 161.865 144.665 161.858C143.314 161.669 141.95 161.051 140.659 160.091C138.405 161.987 135.089 163.095 131.549 163.095C126.386 163.095 121.818 160.734 120.184 157.219C120.004 156.832 120.004 156.376 120.184 155.989C121.39 153.395 124.148 151.428 127.637 150.576C125.827 147.785 125.165 144.488 125.985 141.667C126.086 141.322 126.309 141.034 126.604 140.867C128.673 139.698 131.296 139.613 133.849 140.584C134.228 139.222 134.824 138.036 135.633 137.112C135.909 136.796 136.308 136.642 136.707 136.698C137.367 136.79 138.03 136.985 138.686 137.273C140.018 134.219 141.981 131.942 144.306 130.784C144.64 130.618 145.023 130.618 145.356 130.784C147.681 131.941 149.643 134.217 150.975 137.269C151.632 136.984 152.295 136.791 152.957 136.698C153.355 136.642 153.754 136.796 154.031 137.112C154.839 138.036 155.435 139.222 155.815 140.584C158.368 139.613 160.991 139.698 163.059 140.867C163.355 141.034 163.577 141.322 163.678 141.667C164.498 144.488 163.837 147.785 162.026 150.575C165.516 151.428 168.274 153.395 169.48 155.988C169.659 156.376 169.659 156.832 169.48 157.219ZM154.239 153.345C155.606 152.977 156.964 152.218 158.16 151.129C160.603 148.905 161.882 145.667 161.408 143.05C159.93 142.427 158.086 142.524 156.268 143.315C156.443 145.865 156.019 148.749 154.972 151.588C154.75 152.192 154.504 152.778 154.239 153.345ZM140.893 138.603C142.344 139.723 143.696 141.273 144.829 143.128C145.968 141.253 147.319 139.706 148.765 138.592C147.796 136.32 146.408 134.542 144.832 133.56C143.252 134.544 141.863 136.325 140.893 138.603ZM131.503 151.129C132.699 152.218 134.057 152.977 135.424 153.345C135.159 152.778 134.914 152.192 134.691 151.588C133.644 148.749 133.22 145.865 133.395 143.315C131.578 142.524 129.733 142.427 128.255 143.05C127.781 145.667 129.06 148.905 131.503 151.129ZM138.671 158.28C138.129 157.688 137.611 157.035 137.126 156.329C134.631 156.283 132.029 155.174 129.885 153.221C129.795 153.139 129.706 153.056 129.618 152.972C126.553 153.384 123.983 154.755 122.774 156.604C124.244 158.846 127.719 160.364 131.549 160.364C134.268 160.364 136.869 159.586 138.671 158.28ZM144.342 147.983C143.088 144.582 140.991 141.777 138.786 140.361C138.725 140.329 138.667 140.293 138.612 140.252C138.09 139.935 137.564 139.697 137.042 139.548C136.52 140.357 136.171 141.393 135.997 142.573C135.993 142.645 135.983 142.717 135.968 142.788C135.677 145.066 136.024 147.85 137.028 150.573C138.042 153.322 139.606 155.681 141.332 157.233C141.373 157.264 141.412 157.299 141.449 157.336C142.384 158.154 143.365 158.733 144.328 159.009C145.876 156.609 145.906 152.224 144.342 147.983ZM152.635 150.573C153.639 147.85 153.986 145.068 153.696 142.79C153.68 142.717 153.67 142.643 153.666 142.569C153.492 141.391 153.142 140.356 152.621 139.547C152.107 139.694 151.588 139.927 151.072 140.236C151.004 140.289 150.93 140.336 150.851 140.374C149.138 141.478 147.486 143.422 146.242 145.871C146.396 146.23 146.542 146.596 146.68 146.969C148.107 150.839 148.376 154.794 147.55 157.871C147.774 157.705 147.997 157.525 148.218 157.333C148.253 157.298 148.289 157.266 148.327 157.236C150.055 155.685 151.621 153.324 152.635 150.573ZM166.889 156.604C165.68 154.755 163.11 153.384 160.044 152.972C159.957 153.056 159.868 153.139 159.778 153.221C157.634 155.173 155.032 156.283 152.538 156.329C152.052 157.035 151.535 157.688 150.993 158.28C152.794 159.586 155.395 160.364 158.114 160.364C161.944 160.364 165.419 158.846 166.889 156.604ZM157.034 166.704C156.509 166.209 155.714 166.268 155.258 166.837C154.464 167.826 150.704 169.218 144.832 169.218C138.959 169.218 135.199 167.826 134.405 166.837C133.949 166.268 133.154 166.209 132.63 166.704C132.105 167.2 132.051 168.062 132.507 168.631C134.474 171.08 140.375 171.949 144.832 171.949C149.288 171.949 155.19 171.08 157.156 168.631C157.613 168.062 157.558 167.2 157.034 166.704ZM128.285 137.809C128.954 138.013 129.649 137.59 129.838 136.864C131.719 129.619 137.885 124.558 144.832 124.558C151.778 124.558 157.944 129.619 159.826 136.864C159.982 137.467 160.487 137.86 161.036 137.86C161.149 137.86 161.264 137.843 161.378 137.809C162.048 137.604 162.437 136.85 162.249 136.124C160.063 127.706 152.9 121.827 144.832 121.827C136.763 121.827 129.601 127.706 127.415 136.124C127.226 136.85 127.616 137.604 128.285 137.809ZM144.832 167.36C145.913 167.36 149.542 167.234 150.833 165.625C151.29 165.056 151.235 164.193 150.71 163.698C150.189 163.205 149.399 163.262 148.942 163.823C148.655 164.106 147.165 164.628 144.832 164.628C142.498 164.628 141.008 164.105 140.721 163.822C140.264 163.262 139.474 163.205 138.953 163.698C138.428 164.194 138.373 165.056 138.83 165.625C140.122 167.235 143.75 167.36 144.832 167.36ZM122.164 132.4L122.827 132.816C123.025 132.94 123.242 132.999 123.455 132.999C123.89 132.999 124.313 132.755 124.547 132.317C124.894 131.664 124.688 130.828 124.086 130.451L123.423 130.035C122.822 129.658 122.051 129.881 121.704 130.535C121.356 131.187 121.562 132.023 122.164 132.4Z" fill="#61B15A"/>
</g>
<defs>
<filter id="filter0_d_216_2290" x="0" y="0" width="289.663" height="296" filterUnits="userSpaceOnUse" color-interpolation-filters="sRGB">
<feFlood flood-opacity="0" result="BackgroundImageFix"/>
<feColorMatrix in="SourceAlpha" type="matrix" values="0 0 0 0 0 0 0 0 0 0 0 0 0 0 0 0 0 0 127 0" result="hardAlpha"/>
<feOffset dy="4"/>
<feGaussianBlur stdDeviation="60"/>
<feColorMatrix type="matrix" values="0 0 0 0 1 0 0 0 0 1 0 0 0 0 1 0 0 0 1 0"/>
<feBlend mode="normal" in2="BackgroundImageFix" result="effect1_dropShadow_216_2290"/>
<feBlend mode="normal" in="SourceGraphic" in2="effect1_dropShadow_216_2290" result="shape"/>
</filter>
</defs>
</svg>
