<svg width="17" height="17" viewBox="0 0 17 17" fill="none" xmlns="http://www.w3.org/2000/svg">
<path d="M7.82559 15.304C8.19398 15.699 8.80602 15.699 9.17441 15.304C10.6431 13.7294 14 9.78467 14 6.625C14 5.13316 13.4205 3.70242 12.3891 2.64752C11.3576 1.59263 9.95869 1 8.5 1C7.04131 1 5.64236 1.59263 4.61091 2.64752C3.57946 3.70242 3 5.13316 3 6.625C3 9.78467 6.35693 13.7294 7.82559 15.304ZM8.5 9.4375C7.77065 9.4375 7.07118 9.14118 6.55546 8.61374C6.03973 8.08629 5.75 7.37092 5.75 6.625C5.75 5.87908 6.03973 5.16371 6.55546 4.63626C7.07118 4.10882 7.77065 3.8125 8.5 3.8125C9.22935 3.8125 9.92882 4.10882 10.4445 4.63626C10.9603 5.16371 11.25 5.87908 11.25 6.625C11.25 7.37092 10.9603 8.08629 10.4445 8.61374C9.92882 9.14118 9.22935 9.4375 8.5 9.4375Z" fill="#313131" fill-opacity="0.5"/>
</svg>
