<svg width="17" height="27" viewBox="0 0 17 27" fill="none" xmlns="http://www.w3.org/2000/svg">
<path d="M14.1793 26.9756C13.8165 26.9766 13.4579 26.9131 13.1301 26.7897C12.8022 26.6664 12.5133 26.4863 12.2847 26.2628L0.552572 14.7028C0.195308 14.3581 0 13.9256 0 13.4794C0 13.0331 0.195308 12.6007 0.552572 12.256L12.6976 0.69601C13.1099 0.302554 13.7024 0.055124 14.3447 0.00815265C14.987 -0.0388187 15.6265 0.118516 16.1226 0.445544C16.6186 0.772572 16.9305 1.24251 16.9898 1.75196C17.049 2.26142 16.8506 2.76868 16.4383 3.16213L5.58063 13.489L16.074 23.8159C16.371 24.0987 16.5597 24.4431 16.6177 24.8083C16.6757 25.1735 16.6006 25.5442 16.4013 25.8766C16.202 26.209 15.8868 26.4892 15.493 26.6839C15.0992 26.8787 14.6434 26.9799 14.1793 26.9756Z" fill="white"/>
</svg>
