<svg width="14" height="14" viewBox="0 0 14 14" fill="none" xmlns="http://www.w3.org/2000/svg">
<path d="M6.52967 0.31375C6.70367 -0.104612 7.29633 -0.104613 7.47033 0.313748L9.0363 4.07877C9.10965 4.25514 9.27552 4.37565 9.46592 4.39092L13.5306 4.71678C13.9822 4.75299 14.1654 5.31664 13.8213 5.61141L10.7244 8.26418C10.5794 8.38845 10.516 8.58344 10.5603 8.76924L11.5065 12.7357C11.6116 13.1764 11.1321 13.5248 10.7454 13.2886L7.26552 11.1631C7.10251 11.0635 6.89749 11.0635 6.73448 11.1631L3.25456 13.2886C2.86788 13.5248 2.38841 13.1764 2.49354 12.7357L3.43968 8.76924C3.484 8.58344 3.42065 8.38845 3.27558 8.26418L0.178733 5.61141C-0.165381 5.31664 0.0177584 4.75299 0.469415 4.71678L4.53408 4.39092C4.72448 4.37565 4.89035 4.25514 4.9637 4.07877L6.52967 0.31375Z" fill="#FFC462"/>
</svg>
