<svg width="60" height="42" viewBox="0 0 60 42" fill="none" xmlns="http://www.w3.org/2000/svg">
<path fill-rule="evenodd" clip-rule="evenodd" d="M15.5696 6.85094C15.7077 6.30771 16.0421 5.82332 16.5185 5.47656C16.9948 5.12981 17.5851 4.94112 18.1933 4.94118H41.0682C41.6764 4.94112 42.2667 5.12981 42.7431 5.47656C43.2194 5.82332 43.5539 6.30771 43.6919 6.85094L45.0926 12.3529H14.1689L15.5696 6.85094ZM2.69371 17.2941H5.38741C3.69577 19.3595 2.69371 21.924 2.69371 24.7059V27.1765C2.69371 30.4031 4.94295 33.1504 8.08112 34.1682V39.5294C8.08112 40.1847 8.36492 40.8131 8.87009 41.2764C9.37526 41.7397 10.0604 42 10.7748 42H13.4685C14.1829 42 14.8681 41.7397 15.3733 41.2764C15.8784 40.8131 16.1622 40.1847 16.1622 39.5294V34.5882H43.0993V39.5294C43.0993 40.1847 43.3831 40.8131 43.8883 41.2764C44.3934 41.7397 45.0786 42 45.793 42H48.4867C49.2011 42 49.8863 41.7397 50.3915 41.2764C50.8966 40.8131 51.1804 40.1847 51.1804 39.5294V34.1682C52.7564 33.6568 54.1208 32.7098 55.0856 31.4576C56.0505 30.2055 56.5683 28.7098 56.5678 27.1765V24.7059C56.5721 22.0324 55.6265 19.4305 53.8741 17.2941H56.5678C57.2822 17.2941 57.9674 17.0338 58.4726 16.5705C58.9777 16.1072 59.2615 15.4788 59.2615 14.8235C59.2615 14.1683 58.9777 13.5399 58.4726 13.0766C57.9674 12.6132 57.2822 12.3529 56.5678 12.3529H53.8741C53.2047 12.3532 52.5593 12.582 52.0638 12.9949C51.5683 13.4078 51.2582 13.9752 51.1939 14.5864L51.1104 14.2627L48.9393 5.72682C48.5246 4.09759 47.5211 2.64497 46.092 1.6052C44.663 0.565431 42.8924 -0.00030603 41.0682 1.24193e-07H18.1933C16.3692 -0.00030603 14.5986 0.565431 13.1695 1.6052C11.7404 2.64497 10.737 4.09759 10.3223 5.72682L8.15116 14.2627L8.07034 14.5864C8.00603 13.9747 7.69554 13.4071 7.19947 12.9941C6.7034 12.5812 6.05735 12.3526 5.38741 12.3529H2.69371C1.97929 12.3529 1.29414 12.6132 0.788968 13.0766C0.2838 13.5399 0 14.1683 0 14.8235C0 15.4788 0.2838 16.1072 0.788968 16.5705C1.29414 17.0338 1.97929 17.2941 2.69371 17.2941ZM16.1622 17.2941C14.019 17.2941 11.9635 18.075 10.448 19.465C8.93252 20.8549 8.08112 22.7402 8.08112 24.7059V27.1765C8.08112 27.8317 8.36492 28.4601 8.87009 28.9234C9.37526 29.3868 10.0604 29.6471 10.7748 29.6471H48.4867C49.2011 29.6471 49.8863 29.3868 50.3915 28.9234C50.8966 28.4601 51.1804 27.8317 51.1804 27.1765V24.7059C51.1804 22.7402 50.329 20.8549 48.8135 19.465C47.298 18.075 45.2425 17.2941 43.0993 17.2941H16.1622ZM13.4685 23.4706C13.4685 22.4877 13.8942 21.5451 14.652 20.8501C15.4097 20.1551 16.4375 19.7647 17.5091 19.7647C18.5807 19.7647 19.6084 20.1551 20.3662 20.8501C21.1239 21.5451 21.5497 22.4877 21.5497 23.4706C21.5497 24.4534 21.1239 25.3961 20.3662 26.091C19.6084 26.786 18.5807 27.1765 17.5091 27.1765C16.4375 27.1765 15.4097 26.786 14.652 26.091C13.8942 25.3961 13.4685 24.4534 13.4685 23.4706ZM41.7524 19.7647C40.6808 19.7647 39.6531 20.1551 38.8953 20.8501C38.1376 21.5451 37.7119 22.4877 37.7119 23.4706C37.7119 24.4534 38.1376 25.3961 38.8953 26.091C39.6531 26.786 40.6808 27.1765 41.7524 27.1765C42.8241 27.1765 43.8518 26.786 44.6096 26.091C45.3673 25.3961 45.793 24.4534 45.793 23.4706C45.793 22.4877 45.3673 21.5451 44.6096 20.8501C43.8518 20.1551 42.8241 19.7647 41.7524 19.7647Z" fill="white"/>
</svg>
