<svg width="168" height="125" viewBox="0 0 168 125" fill="none" xmlns="http://www.w3.org/2000/svg">
<path d="M151.166 115.413H140.038V115.497H151.166V115.413Z" fill="#EBEBEB"/>
<path d="M111.29 116.327H108.37V116.411H111.29V116.327Z" fill="#EBEBEB"/>
<path d="M139.702 112.295H133.254V112.379H139.702V112.295Z" fill="#EBEBEB"/>
<path d="M32.1383 112.859H17.6265V112.943H32.1383V112.859Z" fill="#EBEBEB"/>
<path d="M37.259 112.859H35.1321V112.943H37.259V112.859Z" fill="#EBEBEB"/>
<path d="M75.6503 114.277H44.1738V114.361H75.6503V114.277Z" fill="#EBEBEB"/>
<path d="M80.1024 95.0208H15.2208C14.712 95.0208 14.224 94.8187 13.8642 94.4589C13.5044 94.0991 13.3022 93.6111 13.3022 93.1022V1.90176C13.3067 1.39584 13.5108 0.912155 13.8701 0.555981C14.2294 0.199807 14.7149 -1.93959e-05 15.2208 1.41206e-09H80.1024C80.3544 1.41206e-09 80.6038 0.0496246 80.8366 0.146041C81.0694 0.242458 81.2809 0.383779 81.459 0.561933C81.6372 0.740088 81.7785 0.951589 81.8749 1.18436C81.9714 1.41713 82.021 1.66661 82.021 1.91856V93.1022C82.021 93.3542 81.9714 93.6037 81.8749 93.8364C81.7785 94.0692 81.6372 94.2807 81.459 94.4589C81.2809 94.637 81.0694 94.7783 80.8366 94.8748C80.6038 94.9712 80.3544 95.0208 80.1024 95.0208ZM15.2208 0.0672003C14.7345 0.0680884 14.2684 0.261657 13.9246 0.605511C13.5807 0.949365 13.3871 1.41548 13.3862 1.90176V93.1022C13.3871 93.5885 13.5807 94.0546 13.9246 94.3985C14.2684 94.7423 14.7345 94.9359 15.2208 94.9368H80.1024C80.5887 94.9359 81.0548 94.7423 81.3987 94.3985C81.7425 94.0546 81.9361 93.5885 81.937 93.1022V1.90176C81.9361 1.41548 81.7425 0.949365 81.3987 0.605511C81.0548 0.261657 80.5887 0.0680884 80.1024 0.0672003H15.2208Z" fill="#EBEBEB"/>
<path d="M152.779 95.1082H87.8976C87.3887 95.1082 86.9007 94.906 86.5409 94.5462C86.1811 94.1864 85.979 93.6984 85.979 93.1896V1.98912C85.979 1.48028 86.1811 0.99229 86.5409 0.63249C86.9007 0.27269 87.3887 0.0705566 87.8976 0.0705566H152.779C153.288 0.0705566 153.776 0.27269 154.136 0.63249C154.496 0.99229 154.698 1.48028 154.698 1.98912V93.1896C154.698 93.6984 154.496 94.1864 154.136 94.5462C153.776 94.906 153.288 95.1082 152.779 95.1082ZM87.8976 0.154557C87.4113 0.155445 86.9452 0.349014 86.6013 0.692869C86.2575 1.03672 86.0639 1.50283 86.063 1.98912V93.1896C86.0639 93.6759 86.2575 94.142 86.6013 94.4859C86.9452 94.8297 87.4113 95.0233 87.8976 95.0242H152.779C153.265 95.0233 153.732 94.8297 154.075 94.4859C154.419 94.142 154.613 93.6759 154.614 93.1896V1.98912C154.613 1.50283 154.419 1.03672 154.075 0.692869C153.732 0.349014 153.265 0.155445 152.779 0.154557H87.8976Z" fill="#EBEBEB"/>
<path d="M168 109.63H0V109.714H168V109.63Z" fill="#EBEBEB"/>
<path d="M88.5563 23.698H101.227C101.227 23.698 104.2 22.5792 103.814 19.6156C103.428 16.6521 98.9454 19.1217 98.9454 19.1217C98.9454 19.1217 100.289 14.9856 95.9584 16.1582C94.733 16.4712 93.6271 17.1386 92.7791 18.0769C91.931 19.0152 91.3785 20.1827 91.1905 21.4334C91.1905 21.4334 85.4852 20.4355 88.5563 23.698Z" fill="#F5F5F5"/>
<path d="M26.2551 33.6302C27.8982 34.0435 29.7428 32.6726 29.8201 30.9792C29.8436 30.4819 29.7361 29.9712 29.7999 29.4874C30.0015 27.9082 32.2729 27.0816 33.4422 28.1602C33.5567 26.8822 34.0643 25.671 34.8952 24.6933C35.7261 23.7156 36.8395 23.0193 38.0823 22.7002C38.965 22.4494 39.9095 22.5381 40.73 22.9488C41.5196 23.3957 42.0471 24.3701 41.785 25.237C42.0042 24.4561 42.4425 23.7543 43.0481 23.2148C43.6537 22.6753 44.4012 22.3206 45.2022 22.1928C46.007 22.0923 46.8232 22.2459 47.5365 22.6321C48.2498 23.0183 48.8245 23.6177 49.1804 24.3466C49.5038 25.0899 49.568 25.9204 49.3627 26.7047C49.1573 27.4889 48.6943 28.1814 48.0481 28.6709C48.962 27.6629 50.8906 27.6226 51.3476 28.4222C51.5312 28.7263 51.6276 29.075 51.6265 29.4302C51.5862 31.3958 50.1346 32.7163 48.3471 33.5227C46.5596 34.3291 27.7302 34.4064 26.2551 33.6302Z" fill="#F5F5F5"/>
<path d="M125.486 32.4979V32.6592C125.284 32.6861 125.782 33.2606 125.893 33.0893C126.003 32.9179 125.849 32.6995 125.698 32.5618C125.053 31.9837 124.263 31.5908 123.413 31.4246C122.563 31.2585 121.683 31.3253 120.868 31.618C120.053 31.9106 119.332 32.4183 118.781 33.0872C118.231 33.7561 117.871 34.5613 117.741 35.4178C116.585 34.0368 114.381 34.0099 112.768 34.7793C111.561 35.3727 110.552 36.3046 109.865 37.4614C109.177 38.6182 108.841 39.95 108.898 41.2944C108.219 40.9831 107.455 40.9095 106.73 41.0857C106.004 41.2619 105.36 41.6775 104.899 42.2654C104.503 42.7963 104.278 43.4381 103.891 43.9757C103.588 44.3915 103.195 44.7338 102.741 44.9775C102.287 45.2212 101.785 45.3599 101.271 45.3835C105.185 46.1866 120.916 45.8002 124.791 45.8741C126.471 45.9077 128.198 46.0555 129.857 45.7262C131.517 45.3969 133.167 44.4931 133.91 42.971C134.652 41.449 134.141 39.2918 132.582 38.6333C133.055 37.7389 133.218 36.7135 133.046 35.7168C132.875 34.7201 132.379 33.8081 131.635 33.1229C130.109 31.7957 127.099 31.2883 125.486 32.4979Z" fill="#F5F5F5"/>
<path d="M103.414 110.017C103.414 110.017 82.4946 55.5308 56.9653 55.5308C28.3415 55.5308 17.6533 109.603 17.6533 109.603L103.414 110.017Z" fill="#EBEBEB"/>
<path d="M14.3977 109.848C14.3977 109.848 76.7022 61.5182 116.663 54.9326C149.846 49.4625 155.706 109.993 155.706 109.993L14.3977 109.848Z" fill="#F0F0F0"/>
<path d="M59.5694 110.232C59.5694 110.232 33.7478 102.282 29.7696 102.104C25.7914 101.926 12.2976 109.704 12.2976 109.704L59.5694 110.232Z" fill="#F5F5F5"/>
<path d="M95.1181 72.6365C94.3957 72.5054 93.0114 73.8427 92.3294 73.5638C91.8086 73.3522 91.7111 71.941 91.3012 71.5478C90.7367 71.0203 88.6972 71.0539 88.4654 70.3181C87.9849 68.7994 90.2462 65.2781 91.7918 64.8816C92.9006 64.6061 94.6612 66.8035 95.733 67.2034C96.741 67.5696 99.2039 67.163 99.9061 67.956C100.719 68.8733 100.578 71.8267 99.9061 72.8616C99.4828 73.5336 97.8196 74.3602 97.0468 74.2056C96.4319 74.0846 95.7297 72.7507 95.1181 72.6365Z" fill="#EBEBEB"/>
<path d="M92.3697 70.6709C91.9778 70.3134 91.5674 69.9769 91.1399 69.6629L91.1735 69.5487L92.5175 70.4626L93.0652 68.8464L93.1525 68.9237C93.1525 68.9237 92.7157 70.1165 92.7829 70.5399C92.9308 71.4504 94.8359 73.4799 94.8359 73.4799C94.8359 73.4799 96.2001 71.9208 96.4554 71.2892C96.6671 70.765 96.7444 69.0514 96.7444 69.0514L96.8351 69.0682L96.7175 71.0842L98.7335 69.4277L98.7671 69.5386C98.0406 70.1052 97.3483 70.7144 96.694 71.3631C96.2134 72.0498 95.7779 72.767 95.3903 73.5101C95.2592 73.7472 95.1953 74.0156 95.2055 74.2863L95.3668 79.9613H94.4159L94.5738 74.5047C94.555 74.1445 94.4388 73.7961 94.2378 73.4967C93.6875 72.5088 93.063 71.5642 92.3697 70.6709Z" fill="#E0E0E0"/>
<path d="M67.7543 95.8608C66.8908 95.7028 65.2377 97.2989 64.4279 96.9662C63.803 96.7142 63.6887 95.0308 63.1982 94.5705C62.5262 93.9388 60.0935 93.9792 59.8147 93.0988C59.2435 91.2878 61.9415 87.0744 63.7862 86.6141C65.1067 86.2781 67.2067 88.9056 68.4902 89.3827C69.6763 89.8228 72.6331 89.3357 73.4697 90.2798C74.4407 91.3785 74.2559 94.9032 73.4697 96.1363C72.9657 96.9326 70.9833 97.9238 70.0593 97.7357C69.3268 97.5912 68.4835 95.9952 67.7543 95.8608Z" fill="#EBEBEB"/>
<path d="M64.4751 93.5155C64.0063 93.0865 63.515 92.6828 63.0034 92.3059L63.0471 92.1715L64.6565 93.2601L65.3117 91.3348L65.4193 91.4222C65.4193 91.4222 64.8951 92.8502 64.9757 93.3508C65.1505 94.4395 67.4252 96.862 67.4252 96.862C67.4252 96.862 69.0548 95.0006 69.3572 94.248C69.6092 93.623 69.6932 91.5801 69.6932 91.5801L69.7973 91.5969L69.6562 93.9859L72.062 92.0102L72.1057 92.1446C72.1057 92.1446 70.1569 93.6868 69.6327 94.3219C69.0576 95.1403 68.5368 95.9956 68.0737 96.8822C67.919 97.165 67.8424 97.484 67.8519 97.8062L68.0468 104.583H66.9145L67.1026 98.0683C67.0786 97.6358 66.9355 97.2184 66.6893 96.862C66.1585 95.9414 65.0765 94.1572 64.4751 93.5155Z" fill="#E0E0E0"/>
<path d="M34.6753 74.7029C35.3977 74.5718 36.782 75.9091 37.4641 75.6303C37.9849 75.4186 38.0823 74.0074 38.4956 73.6143C39.0567 73.0867 41.0962 73.1203 41.3281 72.3845C41.8086 70.8658 39.5473 67.3445 38.0017 66.948C36.8929 66.6725 35.1356 68.8699 34.0638 69.2698C33.0558 69.636 30.5929 69.2295 29.8873 70.0224C29.0742 70.9397 29.2153 73.8931 29.8873 74.928C30.3106 75.6 31.9738 76.4266 32.75 76.272C33.3582 76.1511 34.0638 74.8171 34.6753 74.7029Z" fill="#F5F5F5"/>
<path d="M33.3044 72.7373C32.9125 72.3785 32.5008 72.042 32.0713 71.7293L32.1082 71.615L33.4522 72.529L34.0033 70.896L34.094 70.9733C34.094 70.9733 33.6539 72.1661 33.7244 72.5894C33.8723 73.5 35.7774 75.5294 35.7774 75.5294C35.7774 75.5294 37.1415 73.9704 37.3969 73.3387C37.6086 72.8146 37.6859 71.101 37.6859 71.101L37.7766 71.1178L37.659 73.1338L39.675 71.4773L39.7086 71.5882C38.982 72.1548 38.2898 72.764 37.6355 73.4126C37.1549 74.0993 36.7194 74.8165 36.3318 75.5597C36.2007 75.7968 36.1368 76.0651 36.147 76.3358L36.3082 82.0109H35.3607L35.5186 76.5542C35.4998 76.194 35.3837 75.8457 35.1826 75.5462C34.6284 74.5638 34.0005 73.6248 33.3044 72.7373Z" fill="#E0E0E0"/>
<path d="M107.473 59.5392C107.473 59.5392 104.13 59.1528 103.777 58.2356C103.498 57.493 105.138 56.2397 105.329 55.4703C105.474 54.8756 105.077 53.6055 105.262 53.0175C105.423 52.5 106.421 51.7944 106.542 51.2636C106.599 51.0149 106.3 50.5008 106.364 50.2556C106.502 49.6877 107.224 48.3202 107.802 48.4109C108.713 48.5588 109.103 50.9309 109.146 51.8516C109.146 52.1876 108.703 52.8327 108.736 53.1788C108.8 53.797 109.953 54.7412 109.929 55.3594C109.929 55.6215 109.375 55.9776 109.368 56.2364C109.368 56.7101 110.41 57.4258 110.289 57.8794C110.074 58.6656 107.473 59.5392 107.473 59.5392Z" fill="#E6E6E6"/>
<path d="M107.607 54.4622L107.52 50.7158H107.386L107.228 56.8176C107.228 56.8176 106.092 57.1536 105.699 57.2141C105.422 57.228 105.145 57.228 104.869 57.2141V57.288C104.869 57.288 105.541 57.335 105.746 57.3182C105.853 57.3182 106.173 57.2376 106.173 57.2376L105.759 57.6341L105.806 57.6878L106.341 57.2073L107.221 56.9923L107.076 62.6472H107.822L107.617 54.5597L107.607 54.4622Z" fill="#E0E0E0"/>
<path d="M136.342 76.366C136.342 76.366 132.999 75.9763 132.646 75.0623C132.367 74.3198 134.007 73.0631 134.198 72.2937C134.346 71.699 133.95 70.4289 134.131 69.8443C134.293 69.3235 135.29 68.6179 135.411 68.0903C135.472 67.8383 135.169 67.3276 135.233 67.0823C135.374 66.5179 136.093 65.147 136.671 65.2411C137.582 65.3855 137.972 67.7577 138.015 68.6817C138.015 69.0177 137.568 69.6628 137.605 70.0089C137.666 70.6271 138.818 71.5679 138.795 72.1895C138.795 72.4483 138.24 72.8044 138.234 73.0665C138.234 73.5369 139.279 74.2526 139.154 74.7095C138.939 75.4891 136.342 76.366 136.342 76.366Z" fill="#E6E6E6"/>
<path d="M136.473 71.2858L136.379 67.536H136.245L136.08 73.6512C135.579 73.8096 135.069 73.9419 134.554 74.0477C134.277 74.0616 133.999 74.0616 133.721 74.0477V74.125C133.721 74.125 134.393 74.172 134.598 74.1552C134.706 74.1552 135.025 74.0712 135.025 74.0712L134.612 74.4677L134.659 74.5215L135.193 74.0443L136.077 73.8259L135.929 79.4808H136.678L136.47 71.3933L136.473 71.2858Z" fill="#E0E0E0"/>
<path d="M55.6383 77.018C55.6383 77.018 52.8831 76.7223 52.5975 76.0301C52.369 75.4657 53.7197 74.5148 53.8777 73.9301C53.9986 73.4799 53.6727 72.5156 53.8205 72.0721C53.9684 71.6285 54.7781 71.1447 54.8789 70.7281C54.926 70.5399 54.6773 70.1501 54.7311 69.962C54.8453 69.5319 55.4401 68.4937 55.9138 68.5642C56.6665 68.6751 56.9856 70.4727 57.0125 71.1716C57.0125 71.437 56.6463 71.9175 56.6765 72.1796C56.7269 72.6466 57.6845 73.3623 57.6577 73.8327C57.6577 74.0309 57.2007 74.2997 57.194 74.5047C57.194 74.8609 58.0541 75.4052 57.9533 75.7479C57.7921 76.3527 55.6383 77.018 55.6383 77.018Z" fill="#F5F5F5"/>
<path d="M55.7459 73.1673L55.6686 70.3281H55.5577L55.4401 74.9616C55.4401 74.9616 54.506 75.2236 54.1835 75.2606C54.0121 75.2808 53.5115 75.2606 53.5115 75.2606V75.3177C53.5115 75.3177 54.0524 75.3547 54.2339 75.3412C54.3246 75.3412 54.5699 75.2774 54.5699 75.2774L54.2339 75.5798L54.2708 75.6201L54.711 75.2572L55.4368 75.0926L55.3158 79.38H55.934L55.7492 73.248L55.7459 73.1673Z" fill="#E0E0E0"/>
<path d="M53.2191 56.0348C53.2191 56.0348 50.4639 55.7391 50.1951 55.0268C49.9667 54.4657 51.3174 53.5148 51.4719 52.9301C51.5929 52.4799 51.267 51.5156 51.4182 51.0721C51.5694 50.6285 52.3724 50.1413 52.4732 49.7281C52.5203 49.5399 52.275 49.1501 52.3254 48.962C52.443 48.5319 53.0377 47.4937 53.5115 47.5609C54.2607 47.6717 54.5833 49.4727 54.6102 50.1716C54.6102 50.4337 54.2439 50.9141 54.2742 51.1796C54.3246 51.65 55.2822 52.3657 55.2553 52.8361C55.2553 53.0309 54.7983 53.3031 54.795 53.5081C54.795 53.8642 55.6551 54.4085 55.5543 54.7513C55.3628 55.3695 53.2191 56.0348 53.2191 56.0348Z" fill="#EBEBEB"/>
<path d="M53.3299 52.1842L53.2526 49.345H53.1417L53.0107 53.9717C53.0107 53.9717 52.0732 54.2371 51.754 54.2741C51.5827 54.2943 51.082 54.2741 51.082 54.2741V54.3312C51.082 54.3312 51.623 54.3682 51.8044 54.3547C51.8918 54.3547 52.1404 54.2909 52.1404 54.2909L51.8044 54.5933L51.8448 54.6336L52.2849 54.2707L53.0107 54.1061L52.8897 58.3934H53.5046L53.3366 52.2614L53.3299 52.1842Z" fill="#E0E0E0"/>
<path d="M67.61 67.5057C67.61 67.5057 64.2668 67.116 63.914 66.1987C63.6351 65.4595 65.258 64.2029 65.4663 63.4334C65.6141 62.8387 65.2176 61.5686 65.3991 60.984C65.5604 60.4632 66.5583 59.7576 66.6792 59.2267C66.7397 58.9781 66.4373 58.4673 66.5012 58.2187C66.6423 57.6509 67.3613 56.2833 67.9392 56.3741C68.8498 56.5219 69.2396 58.8941 69.2832 59.8181C69.2832 60.1541 68.8364 60.7992 68.8733 61.1419C68.9338 61.7601 70.0863 62.7043 70.0628 63.3259C70.0628 63.5846 69.5084 63.9408 69.5016 64.2029C69.5016 64.6733 70.5466 65.3889 70.4223 65.8425C70.224 66.6288 67.61 67.5057 67.61 67.5057Z" fill="#F5F5F5"/>
<path d="M67.741 62.4254L67.6469 58.6824H67.5125L67.3546 64.7841C67.3546 64.7841 66.2189 65.1201 65.8291 65.1806C65.5515 65.1945 65.2734 65.1945 64.9958 65.1806V65.2579C64.9958 65.2579 65.6678 65.3049 65.8728 65.2848C65.9803 65.2848 66.2995 65.2041 66.2995 65.2041L65.8862 65.6006L65.9333 65.6544L66.4675 65.1773L67.3512 64.9589L67.2 70.6205H67.9493L67.741 62.5329V62.4254Z" fill="#E0E0E0"/>
<path d="M84.0001 124.995C119.98 124.995 149.147 123.292 149.147 121.192C149.147 119.091 119.98 117.388 84.0001 117.388C48.0204 117.388 18.853 119.091 18.853 121.192C18.853 123.292 48.0204 124.995 84.0001 124.995Z" fill="#F5F5F5"/>
<path d="M42.5409 111.485L37.7294 116.051C37.2035 115.549 36.7055 115.018 36.2375 114.462L40.414 110.134L42.5409 111.485Z" fill="#F7978D"/>
<path d="M38.0687 116.481C38.0623 116.47 38.0588 116.457 38.0588 116.444C38.0588 116.431 38.0623 116.418 38.0687 116.407C38.0763 116.397 38.0868 116.389 38.0988 116.385C38.1107 116.381 38.1237 116.38 38.1359 116.384C38.1763 116.384 39.1439 116.676 39.3825 117.056C39.4283 117.127 39.4451 117.214 39.4295 117.298C39.4251 117.344 39.4061 117.388 39.3753 117.423C39.3446 117.458 39.3036 117.482 39.2582 117.492C39.0902 117.526 38.8315 117.331 38.5862 117.089C38.3956 116.903 38.2224 116.699 38.0687 116.481ZM39.2111 117.035C38.9347 116.818 38.6186 116.656 38.2804 116.558C38.5761 116.948 39.0431 117.412 39.238 117.382C39.2649 117.382 39.2985 117.358 39.3187 117.274C39.3237 117.249 39.3236 117.222 39.3184 117.197C39.3132 117.172 39.303 117.148 39.2884 117.126C39.2667 117.093 39.242 117.061 39.2145 117.032L39.2111 117.035Z" fill="#43744B"/>
<path d="M38.0655 116.437C38.0636 116.427 38.0652 116.416 38.07 116.406C38.0749 116.396 38.0827 116.388 38.0923 116.384C38.1159 116.367 38.6165 115.92 39.0298 115.964C39.0899 115.972 39.1478 115.992 39.1998 116.023C39.2518 116.054 39.2969 116.096 39.3322 116.145C39.3713 116.18 39.3972 116.228 39.4058 116.28C39.4143 116.331 39.4049 116.385 39.3792 116.431C39.2247 116.676 38.4183 116.629 38.1058 116.508L38.0823 116.491L38.0655 116.437ZM39.0197 116.101C38.7342 116.126 38.4649 116.244 38.2536 116.437C38.6064 116.528 39.2079 116.525 39.2885 116.373C39.2885 116.373 39.3187 116.323 39.2515 116.239L39.2179 116.219C39.1695 116.154 39.099 116.108 39.0197 116.091V116.101Z" fill="#43744B"/>
<path d="M38.0991 115.853L36.5871 114.173C36.5544 114.134 36.5087 114.109 36.4586 114.101C36.4085 114.094 36.3574 114.105 36.3149 114.132L34.5509 115.161C34.3829 115.275 34.4871 115.738 34.5005 115.755C35.4312 117.005 37.4304 119.317 38.1797 120.123C38.929 120.93 39.7522 120.288 39.5237 119.895C38.4451 118.124 38.3343 117.156 38.2839 116.293C38.2767 116.129 38.2112 115.973 38.0991 115.853Z" fill="#263238"/>
<g opacity="0.2">
<path d="M38.7039 111.861L40.4141 110.134L42.541 111.485L40.4107 113.467L38.7039 111.861Z" fill="black"/>
</g>
<path d="M40.609 88.2166C40.557 88.6867 40.557 89.1611 40.609 89.6312C40.8644 92.121 46.9057 102.86 46.3983 103.192C44.4361 104.479 42.3361 106.737 39.6985 110.829C40.4109 111.599 41.0838 112.404 41.7145 113.242C41.7145 113.242 49.345 107.402 51.1594 104.909C52.2783 103.377 48.1657 86.2611 46.9292 85.1725C46.2572 84.5643 40.9316 83.6269 40.609 88.2166Z" fill="#263238"/>
<g opacity="0.2">
<path d="M40.609 88.2166C40.557 88.6867 40.557 89.1611 40.609 89.6312C40.8644 92.121 46.9057 102.86 46.3983 103.192C44.4361 104.479 42.3361 106.737 39.6985 110.829C40.4109 111.599 41.0838 112.404 41.7145 113.242C41.7145 113.242 49.345 107.402 51.1594 104.909C52.2783 103.377 48.1657 86.2611 46.9292 85.1725C46.2572 84.5643 40.9316 83.6269 40.609 88.2166Z" fill="black"/>
</g>
<path d="M42.8063 112.654C42.8063 112.671 41.5194 113.679 41.5194 113.679L38.939 110.725L39.9839 109.637L42.8063 112.654Z" fill="#263238"/>
<path opacity="0.6" d="M42.8063 112.654C42.8063 112.671 41.5194 113.679 41.5194 113.679L38.939 110.725L39.9839 109.637L42.8063 112.654Z" fill="white"/>
<path d="M48.3303 83.7513L49.1032 84.0873L43.5255 93.3642C43.5255 93.3642 40.5184 94.5604 39.0937 91.449C36.5334 85.8479 40.6561 80.6399 40.6561 80.6399C40.6561 80.6399 45.5247 82.4644 48.3303 83.7513Z" fill="#263238"/>
<path d="M25.432 112.288L19.804 115.806C19.3885 115.208 19.0061 114.587 18.6582 113.948L23.6142 110.544L25.432 112.288Z" fill="#F7978D"/>
<path d="M20.0491 116.29C20.0425 116.279 20.0391 116.267 20.0391 116.254C20.0391 116.242 20.0425 116.23 20.0491 116.219C20.0592 116.213 20.0708 116.209 20.0827 116.209C20.0945 116.209 20.1062 116.213 20.1163 116.219C20.1566 116.239 21.0571 116.706 21.2049 117.136C21.2367 117.216 21.2367 117.305 21.2049 117.385C21.1913 117.43 21.1637 117.469 21.1262 117.497C21.0887 117.524 21.0433 117.539 20.9966 117.54C20.8252 117.54 20.6135 117.298 20.4321 117.015C20.2831 116.785 20.1549 116.542 20.0491 116.29ZM21.0571 117.066C20.83 116.791 20.5515 116.562 20.2372 116.394C20.4489 116.834 20.8151 117.382 21.0134 117.402C21.0403 117.402 21.0772 117.402 21.1142 117.311C21.1326 117.263 21.1326 117.211 21.1142 117.163C21.0997 117.126 21.0817 117.09 21.0604 117.056L21.0571 117.066Z" fill="#43744B"/>
<path d="M20.0559 116.256C20.0567 116.245 20.0607 116.235 20.0672 116.227C20.0738 116.218 20.0827 116.212 20.0929 116.209C20.1197 116.209 20.701 115.873 21.1009 115.984C21.1578 116.004 21.2101 116.036 21.2545 116.077C21.299 116.118 21.3347 116.167 21.3596 116.222C21.3912 116.264 21.4083 116.315 21.4083 116.367C21.4083 116.419 21.3912 116.47 21.3596 116.511C21.158 116.72 20.3785 116.511 20.0962 116.33L20.0761 116.313L20.0559 116.256ZM21.0639 116.108C20.7821 116.071 20.4959 116.129 20.2508 116.273C20.5868 116.431 21.1681 116.545 21.2789 116.414C21.2789 116.414 21.3159 116.37 21.2789 116.273L21.2487 116.249C21.2294 116.212 21.2022 116.18 21.1692 116.154C21.1361 116.129 21.0979 116.111 21.0572 116.101L21.0639 116.108Z" fill="#43744B"/>
<path d="M20.2037 115.685L19.0579 113.739C19.0326 113.696 18.9929 113.663 18.9456 113.645C18.8983 113.628 18.8465 113.628 18.7992 113.645L16.8672 114.3C16.6757 114.381 16.6858 114.855 16.6992 114.875C17.3712 116.286 18.8563 118.947 19.4309 119.885C20.0055 120.822 20.9429 120.358 20.7749 119.925C20.0727 117.976 20.1567 117.005 20.281 116.148C20.3119 115.99 20.2845 115.825 20.2037 115.685Z" fill="#263238"/>
<g opacity="0.2">
<path d="M21.5981 111.891L23.6141 110.541L25.4319 112.288L22.9489 113.806L21.5981 111.891Z" fill="black"/>
</g>
<path d="M39.1676 86.4695C38.9401 86.8833 38.7609 87.3218 38.6333 87.7765C37.9042 90.1688 31.6345 102.849 31.0935 103.128C28.0695 104.674 22.5322 110.883 22.5322 110.883C22.8682 111.932 24.2122 113.554 24.2122 113.554C24.2122 113.554 31.8865 108.484 34.4165 106.727C38.7845 103.703 47.3996 88.1125 46.6772 86.6274C46.274 85.7975 41.2441 82.3636 39.1676 86.4695Z" fill="#263238"/>
<path d="M25.4286 113.259C25.4286 113.276 24.0442 114.142 24.0442 114.142L21.783 110.937L22.9455 109.966L25.4286 113.259Z" fill="#263238"/>
<path opacity="0.6" d="M25.4286 113.259C25.4286 113.276 24.0442 114.142 24.0442 114.142L21.783 110.937L22.9455 109.966L25.4286 113.259Z" fill="white"/>
<path d="M67.1429 72.5759C67.1698 72.2903 68.1139 70.9564 68.3088 71.0303C68.6124 71.3006 68.8357 71.6494 68.9539 72.0383C68.9103 72.2735 68.2819 74.0543 67.1295 74.0543C66.6893 74.014 67.1429 72.5759 67.1429 72.5759Z" fill="#F7978D"/>
<path d="M68.3088 71.0135C68.3088 71.0135 69.0245 70.5834 69.29 70.6775C69.5341 70.8131 69.7524 70.9905 69.9351 71.2017L68.954 72.0182L68.3088 71.0135Z" fill="#F7978D"/>
<path d="M66.0308 72.6532L67.1429 72.5591L67.1295 74.0173L64.9993 73.9972L66.0308 72.6532Z" fill="#F7978D"/>
<path d="M66.8102 72.4684V74.3903L59.7542 74.7263C59.4888 74.686 53.5684 74.0106 53.0712 73.9401L52.752 69.9854C53.0241 70.0761 56.4177 71.158 59.7307 72.045C60.5035 72.0618 66.454 72.5356 66.8102 72.4684Z" fill="#43744B"/>
<g opacity="0.1">
<path d="M66.8102 72.4684V74.3903L59.7542 74.7263C59.4888 74.686 53.5684 74.0106 53.0712 73.9401L52.752 69.9854C53.0241 70.0761 56.4177 71.158 59.7307 72.045C60.5035 72.0618 66.454 72.5356 66.8102 72.4684Z" fill="black"/>
</g>
<path opacity="0.2" d="M57.5972 74.5281C56.3439 74.3534 53.8709 74.051 53.0645 73.9367L52.9268 72.2231C53.76 73.0631 54.17 73.5839 57.5972 74.5281Z" fill="black"/>
<path d="M45.5045 67.368C45.7627 67.0464 46.109 66.8072 46.5011 66.6794C46.8932 66.5517 47.314 66.5411 47.712 66.6489H47.7322C48.3202 66.8741 49.0493 67.1765 49.7482 67.5225C51.3128 68.3928 52.8079 69.3824 54.2203 70.4827C54.4672 70.7255 54.6455 71.0294 54.7369 71.3634C54.8284 71.6974 54.8299 72.0497 54.7411 72.3845C54.2472 74.5517 52.1976 79.7765 48.4613 85.1525L40.656 80.64C40.656 80.64 43.2062 78.5937 45.5045 67.368Z" fill="#43744B"/>
<path d="M53.5651 67.4822C53.4721 67.5993 53.3857 67.7216 53.3064 67.8484C53.2652 67.9046 53.2271 67.9629 53.1922 68.0232C53.0813 68.1979 52.9939 68.3323 52.9267 68.4432C52.8519 68.5274 52.8084 68.6349 52.8035 68.7475C52.7986 68.8601 52.8326 68.9709 52.8999 69.0614C53.0425 69.2863 53.1341 69.5397 53.1684 69.8038C53.2026 70.0679 53.1786 70.3363 53.0981 70.5902C52.9267 71.0841 52.5571 71.5041 51.7709 71.1983C50.0909 70.4255 49.6709 68.5439 49.6709 68.5439C50.9477 68.1004 51.744 65.614 52.0666 64.1927L52.7016 65.5871L53.5651 67.4822Z" fill="#F7978D"/>
<path opacity="0.2" d="M53.3063 67.8484C53.2651 67.9045 53.227 67.9629 53.1921 68.0231C53.0812 68.1978 52.9938 68.3322 52.9266 68.4431C52.4562 68.0534 52.0463 67.173 52.2311 66.6018C52.2906 66.4069 52.3729 66.2196 52.4764 66.0441L53.3063 67.8484Z" fill="black"/>
<path d="M53.7028 60.9973C53.9785 60.8095 54.2885 60.6778 54.6151 60.6099C54.9417 60.542 55.2785 60.5391 55.6062 60.6016C55.9339 60.664 56.2461 60.7904 56.5249 60.9737C56.8036 61.1569 57.0435 61.3933 57.2308 61.6693C58.427 63.3258 57.2308 65.9332 56.0011 67.2033C55.6913 67.5385 55.2959 67.7826 54.8575 67.9093C54.419 68.036 53.9543 68.0404 53.5135 67.9221C53.0728 67.8038 52.6727 67.5672 52.3567 67.238C52.0406 66.9087 51.8206 66.4994 51.7204 66.0541C51.3844 64.6833 51.9825 63.7223 52.8527 62.002C53.0414 61.5973 53.3349 61.2504 53.7028 60.9973Z" fill="#F7978D"/>
<path d="M55.4401 67.2537C54.7426 67.0424 54.0718 66.7515 53.4409 66.3868C53.8441 65.9601 54.2708 65.9533 54.9966 66.3431C55.7224 66.7329 55.4401 67.2537 55.4401 67.2537Z" fill="#263238"/>
<path d="M55.3626 67.2302C55.3785 67.1646 55.377 67.0959 55.3581 67.031C55.3393 66.9662 55.3037 66.9074 55.2551 66.8606C54.8323 66.6406 54.3889 66.4628 53.9312 66.3297C53.8583 66.3021 53.7791 66.2953 53.7026 66.3102C53.626 66.325 53.5551 66.3609 53.4978 66.4137C54.0931 66.7425 54.7173 67.0158 55.3626 67.2302Z" fill="#FAFAFA"/>
<path d="M55.2015 66.8807C54.777 66.787 54.3692 66.6295 53.9919 66.4137C53.8996 66.3335 53.83 66.2303 53.7903 66.1146C54.096 65.9769 54.4623 66.0575 54.9932 66.333C55.1954 66.4267 55.3583 66.5884 55.4535 66.79C55.3734 66.8301 55.2888 66.8606 55.2015 66.8807Z" fill="#FAFAFA"/>
<path d="M55.655 66.2121C55.7577 66.29 55.8762 66.3445 56.0021 66.3718C56.1281 66.3991 56.2585 66.3985 56.3841 66.3701C56.2455 65.8689 56.1765 65.3511 56.1792 64.8312L55.655 66.2121Z" fill="#FF5652"/>
<path d="M52.9838 59.8986L51.5054 60.2346C51.2211 60.2874 50.946 60.3813 50.6889 60.5135C50.559 60.5812 50.4454 60.6764 50.3561 60.7924C50.2667 60.9085 50.2037 61.0426 50.1715 61.1855C50.1514 61.3919 50.1955 61.5994 50.2978 61.7798C50.4 61.9602 50.5553 62.1046 50.7427 62.1935C50.6262 62.299 50.5339 62.4283 50.4718 62.5727C50.4098 62.7171 50.3795 62.8731 50.3831 63.0301C50.3926 63.197 50.436 63.3602 50.5105 63.5098C50.585 63.6594 50.6891 63.7923 50.8166 63.9004C50.7703 64.0128 50.7495 64.1342 50.7559 64.2557C50.7623 64.3771 50.7957 64.4956 50.8535 64.6026C50.9577 64.8412 51.6163 65.0663 51.586 65.8559C51.7825 65.3053 52.0323 64.7753 52.3319 64.2733C52.6478 63.7929 53.3735 62.5933 54.3748 62.8487C54.5966 62.9058 55.6919 61.0948 55.0737 60.8596C54.6974 60.7151 53.1484 59.8617 52.9838 59.8986Z" fill="#263238"/>
<path d="M57.708 62.9328C57.7175 62.2017 57.6282 61.4727 57.4425 60.7656C57.3695 60.4807 57.2302 60.217 57.036 59.9961C56.9353 59.884 56.8067 59.8006 56.6632 59.7546C56.5197 59.7085 56.3666 59.7014 56.2195 59.734C56.0877 59.4938 55.92 59.2751 55.7222 59.0856C55.5215 58.8955 55.2561 58.7886 54.9796 58.7865C54.8474 58.7783 54.7159 58.8113 54.6033 58.8812C54.4907 58.951 54.4027 59.0541 54.3513 59.1763C53.9621 59.0909 53.5629 59.0604 53.1652 59.0856C52.7644 59.113 52.3872 59.2849 52.1035 59.5694C51.9648 59.7125 51.8699 59.8923 51.83 60.0876C51.7901 60.2828 51.8069 60.4854 51.8784 60.6715C52.1417 60.4821 52.4427 60.3513 52.7609 60.2881C53.0792 60.225 53.4072 60.2308 53.723 60.3052C54.3312 60.4833 54.8486 61.283 55.0905 61.8676C55.4332 61.8053 55.7868 61.8526 56.1011 62.0028C56.4154 62.153 56.6743 62.3985 56.8411 62.7043C56.9176 62.6538 57.0049 62.6221 57.096 62.6115C57.187 62.601 57.2792 62.6121 57.3652 62.6438C57.5097 62.7244 57.7012 62.7648 57.708 62.9328Z" fill="#263238"/>
<path d="M52.5605 62.6202C52.9973 62.7311 53.0947 63.178 53.0309 63.7391C52.9335 64.4413 52.4597 64.9319 52.0229 64.6463C51.6869 64.4682 51.5962 63.8802 51.6399 63.4669C51.6835 62.9428 52.08 62.4959 52.5605 62.6202Z" fill="#F7978D"/>
<path d="M55.4198 64.0717C55.5038 64.1289 55.5038 64.2969 55.4198 64.4077C55.3358 64.5186 55.2148 64.5959 55.1275 64.5421C55.0401 64.4884 55.0468 64.3405 55.1275 64.2061C55.2081 64.0717 55.3324 64.018 55.4198 64.0717Z" fill="#263238"/>
<path d="M57.0259 64.7404C57.1133 64.7942 57.1233 64.9454 57.0494 65.0764C56.9755 65.2075 56.8411 65.2848 56.7537 65.231C56.6664 65.1772 56.6563 65.0227 56.7336 64.895C56.8109 64.7673 56.9385 64.69 57.0259 64.7404Z" fill="#263238"/>
<path d="M57.063 63.9777C57.0765 63.984 57.0883 63.9934 57.0977 64.005C57.107 64.0167 57.1135 64.0303 57.1167 64.0449C57.1331 64.1612 57.1754 64.2723 57.2406 64.37C57.3057 64.4677 57.392 64.5495 57.493 64.6094C57.504 64.6137 57.514 64.6203 57.5224 64.6287C57.5308 64.6371 57.5374 64.6471 57.5418 64.6581C57.5462 64.6691 57.5483 64.6808 57.548 64.6927C57.5477 64.7045 57.545 64.7162 57.5401 64.727C57.5292 64.7482 57.5107 64.7646 57.4882 64.7727C57.4658 64.7808 57.4411 64.7801 57.4191 64.7706C57.2915 64.6983 57.1822 64.5977 57.0995 64.4765C57.0168 64.3554 56.9629 64.2169 56.942 64.0718C56.9388 64.0479 56.9447 64.0237 56.9583 64.0038C56.972 63.9839 56.9925 63.9698 57.0159 63.9642L57.063 63.9777Z" fill="#263238"/>
<path d="M55.1644 63.4805C55.1777 63.4731 55.1928 63.4693 55.208 63.4693C55.2233 63.4693 55.2383 63.4731 55.2517 63.4805C55.3568 63.5301 55.4715 63.5559 55.5877 63.5559C55.7039 63.5559 55.8187 63.5301 55.9237 63.4805C55.9334 63.4743 55.9443 63.47 55.9556 63.468C55.9669 63.466 55.9786 63.4663 55.9898 63.4688C56.001 63.4713 56.0117 63.4759 56.0211 63.4826C56.0305 63.4892 56.0385 63.4976 56.0447 63.5074C56.0507 63.5177 56.0546 63.5292 56.0561 63.541C56.0577 63.5529 56.0569 63.565 56.0538 63.5765C56.0506 63.5881 56.0453 63.5989 56.0379 63.6084C56.0306 63.6178 56.0215 63.6258 56.0111 63.6317C55.8798 63.6978 55.7348 63.7323 55.5877 63.7323C55.4407 63.7323 55.2957 63.6978 55.1644 63.6317C55.1431 63.6208 55.1267 63.6023 55.1186 63.5798C55.1105 63.5574 55.1113 63.5327 55.1207 63.5107C55.1336 63.4985 55.1483 63.4883 55.1644 63.4805Z" fill="#263238"/>
<path d="M119.606 63.0403H65.614V120.59H119.606V63.0403Z" fill="#43744B"/>
<path opacity="0.6" d="M119.606 63.0436H65.614V120.59H119.606V63.0436Z" fill="white"/>
<path opacity="0.1" d="M119.606 63.0436H105.548V120.59H119.606V63.0436Z" fill="black"/>
<path d="M65.0092 72.0048C65.0092 71.7124 65.9332 70.3248 66.1348 70.3886C66.4561 70.6539 66.6979 71.0027 66.8337 71.3966C66.7968 71.6385 66.2256 73.4697 65.0529 73.5033C64.6027 73.5033 65.0092 72.0048 65.0092 72.0048Z" fill="#F7978D"/>
<path d="M66.135 70.3885C66.135 70.3885 66.8473 69.9215 67.1229 70.0088C67.3741 70.137 67.6015 70.3075 67.7949 70.5128L66.8272 71.3831L66.135 70.3885Z" fill="#F7978D"/>
<path d="M63.8802 72.1459L65.0092 72.0048L65.0529 73.4899L62.8823 73.5537L63.8802 72.1459Z" fill="#F7978D"/>
<path d="M48.2564 66.864C45.6524 65.5805 44.4226 68.544 45.8204 70.1702C46.3647 70.7985 50.4942 72.912 54.4254 73.5302C57.7114 74.0342 63.2924 74.0544 64.334 74.0141L64.2668 71.7595L54.7043 70.7313L48.2564 66.864Z" fill="#43744B"/>
<g opacity="0.1">
<path d="M48.2564 66.864C45.6524 65.5805 44.4226 68.544 45.8204 70.1702C46.3647 70.7985 50.4942 72.912 54.4254 73.5302C57.7114 74.0342 63.2924 74.0544 64.334 74.0141L64.2668 71.7595L54.7043 70.7313L48.2564 66.864Z" fill="white"/>
</g>
<path d="M41.543 120.288C40.9819 120.335 58.7865 120.288 58.7865 120.288L58.7093 117.583L56.448 119.035V117.842L52.7822 119.28V118.003C52.7822 118.003 49.728 119.596 41.543 120.288Z" fill="#43744B"/>
<path opacity="0.6" d="M41.543 120.288C40.9819 120.335 58.7865 120.288 58.7865 120.288L58.7093 117.583L56.448 119.035V117.842L52.7822 119.28V118.003C52.7822 118.003 49.728 119.596 41.543 120.288Z" fill="white"/>
<path d="M65.95 115.228L59.7441 117.842C59.4245 117.176 59.1407 116.492 58.894 115.796L64.4145 113.182L65.95 115.228Z" fill="#F7978D"/>
<path d="M59.9121 118.369C59.9098 118.357 59.9107 118.343 59.9149 118.331C59.919 118.319 59.9261 118.308 59.9357 118.299C59.9459 118.291 59.9583 118.287 59.9709 118.287C59.9836 118.287 59.9959 118.291 60.0062 118.299C60.0432 118.326 60.8697 118.937 60.947 119.394C60.9654 119.478 60.951 119.566 60.9067 119.639C60.8857 119.682 60.8515 119.717 60.8091 119.739C60.7667 119.761 60.7185 119.768 60.6715 119.76C60.5001 119.737 60.3355 119.455 60.191 119.146C60.0749 118.896 59.9816 118.636 59.9121 118.369ZM60.7992 119.307C60.6138 119.001 60.3707 118.734 60.0835 118.521C60.228 118.994 60.5035 119.606 60.7017 119.646C60.7286 119.646 60.7656 119.646 60.816 119.572C60.8299 119.55 60.8392 119.525 60.8432 119.499C60.8472 119.473 60.846 119.447 60.8395 119.421C60.8318 119.381 60.8194 119.341 60.8025 119.303L60.7992 119.307Z" fill="#43744B"/>
<path d="M59.9258 118.329C59.9277 118.318 59.9329 118.308 59.9407 118.3C59.9485 118.293 59.9586 118.287 59.9695 118.285C59.9963 118.285 60.6415 118.033 61.0111 118.222C61.0652 118.251 61.1127 118.292 61.1508 118.34C61.1889 118.389 61.2168 118.444 61.2328 118.504C61.257 118.551 61.2645 118.606 61.2542 118.658C61.2438 118.711 61.2162 118.758 61.1757 118.793C60.9405 118.968 60.1912 118.638 59.9392 118.41V118.386L59.9258 118.329ZM60.9539 118.329C60.6781 118.246 60.3823 118.258 60.1139 118.363C60.4163 118.574 60.9875 118.783 61.1219 118.669C61.1219 118.669 61.169 118.635 61.1219 118.527L61.0984 118.497C61.0707 118.43 61.0193 118.375 60.9539 118.343V118.329Z" fill="#43744B"/>
<path d="M60.1642 117.785L59.3276 115.651C59.3096 115.604 59.2754 115.564 59.2311 115.54C59.1869 115.515 59.1354 115.507 59.0857 115.517L57.0428 115.853C56.8412 115.903 56.774 116.38 56.7807 116.4C57.2175 117.919 58.2894 120.832 58.7127 121.86C59.1361 122.889 60.1508 122.579 60.0567 122.119C59.667 120.053 59.9089 119.095 60.1676 118.259C60.224 118.105 60.2228 117.937 60.1642 117.785Z" fill="#263238"/>
<g opacity="0.2">
<path d="M62.1736 114.21L64.4147 113.182L65.9502 115.228L63.2185 116.347L62.1736 114.21Z" fill="black"/>
</g>
<path d="M73.9905 91.5364C73.7781 91.9654 73.6125 92.416 73.4966 92.8804C72.8481 95.3366 73.1942 108.595 72.5928 108.73C70.2677 109.25 67.4654 110.645 63.4939 113.585C63.9 114.574 64.2544 115.583 64.5557 116.609C64.5557 116.609 73.8998 113.793 76.5139 112.076C78.1233 111.018 81.8899 92.3933 81.107 90.9081C80.6635 90.0883 75.936 87.2928 73.9905 91.5364Z" fill="#43744B"/>
<g opacity="0.2">
<path d="M73.9905 91.5364C73.7781 91.9654 73.6125 92.416 73.4966 92.8804C72.8481 95.3366 73.1942 108.595 72.5928 108.73C70.2677 109.25 67.4654 110.645 63.4939 113.585C63.9 114.574 64.2544 115.583 64.5557 116.609C64.5557 116.609 73.8998 113.793 76.5139 112.076C78.1233 111.018 81.8899 92.3933 81.107 90.9081C80.6635 90.0883 75.936 87.2928 73.9905 91.5364Z" fill="black"/>
</g>
<path d="M82.6729 87.9379L83.4693 88.2369C82.8376 92.625 82.4142 94.2681 82.4142 94.2681L81.4869 96.7175C81.4869 96.7175 74.703 98.1355 73.1406 95.0375C70.3317 89.4633 74.7568 85.0785 74.7568 85.0785C74.7568 85.0785 79.78 86.7383 82.6729 87.9379Z" fill="#43744B"/>
<path d="M92.0003 115.221L90.6193 121.605C90.4043 121.669 88.4924 121.766 88.4924 121.766L89.188 115.584L92.0003 115.221Z" fill="#F7978D"/>
<path d="M91.2206 121.474C91.2098 121.468 91.2012 121.458 91.1958 121.447C91.1905 121.435 91.1886 121.423 91.1904 121.41C91.1925 121.397 91.198 121.385 91.2062 121.375C91.2145 121.365 91.2252 121.358 91.2374 121.353C91.2844 121.353 92.3227 121.041 92.7091 121.262C92.7466 121.282 92.7795 121.309 92.8056 121.342C92.8317 121.375 92.8504 121.413 92.8603 121.454C92.8763 121.501 92.8775 121.552 92.8637 121.6C92.8499 121.648 92.8217 121.691 92.783 121.723C92.6452 121.85 92.316 121.82 91.99 121.723C91.7261 121.665 91.4684 121.582 91.2206 121.474ZM92.5377 121.33C92.1742 121.29 91.8064 121.323 91.4558 121.427C91.9027 121.608 92.5478 121.763 92.7158 121.625C92.7393 121.602 92.7628 121.571 92.7427 121.484C92.7369 121.459 92.7258 121.436 92.7102 121.415C92.6945 121.395 92.6747 121.378 92.652 121.367C92.6152 121.35 92.5769 121.336 92.5377 121.326V121.33Z" fill="#43744B"/>
<path d="M91.2006 121.44C91.194 121.431 91.1904 121.419 91.1904 121.407C91.1904 121.395 91.194 121.383 91.2006 121.373C91.2006 121.346 91.4829 120.661 91.8894 120.466C91.9469 120.442 92.0086 120.43 92.0709 120.43C92.1332 120.43 92.1948 120.442 92.2523 120.466C92.3038 120.478 92.3494 120.508 92.3808 120.55C92.4122 120.593 92.4274 120.645 92.4237 120.698C92.3867 121.004 91.6139 121.42 91.2678 121.484H91.2376L91.2006 121.44ZM91.9398 120.59C91.6824 120.77 91.4837 121.021 91.3686 121.313C91.7382 121.192 92.296 120.849 92.3061 120.671C92.3061 120.654 92.3061 120.611 92.212 120.57H92.1717C92.0945 120.549 92.0122 120.556 91.9398 120.59Z" fill="#43744B"/>
<path d="M90.972 120.896L88.5595 120.16C88.5076 120.146 88.4524 120.15 88.403 120.172C88.3536 120.193 88.3128 120.23 88.2874 120.278L87.0946 122.196C86.9871 122.398 87.2895 122.754 87.3096 122.761C88.7343 123.356 91.8859 124.387 92.9443 124.683C94.0027 124.979 94.4866 123.944 94.0867 123.725C92.2959 122.744 91.7616 121.938 91.3349 121.192C91.2972 121.121 91.2457 121.058 91.1834 121.007C91.1211 120.956 91.0492 120.919 90.972 120.896Z" fill="#263238"/>
<g opacity="0.2">
<path d="M88.9595 117.607L89.188 115.577L92.0003 115.221L91.4123 117.996L88.9595 117.607Z" fill="black"/>
</g>
<path d="M73.2213 93.6466C76.6417 98.3506 89.7525 103.317 89.7525 103.317C89.2249 107.541 88.9601 111.794 88.9595 116.051C89.9847 116.141 90.9979 116.336 91.9835 116.632C91.9835 116.632 95.1688 103.881 95.1688 101.002C95.1688 98.2733 78.2377 85.848 74.1889 88.0959C73.0667 88.704 71.6253 91.4592 73.2213 93.6466Z" fill="#43744B"/>
<path d="M92.9678 115.329C92.9913 115.329 92.4571 117.106 92.4571 117.106L87.9883 116.384L88.2537 114.704L92.9678 115.329Z" fill="#43744B"/>
<path d="M65.7823 116.431C65.7823 116.454 64.1963 116.945 64.1963 116.945L62.7986 113.232L64.1896 112.56L65.7823 116.431Z" fill="#43744B"/>
<path opacity="0.2" d="M92.9678 115.329C92.9913 115.329 92.4571 117.106 92.4571 117.106L87.9883 116.384L88.2537 114.704L92.9678 115.329Z" fill="black"/>
<path opacity="0.2" d="M65.7823 116.431C65.7823 116.454 64.1963 116.945 64.1963 116.945L62.7986 113.232L64.1896 112.56L65.7823 116.431Z" fill="black"/>
<path d="M83.103 89.04L74.4409 84.5779C74.8038 83.711 75.3649 82.498 77.008 78.97C78.1001 76.523 79.0328 74.0078 79.8001 71.4403V71.4167C79.9066 71.1007 80.134 70.8398 80.4326 70.6912C80.7311 70.5425 81.0764 70.5183 81.3928 70.6238H81.4129C82.0177 70.8321 82.7569 71.111 83.4793 71.4369C84.843 72.0409 86.1703 72.7242 87.4542 73.4832C87.8715 73.755 88.27 74.0547 88.647 74.3803C88.9131 74.5971 89.1159 74.8815 89.2341 75.2037C89.3523 75.5259 89.3817 75.874 89.319 76.2115C88.9225 78.4224 88.0321 80.8785 83.103 89.04Z" fill="#43744B"/>
<path opacity="0.8" d="M83.1028 89.04L74.7432 84.7359C75.1094 83.8656 75.2875 83.8623 79.7832 71.4404V71.4168C79.885 71.1044 80.1055 70.8445 80.3971 70.6931C80.6887 70.5416 81.0281 70.5107 81.3422 70.6071H81.3624C81.947 70.8053 82.6728 71.0708 83.3582 71.3799C84.6722 71.9638 85.9511 72.6234 87.1886 73.3556C87.5898 73.6205 87.9726 73.9124 88.3344 74.2292C88.5951 74.4441 88.7925 74.7258 88.9055 75.0442C89.0185 75.3625 89.0429 75.7057 88.9761 76.0368C88.5595 78.2343 88.0084 80.8685 83.1028 89.04Z" fill="white"/>
<path d="M83.1097 90.599C83.1399 90.4041 73.7017 86.8492 73.7017 86.8492L74.1821 85.7102L83.4927 89.712L83.1097 90.599Z" fill="#263238"/>
<path opacity="0.7" d="M83.1097 90.599C83.1399 90.4041 73.7017 86.8492 73.7017 86.8492L74.1821 85.7102L83.4927 89.712L83.1097 90.599Z" fill="white"/>
<path d="M83.4289 71.2319C82.683 70.8959 81.8866 70.5969 81.2482 70.3785H81.2281H81.1911C81.0252 70.3271 80.8508 70.3089 80.6779 70.325C80.5049 70.3411 80.3369 70.3912 80.1833 70.4723C80.0298 70.5535 79.8937 70.6641 79.783 70.7979C79.6722 70.9317 79.589 71.0861 79.538 71.2521C78.7325 73.9466 77.7538 76.5864 76.6081 79.1548C74.0914 81.4598 70.4996 80.4988 68.4164 82.5451L66.5146 84.1142L67.1295 84.2721C70.1498 85.0351 72.9334 86.536 75.2305 88.6401C83.3348 85.7203 84.3663 73.2815 83.8489 71.4067L83.4289 71.2319Z" fill="#263238"/>
<path opacity="0.2" d="M77.7908 76.3257C78.3351 74.8574 78.7081 73.836 79.2389 72.1761C79.2651 72.1583 79.2933 72.1436 79.3229 72.1325C79.9949 71.8133 80.7442 71.7528 79.79 73.7688C79.79 73.7688 78.1637 76.1813 77.7908 76.3257Z" fill="black"/>
<path d="M85.4583 73.8225C83.4423 72.9153 83.3247 71.3697 83.3247 71.3697C84.6351 70.9497 85.5053 68.4465 85.8682 67.0017L86.4764 68.4297L87.3063 70.3785C87.1645 70.5496 87.0332 70.7291 86.9132 70.9161C86.4293 71.6587 86.2647 72.4819 87.2794 73.3487C87.2794 73.3622 87.1887 74.5919 85.4583 73.8225Z" fill="#F7978D"/>
<path d="M82.992 71.0135L83.7144 71.1009C84.0504 72.1089 85.0584 73.1169 85.8043 73.8628C85.2914 73.9225 84.8082 74.1343 84.4167 74.471C82.693 72.6801 82.992 71.0135 82.992 71.0135Z" fill="#43744B"/>
<path opacity="0.7" d="M83.7213 71.1009C84.0573 72.1089 85.0653 73.1169 85.8112 73.8628C85.2983 73.9225 84.815 74.1343 84.4235 74.471C82.6931 72.6801 82.9989 71.0135 82.9989 71.0135" fill="white"/>
<path d="M87.3299 73.2479L86.8225 72.838C86.8225 72.838 85.9893 73.8964 85.324 73.7654C86.1371 74.6793 86.0464 75.2673 86.0464 75.2673C87.7499 75.5495 87.3299 73.2479 87.3299 73.2479Z" fill="#43744B"/>
<path d="M101.895 75.5025C101.895 75.2337 102.702 73.9233 102.903 73.9771C103.206 74.2101 103.438 74.5216 103.575 74.8775C103.549 75.1027 103.075 76.8062 101.993 76.8734C101.563 76.8969 101.895 75.5025 101.895 75.5025Z" fill="#F7978D"/>
<path d="M102.89 73.9772C102.89 73.9772 103.535 73.5269 103.79 73.6009C104.029 73.7103 104.247 73.8617 104.432 74.0477L103.562 74.8777L102.89 73.9772Z" fill="#F7978D"/>
<path d="M100.857 75.6638L101.909 75.6739L101.979 76.8734L99.9768 76.991L100.857 75.6638Z" fill="#F7978D"/>
<path d="M101.358 75.6436L100.995 77.3505L94.3388 77.8679L88.2908 77.2564L87.854 73.5604C88.1161 73.6343 91.0863 74.6424 94.238 75.3614C94.9537 75.3379 101.358 75.6436 101.358 75.6436Z" fill="#263238"/>
<g opacity="0.2">
<path d="M101.358 75.6436L100.995 77.3505L94.3388 77.8679L88.2908 77.2564L87.854 73.5604C88.1161 73.6343 91.0863 74.6424 94.238 75.3614C94.9537 75.3379 101.358 75.6436 101.358 75.6436Z" fill="black"/>
</g>
<path opacity="0.2" d="M92.0271 77.6328L88.2841 77.2565L88.1228 75.8688C88.6772 76.1712 90.6932 76.944 92.0271 77.6328Z" fill="black"/>
<path d="M83.3281 91.2072L81.7119 90.2328C85.9254 83.5464 87.639 75.7109 87.2996 73.2581C87.9111 73.6142 87.9313 73.4899 88.5025 73.9065C88.7923 74.1599 89.0114 74.4841 89.1386 74.8474C89.2658 75.2108 89.2967 75.6008 89.2282 75.9797C89.2215 78.0293 88.1094 80.64 83.3281 91.2072Z" fill="#263238"/>
<path opacity="0.7" d="M87.3299 73.2479L86.8225 72.838C86.8225 72.838 85.9893 73.8964 85.324 73.7654C86.1371 74.6793 86.0464 75.2673 86.0464 75.2673C87.7499 75.5495 87.3299 73.2479 87.3299 73.2479Z" fill="white"/>
<path opacity="0.2" d="M87.024 70.7582L86.2277 68.9001C86.1208 69.0774 86.0329 69.2655 85.9656 69.4613C85.764 70.056 86.1806 70.9901 86.6644 71.3832L87.024 70.7582Z" fill="black"/>
<path d="M87.612 63.8131C87.8955 63.6288 88.2125 63.5022 88.5449 63.4404C88.8774 63.3786 89.2187 63.383 89.5495 63.4532C89.8802 63.5234 90.1939 63.6581 90.4726 63.8496C90.7512 64.041 90.9895 64.2856 91.1736 64.5691C92.3462 66.2827 91.0526 68.8968 89.7859 70.1568C89.4627 70.489 89.0548 70.7266 88.6064 70.8439C88.158 70.9612 87.686 70.9537 87.2416 70.8223C86.7971 70.6908 86.397 70.4404 86.0844 70.0981C85.7719 69.7558 85.5589 69.3346 85.4683 68.88C85.1726 67.4823 85.8043 66.528 86.7216 64.7976C86.9267 64.3969 87.2338 64.0573 87.612 63.8131Z" fill="#F7978D"/>
<path d="M85.4078 68.4667C85.4078 68.4667 85.6296 66.8707 86.6443 66.6792C86.7317 65.7519 87.4171 66.2727 87.7901 65.772C88.2806 65.2176 88.7208 64.6733 88.3781 63.9576L87.407 63.3259C84.2822 62.16 85.4078 68.4667 85.4078 68.4667Z" fill="#263238"/>
<path d="M89.6113 69.1118C89.7203 69.1844 89.8439 69.2322 89.9733 69.2519C90.1028 69.2716 90.2349 69.2628 90.3606 69.226C90.1862 68.7276 90.0811 68.2075 90.0481 67.6804L89.6113 69.1118Z" fill="#FF5652"/>
<path d="M86.5067 65.4528C87.0745 65.6409 87.1787 66.2054 87.0141 66.6691C86.8965 67.3848 86.3925 67.8753 85.8381 67.2974C85.6172 66.9365 85.5282 66.5103 85.5861 66.0912C85.5837 65.9803 85.6089 65.8705 85.6593 65.7717C85.7097 65.6728 85.7838 65.588 85.875 65.5248C85.9662 65.4616 86.0716 65.4219 86.1818 65.4094C86.292 65.3968 86.4036 65.4117 86.5067 65.4528Z" fill="#F7978D"/>
<path d="M89.272 66.9782C89.3593 67.0387 89.3526 67.2067 89.272 67.3142C89.1913 67.4218 89.0603 67.499 88.9729 67.4419C88.8856 67.3848 88.8957 67.237 88.9729 67.1059C89.0502 66.9749 89.188 66.9211 89.272 66.9782Z" fill="#263238"/>
<path d="M90.8344 67.6872C90.9184 67.7443 90.9217 67.8989 90.8344 68.0232C90.747 68.1475 90.6126 68.2248 90.5252 68.1643C90.4379 68.1038 90.4379 67.9493 90.5252 67.8283C90.6126 67.7073 90.747 67.6267 90.8344 67.6872Z" fill="#263238"/>
<path d="M89.6583 66.5011C89.6441 66.5077 89.6286 66.5112 89.613 66.5112C89.5973 66.5112 89.5818 66.5077 89.5676 66.5011C89.4637 66.4491 89.3496 66.4206 89.2335 66.4176C89.1173 66.4147 89.002 66.4375 88.8956 66.4843C88.8746 66.4969 88.8495 66.5008 88.8256 66.4951C88.8018 66.4895 88.7811 66.4748 88.7679 66.4541C88.7565 66.4325 88.7536 66.4073 88.7598 66.3837C88.766 66.36 88.7809 66.3396 88.8015 66.3264C88.9352 66.2601 89.0824 66.2256 89.2316 66.2256C89.3808 66.2256 89.528 66.2601 89.6617 66.3264C89.6838 66.3373 89.7008 66.3564 89.7089 66.3796C89.7171 66.4029 89.7158 66.4284 89.7054 66.4507C89.6932 66.4705 89.6772 66.4876 89.6583 66.5011Z" fill="#263238"/>
<path d="M91.3182 67.667C91.3033 67.6624 91.2895 67.6546 91.2779 67.6442C91.2663 67.6337 91.2571 67.6209 91.251 67.6065C91.2161 67.4928 91.156 67.3884 91.0752 67.3011C90.9943 67.2138 90.8947 67.1459 90.7839 67.1025C90.7608 67.0962 90.7411 67.081 90.7291 67.0603C90.7172 67.0395 90.7139 67.0148 90.7201 66.9917C90.7278 66.968 90.7443 66.9482 90.7662 66.9364C90.7881 66.9245 90.8137 66.9214 90.8377 66.9278C90.9773 66.9792 91.1032 67.062 91.2058 67.1698C91.3083 67.2775 91.3847 67.4074 91.4291 67.5494C91.4358 67.5735 91.4333 67.5992 91.4221 67.6216C91.4109 67.6439 91.3919 67.6613 91.3686 67.6704L91.3182 67.667Z" fill="#263238"/>
<path d="M92.4875 64.3742C92.3819 64.5936 92.2065 64.7716 91.9888 64.8805C91.7711 64.9894 91.5234 65.0228 91.2846 64.9757C90.6126 64.8413 89.0199 64.0214 88.8519 63.9442C88.7716 63.9021 88.6822 63.8801 88.5915 63.8801C88.5008 63.8801 88.4115 63.9021 88.3311 63.9442C88.2515 63.9994 88.1927 64.0797 88.1641 64.1723C88.1354 64.2649 88.1387 64.3644 88.1732 64.4549C87.5424 64.1229 86.9497 63.7229 86.4059 63.2621C86.3708 62.9254 86.4566 62.5872 86.6478 62.3078C86.81 62.1331 87.0345 62.0293 87.2727 62.0189C87.5022 62.0145 87.7304 62.0544 87.9447 62.1365C88.6235 62.38 89.2772 62.6883 89.8969 63.0571C90.3572 63.3461 90.8612 63.6619 91.3753 63.5443C91.4554 63.5104 91.523 63.4524 91.5688 63.3783C91.6145 63.3043 91.6361 63.2179 91.6307 63.131C91.761 63.2788 91.8738 63.4411 91.9667 63.6149C92.0563 63.4546 92.0884 63.2684 92.0574 63.0874C92.3228 63.3293 92.6555 64.0181 92.4875 64.3742Z" fill="#263238"/>
<path d="M98.0382 78.9936C98.1054 78.7047 99.268 77.4816 99.4562 77.5824C99.7271 77.9027 99.906 78.2906 99.9736 78.7047C99.893 78.9399 98.9891 80.6636 97.8098 80.4855C97.3595 80.4183 98.0382 78.9936 98.0382 78.9936Z" fill="#F7978D"/>
<path d="M99.4561 77.5824C99.4561 77.5824 100.252 77.2464 100.511 77.3841C100.742 77.5574 100.94 77.7701 101.096 78.0124L99.9735 78.7046L99.4561 77.5824Z" fill="#F7978D"/>
<path d="M96.8856 78.9298L98.0381 78.9937L97.8096 80.4855L95.6323 80.1562L96.8856 78.9298Z" fill="#F7978D"/>
<path d="M82.2427 70.802C79.8739 69.048 78.1066 71.7932 79.2187 73.6613C79.6488 74.3904 83.3885 77.2532 87.2055 78.5703C90.3941 79.6757 95.965 80.7106 97.0133 80.8584L97.3493 78.5938L87.9816 75.8285L82.2427 70.802Z" fill="#263238"/>
<path d="M79.7464 87.4296L79.3242 87.2546L78.5666 89.0829L78.9887 89.2578L79.7464 87.4296Z" fill="#263238"/>
<path d="M89.571 69.6023C88.9799 69.1581 88.3422 68.7796 87.6692 68.4734C87.5876 68.7716 87.6185 69.0895 87.756 69.3665C87.8936 69.6434 88.1282 69.8601 88.4151 69.9753C88.6043 70.0795 88.8266 70.1059 89.0349 70.0488C89.2432 69.9917 89.421 69.8556 89.5306 69.6695C89.5472 69.6492 89.5608 69.6266 89.571 69.6023Z" fill="#263238"/>
<path d="M88.2874 69.4142C88.5809 69.5444 88.8189 69.7741 88.9594 70.0627C88.7719 70.0933 88.5794 70.0615 88.4117 69.972C88.1174 69.8431 87.879 69.6131 87.7397 69.3235C87.9273 69.2889 88.1211 69.321 88.2874 69.4142Z" fill="#FF5652"/>
<path d="M89.5138 69.552C89.4695 69.6029 89.4128 69.6414 89.3492 69.6638C89.2856 69.6862 89.2173 69.6917 89.1509 69.6797C88.7212 69.4593 88.3129 69.1995 87.9312 68.9036C87.8662 68.8594 87.8139 68.7989 87.7796 68.7281C87.7454 68.6573 87.7305 68.5788 87.7364 68.5004C88.3581 68.799 88.9528 69.1508 89.5138 69.552Z" fill="white"/>
<path d="M153.579 94.5C153.586 101.094 151.35 107.494 147.239 112.649C143.128 117.804 137.386 121.408 130.956 122.869C124.527 124.33 117.791 123.561 111.856 120.688C105.921 117.815 101.14 113.009 98.297 107.059C95.4543 101.11 94.7193 94.3706 96.2129 87.9482C97.7064 81.5259 101.34 75.8024 106.516 71.7177C111.692 67.633 118.103 65.4301 124.697 65.4706C131.291 65.5112 137.674 67.7929 142.8 71.9409C146.165 74.6597 148.879 78.0966 150.744 81.9998C152.609 85.9031 153.578 90.174 153.579 94.5Z" fill="#43744B"/>
<path opacity="0.1" d="M136.1 77.4816C135.862 93.1157 123.067 105.86 107.436 106.042C106.623 106.042 105.819 106.019 105.023 105.974C102.598 105.8 100.315 104.762 98.5895 103.049C96.8635 101.336 95.8084 99.0611 95.6155 96.637C95.6138 96.6056 95.6138 96.5742 95.6155 96.5429C95.5953 96.2539 95.5785 95.9616 95.5685 95.6693C95.5685 95.4946 95.5685 95.3333 95.5517 95.1451C95.5349 94.957 95.5517 94.7218 95.5517 94.5067C95.5517 94.3555 95.5517 94.2077 95.5517 94.0565C95.5517 93.9927 95.5517 93.9255 95.5517 93.8616C95.5517 93.7978 95.5517 93.6903 95.5517 93.6063C95.5517 93.4719 95.5517 93.3375 95.5517 93.2031C95.5517 93.0015 95.5718 92.8032 95.5853 92.605C95.5853 92.4336 95.6088 92.269 95.6256 92.0875C95.6424 91.9061 95.6457 91.8255 95.6592 91.6978C95.6726 91.5701 95.6961 91.3618 95.7163 91.177C95.7701 90.6999 95.8373 90.2261 95.9145 89.7591C96.9313 83.7754 99.7881 78.2576 104.087 73.9734C108.387 69.6892 113.914 66.8518 119.902 65.856C120.365 65.7821 120.836 65.7183 121.306 65.6645H121.34L122.035 65.5973C122.277 65.5771 122.516 65.557 122.758 65.5435L123.359 65.5133C123.446 65.5133 123.534 65.5133 123.621 65.5133C123.772 65.5133 123.927 65.5133 124.078 65.5133H124.582H125.207L125.775 65.5301H125.939C126.124 65.5301 126.306 65.5301 126.487 65.5603H126.625L126.81 65.5771C129.213 65.7979 131.459 66.865 133.148 68.5881C134.838 70.3112 135.86 72.5783 136.033 74.9852C136.089 75.8095 136.111 76.6416 136.1 77.4816Z" fill="white"/>
<path opacity="0.1" d="M149.268 90.1892C149.267 95.6684 147.716 101.036 144.792 105.67C141.869 110.304 137.693 114.016 132.749 116.376C127.804 118.737 122.292 119.649 116.85 119.007C111.409 118.366 106.26 116.197 101.999 112.752C98.2682 108.157 96.0395 102.527 95.6155 96.6236C95.8084 99.0476 96.8635 101.322 98.5895 103.035C100.315 104.748 102.598 105.786 105.023 105.961C105.821 106.015 106.625 106.037 107.436 106.028C123.067 105.847 135.862 93.1023 136.1 77.4682C136.114 76.6282 136.091 75.796 136.033 74.9717C135.86 72.5649 134.838 70.2978 133.148 68.5747C131.459 66.8516 129.213 65.7845 126.81 65.5637C132.669 66.0119 138.252 68.2393 142.81 71.9477C146.995 77.1053 149.276 83.5472 149.268 90.1892Z" fill="white"/>
<path d="M112.976 122.381C112.955 122.386 112.934 122.386 112.913 122.381C108.298 120.444 104.234 117.395 101.085 113.504C101.071 113.487 101.061 113.468 101.054 113.447C101.047 113.426 101.045 113.403 101.047 113.382C101.05 113.36 101.056 113.338 101.067 113.319C101.077 113.3 101.092 113.283 101.109 113.269C101.144 113.241 101.188 113.228 101.233 113.232C101.278 113.236 101.319 113.258 101.348 113.292C104.46 117.141 108.479 120.158 113.044 122.072C113.084 122.091 113.116 122.124 113.133 122.165C113.15 122.206 113.15 122.252 113.134 122.294C113.119 122.322 113.096 122.345 113.068 122.361C113.04 122.376 113.008 122.383 112.976 122.381Z" fill="#43744B"/>
<path opacity="0.1" d="M136.1 77.4816C135.862 93.1157 123.067 105.86 107.436 106.042C106.623 106.042 105.819 106.019 105.023 105.974C102.598 105.8 100.315 104.762 98.5895 103.049C96.8635 101.336 95.8084 99.0611 95.6155 96.637C95.6138 96.6056 95.6138 96.5742 95.6155 96.5429C95.5953 96.2539 95.5785 95.9616 95.5685 95.6693C95.5685 95.4946 95.5685 95.3333 95.5517 95.1451C95.5349 94.957 95.5517 94.7218 95.5517 94.5067C95.5517 94.2827 95.5517 94.0677 95.5517 93.8616C95.5517 93.7743 95.5517 93.6903 95.5517 93.6063C95.5517 93.4719 95.5517 93.3375 95.5517 93.2031C95.5517 93.0015 95.5718 92.8032 95.5853 92.605C95.5853 92.4336 95.6088 92.269 95.6256 92.0875C95.6424 91.9061 95.6457 91.8255 95.6592 91.6978C95.6726 91.5701 95.6961 91.3618 95.7163 91.177C95.7667 90.6999 95.8339 90.2261 95.9145 89.7591C96.9081 83.7656 99.7573 78.235 104.061 73.9466C108.364 69.6583 113.905 66.8285 119.902 65.856C120.365 65.7787 120.832 65.7115 121.306 65.6645H121.34L122.035 65.5973C122.277 65.5771 122.516 65.557 122.758 65.5435L123.359 65.5133C123.446 65.5133 123.534 65.5133 123.621 65.5133C123.772 65.5133 123.927 65.5133 124.078 65.5133H124.582H125.207L125.775 65.5301H125.939C126.124 65.5301 126.306 65.5301 126.487 65.5603L126.823 65.5839C129.226 65.8046 131.472 66.8717 133.162 68.5948C134.851 70.3179 135.873 72.585 136.046 74.9919C136.093 75.8117 136.111 76.6416 136.1 77.4816Z" fill="white"/>
<path d="M143.445 71.3261C143.406 71.3256 143.369 71.3127 143.338 71.2892C142.341 70.4811 141.293 69.7392 140.199 69.0682C140.161 69.045 140.134 69.0076 140.123 68.9641C140.112 68.9206 140.119 68.8747 140.142 68.8364C140.165 68.798 140.203 68.7705 140.246 68.7598C140.29 68.7491 140.336 68.7561 140.374 68.7792C141.48 69.4584 142.541 70.2093 143.549 71.0271C143.584 71.0548 143.606 71.0951 143.611 71.1391C143.616 71.1832 143.604 71.2275 143.576 71.2623C143.56 71.2817 143.54 71.2975 143.518 71.3085C143.495 71.3195 143.47 71.3255 143.445 71.3261Z" fill="#43744B"/>
<path d="M137.505 67.5796C137.479 67.5793 137.454 67.5736 137.431 67.5628C133.41 65.6478 129.015 64.6505 124.562 64.643C124.517 64.643 124.475 64.6253 124.443 64.5938C124.412 64.5623 124.394 64.5196 124.394 64.475C124.394 64.4305 124.412 64.3877 124.443 64.3562C124.475 64.3247 124.517 64.307 124.562 64.307C129.064 64.3162 133.509 65.3238 137.575 67.2571C137.595 67.2665 137.613 67.2797 137.628 67.2962C137.643 67.3126 137.655 67.3318 137.662 67.3528C137.67 67.3737 137.673 67.396 137.672 67.4182C137.671 67.4404 137.665 67.4622 137.656 67.4822C137.642 67.5109 137.621 67.5352 137.594 67.5524C137.567 67.5696 137.536 67.579 137.505 67.5796Z" fill="#43744B"/>
</svg>
