<svg width="418" height="311" viewBox="0 0 418 311" fill="none" xmlns="http://www.w3.org/2000/svg">
<path d="M417.383 273.302H0V273.511H417.383V273.302Z" fill="#EBEBEB"/>
<path d="M375.561 286.734H347.914V286.942H375.561V286.734Z" fill="#EBEBEB"/>
<path d="M276.491 289.004H269.237V289.213H276.491V289.004Z" fill="#EBEBEB"/>
<path d="M347.079 278.987H331.059V279.195H347.079V278.987Z" fill="#EBEBEB"/>
<path d="M79.8449 280.39H43.7914V280.598H79.8449V280.39Z" fill="#EBEBEB"/>
<path d="M92.5672 280.39H87.2831V280.598H92.5672V280.39Z" fill="#EBEBEB"/>
<path d="M187.948 283.912H109.747V284.121H187.948V283.912Z" fill="#EBEBEB"/>
<path d="M197.839 236.072H36.6544C35.3917 236.069 34.1815 235.566 33.2894 234.673C32.3973 233.779 31.8963 232.568 31.8963 231.305V4.72477C31.9073 3.46931 32.4131 2.26887 33.3041 1.38422C34.195 0.499572 35.3989 0.00215068 36.6544 0H197.839C199.104 0 200.316 0.502185 201.21 1.39608C202.104 2.28997 202.606 3.50235 202.606 4.76651V231.305C202.606 232.569 202.104 233.782 201.21 234.676C200.316 235.569 199.104 236.072 197.839 236.072ZM36.6544 0.166954C35.4471 0.169165 34.2899 0.650337 33.437 1.50485C32.584 2.35937 32.105 3.51741 32.105 4.72477V231.305C32.105 232.513 32.584 233.671 33.437 234.525C34.2899 235.38 35.4471 235.861 36.6544 235.863H197.839C199.047 235.861 200.205 235.38 201.06 234.526C201.914 233.671 202.395 232.513 202.397 231.305V4.72477C202.395 3.51664 201.914 2.35862 201.06 1.50434C200.205 0.650065 199.047 0.16916 197.839 0.166954H36.6544Z" fill="#EBEBEB"/>
<path d="M378.408 236.072H217.214C215.951 236.069 214.74 235.567 213.846 234.673C212.953 233.78 212.45 232.569 212.448 231.305V4.72477C212.461 3.46854 212.969 2.26812 213.861 1.3837C214.753 0.49928 215.958 0.00212722 217.214 0H378.408C379.662 0.00434453 380.863 0.502737 381.753 1.38715C382.642 2.27157 383.146 3.47075 383.157 4.72477V231.305C383.157 232.566 382.657 233.776 381.767 234.67C380.877 235.563 379.669 236.067 378.408 236.072ZM217.214 0.166954C216.006 0.16916 214.848 0.650065 213.994 1.50434C213.14 2.35862 212.659 3.51664 212.656 4.72477V231.305C212.659 232.513 213.14 233.671 213.994 234.526C214.848 235.38 216.006 235.861 217.214 235.863H378.408C379.616 235.861 380.774 235.38 381.628 234.526C382.482 233.671 382.963 232.513 382.965 231.305V4.72477C382.963 3.51664 382.482 2.35862 381.628 1.50434C380.774 0.650065 379.616 0.16916 378.408 0.166954H217.214Z" fill="#EBEBEB"/>
<path d="M130.282 208.157L118.72 217.823L135.232 241.765L148.388 234.419C155.44 241.192 163.707 246.573 172.755 250.279L171.419 265.238L199.993 270.522L204.092 256.064C213.852 255.837 223.481 253.77 232.474 249.97L242.141 261.532L266.082 245.062L258.736 231.898C265.51 224.85 270.892 216.586 274.596 207.539L289.555 208.866L294.823 180.309L280.364 176.202C280.138 166.442 278.07 156.813 274.271 147.82L285.832 138.153L269.362 114.221L256.198 121.558C249.149 114.786 240.885 109.405 231.84 105.698L233.175 90.7304L204.601 85.4464L200.494 99.9045C190.735 100.136 181.106 102.204 172.112 105.998L162.412 94.4117L138.479 110.882L145.817 124.038C139.045 131.09 133.664 139.357 129.956 148.404L114.989 147.069L109.713 175.634L124.163 179.741C124.394 189.514 126.47 199.155 130.282 208.157ZM163.614 170.818C165.027 163.167 168.676 156.107 174.102 150.531C179.527 144.955 186.484 141.112 194.093 139.49C201.702 137.868 209.621 138.538 216.849 141.417C224.076 144.296 230.288 149.253 234.698 155.662C239.109 162.072 241.519 169.645 241.625 177.424C241.731 185.203 239.528 192.839 235.294 199.366C231.06 205.893 224.985 211.018 217.838 214.092C210.692 217.167 202.794 218.053 195.143 216.638C184.887 214.742 175.803 208.849 169.891 200.257C163.978 191.664 161.72 181.075 163.614 170.818Z" fill="#F0F0F0"/>
<path d="M321.293 220.236L330.317 221.906L331.619 217.331C334.707 217.262 337.755 216.611 340.601 215.411L343.656 219.059L351.219 213.859L348.899 209.685C351.035 207.455 352.734 204.845 353.907 201.988L358.632 202.406L360.302 193.374L355.736 192.08C355.664 188.991 355.01 185.943 353.807 183.098L357.463 180.042L352.271 172.479L348.097 174.8C345.863 172.666 343.25 170.967 340.393 169.791L340.818 165.067L331.786 163.397L330.484 167.963C327.395 168.035 324.348 168.69 321.502 169.892L318.447 166.235L310.884 171.444L313.204 175.618C311.063 177.847 309.363 180.461 308.196 183.323L303.462 182.897L301.793 191.929L306.359 193.232C306.435 196.32 307.089 199.366 308.287 202.214L304.69 205.252L309.89 212.815L314.064 210.495C316.294 212.634 318.908 214.333 321.769 215.503L321.293 220.236ZM318.831 190.393C319.277 187.976 320.431 185.746 322.146 183.984C323.86 182.223 326.058 181.009 328.462 180.497C330.867 179.984 333.369 180.196 335.652 181.106C337.936 182.015 339.899 183.582 341.292 185.607C342.686 187.632 343.448 190.024 343.482 192.482C343.515 194.94 342.82 197.353 341.482 199.416C340.145 201.478 338.226 203.098 335.968 204.07C333.71 205.042 331.215 205.323 328.798 204.877C327.192 204.581 325.659 203.972 324.289 203.084C322.919 202.196 321.737 201.047 320.811 199.702C319.885 198.357 319.234 196.842 318.894 195.245C318.554 193.648 318.533 191.999 318.831 190.393Z" fill="#F0F0F0"/>
<path d="M69.4942 219.109L76.3727 220.378L77.3661 216.897C79.7166 216.837 82.0352 216.339 84.2028 215.428L86.5318 218.208L92.3 214.242L90.5303 211.07C92.1591 209.381 93.4535 207.398 94.3452 205.227L97.9514 205.544L99.2202 198.666L95.7393 197.681C95.6875 195.327 95.1889 193.004 94.2701 190.836L97.0582 188.507L93.0847 182.747L89.9209 184.483C88.2262 182.86 86.2448 181.567 84.0776 180.668L84.4031 177.07L77.5163 175.793L76.5313 179.274C74.1781 179.334 71.8567 179.832 69.6862 180.743L67.3656 177.964L61.5723 181.979L63.342 185.151C61.7115 186.839 60.4169 188.822 59.5271 190.994L55.9293 190.66L54.6604 197.539L58.1414 198.524C58.1927 200.872 58.6884 203.189 59.6023 205.352L56.8141 207.681L60.7793 213.441L63.9514 211.671C65.6421 213.301 67.6243 214.598 69.7947 215.495L69.4942 219.109ZM67.616 196.378C67.9575 194.538 68.837 192.84 70.1433 191.499C71.4496 190.158 73.1241 189.235 74.9551 188.846C76.7862 188.457 78.6915 188.619 80.4302 189.313C82.1689 190.006 83.663 191.199 84.7236 192.742C85.7842 194.284 86.3637 196.107 86.3888 197.978C86.4139 199.85 85.8835 201.687 84.8646 203.258C83.8457 204.828 82.3841 206.061 80.6646 206.801C78.9451 207.541 77.0448 207.754 75.204 207.414C72.735 206.956 70.5488 205.536 69.126 203.467C67.7032 201.397 67.1601 198.848 67.616 196.378Z" fill="#F0F0F0"/>
<path d="M192.33 65.8296L197.539 66.7896L198.282 64.1518C200.065 64.1161 201.825 63.7392 203.466 63.0415L205.227 65.1535L209.585 62.1483L208.249 59.7526C209.482 58.4667 210.462 56.9601 211.137 55.3116L213.859 55.5537L214.819 50.3531L212.189 49.6018C212.145 47.8225 211.769 46.067 211.079 44.4263L213.182 42.6649L210.186 38.3074L207.79 39.6431C206.506 38.4011 204.999 37.4127 203.349 36.7297L203.591 34L198.382 33.0401L197.639 35.6779C195.859 35.7128 194.102 36.0898 192.464 36.7882L190.702 34.6762L186.336 37.6814L187.68 40.0771C186.445 41.3612 185.465 42.8682 184.792 44.5181L182.062 44.276L181.144 49.5016L183.774 50.2529C183.817 52.0323 184.194 53.7877 184.884 55.4285L182.78 57.1898L185.785 61.5473L188.181 60.2117C189.463 61.4458 190.967 62.4259 192.614 63.1L192.33 65.8296ZM190.919 48.6251C191.177 47.2325 191.842 45.9475 192.83 44.9328C193.818 43.918 195.085 43.219 196.47 42.924C197.856 42.6291 199.297 42.7516 200.613 43.2759C201.929 43.8002 203.06 44.7028 203.862 45.8697C204.665 47.0366 205.104 48.4153 205.123 49.8315C205.143 51.2477 204.742 52.6379 203.971 53.8262C203.201 55.0146 202.095 55.9478 200.794 56.5079C199.493 57.068 198.055 57.2297 196.662 56.9728C195.737 56.8021 194.854 56.4507 194.065 55.9387C193.275 55.4268 192.594 54.7642 192.061 53.989C191.528 53.2138 191.152 52.341 190.956 51.4207C190.761 50.5003 190.748 49.5504 190.919 48.6251Z" fill="#F0F0F0"/>
<path d="M320.617 118.946L324.089 119.588L324.59 117.835C325.776 117.807 326.946 117.555 328.038 117.093L329.215 118.495L332.128 116.5L331.235 114.897C332.058 114.044 332.71 113.041 333.155 111.942L334.975 112.101L335.617 108.628L333.865 108.127C333.835 106.942 333.583 105.772 333.122 104.68L334.524 103.503L332.521 100.598L330.926 101.482C330.068 100.662 329.062 100.01 327.963 99.5625L328.13 97.7427L324.657 97.0999L324.156 98.8613C322.971 98.8867 321.801 99.136 320.709 99.5959L319.532 98.1935L316.618 100.197L317.511 101.791C316.688 102.647 316.036 103.653 315.591 104.755L313.772 104.596L313.129 108.06L314.882 108.561C314.91 109.75 315.162 110.922 315.625 112.017L314.222 113.186L316.226 116.099L317.82 115.206C318.678 116.029 319.684 116.683 320.784 117.134L320.617 118.946ZM319.715 107.476C319.886 106.545 320.33 105.686 320.989 105.008C321.649 104.329 322.495 103.861 323.42 103.663C324.346 103.466 325.309 103.547 326.188 103.897C327.068 104.247 327.823 104.85 328.36 105.629C328.896 106.409 329.19 107.33 329.202 108.277C329.215 109.223 328.947 110.152 328.432 110.945C327.916 111.739 327.177 112.362 326.308 112.736C325.438 113.109 324.477 113.217 323.547 113.044C322.301 112.813 321.198 112.097 320.479 111.053C319.761 110.009 319.486 108.722 319.715 107.476Z" fill="#F0F0F0"/>
<path d="M278.269 234.026C278.317 236.099 278.756 238.144 279.563 240.053L277.142 242.082L280.64 247.157L283.428 245.596C284.926 247.023 286.679 248.156 288.595 248.935L288.311 252.107L294.372 253.226L295.207 250.162C297.279 250.112 299.323 249.673 301.234 248.869L303.279 251.314L308.354 247.825L306.801 245.037C308.23 243.54 309.363 241.787 310.14 239.87L313.313 240.154L314.431 234.093L311.368 233.258C311.323 231.185 310.884 229.14 310.074 227.231L312.528 225.186L309.039 220.111L306.242 221.664C304.75 220.233 302.999 219.1 301.083 218.324L301.359 215.144L295.307 214.025L294.472 217.097C292.4 217.143 290.355 217.579 288.445 218.383L286.391 215.937L281.316 219.426L282.877 222.214C281.452 223.714 280.319 225.466 279.538 227.382L276.366 227.098L275.247 233.158L278.269 234.026ZM286.617 232.14C286.914 230.514 287.687 229.014 288.838 227.828C289.989 226.643 291.466 225.825 293.082 225.48C294.697 225.134 296.379 225.275 297.915 225.886C299.45 226.497 300.769 227.55 301.706 228.912C302.642 230.273 303.153 231.882 303.175 233.534C303.197 235.186 302.727 236.807 301.827 238.193C300.926 239.578 299.634 240.665 298.116 241.316C296.597 241.966 294.919 242.152 293.295 241.848C291.125 241.441 289.206 240.19 287.956 238.371C286.706 236.552 286.227 234.311 286.625 232.14H286.617Z" fill="#F0F0F0"/>
<path d="M126.976 123.303C127.736 127.06 123.187 131.158 116.817 132.444C110.448 133.73 104.672 131.718 103.912 127.961C103.152 124.205 107.702 120.098 114.071 118.779C120.44 117.46 126.217 119.539 126.976 123.303Z" fill="#E0E0E0"/>
<path d="M129.439 109.805C129.946 109.092 130.153 108.207 130.015 107.343C129.272 103.645 120.832 102.242 111.116 104.196C101.399 106.149 94.17 110.74 94.9129 114.43C95.1303 115.278 95.6653 116.01 96.4072 116.475C96.2925 116.877 96.2725 117.3 96.3487 117.71C96.5641 118.551 97.1046 119.272 97.8513 119.714C97.7232 120.127 97.6974 120.565 97.7762 120.991C97.8858 121.407 98.0784 121.797 98.3424 122.137C98.6063 122.477 98.9361 122.76 99.3121 122.969C99.1683 123.385 99.1338 123.831 99.212 124.263C99.3234 124.68 99.5195 125.069 99.7881 125.407C100.057 125.744 100.392 126.023 100.773 126.225C100.609 126.644 100.566 127.101 100.648 127.544C101.265 130.616 108.303 131.785 116.358 130.157C124.414 128.529 130.449 124.722 129.831 121.65C129.729 121.211 129.51 120.807 129.197 120.482C129.471 120.151 129.673 119.765 129.789 119.351C129.906 118.937 129.934 118.503 129.873 118.078C129.781 117.645 129.577 117.245 129.28 116.917C129.544 116.577 129.736 116.188 129.846 115.772C129.957 115.356 129.983 114.923 129.923 114.497C129.832 114.076 129.64 113.683 129.364 113.353C129.88 112.656 130.099 111.782 129.973 110.924C129.882 110.515 129.699 110.133 129.439 109.805Z" fill="#EBEBEB"/>
<path d="M137.361 74.0605C136.319 68.8059 133.964 63.9005 130.515 59.802C127.066 55.7034 122.635 52.545 117.635 50.6215C112.636 48.698 107.23 48.0719 101.924 48.8016C96.6167 49.5314 91.5811 51.5932 87.2863 54.7947C82.9914 57.9963 79.5774 62.2334 77.3624 67.1109C75.1475 71.9883 74.2038 77.3473 74.6194 82.688C75.0349 88.0286 76.7963 93.1771 79.7391 97.6532C82.6819 102.129 86.7103 105.787 91.4487 108.286C92.208 108.677 92.8589 109.25 93.3438 109.954C93.8287 110.657 94.1325 111.469 94.2284 112.318C94.2284 112.401 94.2284 112.485 94.2284 112.568C94.9881 116.325 103.586 117.752 113.428 115.765C123.27 113.779 130.633 109.087 129.873 105.373C129.873 105.289 129.873 105.214 129.815 105.13C129.575 104.303 129.544 103.428 129.723 102.585C129.902 101.742 130.286 100.956 130.841 100.297C133.797 96.6763 135.915 92.4459 137.042 87.9096C138.169 83.3734 138.278 78.6438 137.361 74.0605Z" fill="#F5F5F5"/>
<path d="M117.86 109.63H117.785C117.685 109.634 117.586 109.599 117.511 109.532C117.437 109.465 117.391 109.371 117.384 109.271C117.384 108.653 116.608 94.6958 122.618 88.0093L118.011 88.9359C117.938 88.9538 117.862 88.9481 117.793 88.9196C117.723 88.8911 117.665 88.8412 117.627 88.7773L115.339 85.4382L113.319 93.4937C113.3 93.5628 113.263 93.6256 113.212 93.6755C113.16 93.7254 113.097 93.7607 113.027 93.7775C112.956 93.7925 112.882 93.7871 112.815 93.762C112.747 93.7369 112.687 93.6931 112.643 93.6356L107.634 86.9575L105.431 94.1281C105.415 94.1965 105.379 94.2582 105.326 94.3047C105.274 94.3511 105.208 94.3799 105.138 94.3869C105.072 94.3981 105.003 94.3925 104.939 94.3707C104.875 94.3488 104.817 94.3114 104.771 94.2617L99.9629 88.4851L99.1282 92.492C99.1167 92.5654 99.0822 92.6332 99.0297 92.6857C98.9772 92.7382 98.9094 92.7727 98.836 92.7842L93.8274 93.7859C96.3317 95.5806 104.354 101.933 106.29 111.533C106.3 111.582 106.3 111.632 106.291 111.681C106.281 111.73 106.262 111.776 106.235 111.818C106.207 111.859 106.172 111.895 106.131 111.923C106.089 111.95 106.043 111.97 105.994 111.98C105.945 111.989 105.895 111.99 105.846 111.98C105.797 111.971 105.751 111.951 105.709 111.924C105.668 111.896 105.632 111.861 105.605 111.82C105.577 111.778 105.557 111.732 105.548 111.683C103.31 100.631 92.7756 93.9779 92.6671 93.9195C92.6022 93.8788 92.551 93.8197 92.5199 93.7496C92.4889 93.6796 92.4795 93.602 92.493 93.5266C92.5065 93.4512 92.5421 93.3816 92.5955 93.3266C92.6488 93.2717 92.7173 93.2339 92.7923 93.2183L98.3936 92.0913L99.3285 87.5669C99.3411 87.4967 99.3739 87.4317 99.4228 87.3798C99.4717 87.3279 99.5347 87.2914 99.604 87.2747C99.6732 87.2547 99.7468 87.2559 99.8153 87.2782C99.8837 87.3005 99.9439 87.3429 99.988 87.3999L104.83 93.1849L107.1 85.9808C107.119 85.9125 107.157 85.851 107.21 85.8034C107.262 85.7558 107.327 85.724 107.397 85.7118C107.467 85.6996 107.539 85.7074 107.605 85.7343C107.67 85.7613 107.727 85.8062 107.768 85.864L112.777 92.5421L114.813 84.4699C114.832 84.3999 114.87 84.3367 114.923 84.2879C114.976 84.239 115.043 84.2066 115.114 84.1944C115.185 84.1796 115.259 84.1869 115.326 84.2152C115.394 84.2436 115.45 84.2916 115.49 84.353L118.111 88.1596L123.704 87.0326C123.786 87.0131 123.872 87.0223 123.948 87.0588C124.024 87.0953 124.085 87.1568 124.121 87.233C124.157 87.3071 124.169 87.391 124.154 87.4722C124.139 87.5534 124.098 87.6276 124.038 87.6838C117.318 93.669 118.136 109.087 118.144 109.246C118.147 109.332 118.121 109.418 118.069 109.487C118.018 109.557 117.944 109.607 117.86 109.63Z" fill="#E0E0E0"/>
<path d="M208.691 311C298.08 311 370.544 306.769 370.544 301.55C370.544 296.332 298.08 292.101 208.691 292.101C119.303 292.101 46.8387 296.332 46.8387 301.55C46.8387 306.769 119.303 311 208.691 311Z" fill="#F5F5F5"/>
<path d="M308.346 79.7619C308.346 74.8785 305.791 70.4626 301.668 67.2905C301.804 66.6455 301.874 65.9881 301.876 65.3288C301.876 58.8176 295.257 53.5252 287.018 53.3749C284.513 47.0725 277.067 42.523 268.235 42.523C261.207 42.523 255.038 45.428 251.54 49.7938C250.657 49.673 249.768 49.6117 248.877 49.6101C240.479 49.6101 233.668 54.9693 233.668 61.5807C233.667 62.7002 233.865 63.8109 234.252 64.8613C228.901 67.6745 225.37 72.466 225.37 77.9087C225.37 83.151 228.642 87.784 233.668 90.6305V90.7975C233.668 97.2168 240.079 102.484 248.143 102.751C252.583 107.092 259.395 109.872 267.033 109.872C272.049 109.915 276.988 108.643 281.358 106.182C282.045 106.259 282.736 106.298 283.428 106.299C291.826 106.299 298.637 100.94 298.637 94.3285V94.2116C304.514 91.0395 308.346 85.7555 308.346 79.7619Z" fill="#22541D"/>
<path d="M224.71 114.914C224.71 116.008 223.442 116.892 221.88 116.892C220.319 116.892 219.051 116.008 219.051 114.914C219.051 113.82 220.319 112.936 221.88 112.936C223.442 112.936 224.71 113.82 224.71 114.914Z" fill="#22541D"/>
<path d="M244.311 110.189C244.311 113.353 240.63 115.915 236.088 115.915C231.547 115.915 227.891 113.369 227.891 110.189C227.891 107.009 231.572 104.462 236.113 104.462C240.655 104.462 244.311 107.05 244.311 110.189Z" fill="#22541D"/>
<path opacity="0.7" d="M308.346 79.7619C308.346 74.8785 305.791 70.4626 301.668 67.2905C301.804 66.6455 301.874 65.9881 301.876 65.3288C301.876 58.8176 295.257 53.5252 287.018 53.3749C284.513 47.0725 277.067 42.523 268.235 42.523C261.207 42.523 255.038 45.428 251.54 49.7938C250.657 49.673 249.768 49.6117 248.877 49.6101C240.479 49.6101 233.668 54.9693 233.668 61.5807C233.667 62.7002 233.865 63.8109 234.252 64.8613C228.901 67.6745 225.37 72.466 225.37 77.9087C225.37 83.151 228.642 87.784 233.668 90.6305V90.7975C233.668 97.2168 240.079 102.484 248.143 102.751C252.583 107.092 259.395 109.872 267.033 109.872C272.049 109.915 276.988 108.643 281.358 106.182C282.045 106.259 282.736 106.298 283.428 106.299C291.826 106.299 298.637 100.94 298.637 94.3285V94.2116C304.514 91.0395 308.346 85.7555 308.346 79.7619Z" fill="white"/>
<path opacity="0.7" d="M224.71 114.914C224.71 116.008 223.442 116.892 221.88 116.892C220.319 116.892 219.051 116.008 219.051 114.914C219.051 113.82 220.319 112.936 221.88 112.936C223.442 112.936 224.71 113.82 224.71 114.914Z" fill="white"/>
<path opacity="0.7" d="M244.311 110.189C244.311 113.353 240.63 115.915 236.088 115.915C231.547 115.915 227.891 113.369 227.891 110.189C227.891 107.009 231.572 104.462 236.113 104.462C240.655 104.462 244.311 107.05 244.311 110.189Z" fill="white"/>
<path d="M267.275 54.6108C275.398 54.6108 280.423 58.4256 280.423 65.2123C280.423 74.3947 271.09 75.5717 271.09 82.6589H263.035C263.035 73.3346 270.489 72.7836 270.489 66.9736C270.489 64.4693 268.911 63.2756 266.249 63.2756C263.277 63.2756 261.699 65.0286 261.641 68.6682H253.343C253.401 59.7613 258.61 54.6108 267.275 54.6108ZM272.134 92.4841C272.134 93.8589 271.587 95.1775 270.615 96.1496C269.643 97.1218 268.325 97.668 266.95 97.668C265.575 97.668 264.256 97.1218 263.284 96.1496C262.312 95.1775 261.766 93.8589 261.766 92.4841C261.766 91.1092 262.312 89.7907 263.284 88.8185C264.256 87.8463 265.575 87.3002 266.95 87.3002C268.325 87.3002 269.643 87.8463 270.615 88.8185C271.587 89.7907 272.134 91.1092 272.134 92.4841Z" fill="#22541D"/>
<path d="M85.271 249.245C85.271 249.245 79.8199 242.758 76.339 245.789C72.858 248.819 74.611 255.23 78.6346 255.439C81.0312 255.58 83.3994 254.86 85.3127 253.41L85.271 249.245Z" fill="#22541D"/>
<path opacity="0.2" d="M85.271 249.245C85.271 249.245 79.8199 242.758 76.339 245.789C72.858 248.819 74.611 255.23 78.6346 255.439C81.0312 255.58 83.3994 254.86 85.3127 253.41L85.271 249.245Z" fill="white"/>
<path d="M107.51 232.799C107.51 232.799 112.084 227.999 114.922 228.817C117.761 229.635 117.427 241.08 108.67 236.447L107.51 232.799Z" fill="#22541D"/>
<path opacity="0.3" d="M107.51 232.799C107.51 232.799 112.084 227.999 114.922 228.817C117.761 229.635 117.427 241.08 108.67 236.447L107.51 232.799Z" fill="white"/>
<path d="M91.1563 268.569C91.1563 268.569 76.1305 247.992 88.3264 243.827C100.522 239.661 102.709 260.38 99.1784 266.148C95.6473 271.917 91.1563 268.569 91.1563 268.569Z" fill="#22541D"/>
<path d="M98.135 226.439C98.135 226.439 107.468 204.776 93.644 204.125C79.8203 203.474 78.3177 225.604 94.22 228.818L98.135 226.439Z" fill="#22541D"/>
<path opacity="0.3" d="M91.1563 268.569C91.1563 268.569 76.1305 247.992 88.3264 243.827C100.522 239.661 102.709 260.38 99.1784 266.148C95.6473 271.917 91.1563 268.569 91.1563 268.569Z" fill="white"/>
<path opacity="0.3" d="M98.135 226.439C98.135 226.439 107.468 204.776 93.644 204.125C79.8203 203.474 78.3177 225.604 94.22 228.818L98.135 226.439Z" fill="white"/>
<path d="M94.8211 244.177C94.8211 244.177 90.2883 225.053 98.9949 223.525C107.702 221.998 116.325 239.277 98.2854 247.967C98.2937 247.967 95.2051 246.047 94.8211 244.177Z" fill="#22541D"/>
<path opacity="0.2" d="M94.8211 244.177C94.8211 244.177 90.2883 225.053 98.9949 223.525C107.702 221.998 116.325 239.277 98.2854 247.967C98.2937 247.967 95.2051 246.047 94.8211 244.177Z" fill="white"/>
<path d="M93.4936 224.894C88.2847 221.087 84.6868 213.741 87.7504 207.548C87.6252 208.124 87.4749 208.75 87.333 209.326C86.3063 215.169 89.5201 220.795 93.4936 224.894Z" fill="#22541D"/>
<path d="M90.1546 206.304C96.1065 207.464 98.8278 213.934 98.1016 219.485C97.968 220.27 97.8512 221.063 97.7009 221.831C97.7775 220.261 97.758 218.689 97.6425 217.123C97.2668 212.506 94.7291 207.999 90.1296 206.271L90.1546 206.304Z" fill="#22541D"/>
<path d="M100.723 224.894C104.379 226.188 106.483 230.354 106.174 234.077C105.873 236.815 104.337 239.277 102.635 241.331C101.261 242.984 99.6948 244.467 97.9682 245.747C98.7362 244.995 99.4875 244.244 100.18 243.443C102.251 241.105 104.296 238.534 105.189 235.512C105.749 233.493 105.615 231.344 104.806 229.411C103.998 227.477 102.562 225.872 100.731 224.852L100.723 224.894Z" fill="#22541D"/>
<path d="M98.1354 226.438C99.0369 229.235 99.8049 232.591 98.3691 235.345C97.1503 237.132 97.0251 239.469 96.9917 241.598C96.9917 242.341 96.9917 243.075 97.0418 243.827C96.6841 242.366 96.5213 240.864 96.5577 239.361C96.5319 237.81 96.9552 236.285 97.7764 234.97C99.1204 232.39 98.4776 229.235 98.1354 226.438Z" fill="#22541D"/>
<path d="M91.9995 245.789C95.5222 247.692 96.9162 259.637 96.791 263.544C96.6825 262.768 96.5656 262 96.4154 261.232C95.7476 257.409 95.0547 253.569 94.0446 249.829C93.5688 248.418 93.2683 246.707 91.9995 245.789Z" fill="#22541D"/>
<path d="M87.7256 246.448C86.8776 249.202 86.7477 252.127 87.3482 254.945C87.9486 257.763 89.2596 260.381 91.1565 262.55C90.6002 262.073 90.0733 261.563 89.5788 261.023C87.8789 259.04 86.7974 256.603 86.4681 254.013C86.1387 251.422 86.5759 248.792 87.7256 246.448Z" fill="#22541D"/>
<path d="M111.024 235.128C112.577 234.874 114.024 234.182 115.198 233.133C114.914 234.928 112.635 235.771 111.024 235.128Z" fill="#22541D"/>
<path d="M110.122 231.973C110.873 230.437 113.461 229.469 114.538 231.138C113.002 230.462 111.5 231.305 110.122 231.973Z" fill="#22541D"/>
<path d="M82.7838 250.213C81.0308 248.977 79.2111 246.873 76.9405 247.967C78.7937 245.772 81.9491 248.242 82.7838 250.213Z" fill="#22541D"/>
<path d="M82.7836 253.401C80.4713 254.236 75.9385 254.32 75.613 251.097C76.9319 253.719 80.2877 253.143 82.7836 253.401Z" fill="#22541D"/>
<path d="M72.5411 260.079H119.263L115.356 289.972H76.4394L72.5411 260.079Z" fill="#263238"/>
<g opacity="0.2">
<path d="M119.263 260.079L117.894 270.531L117.81 271.19L117.034 277.134L116.834 278.678L116.258 283.077L115.799 286.6L115.356 289.972H76.4394L75.997 286.6L75.5379 283.077L74.9702 278.678L74.7615 277.134L73.9936 271.19L73.9017 270.531L72.5411 260.079H119.263Z" fill="#FAFAFA"/>
</g>
<path opacity="0.2" d="M116.258 283.078L115.798 286.6H75.9968L75.5377 283.078H116.258Z" fill="#FAFAFA"/>
<path opacity="0.2" d="M117.034 277.134L116.834 278.678H74.9703L74.7617 277.134H117.034Z" fill="#FAFAFA"/>
<path opacity="0.2" d="M117.894 270.531L117.81 271.19H73.9935L73.9017 270.531H117.894Z" fill="#FAFAFA"/>
<path d="M319.799 245.312H310.057V265.288H319.799V245.312Z" fill="#263238"/>
<path d="M342.479 277.142C342.479 270.197 337.162 264.12 329.206 260.764V256.549H300.641V260.764C292.685 264.103 287.376 270.197 287.376 277.142C287.42 280.389 288.539 283.53 290.557 286.074V289.614H339.299V286.074C341.317 283.53 342.435 280.389 342.479 277.142Z" fill="#263238"/>
<path opacity="0.6" d="M342.479 277.142C342.479 270.197 337.162 264.12 329.206 260.764V256.549H300.641V260.764C292.685 264.103 287.376 270.197 287.376 277.142C287.42 280.389 288.539 283.53 290.557 286.074V289.614H339.299V286.074C341.317 283.53 342.435 280.389 342.479 277.142Z" fill="#FAFAFA"/>
<path d="M329.924 260.589H299.923C299.469 260.589 299.034 260.409 298.713 260.088C298.392 259.767 298.212 259.332 298.212 258.878V212.456H299.046V258.878C299.04 258.994 299.059 259.111 299.101 259.22C299.143 259.329 299.207 259.428 299.29 259.511C299.373 259.593 299.472 259.658 299.581 259.7C299.69 259.742 299.806 259.76 299.923 259.754H329.924C330.038 259.754 330.15 259.732 330.254 259.687C330.358 259.642 330.452 259.577 330.53 259.495C330.608 259.413 330.669 259.316 330.708 259.21C330.747 259.104 330.765 258.991 330.759 258.878V212.456H331.594V258.878C331.594 259.324 331.42 259.754 331.108 260.073C330.796 260.393 330.371 260.578 329.924 260.589Z" fill="#263238"/>
<path d="M344.132 251.098H285.723L298.537 201.496H331.318L344.132 251.098Z" fill="#22541D"/>
<path opacity="0.2" d="M339.299 286.066H290.557V289.605H339.299V286.066Z" fill="black"/>
<path opacity="0.2" d="M329.207 256.54H300.641V260.756H329.207V256.54Z" fill="black"/>
<path opacity="0.6" d="M344.132 251.098H285.723L298.537 201.496H331.318L344.132 251.098Z" fill="#FAFAFA"/>
<path d="M224.502 179.307C231.898 188.916 239.787 199.008 249.336 206.312C251.033 207.641 252.944 208.672 254.988 209.359C255.13 209.401 254.988 209.476 254.821 209.593C254.654 209.71 254.721 209.693 254.721 209.76C254.721 209.826 254.462 209.993 254.395 210.052C253.536 210.857 253.004 211.951 252.901 213.124C252.901 213.358 252.951 213.341 252.951 213.191C252.442 209.351 250.113 205.569 248.143 201.988C240.171 188.523 230.145 175.943 220.52 163.422L228.033 156.059C236.49 163.252 244.466 170.993 251.907 179.232C257.651 185.66 263.26 192.405 267.618 200.16C271.95 207.581 274.538 218.107 266.825 224.644C263.41 227.503 259.099 229.072 254.645 229.076C240.037 228.876 226.681 215.102 217.724 205.202C213.905 200.85 210.34 196.282 207.047 191.52L224.477 179.307H224.502Z" fill="#DC897C"/>
<path d="M203.265 147.236L212.072 146.81C213.052 146.767 214.02 147.03 214.844 147.561L228.484 156.402L226.222 165.91C217.724 171.269 210.469 166.344 208.249 164.515C207.735 164.089 207.134 163.781 206.488 163.614L201.663 162.32C200.585 162.032 199.646 161.37 199.013 160.452C198.379 159.534 198.094 158.421 198.207 157.311L198.808 151.468C198.917 150.344 199.428 149.298 200.247 148.52C201.066 147.743 202.138 147.287 203.265 147.236Z" fill="#E4897B"/>
<path d="M250.363 206.296L241.531 234.436C241.531 234.436 240.538 233.91 238.918 233C234.653 230.604 226.021 225.579 219.644 220.595C215.937 217.707 212.965 214.835 212.131 212.498C209.167 204.651 226.806 176.829 226.806 176.829C232.349 178.214 239.077 188.265 239.077 188.265C239.077 188.265 248.234 201.179 250.363 206.296Z" fill="#22541D"/>
<path opacity="0.2" d="M238.918 233C234.653 230.604 226.021 225.579 219.644 220.595C219.48 216.628 219.786 212.654 220.554 208.758C220.554 208.758 234.728 216.789 238.918 233Z" fill="black"/>
<path d="M226.797 176.837C226.797 176.837 243.893 220.879 227.357 302.795L149.423 302.603C148.914 290.641 154.331 234.628 142.928 178.223C142.928 178.223 146.126 174.316 171.269 172.655C181.219 171.995 195.652 171.92 204.401 172.738C211.962 173.518 219.45 174.888 226.797 176.837Z" fill="#263238"/>
<path opacity="0.6" d="M234.394 245.087C234.285 248.067 234.135 251.131 233.935 254.27C233.759 256.832 233.567 259.462 233.334 262.15C233.041 265.355 232.708 268.653 232.29 272.033C231.973 274.816 231.611 277.632 231.205 280.481C230.71 283.948 230.153 287.493 229.535 291.116C228.884 294.906 228.166 298.796 227.357 302.803L149.423 302.611C149.306 300.006 149.473 295.315 149.69 288.996C149.782 286.491 149.874 283.67 149.966 280.648C150.024 278.453 150.082 276.115 150.133 273.686C150.183 270.982 150.233 268.135 150.249 265.155C150.249 262.845 150.249 260.458 150.249 257.993C150.249 255.146 150.208 252.208 150.141 249.194C150.141 246.957 150.041 244.686 149.966 242.374C149.69 234.152 149.198 225.445 148.38 216.438C147.25 203.61 145.425 190.853 142.912 178.222C142.912 178.222 146.117 174.316 171.294 172.655C181.244 171.995 195.669 171.912 204.434 172.738C211.994 173.523 219.482 174.893 226.831 176.837C226.831 176.837 235.946 200.385 234.394 245.087Z" fill="#FAFAFA"/>
<path opacity="0.2" d="M158.088 212.865C158.088 212.865 157.395 231.464 149.966 242.391C149.69 234.168 149.198 225.462 148.38 216.455C151.427 214.126 154.741 212.748 158.088 212.865Z" fill="black"/>
<g opacity="0.6">
<path d="M234.394 245.087C234.285 248.068 234.135 251.131 233.935 254.27L225.754 263.903L214.001 250.079L202.264 263.928L190.519 250.104L178.774 263.928L167.028 250.104L155.267 263.928L150.258 257.993C150.258 255.146 150.216 252.208 150.149 249.194L155.3 255.255L167.037 241.423L178.782 255.255L190.527 241.423L202.272 255.255L214.009 241.423L225.762 255.255L234.394 245.087Z" fill="#FAFAFA"/>
</g>
<g opacity="0.6">
<path d="M233.334 262.175C233.042 265.38 232.708 268.678 232.29 272.058L225.754 279.772L214.001 265.94L202.264 279.772L190.519 265.94L178.773 279.772L167.028 265.94L155.266 279.772L150.099 273.686C150.149 270.981 150.199 268.135 150.216 265.155L155.266 271.09L167.003 257.266L178.748 271.09L190.494 257.266L202.239 271.09L213.975 257.266L225.729 271.09L233.334 262.175Z" fill="#FAFAFA"/>
</g>
<g opacity="0.6">
<path d="M231.23 280.481C230.735 283.948 230.178 287.493 229.56 291.116L225.779 295.574L214.026 281.758L202.264 295.599L190.519 281.783L178.773 295.599L167.028 281.783L155.266 295.599L149.657 288.996C149.749 286.491 149.84 283.67 149.932 280.648L155.266 286.934L167.003 273.102L178.748 286.934L190.493 273.102L202.239 286.934L213.975 273.102L225.729 286.934L231.23 280.481Z" fill="#FAFAFA"/>
</g>
<path d="M170.292 138.271C173.364 148.697 177.263 167.947 170.501 175.727C181.077 179.066 188.69 181.32 198.048 188.248C200.502 181.445 203.499 172.621 203.499 172.621C191.395 170.902 190.878 162.095 192.171 153.655L170.292 138.271Z" fill="#E4897B"/>
<path opacity="0.2" d="M179.174 144.556L192.121 153.663C191.786 155.626 191.629 157.616 191.654 159.607C187.071 159.382 180.393 154.999 179.466 150.308C179.021 148.424 178.922 146.475 179.174 144.556Z" fill="black"/>
<path d="M161.402 173.448L168.873 166.427L188.891 173.298L197.639 186.746L200.903 173.114L205.428 169.032L213.349 173.882L212.122 182.522L206.396 179.717L199.476 191.045L184.007 181.962L179.692 186.103L161.402 173.448Z" fill="#22541D"/>
<path opacity="0.2" d="M199.476 191.045L203.516 176.887L212.122 182.522L206.396 179.717L199.476 191.045Z" fill="black"/>
<path opacity="0.2" d="M199.476 191.045L185.844 177.688L179.692 186.103L184.008 181.962L199.476 191.045Z" fill="black"/>
<path d="M166.502 200.761C171.511 206.797 178.356 215.178 183.431 220.938C189.484 227.666 195.502 234.811 202.823 239.97C203.107 240.146 202.781 239.97 202.639 239.97C202.562 239.942 202.48 239.925 202.397 239.92C202.331 239.92 202.397 239.92 202.397 239.962C205.686 240.688 209.384 239.92 212.899 239.444C223.609 237.641 234.143 234.611 244.87 231.848L249.086 241.506C245.02 244.01 240.972 246.139 236.765 248.184C226.222 253.126 207.022 262.05 195.385 257.676C191.086 255.679 187.078 253.107 183.473 250.029C177.93 245.417 172.688 240.454 167.78 235.17C162.963 230.053 158.405 224.819 154.014 219.36C152.537 217.54 151.151 215.754 149.682 213.8L166.502 200.761Z" fill="#DC897C"/>
<path d="M136.017 187.872C127.477 214.935 165.843 241.431 165.843 241.431L186.345 218.124C186.345 218.124 177.313 201.429 167.079 186.587C156.369 171.06 140.516 173.631 136.017 187.872Z" fill="#22541D"/>
<path d="M243.192 233.1L257.617 218.124L268.519 232.666C268.519 232.666 259.913 244.586 248.201 241.481L243.192 233.1Z" fill="#E4897B"/>
<path d="M271.683 213.533L277.217 226.322L268.519 232.666L257.617 218.124L271.683 213.533Z" fill="#E4897B"/>
<path d="M198.131 99.5458C205.553 102.459 210.653 122.694 201.629 127.569C192.605 132.444 184.066 94.0364 198.131 99.5458Z" fill="#263238"/>
<path d="M166.118 123.362C169.958 137.553 171.494 145.976 180.309 152.078C193.532 161.26 209.944 151.66 210.419 136.793C210.854 123.437 204.493 102.493 189.216 99.2287C174.174 95.9981 162.295 109.204 166.118 123.362Z" fill="#E4897B"/>
<path d="M178.79 105.114L177.221 92.6589C174.15 94.3307 170.63 94.9909 167.162 94.5455C152.136 91.966 141.409 102.142 148.797 110.022C142.002 113.47 146.443 122.802 151.485 128.612C158.489 136.701 165.676 140.299 170.184 136.125C174.358 133.779 174.124 118.954 172.379 113.586C169.741 105.456 178.79 105.114 178.79 105.114Z" fill="#263238"/>
<path d="M163.614 138.471C166.072 141.151 169.381 142.897 172.98 143.413C177.53 143.956 178.331 139.715 175.835 135.792C173.581 132.261 168.498 127.728 164.524 128.997C160.551 130.266 160.501 135.107 163.614 138.471Z" fill="#E4897B"/>
<path d="M187.864 123.629C188.106 124.789 188.924 125.632 189.692 125.499C190.46 125.365 190.886 124.314 190.644 123.153C190.402 121.993 189.584 121.15 188.816 121.275C188.048 121.4 187.63 122.46 187.864 123.629Z" fill="#263238"/>
<path d="M201.12 121.358C201.362 122.527 202.172 123.361 202.94 123.228C203.708 123.094 204.134 122.051 203.892 120.882C203.65 119.713 202.831 118.879 202.072 119.012C201.312 119.146 200.878 120.206 201.12 121.358Z" fill="#263238"/>
<path d="M197.965 122.66C197.965 122.66 202.022 128.921 205.628 131.667C203.959 133.946 200.244 133.671 200.244 133.671L197.965 122.66Z" fill="#DE5753"/>
<path d="M192.113 117.518C192.224 117.561 192.322 117.634 192.397 117.727C192.453 117.8 192.495 117.883 192.519 117.972C192.544 118.061 192.55 118.154 192.539 118.245C192.527 118.337 192.497 118.425 192.452 118.505C192.406 118.585 192.345 118.656 192.272 118.712C191.42 119.407 190.41 119.882 189.331 120.093C188.252 120.304 187.137 120.245 186.086 119.922C185.999 119.893 185.919 119.846 185.85 119.784C185.782 119.723 185.726 119.648 185.687 119.564C185.649 119.481 185.627 119.391 185.624 119.299C185.62 119.207 185.636 119.115 185.669 119.029C185.733 118.856 185.862 118.715 186.03 118.637C186.197 118.559 186.388 118.55 186.562 118.612C187.391 118.853 188.266 118.888 189.111 118.713C189.957 118.539 190.746 118.16 191.412 117.61C191.509 117.532 191.626 117.481 191.75 117.465C191.873 117.449 191.999 117.467 192.113 117.518Z" fill="#263238"/>
<path d="M204.943 115.006C204.834 115.035 204.718 115.037 204.607 115.011C204.496 114.985 204.394 114.931 204.309 114.855C203.655 114.246 202.871 113.793 202.016 113.531C201.162 113.269 200.259 113.206 199.376 113.344C199.283 113.378 199.185 113.392 199.087 113.385C198.989 113.379 198.894 113.352 198.807 113.306C198.72 113.26 198.644 113.196 198.583 113.119C198.523 113.042 198.479 112.953 198.455 112.858C198.431 112.763 198.427 112.664 198.443 112.567C198.46 112.47 198.497 112.378 198.551 112.296C198.606 112.215 198.677 112.145 198.76 112.093C198.843 112.041 198.936 112.006 199.033 111.992C200.135 111.793 201.268 111.854 202.341 112.17C203.415 112.486 204.4 113.048 205.219 113.812C205.358 113.934 205.443 114.106 205.455 114.291C205.468 114.475 205.407 114.657 205.286 114.797C205.193 114.897 205.075 114.969 204.943 115.006Z" fill="#263238"/>
<path d="M166.369 96.1732C166.369 96.1732 176.737 76.1388 196.036 80.2375C196.036 80.2375 192.347 81.0723 190.777 82.4663C190.777 82.4663 207.623 80.9972 212.874 92.8341L209.651 90.9392C209.651 90.9392 213.942 100.748 208.917 107.209L207.973 103.962C207.973 103.962 201.078 112.518 190.786 110.089L194.342 108.286C194.342 108.286 176.611 107.743 172.22 103.219C167.83 98.6942 166.369 96.1732 166.369 96.1732Z" fill="#263238"/>
<path d="M202.013 139.79C201.936 139.79 201.859 139.774 201.787 139.744C201.715 139.714 201.65 139.67 201.596 139.615C198.983 136.785 194.4 137.87 194.359 137.878C194.221 137.897 194.081 137.863 193.966 137.785C193.85 137.707 193.768 137.589 193.734 137.454C193.7 137.319 193.717 137.177 193.781 137.053C193.846 136.93 193.953 136.834 194.083 136.785C194.3 136.735 199.351 135.533 202.431 138.847C202.534 138.953 202.592 139.095 202.592 139.243C202.592 139.391 202.534 139.534 202.431 139.64C202.375 139.691 202.309 139.731 202.237 139.757C202.166 139.782 202.09 139.794 202.013 139.79Z" fill="#263238"/>
<path d="M347.079 289.605H64.1099V302.794H347.079V289.605Z" fill="#22541D"/>
<path opacity="0.2" d="M347.079 289.605H64.1099V302.794H347.079V289.605Z" fill="#FAFAFA"/>
<path d="M351.311 289.605H60.6875C59.8091 289.605 58.9661 289.951 58.3411 290.568C57.7161 291.185 57.3594 292.024 57.3484 292.902C57.3594 293.781 57.7161 294.619 58.3411 295.237C58.9661 295.854 59.8091 296.2 60.6875 296.2H351.311C352.182 296.189 353.015 295.838 353.631 295.222C354.247 294.606 354.598 293.774 354.608 292.902C354.598 292.031 354.247 291.199 353.631 290.583C353.015 289.967 352.182 289.616 351.311 289.605Z" fill="#22541D"/>
<path opacity="0.4" d="M351.311 289.605H60.6875C59.8091 289.605 58.9661 289.951 58.3411 290.568C57.7161 291.185 57.3594 292.024 57.3484 292.902C57.3594 293.781 57.7161 294.619 58.3411 295.237C58.9661 295.854 59.8091 296.2 60.6875 296.2H351.311C352.182 296.189 353.015 295.838 353.631 295.222C354.247 294.606 354.598 293.774 354.608 292.902C354.598 292.031 354.247 291.199 353.631 290.583C353.015 289.967 352.182 289.616 351.311 289.605Z" fill="#FAFAFA"/>
</svg>
