<svg width="23" height="16" viewBox="0 0 23 16" fill="none" xmlns="http://www.w3.org/2000/svg">
<path d="M22.7062 7.4312C21.975 6.16301 17.9534 -0.200778 11.1212 0.00487404C4.80309 0.164826 1.14705 5.71743 0.153068 7.4312C0.0527912 7.60488 0 7.8019 0 8.00245C0 8.20301 0.0527912 8.40002 0.153068 8.57371C0.872849 9.81905 4.72311 16 11.4525 16H11.7381C18.0562 15.8401 21.7237 10.2875 22.7062 8.57371C22.8065 8.40002 22.8593 8.20301 22.8593 8.00245C22.8593 7.8019 22.8065 7.60488 22.7062 7.4312ZM11.681 13.715C6.75678 13.8293 3.54632 9.61339 2.54091 8.00245C3.68343 6.16301 6.66538 2.40415 11.2354 2.2899C16.1368 2.16422 19.3587 6.39151 20.3755 8.00245C19.1987 9.8419 16.251 13.6008 11.681 13.715Z" fill="#1B2E19"/>
<path d="M11.4296 4.00328C10.6387 4.00328 9.86556 4.2378 9.20797 4.67719C8.55037 5.11659 8.03784 5.74111 7.73518 6.47179C7.43252 7.20248 7.35333 8.0065 7.50763 8.78219C7.66192 9.55787 8.04277 10.2704 8.60201 10.8296C9.16125 11.3889 9.87376 11.7697 10.6494 11.924C11.4251 12.0783 12.2292 11.9991 12.9598 11.6965C13.6905 11.3938 14.315 10.8813 14.7544 10.2237C15.1938 9.56607 15.4284 8.79295 15.4284 8.00206C15.4284 6.94152 15.0071 5.92441 14.2571 5.1745C13.5072 4.42458 12.4901 4.00328 11.4296 4.00328ZM11.4296 9.71583C11.0906 9.71583 10.7593 9.61532 10.4775 9.427C10.1956 9.23869 9.97597 8.97104 9.84626 8.65789C9.71655 8.34474 9.68261 8.00016 9.74874 7.66772C9.81486 7.33528 9.97808 7.02992 10.2178 6.79025C10.4574 6.55057 10.7628 6.38735 11.0952 6.32123C11.4277 6.2551 11.7723 6.28904 12.0854 6.41875C12.3986 6.54846 12.6662 6.76812 12.8545 7.04995C13.0428 7.33177 13.1433 7.66311 13.1433 8.00206C13.1433 8.45658 12.9628 8.89248 12.6414 9.21388C12.32 9.53527 11.8841 9.71583 11.4296 9.71583Z" fill="#1B2E19"/>
</svg>
