<svg width="16" height="16" viewBox="0 0 16 16" fill="none" xmlns="http://www.w3.org/2000/svg">
<path d="M11.6884 7.01866C11.8828 6.82253 11.8814 6.50595 11.6853 6.31156C11.4891 6.11717 11.1726 6.11858 10.9782 6.31471L9.81329 7.49003C9.34053 7.96702 9.01517 8.29422 8.73949 8.51562C8.47169 8.73069 8.29968 8.80447 8.14563 8.82411C8.0489 8.83644 7.95102 8.83644 7.85429 8.82411C7.70024 8.80447 7.52823 8.73069 7.26043 8.51563C6.98474 8.29422 6.65938 7.96702 6.18663 7.49003L5.02175 6.31472C4.82736 6.11858 4.51078 6.11717 4.31465 6.31156C4.11852 6.50595 4.11711 6.82253 4.3115 7.01866L5.49736 8.21515C5.94399 8.66579 6.30902 9.03411 6.63427 9.29532C6.97248 9.56694 7.31578 9.76356 7.72785 9.81608C7.90854 9.83911 8.09138 9.83911 8.27207 9.81608C8.68414 9.76356 9.02744 9.56694 9.36565 9.29532C9.6909 9.03411 10.0559 8.6658 10.5026 8.21515L11.6884 7.01866Z" fill="#0070F0"/>
</svg>
