<svg width="16" height="16" viewBox="0 0 16 16" fill="none" xmlns="http://www.w3.org/2000/svg">
<path d="M2.45323 7.23837L2.82823 6.58885H2.82823L2.45323 7.23837ZM2.32608 7.16125L1.88922 7.77088H1.88922L2.32608 7.16125ZM2.17871 6.21385L2.82823 6.58885L2.17871 6.21385ZM2.10715 6.34421L1.424 6.03468L2.10715 6.34421ZM12.571 12.2138L13.2205 12.5888L12.571 12.2138ZM12.4939 12.341L13.1035 12.7779L12.4939 12.341ZM11.5465 12.4884L11.9215 11.8388H11.9215L11.5465 12.4884ZM11.6769 12.5599L11.3673 13.2431L11.6769 12.5599ZM10.6494 5.04221L10.2744 5.69173L10.6494 5.04221ZM11.5395 5.58205L11.9763 4.97241L11.5395 5.58205ZM13.0719 11.3013L13.7551 11.6108L13.0719 11.3013ZM9.35034 4.29221L9.72534 3.64269L9.35034 4.29221ZM8.4378 3.7913L8.74733 3.10815L8.4378 3.7913ZM2.71855 5.32377L3.32818 5.76063L2.71855 5.32377ZM11.666 1.78039L11.291 2.42991L11.666 1.78039ZM12.8861 6.33381L13.5357 6.70881V6.70881L12.8861 6.33381ZM7.11263 3.00047L7.76215 3.37547L7.76215 3.37547L7.11263 3.00047ZM12.6823 6.68693L13.2608 7.16415L13.3006 7.11599L13.3318 7.06193L12.6823 6.68693ZM6.99986 9.86337L7.37486 9.21385L7.37486 9.21385L6.99986 9.86337ZM3.68368 14.1072C3.47657 14.4659 3.59948 14.9246 3.9582 15.1317C4.31692 15.3388 4.77561 15.2159 4.98272 14.8572L3.68368 14.1072ZM6.88777 3.38995L6.82751 4.13753L6.88777 3.38995ZM6.97918 9.85143L6.60418 10.5009L6.60418 10.5009L6.97918 9.85143ZM8.97534 4.94173L10.2744 5.69173L11.0244 4.39269L9.72534 3.64269L8.97534 4.94173ZM2.82823 6.58885C2.79252 6.56823 2.77387 6.55743 2.76057 6.54945C2.74847 6.54218 2.75278 6.54434 2.76293 6.55161L1.88922 7.77088C1.95334 7.81683 2.02666 7.85811 2.07823 7.88789L2.82823 6.58885ZM1.52919 5.83885C1.49942 5.89041 1.45656 5.96283 1.424 6.03468L2.7903 6.65374C2.78515 6.66511 2.78249 6.66914 2.78934 6.65679C2.79686 6.64323 2.80761 6.62456 2.82823 6.58885L1.52919 5.83885ZM2.76293 6.55161C2.79525 6.57477 2.80671 6.61753 2.7903 6.65374L1.424 6.03468C1.14507 6.65029 1.33985 7.37721 1.88922 7.77088L2.76293 6.55161ZM11.9215 11.8388C11.9009 11.8746 11.8901 11.8932 11.8821 11.9065C11.8748 11.9186 11.877 11.9143 11.8843 11.9041L13.1035 12.7779C13.1495 12.7137 13.1908 12.6404 13.2205 12.5888L11.9215 11.8388ZM11.1715 13.1379C11.2231 13.1676 11.2955 13.2105 11.3673 13.2431L11.9864 11.8768C11.9978 11.8819 12.0018 11.8846 11.9894 11.8777C11.9759 11.8702 11.9572 11.8595 11.9215 11.8388L11.1715 13.1379ZM11.8843 11.9041C11.9074 11.8718 11.9502 11.8604 11.9864 11.8768L11.3673 13.2431C11.9829 13.522 12.7099 13.3272 13.1035 12.7779L11.8843 11.9041ZM10.2744 5.69173C10.759 5.97152 10.9537 6.08502 11.1026 6.19168L11.9763 4.97241C11.7525 4.812 11.4781 4.65464 11.0244 4.39269L10.2744 5.69173ZM13.2205 12.5888C13.4825 12.1352 13.6414 11.8617 13.7551 11.6108L12.3888 10.9918C12.3132 11.1586 12.2013 11.3542 11.9215 11.8388L13.2205 12.5888ZM9.72534 3.64269C9.27165 3.38075 8.99817 3.22181 8.74733 3.10815L8.12827 4.47445C8.29507 4.55003 8.49074 4.66195 8.97534 4.94173L9.72534 3.64269ZM2.82823 6.58885C3.10802 6.10424 3.22151 5.90948 3.32818 5.76063L2.10891 4.88691C1.9485 5.11076 1.79113 5.38515 1.52919 5.83885L2.82823 6.58885ZM11.291 2.42991C12.5266 3.14328 12.95 4.72322 12.2366 5.95881L13.5357 6.70881C14.6632 4.75578 13.9941 2.25845 12.041 1.13087L11.291 2.42991ZM7.76215 3.37547C8.47552 2.13989 10.0555 1.71654 11.291 2.42991L12.041 1.13087C10.088 0.00329065 7.59069 0.672446 6.46311 2.62547L7.76215 3.37547ZM12.2366 5.95881L12.0327 6.31193L13.3318 7.06193L13.5357 6.70881L12.2366 5.95881ZM6.35034 9.48837L3.68368 14.1072L4.98272 14.8572L7.64938 10.2384L6.35034 9.48837ZM7.53729 3.76495L7.76215 3.37547L6.46311 2.62547L6.23825 3.01495L7.53729 3.76495ZM8.74733 3.10815C8.16572 2.84463 7.5572 2.69148 6.94802 2.64238L6.82751 4.13753C7.267 4.17295 7.70661 4.2834 8.12827 4.47445L8.74733 3.10815ZM6.94802 2.64238C5.09704 2.49319 3.24212 3.30552 2.10891 4.88691L3.32818 5.76063C4.147 4.61796 5.48779 4.02955 6.82751 4.13753L6.94802 2.64238ZM11.1026 6.19168C11.4769 6.45993 11.7911 6.78345 12.0409 7.14409L13.274 6.28999C12.9277 5.79011 12.4927 5.34241 11.9763 4.97241L11.1026 6.19168ZM12.0409 7.14409C12.8076 8.25101 12.9699 9.70914 12.3888 10.9918L13.7551 11.6108C14.5594 9.83574 14.3333 7.81936 13.274 6.28999L12.0409 7.14409ZM12.1037 6.20971L12.0788 6.23982L13.236 7.19426L13.2608 7.16415L12.1037 6.20971ZM11.9215 11.8388L7.37486 9.21385L6.62486 10.5129L11.1715 13.1379L11.9215 11.8388ZM7.37486 9.21385L7.35418 9.2019L6.60418 10.5009L6.62487 10.5129L7.37486 9.21385ZM7.35418 9.20191L2.82823 6.58885L2.07823 7.88789L6.60418 10.5009L7.35418 9.20191Z" fill="#979C9E"/>
</svg>
