<svg width="224" height="166" viewBox="0 0 224 166" fill="none" xmlns="http://www.w3.org/2000/svg">
<path d="M41.7805 78.512H27.7536V93.4438H41.7805V78.512Z" fill="#E6E6E6"/>
<path d="M27.7537 78.512H24.1607V93.4438H27.7537V78.512Z" fill="#F0F0F0"/>
<path d="M45.4587 76.2093H34.9217V93.4438H45.4587V76.2093Z" fill="#E6E6E6"/>
<path d="M34.9262 76.2093H31.8798V93.4438H34.9262V76.2093Z" fill="#F0F0F0"/>
<path d="M46.9101 78.512H38.0262V93.4438H46.9101V78.512Z" fill="#F0F0F0"/>
<path d="M38.0262 78.512H35.9968V93.4438H38.0262V78.512Z" fill="#F5F5F5"/>
<path d="M56.9498 81.0388H45.2974V93.4439H56.9498V81.0388Z" fill="#E6E6E6"/>
<path d="M45.2972 81.0388H42.3135V93.4439H45.2972V81.0388Z" fill="#F5F5F5"/>
<path d="M60.005 79.1257H51.2511V93.4438H60.005V79.1257Z" fill="#E6E6E6"/>
<path d="M51.2557 79.1257H48.7245V93.4438H51.2557V79.1257Z" fill="#F0F0F0"/>
<path d="M62.3348 81.0388H53.8318V93.4439H62.3348V81.0388Z" fill="#F0F0F0"/>
<path d="M53.8272 81.0388H52.1428V93.4439H53.8272V81.0388Z" fill="#F5F5F5"/>
<path d="M95.0074 78.5927H80.9805V93.5245H95.0074V78.5927Z" fill="#E6E6E6"/>
<path d="M80.9805 78.5927H77.3876V93.5245H80.9805V78.5927Z" fill="#F0F0F0"/>
<path d="M98.6855 76.2899H88.1486V93.5245H98.6855V76.2899Z" fill="#E6E6E6"/>
<path d="M88.153 76.2899H85.1066V93.5245H88.153V76.2899Z" fill="#F0F0F0"/>
<path d="M100.137 78.5927H91.2531V93.5245H100.137V78.5927Z" fill="#F0F0F0"/>
<path d="M91.2532 78.5927H89.2238V93.5245H91.2532V78.5927Z" fill="#F5F5F5"/>
<path d="M115.588 93.5154H24.1965V97.8387H115.588V93.5154Z" fill="#E0E0E0"/>
<path d="M110.177 81.1194H98.5241V93.5245H110.177V81.1194Z" fill="#E6E6E6"/>
<path d="M98.5242 81.1194H95.5405V93.5245H98.5242V81.1194Z" fill="#F5F5F5"/>
<path d="M113.232 79.2064H104.478V93.5244H113.232V79.2064Z" fill="#E6E6E6"/>
<path d="M104.483 79.2064H101.951V93.5244H104.483V79.2064Z" fill="#F0F0F0"/>
<path d="M115.562 81.1194H107.058V93.5245H115.562V81.1194Z" fill="#F0F0F0"/>
<path d="M107.054 81.1194H105.37V93.5245H107.054V81.1194Z" fill="#F5F5F5"/>
<path d="M124.92 146.621C124.584 146.621 124.262 146.488 124.024 146.25C123.786 146.012 123.653 145.69 123.653 145.354V100.262H126.193V145.354C126.192 145.69 126.057 146.013 125.819 146.25C125.58 146.488 125.257 146.621 124.92 146.621Z" fill="#F0F0F0"/>
<path d="M175.737 97.1175H169.913V96.5978C169.913 96.3555 169.962 96.1157 170.057 95.8928C170.152 95.67 170.291 95.4688 170.466 95.3013C170.641 95.1338 170.848 95.0035 171.075 94.9183C171.302 94.8332 171.544 94.7949 171.786 94.8058L174.07 94.9312C174.527 94.9586 174.955 95.1595 175.269 95.4926C175.582 95.8258 175.756 96.266 175.755 96.7232L175.737 97.1175Z" fill="#F0F0F0"/>
<path d="M165.76 84.8646C165.75 84.6436 165.654 84.435 165.494 84.2823C165.334 84.1296 165.121 84.0446 164.9 84.0448H158.991C158.769 84.0445 158.556 84.1294 158.395 84.282C158.234 84.4346 158.138 84.6432 158.126 84.8646L159.528 97.1667H168.34L165.76 84.8646Z" fill="#E0E0E0"/>
<path d="M181.789 65.95H179.59L177.117 89.1833H179.316C179.497 89.1784 179.669 89.1094 179.803 88.9887C179.937 88.868 180.023 88.7035 180.047 88.5248L182.376 66.6131C182.388 66.5297 182.381 66.4449 182.357 66.3643C182.333 66.2837 182.291 66.2094 182.236 66.1463C182.18 66.0833 182.111 66.0331 182.034 65.9993C181.957 65.9654 181.874 65.9486 181.789 65.95Z" fill="#E0E0E0"/>
<path d="M178.385 89.1834H145.421C145.337 89.1854 145.253 89.1692 145.176 89.1358C145.099 89.1025 145.03 89.0528 144.973 88.9902C144.917 88.9277 144.875 88.8537 144.85 88.7733C144.826 88.693 144.818 88.6082 144.829 88.5248L147.163 66.6131C147.184 66.4328 147.269 66.2662 147.404 66.1442C147.538 66.0223 147.712 65.9533 147.894 65.9501H180.858C180.942 65.9487 181.025 65.9655 181.103 65.9994C181.18 66.0332 181.249 66.0833 181.305 66.1463C181.361 66.2092 181.403 66.2834 181.428 66.364C181.453 66.4446 181.46 66.5295 181.449 66.6131L179.115 88.5248C179.092 88.7039 179.006 88.8689 178.872 88.9898C178.738 89.1107 178.565 89.1794 178.385 89.1834Z" fill="#F5F5F5"/>
<path d="M177.771 87.0375H146.684C146.611 87.0394 146.538 87.0254 146.471 86.9965C146.403 86.9675 146.343 86.9243 146.294 86.8698C146.245 86.8152 146.209 86.7507 146.187 86.6806C146.165 86.6106 146.159 86.5367 146.169 86.464L148.203 67.3434C148.222 67.1873 148.297 67.0434 148.414 66.9381C148.531 66.8328 148.682 66.7731 148.839 66.77H179.926C179.999 66.768 180.072 66.782 180.139 66.811C180.207 66.8399 180.267 66.8832 180.316 66.9377C180.365 66.9922 180.401 67.0567 180.423 67.1268C180.445 67.1968 180.451 67.2707 180.441 67.3434L178.407 86.464C178.388 86.6201 178.313 86.764 178.196 86.8694C178.079 86.9747 177.928 87.0344 177.771 87.0375Z" fill="#EBEBEB"/>
<path d="M168.717 96.2125H157.786C157.548 96.2125 157.356 96.405 157.356 96.6425V96.7366C157.356 96.9741 157.548 97.1667 157.786 97.1667H168.717C168.954 97.1667 169.147 96.9741 169.147 96.7366V96.6425C169.147 96.405 168.954 96.2125 168.717 96.2125Z" fill="#E0E0E0"/>
<path d="M146.568 87.0374L155.806 79.0092C156.702 78.2476 157.808 78.2476 158.314 79.0092L163.668 87.0374H146.568Z" fill="#E6E6E6"/>
<path d="M155.806 79.0093L146.568 87.0375H155.425C154.529 86.5895 152.463 86.352 152.71 85.3306C153.032 83.9866 157.15 84.4659 157.459 83.2026C157.768 81.9392 154.824 82.3379 155.196 80.8058C155.389 80.0039 156.15 79.1303 156.831 78.4807C156.451 78.5698 156.099 78.7514 155.806 79.0093Z" fill="#F5F5F5"/>
<path d="M160.16 87.0375L164.255 83.0055C164.644 82.6202 165.151 82.6202 165.37 83.0055L167.74 87.0375H160.16Z" fill="#E6E6E6"/>
<path d="M164.255 82.9875L160.16 87.0195H164.089C163.695 86.7955 162.776 86.6745 162.884 86.1593C163.027 85.4873 164.85 85.7113 164.989 85.0841C165.128 84.4569 163.82 84.6361 163.986 83.879C164.127 83.4336 164.376 83.0302 164.712 82.7053C164.536 82.7552 164.378 82.8529 164.255 82.9875Z" fill="#F5F5F5"/>
<path d="M167.171 87.0375L172.905 83.0055C173.452 82.6202 174.146 82.6202 174.465 83.0055L177.789 87.0375H167.171Z" fill="#F0F0F0"/>
<path d="M172.928 82.9875L167.193 87.0195H172.69C172.144 86.7955 170.854 86.6745 171.006 86.1593C171.203 85.4873 173.761 85.7113 173.954 85.0841C174.146 84.4569 172.319 84.6361 172.547 83.879C172.774 83.403 173.125 82.9974 173.564 82.7053C173.334 82.7514 173.117 82.8477 172.928 82.9875Z" fill="#FAFAFA"/>
<path d="M174.362 74.9056C174.119 75.9248 173.55 76.8368 172.741 77.5031C171.932 78.1694 170.928 78.5535 169.882 78.5971C167.843 78.5971 166.544 76.9485 166.974 74.9056C167.218 73.8868 167.787 72.9752 168.595 72.309C169.404 71.6429 170.407 71.2585 171.454 71.2141C173.492 71.232 174.792 72.8672 174.362 74.9056Z" fill="#F0F0F0"/>
<path opacity="0.8" d="M174.362 74.9056C174.119 75.9248 173.55 76.8368 172.741 77.5031C171.932 78.1694 170.928 78.5535 169.882 78.5971C167.843 78.5971 166.544 76.9485 166.974 74.9056C167.218 73.8868 167.787 72.9752 168.595 72.309C169.404 71.6429 170.407 71.2585 171.454 71.2141C173.492 71.232 174.792 72.8672 174.362 74.9056Z" fill="#FAFAFA"/>
<path d="M142.876 96.3424H142.056C142.036 96.3424 142.015 96.3383 141.996 96.3305C141.977 96.3226 141.96 96.311 141.945 96.2965C141.931 96.2819 141.919 96.2646 141.911 96.2456C141.903 96.2266 141.899 96.2062 141.899 96.1856V95.3165C141.899 95.2957 141.902 95.2751 141.91 95.2557C141.918 95.2364 141.929 95.2189 141.944 95.2042C141.959 95.1895 141.976 95.178 141.995 95.1703C142.015 95.1627 142.035 95.1591 142.056 95.1597H142.643C142.678 95.1587 142.712 95.1697 142.74 95.1909C142.768 95.2121 142.787 95.2422 142.795 95.2762L143.028 96.1453C143.035 96.1686 143.035 96.193 143.031 96.2166C143.026 96.2402 143.016 96.2624 143.001 96.2815C142.986 96.3005 142.967 96.3159 142.946 96.3265C142.924 96.3371 142.9 96.3425 142.876 96.3424Z" fill="#F5F5F5"/>
<path d="M144.014 96.3424H143.19C143.169 96.3424 143.149 96.3383 143.13 96.3304C143.111 96.3226 143.093 96.311 143.079 96.2965C143.064 96.2819 143.053 96.2646 143.045 96.2456C143.037 96.2266 143.033 96.2062 143.033 96.1856V95.3165C143.033 95.2749 143.049 95.235 143.079 95.2056C143.108 95.1762 143.148 95.1597 143.19 95.1597H143.781C143.816 95.1587 143.85 95.1697 143.878 95.1909C143.906 95.2121 143.925 95.2422 143.933 95.2762L144.166 96.1453C144.173 96.1685 144.173 96.193 144.169 96.2166C144.164 96.2402 144.154 96.2624 144.139 96.2815C144.124 96.3005 144.105 96.3159 144.084 96.3265C144.062 96.3371 144.038 96.3425 144.014 96.3424Z" fill="#F5F5F5"/>
<path d="M145.152 96.3424H144.332C144.312 96.3424 144.291 96.3383 144.272 96.3305C144.253 96.3226 144.236 96.311 144.221 96.2965C144.207 96.2819 144.195 96.2646 144.187 96.2456C144.179 96.2266 144.175 96.2062 144.175 96.1856V95.3165C144.175 95.2957 144.178 95.2751 144.186 95.2557C144.194 95.2364 144.205 95.2189 144.22 95.2042C144.235 95.1895 144.252 95.178 144.271 95.1703C144.291 95.1627 144.311 95.1591 144.332 95.1597H144.924C144.958 95.1597 144.991 95.1712 145.018 95.1924C145.044 95.2135 145.063 95.243 145.071 95.2762L145.304 96.1453C145.311 96.1686 145.311 96.193 145.307 96.2166C145.302 96.2402 145.292 96.2624 145.277 96.2815C145.262 96.3005 145.243 96.3159 145.222 96.3265C145.2 96.3371 145.176 96.3425 145.152 96.3424Z" fill="#F5F5F5"/>
<path d="M146.286 96.3424H145.461C145.441 96.3424 145.42 96.3383 145.401 96.3304C145.382 96.3226 145.365 96.311 145.35 96.2965C145.336 96.2819 145.324 96.2646 145.316 96.2456C145.308 96.2266 145.304 96.2062 145.304 96.1856V95.3165C145.304 95.2749 145.321 95.235 145.35 95.2056C145.38 95.1762 145.42 95.1597 145.461 95.1597H146.048C146.083 95.1587 146.117 95.1697 146.145 95.1909C146.173 95.2121 146.192 95.2422 146.2 95.2762L146.433 96.1453C146.439 96.1682 146.44 96.1922 146.436 96.2155C146.431 96.2388 146.421 96.2607 146.407 96.2797C146.393 96.2987 146.375 96.3142 146.354 96.325C146.332 96.3359 146.309 96.3418 146.286 96.3424Z" fill="#F5F5F5"/>
<path d="M147.423 96.3424H146.599C146.578 96.3424 146.558 96.3383 146.539 96.3304C146.52 96.3226 146.503 96.311 146.488 96.2965C146.474 96.2819 146.462 96.2646 146.454 96.2456C146.446 96.2266 146.442 96.2062 146.442 96.1856V95.3165C146.442 95.2749 146.459 95.235 146.488 95.2056C146.518 95.1762 146.557 95.1597 146.599 95.1597H147.19C147.225 95.1587 147.259 95.1697 147.287 95.1909C147.315 95.2121 147.334 95.2422 147.343 95.2762L147.571 96.1453C147.577 96.1682 147.578 96.1922 147.574 96.2155C147.569 96.2388 147.559 96.2607 147.545 96.2797C147.531 96.2987 147.512 96.3142 147.491 96.325C147.47 96.3359 147.447 96.3418 147.423 96.3424Z" fill="#F5F5F5"/>
<path d="M148.557 96.3424H147.737C147.716 96.3424 147.696 96.3383 147.677 96.3305C147.658 96.3226 147.641 96.311 147.626 96.2965C147.612 96.2819 147.6 96.2646 147.592 96.2456C147.584 96.2266 147.58 96.2062 147.58 96.1856V95.3165C147.58 95.2957 147.583 95.2751 147.591 95.2557C147.599 95.2364 147.61 95.2189 147.625 95.2042C147.639 95.1895 147.657 95.178 147.676 95.1703C147.696 95.1627 147.716 95.1591 147.737 95.1597H148.324C148.359 95.1587 148.393 95.1697 148.421 95.1909C148.448 95.2121 148.468 95.2422 148.476 95.2762L148.709 96.1453C148.715 96.1686 148.716 96.193 148.711 96.2166C148.707 96.2402 148.696 96.2624 148.682 96.2815C148.667 96.3005 148.648 96.3159 148.626 96.3265C148.605 96.3371 148.581 96.3425 148.557 96.3424Z" fill="#F5F5F5"/>
<path d="M149.695 96.3424H148.87C148.85 96.3424 148.829 96.3383 148.81 96.3304C148.791 96.3226 148.774 96.311 148.76 96.2965C148.745 96.2819 148.733 96.2646 148.726 96.2456C148.718 96.2266 148.714 96.2062 148.714 96.1856V95.3165C148.714 95.2749 148.73 95.235 148.76 95.2056C148.789 95.1762 148.829 95.1597 148.87 95.1597H149.462C149.497 95.1587 149.531 95.1697 149.559 95.1909C149.586 95.2121 149.606 95.2422 149.614 95.2762L149.847 96.1453C149.852 96.1685 149.853 96.1926 149.847 96.2158C149.842 96.2391 149.832 96.2609 149.818 96.2798C149.803 96.2986 149.784 96.314 149.763 96.3249C149.742 96.3357 149.719 96.3417 149.695 96.3424Z" fill="#F5F5F5"/>
<path d="M150.828 96.3424H150.008C149.988 96.3424 149.967 96.3383 149.948 96.3305C149.929 96.3226 149.912 96.311 149.897 96.2965C149.883 96.2819 149.871 96.2646 149.863 96.2456C149.855 96.2266 149.851 96.2062 149.851 96.1856V95.3165C149.851 95.2957 149.854 95.2751 149.862 95.2557C149.87 95.2364 149.881 95.2189 149.896 95.2042C149.911 95.1895 149.928 95.178 149.947 95.1703C149.967 95.1627 149.987 95.1591 150.008 95.1597H150.6C150.634 95.1597 150.667 95.1712 150.694 95.1924C150.72 95.2135 150.739 95.243 150.747 95.2762L150.98 96.1453C150.987 96.1686 150.987 96.193 150.983 96.2166C150.978 96.2402 150.968 96.2624 150.953 96.2815C150.938 96.3005 150.919 96.3159 150.898 96.3265C150.876 96.3371 150.852 96.3425 150.828 96.3424Z" fill="#F5F5F5"/>
<path d="M151.966 96.3424H151.142C151.121 96.3424 151.101 96.3383 151.082 96.3304C151.063 96.3226 151.045 96.311 151.031 96.2965C151.016 96.2819 151.005 96.2646 150.997 96.2456C150.989 96.2266 150.985 96.2062 150.985 96.1856V95.3165C150.985 95.2749 151.001 95.235 151.031 95.2056C151.06 95.1762 151.1 95.1597 151.142 95.1597H151.733C151.768 95.1587 151.802 95.1697 151.83 95.1909C151.858 95.2121 151.877 95.2422 151.885 95.2762L152.118 96.1453C152.124 96.1685 152.125 96.193 152.12 96.2166C152.116 96.2402 152.106 96.2624 152.091 96.2815C152.076 96.3005 152.057 96.3159 152.036 96.3265C152.014 96.3371 151.99 96.3425 151.966 96.3424Z" fill="#F5F5F5"/>
<path d="M153.099 96.3424H152.28C152.259 96.3424 152.239 96.3384 152.22 96.3305C152.201 96.3226 152.183 96.3111 152.169 96.2965C152.154 96.282 152.143 96.2647 152.135 96.2457C152.127 96.2266 152.123 96.2062 152.123 96.1857V95.3165C152.123 95.2959 152.127 95.2756 152.135 95.2565C152.143 95.2375 152.154 95.2202 152.169 95.2057C152.183 95.1911 152.201 95.1795 152.22 95.1717C152.239 95.1638 152.259 95.1597 152.28 95.1597H152.871C152.906 95.1596 152.939 95.1709 152.967 95.192C152.995 95.213 153.014 95.2427 153.023 95.2762L153.252 96.1453C153.258 96.1686 153.259 96.193 153.254 96.2166C153.249 96.2403 153.239 96.2625 153.224 96.2815C153.21 96.3006 153.191 96.316 153.169 96.3266C153.147 96.3371 153.124 96.3426 153.099 96.3424Z" fill="#F5F5F5"/>
<path d="M154.238 96.3424H153.418C153.397 96.3424 153.377 96.3383 153.358 96.3305C153.339 96.3226 153.321 96.311 153.307 96.2965C153.292 96.2819 153.281 96.2646 153.273 96.2456C153.265 96.2266 153.261 96.2062 153.261 96.1856V95.3165C153.26 95.2957 153.264 95.2751 153.272 95.2557C153.279 95.2364 153.291 95.2189 153.305 95.2042C153.32 95.1895 153.338 95.178 153.357 95.1703C153.376 95.1627 153.397 95.1591 153.418 95.1597H154.005C154.039 95.1587 154.074 95.1697 154.101 95.1909C154.129 95.2121 154.149 95.2422 154.157 95.2762L154.39 96.1453C154.396 96.1686 154.397 96.193 154.392 96.2166C154.387 96.2402 154.377 96.2624 154.362 96.2815C154.348 96.3005 154.329 96.3159 154.307 96.3265C154.285 96.3371 154.262 96.3425 154.238 96.3424Z" fill="#F5F5F5"/>
<path d="M155.375 96.3424H154.56C154.539 96.3424 154.519 96.3383 154.5 96.3304C154.481 96.3226 154.464 96.311 154.449 96.2965C154.435 96.2819 154.423 96.2646 154.415 96.2456C154.407 96.2266 154.403 96.2062 154.403 96.1856V95.3165C154.403 95.2749 154.42 95.235 154.449 95.2056C154.479 95.1762 154.518 95.1597 154.56 95.1597H155.151C155.186 95.1587 155.22 95.1697 155.248 95.1909C155.276 95.2121 155.295 95.2422 155.304 95.2762L155.537 96.1453C155.542 96.1692 155.542 96.1941 155.536 96.218C155.531 96.242 155.52 96.2643 155.504 96.2833C155.489 96.3023 155.469 96.3175 155.447 96.3278C155.424 96.338 155.4 96.343 155.375 96.3424Z" fill="#F5F5F5"/>
<path d="M156.509 96.3424H155.689C155.668 96.3424 155.648 96.3383 155.629 96.3305C155.61 96.3226 155.593 96.311 155.578 96.2965C155.564 96.2819 155.552 96.2646 155.544 96.2456C155.536 96.2266 155.532 96.2062 155.532 96.1856V95.3165C155.532 95.2957 155.535 95.2751 155.543 95.2557C155.55 95.2364 155.562 95.2189 155.577 95.2042C155.591 95.1895 155.609 95.178 155.628 95.1703C155.648 95.1627 155.668 95.1591 155.689 95.1597H156.28C156.314 95.1597 156.348 95.1712 156.374 95.1924C156.401 95.2135 156.42 95.243 156.428 95.2762L156.661 96.1453C156.667 96.1686 156.668 96.193 156.663 96.2166C156.659 96.2402 156.648 96.2624 156.634 96.2815C156.619 96.3005 156.6 96.3159 156.578 96.3265C156.557 96.3371 156.533 96.3425 156.509 96.3424Z" fill="#F5F5F5"/>
<path d="M157.647 96.3424H156.822C156.802 96.3424 156.781 96.3383 156.762 96.3304C156.743 96.3226 156.726 96.311 156.712 96.2965C156.697 96.2819 156.685 96.2646 156.678 96.2456C156.67 96.2266 156.666 96.2062 156.666 96.1856V95.3165C156.666 95.2959 156.67 95.2755 156.678 95.2565C156.685 95.2374 156.697 95.2202 156.712 95.2056C156.726 95.191 156.743 95.1795 156.762 95.1716C156.781 95.1637 156.802 95.1597 156.822 95.1597H157.414C157.449 95.1587 157.483 95.1697 157.511 95.1909C157.538 95.2121 157.558 95.2422 157.566 95.2762L157.799 96.1453C157.805 96.1685 157.806 96.193 157.801 96.2166C157.797 96.2402 157.786 96.2624 157.772 96.2815C157.757 96.3005 157.738 96.3159 157.716 96.3265C157.695 96.3371 157.671 96.3425 157.647 96.3424Z" fill="#F5F5F5"/>
<path d="M158.78 96.3424H157.96C157.94 96.3424 157.919 96.3384 157.9 96.3305C157.881 96.3226 157.864 96.3111 157.85 96.2965C157.835 96.282 157.823 96.2647 157.816 96.2457C157.808 96.2266 157.804 96.2062 157.804 96.1857V95.3165C157.804 95.2749 157.82 95.2351 157.85 95.2057C157.879 95.1762 157.919 95.1597 157.96 95.1597H158.552C158.586 95.1596 158.62 95.1709 158.648 95.192C158.675 95.213 158.695 95.2427 158.704 95.2762L158.933 96.1453C158.939 96.1686 158.939 96.193 158.935 96.2166C158.93 96.2403 158.92 96.2625 158.905 96.2815C158.89 96.3006 158.871 96.316 158.85 96.3266C158.828 96.3371 158.804 96.3426 158.78 96.3424Z" fill="#F5F5F5"/>
<path d="M159.609 95.751H141.228V97.1219H159.609V95.751Z" fill="#EBEBEB"/>
<path d="M200.301 96.9383H178.277V100.262H200.301V96.9383Z" fill="#E6E6E6"/>
<path d="M138.661 146.621C138.324 146.621 138.001 146.488 137.762 146.25C137.524 146.013 137.389 145.69 137.388 145.354V100.262H139.928V145.354C139.928 145.69 139.795 146.012 139.557 146.25C139.319 146.488 138.997 146.621 138.661 146.621Z" fill="#E6E6E6"/>
<path d="M197.568 146.621C197.231 146.621 196.908 146.488 196.67 146.25C196.431 146.013 196.297 145.69 196.296 145.354V100.262H198.836V145.354C198.836 145.69 198.702 146.012 198.464 146.25C198.227 146.488 197.904 146.621 197.568 146.621Z" fill="#E6E6E6"/>
<path d="M184.562 96.9383H122.183V100.262H184.562V96.9383Z" fill="#F0F0F0"/>
<path d="M181.821 146.621C181.484 146.621 181.162 146.488 180.924 146.25C180.686 146.012 180.553 145.69 180.553 145.354V100.262H183.093V145.354C183.092 145.69 182.957 146.013 182.719 146.25C182.48 146.488 182.157 146.621 181.821 146.621Z" fill="#F0F0F0"/>
<path d="M172.356 31.8929C173.167 26.8984 169.775 22.1924 164.781 21.3817C159.786 20.571 155.08 23.9626 154.27 28.957C153.459 33.9515 156.85 38.6575 161.845 39.4682C166.839 40.2789 171.545 36.8873 172.356 31.8929Z" fill="#E0E0E0"/>
<path opacity="0.8" d="M163.193 37.7753C167.253 37.7753 170.544 34.4839 170.544 30.4236C170.544 26.3634 167.253 23.072 163.193 23.072C159.133 23.072 155.841 26.3634 155.841 30.4236C155.841 34.4839 159.133 37.7753 163.193 37.7753Z" fill="white"/>
<path d="M163.919 31.0329C163.919 31.18 163.875 31.3238 163.793 31.4461C163.712 31.5684 163.595 31.6637 163.46 31.72C163.324 31.7763 163.174 31.791 163.03 31.7623C162.886 31.7336 162.753 31.6628 162.649 31.5588C162.545 31.4548 162.474 31.3223 162.446 31.178C162.417 31.0337 162.432 30.8842 162.488 30.7483C162.544 30.6124 162.639 30.4963 162.762 30.4146C162.884 30.3329 163.028 30.2892 163.175 30.2892C163.273 30.2892 163.369 30.3085 163.46 30.3459C163.55 30.3832 163.632 30.438 163.701 30.5071C163.77 30.5761 163.825 30.6581 163.862 30.7483C163.899 30.8386 163.919 30.9353 163.919 31.0329Z" fill="#E0E0E0"/>
<path d="M163.09 31.3063L159.927 28.3316L160.232 28.0045L163.099 30.7015L168.237 26.1633L168.533 26.4993L163.09 31.3063Z" fill="#E0E0E0"/>
<path d="M103.192 21.5399H29.7963V66.2637H103.192V21.5399Z" fill="#EBEBEB"/>
<path d="M103.739 21.5219H103.201V66.2457H103.739V21.5219Z" fill="#E0E0E0"/>
<path d="M32.462 23.4842H32.0185V63.728H32.462V23.4842Z" fill="#E0E0E0"/>
<path d="M100.8 23.4842H31.9738V63.728H100.8V23.4842Z" fill="white"/>
<path d="M78.5657 36.8928H72.894V45.0375H78.5657V36.8928Z" fill="#F5F5F5"/>
<path d="M40.9607 49.7996H35.289V57.9443H40.9607V49.7996Z" fill="#F5F5F5"/>
<path d="M40.4051 32.8115H34.7334V38.4832H40.4051V32.8115Z" fill="#F5F5F5"/>
<path d="M68.6202 52.3981H62.9485V58.0697H68.6202V52.3981Z" fill="#F5F5F5"/>
<path d="M96.4768 37.5961H81.9526V58.007H96.4768V37.5961Z" fill="#F5F5F5"/>
<path d="M94.3759 40.5485H83.942V40.7725H94.3759V40.5485Z" fill="#E0E0E0"/>
<path d="M89.2685 40.768H89.0445V55.8835H89.2685V40.768Z" fill="#E0E0E0"/>
<path d="M94.0576 40.768H93.8336V55.8835H94.0576V40.768Z" fill="#E0E0E0"/>
<path d="M85.0126 40.768H84.7886V55.8835H85.0126V40.768Z" fill="#E0E0E0"/>
<path d="M84.2643 40.768H84.0403V55.8835H84.2643V40.768Z" fill="#E0E0E0"/>
<path d="M93.838 41.5654H84.1523V41.7894H93.838V41.5654Z" fill="#E0E0E0"/>
<path d="M58.3206 31.4361V33.3536H62.7916V31.4361H58.3206Z" fill="#F5F5F5"/>
<path d="M59.1943 45.8617V47.3536H63.6653V45.8617H59.1943Z" fill="#F5F5F5"/>
<path d="M59.9199 30.809H45.3958V51.2198H59.9199V30.809Z" fill="#F0F0F0"/>
<path d="M58.1909 49.1635V50.6553H62.6619V49.1635H58.1909Z" fill="#F5F5F5"/>
<path d="M58.9343 35.5219V37.0137H63.4054V35.5219H58.9343Z" fill="#F5F5F5"/>
<path d="M57.9577 39.2269V40.7188H62.4287V39.2269H57.9577Z" fill="#F5F5F5"/>
<path d="M57.008 33.3177H47.1072V35.0739H57.008V33.3177Z" fill="#E6E6E6"/>
<path d="M57.1693 40.8218H47.2685L47.1072 40.0244H57.008L57.1693 40.8218Z" fill="#E6E6E6"/>
<path d="M50.6196 36.8301H47.1072V38.5862H50.6196V36.8301Z" fill="#E6E6E6"/>
<path d="M201.555 153.883H186.717V153.995H201.555V153.883Z" fill="#EBEBEB"/>
<path d="M148.387 155.102H144.494V155.214H148.387V155.102Z" fill="#EBEBEB"/>
<path d="M186.269 149.726H177.672V149.838H186.269V149.726Z" fill="#EBEBEB"/>
<path d="M42.8512 150.479H23.5021V150.591H42.8512V150.479Z" fill="#EBEBEB"/>
<path d="M49.6788 150.479H46.843V150.591H49.6788V150.479Z" fill="#EBEBEB"/>
<path d="M100.867 152.369H58.8986V152.481H100.867V152.369Z" fill="#EBEBEB"/>
<path d="M106.803 126.694H20.2944C19.616 126.694 18.9653 126.425 18.4856 125.945C18.0058 125.465 17.7363 124.815 17.7363 124.136V2.53568C17.7422 1.86112 18.0144 1.21621 18.4934 0.741308C18.9725 0.266409 19.6198 -2.58612e-05 20.2944 1.88274e-09H106.803C107.139 1.88274e-09 107.472 0.0661661 107.782 0.194722C108.093 0.323277 108.375 0.511705 108.612 0.749244C108.85 0.986784 109.038 1.26879 109.167 1.57915C109.295 1.88951 109.361 2.22215 109.361 2.55808V124.136C109.361 124.472 109.295 124.805 109.167 125.115C109.038 125.426 108.85 125.708 108.612 125.945C108.375 126.183 108.093 126.371 107.782 126.5C107.472 126.628 107.139 126.694 106.803 126.694ZM20.2944 0.0896003C19.646 0.0907846 19.0245 0.348876 18.5661 0.807348C18.1076 1.26582 17.8495 1.8873 17.8483 2.53568V124.136C17.8495 124.785 18.1076 125.406 18.5661 125.865C19.0245 126.323 19.646 126.581 20.2944 126.582H106.803C107.452 126.581 108.073 126.323 108.532 125.865C108.99 125.406 109.248 124.785 109.249 124.136V2.53568C109.248 1.8873 108.99 1.26582 108.532 0.807348C108.073 0.348876 107.452 0.0907846 106.803 0.0896003H20.2944Z" fill="#EBEBEB"/>
<path d="M203.705 126.694H117.197C116.518 126.694 115.868 126.425 115.388 125.945C114.908 125.465 114.639 124.815 114.639 124.136V2.53568C114.645 1.86112 114.917 1.21621 115.396 0.741308C115.875 0.266409 116.522 -2.58612e-05 117.197 1.88274e-09H203.705C204.384 1.88275e-09 205.035 0.269511 205.514 0.749244C205.994 1.22898 206.264 1.87963 206.264 2.55808V124.136C206.264 124.815 205.994 125.465 205.514 125.945C205.035 126.425 204.384 126.694 203.705 126.694ZM117.197 0.0896003C116.548 0.0907846 115.927 0.348876 115.468 0.807348C115.01 1.26582 114.752 1.8873 114.751 2.53568V124.136C114.752 124.785 115.01 125.406 115.468 125.865C115.927 126.323 116.548 126.581 117.197 126.582H203.705C204.354 126.581 204.975 126.323 205.434 125.865C205.892 125.406 206.15 124.785 206.152 124.136V2.53568C206.15 1.8873 205.892 1.26582 205.434 0.807348C204.975 0.348876 204.354 0.0907846 203.705 0.0896003H117.197Z" fill="#EBEBEB"/>
<path d="M224 146.675H0V146.787H224V146.675Z" fill="#EBEBEB"/>
<path d="M112 165.213C159.973 165.213 198.863 162.943 198.863 160.142C198.863 157.341 159.973 155.071 112 155.071C64.027 155.071 25.1372 157.341 25.1372 160.142C25.1372 162.943 64.027 165.213 112 165.213Z" fill="#F5F5F5"/>
<path d="M140.443 143.481C140.443 143.481 139.032 127.649 131.681 112.443C131.681 112.443 142.536 122.577 142.916 143.481H140.443Z" fill="#00610B"/>
<path d="M145.958 144.05C145.958 144.05 147.186 126.224 149.959 117.309C149.959 117.309 151.478 128.37 147.517 143.548L145.958 144.05Z" fill="#00610B"/>
<path opacity="0.3" d="M145.958 144.05C145.958 144.05 147.186 126.224 149.959 117.309C149.959 117.309 151.478 128.37 147.517 143.548L145.958 144.05Z" fill="black"/>
<path d="M144.82 144.579C144.82 144.579 142.916 120.588 148.248 109.832C148.248 109.832 148.821 131.636 147.486 144.579H144.82Z" fill="#00610B"/>
<path opacity="0.2" d="M144.82 144.579C144.82 144.579 142.916 120.588 148.248 109.832C148.248 109.832 148.821 131.636 147.486 144.579H144.82Z" fill="black"/>
<path d="M149.323 144.704C149.323 144.704 150.73 128.872 158.086 113.667C158.086 113.667 147.226 123.8 146.845 144.704H149.323Z" fill="#00610B"/>
<path d="M142.155 145.932C142.155 145.932 136.246 118.371 137.298 103.775C137.298 103.775 145.201 120.024 144.82 144.579L142.155 145.932Z" fill="#00610B"/>
<path opacity="0.1" d="M142.155 145.932C142.155 145.932 136.246 118.371 137.298 103.775C137.298 103.775 145.201 120.024 144.82 144.579L142.155 145.932Z" fill="white"/>
<path d="M147.634 159.936H142.128C141.233 159.935 140.37 159.601 139.708 158.999C139.045 158.397 138.631 157.57 138.544 156.679L137.137 142.15H152.633L151.227 156.679C151.145 157.573 150.73 158.404 150.065 159.007C149.399 159.611 148.532 159.942 147.634 159.936Z" fill="#00610B"/>
<path opacity="0.3" d="M147.155 159.936H142.612C141.584 159.935 140.594 159.552 139.833 158.862C139.072 158.171 138.595 157.222 138.495 156.2L137.151 142.15H152.647L151.303 156.2C151.202 157.228 150.721 158.181 149.953 158.872C149.186 159.564 148.188 159.943 147.155 159.936Z" fill="white"/>
<path d="M114.424 62.7559L115.293 58.9792L114.289 56.8154C114.167 56.606 114.119 56.361 114.155 56.121C114.282 55.3828 114.446 54.6516 114.648 53.9303C114.692 53.7957 114.787 53.6836 114.912 53.6175C115.038 53.5515 115.184 53.5367 115.32 53.5764L117.3 54.1364C117.716 54.2036 118.115 57.1424 118.115 57.1424C118.165 57.3379 118.155 57.5437 118.088 57.7338L117.497 59.584L117.143 64.1626L114.424 62.7559Z" fill="#FFC3BD"/>
<path d="M105.836 58.8448C108.715 60.7972 111.115 63.3765 112.856 66.3892C113.107 65.5245 114.303 61.8778 114.092 60.8519C114.025 60.6407 114.008 60.4167 114.043 60.1978C114.101 59.9872 114.357 59.8125 114.545 59.9245C116.014 59.7632 117.233 60.0276 118.684 60.2202C118.285 63.5309 117.622 74.1575 112.179 71.9981C108.125 70.3943 105.177 66.6221 103.613 62.5408C103.339 61.9026 103.199 61.215 103.201 60.5204C103.207 60.1736 103.29 59.8326 103.446 59.5225C103.601 59.2123 103.823 58.9409 104.097 58.7284C104.653 58.3252 105.28 58.4596 105.836 58.8448Z" fill="#00610B"/>
<path opacity="0.7" d="M105.836 58.8448C108.715 60.7972 111.115 63.3765 112.856 66.3892C113.107 65.5245 114.303 61.8778 114.092 60.8519C114.025 60.6407 114.008 60.4167 114.043 60.1978C114.101 59.9872 114.357 59.8125 114.545 59.9245C116.014 59.7632 117.233 60.0276 118.684 60.2202C118.285 63.5309 117.622 74.1575 112.179 71.9981C108.125 70.3943 105.177 66.6221 103.613 62.5408C103.339 61.9026 103.199 61.215 103.201 60.5204C103.207 60.1736 103.29 59.8326 103.446 59.5225C103.601 59.2123 103.823 58.9409 104.097 58.7284C104.653 58.3252 105.28 58.4596 105.836 58.8448Z" fill="black"/>
<path d="M100.383 92.288C100.757 98.3686 100.727 104.467 100.294 110.544C100.294 110.544 99.1468 100.845 98.5554 96.9651L100.383 92.288Z" fill="black"/>
<path d="M96.8352 57.1424C97.3952 55.2249 97.1891 52.5011 96.9337 50.8032L101.167 54.7545C100.928 55.4864 100.86 56.2637 100.97 57.0259C101.001 57.2021 101.089 57.3635 101.22 57.4855C101.351 57.6076 101.518 57.6837 101.696 57.7024L103.466 58.1996L103.707 59.5436L102.659 59.8483L101.279 61.3401L97.8073 59.9961L94.08 58.3878C94.6295 58.1935 95.2016 58.0701 95.7824 58.0204C96.0154 57.9693 96.2327 57.8628 96.416 57.7099C96.5992 57.5571 96.743 57.3624 96.8352 57.1424Z" fill="#FFC3BD"/>
<path opacity="0.2" d="M98.6629 52.7296L101.104 54.9696C100.985 55.4078 100.922 55.8594 100.916 56.3136C100.352 56.1863 99.827 55.923 99.3874 55.5467C98.9478 55.1703 98.6068 54.6923 98.3941 54.1542C98.1745 53.4867 98.4075 52.7968 98.6629 52.7296Z" fill="black"/>
<path d="M96.2257 47.7389C96.49 50.8749 96.49 52.7027 98.1118 54.2663C100.544 56.6272 104.384 55.0906 105.038 51.9591C105.638 49.1187 105.096 44.4999 102.005 43.3351C101.325 43.0727 100.59 42.989 99.8682 43.0917C99.1469 43.1944 98.464 43.4801 97.8844 43.9217C97.3049 44.3633 96.8482 44.946 96.5578 45.6142C96.2675 46.2825 96.1531 47.0139 96.2257 47.7389Z" fill="#FFC3BD"/>
<path d="M100.581 47.9001C100.612 48.151 100.769 48.3481 100.934 48.3213C101.1 48.2944 101.208 48.0793 101.176 47.824C101.145 47.5686 100.988 47.376 100.822 47.4073C100.657 47.4387 100.549 47.6493 100.581 47.9001Z" fill="#263238"/>
<path d="M103.631 47.5283C103.663 47.7792 103.819 47.9763 103.985 47.9494C104.151 47.9225 104.258 47.7075 104.227 47.4566C104.196 47.2057 104.039 47.0086 103.873 47.0355C103.707 47.0624 103.6 47.2729 103.631 47.5283Z" fill="#263238"/>
<path d="M100.231 47.488C100.206 47.4925 100.18 47.4925 100.155 47.488C100.119 47.4705 100.091 47.4399 100.077 47.4024C100.063 47.3649 100.063 47.3234 100.079 47.2864C100.176 47.0701 100.323 46.8796 100.507 46.7302C100.692 46.5808 100.909 46.4767 101.141 46.4263C101.18 46.4223 101.22 46.4335 101.251 46.4576C101.283 46.4817 101.304 46.517 101.311 46.5562C101.316 46.5953 101.306 46.6349 101.282 46.6666C101.259 46.6984 101.224 46.7198 101.185 46.7264C101.002 46.7672 100.83 46.851 100.686 46.9709C100.541 47.0909 100.426 47.2435 100.352 47.4163C100.34 47.4377 100.322 47.4555 100.301 47.468C100.28 47.4806 100.256 47.4875 100.231 47.488Z" fill="#263238"/>
<path d="M104.778 46.9594C104.754 46.9634 104.729 46.9614 104.705 46.9535C104.682 46.9457 104.661 46.9324 104.644 46.9146C104.523 46.7733 104.37 46.6626 104.198 46.5918C104.026 46.5209 103.839 46.4918 103.654 46.5069C103.614 46.5134 103.574 46.5041 103.542 46.481C103.51 46.4579 103.488 46.4229 103.481 46.3837C103.475 46.3445 103.484 46.3043 103.507 46.2719C103.53 46.2396 103.565 46.2177 103.604 46.2112C103.841 46.1873 104.08 46.2204 104.301 46.3077C104.523 46.395 104.72 46.5339 104.877 46.713C104.904 46.7406 104.919 46.7775 104.919 46.816C104.919 46.8545 104.904 46.8915 104.877 46.919C104.864 46.9326 104.849 46.9432 104.832 46.9502C104.815 46.9572 104.797 46.9603 104.778 46.9594Z" fill="#263238"/>
<path d="M97.2651 46.9639C97.5626 47.7415 97.58 48.5985 97.3144 49.3875C97.1735 49.3227 97.0213 49.2862 96.8664 49.28C96.767 49.2707 96.6669 49.2872 96.5759 49.328C96.4848 49.3689 96.4058 49.4326 96.3467 49.513C96.3024 49.6179 96.2795 49.7306 96.2795 49.8445C96.2795 49.9584 96.3024 50.0711 96.3467 50.176C96.6215 51.1616 96.9201 52.1383 97.2427 53.1059C95.6283 51.5615 94.6046 49.5014 94.3486 47.2819C95.2491 47.161 96.3422 47.0759 97.2651 46.9639Z" fill="#263238"/>
<path d="M94.7699 50.6957C95.2057 51.3516 95.8841 51.8077 96.656 51.9635C97.6819 52.1607 98.1075 51.2243 97.7536 50.3014C97.4355 49.4726 96.5171 48.3661 95.5136 48.5811C94.5101 48.7962 94.2413 49.8803 94.7699 50.6957Z" fill="#FFC3BD"/>
<path d="M102.941 48.3168C103.369 49.0122 103.892 49.6441 104.496 50.1939C104.351 50.3517 104.175 50.4762 103.977 50.559C103.78 50.6418 103.567 50.6807 103.354 50.6732L102.941 48.3168Z" fill="#ED893E"/>
<path d="M113.021 148.884L115.902 147.844L117.546 154.793L114.661 155.837L113.021 148.884Z" fill="#FFC3BD"/>
<path d="M91.9745 150.004L95.0343 150.179L94.4698 157.252L91.41 157.078L91.9745 150.004Z" fill="#FFC3BD"/>
<path d="M95.388 157.136C96.1093 157.857 97.8206 158.673 100.173 159.327C100.688 159.47 100.45 160.729 99.1646 160.671C97.8789 160.613 95.0789 160.339 94.1515 160.285C92.6417 160.2 91.7502 160.241 90.5675 160.169C90.5333 160.174 90.4986 160.174 90.4645 160.169C90.4072 160.153 90.3535 160.127 90.3067 160.09C90.2598 160.054 90.2207 160.009 90.1915 159.957C90.1623 159.905 90.1437 159.848 90.1367 159.789C90.1297 159.73 90.1345 159.671 90.1509 159.613L90.9125 156.925C90.9288 156.867 90.965 156.816 91.0148 156.78C91.0646 156.745 91.125 156.729 91.1857 156.733L94.9131 156.943C95.0892 156.949 95.2575 157.018 95.388 157.136Z" fill="#263238"/>
<path d="M118.272 154.323C120.673 154.73 121.108 154.538 123.518 154.125C124.038 154.036 124.19 155.344 123.025 155.814C121.094 156.594 121.032 156.589 119.401 157.257C117.994 157.817 116.404 158.538 115.293 159.009C115.26 159.022 115.225 159.031 115.19 159.035C115.073 159.054 114.955 159.025 114.859 158.957C114.764 158.888 114.699 158.784 114.679 158.668L114.24 155.904C114.231 155.843 114.243 155.781 114.273 155.728C114.303 155.674 114.349 155.632 114.406 155.608L117.506 154.358C117.753 154.277 118.018 154.265 118.272 154.323Z" fill="#263238"/>
<path opacity="0.2" d="M113.017 148.888L113.864 152.472L116.749 151.428L115.902 147.849L113.017 148.888Z" fill="black"/>
<path opacity="0.2" d="M91.683 153.651L94.7429 153.83L95.0341 150.179L91.9742 150.004L91.683 153.651Z" fill="black"/>
<path d="M117.542 150.273L112.735 152.212C112.735 152.212 106.624 129.391 104.962 121.439C103.3 113.487 97.4758 86.0474 97.4758 86.0474L108.228 86.1325C108.228 86.1325 111.686 110.513 112.766 119.8C113.908 129.472 117.542 150.273 117.542 150.273Z" fill="#263238"/>
<path opacity="0.2" d="M103 112.17L99.7203 96.665L101.311 95.3792C103.488 98.4211 103.685 106.705 103 112.17Z" fill="black"/>
<path d="M91.8757 86.0159C91.8757 86.0159 91.7144 112.39 91.2978 123.298C90.917 132.957 90.6348 152.867 90.6348 152.867L96.2392 153.189C96.2392 153.189 98.4792 131.492 99.3752 121.699C100.159 112.739 103.752 86.0921 103.752 86.0921L91.8757 86.0159Z" fill="#263238"/>
<path d="M97.0771 151.267L90.142 150.998L90.3033 152.983L96.4543 153.337L97.0771 151.267Z" fill="#00610B"/>
<path d="M117.604 148.122L111.418 150.631L112.448 152.472L117.878 150.277L117.604 148.122Z" fill="#00610B"/>
<path d="M95.8721 157.517C96.0806 157.543 96.2919 157.499 96.4724 157.391C96.5321 157.348 96.5792 157.289 96.6091 157.221C96.639 157.154 96.6506 157.079 96.6426 157.006C96.6471 156.963 96.6389 156.92 96.619 156.882C96.5991 156.843 96.5683 156.812 96.5306 156.791C96.2036 156.598 95.1866 157.145 95.0657 157.212C95.0531 157.218 95.0428 157.227 95.0364 157.24C95.0299 157.252 95.0276 157.266 95.0298 157.279C95.0309 157.293 95.0362 157.307 95.0449 157.318C95.0537 157.329 95.0656 157.338 95.0791 157.342C95.3356 157.431 95.6018 157.49 95.8721 157.517ZM96.3649 156.907C96.3959 156.901 96.4279 156.901 96.4589 156.907C96.4723 156.918 96.4829 156.932 96.4899 156.947C96.4969 156.963 96.5001 156.98 96.4993 156.997C96.5033 157.047 96.4947 157.096 96.4744 157.142C96.454 157.187 96.4225 157.227 96.3828 157.257C96.0336 157.398 95.6433 157.398 95.2941 157.257C95.6253 157.073 95.989 156.956 96.3649 156.912V156.907Z" fill="#00610B"/>
<path d="M95.1104 157.36H95.1417C95.4688 157.212 96.1229 156.576 96.0736 156.222C96.0672 156.168 96.0415 156.118 96.0012 156.081C95.9609 156.044 95.9087 156.022 95.8541 156.02C95.7997 156.01 95.7437 156.01 95.6896 156.023C95.6356 156.035 95.5848 156.059 95.5405 156.092C95.1731 156.365 95.0432 157.257 95.0387 157.279C95.0378 157.292 95.0402 157.305 95.0457 157.317C95.0512 157.329 95.0596 157.339 95.0701 157.347L95.1104 157.36ZM95.7958 156.159H95.8317C95.9213 156.159 95.9302 156.222 95.9302 156.244C95.9571 156.442 95.5405 156.93 95.209 157.14C95.2537 156.794 95.3985 156.469 95.6256 156.204C95.6754 156.17 95.7356 156.154 95.7958 156.159Z" fill="#00610B"/>
<path d="M117.936 154.667C118.433 154.569 119.28 154.345 119.49 153.96C119.525 153.899 119.542 153.83 119.542 153.76C119.542 153.69 119.525 153.622 119.49 153.561C119.473 153.525 119.448 153.494 119.416 153.47C119.384 153.447 119.346 153.432 119.307 153.427C118.886 153.382 117.963 154.412 117.873 154.538C117.865 154.55 117.86 154.565 117.86 154.58C117.86 154.595 117.865 154.61 117.873 154.623C117.878 154.635 117.887 154.646 117.898 154.654C117.909 154.662 117.922 154.667 117.936 154.667ZM119.28 153.579C119.295 153.58 119.31 153.586 119.322 153.595C119.334 153.605 119.343 153.618 119.347 153.633C119.367 153.671 119.377 153.713 119.377 153.756C119.377 153.799 119.367 153.841 119.347 153.879C119.231 154.107 118.774 154.327 118.12 154.475C118.491 154.072 119.016 153.579 119.266 153.579H119.28Z" fill="#00610B"/>
<path d="M117.936 154.667C117.945 154.668 117.955 154.666 117.963 154.662C117.972 154.658 117.979 154.653 117.985 154.645C118.272 154.349 118.698 153.462 118.518 153.158C118.474 153.091 118.384 153.019 118.191 153.073C118.122 153.093 118.057 153.128 118 153.174C117.944 153.22 117.898 153.277 117.864 153.341C117.731 153.755 117.731 154.2 117.864 154.614C117.868 154.626 117.875 154.637 117.885 154.645C117.894 154.654 117.906 154.66 117.918 154.663L117.936 154.667ZM118.317 153.198C118.332 153.196 118.346 153.199 118.36 153.205C118.373 153.212 118.385 153.221 118.393 153.234C118.5 153.418 118.236 154.085 117.972 154.435C117.872 154.1 117.879 153.743 117.994 153.413C118.017 153.365 118.05 153.322 118.091 153.288C118.132 153.254 118.18 153.229 118.232 153.216C118.26 153.211 118.289 153.211 118.317 153.216V153.198Z" fill="#00610B"/>
<path d="M93.7978 58.24C93.7978 58.24 93.9187 58.1907 94.1696 58.119L94.6982 58.0518L95.4957 57.8412C95.7645 58.016 99.6397 60.5292 100.872 61.0131L101.252 61.0713C101.889 60.0386 102.234 58.8528 102.252 57.6396H102.7C102.845 57.7669 103.021 57.8535 103.21 57.8905L103.578 57.9308L104.733 58.7417C104.733 58.7417 107.278 63.8892 108.228 76.8275L108.676 86.6208L90.2541 87.1449L93.7978 58.24Z" fill="#00610B"/>
<g opacity="0.4">
<path d="M101.803 60.032C101.805 60.045 101.805 60.0581 101.803 60.0711V60.0363V60.032Z" fill="black"/>
</g>
<path d="M101.803 60.032C101.805 60.045 101.805 60.0581 101.803 60.0711V60.0363V60.032Z" fill="#00610B"/>
<path d="M102.278 57.6307C102.278 57.6307 104.917 58.6567 106.077 65.6947C107.238 72.7328 106.937 74.0858 107.327 84.0627C107.426 86.6029 107.417 89.1251 109.321 88.8115C109.321 88.8115 109.433 89.2999 108.944 78.2611C108.456 67.2224 109.151 57.6397 102.278 57.6307Z" fill="#00610B"/>
<g opacity="0.6">
<path d="M102.278 57.6307C102.278 57.6307 104.917 58.6567 106.077 65.6947C107.238 72.7328 106.937 74.0858 107.327 84.0627C107.426 86.6029 107.417 89.1251 109.321 88.8115C109.321 88.8115 109.433 89.2999 108.944 78.2611C108.456 67.2224 109.151 57.6397 102.278 57.6307Z" fill="black"/>
</g>
<path d="M94.4519 57.8547C94.4519 57.8547 97.6327 59.5034 98.2957 70.5063C98.9588 81.5091 101.006 88.9235 97.3056 89.376C93.6051 89.8285 89.488 87.8618 89.488 87.8618C89.488 87.8618 89.1431 88.8698 89.6896 83.7895C90.1376 79.5469 89.9136 82.9965 90.1824 78.9779C90.4916 74.3322 87.5975 61.6448 89.1834 60.3232C90.7693 59.0016 94.4519 57.8547 94.4519 57.8547Z" fill="#00610B"/>
<g opacity="0.6">
<path d="M94.4519 57.8547C94.4519 57.8547 97.6327 59.5034 98.2957 70.5063C98.9588 81.5091 101.006 88.9235 97.3056 89.376C93.6051 89.8285 89.488 87.8618 89.488 87.8618C89.488 87.8618 89.1431 88.8698 89.6896 83.7895C90.1376 79.5469 89.9136 82.9965 90.1824 78.9779C90.4916 74.3322 87.5975 61.6448 89.1834 60.3232C90.7693 59.0016 94.4519 57.8547 94.4519 57.8547Z" fill="black"/>
</g>
<g opacity="0.3">
<path d="M95.5513 82.0385L93.2814 81.7779C92.8954 81.7336 92.5428 81.5377 92.3012 81.2335C92.0596 80.9292 91.9488 80.5414 91.9931 80.1554L92.031 79.826L97.2116 80.4209L97.1738 80.7502C97.1295 81.1362 96.9337 81.4888 96.6294 81.7304C96.3251 81.972 95.9373 82.0828 95.5513 82.0385Z" fill="black"/>
</g>
<path d="M103.457 69.5251L107.623 68.8531L108.909 67.1686C109.057 66.9748 109.267 66.8386 109.505 66.7833L110.961 66.4294C111.121 66.3924 111.287 66.3925 111.447 66.4298C111.607 66.4671 111.756 66.5405 111.884 66.6445L112.412 67.0925C112.596 67.2408 112.723 67.4482 112.771 67.6793L112.923 68.3648C112.967 68.5671 112.951 68.778 112.877 68.9714C112.803 69.1648 112.674 69.3324 112.506 69.4534L110.414 70.9587C110.251 71.0784 110.056 71.147 109.854 71.1558L108.022 71.2589L103.179 72.576L103.457 69.5251Z" fill="#FFC3BD"/>
<path d="M102.359 51.7888C102.077 51.7332 101.809 51.6212 101.571 51.4596C101.333 51.2979 101.13 51.0899 100.975 50.848C100.966 50.8305 100.964 50.8104 100.969 50.7914C100.974 50.7725 100.985 50.7559 101.002 50.745C101.02 50.7366 101.04 50.7351 101.059 50.7409C101.078 50.7467 101.094 50.7593 101.105 50.7763C101.277 51.0347 101.506 51.25 101.775 51.4054C102.044 51.5608 102.345 51.6521 102.655 51.6723C102.674 51.6723 102.693 51.6797 102.707 51.693C102.721 51.7064 102.73 51.7246 102.731 51.744C102.731 51.7642 102.723 51.7836 102.709 51.7979C102.694 51.8121 102.675 51.8202 102.655 51.8202C102.547 51.8246 102.453 51.8067 102.359 51.7888Z" fill="#263238"/>
<path d="M95.5091 57.8278L101.463 63.1411L101.696 62.72C102.49 61.1457 102.702 59.3419 102.296 57.6262C102.297 58.4474 102.145 59.2616 101.848 60.0275L101.114 58.3789C101.1 58.8326 101.035 59.2834 100.921 59.7229L100.522 59.3241L99.4112 60.2201C97.7581 59.2883 95.7017 57.9577 95.5091 57.8278Z" fill="#00610B"/>
<path opacity="0.2" d="M95.5091 57.8278L101.463 63.1411L101.696 62.72C102.49 61.1457 102.702 59.3419 102.296 57.6262C102.297 58.4474 102.145 59.2616 101.848 60.0275L101.114 58.3789C101.1 58.8326 101.035 59.2834 100.921 59.7229L100.522 59.3241L99.4112 60.2201C97.7581 59.2883 95.7017 57.9577 95.5091 57.8278Z" fill="white"/>
<path d="M100.881 59.7049C101.759 60.1662 102.585 60.7204 103.345 61.358C103.264 60.7398 103.183 60.126 103.107 59.5123C103.059 58.8542 102.9 58.2091 102.637 57.6038C102.502 57.3015 102.293 57.0382 102.029 56.8385C101.765 56.6387 101.455 56.509 101.127 56.4614C101.073 56.4614 100.961 56.3539 100.908 56.3539C101.147 57.459 101.138 58.6038 100.881 59.7049Z" fill="#00610B"/>
<path opacity="0.6" d="M100.881 59.7049C101.759 60.1662 102.585 60.7204 103.345 61.358C103.264 60.7398 103.183 60.126 103.107 59.5123C103.059 58.8542 102.9 58.2091 102.637 57.6038C102.502 57.3015 102.293 57.0382 102.029 56.8385C101.765 56.6387 101.455 56.509 101.127 56.4614C101.073 56.4614 100.961 56.3539 100.908 56.3539C101.147 57.459 101.138 58.6038 100.881 59.7049Z" fill="white"/>
<path d="M100.881 59.7049L98.7885 61.9001C98.7885 61.9001 95.4599 58.3161 95.4957 57.2991L97.0771 55.9551L100.881 59.7049Z" fill="#00610B"/>
<path opacity="0.6" d="M100.881 59.7049L98.7885 61.9001C98.7885 61.9001 95.4599 58.3161 95.4957 57.2991L97.0771 55.9551L100.881 59.7049Z" fill="white"/>
<path d="M99.8098 60.825L100.858 61.9316C100.924 62.0032 101.004 62.0594 101.094 62.0958C101.184 62.1322 101.281 62.1481 101.378 62.1421L102.117 62.0391C102.175 62.0254 102.228 61.9938 102.267 61.9488C102.306 61.9038 102.331 61.8477 102.337 61.7882L102.027 60.3815L100.876 59.7095L99.8098 60.825Z" fill="white"/>
<path d="M101.324 75.264C101.324 75.264 102.713 78.8256 103.237 78.4C103.761 77.9744 104.895 75.6045 104.895 75.5552C104.625 70.9157 103.699 66.3378 102.144 61.9584L101.297 62.066C101.57 66.4608 101.579 70.8681 101.324 75.264Z" fill="white"/>
<path d="M105.495 68.8038C106.001 69.1443 106.897 72.0876 105.41 72.5177C103.914 73.127 97.319 75.4745 94.0441 74.9459C93.1839 74.8115 92.3507 74.5247 91.8623 73.8035C89.606 70.5129 88.2386 66.6948 87.8931 62.7199C87.8079 61.7388 87.9558 60.4799 89.5372 60.2067C90.1473 60.2783 90.7353 60.4782 91.2627 60.7932C91.7901 61.1082 92.2448 61.5312 92.5971 62.0345C94.3487 64.951 94.4742 67.2895 95.863 70.3539L105.495 68.8038Z" fill="#00610B"/>
<g opacity="0.6">
<path d="M105.495 68.8038C106.001 69.1443 106.897 72.0876 105.41 72.5177C103.914 73.127 97.319 75.4745 94.0441 74.9459C93.1839 74.8115 92.3507 74.5247 91.8623 73.8035C89.606 70.5129 88.2386 66.6948 87.8931 62.7199C87.8079 61.7388 87.9558 60.4799 89.5372 60.2067C90.1473 60.2783 90.7353 60.4782 91.2627 60.7932C91.7901 61.1082 92.2448 61.5312 92.5971 62.0345C94.3487 64.951 94.4742 67.2895 95.863 70.3539L105.495 68.8038Z" fill="black"/>
</g>
<path d="M104.384 49.4234C104.082 49.4197 103.79 49.3143 103.555 49.124C103.32 48.9338 103.156 48.67 103.089 48.3751L102.753 46.834L105.889 46.5114V48.0884C105.884 48.4145 105.76 48.7275 105.541 48.969C105.321 49.2106 105.022 49.3641 104.698 49.401H104.541L104.384 49.4234ZM103.318 47.2461L103.542 48.2765C103.586 48.4845 103.706 48.6688 103.878 48.7937C104.05 48.9186 104.262 48.9754 104.474 48.953H104.63C104.842 48.9309 105.039 48.8314 105.182 48.6735C105.325 48.5156 105.404 48.3104 105.405 48.0973V47.0401L103.318 47.2461Z" fill="#00610B"/>
<path d="M101.275 49.728C100.972 49.7253 100.679 49.6203 100.443 49.43C100.207 49.2397 100.042 48.9753 99.9756 48.6797L99.644 47.1385L102.78 46.816V48.3929C102.775 48.7191 102.651 49.0321 102.431 49.2736C102.212 49.5151 101.912 49.6687 101.588 49.7056H101.432L101.275 49.728ZM100.209 47.5462L100.433 48.5811C100.478 48.7886 100.598 48.9723 100.769 49.097C100.941 49.2218 101.153 49.2789 101.364 49.2576H101.521C101.732 49.2356 101.928 49.1367 102.071 48.9797C102.214 48.8227 102.294 48.6187 102.296 48.4064V47.3491L100.209 47.5462Z" fill="#00610B"/>
<path d="M103.248 46.779L102.192 46.8889L102.24 47.3523L103.296 47.2425L103.248 46.779Z" fill="#00610B"/>
<path d="M96.1274 48.6035L95.9974 48.16L98.9139 47.2909L100.034 47.1161L100.101 47.5731L99.017 47.7389L96.1274 48.6035Z" fill="#00610B"/>
<path d="M104.962 46.144C105.517 46.0992 105.858 45.3152 105.62 44.8C105.383 44.2848 105.083 43.9801 104.877 43.5052C104.601 42.8034 104.245 42.1359 103.815 41.5161C103.384 40.8938 102.751 40.4395 102.023 40.2304C101.293 40.0556 100.751 40.544 100.115 40.9516C99.4717 41.299 98.767 41.5166 98.0403 41.5923C97.3132 41.6658 96.6112 41.8983 95.984 42.2732C95.6768 42.4686 95.4363 42.7528 95.2947 43.0881C95.153 43.4234 95.1169 43.794 95.191 44.1504C100.07 42.8377 98.7033 46.704 104.962 46.144Z" fill="#263238"/>
<path d="M115.553 54.656C115.553 54.0915 115.553 53.527 115.584 52.967C115.584 52.7654 115.584 52.519 115.414 52.4249C115.244 52.3308 114.912 52.4249 114.813 52.6624C114.715 52.8998 114.495 54.759 114.464 55.0412C114.724 55.3414 115.548 55.0457 115.553 54.656Z" fill="#FFC3BD"/>
<path d="M94.08 47.2729C93.7949 46.8536 93.6488 46.3553 93.6623 45.8484C93.6758 45.3415 93.8482 44.8516 94.1552 44.448C94.4623 44.0445 94.8883 43.7476 95.3732 43.5993C95.8582 43.451 96.3774 43.4589 96.8576 43.6217C97.8163 43.9488 98.8243 43.5052 99.8279 43.3708C99.1424 44.1011 99.1827 46.6412 99.0259 46.807C98.8572 46.9604 98.6521 47.0683 98.4301 47.1206C97.0906 47.5417 95.424 47.488 94.08 47.2729Z" fill="#263238"/>
<path d="M80.2681 13.3235C80.1137 13.342 79.9575 13.3079 79.825 13.2266C79.6924 13.1452 79.5912 13.0215 79.5378 12.8755L76.8229 6.19131C76.7885 6.1066 76.7711 6.01593 76.7717 5.92449C76.7724 5.83305 76.791 5.74263 76.8266 5.65838C76.8621 5.57414 76.9139 5.49773 76.979 5.43352C77.0441 5.3693 77.1213 5.31853 77.206 5.28411C77.2907 5.2497 77.3814 5.2323 77.4728 5.23293C77.5642 5.23355 77.6547 5.25218 77.7389 5.28775C77.8231 5.32332 77.8996 5.37513 77.9638 5.44023C78.028 5.50532 78.0788 5.58244 78.1132 5.66716L80.8281 12.3513C80.8936 12.5209 80.8904 12.7092 80.8193 12.8765C80.7482 13.0438 80.6148 13.1768 80.4473 13.2473C80.3916 13.2814 80.3312 13.3071 80.2681 13.3235Z" fill="#00610B"/>
<path d="M102.372 31.808C102.251 31.8229 102.127 31.8059 102.014 31.7588L95.2132 28.8871C95.0533 28.8083 94.9295 28.6714 94.8672 28.5044C94.8049 28.3374 94.8088 28.1529 94.878 27.9886C94.9473 27.8243 95.0767 27.6927 95.2398 27.6207C95.4028 27.5488 95.5873 27.5418 95.7553 27.6013L102.556 30.464C102.701 30.5218 102.822 30.6264 102.901 30.7612C102.979 30.896 103.011 31.0533 102.99 31.2078C102.968 31.3624 102.896 31.5055 102.784 31.6143C102.672 31.723 102.527 31.7913 102.372 31.808Z" fill="#00610B"/>
<path d="M73.6332 19.6717C73.5115 19.6863 73.388 19.6694 73.2748 19.6224L66.7519 16.8717C66.582 16.7998 66.4476 16.6633 66.3783 16.4924C66.309 16.3214 66.3104 16.1299 66.3823 15.96C66.4542 15.7901 66.5906 15.6557 66.7616 15.5864C66.9326 15.517 67.1241 15.5185 67.294 15.5904L73.7989 18.3366C73.9439 18.3944 74.0653 18.499 74.1439 18.6338C74.2225 18.7686 74.2537 18.9258 74.2325 19.0804C74.2114 19.235 74.1392 19.3781 74.0273 19.4869C73.9154 19.5956 73.7704 19.6638 73.6153 19.6806L73.6332 19.6717Z" fill="#00610B"/>
<path d="M95.5852 19.9628C95.4079 20.0065 95.2205 19.9786 95.0637 19.8851C94.9068 19.7916 94.7931 19.64 94.7471 19.4633C94.7012 19.2866 94.7267 19.0988 94.8182 18.9408C94.9096 18.7827 95.0597 18.6671 95.2358 18.6188L102.144 15.8323C102.229 15.7979 102.319 15.7805 102.411 15.7811C102.502 15.7817 102.593 15.8003 102.677 15.8359C102.761 15.8715 102.838 15.9233 102.902 15.9884C102.966 16.0535 103.017 16.1306 103.051 16.2153C103.086 16.3 103.103 16.3907 103.102 16.4821C103.102 16.5736 103.083 16.664 103.048 16.7482C103.012 16.8325 102.96 16.9089 102.895 16.9731C102.83 17.0373 102.753 17.0881 102.668 17.1225L95.7779 19.918C95.7164 19.9431 95.6514 19.9582 95.5852 19.9628Z" fill="#00610B"/>
<path d="M67.0251 31.5616C66.8558 31.5838 66.6842 31.5432 66.5427 31.4476C66.4013 31.3519 66.2997 31.2078 66.2573 31.0424C66.2148 30.877 66.2344 30.7018 66.3123 30.5498C66.3902 30.3978 66.5211 30.2797 66.6801 30.2176L73.1582 27.5878C73.2429 27.5534 73.3336 27.536 73.425 27.5366C73.5165 27.5373 73.6069 27.5559 73.6912 27.5915C73.7754 27.627 73.8518 27.6788 73.916 27.7439C73.9802 27.809 74.031 27.8861 74.0654 27.9709C74.0998 28.0556 74.1172 28.1462 74.1166 28.2377C74.116 28.3291 74.0974 28.4196 74.0618 28.5038C74.0262 28.588 73.9744 28.6644 73.9093 28.7287C73.8442 28.7929 73.7671 28.8436 73.6824 28.8781L67.1998 31.5123C67.1443 31.5371 67.0854 31.5537 67.0251 31.5616Z" fill="#00610B"/>
<path d="M89.3266 13.5296C89.2049 13.5462 89.081 13.5292 88.9682 13.4803C88.8016 13.4091 88.6697 13.2752 88.6009 13.1076C88.5322 12.9399 88.5322 12.752 88.6009 12.5843L91.4681 5.79711C91.4925 5.70031 91.5375 5.6099 91.6 5.53207C91.6626 5.45424 91.7412 5.39081 91.8304 5.3461C91.9197 5.30139 92.0176 5.27646 92.1173 5.273C92.2171 5.26954 92.3165 5.28764 92.4086 5.32607C92.5008 5.36449 92.5835 5.42233 92.6513 5.49565C92.7191 5.56897 92.7702 5.65604 92.8013 5.75092C92.8324 5.8458 92.8426 5.94627 92.8313 6.04547C92.82 6.14467 92.7875 6.24027 92.7359 6.32575L89.8687 13.113C89.8227 13.2238 89.7485 13.3206 89.6533 13.3937C89.5582 13.4668 89.4456 13.5137 89.3266 13.5296Z" fill="#00610B"/>
<path d="M77.3069 41.991C77.1848 42.0045 77.0612 41.986 76.9485 41.9372C76.7818 41.866 76.6496 41.7323 76.5801 41.5649C76.5107 41.3975 76.5094 41.2096 76.5766 41.0412L79.3273 34.496C79.4061 34.336 79.543 34.2122 79.71 34.1499C79.877 34.0876 80.0616 34.0915 80.2258 34.1607C80.3901 34.23 80.5217 34.3594 80.5937 34.5225C80.6657 34.6856 80.6726 34.87 80.6131 35.038L77.8624 41.552C77.8165 41.6675 77.741 41.7689 77.6435 41.8459C77.5459 41.923 77.4299 41.973 77.3069 41.991Z" fill="#00610B"/>
<path d="M92.8344 20.393C91.905 18.2194 90.1569 16.4993 87.9685 15.605C85.7802 14.7107 83.3277 14.7142 81.142 15.6148C78.9562 16.5154 77.2131 18.2405 76.2899 20.4168C75.3667 22.5931 75.3377 25.0454 76.2092 27.2429C77.58 30.5715 81.1372 31.7229 83.9192 33.6806C84.7749 34.2854 85.9756 37.3632 85.9756 37.3632L93.0271 34.4602C93.0271 34.4602 91.7144 31.4272 91.8936 30.3968C92.485 27.0727 94.2053 23.744 92.8344 20.393Z" fill="#00610B"/>
<path opacity="0.5" d="M92.8344 20.393C91.905 18.2194 90.1569 16.4993 87.9685 15.605C85.7802 14.7107 83.3277 14.7142 81.142 15.6148C78.9562 16.5154 77.2131 18.2405 76.2899 20.4168C75.3667 22.5931 75.3377 25.0454 76.2092 27.2429C77.58 30.5715 81.1372 31.7229 83.9192 33.6806C84.7749 34.2854 85.9756 37.3632 85.9756 37.3632L93.0271 34.4602C93.0271 34.4602 91.7144 31.4272 91.8936 30.3968C92.485 27.0727 94.2053 23.744 92.8344 20.393Z" fill="white"/>
<path d="M92.0325 37.7843L89.022 39.0253C88.4854 39.2446 87.8838 39.2424 87.3489 39.019C86.814 38.7956 86.3895 38.3694 86.1682 37.8336L93.2197 34.944C93.4364 35.4783 93.4332 36.0766 93.2108 36.6086C92.9885 37.1405 92.565 37.5631 92.0325 37.7843Z" fill="#263238"/>
<path d="M91.3919 40.5261C90.9544 40.7028 90.4649 40.6998 90.0296 40.5178C89.5943 40.3358 89.2483 39.9894 89.0668 39.5539L92.3641 38.2099C92.538 38.6463 92.5335 39.1336 92.3517 39.5668C92.1699 40 91.8252 40.3445 91.3919 40.5261Z" fill="#263238"/>
<path opacity="0.5" d="M91.3919 40.5261C90.9544 40.7028 90.4649 40.6998 90.0296 40.5178C89.5943 40.3358 89.2483 39.9894 89.0668 39.5539L92.3641 38.2099C92.538 38.6463 92.5335 39.1336 92.3517 39.5668C92.1699 40 91.8252 40.3445 91.3919 40.5261Z" fill="white"/>
<g opacity="0.7">
<path d="M92.0325 37.7843L89.022 39.0253C88.4854 39.2446 87.8838 39.2424 87.3489 39.019C86.814 38.7956 86.3895 38.3694 86.1682 37.8336L93.2197 34.944C93.4364 35.4783 93.4332 36.0766 93.2108 36.6086C92.9885 37.1405 92.565 37.5631 92.0325 37.7843Z" fill="white"/>
</g>
<path opacity="0.3" d="M91.2215 19.264C93.3495 24.5056 92.4804 31.7811 88.4305 33.4297C84.3806 35.0784 78.3953 29.7606 76.554 25.2179C75.4161 22.4224 77.7815 18.8205 81.8315 17.1539C85.8814 15.4873 90.0881 16.4595 91.2215 19.264Z" fill="white"/>
<path opacity="0.4" d="M90.7109 25.4105C91.0907 26.3448 91.1849 27.3707 90.9815 28.3584C90.7781 29.3462 90.2864 30.2515 89.5685 30.9598C88.8505 31.668 87.9387 32.1474 86.9482 32.3374C85.9578 32.5273 84.9332 32.4192 84.0042 32.0268C83.0752 31.6344 82.2834 30.9753 81.7291 30.1328C81.1747 29.2903 80.8827 28.3024 80.8899 27.2939C80.8971 26.2854 81.2033 25.3018 81.7696 24.4673C82.336 23.6329 83.1371 22.9851 84.0716 22.606C84.6916 22.3539 85.3553 22.2264 86.0247 22.2309C86.694 22.2354 87.3559 22.3718 87.9725 22.6322C88.5891 22.8927 89.1484 23.2721 89.6182 23.7488C90.0881 24.2255 90.4594 24.7902 90.7109 25.4105Z" fill="white"/>
<path opacity="0.4" d="M89.7566 27.1891C90.5003 29.0214 89.2414 30.1818 87.4091 30.9254C85.5768 31.6691 83.8654 31.7139 83.1217 29.8816C82.3781 28.0493 83.6459 26.9158 85.4782 26.1722C87.3105 25.4285 89.0085 25.3568 89.7566 27.1891Z" fill="white"/>
<path d="M84.2238 27.8358L83.8055 28.041L87.9805 36.5518L88.3988 36.3466L84.2238 27.8358Z" fill="#00610B"/>
<path d="M88.0588 26.3122L87.6158 26.4567L90.5562 35.4689L90.9992 35.3243L88.0588 26.3122Z" fill="#00610B"/>
<path d="M87.3599 30.6656L84.7346 29.5546L84.9138 29.129L87.1135 30.0563L88.0274 27.897L88.453 28.0762L87.3599 30.6656Z" fill="#00610B"/>
<path d="M87.3599 55.0726C87.184 55.0726 87.0154 55.0028 86.891 54.8784C86.7667 54.7541 86.6968 54.5855 86.6968 54.4096V50.2925C86.6968 50.1143 86.7676 49.9433 86.8937 49.8173C87.0197 49.6913 87.1906 49.6205 87.3688 49.6205C87.5471 49.6205 87.718 49.6913 87.844 49.8173C87.97 49.9433 88.0408 50.1143 88.0408 50.2925V54.4096C88.0403 54.498 88.0221 54.5855 87.9875 54.6668C87.9528 54.7482 87.9024 54.8218 87.839 54.8835C87.7756 54.9452 87.7007 54.9937 87.6184 55.0262C87.5362 55.0586 87.4483 55.0744 87.3599 55.0726Z" fill="#00610B"/>
<path d="M89.4251 53.0163H85.308C85.1298 53.0163 84.9588 52.9455 84.8328 52.8195C84.7068 52.6935 84.636 52.5225 84.636 52.3443C84.636 52.1661 84.7068 51.9952 84.8328 51.8691C84.9588 51.7431 85.1298 51.6723 85.308 51.6723H89.4251C89.6033 51.6723 89.7743 51.7431 89.9003 51.8691C90.0263 51.9952 90.0971 52.1661 90.0971 52.3443C90.0971 52.5225 90.0263 52.6935 89.9003 52.8195C89.7743 52.9455 89.6033 53.0163 89.4251 53.0163Z" fill="#00610B"/>
<g opacity="0.5">
<path d="M87.3598 55.0726C87.184 55.0726 87.0153 55.0028 86.891 54.8784C86.7666 54.7541 86.6968 54.5855 86.6968 54.4096V50.2925C86.6968 50.1143 86.7676 49.9433 86.8936 49.8173C87.0196 49.6913 87.1906 49.6205 87.3688 49.6205C87.547 49.6205 87.7179 49.6913 87.844 49.8173C87.97 49.9433 88.0408 50.1143 88.0408 50.2925V54.4096C88.0402 54.498 88.0221 54.5855 87.9874 54.6668C87.9528 54.7482 87.9023 54.8218 87.8389 54.8835C87.7756 54.9452 87.7006 54.9937 87.6184 55.0262C87.5361 55.0586 87.4482 55.0744 87.3598 55.0726Z" fill="white"/>
<path d="M89.425 53.0163H85.3079C85.1297 53.0163 84.9588 52.9455 84.8328 52.8195C84.7067 52.6935 84.6359 52.5225 84.6359 52.3443C84.6359 52.1661 84.7067 51.9952 84.8328 51.8691C84.9588 51.7431 85.1297 51.6723 85.3079 51.6723H89.425C89.6033 51.6723 89.7742 51.7431 89.9002 51.8691C90.0262 51.9952 90.097 52.1661 90.097 52.3443C90.097 52.5225 90.0262 52.6935 89.9002 52.8195C89.7742 52.9455 89.6033 53.0163 89.425 53.0163Z" fill="white"/>
</g>
<path d="M112.744 44.8358C112.468 44.8358 112.204 44.7263 112.009 44.5314C111.814 44.3365 111.704 44.0721 111.704 43.7964V37.3811C111.722 37.1178 111.838 36.8709 112.031 36.6906C112.224 36.5103 112.478 36.4099 112.741 36.4099C113.005 36.4099 113.259 36.5103 113.452 36.6906C113.644 36.8709 113.761 37.1178 113.779 37.3811V43.7964C113.779 43.9327 113.753 44.0678 113.701 44.1938C113.649 44.3199 113.573 44.4345 113.477 44.5311C113.381 44.6277 113.267 44.7043 113.141 44.7566C113.015 44.8089 112.88 44.8358 112.744 44.8358Z" fill="#00610B"/>
<path d="M115.951 41.6282H109.536C109.394 41.6375 109.252 41.6176 109.118 41.5697C108.984 41.5218 108.861 41.447 108.757 41.3497C108.654 41.2525 108.571 41.135 108.514 41.0045C108.458 40.874 108.428 40.7333 108.428 40.5911C108.428 40.4488 108.458 40.3081 108.514 40.1776C108.571 40.0471 108.654 39.9296 108.757 39.8324C108.861 39.7352 108.984 39.6603 109.118 39.6124C109.252 39.5645 109.394 39.5446 109.536 39.5539H115.951C116.215 39.5713 116.462 39.688 116.642 39.8806C116.822 40.0732 116.923 40.3272 116.923 40.5911C116.923 40.8549 116.822 41.1089 116.642 41.3015C116.462 41.4941 116.215 41.6109 115.951 41.6282Z" fill="#00610B"/>
<g opacity="0.5">
<path d="M112.744 44.8358C112.468 44.8358 112.204 44.7263 112.009 44.5314C111.814 44.3365 111.704 44.0721 111.704 43.7964V37.3811C111.722 37.1178 111.838 36.8709 112.031 36.6906C112.224 36.5103 112.478 36.4099 112.741 36.4099C113.005 36.4099 113.259 36.5103 113.452 36.6906C113.644 36.8709 113.761 37.1178 113.779 37.3811V43.7964C113.779 43.9327 113.753 44.0678 113.701 44.1938C113.649 44.3199 113.573 44.4345 113.477 44.5311C113.381 44.6277 113.267 44.7043 113.141 44.7566C113.015 44.8089 112.88 44.8358 112.744 44.8358Z" fill="white"/>
<path d="M115.951 41.6282H109.536C109.394 41.6375 109.252 41.6176 109.118 41.5697C108.984 41.5218 108.861 41.447 108.757 41.3497C108.654 41.2525 108.571 41.135 108.514 41.0045C108.458 40.874 108.429 40.7333 108.429 40.5911C108.429 40.4488 108.458 40.3081 108.514 40.1776C108.571 40.0471 108.654 39.9296 108.757 39.8324C108.861 39.7352 108.984 39.6603 109.118 39.6124C109.252 39.5645 109.394 39.5446 109.536 39.5539H115.951C116.215 39.5713 116.462 39.688 116.642 39.8806C116.822 40.0732 116.923 40.3272 116.923 40.5911C116.923 40.8549 116.822 41.1089 116.642 41.3015C116.462 41.4941 116.215 41.6109 115.951 41.6282Z" fill="white"/>
</g>
</svg>
