<svg width="22" height="23" viewBox="0 0 22 23" fill="none" xmlns="http://www.w3.org/2000/svg">
<path d="M11 0C8.8244 0 6.69767 0.667633 4.88873 1.91847C3.07979 3.16931 1.66989 4.94718 0.837329 7.02725C0.00476612 9.10732 -0.21307 11.3962 0.211367 13.6044C0.635804 15.8126 1.68345 17.8409 3.22183 19.4329C4.7602 21.0249 6.72022 22.1091 8.854 22.5484C10.9878 22.9876 13.1995 22.7622 15.2095 21.9006C17.2195 21.039 18.9375 19.5799 20.1462 17.7079C21.3548 15.8359 22 13.635 22 11.3835C22 9.88863 21.7155 8.40836 21.1627 7.02725C20.6099 5.64613 19.7996 4.39122 18.7782 3.33416C17.7567 2.2771 16.5441 1.4386 15.2095 0.866521C13.8749 0.294444 12.4445 0 11 0ZM11 20.4904C9.25952 20.4904 7.55813 19.9563 6.11098 18.9556C4.66383 17.9549 3.53591 16.5326 2.86986 14.8686C2.20381 13.2045 2.02954 11.3734 2.36909 9.60689C2.70864 7.84034 3.54676 6.21765 4.77746 4.94404C6.00816 3.67043 7.57617 2.80308 9.2832 2.45169C10.9902 2.10031 12.7596 2.28065 14.3676 2.96993C15.9756 3.6592 17.35 4.82645 18.3169 6.32406C19.2839 7.82167 19.8 9.58238 19.8 11.3835C19.8 13.7988 18.8728 16.1152 17.2225 17.823C15.5722 19.5309 13.3339 20.4904 11 20.4904Z" fill="#29B06D"/>
<path d="M13.97 7.27405L9.81199 12.9658L8.01899 10.5639C7.83958 10.3254 7.57595 10.1704 7.28611 10.133C6.99628 10.0957 6.70397 10.179 6.4735 10.3647C6.24302 10.5504 6.09326 10.8232 6.05716 11.1231C6.02106 11.4231 6.10158 11.7256 6.281 11.9641L8.95399 15.5044C9.05758 15.64 9.18968 15.7495 9.34025 15.8244C9.49082 15.8994 9.65591 15.9379 9.82299 15.9369C9.99098 15.9365 10.1566 15.8963 10.3073 15.8193C10.4579 15.7424 10.5895 15.6307 10.692 15.493L15.719 8.66284C15.8969 8.42131 15.9749 8.11652 15.9357 7.81551C15.8965 7.5145 15.7434 7.24193 15.51 7.05776C15.2766 6.8736 14.9821 6.79292 14.6912 6.83348C14.4003 6.87405 14.1369 7.03252 13.959 7.27405H13.97Z" fill="#29B06D"/>
</svg>
