<svg width="401" height="298" viewBox="0 0 401 298" fill="none" xmlns="http://www.w3.org/2000/svg">
<path d="M360.394 275.154H333.863V275.354H360.394V275.154Z" fill="#EBEBEB"/>
<path d="M265.325 277.333H258.364V277.533H265.325V277.333Z" fill="#EBEBEB"/>
<path d="M333.062 267.72H317.69V267.92H333.062V267.72Z" fill="#EBEBEB"/>
<path d="M76.6207 269.066H42.0232V269.266H76.6207V269.066Z" fill="#EBEBEB"/>
<path d="M88.8287 269.066H83.7581V269.266H88.8287V269.066Z" fill="#EBEBEB"/>
<path d="M180.357 272.446H105.314V272.647H180.357V272.446Z" fill="#EBEBEB"/>
<path d="M190.971 226.538H36.2876C35.0745 226.538 33.9111 226.056 33.0533 225.198C32.1955 224.34 31.7136 223.177 31.7136 221.964V4.53396C31.7242 3.32781 32.2107 2.17466 33.0674 1.32551C33.9241 0.476357 35.0814 -4.62416e-05 36.2876 3.36647e-09H190.971C191.572 3.36647e-09 192.167 0.118309 192.722 0.348175C193.276 0.578041 193.781 0.914962 194.205 1.3397C194.63 1.76444 194.967 2.26867 195.197 2.82362C195.427 3.37856 195.545 3.97335 195.545 4.57402V221.964C195.545 222.565 195.427 223.159 195.197 223.714C194.967 224.269 194.63 224.774 194.205 225.198C193.781 225.623 193.276 225.96 192.722 226.19C192.167 226.42 191.572 226.538 190.971 226.538ZM36.2876 0.160211C35.1283 0.162329 34.017 0.623813 33.1973 1.44359C32.3775 2.26337 31.916 3.37462 31.9139 4.53396V221.964C31.916 223.123 32.3775 224.235 33.1973 225.054C34.017 225.874 35.1283 226.336 36.2876 226.338H190.971C192.13 226.336 193.242 225.874 194.061 225.054C194.881 224.235 195.343 223.123 195.345 221.964V4.53396C195.343 3.37462 194.881 2.26337 194.061 1.44359C193.242 0.623813 192.13 0.162329 190.971 0.160211H36.2876Z" fill="#EBEBEB"/>
<path d="M364.239 226.538H209.556C208.343 226.538 207.179 226.056 206.321 225.198C205.464 224.34 204.982 223.177 204.982 221.964V4.53396C204.992 3.32781 205.479 2.17466 206.335 1.32551C207.192 0.476357 208.35 -4.62416e-05 209.556 3.36647e-09H364.239C365.452 3.36648e-09 366.616 0.481904 367.473 1.3397C368.331 2.19749 368.813 3.36091 368.813 4.57402V221.964C368.813 223.177 368.331 224.34 367.473 225.198C366.616 226.056 365.452 226.538 364.239 226.538ZM209.556 0.160211C208.396 0.162329 207.285 0.623813 206.465 1.44359C205.646 2.26337 205.184 3.37462 205.182 4.53396V221.964C205.184 223.123 205.646 224.235 206.465 225.054C207.285 225.874 208.396 226.336 209.556 226.338H364.239C365.399 226.336 366.51 225.874 367.33 225.054C368.149 224.235 368.611 223.123 368.613 221.964V4.53396C368.611 3.37462 368.149 2.26337 367.33 1.44359C366.51 0.623813 365.399 0.162329 364.239 0.160211H209.556Z" fill="#EBEBEB"/>
<path d="M400.527 262.265H0V262.465H400.527V262.265Z" fill="#EBEBEB"/>
<path d="M74.2979 180.389C75.2143 184.762 77.8009 188.605 81.5073 191.099C85.2049 193.557 89.4724 195.021 93.8996 195.353C98.1853 195.754 102.791 195.265 106.212 192.654C109.632 190.042 111.307 184.859 108.967 181.247C105.659 176.136 98.5538 175.703 92.4818 176.144C86.4098 176.584 80.0254 178.355 74.2979 180.389Z" fill="#E0E0E0"/>
<path d="M128.793 148.66C132.277 151.457 134.53 155.504 135.074 159.938C135.59 164.35 134.959 168.82 133.239 172.915C131.637 176.921 129.13 180.798 125.229 182.664C121.328 184.531 115.969 183.674 113.814 179.949C110.762 174.686 113.605 168.149 116.738 162.934C119.87 157.719 124.38 152.841 128.793 148.66Z" fill="#E0E0E0"/>
<path d="M62.386 153.001C62.4072 157.269 64.0911 161.361 67.0802 164.408C70.0715 167.412 73.7842 169.596 77.8623 170.753C81.7955 171.954 86.2013 172.355 89.8782 170.584C93.555 168.814 96.1344 164.264 94.6845 160.443C92.5617 155.028 85.985 153.234 80.2255 152.505C74.4659 151.776 68.1376 152.2 62.386 153.001Z" fill="#E0E0E0"/>
<path d="M119.445 133.712C122.169 136.998 123.505 141.216 123.17 145.471C122.803 149.694 121.358 153.751 118.972 157.255C116.721 160.699 113.613 163.848 109.632 164.857C105.651 165.866 100.772 164.056 99.4667 160.131C97.6163 154.619 101.525 149.044 105.459 144.766C109.392 140.489 114.551 136.78 119.445 133.712Z" fill="#E0E0E0"/>
<path d="M54.728 125.509C54.4075 129.568 55.6836 133.592 58.2847 136.724C60.8837 139.816 64.2358 142.186 68.0175 143.605C71.6542 145.055 75.8117 145.8 79.4645 144.406C83.1173 143.012 85.8729 138.903 84.7915 135.146C83.1894 129.843 77.1014 127.648 71.6943 126.47C66.2872 125.293 60.2552 125.205 54.728 125.509Z" fill="#E0E0E0"/>
<path d="M110.441 111.747C112.768 115.083 113.7 119.197 113.037 123.21C112.363 127.188 110.677 130.926 108.142 134.064C105.739 137.156 102.535 139.904 98.6738 140.545C94.8128 141.186 90.3269 139.047 89.3976 135.25C88.0759 129.875 92.2334 124.884 96.3027 121.143C100.584 117.406 105.337 114.246 110.441 111.747Z" fill="#E0E0E0"/>
<path d="M53.19 99.611C52.3996 103.393 53.1183 107.334 55.1926 110.593C57.2751 113.822 60.152 116.462 63.5476 118.26C66.7999 120.062 70.629 121.263 74.2417 120.382C77.8545 119.501 80.9786 115.969 80.3778 112.292C79.5206 107.101 74.0334 104.281 69.0749 102.535C63.9307 100.869 58.5901 99.8863 53.19 99.611Z" fill="#E0E0E0"/>
<path d="M107.341 93.3228C109.13 96.7488 109.515 100.736 108.415 104.441C107.314 108.11 105.29 111.434 102.535 114.094C99.8913 116.722 96.5429 118.9 92.826 119.061C89.1091 119.221 85.1359 116.657 84.7114 112.949C84.1186 107.726 88.6365 103.528 92.9222 100.484C97.3963 97.4797 102.244 95.0722 107.341 93.3228Z" fill="#E0E0E0"/>
<path d="M57.3716 71.0214C56.0921 74.4539 56.2013 78.2501 57.676 81.6033C59.1634 84.9272 61.4839 87.8106 64.4128 89.9744C67.2085 92.1292 70.621 93.8034 74.1376 93.491C77.6542 93.1786 81.0747 90.2868 81.0347 86.7862C80.9786 81.7956 76.2284 78.3831 71.8306 76.028C67.2498 73.736 62.3889 72.0528 57.3716 71.0214Z" fill="#E0E0E0"/>
<path d="M109.047 72.8959C110.239 76.3612 110.032 80.1546 108.471 83.4698C106.895 86.753 104.5 89.5751 101.518 91.6646C98.6738 93.7473 95.2213 95.3334 91.7126 94.9329C88.204 94.5323 84.8556 91.5845 84.9838 88.0598C85.168 83.0693 90.0064 79.7769 94.4603 77.542C99.0984 75.3617 104.003 73.7996 109.047 72.8959Z" fill="#E0E0E0"/>
<path d="M65.8306 44.859C64.1948 47.9107 63.8154 51.4807 64.7733 54.8081C65.7431 58.1099 67.5474 61.106 70.0121 63.5075C72.3512 65.9107 75.3311 67.8893 78.6635 68.0415C81.9959 68.1937 85.5686 65.9588 85.9852 62.6504C86.5619 57.9723 82.5566 54.1673 78.7757 51.4357C74.7693 48.6826 70.4166 46.4713 65.8306 44.859Z" fill="#E0E0E0"/>
<path d="M113.99 53.214C114.662 56.6125 113.98 60.139 112.091 63.0429C110.2 65.9178 107.598 68.2551 104.538 69.8278C101.606 71.4299 98.1291 72.4633 94.9249 71.6382C91.7206 70.8131 88.925 67.633 89.5017 64.3326C90.3028 59.6945 95.2613 57.2273 99.7152 55.6973C104.344 54.2482 109.143 53.4133 113.99 53.214Z" fill="#E0E0E0"/>
<path d="M96.7913 32.3225C96.5943 31.993 96.2764 31.7534 95.9054 31.6547C95.5344 31.5559 95.1395 31.6059 94.8047 31.7938C91.3598 33.5659 88.5208 36.324 86.65 39.7163C85.3459 42.0674 84.9551 44.817 85.5525 47.4384C86.8422 52.7734 93.9235 54.4637 97.3921 50.2021C100.068 46.9097 100.468 42.3517 99.8754 38.1862C99.5469 35.9273 97.9609 34.2611 96.7913 32.3225Z" fill="#E0E0E0"/>
<path d="M171.185 211.694C152.529 209.876 134.577 201.745 119.181 188.248C104.463 175.231 93.4799 158.527 87.3629 139.856C77.9585 110.601 80.0492 76.6208 93.2586 44.1781L94.7406 44.7869C81.7074 76.8531 79.6006 110.441 88.9169 139.383C101.165 177.473 135.066 206.576 171.361 210.14L171.185 211.694Z" fill="#E0E0E0"/>
<path d="M317.898 180.389C316.983 184.763 314.396 188.606 310.689 191.099C306.988 193.556 302.718 195.02 298.288 195.353C294.011 195.754 289.397 195.265 285.976 192.654C282.556 190.042 280.881 184.859 283.22 181.247C286.529 176.136 293.634 175.703 299.714 176.144C305.794 176.584 312.171 178.355 317.898 180.389Z" fill="#E0E0E0"/>
<path d="M263.403 148.66C259.925 151.46 257.678 155.506 257.138 159.938C256.626 164.35 257.257 168.819 258.973 172.915C260.575 176.921 263.082 180.798 266.983 182.664C270.884 184.531 276.243 183.674 278.398 179.949C281.45 174.686 278.615 168.149 275.474 162.934C272.334 157.719 267.816 152.841 263.403 148.66Z" fill="#E0E0E0"/>
<path d="M329.81 153.001C329.789 157.269 328.105 161.361 325.116 164.408C322.125 167.413 318.412 169.598 314.333 170.753C310.4 171.954 305.994 172.355 302.318 170.584C298.641 168.814 296.061 164.264 297.559 160.443C299.674 155.028 306.251 153.234 311.978 152.505C317.706 151.776 324.058 152.2 329.81 153.001Z" fill="#E0E0E0"/>
<path d="M272.751 133.712C270.026 136.997 268.692 141.217 269.034 145.471C269.393 149.696 270.839 153.755 273.231 157.255C275.474 160.699 278.582 163.848 282.564 164.857C286.545 165.866 291.423 164.056 292.729 160.131C294.579 154.619 290.67 149.044 286.737 144.766C282.804 140.489 277.677 136.78 272.751 133.712Z" fill="#E0E0E0"/>
<path d="M337.468 125.509C337.789 129.568 336.512 133.592 333.911 136.724C331.312 139.816 327.96 142.186 324.179 143.605C320.542 145.055 316.392 145.8 312.731 144.406C309.071 143.012 306.323 138.903 307.413 135.146C309.015 129.843 315.095 127.648 320.502 126.47C325.909 125.293 331.941 125.205 337.468 125.509Z" fill="#E0E0E0"/>
<path d="M281.763 111.747C279.43 115.081 278.495 119.196 279.159 123.21C279.84 127.19 281.534 130.928 284.078 134.064C286.481 137.156 289.685 139.904 293.554 140.545C297.423 141.186 301.893 139.047 302.83 135.25C304.144 129.875 299.995 124.884 295.917 121.143C291.631 117.406 286.872 114.247 281.763 111.747Z" fill="#E0E0E0"/>
<path d="M339.006 99.611C339.796 103.393 339.078 107.334 337.003 110.593C334.921 113.822 332.044 116.462 328.648 118.26C325.396 120.062 321.575 121.263 317.954 120.382C314.334 119.501 311.217 115.969 311.818 112.292C312.675 107.101 318.163 104.281 323.129 102.535C328.27 100.869 333.609 99.8859 339.006 99.611Z" fill="#E0E0E0"/>
<path d="M284.823 93.3228C283.034 96.7488 282.649 100.736 283.749 104.441C284.874 108.116 286.923 111.439 289.701 114.094C292.337 116.722 295.685 118.9 299.402 119.061C303.119 119.221 307.092 116.657 307.516 112.949C308.109 107.726 303.599 103.528 299.306 100.484C294.811 97.4747 289.942 95.0671 284.823 93.3228Z" fill="#E0E0E0"/>
<path d="M334.84 71.0214C336.117 74.455 336.005 78.2511 334.528 81.6033C333.041 84.9272 330.72 87.8106 327.791 89.9744C324.995 92.1292 321.583 93.8034 318.074 93.491C314.566 93.1786 311.129 90.2868 311.169 86.7862C311.225 81.7956 315.976 78.3831 320.373 76.028C324.957 73.7353 329.82 72.0522 334.84 71.0214Z" fill="#E0E0E0"/>
<path d="M283.148 72.8959C281.957 76.3612 282.164 80.1546 283.725 83.4698C285.301 86.753 287.696 89.5751 290.678 91.6646C293.522 93.7473 296.975 95.3334 300.483 94.9329C303.992 94.5323 307.34 91.5845 307.212 88.0598C307.028 83.0693 302.198 79.7769 297.736 77.542C293.097 75.3617 288.193 73.7996 283.148 72.8959Z" fill="#E0E0E0"/>
<path d="M326.365 44.859C328.001 47.9107 328.381 51.4807 327.423 54.8081C326.457 58.1118 324.652 61.109 322.184 63.5075C319.845 65.9107 316.865 67.8893 313.532 68.0415C310.2 68.1937 306.627 65.9588 306.211 62.6504C305.634 57.9723 309.639 54.1673 313.46 51.4357C317.454 48.6852 321.793 46.4739 326.365 44.859Z" fill="#E0E0E0"/>
<path d="M278.206 53.214C277.534 56.6125 278.215 60.139 280.104 63.0429C281.996 65.9178 284.598 68.2551 287.658 69.8278C290.59 71.4299 294.027 72.4633 297.271 71.6382C300.515 70.8131 303.271 67.633 302.694 64.3326C301.893 59.6945 296.943 57.2273 292.481 55.6973C287.852 54.2482 283.052 53.4133 278.206 53.214Z" fill="#E0E0E0"/>
<path d="M295.405 32.3225C295.603 31.9924 295.923 31.7527 296.295 31.654C296.667 31.5553 297.063 31.6054 297.399 31.7938C300.84 33.5683 303.676 36.326 305.546 39.7162C306.85 42.0674 307.241 44.817 306.643 47.4384C305.354 52.7734 298.272 54.4636 294.804 50.202C292.128 46.9097 291.728 42.3517 292.329 38.1862C292.649 35.9272 294.235 34.2611 295.405 32.3225Z" fill="#E0E0E0"/>
<path d="M221.011 211.694L220.859 210.092C257.138 206.536 291.063 177.433 303.303 139.383C312.595 110.481 310.513 76.9012 297.455 44.803L298.945 44.1942C312.147 76.6368 314.237 110.618 304.833 139.872C298.718 158.538 287.738 175.237 273.023 188.248C257.651 201.745 239.667 209.876 221.011 211.694Z" fill="#E0E0E0"/>
<path d="M172.523 194.424L167.717 219.681H173.724L182.144 199.534C182.144 199.534 181.543 193.222 172.523 194.424Z" fill="#E0E0E0"/>
<path d="M225.096 194.424L229.902 219.681H223.894L215.483 199.534C215.483 199.534 216.092 193.222 225.096 194.424Z" fill="#E0E0E0"/>
<path d="M242.63 173.337C248.35 149.104 233.342 124.823 209.109 119.103C184.876 113.384 160.594 128.392 154.875 152.625C149.155 176.858 164.164 201.139 188.397 206.859C212.63 212.578 236.911 197.57 242.63 173.337Z" fill="#EBEBEB"/>
<path d="M199.334 197.828C218.575 197.828 234.172 182.231 234.172 162.99C234.172 143.75 218.575 128.153 199.334 128.153C180.094 128.153 164.496 143.75 164.496 162.99C164.496 182.231 180.094 197.828 199.334 197.828Z" fill="#E5F9EA"/>
<path d="M225.993 169.41C229.544 154.366 220.226 139.291 205.182 135.741C190.138 132.19 175.063 141.507 171.512 156.552C167.962 171.596 177.279 186.67 192.323 190.221C207.368 193.772 222.442 184.455 225.993 169.41Z" fill="#E6E6E6"/>
<path d="M198.757 184.619C210.702 184.619 220.386 174.935 220.386 162.99C220.386 151.045 210.702 141.362 198.757 141.362C186.812 141.362 177.129 151.045 177.129 162.99C177.129 174.935 186.812 184.619 198.757 184.619Z" fill="#E5F9EA"/>
<path d="M198.757 169.239C202.208 169.239 205.006 166.441 205.006 162.99C205.006 159.54 202.208 156.742 198.757 156.742C195.307 156.742 192.509 159.54 192.509 162.99C192.509 166.441 195.307 169.239 198.757 169.239Z" fill="#E0E0E0"/>
<path d="M254.166 173.797L244.794 177.794L228.42 172.843L228.412 172.835L234.917 167.821L254.166 173.797Z" fill="#E6E6E6"/>
<path opacity="0.1" d="M254.166 173.797L244.794 177.794L228.42 172.843L228.412 172.835L234.917 167.821L254.166 173.797Z" fill="black"/>
<path d="M198.157 163.111C198.186 163.016 198.234 162.928 198.297 162.851C198.36 162.775 198.438 162.712 198.526 162.666C198.614 162.62 198.71 162.591 198.809 162.582C198.908 162.573 199.007 162.584 199.102 162.614L245.01 177.073L244.578 178.515L198.661 164.048C198.477 163.981 198.324 163.848 198.231 163.675C198.138 163.502 198.111 163.302 198.157 163.111Z" fill="#E0E0E0"/>
<g opacity="0.1">
<path d="M198.157 163.111C198.186 163.016 198.234 162.928 198.297 162.851C198.36 162.775 198.438 162.712 198.526 162.666C198.614 162.62 198.71 162.591 198.809 162.582C198.908 162.573 199.007 162.584 199.102 162.614L245.01 177.073L244.578 178.515L198.661 164.048C198.477 163.981 198.324 163.848 198.231 163.675C198.138 163.502 198.111 163.302 198.157 163.111Z" fill="black"/>
</g>
<path d="M248.19 186.213L232.025 181.295L228.42 172.843L244.794 177.794L248.19 186.213Z" fill="#E6E6E6"/>
<g opacity="0.1">
<path d="M248.19 186.213L232.025 181.295L228.42 172.843L244.794 177.794L248.19 186.213Z" fill="black"/>
</g>
<path d="M140.689 105.355C141.095 105.931 141.702 106.333 142.391 106.481C143.08 106.63 143.799 106.514 144.406 106.156L164.328 94.3241C164.763 94.0673 165.258 93.9318 165.762 93.9316L212.744 94.0357L235.238 79.1441L237.336 81.9879L242.535 70.8853L231.056 71.8145L232.378 74.49L212.231 88.8369L165.121 88.909C164.656 88.91 164.199 89.0285 163.792 89.2534L141.642 101.269C141.294 101.458 140.989 101.719 140.749 102.034C140.508 102.349 140.337 102.711 140.247 103.098C140.157 103.484 140.15 103.884 140.226 104.273C140.302 104.663 140.46 105.031 140.689 105.355Z" fill="#EBEBEB"/>
<path d="M250.682 58.7573H248.279C247.724 58.7642 247.193 58.98 246.79 59.3616C246.388 59.7432 246.144 60.2626 246.108 60.816L245.531 71.9346C245.513 72.2011 245.551 72.4684 245.642 72.7197C245.732 72.971 245.873 73.2008 246.057 73.3949C246.24 73.5889 246.462 73.743 246.708 73.8473C246.954 73.9517 247.219 74.0041 247.486 74.0013H249.889C250.445 73.9943 250.977 73.7774 251.38 73.3941C251.783 73.0108 252.025 72.4894 252.06 71.9346L252.644 60.816C252.661 60.5494 252.622 60.2824 252.531 60.0315C252.439 59.7806 252.297 59.5513 252.113 59.358C251.928 59.1647 251.706 59.0116 251.46 58.9082C251.214 58.8048 250.949 58.7535 250.682 58.7573Z" fill="#EBEBEB"/>
<path d="M269.723 58.7573H262.665L264.268 55.0484C264.435 54.6517 264.498 54.2188 264.452 53.7908L264.123 50.8669C264.062 50.2984 263.79 49.7733 263.362 49.3941C262.934 49.0149 262.38 48.8089 261.808 48.8162H259.005L258.764 53.3422L254.222 59.0697C253.769 59.6372 253.503 60.3313 253.461 61.0563L252.917 71.47C252.897 71.7975 252.945 72.1256 253.056 72.434C253.168 72.7424 253.342 73.0247 253.567 73.2633C253.793 73.502 254.064 73.692 254.366 73.8217C254.667 73.9514 254.992 74.018 255.32 74.0174H265.149C265.585 74.0129 266.016 73.9172 266.413 73.7365C266.81 73.5557 267.166 73.294 267.456 72.968L268.369 71.9507C268.754 71.5419 269.025 71.0391 269.154 70.4927L271.317 60.8801L269.723 58.7573Z" fill="#EBEBEB"/>
<path d="M200.263 298C286.042 298 355.58 293.94 355.58 288.932C355.58 283.924 286.042 279.864 200.263 279.864C114.484 279.864 44.947 283.924 44.947 288.932C44.947 293.94 114.484 298 200.263 298Z" fill="#F5F5F5"/>
<path d="M278.182 253.277H122.345V296.094H278.182V253.277Z" fill="#263238"/>
<path opacity="0.2" d="M278.182 253.277H122.345V296.102H278.182V253.277Z" fill="#E5F9EA"/>
<path d="M232.13 219.593H164.489V253.245H232.13V219.593Z" fill="#263238"/>
<path opacity="0.2" d="M232.13 219.593H164.489V253.245H232.13V219.593Z" fill="#E5F9EA"/>
<path d="M196.314 229.101L195.609 232.658H199.462L196.346 248.239H200.776L204.573 229.101H196.314Z" fill="#438B56"/>
<g opacity="0.2">
<path d="M196.987 229.101L196.274 232.658H200.103L196.987 248.239H200.744L204.573 229.101H196.987Z" fill="#E5F9EA"/>
</g>
<path d="M180.237 16.1412C180.173 16.1441 180.11 16.1303 180.053 16.1012L173.965 12.897C173.915 12.8745 173.87 12.8419 173.833 12.8013C173.796 12.7608 173.768 12.713 173.75 12.661C173.732 12.6091 173.725 12.554 173.73 12.4993C173.734 12.4445 173.75 12.3913 173.776 12.3429C173.801 12.2944 173.837 12.2518 173.88 12.2177C173.923 12.1836 173.973 12.1587 174.026 12.1446C174.079 12.1304 174.134 12.1273 174.188 12.1355C174.243 12.1437 174.295 12.1629 174.341 12.192L180.429 15.3963C180.476 15.4214 180.517 15.4555 180.55 15.4965C180.583 15.5375 180.608 15.5847 180.623 15.6353C180.637 15.6859 180.642 15.739 180.637 15.7914C180.631 15.8439 180.615 15.8947 180.589 15.941C180.555 16.0033 180.503 16.0548 180.441 16.0901C180.379 16.1254 180.308 16.1431 180.237 16.1412Z" fill="#438B56"/>
<path d="M184.306 18.3201C184.24 18.3222 184.174 18.3085 184.114 18.28L182.063 17.1906C182.016 17.1661 181.975 17.1326 181.941 17.0919C181.907 17.0511 181.881 17.0041 181.865 16.9534C181.85 16.9027 181.844 16.8494 181.85 16.7967C181.855 16.7439 181.87 16.6926 181.895 16.6459C181.946 16.5524 182.032 16.4825 182.133 16.4511C182.235 16.4196 182.345 16.4292 182.44 16.4777L184.491 17.5671C184.584 17.6181 184.654 17.7035 184.685 17.8053C184.717 17.907 184.707 18.017 184.659 18.1118C184.624 18.175 184.573 18.2277 184.511 18.2644C184.449 18.301 184.378 18.3203 184.306 18.3201Z" fill="#438B56"/>
<path d="M180.237 24.1757H164.504C164.398 24.1757 164.296 24.1336 164.221 24.0584C164.146 23.9833 164.104 23.8814 164.104 23.7752C164.104 23.669 164.146 23.5671 164.221 23.492C164.296 23.4169 164.398 23.3747 164.504 23.3747H180.237C180.343 23.3747 180.445 23.4169 180.52 23.492C180.595 23.5671 180.638 23.669 180.638 23.7752C180.638 23.8814 180.595 23.9833 180.52 24.0584C180.445 24.1336 180.343 24.1757 180.237 24.1757Z" fill="#438B56"/>
<path d="M161.164 42.3196C161.092 42.3207 161.021 42.3018 160.958 42.2651C160.896 42.2283 160.845 42.1751 160.811 42.1114C160.786 42.0646 160.771 42.0134 160.766 41.9606C160.761 41.9078 160.766 41.8545 160.782 41.8038C160.797 41.7532 160.823 41.7061 160.857 41.6654C160.891 41.6247 160.933 41.5911 160.98 41.5666L168.766 37.4332C168.813 37.4081 168.864 37.3926 168.917 37.3875C168.97 37.3824 169.023 37.3878 169.073 37.4035C169.124 37.4191 169.171 37.4447 169.212 37.4786C169.253 37.5126 169.286 37.5544 169.311 37.6014C169.336 37.6476 169.351 37.6982 169.356 37.7504C169.361 37.8026 169.355 37.8552 169.34 37.9053C169.324 37.9553 169.299 38.0017 169.265 38.0417C169.231 38.0817 169.189 38.1145 169.142 38.1381L161.356 42.2716C161.297 42.3025 161.231 42.319 161.164 42.3196Z" fill="#438B56"/>
<path d="M171.081 37.1528C171.009 37.1539 170.938 37.135 170.875 37.0983C170.813 37.0615 170.762 37.0083 170.728 36.9446C170.679 36.8517 170.667 36.7431 170.695 36.6416C170.723 36.5401 170.79 36.4535 170.881 36.3998L174.125 34.5895C174.17 34.5627 174.221 34.5454 174.273 34.5385C174.326 34.5317 174.379 34.5355 174.43 34.5497C174.48 34.5639 174.528 34.5882 174.569 34.6212C174.61 34.6542 174.645 34.6952 174.67 34.7417C174.721 34.8341 174.735 34.9434 174.706 35.0455C174.678 35.1476 174.61 35.2342 174.517 35.2864L171.273 37.1048C171.214 37.1366 171.148 37.1532 171.081 37.1528Z" fill="#438B56"/>
<path d="M176.232 34.3171C176.16 34.3182 176.088 34.2993 176.026 34.2626C175.964 34.2258 175.913 34.1726 175.879 34.1088C175.854 34.0621 175.839 34.0108 175.834 33.9581C175.829 33.9053 175.834 33.852 175.85 33.8013C175.865 33.7506 175.891 33.7036 175.925 33.6629C175.959 33.6221 176.001 33.5886 176.048 33.5641L183.93 29.3826C183.976 29.3574 184.026 29.3416 184.078 29.336C184.13 29.3304 184.182 29.3352 184.232 29.3501C184.282 29.3651 184.328 29.3898 184.369 29.4229C184.409 29.4559 184.442 29.4967 184.467 29.5428C184.492 29.5891 184.508 29.6399 184.514 29.6923C184.519 29.7448 184.515 29.7979 184.5 29.8485C184.485 29.8991 184.46 29.9463 184.427 29.9873C184.394 30.0283 184.353 30.0624 184.306 30.0875L176.424 34.269C176.365 34.3 176.299 34.3165 176.232 34.3171Z" fill="#438B56"/>
<path d="M221.315 18.3201C221.243 18.3211 221.172 18.3023 221.11 18.2655C221.047 18.2288 220.997 18.1756 220.963 18.1118C220.938 18.0651 220.922 18.0138 220.917 17.961C220.912 17.9082 220.917 17.8549 220.933 17.8043C220.949 17.7536 220.974 17.7065 221.008 17.6658C221.042 17.6251 221.084 17.5915 221.131 17.5671L231.32 12.16C231.366 12.1351 231.417 12.1197 231.469 12.1146C231.521 12.1096 231.574 12.1151 231.624 12.1308C231.674 12.1465 231.72 12.172 231.76 12.2059C231.8 12.2398 231.833 12.2814 231.857 12.3282C231.882 12.3738 231.898 12.4241 231.904 12.4759C231.909 12.5277 231.904 12.5802 231.889 12.6301C231.875 12.6801 231.85 12.7266 231.817 12.7669C231.784 12.8072 231.743 12.8405 231.697 12.8649L221.507 18.28C221.447 18.3085 221.381 18.3222 221.315 18.3201Z" fill="#438B56"/>
<path d="M233.579 24.1757H225.424C225.318 24.1757 225.216 24.1336 225.141 24.0584C225.066 23.9833 225.024 23.8814 225.024 23.7752C225.024 23.669 225.066 23.5671 225.141 23.492C225.216 23.4169 225.318 23.3747 225.424 23.3747H233.579C233.685 23.3747 233.787 23.4169 233.862 23.492C233.937 23.5671 233.98 23.669 233.98 23.7752C233.98 23.8278 233.969 23.8799 233.949 23.9285C233.929 23.9771 233.9 24.0212 233.862 24.0584C233.825 24.0956 233.781 24.1251 233.732 24.1453C233.684 24.1654 233.632 24.1757 233.579 24.1757Z" fill="#438B56"/>
<path d="M238.281 24.1757H236.471C236.365 24.1757 236.263 24.1336 236.188 24.0584C236.113 23.9833 236.071 23.8814 236.071 23.7752C236.071 23.669 236.113 23.5671 236.188 23.492C236.263 23.4169 236.365 23.3747 236.471 23.3747H238.281C238.387 23.3767 238.488 23.4196 238.562 23.4943C238.637 23.5689 238.68 23.6696 238.682 23.7752C238.682 23.8814 238.64 23.9833 238.565 24.0584C238.49 24.1336 238.388 24.1757 238.281 24.1757Z" fill="#438B56"/>
<path d="M244.449 24.1757H241.117C241.011 24.1757 240.909 24.1336 240.834 24.0584C240.759 23.9833 240.717 23.8814 240.717 23.7752C240.717 23.669 240.759 23.5671 240.834 23.492C240.909 23.4169 241.011 23.3747 241.117 23.3747H244.433C244.54 23.3747 244.642 23.4169 244.717 23.492C244.792 23.5671 244.834 23.669 244.834 23.7752C244.834 23.8787 244.794 23.9782 244.722 24.0529C244.651 24.1276 244.553 24.1716 244.449 24.1757Z" fill="#438B56"/>
<path d="M244.449 42.3196C244.385 42.32 244.321 42.3035 244.265 42.2716L221.307 30.0875C221.213 30.0366 221.144 29.9511 221.112 29.8494C221.081 29.7476 221.09 29.6376 221.139 29.5428C221.164 29.4965 221.198 29.4555 221.239 29.4223C221.28 29.3892 221.327 29.3644 221.378 29.3495C221.428 29.3346 221.482 29.3299 221.534 29.3356C221.586 29.3413 221.637 29.3572 221.683 29.3826L244.642 41.5666C244.72 41.6091 244.782 41.6766 244.818 41.7584C244.854 41.8402 244.862 41.9316 244.84 42.0182C244.817 42.1047 244.767 42.1814 244.696 42.236C244.626 42.2907 244.539 42.3201 244.449 42.3196Z" fill="#438B56"/>
<path d="M266.19 230.535L264.556 247.542L268.81 248.19L270.66 232.474L266.19 230.535Z" fill="#DD8C6A"/>
<path d="M268.745 247.526C268.918 247.546 269.077 247.63 269.19 247.763C269.303 247.895 269.362 248.065 269.354 248.239C269.299 249.997 269.15 251.751 268.906 253.493C268.689 254.006 255.047 253.125 255.047 253.125C254.567 252.773 254.839 252.404 255.104 251.619C256.049 250.305 259.405 250.313 261.4 249.881C263.763 249.36 263.611 248.062 264.043 247.381C264.113 247.274 264.212 247.188 264.328 247.133C264.444 247.078 264.573 247.056 264.7 247.069L268.745 247.526Z" fill="#438B56"/>
<path d="M287.642 152.425C287.642 152.425 292.521 160.772 289.148 168.646L286.313 173.917C285.097 176.175 284.027 178.508 283.108 180.902L274.529 204.565L274.665 210.605C274.736 213.479 274.521 216.353 274.024 219.184L270.364 242.103L263.034 240.949L263.442 203.508L274.761 152.425H287.642Z" fill="#263238"/>
<g opacity="0.2">
<path d="M287.642 152.425C287.642 152.425 292.521 160.772 289.148 168.646L286.313 173.917C285.097 176.175 284.027 178.508 283.108 180.902L274.529 204.565L274.665 210.605C274.736 213.479 274.521 216.353 274.024 219.184L270.364 242.103L263.034 240.949L263.442 203.508L274.761 152.425H287.642Z" fill="black"/>
</g>
<path d="M262.69 239.515C262.866 239.459 272.735 240.821 272.735 240.821L271.333 243.52L261.824 242.719L262.69 239.515Z" fill="#438B56"/>
<path d="M260.767 121.199L255.848 133.119L240.508 137.533L242.559 140.985C242.559 140.985 256.065 140.184 260.078 137.156C260.975 136.475 267.087 123.538 267.087 123.538L260.767 121.199Z" fill="#DD8C6A"/>
<path d="M240.508 137.533L235.614 137.885C235.614 137.885 232.37 140.986 232.97 141.666C233.571 142.347 235.894 144.614 235.894 144.614C237.096 143.936 238.356 143.368 239.659 142.916C240.661 142.732 242.559 140.969 242.559 140.969L240.508 137.533Z" fill="#DD8C6A"/>
<path d="M275.33 175.07C275.33 175.07 264.115 194.488 263.627 197.227C263.338 198.83 264.54 199.567 265.501 208.154C266.206 214.354 266.615 227.203 266.422 228.437L259.694 229.806C259.694 229.806 252.412 205.15 251.186 199.278C248.839 188.063 264.372 152.296 264.372 152.296L284.102 152.425L284.47 158.937C284.791 164.545 280.945 174.405 275.33 175.07Z" fill="#263238"/>
<path d="M260.839 228.597L262.289 236.551L266.783 235.318L265.373 226.802L260.839 228.597Z" fill="#DD8C6A"/>
<path d="M265.029 234.204C265.471 234.024 265.96 233.993 266.422 234.114C266.884 234.235 267.295 234.503 267.592 234.877C268.528 235.987 269.392 237.157 270.179 238.378C270.348 238.906 258.468 248.07 258.468 248.07C257.883 248.118 257.234 247.061 257.531 246.725C258.212 244.994 260.006 242.984 260.791 241.117C261.305 239.652 261.681 238.142 261.912 236.607C261.974 236.236 262.13 235.887 262.366 235.593C262.601 235.3 262.909 235.073 263.258 234.933L265.029 234.204Z" fill="#438B56"/>
<path d="M257.555 227.876C257.707 227.772 268.193 226.234 268.193 226.234L268.001 229.173L257.531 231.184L257.555 227.876Z" fill="#438B56"/>
<path d="M266.855 98.9782C266.564 99.9894 266.167 100.967 265.669 101.894C265.81 102.059 265.994 102.182 266.201 102.248C266.407 102.315 266.628 102.322 266.839 102.271L266.855 98.9782Z" fill="#DF5753"/>
<path d="M266.791 97.4882C266.486 97.4882 266.246 97.8567 266.238 98.2893C266.23 98.7218 266.478 99.0903 266.783 99.0903C267.087 99.0903 267.335 98.7218 267.335 98.2893C267.335 97.8567 267.095 97.4882 266.791 97.4882Z" fill="#263238"/>
<path d="M281.09 104.417C280.409 107.814 279.712 114.03 282.083 116.329C282.083 116.329 281.13 119.774 274.809 119.742C267.856 119.742 271.509 116.273 271.509 116.273C275.306 115.384 275.226 112.572 274.577 109.921L281.09 104.417Z" fill="#E58A7B"/>
<path d="M282.988 96.6792C282.604 102.359 282.564 104.77 279.68 107.67C275.338 112.035 268.465 110.329 267.127 104.682C265.934 99.563 266.03 92.2253 271.621 89.9984C275.586 88.3963 280.825 89.1974 282.435 93.2026C282.88 94.3048 283.069 95.4934 282.988 96.6792Z" fill="#DD8C6A"/>
<path d="M284.094 116.722C284.142 116.386 284.058 116.046 283.859 115.772C283.66 115.498 283.362 115.313 283.028 115.256C280.465 114.823 274.625 113.926 271.677 114.318C269.49 114.615 268.914 115.88 268.809 116.93C268.78 117.265 268.884 117.598 269.098 117.857C269.313 118.117 269.62 118.281 269.955 118.316H270.163L282.868 117.803C283.165 117.789 283.448 117.674 283.671 117.478C283.894 117.281 284.043 117.014 284.094 116.722Z" fill="#438B56"/>
<path opacity="0.6" d="M284.094 116.722C284.142 116.386 284.058 116.046 283.859 115.772C283.66 115.498 283.362 115.313 283.028 115.256C280.465 114.823 274.625 113.926 271.677 114.318C269.49 114.615 268.914 115.88 268.809 116.93C268.78 117.265 268.884 117.598 269.098 117.857C269.313 118.117 269.62 118.281 269.955 118.316H270.163L282.868 117.803C283.165 117.789 283.448 117.674 283.671 117.478C283.894 117.281 284.043 117.014 284.094 116.722Z" fill="black"/>
<path d="M288.668 113.309L292.817 103.336L286.825 86.3375L290.83 85.8649C290.83 85.8649 298.184 99.8754 298.224 104.906C298.224 106.035 291.696 118.78 291.696 118.78L288.668 113.309Z" fill="#DD8C6A"/>
<path d="M282.844 116.617C282.844 114.174 291.007 106.893 291.007 106.893C293.538 108.882 295.512 111.492 296.734 114.471L296.91 114.911C296.91 114.911 292.905 122.121 289.781 121.76C286.505 121.4 282.844 119.677 282.844 116.617Z" fill="#438B56"/>
<path opacity="0.1" d="M282.844 116.617C282.844 114.174 291.007 106.893 291.007 106.893C293.538 108.882 295.512 111.492 296.734 114.471L296.91 114.911C296.91 114.911 292.905 122.121 289.781 121.76C286.505 121.4 282.844 119.677 282.844 116.617Z" fill="black"/>
<path d="M263.018 114.599C263.018 114.599 263.691 123.891 264.332 152.248L287.61 152.376C287.314 144.182 288.211 136.459 291.447 122.033C291.67 121.052 291.682 120.035 291.481 119.049C291.281 118.063 290.872 117.132 290.283 116.316C289.694 115.501 288.939 114.82 288.066 114.319C287.193 113.819 286.224 113.51 285.223 113.413C284.582 113.349 283.933 113.301 283.292 113.261C279.774 112.986 276.24 112.967 272.719 113.205C268.169 113.581 263.018 114.599 263.018 114.599Z" fill="#438B56"/>
<path d="M258.187 120.959C256.978 126.382 255.504 128.633 255.504 128.633L264.099 133.68C264.099 133.68 270.187 118.812 269.114 115.832C268.457 114.014 266.494 113.942 265.036 114.439C265.036 114.439 264.996 114.439 264.98 114.439C262.369 113.389 259.245 116.273 258.187 120.959Z" fill="#438B56"/>
<path d="M269.154 91.2C268.501 94.5574 269.152 98.0374 270.972 100.933C272.126 102.743 273.071 104.682 274.305 106.332C274.697 106.864 275.194 107.309 275.766 107.64C276.337 107.971 276.971 108.18 277.627 108.256C278.283 108.331 278.948 108.27 279.579 108.077C280.211 107.883 280.796 107.562 281.298 107.133C283.512 105.237 284.9 102.553 285.17 99.6509C285.439 96.7485 284.567 93.8553 282.74 91.5845C281.488 89.9445 279.646 88.858 277.605 88.5565C275.864 88.5079 274.133 88.8301 272.527 89.5017C271.309 89.9663 270.372 90.7834 269.154 91.2Z" fill="#263238"/>
<path d="M272.294 99.8033C272.286 100.881 271.972 101.934 271.389 102.839C270.588 104.009 269.699 103.56 269.474 102.303C269.274 101.205 269.474 99.2506 270.436 98.4976C271.397 97.7446 272.294 98.5296 272.294 99.8033Z" fill="#DD8C6A"/>
<path opacity="0.2" d="M263.675 133.279L267.336 122.866L265.734 134.217C264.994 134.037 264.296 133.719 263.675 133.279Z" fill="black"/>
<path d="M286.825 86.3696L284.118 82.2762C284.118 82.2762 284.598 77.8063 285.504 77.8704C286.409 77.9345 289.621 78.3911 289.621 78.3911C289.821 79.7514 290.14 81.0916 290.574 82.3964C291.039 83.3096 290.798 85.889 290.798 85.889L286.825 86.3696Z" fill="#DD8C6A"/>
<path d="M264.484 92.1853C264.304 92.6802 264.316 93.2243 264.518 93.7106C264.72 94.1969 265.096 94.5901 265.573 94.8127C265.611 95.2994 265.751 95.7728 265.984 96.2017C266.217 96.6307 266.538 97.0056 266.925 97.302C267.313 97.5984 267.759 97.8096 268.235 97.9217C268.71 98.0339 269.203 98.0445 269.683 97.9529C268.777 97.6084 268.633 96.3507 269.05 95.4456C269.811 93.8434 272.43 92.017 270.235 90.4149C268.569 89.1893 265.149 90.2788 264.484 92.1853Z" fill="#263238"/>
<path d="M265.95 96.9756C266.216 96.8683 266.505 96.8268 266.791 96.8547C267.077 96.8826 267.351 96.979 267.592 97.1358L267.656 97.1758C267.708 97.1951 267.765 97.1952 267.817 97.1761C267.869 97.157 267.913 97.1199 267.94 97.0716C267.967 97.0232 267.976 96.9668 267.965 96.9125C267.954 96.8581 267.924 96.8095 267.881 96.7753C267.583 96.5718 267.24 96.4424 266.882 96.3978C266.524 96.3532 266.161 96.3948 265.822 96.519C265.772 96.5401 265.73 96.5765 265.702 96.6231C265.686 96.6498 265.676 96.6794 265.672 96.7101C265.668 96.7408 265.67 96.772 265.678 96.8018C265.686 96.8317 265.701 96.8596 265.72 96.8839C265.739 96.9083 265.763 96.9285 265.79 96.9435C265.837 96.974 265.894 96.9854 265.95 96.9756Z" fill="#263238"/>
<path d="M282.452 127.856C282.452 127.808 283.677 125.653 283.501 124.324C283.855 124.024 284.146 123.658 284.358 123.245C284.57 122.833 284.698 122.382 284.735 121.92C284.842 120.951 284.57 119.977 283.974 119.205C284.551 118.269 284.786 117.163 284.64 116.074C284.494 114.984 283.976 113.979 283.173 113.229C284.607 111.531 284.382 108.318 282.436 107.261C283.06 106.784 283.48 106.088 283.611 105.313C283.742 104.539 283.574 103.743 283.141 103.088C282.828 103.088 282.836 102.711 282.556 102.839C281.338 103.496 280.299 104.439 279.528 105.587C278.385 104.858 277.014 104.573 275.675 104.786C275.346 105.165 275.132 105.63 275.059 106.127C274.986 106.624 275.058 107.131 275.264 107.589C275.47 108.046 275.804 108.435 276.224 108.709C276.645 108.984 277.135 109.131 277.637 109.136C277.237 111.346 278.438 113.774 280.689 114.086C279.68 116.545 280.417 118.292 282.876 119.277C281.803 120.655 281.338 122.85 282.283 124.324C281.885 124.68 281.563 125.114 281.337 125.599C281.111 126.083 280.986 126.609 280.97 127.143C280.802 128.809 282.452 127.856 282.452 127.856Z" fill="#263238"/>
<path d="M281.522 127.127C280.988 126.981 280.418 127.032 279.919 127.272C279.419 127.513 279.023 127.925 278.803 128.434C278.584 128.944 278.556 129.515 278.724 130.043C278.893 130.571 279.246 131.021 279.72 131.309C279.604 131.196 279.515 131.058 279.46 130.905C279.406 130.752 279.387 130.589 279.406 130.428C279.424 130.267 279.48 130.113 279.567 129.976C279.655 129.84 279.773 129.726 279.912 129.642C279.742 129.813 279.624 130.029 279.573 130.265C279.522 130.501 279.539 130.746 279.624 130.972C279.848 131.321 280.094 131.656 280.361 131.974C280.49 132.135 280.571 132.33 280.595 132.535C280.619 132.74 280.585 132.948 280.497 133.135C281.157 132.84 281.748 132.409 282.231 131.871C282.714 131.333 283.079 130.699 283.301 130.011C283.557 129.362 283.557 128.641 283.301 127.992C283.144 127.67 282.883 127.409 282.561 127.253C282.239 127.096 281.873 127.052 281.522 127.127Z" fill="#263238"/>
<path d="M281.522 126.046L279.183 126.991C278.812 127.101 278.423 127.139 278.038 127.103C277.273 126.166 276.902 124.968 277.004 123.763C277.183 122.463 277.816 121.269 278.791 120.39C279.652 120.963 280.437 121.641 281.13 122.409C281.511 122.802 281.917 123.169 282.347 123.506C282.542 123.722 282.661 123.994 282.687 124.283C282.713 124.572 282.645 124.862 282.492 125.109C282.191 125.575 281.766 125.949 281.266 126.19C281.29 126.038 281.498 126.166 281.522 126.046Z" fill="#438B56"/>
<path d="M283.196 126.751L285.223 128.257C285.551 128.46 285.916 128.596 286.297 128.657C287.274 127.946 287.938 126.884 288.147 125.693C288.306 124.391 288 123.075 287.282 121.976C286.303 122.312 285.369 122.766 284.502 123.33C284.034 123.61 283.55 123.861 283.052 124.083C282.814 124.241 282.632 124.47 282.533 124.738C282.433 125.006 282.422 125.298 282.5 125.573C282.675 126.102 282.99 126.572 283.413 126.935C283.429 126.807 283.188 126.879 283.196 126.751Z" fill="#438B56"/>
<path opacity="0.4" d="M281.522 126.046L279.183 126.991C278.812 127.101 278.423 127.139 278.038 127.103C277.273 126.166 276.902 124.968 277.004 123.763C277.183 122.463 277.816 121.269 278.791 120.39C279.652 120.963 280.437 121.641 281.13 122.409C281.511 122.802 281.917 123.169 282.347 123.506C282.542 123.722 282.661 123.994 282.687 124.283C282.713 124.572 282.645 124.862 282.492 125.109C282.191 125.575 281.766 125.949 281.266 126.19C281.29 126.038 281.498 126.166 281.522 126.046Z" fill="black"/>
<path opacity="0.4" d="M283.196 126.751L285.223 128.257C285.551 128.46 285.916 128.596 286.297 128.657C287.274 127.946 287.938 126.884 288.147 125.693C288.306 124.391 288 123.075 287.282 121.976C286.303 122.312 285.369 122.766 284.502 123.33C284.034 123.61 283.55 123.861 283.052 124.083C282.814 124.241 282.632 124.47 282.533 124.738C282.433 125.006 282.422 125.298 282.5 125.573C282.675 126.102 282.99 126.572 283.413 126.935C283.429 126.807 283.188 126.879 283.196 126.751Z" fill="black"/>
<path d="M183.754 219.273C183.272 218.622 182.674 218.065 181.991 217.63C181.991 217.63 180.325 214.851 180.966 207.914L178.234 206.408C177.769 206.162 177.239 206.065 176.716 206.129C176.193 206.194 175.703 206.417 175.311 206.768C175.198 206.863 175.103 206.977 175.03 207.105C174.705 207.771 174.419 208.456 174.173 209.155C173.394 211.551 172.758 213.99 172.267 216.461L172.787 216.613L174.165 212.071C174.614 210.525 175.375 212.672 175.287 214.434C175.198 216.196 175.471 218.183 178.867 219.136C182.816 220.234 184.523 220.506 183.754 219.273Z" fill="#2E353A"/>
<path d="M180.702 208.626L177.129 207.481L176.905 202.266L177.562 196.242L183.546 196.907L181.847 203.924L180.702 208.626Z" fill="#FFC3BD"/>
<path d="M181.215 205.398C181.215 205.398 181.054 208.602 181.215 212.231C181.184 214.076 181.51 215.909 182.176 217.63C182.176 217.63 179.492 217.43 178.827 215.419C178.162 213.409 178.154 207.144 175.471 206.792C175.788 206.412 176.145 206.069 176.536 205.767C177.137 205.286 181.215 205.398 181.215 205.398Z" fill="#FFC3BD"/>
<path d="M208.747 30.4881L211.062 32.3065L213.881 31.137L211.318 29.1103C211.318 29.1103 209.756 28.1891 208.747 30.4881Z" fill="#FFC3BD"/>
<path d="M198.709 30.7605C199.083 30.471 199.414 30.1313 199.695 29.7512C199.944 29.3865 200.057 28.9454 200.013 28.5057C199.969 28.066 199.771 27.656 199.454 27.348C198.766 26.6054 197.979 25.9611 197.115 25.4335C196.418 24.4722 196.402 23.2947 195.601 22.4295C194.8 21.5644 193.414 21.8528 192.397 22.6378C192.397 22.6378 192.741 25.5777 193.55 26.7793C194.039 27.5082 194.416 28.5095 195.249 28.7899C195.281 28.7499 197.924 30.3359 198.709 30.7605Z" fill="#FFC3BD"/>
<path d="M196.05 29.1103L193.182 31.5135L196.258 33.2278L199.663 29.8553C199.663 29.8553 198.926 27.5963 196.05 29.1103Z" fill="#FFC3BD"/>
<path d="M209.147 30.8165C208.769 30.5341 208.429 30.2028 208.138 29.8312C207.87 29.4684 207.741 29.0213 207.775 28.5714C207.808 28.1215 208.003 27.6987 208.322 27.38C208.991 26.6204 209.762 25.9573 210.613 25.4094C211.278 24.4321 211.27 23.2546 212.055 22.3654C212.84 21.4763 214.226 21.7406 215.259 22.5016C215.259 22.5016 214.987 25.4495 214.21 26.6671C213.737 27.4121 213.409 28.4214 212.56 28.7178C212.528 28.7178 209.924 30.368 209.147 30.8165Z" fill="#FFC3BD"/>
<path d="M209.876 66.1831L216.356 73.0241C218.591 70.2925 226.089 58.4049 227.195 47.6147C227.555 44.082 225.849 43.3531 225.849 43.3531L212.944 29.9514C209.948 29.0703 210.116 31.8419 210.116 31.8419C210.116 31.8419 220.17 47.1981 219.841 48.0713C219.649 48.5679 209.876 66.1831 209.876 66.1831Z" fill="#438B56"/>
<path opacity="0.1" d="M209.876 66.1831L216.356 73.0241C218.591 70.2925 226.089 58.4049 227.195 47.6147C227.555 44.082 225.849 43.3531 225.849 43.3531L212.944 29.9514C209.948 29.0703 210.116 31.8419 210.116 31.8419C210.116 31.8419 220.17 47.1981 219.841 48.0713C219.649 48.5679 209.876 66.1831 209.876 66.1831Z" fill="black"/>
<path opacity="0.1" d="M209.876 66.1831L216.356 73.0241C218.591 70.2925 226.089 58.4049 227.195 47.6147C227.555 44.082 225.849 43.3531 225.849 43.3531L212.944 29.9514C209.948 29.0703 210.116 31.8419 210.116 31.8419C210.116 31.8419 220.17 47.1981 219.841 48.0713C219.649 48.5679 209.876 66.1831 209.876 66.1831Z" fill="#E5F9EA"/>
<path d="M195.185 65.3019L195.041 65.9588C194.48 68.5462 191.035 72.3272 188.504 71.6142C186.477 68.7224 179.252 56.8829 178.939 46.0366C178.835 42.4799 180.598 41.8871 180.598 41.8871L195.017 29.5028C198.061 29.1103 198.061 31.7137 198.061 31.7137C198.061 31.7137 186.045 46.1327 186.277 47.0299C186.413 47.5426 195.185 65.3019 195.185 65.3019Z" fill="#438B56"/>
<g opacity="0.2">
<path d="M195.185 65.3019L195.041 65.9588C194.48 68.5462 191.035 72.3272 188.504 71.6142C186.477 68.7224 179.252 56.8829 178.939 46.0366C178.835 42.4799 180.598 41.8871 180.598 41.8871L195.017 29.5028C198.061 29.1103 198.061 31.7137 198.061 31.7137C198.061 31.7137 186.045 46.1327 186.277 47.0299C186.413 47.5426 195.185 65.3019 195.185 65.3019Z" fill="#E5F9EA"/>
</g>
<path d="M186.357 68.1937C187.871 70.7971 189.497 74.0174 191.059 76.8851C191.212 77.1624 191.429 77.3986 191.693 77.5736C191.957 77.7486 192.259 77.8573 192.574 77.8903C192.888 77.9234 193.206 77.8798 193.501 77.7634C193.795 77.6469 194.057 77.461 194.264 77.2216C196.979 74.1135 198.373 69.4514 197.155 65.6704C195.553 64.9655 193.783 64.2605 192.213 63.5556C189.946 64.6691 187.663 66.0389 186.357 68.1937Z" fill="#438B56"/>
<path opacity="0.2" d="M186.357 68.1937C187.871 70.7971 189.497 74.0174 191.059 76.8851C191.212 77.1624 191.429 77.3986 191.693 77.5736C191.957 77.7486 192.259 77.8573 192.574 77.8903C192.888 77.9234 193.206 77.8798 193.501 77.7634C193.795 77.6469 194.057 77.461 194.264 77.2216C196.979 74.1135 198.373 69.4514 197.155 65.6704C195.553 64.9655 193.783 64.2605 192.213 63.5556C189.946 64.6691 187.663 66.0389 186.357 68.1937Z" fill="#E5F9EA"/>
<path d="M217.999 81.1307L217.198 83.7903C216.677 86.5459 215.972 89.1573 215.668 91.6165C215.554 96.6309 215.821 101.647 216.469 106.62C216.469 106.62 217.11 118.091 217.086 118.868L186.646 118.74C187.711 104.802 194.72 92.73 194.72 90.7915C194.72 88.3322 194.56 89.5418 192.461 82.7809C192.461 82.7809 192.461 82.7409 192.461 82.7008C192.461 82.6608 192.421 82.5566 192.389 82.4845C192.366 82.3839 192.337 82.2849 192.301 82.1881C192.301 82.1241 192.301 82.06 192.245 81.9879L192.013 81.1868C191.476 79.3604 190.563 76.0761 189.673 72.1029C189.097 69.4914 190.475 66.1591 193.078 65.5743L193.519 65.5022C194.88 65.326 196.386 65.1577 197.924 65.0856C201.362 64.8413 204.812 64.8413 208.25 65.0856C209.934 65.2003 211.611 65.4062 213.273 65.7025C213.801 65.7826 214.53 66.5035 215.291 67.4648C216.734 69.3961 217.726 71.626 218.194 73.9908C218.663 76.3555 218.596 78.7952 217.999 81.1307Z" fill="#438B56"/>
<g opacity="0.2">
<path d="M217.999 81.1307L217.198 83.7903C216.677 86.5459 215.972 89.1573 215.668 91.6165C215.554 96.6309 215.821 101.647 216.469 106.62C216.469 106.62 217.11 118.091 217.086 118.868L186.646 118.74C187.711 104.802 194.72 92.73 194.72 90.7915C194.72 88.3322 194.56 89.5418 192.461 82.7809C192.461 82.7809 192.461 82.7409 192.461 82.7008C192.461 82.6608 192.421 82.5566 192.389 82.4845C192.366 82.3839 192.337 82.2849 192.301 82.1881C192.301 82.1241 192.301 82.06 192.245 81.9879L192.013 81.1868C191.476 79.3604 190.563 76.0761 189.673 72.1029C189.097 69.4914 190.475 66.1591 193.078 65.5743L193.519 65.5022C194.88 65.326 196.386 65.1577 197.924 65.0856C201.362 64.8413 204.812 64.8413 208.25 65.0856C209.934 65.2003 211.611 65.4062 213.273 65.7025C213.801 65.7826 214.53 66.5035 215.291 67.4648C216.734 69.3961 217.726 71.626 218.194 73.9908C218.663 76.3555 218.596 78.7952 217.999 81.1307Z" fill="#E5F9EA"/>
</g>
<path d="M204.028 62.0897C204.173 62.0897 195.738 61.7853 194.76 63.051C194.407 63.477 194.212 64.0117 194.208 64.565C194.209 64.8395 194.294 65.107 194.451 65.3318C194.609 65.5566 194.831 65.7279 195.089 65.8226C193.991 66.4795 192.501 67.1604 192.685 68.4261C192.788 68.8779 193.026 69.2875 193.369 69.5997C193.711 69.9119 194.141 70.1118 194.6 70.1724C195.523 70.2683 196.457 70.1701 197.34 69.884C197.217 70.2793 197.223 70.7032 197.357 71.0948C197.491 71.4863 197.746 71.8253 198.085 72.0629C198.745 72.4396 199.495 72.6306 200.255 72.6156C201.66 72.6861 203.068 72.6244 204.461 72.4313C204.894 71.2778 204.341 69.884 203.732 68.8106C202.298 66.2712 205.751 64.4368 204.028 62.0897Z" fill="#438B56"/>
<path d="M204.028 62.0897C204.173 62.0897 195.738 61.7853 194.76 63.051C194.407 63.477 194.212 64.0117 194.208 64.565C194.209 64.8395 194.294 65.107 194.451 65.3318C194.609 65.5566 194.831 65.7279 195.089 65.8226C193.991 66.4795 192.501 67.1604 192.685 68.4261C192.788 68.8779 193.026 69.2875 193.369 69.5997C193.711 69.9119 194.141 70.1118 194.6 70.1724C195.523 70.2683 196.457 70.1701 197.34 69.884C197.217 70.2793 197.223 70.7032 197.357 71.0948C197.491 71.4863 197.746 71.8253 198.085 72.0629C198.745 72.4396 199.495 72.6306 200.255 72.6156C201.66 72.6861 203.068 72.6244 204.461 72.4313C204.894 71.2778 206.063 69.9801 205.422 68.8987C203.988 66.3593 205.751 64.4368 204.028 62.0897Z" fill="#E5F9EA"/>
<path d="M204.974 62.1298C204.83 62.1298 212.888 61.7853 213.865 63.051C214.225 63.4738 214.423 64.01 214.426 64.565C214.422 64.8386 214.335 65.1047 214.178 65.3289C214.021 65.553 213.801 65.725 213.545 65.8226C214.642 66.4795 216.124 67.1604 215.948 68.426C215.844 68.8785 215.604 69.2883 215.261 69.6005C214.917 69.9127 214.486 70.1122 214.026 70.1723C213.102 70.2674 212.169 70.1691 211.286 69.884C211.412 70.2783 211.408 70.7025 211.276 71.0945C211.143 71.4866 210.888 71.8259 210.549 72.0628C209.886 72.4406 209.133 72.6316 208.37 72.6156C206.968 72.6866 205.563 72.6249 204.173 72.4313C203.74 71.2778 204.293 69.884 204.894 68.8105C206.327 66.2712 203.251 64.4769 204.974 62.1298Z" fill="#E5F9EA"/>
<path d="M203.508 71.7023L206.752 75.996L208.755 71.7023H203.508Z" fill="#E5F9EA"/>
<path d="M193.855 49.7054C193.039 50.234 192.305 50.879 191.676 51.62C191.363 51.9933 191.133 52.4298 191.003 52.8997C190.873 53.3697 190.846 53.8621 190.923 54.3435C191.017 54.8213 191.275 55.2511 191.652 55.5584C192.03 55.8657 192.503 56.0311 192.99 56.0258C192.285 56.971 191.003 58.2607 190.763 59.4142C190.61 59.9844 190.642 60.5884 190.853 61.1395C191.065 61.6906 191.445 62.1607 191.941 62.4822C195.241 62.1458 198.565 61.9536 201.858 61.6171C201.906 59.9189 202.122 58.4129 202.162 56.7307C200.031 53.911 196.811 51.7081 193.855 49.7054Z" fill="#263238"/>
<path d="M211.927 49.7054C212.741 50.2362 213.475 50.8809 214.106 51.62C214.418 51.9941 214.647 52.4306 214.777 52.9004C214.906 53.3701 214.934 53.8621 214.859 54.3435C214.765 54.8213 214.507 55.2511 214.13 55.5584C213.752 55.8657 213.279 56.0311 212.792 56.0258C213.497 56.971 214.779 58.2607 215.019 59.4142C215.172 59.9852 215.14 60.5902 214.927 61.1417C214.714 61.6932 214.331 62.1627 213.833 62.4822C210.541 62.1458 207.217 61.9536 203.924 61.6171C203.876 59.9189 203.66 58.4129 203.612 56.7307C205.775 53.911 208.995 51.7081 211.927 49.7054Z" fill="#263238"/>
<path d="M201.064 53.7668C201.473 56.971 201.729 62.7626 199.39 64.7252C201.136 67.1284 203.395 68.5222 205.927 71.1817C208.682 67.0002 209.187 65.35 209.187 65.35C205.726 64.2846 205.983 61.6892 206.784 59.278L201.064 53.7668Z" fill="#FFC3BD"/>
<path opacity="0.2" d="M201.689 54.3676C201.61 56.2446 201.938 58.1166 202.65 59.8548C203.147 61.0564 204.685 61.6732 206.271 61.8975C206.295 61.0054 206.455 60.1222 206.744 59.278L201.689 54.3676Z" fill="black"/>
<path d="M196.306 49.5052C197.508 54.6559 197.868 56.8508 200.96 59.1178C205.574 62.4662 211.63 59.9188 212.015 54.4957C212.351 49.6894 210.333 42.0473 204.926 40.8297C203.73 40.5561 202.484 40.5921 201.306 40.9344C200.128 41.2766 199.057 41.9138 198.194 42.7857C197.331 43.6575 196.704 44.7351 196.374 45.9166C196.044 47.098 196.02 48.3442 196.306 49.5372V49.5052Z" fill="#FFC3BD"/>
<path d="M200.312 39.4439C203.892 36.5681 207.521 38.0661 209.42 39.2196C210.369 39.7991 211.186 40.5723 211.817 41.4888C212.448 42.4053 212.878 43.4445 213.08 44.5386C213.233 45.3958 212.872 47.3343 211.214 47.7428C210.824 46.732 210.245 45.8048 209.508 45.0112C208.354 43.9619 206.127 42.6081 205.198 42.8244C204.205 44.7389 202.619 48.2956 199.823 48.9604C197.716 49.4571 199.871 60.1752 195.585 55.7213C190.459 48.7041 193.134 45.3076 194.656 42.512C196.178 39.7163 200.312 39.4439 200.312 39.4439Z" fill="#263238"/>
<path d="M208.69 54.728C208.713 54.7139 208.73 54.6932 208.74 54.6688C208.75 54.6444 208.752 54.6176 208.747 54.5919C208.739 54.5607 208.72 54.5335 208.693 54.5157C208.666 54.4979 208.634 54.4908 208.602 54.4957C208.083 54.6133 207.543 54.6064 207.026 54.4755C206.51 54.3447 206.031 54.0936 205.63 53.7427C205.605 53.7197 205.572 53.7068 205.538 53.7068C205.504 53.7068 205.471 53.7197 205.446 53.7427C205.424 53.7665 205.411 53.7981 205.411 53.8309C205.411 53.8636 205.424 53.8952 205.446 53.919C205.876 54.3011 206.392 54.5735 206.95 54.713C207.508 54.8525 208.091 54.8549 208.65 54.72L208.69 54.728Z" fill="#263238"/>
<path d="M209.291 52.3809C209.559 52.3803 209.824 52.322 210.067 52.21C210.31 52.098 210.526 51.9351 210.701 51.7321C209.846 51.0677 209.083 50.2918 208.434 49.425L209.291 52.3809Z" fill="#ED893E"/>
<path d="M195.457 53.8388C195.604 54.3261 195.846 54.7795 196.169 55.1727C196.492 55.5659 196.89 55.8912 197.34 56.1298C198.541 56.7386 199.414 55.7373 199.31 54.4637C199.214 53.3181 198.509 51.6119 197.163 51.5158C196.936 51.505 196.708 51.5395 196.493 51.6171C196.279 51.6947 196.082 51.8141 195.913 51.9682C195.745 52.1223 195.609 52.3082 195.513 52.5151C195.417 52.7221 195.362 52.946 195.353 53.174C195.348 53.4 195.383 53.6252 195.457 53.8388Z" fill="#FFC3BD"/>
<path d="M192.525 81.2429C192.605 81.5393 192.685 81.7956 192.749 82.044C192.669 81.8037 192.597 81.5473 192.517 81.2429H192.525Z" fill="#438B56"/>
<path d="M219.04 211.046L215.011 210.877L213.497 204.453L212.407 198.493L218.335 197.42L218.712 204.629L219.04 211.046Z" fill="#FFC3BD"/>
<path d="M225.096 218.752C224.444 218.264 223.709 217.9 222.925 217.678C222.925 217.678 220.522 215.492 219.176 208.659L216.132 207.994C215.616 207.892 215.081 207.95 214.599 208.161C214.116 208.371 213.71 208.724 213.433 209.171C213.351 209.296 213.292 209.435 213.256 209.58C213.135 210.311 213.057 211.05 213.024 211.791C212.957 214.309 213.043 216.829 213.28 219.337H213.825V214.586C213.825 212.984 215.155 214.819 215.571 216.533C215.988 218.247 216.813 220.066 220.378 220.009C224.455 219.937 226.161 219.713 225.096 218.752Z" fill="#2E353A"/>
<path d="M218.527 206.223C218.527 206.223 219.288 209.339 220.45 212.784C220.949 214.558 221.784 216.219 222.909 217.678C222.909 217.678 220.29 218.247 219.072 216.517C217.855 214.787 216.068 208.779 213.401 209.203C213.592 208.75 213.834 208.32 214.122 207.922C214.586 207.281 218.527 206.223 218.527 206.223Z" fill="#FFC3BD"/>
<path d="M219.529 159.266L218.632 202.667L213.296 203.219C210.731 193.028 209.051 182.635 208.274 172.154C208.058 168.566 208.915 164.392 208.522 161.549C208.17 159.065 207.184 157.543 205.799 151.888C204.124 145.087 202.378 135.963 202.827 128.858C202.827 128.858 195.537 121.248 197.396 110.874L203.892 109.152L213.441 106.604H216.445L216.509 107.87L219.529 159.266Z" fill="#263238"/>
<g opacity="0.1">
<path d="M219.529 159.266L218.632 202.667L213.296 203.219C210.731 193.028 209.051 182.635 208.274 172.154C208.058 168.566 208.915 164.392 208.522 161.549C208.17 159.065 207.184 157.543 205.799 151.888C204.124 145.087 202.378 135.963 202.827 128.858C202.827 128.858 195.537 121.248 197.396 110.874L203.892 109.152L213.441 106.604H216.124L216.188 107.87L219.529 159.266Z" fill="black"/>
</g>
<path d="M207.849 108.567L195.585 160.683L182.336 202.018L177.033 201.065C177.492 190.552 178.862 180.099 181.126 169.823C181.927 166.315 183.954 162.558 184.387 159.722C184.763 157.239 184.258 155.469 184.539 149.685C184.875 142.684 185.805 133.44 188.264 126.767C188.264 126.767 183.457 117.386 188.192 107.982L207.849 108.567Z" fill="#263238"/>
<path d="M216.597 109.368L207.489 110.081L188.192 107.99L188.865 106.5L213.449 106.604L216.445 106.62H216.477L216.517 107.886L216.597 109.368Z" fill="#263238"/>
<path d="M207.313 38.9233H200.263C200.962 38.461 201.491 37.7831 201.769 36.9927C202.17 35.8152 202.474 35.703 202.659 34.3653C202.808 33.3305 202.886 32.2866 202.891 31.2411C202.893 29.8253 202.701 28.4158 202.322 27.0516H205.23C204.857 28.4146 204.664 29.8202 204.653 31.2331C204.685 33.2048 205.067 35.1551 205.783 36.9927C206.07 37.7849 206.607 38.4623 207.313 38.9233Z" fill="#438B56"/>
<path opacity="0.2" d="M205.254 27.0516C205.134 27.7405 204.998 28.3654 204.853 28.9581C204.42 30.8664 203.682 32.6922 202.667 34.3653C202.816 33.3305 202.894 32.2866 202.899 31.2411C202.9 29.8253 202.709 28.4158 202.33 27.0516H205.254Z" fill="black"/>
<path d="M198.862 18.8889L197.94 20.0264L197.476 19.4816C196.834 18.8412 195.978 18.4616 195.073 18.4162H194.864C194.669 18.4453 194.482 18.5126 194.313 18.6143C194.143 18.7161 193.996 18.8502 193.879 19.009C193.695 19.2475 193.559 19.5196 193.478 19.8101C193.455 19.8917 193.436 19.9746 193.422 20.0584C193.327 20.6953 193.396 21.346 193.623 21.9489C193.759 22.4708 194.049 22.9393 194.457 23.2925C194.865 23.6458 195.37 23.8671 195.906 23.9275H196.563V25.4815H195.906C194.44 25.4815 193.078 24.344 192.421 22.5817C192.421 22.4616 192.341 22.3414 192.309 22.2293C192.064 21.5137 191.992 20.7504 192.098 20.0016C192.203 19.2527 192.484 18.5394 192.918 17.9196C193.161 17.5835 193.478 17.3077 193.845 17.1133C194.211 16.9188 194.618 16.811 195.033 16.7981C195.603 16.7934 196.169 16.9109 196.691 17.1426C197.324 17.4162 197.896 17.8139 198.373 18.3121L198.862 18.8889Z" fill="#438B56"/>
<path opacity="0.2" d="M196.707 17.1747C196.678 17.2559 196.631 17.3298 196.571 17.3909C196.375 17.5674 196.146 17.7035 195.898 17.7915C195.535 17.9552 195.193 18.1623 194.88 18.4083C194.685 18.4373 194.498 18.5046 194.329 18.6064C194.159 18.7081 194.012 18.8422 193.895 19.0011C193.655 19.3206 193.498 19.695 193.438 20.0905C193.216 20.459 193.036 20.8513 192.902 21.26C192.817 21.645 192.615 21.9946 192.325 22.2613C191.931 21.0618 192.002 19.7579 192.525 18.6085C192.636 18.375 192.774 18.1547 192.934 17.9517C193.177 17.6156 193.494 17.3398 193.861 17.1453C194.228 16.9509 194.634 16.8431 195.049 16.8302H195.273C195.768 16.8573 196.254 16.974 196.707 17.1747Z" fill="#E5F9EA"/>
<path opacity="0.3" d="M195.273 16.8222C195.276 16.838 195.276 16.8544 195.273 16.8702C195.219 17.094 195.12 17.3044 194.982 17.4888C194.844 17.6733 194.671 17.828 194.472 17.9437C193.989 18.2661 193.443 18.4818 192.87 18.5765C192.768 18.5844 192.666 18.5844 192.565 18.5765C192.676 18.343 192.813 18.1227 192.974 17.9196C193.217 17.5836 193.534 17.3077 193.901 17.1133C194.267 16.9189 194.674 16.8111 195.089 16.7982L195.273 16.8222Z" fill="#E5F9EA"/>
<path opacity="0.2" d="M196.05 23.9595C195.941 24.1117 195.781 24.2207 195.6 24.2676C195.418 24.3144 195.226 24.2961 195.057 24.2159C194.632 24.0582 194.252 23.8015 193.947 23.4671C193.641 23.1327 193.421 22.7303 193.302 22.2933C193.093 21.4775 193.161 20.6154 193.495 19.8421C193.471 19.9238 193.453 20.0067 193.439 20.0904C193.344 20.7274 193.412 21.378 193.639 21.9809C193.775 22.5029 194.066 22.9713 194.473 23.3246C194.881 23.6778 195.386 23.8992 195.922 23.9595H196.05Z" fill="black"/>
<path d="M208.907 18.8889L209.828 20.0264L210.293 19.4816C210.934 18.8412 211.79 18.4616 212.696 18.4162H212.904C213.099 18.4453 213.287 18.5126 213.456 18.6143C213.625 18.7161 213.772 18.8502 213.889 19.009C214.073 19.2475 214.21 19.5196 214.29 19.8101C214.317 19.8907 214.336 19.9739 214.346 20.0584C214.441 20.6953 214.372 21.346 214.146 21.9489C214.01 22.4708 213.719 22.9393 213.311 23.2925C212.904 23.6458 212.399 23.8671 211.863 23.9275H211.206V25.4815H211.863C213.329 25.4815 214.69 24.344 215.347 22.5817L215.467 22.2293C215.711 21.513 215.782 20.7494 215.675 20.0006C215.568 19.2517 215.285 18.5387 214.851 17.9196C214.607 17.5835 214.29 17.3077 213.923 17.1133C213.557 16.9188 213.151 16.811 212.736 16.7981C212.165 16.7934 211.599 16.9109 211.078 17.1426C210.444 17.4162 209.872 17.8139 209.395 18.3121L208.907 18.8889Z" fill="#438B56"/>
<path opacity="0.2" d="M211.062 17.1747C211.091 17.2559 211.137 17.3298 211.198 17.3909C211.394 17.5674 211.622 17.7035 211.871 17.7915C212.234 17.9552 212.575 18.1623 212.888 18.4083C213.083 18.4373 213.271 18.5046 213.44 18.6064C213.609 18.7081 213.756 18.8422 213.873 19.0011C214.114 19.3206 214.271 19.695 214.33 20.0905C214.552 20.459 214.732 20.8513 214.867 21.26C214.954 21.6458 215.159 21.9954 215.452 22.2613C215.839 21.0603 215.765 19.7578 215.243 18.6085C215.132 18.375 214.995 18.1547 214.835 17.9517C214.591 17.6156 214.274 17.3398 213.908 17.1453C213.541 16.9509 213.135 16.8431 212.72 16.8302H212.496C212.001 16.8573 211.515 16.974 211.062 17.1747Z" fill="#E5F9EA"/>
<path opacity="0.3" d="M212.495 16.8222C212.495 16.8222 212.495 16.8222 212.495 16.8702C212.55 17.094 212.649 17.3044 212.786 17.4888C212.924 17.6733 213.097 17.828 213.296 17.9437C213.779 18.2661 214.326 18.4818 214.899 18.5765C215 18.5844 215.102 18.5844 215.203 18.5765C215.092 18.343 214.955 18.1227 214.794 17.9196C214.551 17.5836 214.234 17.3077 213.867 17.1133C213.501 16.9189 213.094 16.8111 212.68 16.7982L212.495 16.8222Z" fill="#E5F9EA"/>
<path opacity="0.2" d="M211.719 23.9595C211.828 24.1117 211.987 24.2207 212.169 24.2676C212.35 24.3144 212.542 24.2961 212.712 24.2159C213.136 24.0582 213.517 23.8015 213.822 23.4671C214.127 23.1327 214.348 22.7303 214.466 22.2933C214.679 21.4778 214.611 20.6145 214.274 19.8421C214.301 19.9227 214.32 20.006 214.33 20.0904C214.425 20.7274 214.356 21.378 214.13 21.9809C213.994 22.5029 213.703 22.9713 213.295 23.3246C212.888 23.6778 212.383 23.8992 211.847 23.9595H211.719Z" fill="black"/>
<path d="M212.023 23.7112C212.006 23.9295 211.974 24.1464 211.927 24.3601C211.712 25.5846 211.032 26.6785 210.028 27.4121C207.561 29.0702 203.62 29.5429 200.416 28.6056L200.135 28.5175C199.333 28.2668 198.573 27.894 197.884 27.4121C197.459 27.1002 197.093 26.715 196.803 26.2746C196.285 25.5121 195.97 24.6296 195.89 23.7112C195.808 22.8535 195.92 21.9883 196.218 21.1799L196.322 20.9155C196.494 20.5051 196.712 20.1154 196.971 19.754C197.291 19.3054 197.668 18.9529 197.964 18.4643C198.279 18.051 198.44 17.5414 198.421 17.0224L203.948 17.5191L209.475 17.0224C209.456 17.5414 209.618 18.051 209.932 18.4643C210.228 18.9129 210.605 19.2654 210.925 19.754C211.261 20.2104 211.531 20.712 211.726 21.244C212 22.0359 212.101 22.8771 212.023 23.7112Z" fill="#438B56"/>
<path opacity="0.1" d="M205.07 21.6285C201.866 22.9903 198.381 22.013 196.931 21.4603C196.7 21.3749 196.475 21.2732 196.258 21.1559L196.306 21.0277C196.487 20.5678 196.724 20.1319 197.011 19.73C197.332 19.2814 197.708 18.9289 198.005 18.4403C198.319 18.027 198.481 17.5174 198.461 16.9984L203.988 17.4951L208.234 17.2067C208.322 17.7754 208.418 20.1946 205.07 21.6285Z" fill="#E5F9EA"/>
<path opacity="0.1" d="M212.023 23.7112C211.979 24.4358 211.777 25.1421 211.433 25.7812C211.088 26.4202 210.609 26.9767 210.028 27.4121C206.776 29.599 201.097 29.7191 197.9 27.4121C197.328 26.9688 196.854 26.4104 196.511 25.773C196.167 25.1355 195.961 24.4332 195.906 23.7112C195.89 23.4979 195.89 23.2837 195.906 23.0704C198.044 25.5697 202.186 26.3787 205.518 24.6725C207.289 23.7883 208.637 22.2386 209.267 20.3628C209.637 19.2729 209.687 18.0998 209.411 16.9824H209.556C209.536 17.5014 209.698 18.011 210.012 18.4243C210.309 18.8729 210.685 19.2253 211.006 19.714C211.818 20.8789 212.18 22.2995 212.023 23.7112Z" fill="black"/>
<path opacity="0.1" d="M211.927 24.3601C211.713 25.5847 211.032 26.6786 210.028 27.4121C207.489 29.1183 203.396 29.5669 200.151 28.5176C199.743 28.3573 199.35 28.1731 198.942 27.9728C198.124 27.56 197.401 26.9817 196.819 26.2746C196.301 25.5121 195.986 24.6296 195.906 23.7112C195.828 22.8483 195.94 21.9787 196.234 21.1639C197.187 21.6767 198.206 22.0568 199.262 22.2934C200.048 22.5119 200.853 22.6594 201.665 22.7339C203.868 22.9342 208.186 22.9983 211.687 21.228C211.983 22.244 212.065 23.3107 211.927 24.3601Z" fill="black"/>
<path opacity="0.2" d="M212.023 23.7112C211.979 24.4358 211.777 25.1421 211.433 25.7811C211.089 26.4202 210.609 26.9767 210.028 27.4121C206.776 29.5989 201.097 29.7191 197.9 27.4121C197.328 26.9688 196.855 26.4104 196.511 25.773C196.167 25.1355 195.961 24.4332 195.906 23.7112C195.906 23.4949 196.955 25.858 196.947 25.6177C199.31 28.4775 203.836 28.6297 207.361 27.0276C211.606 25.089 210.877 20.6191 209.972 18.4643C210.269 18.9049 210.645 19.2653 210.958 19.738C211.782 20.8899 212.16 22.3015 212.023 23.7112Z" fill="black"/>
<path opacity="0.3" d="M209.676 17.9677C202.595 19.9783 198.069 17.1666 198.029 16.7982L203.964 17.5031L209.492 17.0064C209.466 17.3376 209.53 17.6695 209.676 17.9677Z" fill="black"/>
<path d="M210.108 16.2053C210.121 16.5385 210.04 16.8686 209.876 17.1586C206.92 18.232 200.88 18.1679 198.052 17.1586C197.888 16.8686 197.808 16.5385 197.82 16.2053C198.781 16.8462 201.897 17.0064 203.964 17.0544C206.031 17.1025 209.147 16.8221 210.108 16.2053Z" fill="#438B56"/>
<path opacity="0.1" d="M208.274 17.6232H208.218C205.316 18.093 202.355 18.0659 199.462 17.5431C198.978 17.45 198.502 17.3215 198.036 17.1586C197.866 16.8707 197.782 16.5396 197.796 16.2053C198.94 16.6846 200.168 16.9324 201.409 16.9343C202.29 17.0064 203.187 17.0384 203.94 17.0544C205.303 17.0338 206.664 16.9402 208.018 16.7741H208.066C208.162 17.0384 208.218 17.6232 208.274 17.6232Z" fill="#438B56"/>
<path d="M210.108 16.2054C210.156 16.678 207.409 17.0705 203.964 17.0705C200.52 17.0705 197.772 16.678 197.82 16.2054C197.868 15.7327 200.616 15.4043 203.964 15.4043C207.313 15.4043 210.06 15.7407 210.108 16.2054Z" fill="#438B56"/>
<path opacity="0.2" d="M209.5 16.1173C209.5 16.4697 207.096 16.7501 204.044 16.7501C200.992 16.7501 198.549 16.4697 198.573 16.1173C198.597 15.7648 201.04 15.4924 204.036 15.4924C207.032 15.4924 209.484 15.7728 209.5 16.1173Z" fill="black"/>
<path opacity="0.3" d="M200.904 19.6499C200.835 19.8303 200.712 19.9849 200.551 20.0925C200.39 20.2 200.2 20.2553 200.007 20.2507C199.861 20.2633 199.713 20.2441 199.575 20.1943C199.437 20.1445 199.311 20.0654 199.206 19.9623C199.118 19.8742 198.846 19.4336 199.11 19.1612C199.323 19.0412 199.563 18.9781 199.807 18.9781C200.051 18.9781 200.291 19.0412 200.504 19.1612C200.912 19.3855 200.936 19.5137 200.904 19.6499Z" fill="#E5F9EA"/>
<path opacity="0.3" d="M200.079 19.025C200.528 19.0891 200.424 19.6739 199.951 19.6819C199.892 19.6889 199.833 19.6889 199.775 19.6819C199.31 19.6098 199.43 19.025 199.903 19.017C199.962 19.0118 200.021 19.0144 200.079 19.025Z" fill="#E5F9EA"/>
<path opacity="0.2" d="M201.369 16.9904C201.055 17.2132 200.697 17.3661 200.32 17.4389C200.057 17.5001 199.788 17.535 199.519 17.5431C199.034 17.45 198.558 17.3215 198.093 17.1586C197.97 16.9466 197.891 16.7124 197.86 16.4697C198.005 16.5194 198.156 16.5438 198.309 16.5418H198.533C198.533 16.5418 198.533 16.5978 198.645 16.6219L198.854 16.6699L199.559 16.7901L200.151 16.8622L200.664 16.9183L201.369 16.9904Z" fill="#E5F9EA"/>
<path opacity="0.2" d="M204.814 17.0705C204.315 17.568 203.643 17.8548 202.939 17.8716C202.583 17.9185 202.222 17.9185 201.866 17.8716L201.553 17.8235C201.127 17.747 200.712 17.615 200.32 17.431C199.989 17.3163 199.707 17.0933 199.519 16.7982C200.039 16.8703 200.664 16.9343 201.361 16.9824C202.058 17.0305 203.035 17.0625 203.956 17.0625H204.806L204.814 17.0705Z" fill="#E5F9EA"/>
<path opacity="0.3" d="M200.632 16.9343C200.619 16.9879 200.588 17.0355 200.544 17.069C200.501 17.1026 200.447 17.1201 200.392 17.1186C200.392 17.1186 200.055 17.1186 200.119 16.8782L200.632 16.9343Z" fill="#E5F9EA"/>
<path d="M212.079 39.6762H195.689C197.242 38.8093 198.99 38.3543 200.768 38.3545H207C208.778 38.3543 210.527 38.8093 212.079 39.6762Z" fill="#438B56"/>
<path opacity="0.3" d="M212.079 39.6762H195.689C197.242 38.8093 198.99 38.3543 200.768 38.3545H207C208.778 38.3543 210.527 38.8093 212.079 39.6762Z" fill="#E5F9EA"/>
<path d="M216.188 104.481C216.917 115.424 217.855 129.242 218.592 140.192C207.497 142.315 196.126 142.57 184.947 140.945C184.739 136.668 186.221 131.966 185.148 127.816C183.265 120.503 185.043 112.428 189.153 106.068C195.561 105.563 198.814 105.154 205.222 104.65C207.873 104.441 216.188 104.481 216.188 104.481Z" fill="#438B56"/>
<path opacity="0.2" d="M216.188 104.481C216.917 115.424 217.855 129.242 218.592 140.192C207.497 142.315 196.126 142.57 184.947 140.945C184.739 136.668 186.221 131.966 185.148 127.816C183.265 120.503 185.043 112.428 189.153 106.068C195.561 105.563 198.814 105.154 205.222 104.65C207.873 104.441 216.188 104.481 216.188 104.481Z" fill="#E5F9EA"/>
<path d="M202.611 48.608C202.569 48.62 202.524 48.62 202.482 48.608C202.432 48.5837 202.394 48.5409 202.374 48.4887C202.355 48.4365 202.356 48.3788 202.378 48.3276C202.574 47.9147 202.861 47.5517 203.218 47.2658C203.575 46.98 203.991 46.7788 204.437 46.6774C204.463 46.6675 204.492 46.6637 204.52 46.6663C204.548 46.669 204.575 46.678 204.599 46.6927C204.622 46.7074 204.643 46.7274 204.658 46.7511C204.673 46.7748 204.682 46.8017 204.685 46.8296C204.695 46.8847 204.685 46.9414 204.655 46.9889C204.625 47.0363 204.579 47.0709 204.525 47.086C204.142 47.1706 203.784 47.3426 203.478 47.5886C203.172 47.8345 202.928 48.1478 202.763 48.5038C202.746 48.5307 202.724 48.5538 202.698 48.5717C202.671 48.5896 202.642 48.6019 202.611 48.608Z" fill="#263238"/>
<path d="M210.237 45.58C210.205 45.5878 210.172 45.5878 210.14 45.58C209.814 45.4739 209.468 45.4432 209.128 45.4904C208.788 45.5376 208.463 45.6613 208.178 45.8523C208.131 45.8834 208.074 45.895 208.018 45.8845C207.963 45.874 207.914 45.8424 207.882 45.7963C207.851 45.7506 207.84 45.6946 207.85 45.6405C207.861 45.5865 207.892 45.5388 207.938 45.5079C208.275 45.279 208.661 45.1305 209.065 45.0735C209.469 45.0166 209.881 45.0528 210.269 45.1795C210.321 45.1978 210.364 45.2354 210.389 45.2845C210.415 45.3337 210.42 45.3907 210.405 45.4438C210.39 45.4785 210.367 45.509 210.338 45.5327C210.308 45.5564 210.274 45.5727 210.237 45.58Z" fill="#263238"/>
<path d="M205.871 49.353C205.999 49.7695 205.943 50.154 205.662 50.2822C205.382 50.4104 205.046 50.146 204.861 49.7295C204.677 49.3129 204.789 48.9284 205.07 48.8002C205.35 48.6721 205.735 48.9444 205.871 49.353Z" fill="#263238"/>
<path d="M205.006 48.8643L205.759 48.1754C205.759 48.1754 205.606 49.1046 205.006 48.8643Z" fill="#263238"/>
<path d="M210.541 48.2235C210.661 48.64 210.605 49.0245 210.333 49.1527C210.06 49.2808 209.708 49.0085 209.532 48.5999C209.355 48.1914 209.476 47.7989 209.748 47.6707C210.02 47.5426 210.373 47.7829 210.541 48.2235Z" fill="#263238"/>
<path d="M209.652 47.7268L210.413 47.0379C210.413 47.0379 210.252 47.9591 209.652 47.7268Z" fill="#263238"/>
<path opacity="0.1" d="M199.983 141.522L201.93 133.247C201.947 133.169 201.99 133.098 202.053 133.048C202.116 132.997 202.194 132.97 202.274 132.97C202.355 132.97 202.433 132.997 202.495 133.048C202.558 133.098 202.602 133.169 202.619 133.247L203.748 141.378L199.983 141.522Z" fill="black"/>
<path d="M145.792 236.599L143.269 247.269L148.083 247.574L150.839 236.92L145.792 236.599Z" fill="#FFB573"/>
<path d="M71.7986 250.129L82.1482 238.081L87.5553 241.854L75.0348 253.782L71.7986 250.129Z" fill="#FFB573"/>
<path d="M156.926 253.934C152.473 253.501 150.774 253.269 148.259 252.933C146.112 252.644 145.624 252.877 143.917 252.676C142.483 252.5 142.363 251.074 142.62 249.424C142.74 248.623 143.108 246.604 143.252 245.275L148.692 245.459C149.821 247.397 155.012 250.642 157.551 251.267C160.091 251.891 158.705 254.094 156.926 253.934Z" fill="#263238"/>
<path d="M75.956 264.26C73.3846 260.535 72.4474 259.077 71.0615 256.914C69.876 255.064 69.3873 254.847 68.4261 253.397C67.625 252.172 68.6183 251.122 70.0282 250.241C70.7171 249.793 72.4313 248.759 73.5128 247.99L76.9012 252.332C76.2043 254.495 77.1816 260.639 78.3671 263.01C79.5127 265.205 76.9813 265.742 75.956 264.26Z" fill="#263238"/>
<path d="M122.065 157.808L135.362 160.715C135.362 160.715 162.854 189.85 164.785 200.368C165.762 205.671 150.43 240.677 150.43 240.677L143.877 240.5C143.877 240.5 147.883 210.533 152.649 203.532L119.629 180.509C119.629 180.509 113.67 163.006 122.065 157.808Z" fill="#438B56"/>
<path opacity="0.5" d="M122.065 157.808L135.362 160.715C135.362 160.715 162.854 189.85 164.785 200.368C165.762 205.671 150.43 240.677 150.43 240.677L143.877 240.5C143.877 240.5 147.883 210.533 152.649 203.532L119.629 180.509C119.629 180.509 113.67 163.006 122.065 157.808Z" fill="#E5F9EA"/>
<path opacity="0.1" d="M140.769 195.016L120.214 172.787L119.541 179.885L140.769 195.016Z" fill="black"/>
<path d="M128.97 158.809C128.97 158.809 114.222 153.794 113.645 153.426C113.069 153.057 105.034 167.741 103.728 177.529C102.423 187.318 103.368 210.533 103.368 210.533C103.368 210.533 95.3254 215.483 89.8622 223.109L77.4138 242.431L82.116 247.574L111.274 221.732C114.745 218.96 117.141 215.065 118.051 210.717L128.97 158.809Z" fill="#438B56"/>
<path opacity="0.5" d="M128.97 158.809C128.97 158.809 114.222 153.794 113.645 153.426C113.069 153.057 105.034 167.741 103.728 177.529C102.423 187.318 103.368 210.533 103.368 210.533C103.368 210.533 95.3254 215.483 89.8622 223.109L77.4138 242.431L82.116 247.574L111.274 221.732C114.745 218.96 117.141 215.065 118.051 210.717L128.97 158.809Z" fill="#E5F9EA"/>
<path d="M131.589 127.368C132.342 127.744 132.999 128.064 133.712 128.377C134.425 128.689 135.098 128.978 135.827 129.282C137.237 129.843 138.678 130.363 140.176 130.844C143.247 131.891 146.446 132.514 149.685 132.695C150.606 132.727 151.528 132.678 152.441 132.55C153.472 132.416 154.477 132.124 155.42 131.685C157.209 130.834 158.742 129.527 159.866 127.896C160.851 126.469 161.598 124.892 162.077 123.226C162.31 122.437 162.495 121.634 162.63 120.823C162.707 120.424 162.755 120.019 162.774 119.613C162.774 119.197 162.83 118.812 162.854 118.348L159.314 117.763L158.921 118.644L158.497 119.549C158.2 120.158 157.888 120.735 157.543 121.312C156.942 122.367 156.201 123.337 155.34 124.195C154.671 124.881 153.847 125.395 152.937 125.693C152.527 125.813 152.106 125.885 151.68 125.91C151.145 125.929 150.61 125.913 150.077 125.862C148.821 125.725 147.578 125.486 146.361 125.149C145.079 124.82 143.789 124.404 142.491 123.947C141.194 123.49 139.904 122.978 138.606 122.465L136.676 121.664C136.051 121.392 135.37 121.103 134.833 120.863L131.589 127.368Z" fill="#FFB573"/>
<path d="M123.418 125.06C122.153 119.653 126.623 116.577 133.912 118.652C137.82 119.692 141.627 121.081 145.287 122.801L140.986 135.002C133.88 133.415 124.716 130.62 123.418 125.06Z" fill="#438B56"/>
<path opacity="0.1" d="M123.418 125.06C122.153 119.653 126.623 116.577 133.912 118.652C137.82 119.692 141.627 121.081 145.287 122.801L140.986 135.002C133.88 133.415 124.716 130.62 123.418 125.06Z" fill="black"/>
<path d="M158.408 116.393L158.873 113.758L163.487 116.385C163.487 116.385 162.886 120.919 160.659 120.583L159.674 119.645C159.248 119.222 158.915 118.714 158.697 118.153C158.479 117.593 158.38 116.994 158.408 116.393Z" fill="#FFB573"/>
<path d="M160.507 111.298L165.089 112.316L163.471 116.401L158.865 113.774L160.507 111.298Z" fill="#FFB573"/>
<path d="M124.404 117.09L118.115 116.481L110.361 117.515C109.182 117.666 108.085 118.203 107.242 119.042C106.399 119.881 105.857 120.974 105.699 122.153C105.042 126.903 105.699 155.212 107.093 163.807L111.723 164.288C119.341 164.857 129.09 163.599 136.211 160.82C136.211 160.82 136.604 129.699 136.548 123.675C136.539 122.493 136.142 121.346 135.418 120.411C134.695 119.477 133.684 118.805 132.542 118.5L124.404 117.09Z" fill="#438B56"/>
<path d="M113.75 117.531C113.657 118.666 113.995 119.796 114.695 120.695C115.391 121.594 116.198 122.402 117.098 123.098C118.195 124.019 119.501 124.996 120.911 124.748C122.321 124.5 122.93 123.819 123.394 122.241C124.596 123.995 124.684 124.892 125.926 124.956C126.325 124.918 126.711 124.792 127.057 124.589C127.403 124.386 127.7 124.109 127.928 123.779C128.807 122.988 129.339 121.883 129.41 120.703C129.602 118.404 127.656 116.361 125.453 115.648C123.223 115.012 120.922 114.662 118.604 114.607C116.577 114.431 114.054 115.167 113.75 117.531Z" fill="#438B56"/>
<path opacity="0.6" d="M113.75 117.531C113.657 118.666 113.995 119.796 114.695 120.695C115.391 121.594 116.198 122.402 117.098 123.098C118.195 124.019 119.501 124.996 120.911 124.748C122.321 124.5 122.93 123.819 123.394 122.241C124.596 123.995 124.684 124.892 125.926 124.956C126.325 124.918 126.711 124.792 127.057 124.589C127.403 124.386 127.7 124.109 127.928 123.779C128.807 122.988 129.339 121.883 129.41 120.703C129.602 118.404 127.656 116.361 125.453 115.648C123.223 115.012 120.922 114.662 118.604 114.607C116.577 114.431 114.054 115.167 113.75 117.531Z" fill="#E5F9EA"/>
<path d="M118.724 106.308L121.696 109.44L125.701 113.71C125.37 114.197 125.128 114.739 124.988 115.312C124.751 115.922 124.743 116.597 124.965 117.213C125.188 117.828 125.626 118.342 126.198 118.66C126.799 118.908 127.231 121.96 123.362 121.808C122.261 121.837 121.165 121.639 120.144 121.226C119.122 120.812 118.197 120.192 117.426 119.405C116.673 118.492 116.465 117.987 117.146 116.922C119.133 113.918 119.109 109.672 118.724 106.308Z" fill="#FFB573"/>
<path opacity="0.2" d="M124.756 112.652L122.193 109.552C122.193 109.648 122.137 109.752 122.113 109.864C122.015 110.321 121.954 110.784 121.928 111.25C121.856 112.852 123.434 114.815 124.932 115.624L125.028 115.304C125.175 114.764 125.393 114.247 125.677 113.766L125.749 113.694L124.756 112.652Z" fill="black"/>
<path d="M127.368 105.299C129.651 100.724 129.122 98.1531 131.373 95.6859C132.575 95.1331 134.713 97.336 133.352 101.133C131.99 104.93 127.368 105.299 127.368 105.299Z" fill="#263238"/>
<path d="M118.724 100.292C118.516 105.571 118.171 108.655 120.559 111.507C125.749 116.449 130.892 113.982 132.655 108.839C134.257 104.209 134.257 96.3507 129.314 93.8595C128.209 93.3077 126.982 93.0447 125.747 93.0948C124.513 93.145 123.311 93.5068 122.254 94.1465C121.197 94.7861 120.319 95.6829 119.702 96.7532C119.085 97.8235 118.748 99.0326 118.724 100.268V100.292Z" fill="#FFB573"/>
<path d="M118.155 104.986L120.414 105.427L121.344 102.022L123.675 100.66L124.476 97.6804C124.552 97.3833 124.565 97.0735 124.514 96.771C124.462 96.4686 124.348 96.1804 124.178 95.925C124.008 95.6697 123.786 95.4529 123.527 95.2889C123.268 95.1249 122.977 95.0172 122.673 94.9729C121.199 94.7566 119.421 94.5003 118.452 94.3801C117.803 94.308 115.56 96.0944 115.248 96.8313C114.824 97.8769 114.7 99.0199 114.89 100.132C115.079 101.244 115.575 102.281 116.321 103.128C116.872 103.804 117.487 104.426 118.155 104.986Z" fill="#263238"/>
<path d="M116.153 104.137C116.313 105.306 116.897 106.375 117.795 107.141C118.965 108.118 120.286 106.941 120.382 105.443C120.454 104.097 119.701 102.182 118.324 101.79C116.946 101.397 115.993 102.663 116.153 104.137Z" fill="#FFB573"/>
<path d="M127.472 103.064C127.416 103.504 127.592 103.865 127.88 103.945C128.169 104.025 128.409 103.688 128.497 103.256C128.585 102.823 128.385 102.455 128.097 102.375C127.808 102.295 127.536 102.631 127.472 103.064Z" fill="#263238"/>
<path d="M129.434 109.8C129.378 110.233 129.554 110.601 129.835 110.674C130.115 110.746 130.371 110.417 130.46 109.985C130.548 109.552 130.347 109.184 130.059 109.104C129.771 109.023 129.498 109.36 129.434 109.8Z" fill="#263238"/>
<path d="M131.814 103.696C131.749 104.137 131.934 104.497 132.214 104.578C132.494 104.658 132.775 104.313 132.839 103.889C132.903 103.464 132.719 103.088 132.438 103.007C132.158 102.927 131.878 103.264 131.814 103.696Z" fill="#263238"/>
<path d="M130.332 103.953C130.857 105.082 131.527 106.138 132.326 107.093C132.08 107.284 131.794 107.419 131.489 107.487C131.184 107.554 130.868 107.554 130.564 107.485L130.332 103.953Z" fill="#FF5652"/>
<path d="M126.086 101.854C126.043 101.844 126.004 101.821 125.974 101.79C125.926 101.741 125.899 101.674 125.899 101.606C125.899 101.537 125.926 101.471 125.974 101.421C126.266 101.138 126.623 100.931 127.014 100.818C127.405 100.705 127.818 100.689 128.217 100.773C128.281 100.791 128.337 100.834 128.371 100.892C128.405 100.95 128.416 101.019 128.401 101.085C128.38 101.15 128.336 101.206 128.277 101.24C128.217 101.274 128.147 101.284 128.08 101.269C127.768 101.207 127.445 101.222 127.139 101.313C126.833 101.403 126.554 101.567 126.326 101.79C126.295 101.821 126.257 101.843 126.215 101.854C126.172 101.865 126.128 101.865 126.086 101.854Z" fill="#263238"/>
<path d="M131.934 101.838C131.921 101.793 131.921 101.746 131.934 101.702C131.941 101.668 131.955 101.637 131.975 101.609C131.995 101.581 132.02 101.558 132.049 101.54C132.078 101.522 132.111 101.51 132.145 101.505C132.178 101.5 132.213 101.501 132.246 101.509C132.644 101.588 133.017 101.764 133.331 102.021C133.646 102.278 133.892 102.609 134.048 102.983C134.072 103.047 134.069 103.118 134.04 103.179C134.012 103.241 133.96 103.288 133.896 103.312C133.865 103.325 133.831 103.331 133.797 103.33C133.763 103.329 133.73 103.321 133.699 103.307C133.668 103.293 133.641 103.272 133.618 103.247C133.596 103.221 133.578 103.192 133.568 103.16C133.438 102.867 133.241 102.611 132.991 102.411C132.741 102.212 132.447 102.076 132.134 102.014C132.088 102.004 132.046 101.983 132.011 101.952C131.976 101.921 131.949 101.882 131.934 101.838Z" fill="#263238"/>
<path d="M98.0971 116.377C93.7714 115.055 91.1199 115.848 90.2708 113.133C89.4217 110.417 88.4684 95.4455 89.1333 95.2693C87.8997 95.6538 86.8263 96.0703 85.6007 96.4549C85.1521 100.572 84.6581 104.687 84.1187 108.799C83.7262 111.803 83.2456 116.673 84.4872 119.437C85.6087 121.928 93.0024 123.482 98.3535 124.508C99.9235 122.938 98.0971 116.377 98.0971 116.377Z" fill="#FFB573"/>
<path d="M111.723 124.62C115.464 120.494 112.524 116.81 105.186 115.071C101.268 114.079 97.2676 113.444 93.2346 113.173L91.5364 124.756C98.5296 126.815 107.894 128.833 111.723 124.62Z" fill="#438B56"/>
<path d="M90.351 98.842L91.6487 96.6711L85.8091 95.3734C85.8091 95.3734 83.2697 100.18 85.5367 101.093L86.9706 100.765C88.2122 100.5 89.7182 100.052 90.351 98.842Z" fill="#FFB573"/>
<path d="M90.9757 92.7299L87.5392 92.5778L85.8169 95.3734L91.6566 96.6711L90.9757 92.7299Z" fill="#FFB573"/>
<path d="M143.036 238.498C143.22 238.426 152.809 239.082 152.809 239.082L152.008 242.014L142.331 241.846L143.036 238.498Z" fill="#438B56"/>
<path d="M77.3258 241.045C77.51 241.117 84.0706 248.142 84.0706 248.142L81.4512 249.744L74.498 242.984L77.3258 241.045Z" fill="#438B56"/>
</svg>
