<svg width="115" height="85" viewBox="0 0 115 85" fill="none" xmlns="http://www.w3.org/2000/svg">
<path d="M114.076 74.6975H0V74.7546H114.076V74.6975Z" fill="#FAFAFA"/>
<path d="M96.5578 77.1791H90.8928V77.2362H96.5578V77.1791Z" fill="#E0E0E0"/>
<path d="M100.148 77.1495H98.2335V77.2066H100.148V77.1495Z" fill="#E0E0E0"/>
<path d="M75.7526 77.5329H63.891V77.59H75.7526V77.5329Z" fill="#E0E0E0"/>
<path d="M61.0912 78.151H59.323V78.2081H61.0912V78.151Z" fill="#E0E0E0"/>
<path d="M25.5413 76.3461H22.4932V76.4031H25.5413V76.3461Z" fill="#E0E0E0"/>
<path d="M42.2672 76.3461H26.8077V76.4031H42.2672V76.3461Z" fill="#E0E0E0"/>
<path d="M29.0896 77.7239H18.3345V77.781H29.0896V77.7239Z" fill="#E0E0E0"/>
<path d="M54.0721 64.5213H10.0183C9.67314 64.5207 9.34237 64.3832 9.09855 64.1389C8.85473 63.8947 8.71779 63.5637 8.71779 63.2185V1.29134C8.7208 0.948204 8.85906 0.620111 9.10256 0.378325C9.34605 0.136539 9.67511 0.000587807 10.0183 0H54.0721C54.4176 0 54.7489 0.137253 54.9932 0.381566C55.2376 0.625878 55.3748 0.957236 55.3748 1.30275V63.2185C55.3748 63.5641 55.2376 63.8954 54.9932 64.1397C54.7489 64.384 54.4176 64.5213 54.0721 64.5213ZM10.0183 0.0456305C9.68827 0.0462349 9.37201 0.177745 9.13888 0.411295C8.90576 0.644845 8.77483 0.961351 8.77483 1.29134V63.2185C8.77483 63.5485 8.90576 63.865 9.13888 64.0986C9.37201 64.3321 9.68827 64.4636 10.0183 64.4643H54.0721C54.4023 64.4636 54.7188 64.3322 54.9522 64.0987C55.1857 63.8652 55.3172 63.5487 55.3178 63.2185V1.29134C55.3172 0.961141 55.1857 0.644641 54.9522 0.411156C54.7188 0.177671 54.4023 0.0462336 54.0721 0.0456305H10.0183Z" fill="#E0E0E0"/>
<path d="M103.424 64.5213H59.3678C59.0225 64.5207 58.6915 64.3832 58.4473 64.1391C58.2031 63.8949 58.0657 63.5639 58.0651 63.2185V1.29134C58.0687 0.947996 58.2074 0.619906 58.4513 0.378183C58.6952 0.136459 59.0244 0.000581397 59.3678 0H103.424C103.767 0.00118741 104.095 0.137404 104.338 0.379126C104.581 0.620848 104.719 0.948598 104.722 1.29134V63.2185C104.722 63.5633 104.585 63.8939 104.342 64.1381C104.099 64.3823 103.769 64.5201 103.424 64.5213ZM59.3678 0.0456305C59.0376 0.0462336 58.7211 0.177671 58.4876 0.411156C58.2541 0.644641 58.1227 0.961141 58.1221 1.29134V63.2185C58.1227 63.5487 58.2541 63.8652 58.4876 64.0987C58.7211 64.3322 59.0376 64.4636 59.3678 64.4643H103.424C103.754 64.4636 104.071 64.3322 104.304 64.0987C104.538 63.8652 104.669 63.5487 104.67 63.2185V1.29134C104.669 0.961141 104.538 0.644641 104.304 0.411156C104.071 0.177671 103.754 0.0462336 103.424 0.0456305H59.3678Z" fill="#E0E0E0"/>
<path d="M77.9712 74.6975H86.0318V60.0685L77.9712 60.0685V74.6975Z" fill="#E0E0E0"/>
<path d="M95.6484 60.0681H86.0318V74.6972H95.6484V60.0681Z" fill="#EBEBEB"/>
<g style="mix-blend-mode:multiply" opacity="0.7">
<path d="M77.9713 61.9682H95.7329V61.3065L77.9713 61.3065V61.9682Z" fill="#E0E0E0"/>
</g>
<path d="M77.5263 61.583H86.0318V58.5349H77.5263V61.583Z" fill="#E0E0E0"/>
<path d="M96.0933 58.5367H86.0318V61.5848H96.0933V58.5367Z" fill="#EBEBEB"/>
<path d="M44.2747 4.33247H17.1407V36.7072H44.2747V4.33247Z" fill="#E0E0E0"/>
<path d="M45.5194 4.33247H17.7237V36.7072H45.5194V4.33247Z" fill="#EBEBEB"/>
<path d="M44.2747 36.7076H17.1407V39.0142H44.2747V36.7076Z" fill="#E0E0E0"/>
<path d="M47.5868 36.7076H19.7911V39.0142H47.5868V36.7076Z" fill="#EBEBEB"/>
<path d="M43.7802 34.9691V6.07142L19.4616 6.07142V34.9691H43.7802Z" fill="#F5F5F5"/>
<path d="M22.4449 34.9691L32.6455 6.07142H37.4595L27.2612 34.9691H22.4449Z" fill="#FAFAFA"/>
<path d="M20.2636 25.1653C20.2307 25.1647 20.1994 25.1512 20.1764 25.1277C20.1533 25.1043 20.1404 25.0727 20.1404 25.0398V7.20061C20.1404 7.16793 20.1534 7.1366 20.1765 7.11349C20.1996 7.09039 20.231 7.07741 20.2636 7.07741C20.2965 7.0774 20.3281 7.09031 20.3516 7.11335C20.375 7.13639 20.3885 7.16773 20.3891 7.20061V25.0398C20.3891 25.0731 20.3759 25.105 20.3524 25.1285C20.3288 25.1521 20.2969 25.1653 20.2636 25.1653Z" fill="#EBEBEB"/>
<path d="M28.2955 34.9691L38.4961 6.07142H40.3738L30.1732 34.9691H28.2955Z" fill="#FAFAFA"/>
<path d="M43.7773 34.9691V6.07142H43.556L43.556 34.9691H43.7773Z" fill="#E0E0E0"/>
<path d="M45.9273 8.29322H18.7955L18.6358 6.74635H45.7676L45.9273 8.29322Z" fill="#E0E0E0"/>
<path d="M45.9273 9.42752H18.7955L18.6358 7.87837H45.7676L45.9273 9.42752Z" fill="#E0E0E0"/>
<path d="M45.9273 10.7868H18.7955L18.6358 9.23763H45.7676L45.9273 10.7868Z" fill="#E0E0E0"/>
<path d="M45.9273 12.2994H18.7955L18.6358 10.7525H45.7676L45.9273 12.2994Z" fill="#E0E0E0"/>
<path d="M45.9273 14.1133H18.7955L18.6358 12.5641H45.7676L45.9273 14.1133Z" fill="#E0E0E0"/>
<path d="M45.9273 16.1511H18.7955L18.6358 14.6042H45.7676L45.9273 16.1511Z" fill="#E0E0E0"/>
<path d="M93.6254 4.33247H66.4914V36.7072H93.6254V4.33247Z" fill="#E0E0E0"/>
<path d="M94.8647 4.33247H67.069V36.7072H94.8647V4.33247Z" fill="#EBEBEB"/>
<path d="M93.6254 36.7076H66.4914V39.0142H93.6254V36.7076Z" fill="#E0E0E0"/>
<path d="M96.9344 36.7076H69.1387V39.0142H96.9344V36.7076Z" fill="#EBEBEB"/>
<path d="M93.1296 34.9691V6.07142L68.8109 6.07142V34.9691H93.1296Z" fill="#F5F5F5"/>
<path d="M71.795 34.9691L81.9956 6.07142H86.8096L76.609 34.9691H71.795Z" fill="#FAFAFA"/>
<path d="M69.6132 25.1653C69.5803 25.1647 69.549 25.1512 69.526 25.1277C69.5029 25.1043 69.49 25.0727 69.49 25.0398V7.20061C69.49 7.16793 69.503 7.1366 69.5261 7.11349C69.5492 7.09039 69.5805 7.07741 69.6132 7.07741C69.6459 7.07741 69.6772 7.09039 69.7003 7.11349C69.7234 7.1366 69.7364 7.16793 69.7364 7.20061V25.0398C69.7364 25.0727 69.7235 25.1043 69.7005 25.1277C69.6774 25.1512 69.6461 25.1647 69.6132 25.1653Z" fill="#EBEBEB"/>
<path d="M77.6446 34.9691L87.8452 6.07142H89.7206L79.5223 34.9691H77.6446Z" fill="#FAFAFA"/>
<path d="M93.1261 34.9691V6.07142H92.9048V34.9691H93.1261Z" fill="#E0E0E0"/>
<path d="M95.2754 8.29322H68.1436L67.9816 6.74635H95.1157L95.2754 8.29322Z" fill="#E0E0E0"/>
<path d="M95.2754 9.42752H68.1436L67.9816 7.87837H95.1157L95.2754 9.42752Z" fill="#E0E0E0"/>
<path d="M95.2754 10.7868H68.1436L67.9816 9.23763H95.1157L95.2754 10.7868Z" fill="#E0E0E0"/>
<path d="M95.2754 12.2994H68.1436L67.9816 10.7525H95.1157L95.2754 12.2994Z" fill="#E0E0E0"/>
<path d="M95.2754 14.1133H68.1436L67.9816 12.5641H95.1157L95.2754 14.1133Z" fill="#E0E0E0"/>
<path d="M95.2754 16.1511H68.1436L67.9816 14.6042H95.1157L95.2754 16.1511Z" fill="#E0E0E0"/>
<path d="M72.5617 54.1771H67.1431V74.697H72.5617V54.1771Z" fill="#E0E0E0"/>
<path d="M71.5297 74.6966H72.5587V72.1823H70.4506L71.5297 74.6966Z" fill="#F5F5F5"/>
<path d="M19.9772 54.1771H14.5586V74.697H19.9772V54.1771Z" fill="#E0E0E0"/>
<path d="M72.5622 54.1771H19.0789V73.3144H72.5622V54.1771Z" fill="#F5F5F5"/>
<path d="M46.1633 55.1348V68.8011H71.7619V55.1348H46.1633Z" fill="#E0E0E0"/>
<path d="M19.8765 55.1348V68.8011H45.4751V55.1348H19.8765Z" fill="#E0E0E0"/>
<path d="M71.7609 71.6895V70.1677H46.1623V71.6895H71.7609Z" fill="#E0E0E0"/>
<path d="M45.4736 71.6917V70.1699H19.875V71.6917H45.4736Z" fill="#E0E0E0"/>
<path d="M41.691 55.9521H23.6671C23.2669 55.9524 22.8707 55.8717 22.5026 55.7148C22.1344 55.558 21.8018 55.3283 21.5247 55.0395H43.8425C43.5644 55.3294 43.2303 55.5598 42.8604 55.7166C42.4906 55.8735 42.0928 55.9536 41.691 55.9521Z" fill="#F5F5F5"/>
<path d="M68.0728 55.9521H50.0488C49.6486 55.9524 49.2525 55.8717 48.8843 55.7148C48.5162 55.558 48.1835 55.3283 47.9065 55.0395H70.2243C69.9466 55.33 69.6126 55.5608 69.2427 55.7177C68.8727 55.8747 68.4746 55.9544 68.0728 55.9521Z" fill="#F5F5F5"/>
<path d="M20.1082 74.6966H19.0769V72.1823H21.1851L20.1082 74.6966Z" fill="#F5F5F5"/>
<g style="mix-blend-mode:multiply" opacity="0.4">
<path d="M58.3051 41.5788H52.2728V54.1774H58.3051V41.5788Z" fill="#E0E0E0"/>
</g>
<path d="M63.3729 54.1768H53.1631L52.2026 40.5721H62.4101L63.3729 54.1768Z" fill="#E0E0E0"/>
<path d="M64.535 54.1768H53.4537L52.4932 40.5721H63.5722L64.535 54.1768Z" fill="#F5F5F5"/>
<path d="M53.9672 53.6567L53.0797 41.0924H63.0613L63.9511 53.6567H53.9672Z" fill="#FAFAFA"/>
<path d="M56.3836 50.8441L55.8931 43.906H60.6455L61.136 50.8441H56.3836Z" fill="#F5F5F5"/>
<path d="M36.3558 51.9433C37.82 51.9433 39.0069 50.7564 39.0069 49.2922C39.0069 47.828 37.82 46.6411 36.3558 46.6411C34.8916 46.6411 33.7047 47.828 33.7047 49.2922C33.7047 50.7564 34.8916 51.9433 36.3558 51.9433Z" fill="#EBEBEB"/>
<path d="M40.8956 53.207C42.3598 53.207 43.5467 52.0201 43.5467 50.5559C43.5467 49.0917 42.3598 47.9048 40.8956 47.9048C39.4314 47.9048 38.2445 49.0917 38.2445 50.5559C38.2445 52.0201 39.4314 53.207 40.8956 53.207Z" fill="#EBEBEB"/>
<path d="M45.4084 51.0843C46.3113 50.7123 46.7417 49.6788 46.3697 48.7759C45.9978 47.873 44.9643 47.4425 44.0614 47.8145C43.1584 48.1865 42.728 49.22 43.1 50.1229C43.472 51.0258 44.5055 51.4562 45.4084 51.0843Z" fill="#EBEBEB"/>
<path d="M40.757 47.973C40.9132 47.0091 40.2583 46.101 39.2943 45.9449C38.3303 45.7888 37.4223 46.4437 37.2662 47.4076C37.11 48.3716 37.7649 49.2796 38.7289 49.4358C39.6929 49.5919 40.6009 48.937 40.757 47.973Z" fill="#EBEBEB"/>
<path d="M32.1171 50.0815C32.1171 50.0815 32.3248 54.1768 40.2804 54.1768C48.236 54.1768 48.4437 50.0815 48.4437 50.0815H32.1171Z" fill="#E0E0E0"/>
<path d="M24.7703 52.7733C24.7703 52.7733 22.1785 48.3061 25.7742 44.7492C25.7742 44.7492 26.7119 45.3607 26.6868 46.1843C26.6617 47.0079 25.6806 47.2133 25.8928 47.9C26.105 48.5868 27.0336 49.2689 26.429 49.8279C25.8244 50.3869 26.5271 50.8979 26.486 51.5938C26.4449 52.2897 24.7703 52.7733 24.7703 52.7733Z" fill="#E0E0E0"/>
<path d="M24.967 53.1821C24.967 53.1821 26.0165 48.1262 21.4832 45.8812C21.4832 45.8812 20.785 46.7596 21.0588 47.5353C21.3326 48.311 22.3365 48.1947 22.3524 48.9042C22.3684 49.6138 21.6908 50.556 22.4528 50.9005C23.2148 51.245 22.6969 51.95 22.9547 52.5957C23.2126 53.2414 24.967 53.1821 24.967 53.1821Z" fill="#E0E0E0"/>
<path d="M20.9908 50.8439C20.9908 50.8439 21.0775 54.1772 24.3811 54.1772C27.6847 54.1772 27.7714 50.8439 27.7714 50.8439H20.9908Z" fill="#EBEBEB"/>
<path d="M57.0374 85C81.4685 85 101.274 83.8437 101.274 82.4173C101.274 80.9909 81.4685 79.8346 57.0374 79.8346C32.6063 79.8346 12.8011 80.9909 12.8011 82.4173C12.8011 83.8437 32.6063 85 57.0374 85Z" fill="#F5F5F5"/>
<path d="M41.1701 49.6084C41.0348 49.5996 40.908 49.5396 40.8153 49.4406C40.7227 49.3417 40.6711 49.2112 40.6711 49.0757C40.6711 48.9401 40.7227 48.8096 40.8153 48.7107C40.908 48.6118 41.0348 48.5518 41.1701 48.5429C42.4751 48.5429 43.5748 46.6744 43.5748 44.4613C43.5837 44.326 43.6437 44.1992 43.7426 44.1065C43.8415 44.0139 43.972 43.9623 44.1076 43.9623C44.2431 43.9623 44.3736 44.0139 44.4725 44.1065C44.5715 44.1992 44.6314 44.326 44.6403 44.4613C44.6403 47.3474 43.1208 49.6084 41.1701 49.6084Z" fill="#43744B"/>
<path d="M49.2214 49.6084C49.0861 49.5996 48.9593 49.5396 48.8666 49.4406C48.774 49.3417 48.7224 49.2112 48.7224 49.0757C48.7224 48.9401 48.774 48.8096 48.8666 48.7107C48.9593 48.6118 49.0861 48.5518 49.2214 48.5429C50.5264 48.5429 51.6261 46.6744 51.6261 44.4613C51.635 44.326 51.6949 44.1992 51.7939 44.1065C51.8928 44.0139 52.0233 43.9623 52.1588 43.9623C52.2944 43.9623 52.4249 44.0139 52.5238 44.1065C52.6227 44.1992 52.6827 44.326 52.6916 44.4613C52.703 47.3474 51.1675 49.6084 49.2214 49.6084Z" fill="#43744B"/>
<path d="M57.2662 49.6091C57.1309 49.6003 57.0041 49.5403 56.9114 49.4414C56.8188 49.3424 56.7672 49.212 56.7672 49.0764C56.7672 48.9409 56.8188 48.8104 56.9114 48.7114C57.0041 48.6125 57.1309 48.5525 57.2662 48.5437C58.569 48.5437 59.6709 46.6751 59.6709 44.462C59.6709 44.3211 59.7269 44.1858 59.8266 44.0862C59.9263 43.9865 60.0615 43.9305 60.2025 43.9305C60.3435 43.9305 60.4787 43.9865 60.5784 44.0862C60.6781 44.1858 60.7341 44.3211 60.7341 44.462C60.741 47.3482 59.2192 49.6091 57.2662 49.6091Z" fill="#43744B"/>
<path d="M65.3245 49.6091C65.2516 49.6139 65.1785 49.6037 65.1097 49.5791C65.041 49.5545 64.978 49.516 64.9247 49.4661C64.8713 49.4161 64.8289 49.3558 64.7998 49.2888C64.7707 49.2217 64.7558 49.1495 64.7558 49.0764C64.7558 49.0034 64.7707 48.9311 64.7998 48.8641C64.8289 48.7971 64.8713 48.7367 64.9247 48.6868C64.978 48.6368 65.041 48.5984 65.1097 48.5738C65.1785 48.5491 65.2516 48.5389 65.3245 48.5437C66.6273 48.5437 67.7292 46.6751 67.7292 44.462C67.7292 44.3211 67.7852 44.1858 67.8849 44.0862C67.9846 43.9865 68.1198 43.9305 68.2608 43.9305C68.4018 43.9305 68.537 43.9865 68.6367 44.0862C68.7364 44.1858 68.7924 44.3211 68.7924 44.462C68.7924 47.3482 67.2684 49.6091 65.3245 49.6091Z" fill="#43744B"/>
<path d="M73.3741 49.6084C73.2389 49.5996 73.1121 49.5396 73.0194 49.4406C72.9267 49.3417 72.8752 49.2112 72.8752 49.0757C72.8752 48.9401 72.9267 48.8096 73.0194 48.7107C73.1121 48.6118 73.2389 48.5518 73.3741 48.5429C74.6792 48.5429 75.7789 46.6744 75.7789 44.4613C75.7877 44.326 75.8477 44.1992 75.9466 44.1065C76.0456 44.0139 76.176 43.9623 76.3116 43.9623C76.4472 43.9623 76.5776 44.0139 76.6766 44.1065C76.7755 44.1992 76.8355 44.326 76.8443 44.4613C76.8443 47.3474 75.3203 49.6084 73.3741 49.6084Z" fill="#43744B"/>
<path d="M81.425 49.6084C81.2897 49.5996 81.1629 49.5396 81.0702 49.4406C80.9775 49.3417 80.926 49.2112 80.926 49.0757C80.926 48.9401 80.9775 48.8096 81.0702 48.7107C81.1629 48.6118 81.2897 48.5518 81.425 48.5429C82.7277 48.5429 83.8297 46.6744 83.8297 44.4613C83.8385 44.326 83.8985 44.1992 83.9974 44.1065C84.0964 44.0139 84.2269 43.9623 84.3624 43.9623C84.498 43.9623 84.6284 44.0139 84.7274 44.1065C84.8263 44.1992 84.8863 44.326 84.8951 44.4613C84.8951 47.3474 83.3711 49.6084 81.425 49.6084Z" fill="#43744B"/>
<g opacity="0.3">
<path d="M41.1701 49.6077C41.0348 49.5988 40.908 49.5388 40.8153 49.4399C40.7227 49.341 40.6711 49.2105 40.6711 49.0749C40.6711 48.9394 40.7227 48.8089 40.8153 48.71C40.908 48.611 41.0348 48.5511 41.1701 48.5422C42.4751 48.5422 43.5748 46.6736 43.5748 44.4606C43.5837 44.3253 43.6437 44.1985 43.7426 44.1058C43.8415 44.0131 43.972 43.9616 44.1076 43.9616C44.2431 43.9616 44.3736 44.0131 44.4725 44.1058C44.5715 44.1985 44.6314 44.3253 44.6403 44.4606C44.6403 47.3467 43.1208 49.6077 41.1701 49.6077Z" fill="black"/>
<path d="M49.2219 49.6084C49.0866 49.5996 48.9598 49.5396 48.8671 49.4406C48.7744 49.3417 48.7229 49.2112 48.7229 49.0757C48.7229 48.9401 48.7744 48.8096 48.8671 48.7107C48.9598 48.6118 49.0866 48.5518 49.2219 48.5429C50.5269 48.5429 51.6266 46.6744 51.6266 44.4613C51.6355 44.326 51.6954 44.1992 51.7944 44.1065C51.8933 44.0139 52.0238 43.9623 52.1593 43.9623C52.2949 43.9623 52.4254 44.0139 52.5243 44.1065C52.6232 44.1992 52.6832 44.326 52.6921 44.4613C52.7035 47.3474 51.168 49.6084 49.2219 49.6084Z" fill="black"/>
<path d="M57.2662 49.6091C57.1309 49.6003 57.0041 49.5403 56.9114 49.4414C56.8188 49.3424 56.7672 49.212 56.7672 49.0764C56.7672 48.9409 56.8188 48.8104 56.9114 48.7114C57.0041 48.6125 57.1309 48.5525 57.2662 48.5437C58.569 48.5437 59.6709 46.6751 59.6709 44.462C59.6709 44.3211 59.7269 44.1858 59.8266 44.0862C59.9263 43.9865 60.0615 43.9305 60.2025 43.9305C60.3435 43.9305 60.4787 43.9865 60.5784 44.0862C60.6781 44.1858 60.7341 44.3211 60.7341 44.462C60.741 47.3482 59.2192 49.6091 57.2662 49.6091Z" fill="black"/>
<path d="M65.3245 49.6091C65.2516 49.6139 65.1785 49.6037 65.1097 49.5791C65.041 49.5545 64.978 49.516 64.9247 49.4661C64.8713 49.4161 64.8289 49.3558 64.7998 49.2888C64.7707 49.2217 64.7558 49.1495 64.7558 49.0764C64.7558 49.0034 64.7707 48.9311 64.7998 48.8641C64.8289 48.7971 64.8713 48.7367 64.9247 48.6868C64.978 48.6368 65.041 48.5984 65.1097 48.5738C65.1785 48.5491 65.2516 48.5389 65.3245 48.5437C66.6273 48.5437 67.7292 46.6751 67.7292 44.462C67.7292 44.3211 67.7852 44.1858 67.8849 44.0862C67.9846 43.9865 68.1198 43.9305 68.2608 43.9305C68.4018 43.9305 68.537 43.9865 68.6367 44.0862C68.7364 44.1858 68.7924 44.3211 68.7924 44.462C68.7924 47.3482 67.2684 49.6091 65.3245 49.6091Z" fill="black"/>
<path d="M73.3741 49.6084C73.2389 49.5996 73.1121 49.5396 73.0194 49.4406C72.9267 49.3417 72.8752 49.2112 72.8752 49.0757C72.8752 48.9401 72.9267 48.8096 73.0194 48.7107C73.1121 48.6118 73.2389 48.5518 73.3741 48.5429C74.6792 48.5429 75.7789 46.6744 75.7789 44.4613C75.7877 44.326 75.8477 44.1992 75.9466 44.1065C76.0456 44.0139 76.176 43.9623 76.3116 43.9623C76.4472 43.9623 76.5776 44.0139 76.6766 44.1065C76.7755 44.1992 76.8355 44.326 76.8443 44.4613C76.8443 47.3474 75.3203 49.6084 73.3741 49.6084Z" fill="black"/>
<path d="M81.425 49.6084C81.2897 49.5996 81.1629 49.5396 81.0702 49.4406C80.9775 49.3417 80.926 49.2112 80.926 49.0757C80.926 48.9401 80.9775 48.8096 81.0702 48.7107C81.1629 48.6118 81.2897 48.5518 81.425 48.5429C82.7277 48.5429 83.8297 46.6744 83.8297 44.4613C83.8385 44.326 83.8985 44.1992 83.9974 44.1065C84.0964 44.0139 84.2269 43.9623 84.3624 43.9623C84.498 43.9623 84.6284 44.0139 84.7274 44.1065C84.8263 44.1992 84.8863 44.326 84.8951 44.4613C84.8951 47.3474 83.3711 49.6084 81.425 49.6084Z" fill="black"/>
</g>
<path d="M36.1265 45.0076H87.958C88.6529 45.0215 89.3189 45.2885 89.831 45.7586C90.343 46.2286 90.6659 46.8694 90.7391 47.5606L93.6093 79.9194C93.6442 80.244 93.6098 80.5724 93.5083 80.8828C93.4068 81.1932 93.2406 81.4785 93.0206 81.7199C92.8006 81.9612 92.5319 82.1531 92.2322 82.2828C91.9325 82.4125 91.6087 82.4771 91.2821 82.4724H39.4484C38.7537 82.4575 38.0883 82.1901 37.5764 81.7202C37.0646 81.2504 36.7413 80.6102 36.6672 79.9194L33.7993 47.5606C33.764 47.2358 33.7982 46.9073 33.8995 46.5967C34.0009 46.2862 34.1671 46.0007 34.3872 45.7593C34.6072 45.5179 34.8761 45.326 35.176 45.1964C35.4759 45.0668 35.7998 45.0024 36.1265 45.0076Z" fill="#43744B"/>
<path opacity="0.4" d="M36.1265 45.0076H87.958C88.6529 45.0215 89.3189 45.2885 89.831 45.7586C90.343 46.2286 90.6659 46.8694 90.7391 47.5606L93.6093 79.9194C93.6442 80.244 93.6098 80.5724 93.5083 80.8828C93.4068 81.1932 93.2406 81.4785 93.0206 81.7199C92.8006 81.9612 92.5319 82.1531 92.2322 82.2828C91.9325 82.4125 91.6087 82.4771 91.2821 82.4724H39.4484C38.7537 82.4575 38.0883 82.1901 37.5764 81.7202C37.0646 81.2504 36.7413 80.6102 36.6672 79.9194L33.7993 47.5606C33.764 47.2358 33.7982 46.9073 33.8995 46.5967C34.0009 46.2862 34.1671 46.0007 34.3872 45.7593C34.6072 45.5179 34.8761 45.326 35.176 45.1964C35.4759 45.0668 35.7998 45.0024 36.1265 45.0076Z" fill="#FAFAFA"/>
<path d="M87.5246 45.0078H35.6908C35.0052 45.016 34.3483 45.2841 33.8528 45.758C33.3573 46.2319 33.0602 46.8763 33.0215 47.5608L31.5613 79.9196C31.5439 80.2493 31.594 80.579 31.7085 80.8886C31.823 81.1982 31.9995 81.4812 32.2272 81.7202C32.4549 81.9592 32.729 82.1492 33.0327 82.2786C33.3364 82.408 33.6633 82.474 33.9934 82.4726H85.8317C86.5173 82.4645 87.1743 82.1963 87.6698 81.7224C88.1653 81.2485 88.4624 80.6042 88.5011 79.9196L89.9636 47.5608C89.9806 47.2307 89.9301 46.9005 89.8151 46.5906C89.7001 46.2807 89.5229 45.9975 89.2946 45.7585C89.0662 45.5194 88.7914 45.3295 88.4871 45.2005C88.1827 45.0714 87.8552 45.0058 87.5246 45.0078Z" fill="#43744B"/>
<path opacity="0.2" d="M87.5246 45.0078H35.6908C35.0052 45.016 34.3483 45.2841 33.8528 45.758C33.3573 46.2319 33.0602 46.8763 33.0215 47.5608L31.5613 79.9196C31.5439 80.2493 31.594 80.579 31.7085 80.8886C31.823 81.1982 31.9995 81.4812 32.2272 81.7202C32.4549 81.9592 32.729 82.1492 33.0327 82.2786C33.3364 82.408 33.6633 82.474 33.9934 82.4726H85.8317C86.5173 82.4645 87.1743 82.1963 87.6698 81.7224C88.1653 81.2485 88.4624 80.6042 88.5011 79.9196L89.9636 47.5608C89.9806 47.2307 89.9301 46.9005 89.8151 46.5906C89.7001 46.2807 89.5229 45.9975 89.2946 45.7585C89.0662 45.5194 88.7914 45.3295 88.4871 45.2005C88.1827 45.0714 87.8552 45.0058 87.5246 45.0078Z" fill="#FAFAFA"/>
<path d="M36.6439 73.921L37.8508 47.1976C37.8653 46.9354 37.979 46.6886 38.1688 46.5072C38.3587 46.3259 38.6104 46.2236 38.8729 46.2211H84.2363C84.3628 46.2203 84.4881 46.2453 84.6045 46.2947C84.721 46.344 84.8261 46.4167 84.9135 46.5081C85.0008 46.5995 85.0686 46.7078 85.1126 46.8264C85.1567 46.945 85.176 47.0713 85.1695 47.1976L83.9603 73.921C83.9458 74.1831 83.8321 74.4299 83.6423 74.6113C83.4524 74.7926 83.2007 74.8949 82.9381 74.8974H37.577C37.4506 74.8982 37.3253 74.8732 37.2088 74.8238C37.0924 74.7745 36.9873 74.7018 36.8999 74.6104C36.8125 74.519 36.7447 74.4107 36.7007 74.2921C36.6567 74.1736 36.6374 74.0473 36.6439 73.921Z" fill="#43744B"/>
<path opacity="0.1" d="M36.6439 73.921L37.8508 47.1976C37.8653 46.9354 37.979 46.6886 38.1688 46.5072C38.3587 46.3259 38.6104 46.2236 38.8729 46.2211H84.2363C84.3628 46.2203 84.4881 46.2453 84.6045 46.2947C84.721 46.344 84.8261 46.4167 84.9135 46.5081C85.0008 46.5995 85.0686 46.7078 85.1126 46.8264C85.1567 46.945 85.176 47.0713 85.1695 47.1976L83.9603 73.921C83.9458 74.1831 83.8321 74.4299 83.6423 74.6113C83.4524 74.7926 83.2007 74.8949 82.9381 74.8974H37.577C37.4506 74.8982 37.3253 74.8732 37.2088 74.8238C37.0924 74.7745 36.9873 74.7018 36.8999 74.6104C36.8125 74.519 36.7447 74.4107 36.7007 74.2921C36.6567 74.1736 36.6374 74.0473 36.6439 73.921Z" fill="#FAFAFA"/>
<path opacity="0.1" d="M35.3642 76.1026L36.6304 48.04C36.645 47.7647 36.764 47.5054 36.9633 47.315C37.1626 47.1246 37.4271 47.0175 37.7027 47.0156H85.3408C85.4736 47.0144 85.6051 47.0405 85.7274 47.0922C85.8497 47.1439 85.9601 47.2201 86.0518 47.316C86.1435 47.412 86.2146 47.5258 86.2606 47.6503C86.3067 47.7748 86.3268 47.9074 86.3196 48.04L85.0511 76.1026C85.0366 76.3777 84.9179 76.6369 84.7191 76.8276C84.5204 77.0183 84.2565 77.1262 83.981 77.1293H36.3384C36.2057 77.1302 36.0743 77.1038 35.9522 77.0518C35.8302 76.9998 35.7201 76.9234 35.6288 76.8271C35.5374 76.7309 35.4668 76.6169 35.4213 76.4923C35.3758 76.3677 35.3564 76.2351 35.3642 76.1026Z" fill="black"/>
<path d="M34.1872 78.3655L35.5082 49.0936C35.526 48.8074 35.6508 48.5383 35.858 48.34C36.0652 48.1418 36.3394 48.0288 36.6262 48.0236H86.3199C86.4585 48.0224 86.5959 48.0497 86.7236 48.1037C86.8513 48.1577 86.9666 48.2373 87.0624 48.3375C87.1581 48.4378 87.2324 48.5566 87.2804 48.6866C87.3285 48.8167 87.3495 48.9552 87.342 49.0936L86.0142 78.3655C85.9964 78.6517 85.8715 78.9207 85.6644 79.119C85.4572 79.3173 85.1829 79.4303 84.8962 79.4355H35.2094C35.0706 79.437 34.9331 79.4099 34.8052 79.356C34.6774 79.3022 34.5619 79.2226 34.4661 79.1223C34.3703 79.0219 34.2961 78.903 34.2481 78.7728C34.2001 78.6426 34.1794 78.504 34.1872 78.3655Z" fill="#FAFAFA"/>
<path d="M81.4176 49.7781C81.3241 49.7783 81.2316 49.7593 81.1458 49.7224C81.0599 49.6855 80.9826 49.6313 80.9185 49.5634C80.8543 49.4954 80.8048 49.415 80.7729 49.3272C80.741 49.2393 80.7275 49.1459 80.7331 49.0526C80.7418 48.8696 80.8201 48.6968 80.952 48.5695C81.0839 48.4423 81.2594 48.3703 81.4427 48.3681C81.5361 48.368 81.6286 48.3869 81.7144 48.4239C81.8003 48.4608 81.8776 48.5149 81.9418 48.5829C82.0059 48.6509 82.0554 48.7313 82.0873 48.8191C82.1192 48.907 82.1327 49.0004 82.1271 49.0937C82.1184 49.2767 82.0401 49.4495 81.9082 49.5767C81.7763 49.704 81.6008 49.776 81.4176 49.7781Z" fill="#43744B"/>
<path d="M73.3658 49.7781C73.2723 49.7783 73.1798 49.7593 73.094 49.7224C73.0082 49.6855 72.9308 49.6313 72.8667 49.5634C72.8025 49.4954 72.753 49.415 72.7211 49.3272C72.6893 49.2393 72.6757 49.1459 72.6813 49.0526C72.69 48.8696 72.7683 48.6968 72.9002 48.5695C73.0321 48.4423 73.2076 48.3703 73.3909 48.3681C73.4843 48.368 73.5768 48.3869 73.6626 48.4239C73.7485 48.4608 73.8258 48.5149 73.89 48.5829C73.9541 48.6509 74.0036 48.7313 74.0355 48.8191C74.0674 48.907 74.0809 49.0004 74.0753 49.0937C74.0672 49.2769 73.989 49.45 73.857 49.5774C73.725 49.7047 73.5492 49.7766 73.3658 49.7781Z" fill="#43744B"/>
<path d="M65.315 49.7781C65.2215 49.7783 65.129 49.7593 65.0432 49.7224C64.9574 49.6855 64.88 49.6313 64.8159 49.5634C64.7518 49.4954 64.7022 49.415 64.6703 49.3272C64.6385 49.2393 64.6249 49.1459 64.6305 49.0526C64.6398 48.8697 64.7183 48.6973 64.85 48.5701C64.9818 48.443 65.157 48.3708 65.3401 48.3681C65.4335 48.368 65.526 48.3869 65.6119 48.4239C65.6977 48.4608 65.775 48.5149 65.8392 48.5829C65.9033 48.6509 65.9528 48.7313 65.9847 48.8191C66.0166 48.907 66.0301 49.0004 66.0245 49.0937C66.0164 49.2769 65.9382 49.45 65.8062 49.5774C65.6742 49.7047 65.4984 49.7766 65.315 49.7781Z" fill="#43744B"/>
<path d="M57.2661 49.7781C57.1727 49.7783 57.0802 49.7593 56.9944 49.7224C56.9085 49.6855 56.8312 49.6313 56.767 49.5634C56.7029 49.4954 56.6534 49.415 56.6215 49.3272C56.5896 49.2393 56.5761 49.1459 56.5817 49.0526C56.5915 48.8695 56.6705 48.697 56.8026 48.57C56.9347 48.4429 57.1102 48.3708 57.2935 48.3681C57.387 48.368 57.4794 48.3869 57.5653 48.4239C57.6511 48.4608 57.7285 48.5149 57.7926 48.5829C57.8567 48.6509 57.9063 48.7313 57.9381 48.8191C57.97 48.907 57.9836 49.0004 57.978 49.0937C57.9698 49.2773 57.8913 49.4507 57.7588 49.5781C57.6263 49.7055 57.4499 49.7771 57.2661 49.7781Z" fill="#43744B"/>
<path d="M49.2144 49.7781C49.1209 49.7783 49.0284 49.7593 48.9426 49.7224C48.8567 49.6855 48.7794 49.6313 48.7153 49.5634C48.6511 49.4954 48.6016 49.415 48.5697 49.3272C48.5378 49.2393 48.5243 49.1459 48.5299 49.0526C48.5386 48.8696 48.6169 48.6968 48.7488 48.5695C48.8807 48.4423 49.0562 48.3703 49.2395 48.3681C49.3329 48.368 49.4254 48.3869 49.5112 48.4239C49.5971 48.4608 49.6744 48.5149 49.7386 48.5829C49.8027 48.6509 49.8522 48.7313 49.8841 48.8191C49.916 48.907 49.9295 49.0004 49.9239 49.0937C49.9152 49.2767 49.8369 49.4495 49.705 49.5767C49.5731 49.704 49.3976 49.776 49.2144 49.7781Z" fill="#43744B"/>
<path d="M41.1626 49.7781C41.0691 49.7783 40.9766 49.7593 40.8908 49.7224C40.805 49.6855 40.7276 49.6313 40.6635 49.5634C40.5994 49.4954 40.5498 49.415 40.5179 49.3272C40.4861 49.2393 40.4725 49.1459 40.4781 49.0526C40.4868 48.8696 40.5651 48.6968 40.697 48.5695C40.8289 48.4423 41.0044 48.3703 41.1877 48.3681C41.2811 48.368 41.3736 48.3869 41.4595 48.4239C41.5453 48.4608 41.6227 48.5149 41.6868 48.5829C41.7509 48.6509 41.8004 48.7313 41.8323 48.8191C41.8642 48.907 41.8777 49.0004 41.8721 49.0937C41.864 49.2769 41.7858 49.45 41.6538 49.5774C41.5218 49.7047 41.346 49.7766 41.1626 49.7781Z" fill="#43744B"/>
<g opacity="0.1">
<path d="M81.4177 49.7783C81.3242 49.7785 81.2317 49.7595 81.1459 49.7226C81.0601 49.6856 80.9827 49.6315 80.9186 49.5635C80.8545 49.4956 80.8049 49.4152 80.773 49.3273C80.7412 49.2395 80.7276 49.1461 80.7332 49.0528C80.7419 48.8697 80.8202 48.6969 80.9521 48.5697C81.084 48.4425 81.2595 48.3705 81.4428 48.3683C81.5362 48.3682 81.6287 48.3871 81.7145 48.4241C81.8004 48.461 81.8778 48.5151 81.9419 48.5831C82.006 48.6511 82.0555 48.7315 82.0874 48.8193C82.1193 48.9071 82.1328 49.0006 82.1272 49.0939C82.1185 49.2769 82.0402 49.4497 81.9083 49.5769C81.7764 49.7042 81.6009 49.7762 81.4177 49.7783Z" fill="#FAFAFA"/>
<path d="M73.3659 49.7783C73.2725 49.7785 73.18 49.7595 73.0941 49.7226C73.0083 49.6856 72.9309 49.6315 72.8668 49.5635C72.8027 49.4956 72.7531 49.4152 72.7213 49.3273C72.6894 49.2395 72.6758 49.1461 72.6814 49.0528C72.6902 48.8697 72.7685 48.6969 72.9004 48.5697C73.0322 48.4425 73.2078 48.3705 73.391 48.3683C73.4844 48.3682 73.5769 48.3871 73.6628 48.4241C73.7486 48.461 73.826 48.5151 73.8901 48.5831C73.9542 48.6511 74.0038 48.7315 74.0356 48.8193C74.0675 48.9071 74.0811 49.0006 74.0754 49.0939C74.0673 49.2771 73.9891 49.4502 73.8571 49.5775C73.7251 49.7049 73.5493 49.7767 73.3659 49.7783Z" fill="#FAFAFA"/>
<path d="M65.3156 49.7783C65.2221 49.7785 65.1297 49.7595 65.0438 49.7226C64.958 49.6856 64.8806 49.6315 64.8165 49.5635C64.7524 49.4956 64.7028 49.4152 64.671 49.3273C64.6391 49.2395 64.6255 49.1461 64.6311 49.0528C64.6404 48.8699 64.7189 48.6974 64.8506 48.5703C64.9824 48.4432 65.1576 48.371 65.3407 48.3683C65.4341 48.3682 65.5266 48.3871 65.6125 48.4241C65.6983 48.461 65.7757 48.5151 65.8398 48.5831C65.9039 48.6511 65.9534 48.7315 65.9853 48.8193C66.0172 48.9071 66.0308 49.0006 66.0251 49.0939C66.017 49.2771 65.9388 49.4502 65.8068 49.5775C65.6748 49.7049 65.499 49.7767 65.3156 49.7783Z" fill="#FAFAFA"/>
<path d="M57.2658 49.7783C57.1723 49.7785 57.0798 49.7595 56.994 49.7226C56.9082 49.6856 56.8308 49.6315 56.7667 49.5635C56.7025 49.4956 56.653 49.4152 56.6211 49.3273C56.5893 49.2395 56.5757 49.1461 56.5813 49.0528C56.5911 48.8697 56.6701 48.6972 56.8022 48.5702C56.9344 48.4431 57.1098 48.371 57.2931 48.3683C57.3866 48.3682 57.4791 48.3871 57.5649 48.4241C57.6508 48.461 57.7281 48.5151 57.7922 48.5831C57.8564 48.6511 57.9059 48.7315 57.9378 48.8193C57.9697 48.9071 57.9832 49.0006 57.9776 49.0939C57.9694 49.2775 57.891 49.4509 57.7585 49.5783C57.626 49.7057 57.4496 49.7773 57.2658 49.7783Z" fill="#FAFAFA"/>
<path d="M49.214 49.7783C49.1205 49.7785 49.0281 49.7595 48.9422 49.7226C48.8564 49.6856 48.779 49.6315 48.7149 49.5635C48.6508 49.4956 48.6012 49.4152 48.5694 49.3273C48.5375 49.2395 48.5239 49.1461 48.5295 49.0528C48.5383 48.8697 48.6166 48.6969 48.7484 48.5697C48.8803 48.4425 49.0558 48.3705 49.2391 48.3683C49.3325 48.3682 49.425 48.3871 49.5109 48.4241C49.5967 48.461 49.6741 48.5151 49.7382 48.5831C49.8023 48.6511 49.8518 48.7315 49.8837 48.8193C49.9156 48.9071 49.9291 49.0006 49.9235 49.0939C49.9148 49.2769 49.8365 49.4497 49.7046 49.5769C49.5727 49.7042 49.3972 49.7762 49.214 49.7783Z" fill="#FAFAFA"/>
<path d="M41.1621 49.7784C41.0686 49.7785 40.9762 49.7596 40.8903 49.7226C40.8045 49.6857 40.7271 49.6316 40.663 49.5636C40.5989 49.4956 40.5493 49.4152 40.5175 49.3274C40.4856 49.2396 40.472 49.1461 40.4776 49.0528C40.4864 48.8698 40.5647 48.697 40.6966 48.5698C40.8284 48.4425 41.004 48.3705 41.1872 48.3684C41.2806 48.3682 41.3731 48.3872 41.459 48.4241C41.5448 48.4611 41.6222 48.5152 41.6863 48.5832C41.7504 48.6511 41.7999 48.7315 41.8318 48.8194C41.8637 48.9072 41.8773 49.0006 41.8716 49.0939C41.8635 49.2771 41.7853 49.4503 41.6533 49.5776C41.5213 49.7049 41.3455 49.7768 41.1621 49.7784Z" fill="#FAFAFA"/>
</g>
<path d="M43.1742 52.3291H39.1245C39.0658 52.3296 39.0076 52.3179 38.9536 52.2947C38.8997 52.2716 38.8511 52.2375 38.811 52.1946C38.7709 52.1517 38.7401 52.101 38.7207 52.0456C38.7012 51.9902 38.6934 51.9314 38.6978 51.8728C38.7023 51.7532 38.7519 51.6398 38.8365 51.5552C38.9211 51.4706 39.0345 51.421 39.1541 51.4165H43.2038C43.2625 51.416 43.3207 51.4277 43.3747 51.4509C43.4286 51.474 43.4772 51.5081 43.5173 51.551C43.5574 51.5939 43.5881 51.6447 43.6076 51.7001C43.6271 51.7554 43.6349 51.8143 43.6305 51.8728C43.6259 51.9924 43.5764 52.1058 43.4918 52.1905C43.4072 52.2751 43.2937 52.3246 43.1742 52.3291Z" fill="#43744B"/>
<path d="M51.2259 52.3291H47.1762C47.1175 52.3296 47.0594 52.3179 47.0054 52.2947C46.9514 52.2716 46.9029 52.2375 46.8628 52.1946C46.8227 52.1517 46.7919 52.101 46.7724 52.0456C46.753 51.9902 46.7452 51.9314 46.7496 51.8728C46.7543 51.7513 46.8054 51.6362 46.8924 51.5513C46.9794 51.4664 47.0957 51.4182 47.2173 51.4165H51.2647C51.3235 51.416 51.3818 51.4278 51.4358 51.4509C51.4899 51.474 51.5386 51.5081 51.5789 51.5509C51.6192 51.5938 51.6502 51.6445 51.6699 51.6999C51.6896 51.7553 51.6977 51.8141 51.6936 51.8728C51.689 51.9943 51.6379 52.1094 51.5508 52.1943C51.4638 52.2792 51.3475 52.3274 51.2259 52.3291Z" fill="#43744B"/>
<path d="M59.2779 52.3291H55.2282C55.1694 52.3296 55.1111 52.3179 55.057 52.2947C55.003 52.2716 54.9543 52.2375 54.914 52.1947C54.8737 52.1519 54.8427 52.1011 54.823 52.0457C54.8032 51.9904 54.7952 51.9315 54.7992 51.8728C54.8039 51.7513 54.855 51.6363 54.9421 51.5513C55.0291 51.4664 55.1454 51.4182 55.267 51.4165H59.3189C59.3776 51.416 59.4358 51.4277 59.4898 51.4509C59.5437 51.474 59.5923 51.5081 59.6324 51.551C59.6725 51.5939 59.7033 51.6447 59.7227 51.7001C59.7422 51.7554 59.75 51.8143 59.7456 51.8728C59.7415 51.9945 59.6905 52.1099 59.6034 52.1949C59.5162 52.2799 59.3996 52.328 59.2779 52.3291Z" fill="#43744B"/>
<path d="M67.3275 52.3291H63.2778C63.2191 52.3296 63.1609 52.3179 63.107 52.2947C63.053 52.2716 63.0045 52.2375 62.9644 52.1946C62.9243 52.1517 62.8935 52.101 62.874 52.0456C62.8545 51.9902 62.8468 51.9314 62.8512 51.8728C62.8557 51.7532 62.9052 51.6398 62.9898 51.5552C63.0745 51.4706 63.1879 51.421 63.3075 51.4165H67.3572C67.4159 51.416 67.4741 51.4277 67.528 51.4509C67.582 51.474 67.6305 51.5081 67.6706 51.551C67.7107 51.5939 67.7415 51.6447 67.761 51.7001C67.7805 51.7554 67.7883 51.8143 67.7838 51.8728C67.7793 51.9924 67.7298 52.1058 67.6452 52.1905C67.5606 52.2751 67.4471 52.3246 67.3275 52.3291Z" fill="#43744B"/>
<path d="M75.3783 52.3291H71.3286C71.2699 52.3296 71.2118 52.3179 71.1578 52.2947C71.1038 52.2716 71.0553 52.2375 71.0152 52.1946C70.9751 52.1517 70.9443 52.101 70.9248 52.0456C70.9053 51.9902 70.8976 51.9314 70.902 51.8728C70.9067 51.7513 70.9578 51.6363 71.0448 51.5513C71.1318 51.4664 71.2481 51.4182 71.3697 51.4165H75.4194C75.4781 51.416 75.5363 51.4277 75.5902 51.4509C75.6442 51.474 75.6928 51.5081 75.7329 51.551C75.773 51.5939 75.8037 51.6447 75.8232 51.7001C75.8427 51.7554 75.8505 51.8143 75.846 51.8728C75.8414 51.9943 75.7903 52.1094 75.7032 52.1943C75.6162 52.2792 75.4999 52.3274 75.3783 52.3291Z" fill="#43744B"/>
<path d="M83.4301 52.3291H79.3804C79.3217 52.3296 79.2635 52.3179 79.2096 52.2947C79.1556 52.2716 79.1071 52.2375 79.067 52.1946C79.0269 52.1517 78.9961 52.101 78.9766 52.0456C78.9571 51.9902 78.9493 51.9314 78.9538 51.8728C78.9584 51.7513 79.0096 51.6362 79.0966 51.5513C79.1836 51.4664 79.2999 51.4182 79.4215 51.4165H83.4689C83.5277 51.416 83.586 51.4278 83.64 51.4509C83.6941 51.474 83.7428 51.5081 83.7831 51.5509C83.8233 51.5938 83.8543 51.6445 83.8741 51.6999C83.8938 51.7553 83.9019 51.8141 83.8978 51.8728C83.8932 51.9943 83.842 52.1094 83.755 52.1943C83.668 52.2792 83.5517 52.3274 83.4301 52.3291Z" fill="#43744B"/>
<g opacity="0.3">
<path d="M43.1742 52.3291H39.1245C39.0658 52.3296 39.0076 52.3179 38.9536 52.2947C38.8997 52.2716 38.8511 52.2375 38.811 52.1946C38.7709 52.1517 38.7401 52.101 38.7207 52.0456C38.7012 51.9902 38.6934 51.9314 38.6978 51.8728C38.7023 51.7532 38.7519 51.6398 38.8365 51.5552C38.9211 51.4706 39.0345 51.421 39.1541 51.4165H43.2038C43.2625 51.416 43.3207 51.4277 43.3747 51.4509C43.4286 51.474 43.4772 51.5081 43.5173 51.551C43.5574 51.5939 43.5881 51.6447 43.6076 51.7001C43.6271 51.7554 43.6349 51.8143 43.6305 51.8728C43.6259 51.9924 43.5764 52.1058 43.4918 52.1905C43.4072 52.2751 43.2937 52.3246 43.1742 52.3291Z" fill="black"/>
<path d="M51.2261 52.3291H47.1764C47.1176 52.3295 47.0595 52.3178 47.0055 52.2947C46.9516 52.2715 46.903 52.2374 46.8629 52.1945C46.8228 52.1516 46.792 52.1009 46.7726 52.0455C46.7531 51.9901 46.7453 51.9313 46.7497 51.8727C46.7544 51.7513 46.8055 51.6362 46.8925 51.5513C46.9796 51.4664 47.0959 51.4181 47.2174 51.4164H51.2648C51.3236 51.416 51.3819 51.4277 51.436 51.4508C51.49 51.474 51.5387 51.508 51.579 51.5509C51.6193 51.5937 51.6503 51.6444 51.67 51.6998C51.6898 51.7552 51.6979 51.8141 51.6938 51.8727C51.6891 51.9942 51.638 52.1093 51.5509 52.1942C51.4639 52.2791 51.3476 52.3274 51.2261 52.3291Z" fill="black"/>
<path d="M59.278 52.3291H55.2283C55.1695 52.3295 55.1112 52.3178 55.0572 52.2947C55.0031 52.2715 54.9544 52.2375 54.9141 52.1946C54.8738 52.1518 54.8429 52.1011 54.8231 52.0457C54.8034 51.9903 54.7953 51.9314 54.7994 51.8727C54.804 51.7513 54.8552 51.6362 54.9422 51.5513C55.0292 51.4664 55.1455 51.4181 55.2671 51.4164H59.3191C59.3778 51.416 59.4359 51.4277 59.4899 51.4508C59.5439 51.474 59.5924 51.5081 59.6325 51.551C59.6726 51.5939 59.7034 51.6446 59.7229 51.7C59.7423 51.7554 59.7501 51.8142 59.7457 51.8727C59.7416 51.9944 59.6906 52.1098 59.6035 52.1948C59.5163 52.2799 59.3997 52.3279 59.278 52.3291Z" fill="black"/>
<path d="M67.3276 52.3291H63.278C63.2192 52.3295 63.1611 52.3178 63.1071 52.2947C63.0532 52.2715 63.0046 52.2374 62.9645 52.1945C62.9244 52.1516 62.8936 52.1009 62.8742 52.0455C62.8547 51.9901 62.8469 51.9313 62.8513 51.8727C62.8558 51.7532 62.9054 51.6397 62.99 51.5551C63.0746 51.4705 63.188 51.421 63.3076 51.4164H67.3573C67.416 51.416 67.4742 51.4277 67.5282 51.4508C67.5821 51.474 67.6307 51.5081 67.6708 51.551C67.7109 51.5939 67.7416 51.6446 67.7611 51.7C67.7806 51.7554 67.7884 51.8142 67.784 51.8727C67.7794 51.9923 67.7299 52.1058 67.6453 52.1904C67.5607 52.275 67.4472 52.3245 67.3276 52.3291Z" fill="black"/>
<path d="M75.3785 52.3291H71.3288C71.2701 52.3295 71.2119 52.3178 71.1579 52.2947C71.104 52.2715 71.0554 52.2374 71.0153 52.1945C70.9752 52.1516 70.9444 52.1009 70.925 52.0455C70.9055 51.9901 70.8977 51.9313 70.9021 51.8727C70.9068 51.7513 70.9579 51.6362 71.0449 51.5513C71.132 51.4664 71.2483 51.4181 71.3698 51.4164H75.4195C75.4782 51.416 75.5364 51.4277 75.5904 51.4508C75.6443 51.474 75.6929 51.5081 75.733 51.551C75.7731 51.5939 75.8038 51.6446 75.8233 51.7C75.8428 51.7554 75.8506 51.8142 75.8462 51.8727C75.8415 51.9942 75.7904 52.1093 75.7034 52.1942C75.6163 52.2791 75.5 52.3274 75.3785 52.3291Z" fill="black"/>
<path d="M83.4302 52.3291H79.3805C79.3218 52.3295 79.2636 52.3178 79.2097 52.2947C79.1557 52.2715 79.1072 52.2374 79.0671 52.1945C79.027 52.1516 78.9962 52.1009 78.9767 52.0455C78.9572 51.9901 78.9495 51.9313 78.9539 51.8727C78.9586 51.7513 79.0097 51.6362 79.0967 51.5513C79.1837 51.4664 79.3 51.4181 79.4216 51.4164H83.469C83.5278 51.416 83.5861 51.4277 83.6401 51.4508C83.6942 51.474 83.7429 51.508 83.7832 51.5509C83.8235 51.5937 83.8545 51.6444 83.8742 51.6998C83.8939 51.7552 83.902 51.8141 83.8979 51.8727C83.8933 51.9942 83.8421 52.1093 83.7551 52.1942C83.6681 52.2791 83.5518 52.3274 83.4302 52.3291Z" fill="black"/>
</g>
<path d="M43.398 60.9453H38.1232C38.0075 60.9458 37.8929 60.9227 37.7864 60.8774C37.68 60.832 37.5839 60.7655 37.504 60.6818C37.4242 60.5981 37.3622 60.499 37.322 60.3905C37.2817 60.2821 37.264 60.1665 37.2699 60.051L37.498 54.7761C37.5118 54.5364 37.6161 54.3108 37.7897 54.1448C37.9632 53.9788 38.1933 53.8848 38.4334 53.8818H43.7083C43.824 53.8813 43.9386 53.9044 44.045 53.9498C44.1515 53.9951 44.2475 54.0616 44.3274 54.1453C44.4073 54.229 44.4692 54.3281 44.5095 54.4366C44.5498 54.5451 44.5675 54.6606 44.5616 54.7761L44.3334 60.051C44.3191 60.2906 44.2147 60.5159 44.0412 60.6817C43.8677 60.8476 43.638 60.9417 43.398 60.9453Z" fill="#43744B"/>
<path d="M51.4499 60.9453H46.175C46.0593 60.9461 45.9445 60.9232 45.8379 60.878C45.7313 60.8328 45.6351 60.7663 45.5552 60.6825C45.4753 60.5987 45.4133 60.4995 45.3732 60.3909C45.333 60.2823 45.3155 60.1666 45.3218 60.051L45.5499 54.7761C45.5637 54.5364 45.668 54.3108 45.8416 54.1448C46.0151 53.9788 46.2452 53.8848 46.4853 53.8818H51.767C51.8828 53.8813 51.9975 53.9045 52.1041 53.9497C52.2106 53.995 52.3069 54.0615 52.3869 54.1452C52.4669 54.2289 52.5291 54.328 52.5696 54.4364C52.6102 54.5449 52.6282 54.6605 52.6226 54.7761L52.3831 60.051C52.3698 60.2906 52.266 60.5161 52.0928 60.6822C51.9196 60.8482 51.6898 60.9422 51.4499 60.9453Z" fill="#43744B"/>
<path d="M59.5 60.9454H54.2274C54.1116 60.9458 53.9969 60.9227 53.8904 60.8774C53.7838 60.8321 53.6876 60.7656 53.6075 60.6819C53.5275 60.5983 53.4653 60.4992 53.4248 60.3907C53.3843 60.2822 53.3663 60.1667 53.3718 60.051L53.6 54.7761C53.6138 54.5364 53.718 54.3108 53.8916 54.1448C54.0652 53.9788 54.2953 53.8849 54.5354 53.8818H59.808C59.9238 53.881 60.0385 53.9039 60.1451 53.9491C60.2517 53.9943 60.3479 54.0608 60.4279 54.1446C60.5078 54.2284 60.5697 54.3276 60.6099 54.4362C60.65 54.5449 60.6675 54.6605 60.6613 54.7761L60.4331 60.051C60.4193 60.2904 60.3154 60.5157 60.1423 60.6816C59.9692 60.8475 59.7397 60.9417 59.5 60.9454Z" fill="#43744B"/>
<path d="M67.5514 60.9453H62.2856C62.1698 60.9461 62.0549 60.9232 61.9482 60.878C61.8415 60.8329 61.7451 60.7664 61.665 60.6826C61.5849 60.5989 61.5228 60.4997 61.4824 60.3911C61.442 60.2824 61.4242 60.1667 61.4301 60.051L61.6582 54.7761C61.6715 54.5366 61.7752 54.311 61.9484 54.145C62.1217 53.9789 62.3515 53.8849 62.5914 53.8818H67.8662C67.9819 53.8813 68.0965 53.9044 68.2029 53.9498C68.3094 53.9951 68.4055 54.0616 68.4853 54.1453C68.5652 54.229 68.6272 54.3281 68.6674 54.4366C68.7077 54.5451 68.7254 54.6606 68.7195 54.7761L68.4914 60.051C68.4775 60.2915 68.3726 60.5178 68.1981 60.6839C68.0235 60.85 67.7923 60.9434 67.5514 60.9453Z" fill="#43744B"/>
<path d="M75.6032 60.9454H70.3283C70.2126 60.9458 70.098 60.9227 69.9916 60.8774C69.8851 60.8321 69.789 60.7655 69.7092 60.6818C69.6293 60.5981 69.5674 60.499 69.5271 60.3905C69.4868 60.2821 69.4691 60.1665 69.475 60.051L69.7032 54.7761C69.717 54.5364 69.8212 54.3108 69.9948 54.1448C70.1684 53.9788 70.3984 53.8849 70.6386 53.8818H75.9112C76.027 53.881 76.1419 53.9039 76.2486 53.9491C76.3553 53.9943 76.4517 54.0608 76.5318 54.1445C76.6119 54.2282 76.674 54.3275 76.7144 54.4361C76.7548 54.5447 76.7726 54.6604 76.7667 54.7761L76.5386 60.051C76.5242 60.2906 76.4198 60.5159 76.2464 60.6817C76.0729 60.8476 75.8431 60.9418 75.6032 60.9454Z" fill="#43744B"/>
<path d="M83.6523 60.9453H78.3797C78.2639 60.9461 78.1492 60.9232 78.0426 60.878C77.936 60.8328 77.8398 60.7663 77.7598 60.6825C77.6799 60.5987 77.618 60.4995 77.5778 60.3909C77.5377 60.2823 77.5202 60.1666 77.5264 60.051L77.7546 54.7761C77.7684 54.5364 77.8726 54.3108 78.0462 54.1448C78.2198 53.9788 78.4499 53.8848 78.69 53.8818H83.9626C84.0784 53.8813 84.193 53.9045 84.2996 53.9497C84.4062 53.995 84.5024 54.0615 84.5824 54.1452C84.6625 54.2289 84.7247 54.328 84.7652 54.4364C84.8057 54.5449 84.8237 54.6605 84.8182 54.7761L84.5786 60.051C84.5654 60.2894 84.4626 60.514 84.2909 60.6799C84.1191 60.8457 83.891 60.9405 83.6523 60.9453Z" fill="#43744B"/>
<g opacity="0.8">
<path d="M43.398 60.9454H38.1232C38.0075 60.9459 37.8929 60.9227 37.7864 60.8774C37.68 60.8321 37.5839 60.7656 37.504 60.6819C37.4242 60.5982 37.3622 60.499 37.322 60.3906C37.2817 60.2821 37.264 60.1666 37.2699 60.0511L37.498 54.7762C37.5118 54.5364 37.6161 54.3108 37.7897 54.1449C37.9632 53.9789 38.1933 53.8849 38.4334 53.8818H43.7083C43.824 53.8814 43.9386 53.9045 44.045 53.9498C44.1515 53.9951 44.2475 54.0617 44.3274 54.1454C44.4073 54.2291 44.4692 54.3282 44.5095 54.4367C44.5498 54.5451 44.5675 54.6606 44.5616 54.7762L44.3334 60.0511C44.3191 60.2906 44.2147 60.5159 44.0412 60.6818C43.8677 60.8476 43.638 60.9418 43.398 60.9454Z" fill="#FAFAFA"/>
<path d="M51.4499 60.9455H46.175C46.0593 60.9463 45.9445 60.9233 45.8379 60.8781C45.7313 60.8329 45.6351 60.7664 45.5552 60.6826C45.4753 60.5989 45.4133 60.4996 45.3732 60.391C45.333 60.2824 45.3155 60.1667 45.3218 60.0511L45.5499 54.7762C45.5637 54.5365 45.668 54.3109 45.8416 54.1449C46.0151 53.979 46.2452 53.885 46.4853 53.8819H51.767C51.8828 53.8815 51.9975 53.9046 52.1041 53.9499C52.2106 53.9952 52.3069 54.0617 52.3869 54.1453C52.4669 54.229 52.5291 54.3281 52.5696 54.4365C52.6102 54.545 52.6282 54.6606 52.6226 54.7762L52.3831 60.0511C52.3698 60.2907 52.266 60.5163 52.0928 60.6823C51.9196 60.8483 51.6898 60.9424 51.4499 60.9455Z" fill="#FAFAFA"/>
<path d="M59.5 60.9455H54.2274C54.1116 60.9459 53.9969 60.9228 53.8904 60.8775C53.7838 60.8322 53.6876 60.7657 53.6075 60.682C53.5275 60.5984 53.4653 60.4993 53.4248 60.3908C53.3843 60.2824 53.3663 60.1668 53.3718 60.0511L53.6 54.7763C53.6138 54.5365 53.718 54.3109 53.8916 54.1449C54.0652 53.979 54.2953 53.885 54.5354 53.8819H59.808C59.9238 53.8811 60.0385 53.904 60.1451 53.9492C60.2517 53.9944 60.3479 54.061 60.4279 54.1447C60.5078 54.2285 60.5697 54.3278 60.6099 54.4364C60.65 54.545 60.6675 54.6606 60.6613 54.7763L60.4331 60.0511C60.4193 60.2905 60.3154 60.5158 60.1423 60.6817C59.9692 60.8476 59.7397 60.9418 59.5 60.9455Z" fill="#FAFAFA"/>
<path d="M67.5514 60.9455H62.2856C62.1698 60.9462 62.0549 60.9233 61.9482 60.8782C61.8415 60.833 61.7451 60.7665 61.665 60.6827C61.5849 60.599 61.5228 60.4998 61.4824 60.3912C61.442 60.2826 61.4242 60.1668 61.4301 60.0511L61.6582 54.7762C61.6715 54.5367 61.7752 54.3111 61.9484 54.1451C62.1217 53.9791 62.3515 53.885 62.5914 53.8819H67.8662C67.9819 53.8814 68.0965 53.9046 68.2029 53.9499C68.3094 53.9952 68.4055 54.0617 68.4853 54.1454C68.5652 54.2292 68.6272 54.3283 68.6674 54.4367C68.7077 54.5452 68.7254 54.6607 68.7195 54.7762L68.4914 60.0511C68.4775 60.2917 68.3726 60.5179 68.1981 60.684C68.0235 60.8501 67.7923 60.9436 67.5514 60.9455Z" fill="#FAFAFA"/>
<path d="M75.6027 60.9455H70.3278C70.2121 60.9459 70.0975 60.9228 69.9911 60.8775C69.8847 60.8322 69.7886 60.7656 69.7087 60.6819C69.6288 60.5982 69.5669 60.4991 69.5266 60.3907C69.4864 60.2822 69.4686 60.1667 69.4745 60.0511L69.7027 54.7763C69.7165 54.5365 69.8207 54.3109 69.9943 54.1449C70.1679 53.979 70.3979 53.885 70.6381 53.8819H75.9107C76.0266 53.8811 76.1414 53.904 76.2481 53.9492C76.3548 53.9944 76.4512 54.0609 76.5313 54.1446C76.6114 54.2284 76.6736 54.3276 76.714 54.4362C76.7544 54.5448 76.7722 54.6605 76.7662 54.7763L76.5381 60.0511C76.5237 60.2907 76.4194 60.516 76.2459 60.6819C76.0724 60.8477 75.8427 60.9419 75.6027 60.9455Z" fill="#FAFAFA"/>
<path d="M83.6523 60.9455H78.3797C78.2639 60.9463 78.1492 60.9233 78.0426 60.8781C77.936 60.8329 77.8398 60.7664 77.7598 60.6826C77.6799 60.5989 77.618 60.4996 77.5778 60.391C77.5377 60.2824 77.5202 60.1667 77.5264 60.0511L77.7546 54.7762C77.7684 54.5365 77.8726 54.3109 78.0462 54.1449C78.2198 53.979 78.4499 53.885 78.69 53.8819H83.9626C84.0784 53.8815 84.193 53.9046 84.2996 53.9499C84.4062 53.9952 84.5024 54.0617 84.5824 54.1453C84.6625 54.229 84.7247 54.3281 84.7652 54.4365C84.8057 54.545 84.8237 54.6606 84.8182 54.7762L84.5786 60.0511C84.5654 60.2895 84.4626 60.5141 84.2909 60.68C84.1191 60.8458 83.891 60.9407 83.6523 60.9455Z" fill="#FAFAFA"/>
</g>
<path d="M43.0294 69.13H37.7545C37.6388 69.1305 37.5242 69.1073 37.4178 69.062C37.3113 69.0167 37.2152 68.9502 37.1354 68.8664C37.0555 68.7827 36.9936 68.6836 36.9533 68.5752C36.913 68.4667 36.8953 68.3512 36.9012 68.2356L37.1294 62.9608C37.1437 62.7212 37.2481 62.4959 37.4216 62.33C37.5951 62.1642 37.8248 62.07 38.0648 62.0664H43.3488C43.4645 62.066 43.579 62.0891 43.6855 62.1344C43.7919 62.1797 43.888 62.2463 43.9679 62.33C44.0477 62.4137 44.1097 62.5128 44.15 62.6212C44.1902 62.7297 44.208 62.8452 44.2021 62.9608L43.9739 68.2356C43.9594 68.4768 43.8538 68.7034 43.6784 68.8695C43.5029 69.0356 43.2709 69.1287 43.0294 69.13Z" fill="#43744B"/>
<path d="M51.0811 69.13H45.8063C45.6906 69.1305 45.576 69.1073 45.4696 69.062C45.3631 69.0167 45.267 68.9502 45.1872 68.8665C45.1073 68.7828 45.0453 68.6836 45.0051 68.5752C44.9648 68.4667 44.9471 68.3512 44.953 68.2357L45.1811 62.9608C45.195 62.721 45.2992 62.4954 45.4728 62.3295C45.6464 62.1635 45.8764 62.0695 46.1166 62.0664H51.3891C51.5059 62.0656 51.6216 62.0888 51.7291 62.1345C51.8366 62.1802 51.9336 62.2475 52.014 62.3322C52.0944 62.4169 52.1566 62.5172 52.1966 62.6269C52.2367 62.7366 52.2539 62.8533 52.247 62.9699L52.0188 68.2357C52.0055 68.476 51.9011 68.7022 51.727 68.8684C51.5528 69.0345 51.3218 69.1281 51.0811 69.13Z" fill="#43744B"/>
<path d="M59.1308 69.13H53.8582C53.7424 69.1308 53.6277 69.1079 53.5211 69.0627C53.4145 69.0175 53.3182 68.951 53.2383 68.8672C53.1584 68.7834 53.0964 68.6842 53.0563 68.5756C53.0161 68.4669 52.9987 68.3513 53.0049 68.2357L53.233 62.9608C53.2469 62.721 53.3511 62.4954 53.5247 62.3295C53.6983 62.1635 53.9283 62.0695 54.1685 62.0664H59.441C59.5568 62.0656 59.6715 62.0886 59.7782 62.1338C59.8848 62.179 59.981 62.2455 60.0609 62.3293C60.1408 62.413 60.2028 62.5123 60.2429 62.6209C60.2831 62.7295 60.3006 62.8452 60.2943 62.9608L60.0662 68.2357C60.0523 68.4754 59.9481 68.701 59.7745 68.867C59.6009 69.033 59.3709 69.1269 59.1308 69.13Z" fill="#43744B"/>
<path d="M67.1816 69.1301H61.9091C61.7933 69.1306 61.6786 69.1074 61.572 69.0622C61.4655 69.0169 61.3692 68.9504 61.2892 68.8667C61.2092 68.783 61.147 68.6839 61.1065 68.5755C61.0659 68.467 61.0479 68.3514 61.0535 68.2358L61.2816 62.9609C61.2949 62.7213 61.3986 62.4958 61.5719 62.3297C61.7451 62.1637 61.9749 62.0697 62.2148 62.0666H67.4896C67.6071 62.0644 67.7237 62.0867 67.8322 62.1318C67.9406 62.177 68.0385 62.2441 68.1198 62.329C68.201 62.4139 68.2638 62.5147 68.3041 62.625C68.3445 62.7353 68.3616 62.8528 68.3543 62.97L68.1262 68.2449C68.11 68.4846 68.0035 68.7092 67.8283 68.8735C67.653 69.0378 67.4219 69.1295 67.1816 69.1301Z" fill="#43744B"/>
<path d="M75.2326 69.1295H69.9577C69.842 69.13 69.7274 69.1069 69.621 69.0616C69.5145 69.0162 69.4184 68.9497 69.3386 68.866C69.2587 68.7823 69.1968 68.6832 69.1565 68.5747C69.1162 68.4663 69.0985 68.3507 69.1044 68.2352L69.3326 62.9603C69.3447 62.7187 69.4484 62.4909 69.6226 62.323C69.7968 62.1552 70.0284 62.06 70.2703 62.0568H75.5451C75.6608 62.0564 75.7754 62.0795 75.8818 62.1248C75.9883 62.1701 76.0844 62.2367 76.1642 62.3204C76.2441 62.4041 76.306 62.5032 76.3463 62.6117C76.3866 62.7201 76.4043 62.8357 76.3984 62.9512L76.1703 68.2261C76.1581 68.4676 76.0544 68.6955 75.8802 68.8634C75.706 69.0312 75.4744 69.1264 75.2326 69.1295Z" fill="#43744B"/>
<path d="M83.2744 69.13H78.0086C77.8928 69.1308 77.7781 69.1079 77.6715 69.0627C77.5649 69.0175 77.4687 68.9509 77.3887 68.8672C77.3088 68.7834 77.2469 68.6841 77.2067 68.5755C77.1666 68.4669 77.1491 68.3513 77.1553 68.2356L77.3835 62.9608C77.3973 62.721 77.5015 62.4954 77.6751 62.3294C77.8487 62.1635 78.0788 62.0695 78.3189 62.0664H83.5915C83.7073 62.066 83.8219 62.0891 83.9285 62.1344C84.0351 62.1797 84.1313 62.2462 84.2113 62.3299C84.2914 62.4135 84.3536 62.5126 84.3941 62.6211C84.4346 62.7295 84.4526 62.8451 84.4471 62.9608L84.2075 68.2356C84.1942 68.4752 84.0905 68.7008 83.9173 68.8668C83.7441 69.0328 83.5143 69.1269 83.2744 69.13Z" fill="#43744B"/>
<g opacity="0.8">
<path d="M43.0294 69.1307H37.7545C37.6388 69.1311 37.5242 69.108 37.4178 69.0627C37.3113 69.0174 37.2152 68.9508 37.1354 68.8671C37.0555 68.7834 36.9936 68.6843 36.9533 68.5758C36.913 68.4674 36.8953 68.3519 36.9012 68.2363L37.1294 62.9614C37.1437 62.7219 37.2481 62.4966 37.4216 62.3307C37.5951 62.1649 37.8248 62.0707 38.0648 62.0671H43.3488C43.4645 62.0666 43.579 62.0898 43.6855 62.1351C43.7919 62.1804 43.888 62.2469 43.9679 62.3306C44.0477 62.4144 44.1097 62.5135 44.15 62.6219C44.1902 62.7304 44.208 62.8459 44.2021 62.9614L43.9739 68.2363C43.9594 68.4774 43.8538 68.704 43.6784 68.8701C43.5029 69.0362 43.2709 69.1294 43.0294 69.1307Z" fill="#FAFAFA"/>
<path d="M51.0811 69.1301H45.8063C45.6906 69.1306 45.576 69.1075 45.4696 69.0621C45.3631 69.0168 45.267 68.9503 45.1872 68.8666C45.1073 68.7829 45.0453 68.6838 45.0051 68.5753C44.9648 68.4669 44.9471 68.3513 44.953 68.2358L45.1811 62.9609C45.195 62.7211 45.2992 62.4955 45.4728 62.3296C45.6464 62.1636 45.8764 62.0696 46.1166 62.0666H51.3891C51.5059 62.0657 51.6216 62.0889 51.7291 62.1346C51.8366 62.1803 51.9336 62.2476 52.014 62.3323C52.0944 62.417 52.1566 62.5173 52.1966 62.627C52.2367 62.7367 52.2539 62.8534 52.247 62.97L52.0188 68.2358C52.0055 68.4761 51.9011 68.7024 51.727 68.8685C51.5528 69.0346 51.3218 69.1282 51.0811 69.1301Z" fill="#FAFAFA"/>
<path d="M59.1308 69.1301H53.8582C53.7424 69.1309 53.6277 69.108 53.5211 69.0628C53.4145 69.0176 53.3182 68.9511 53.2383 68.8673C53.1584 68.7835 53.0964 68.6843 53.0563 68.5757C53.0161 68.4671 52.9987 68.3514 53.0049 68.2358L53.233 62.9609C53.2469 62.7211 53.3511 62.4955 53.5247 62.3296C53.6983 62.1636 53.9283 62.0696 54.1685 62.0666H59.441C59.5568 62.0658 59.6715 62.0887 59.7782 62.1339C59.8848 62.1791 59.981 62.2456 60.0609 62.3294C60.1408 62.4132 60.2028 62.5124 60.2429 62.621C60.2831 62.7296 60.3006 62.8453 60.2943 62.9609L60.0662 68.2358C60.0523 68.4755 59.9481 68.7011 59.7745 68.8671C59.6009 69.0331 59.3709 69.1271 59.1308 69.1301Z" fill="#FAFAFA"/>
<path d="M67.1816 69.1303H61.9091C61.7933 69.1307 61.6786 69.1076 61.572 69.0623C61.4655 69.017 61.3692 68.9505 61.2892 68.8668C61.2092 68.7832 61.147 68.6841 61.1065 68.5756C61.0659 68.4671 61.0479 68.3515 61.0535 68.2359L61.2816 62.961C61.2949 62.7215 61.3986 62.4959 61.5719 62.3299C61.7451 62.1638 61.9749 62.0698 62.2148 62.0667H67.4896C67.6071 62.0646 67.7237 62.0868 67.8322 62.132C67.9406 62.1771 68.0385 62.2443 68.1198 62.3291C68.201 62.414 68.2638 62.5148 68.3041 62.6251C68.3445 62.7354 68.3616 62.8529 68.3543 62.9702L68.1262 68.245C68.11 68.4847 68.0035 68.7094 67.8283 68.8737C67.653 69.0379 67.4219 69.1296 67.1816 69.1303Z" fill="#FAFAFA"/>
<path d="M75.2326 69.1297H69.9577C69.842 69.1301 69.7274 69.107 69.621 69.0617C69.5145 69.0164 69.4184 68.9498 69.3386 68.8661C69.2587 68.7824 69.1968 68.6833 69.1565 68.5748C69.1162 68.4664 69.0985 68.3508 69.1044 68.2353L69.3326 62.9604C69.3447 62.7189 69.4484 62.491 69.6226 62.3232C69.7968 62.1553 70.0284 62.0601 70.2703 62.057H75.5451C75.6608 62.0565 75.7754 62.0796 75.8818 62.125C75.9883 62.1703 76.0844 62.2368 76.1642 62.3205C76.2441 62.4042 76.306 62.5033 76.3463 62.6118C76.3866 62.7202 76.4043 62.8358 76.3984 62.9513L76.1703 68.2262C76.1581 68.4678 76.0544 68.6956 75.8802 68.8635C75.706 69.0313 75.4744 69.1265 75.2326 69.1297Z" fill="#FAFAFA"/>
<path d="M83.2744 69.1301H78.0086C77.8928 69.1309 77.7781 69.108 77.6715 69.0628C77.5649 69.0176 77.4687 68.9511 77.3887 68.8673C77.3088 68.7835 77.2469 68.6843 77.2067 68.5757C77.1666 68.4671 77.1491 68.3514 77.1553 68.2358L77.3835 62.9609C77.3973 62.7211 77.5015 62.4955 77.6751 62.3296C77.8487 62.1636 78.0788 62.0696 78.3189 62.0665H83.5915C83.7073 62.0661 83.8219 62.0892 83.9285 62.1345C84.0351 62.1798 84.1313 62.2463 84.2113 62.33C84.2914 62.4136 84.3536 62.5127 84.3941 62.6212C84.4346 62.7297 84.4526 62.8452 84.4471 62.9609L84.2075 68.2358C84.1942 68.4753 84.0905 68.7009 83.9173 68.8669C83.7441 69.0329 83.5143 69.127 83.2744 69.1301Z" fill="#FAFAFA"/>
</g>
<path d="M42.6645 77.3115H37.3851C37.2693 77.3122 37.1546 77.2893 37.048 77.2441C36.9414 77.1989 36.8452 77.1324 36.7653 77.0486C36.6853 76.9649 36.6234 76.8656 36.5832 76.757C36.5431 76.6484 36.5256 76.5327 36.5318 76.4171L36.76 71.1445C36.7738 70.9048 36.878 70.6792 37.0516 70.5132C37.2252 70.3472 37.4553 70.2532 37.6954 70.2502H42.9703C43.086 70.2494 43.2008 70.2723 43.3074 70.3175C43.414 70.3627 43.5102 70.4292 43.5901 70.513C43.6701 70.5968 43.732 70.696 43.7721 70.8046C43.8123 70.9132 43.8298 71.0289 43.8236 71.1445L43.5954 76.4171C43.5822 76.6563 43.4787 76.8815 43.306 77.0475C43.1333 77.2135 42.9041 77.3078 42.6645 77.3115Z" fill="#43744B"/>
<path d="M50.7108 77.3115H45.4359C45.3201 77.3123 45.2054 77.2894 45.0988 77.2442C44.9922 77.199 44.896 77.1324 44.816 77.0487C44.7361 76.9649 44.6742 76.8656 44.634 76.757C44.5939 76.6484 44.5764 76.5327 44.5826 76.4171L44.8108 71.1445C44.8241 70.9046 44.9281 70.6787 45.1018 70.5126C45.2755 70.3465 45.5059 70.2527 45.7462 70.2502H51.0188C51.1348 70.2491 51.2497 70.2718 51.3566 70.3168C51.4635 70.3619 51.56 70.4284 51.6401 70.5122C51.7203 70.596 51.7825 70.6953 51.8227 70.8041C51.863 70.9129 51.8806 71.0287 51.8743 71.1445L51.6462 76.4171C51.6334 76.6573 51.5295 76.8835 51.3557 77.0497C51.1819 77.2159 50.9512 77.3095 50.7108 77.3115Z" fill="#43744B"/>
<path d="M58.7603 77.3115H53.4877C53.3719 77.3122 53.2572 77.2893 53.1506 77.2441C53.044 77.1989 52.9478 77.1324 52.8678 77.0486C52.7879 76.9649 52.726 76.8656 52.6858 76.757C52.6457 76.6484 52.6282 76.5327 52.6344 76.4171L52.8626 71.1445C52.8759 70.9046 52.9799 70.6787 53.1536 70.5126C53.3273 70.3465 53.5577 70.2527 53.798 70.2502H59.0911C59.207 70.2494 59.3218 70.2723 59.4285 70.3175C59.5352 70.3627 59.6316 70.4291 59.7117 70.5129C59.7918 70.5966 59.854 70.6958 59.8944 70.8045C59.9348 70.9131 59.9526 71.0288 59.9467 71.1445L59.7071 76.4171C59.6937 76.659 59.588 76.8866 59.4119 77.0529C59.2358 77.2193 59.0026 77.3118 58.7603 77.3115Z" fill="#43744B"/>
<path d="M66.8121 77.3115H61.5395C61.4237 77.3122 61.3088 77.2893 61.2021 77.2442C61.0954 77.199 60.999 77.1325 60.9189 77.0487C60.8388 76.965 60.7767 76.8658 60.7363 76.7572C60.6959 76.6486 60.6781 76.5328 60.684 76.4171L60.9121 71.1445C60.9249 70.9048 61.0284 70.6789 61.2018 70.5127C61.3751 70.3466 61.6052 70.2527 61.8453 70.2502H67.1201C67.2359 70.2494 67.3506 70.2723 67.4572 70.3175C67.5638 70.3627 67.6601 70.4292 67.74 70.513C67.8199 70.5968 67.8819 70.696 67.922 70.8046C67.9621 70.9132 67.9796 71.0289 67.9734 71.1445L67.7453 76.4171C67.732 76.6567 67.6283 76.8823 67.455 77.0483C67.2818 77.2143 67.052 77.3084 66.8121 77.3115Z" fill="#43744B"/>
<path d="M74.8644 77.3115H69.5872C69.4714 77.3122 69.3567 77.2893 69.2501 77.2441C69.1435 77.1989 69.0473 77.1324 68.9673 77.0486C68.8874 76.9649 68.8255 76.8656 68.7853 76.757C68.7452 76.6484 68.7277 76.5327 68.7339 76.4171L68.9621 71.1445C68.9759 70.9048 69.0801 70.6792 69.2537 70.5132C69.4273 70.3472 69.6573 70.2532 69.8975 70.2502H75.1724C75.2881 70.2494 75.4029 70.2723 75.5095 70.3175C75.6161 70.3627 75.7123 70.4292 75.7922 70.513C75.8722 70.5968 75.9341 70.696 75.9742 70.8046C76.0144 70.9132 76.0319 71.0289 76.0256 71.1445L75.7975 76.4171C75.7837 76.6565 75.6798 76.8818 75.5067 77.0477C75.3336 77.2136 75.1041 77.3078 74.8644 77.3115Z" fill="#43744B"/>
<path d="M82.9148 77.3115H77.64C77.5242 77.3122 77.4095 77.2893 77.3029 77.2441C77.1963 77.1989 77.1 77.1324 77.0201 77.0486C76.9402 76.9649 76.8782 76.8656 76.8381 76.757C76.7979 76.6484 76.7804 76.5327 76.7867 76.4171L77.0148 71.1445C77.0281 70.9046 77.1322 70.6787 77.3059 70.5126C77.4796 70.3465 77.7099 70.2527 77.9502 70.2502H83.2228C83.3387 70.2494 83.4535 70.2723 83.5603 70.3175C83.667 70.3627 83.7633 70.4291 83.8434 70.5129C83.9235 70.5966 83.9857 70.6958 84.0261 70.8045C84.0665 70.9131 84.0843 71.0288 84.0784 71.1445L83.8388 76.4171C83.8262 76.6553 83.7239 76.8799 83.5525 77.0458C83.3811 77.2117 83.1533 77.3066 82.9148 77.3115Z" fill="#43744B"/>
<g opacity="0.8">
<path d="M42.6641 77.3112H37.3846C37.2688 77.312 37.1541 77.2891 37.0475 77.2439C36.9409 77.1987 36.8447 77.1322 36.7648 77.0484C36.6848 76.9646 36.6229 76.8654 36.5827 76.7568C36.5426 76.6482 36.5251 76.5325 36.5313 76.4169L36.7595 71.1443C36.7733 70.9045 36.8775 70.6789 37.0511 70.5129C37.2247 70.347 37.4548 70.253 37.6949 70.2499H42.9698C43.0856 70.2491 43.2003 70.272 43.3069 70.3172C43.4135 70.3624 43.5097 70.429 43.5896 70.5128C43.6696 70.5965 43.7315 70.6958 43.7717 70.8044C43.8118 70.913 43.8293 71.0287 43.8231 71.1443L43.5949 76.4169C43.5817 76.656 43.4783 76.8813 43.3055 77.0473C43.1328 77.2132 42.9036 77.3075 42.6641 77.3112Z" fill="#FAFAFA"/>
<path d="M50.7109 77.3113H45.436C45.3202 77.3121 45.2055 77.2892 45.0989 77.244C44.9923 77.1988 44.8961 77.1322 44.8162 77.0485C44.7362 76.9647 44.6743 76.8654 44.6342 76.7568C44.594 76.6482 44.5765 76.5326 44.5827 76.4169L44.8109 71.1444C44.8242 70.9044 44.9283 70.6785 45.102 70.5124C45.2757 70.3463 45.506 70.2525 45.7463 70.25H51.0189C51.1349 70.2489 51.2499 70.2716 51.3567 70.3166C51.4636 70.3617 51.5601 70.4282 51.6403 70.512C51.7204 70.5958 51.7826 70.6952 51.8229 70.8039C51.8631 70.9127 51.8807 71.0285 51.8745 71.1444L51.6463 76.4169C51.6335 76.6571 51.5297 76.8833 51.3558 77.0495C51.182 77.2157 50.9514 77.3093 50.7109 77.3113Z" fill="#FAFAFA"/>
<path d="M58.7604 77.3113H53.4878C53.372 77.3121 53.2573 77.2892 53.1507 77.244C53.0441 77.1988 52.9479 77.1322 52.8679 77.0484C52.788 76.9647 52.7261 76.8654 52.6859 76.7568C52.6458 76.6482 52.6283 76.5325 52.6345 76.4169L52.8627 71.1443C52.876 70.9044 52.98 70.6785 53.1537 70.5124C53.3274 70.3463 53.5578 70.2525 53.7981 70.25H59.0912C59.2071 70.2492 59.3219 70.2721 59.4286 70.3173C59.5353 70.3625 59.6317 70.429 59.7118 70.5127C59.7919 70.5964 59.8541 70.6957 59.8945 70.8043C59.9349 70.9129 59.9527 71.0286 59.9468 71.1443L59.7072 76.4169C59.6938 76.6588 59.5881 76.8864 59.412 77.0528C59.2359 77.2191 59.0027 77.3116 58.7604 77.3113Z" fill="#FAFAFA"/>
<path d="M66.8122 77.3113H61.5397C61.4238 77.312 61.309 77.2891 61.2022 77.244C61.0955 77.1988 60.9992 77.1323 60.9191 77.0486C60.839 76.9648 60.7768 76.8656 60.7364 76.757C60.696 76.6484 60.6782 76.5327 60.6841 76.4169L60.9122 71.1443C60.925 70.9046 61.0286 70.6787 61.2019 70.5126C61.3752 70.3464 61.6053 70.2525 61.8454 70.25H67.1203C67.236 70.2492 67.3508 70.2721 67.4574 70.3173C67.564 70.3625 67.6602 70.429 67.7401 70.5128C67.82 70.5966 67.882 70.6958 67.9221 70.8044C67.9623 70.913 67.9798 71.0287 67.9735 71.1443L67.7454 76.4169C67.7321 76.6565 67.6284 76.8821 67.4552 77.0481C67.2819 77.2141 67.0522 77.3082 66.8122 77.3113Z" fill="#FAFAFA"/>
<path d="M74.8645 77.3113H69.5873C69.4715 77.3121 69.3568 77.2892 69.2502 77.244C69.1436 77.1988 69.0474 77.1322 68.9675 77.0485C68.8875 76.9647 68.8256 76.8654 68.7855 76.7568C68.7453 76.6482 68.7278 76.5325 68.734 76.4169L68.9622 71.1443C68.976 70.9046 69.0802 70.679 69.2538 70.513C69.4274 70.347 69.6575 70.2531 69.8976 70.25H75.1725C75.2883 70.2492 75.403 70.2721 75.5096 70.3173C75.6162 70.3625 75.7124 70.429 75.7923 70.5128C75.8723 70.5966 75.9342 70.6958 75.9744 70.8044C76.0145 70.913 76.032 71.0287 76.0258 71.1443L75.7976 76.4169C75.7838 76.6563 75.6799 76.8816 75.5068 77.0475C75.3337 77.2134 75.1042 77.3076 74.8645 77.3113Z" fill="#FAFAFA"/>
<path d="M82.915 77.3113H77.6401C77.5243 77.3121 77.4096 77.2892 77.303 77.244C77.1964 77.1988 77.1001 77.1322 77.0202 77.0484C76.9403 76.9647 76.8783 76.8654 76.8382 76.7568C76.7981 76.6482 76.7806 76.5325 76.7868 76.4169L77.0149 71.1443C77.0283 70.9044 77.1323 70.6785 77.306 70.5124C77.4797 70.3463 77.7101 70.2525 77.9504 70.25H83.223C83.3388 70.2492 83.4537 70.2721 83.5604 70.3173C83.6671 70.3625 83.7635 70.429 83.8436 70.5127C83.9237 70.5964 83.9858 70.6957 84.0262 70.8043C84.0666 70.9129 84.0844 71.0286 84.0785 71.1443L83.839 76.4169C83.8263 76.6551 83.7241 76.8797 83.5527 77.0456C83.3813 77.2115 83.1534 77.3064 82.915 77.3113Z" fill="#FAFAFA"/>
</g>
<path d="M41.1689 49.6095C39.2251 49.6095 37.701 47.3485 37.701 44.4624C37.701 41.5763 39.2251 39.3176 41.1689 39.3176C43.1128 39.3176 44.6391 41.5786 44.6391 44.4624C44.6302 44.5977 44.5703 44.7245 44.4713 44.8172C44.3724 44.9098 44.2419 44.9614 44.1064 44.9614C43.9708 44.9614 43.8403 44.9098 43.7414 44.8172C43.6425 44.7245 43.5825 44.5977 43.5736 44.4624C43.5736 42.2516 42.4739 40.3808 41.1689 40.3808C39.8639 40.3808 38.7642 42.2516 38.7642 44.4624C38.7642 46.6732 39.8662 48.544 41.1689 48.544C41.2418 48.5393 41.3149 48.5495 41.3837 48.5741C41.4525 48.5987 41.5154 48.6372 41.5688 48.6871C41.6221 48.7371 41.6646 48.7974 41.6936 48.8644C41.7227 48.9315 41.7377 49.0037 41.7377 49.0768C41.7377 49.1498 41.7227 49.2221 41.6936 49.2891C41.6646 49.3561 41.6221 49.4165 41.5688 49.4664C41.5154 49.5164 41.4525 49.5548 41.3837 49.5794C41.3149 49.604 41.2418 49.6143 41.1689 49.6095Z" fill="#43744B"/>
<path d="M49.2202 49.6095C47.2764 49.6095 45.7523 47.3485 45.7523 44.4624C45.7523 41.5763 47.2764 39.3176 49.2202 39.3176C51.1641 39.3176 52.7018 41.5786 52.7018 44.4624C52.6929 44.5977 52.633 44.7245 52.534 44.8172C52.4351 44.9098 52.3046 44.9614 52.1691 44.9614C52.0335 44.9614 51.903 44.9098 51.8041 44.8172C51.7052 44.7245 51.6452 44.5977 51.6363 44.4624C51.6363 42.2516 50.5366 40.3808 49.2316 40.3808C47.9266 40.3808 46.8269 42.2516 46.8269 44.4624C46.8269 46.6732 47.9289 48.544 49.2316 48.544C49.3669 48.5529 49.4937 48.6129 49.5864 48.7118C49.679 48.8107 49.7306 48.9412 49.7306 49.0768C49.7306 49.2123 49.679 49.3428 49.5864 49.4417C49.4937 49.5407 49.3669 49.6007 49.2316 49.6095H49.2202Z" fill="#43744B"/>
<path d="M57.2664 49.6095C55.3203 49.6095 53.7963 47.3485 53.7963 44.4624C53.7963 41.5763 55.3203 39.3176 57.2664 39.3176C59.2126 39.3176 60.7344 41.5786 60.7344 44.4624C60.7344 44.6034 60.6783 44.7386 60.5787 44.8383C60.479 44.938 60.3437 44.994 60.2028 44.994C60.0618 44.994 59.9266 44.938 59.8269 44.8383C59.7272 44.7386 59.6712 44.6034 59.6712 44.4624C59.6712 42.2516 58.5692 40.3808 57.2664 40.3808C55.9637 40.3808 54.8617 42.2516 54.8617 44.4624C54.8617 46.6732 55.9637 48.544 57.2664 48.544C57.4017 48.5529 57.5285 48.6129 57.6212 48.7118C57.7139 48.8107 57.7654 48.9412 57.7654 49.0768C57.7654 49.2123 57.7139 49.3428 57.6212 49.4417C57.5285 49.5407 57.4017 49.6007 57.2664 49.6095Z" fill="#43744B"/>
<path d="M65.3241 49.6095C63.378 49.6095 61.8539 47.3485 61.8539 44.4624C61.8539 41.5763 63.378 39.3176 65.3241 39.3176C67.2702 39.3176 68.792 41.5786 68.792 44.4624C68.792 44.6034 68.736 44.7386 68.6363 44.8383C68.5366 44.938 68.4014 44.994 68.2604 44.994C68.1194 44.994 67.9842 44.938 67.8845 44.8383C67.7848 44.7386 67.7288 44.6034 67.7288 44.4624C67.7288 42.2516 66.6268 40.3808 65.3241 40.3808C64.0213 40.3808 62.9194 42.2516 62.9194 44.4624C62.9194 46.6732 64.0191 48.544 65.3241 48.544C65.4593 48.5529 65.5862 48.6129 65.6788 48.7118C65.7715 48.8107 65.8231 48.9412 65.8231 49.0768C65.8231 49.2123 65.7715 49.3428 65.6788 49.4417C65.5862 49.5407 65.4593 49.6007 65.3241 49.6095Z" fill="#43744B"/>
<path d="M73.3736 49.6095C71.4297 49.6095 69.9057 47.3485 69.9057 44.4624C69.9057 41.5763 71.4297 39.3176 73.3736 39.3176C75.3174 39.3176 76.8438 41.5786 76.8438 44.4624C76.8349 44.5977 76.7749 44.7245 76.676 44.8172C76.5771 44.9098 76.4466 44.9614 76.311 44.9614C76.1755 44.9614 76.045 44.9098 75.9461 44.8172C75.8471 44.7245 75.7872 44.5977 75.7783 44.4624C75.7783 42.2516 74.6786 40.3808 73.3736 40.3808C72.0685 40.3808 70.9689 42.2516 70.9689 44.4624C70.9689 46.6732 72.0708 48.544 73.3736 48.544C73.4465 48.5393 73.5196 48.5495 73.5883 48.5741C73.6571 48.5987 73.7201 48.6372 73.7734 48.6871C73.8267 48.7371 73.8692 48.7974 73.8983 48.8644C73.9273 48.9315 73.9423 49.0037 73.9423 49.0768C73.9423 49.1498 73.9273 49.2221 73.8983 49.2891C73.8692 49.3561 73.8267 49.4165 73.7734 49.4664C73.7201 49.5164 73.6571 49.5548 73.5883 49.5794C73.5196 49.604 73.4465 49.6143 73.3736 49.6095Z" fill="#43744B"/>
<path d="M81.4244 49.6095C79.4805 49.6095 77.9565 47.3485 77.9565 44.4624C77.9565 41.5763 79.4805 39.3176 81.4244 39.3176C83.3682 39.3176 84.8946 41.5786 84.8946 44.4624C84.8857 44.5977 84.8257 44.7245 84.7268 44.8172C84.6279 44.9098 84.4974 44.9614 84.3618 44.9614C84.2263 44.9614 84.0958 44.9098 83.9969 44.8172C83.8979 44.7245 83.8379 44.5977 83.8291 44.4624C83.8291 42.2516 82.7271 40.3808 81.4244 40.3808C80.1216 40.3808 79.0197 42.2516 79.0197 44.4624C79.0197 46.6732 80.1216 48.544 81.4244 48.544C81.5596 48.5529 81.6865 48.6129 81.7791 48.7118C81.8718 48.8107 81.9234 48.9412 81.9234 49.0768C81.9234 49.2123 81.8718 49.3428 81.7791 49.4417C81.6865 49.5407 81.5596 49.6007 81.4244 49.6095Z" fill="#43744B"/>
<g opacity="0.3">
<path d="M41.1689 49.6095C39.2251 49.6095 37.701 47.3485 37.701 44.4624C37.701 41.5763 39.2251 39.3176 41.1689 39.3176C43.1128 39.3176 44.6391 41.5786 44.6391 44.4624C44.6302 44.5977 44.5703 44.7245 44.4713 44.8172C44.3724 44.9098 44.2419 44.9614 44.1064 44.9614C43.9708 44.9614 43.8403 44.9098 43.7414 44.8172C43.6425 44.7245 43.5825 44.5977 43.5736 44.4624C43.5736 42.2516 42.4739 40.3808 41.1689 40.3808C39.8639 40.3808 38.7642 42.2516 38.7642 44.4624C38.7642 46.6732 39.8662 48.544 41.1689 48.544C41.2418 48.5393 41.3149 48.5495 41.3837 48.5741C41.4525 48.5987 41.5154 48.6372 41.5688 48.6871C41.6221 48.7371 41.6646 48.7974 41.6936 48.8644C41.7227 48.9315 41.7377 49.0037 41.7377 49.0768C41.7377 49.1498 41.7227 49.2221 41.6936 49.2891C41.6646 49.3561 41.6221 49.4165 41.5688 49.4664C41.5154 49.5164 41.4525 49.5548 41.3837 49.5794C41.3149 49.604 41.2418 49.6143 41.1689 49.6095Z" fill="black"/>
<path d="M49.2203 49.6095C47.2765 49.6095 45.7524 47.3485 45.7524 44.4623C45.7524 41.5762 47.2765 39.3175 49.2203 39.3175C51.1642 39.3175 52.7019 41.5785 52.7019 44.4623C52.6931 44.5976 52.6331 44.7244 52.5341 44.8171C52.4352 44.9098 52.3047 44.9613 52.1692 44.9613C52.0336 44.9613 51.9032 44.9098 51.8042 44.8171C51.7053 44.7244 51.6453 44.5976 51.6365 44.4623C51.6365 42.2516 50.5368 40.3807 49.2317 40.3807C47.9267 40.3807 46.827 42.2516 46.827 44.4623C46.827 46.6731 47.929 48.544 49.2317 48.544C49.367 48.5528 49.4938 48.6128 49.5865 48.7118C49.6792 48.8107 49.7307 48.9412 49.7307 49.0767C49.7307 49.2123 49.6792 49.3427 49.5865 49.4417C49.4938 49.5406 49.367 49.6006 49.2317 49.6095H49.2203Z" fill="black"/>
<path d="M57.2666 49.6095C55.3204 49.6095 53.7964 47.3485 53.7964 44.4623C53.7964 41.5762 55.3204 39.3175 57.2666 39.3175C59.2127 39.3175 60.7345 41.5785 60.7345 44.4623C60.7345 44.6033 60.6785 44.7385 60.5788 44.8382C60.4791 44.9379 60.3439 44.9939 60.2029 44.9939C60.0619 44.9939 59.9267 44.9379 59.827 44.8382C59.7273 44.7385 59.6713 44.6033 59.6713 44.4623C59.6713 42.2516 58.5693 40.3807 57.2666 40.3807C55.9638 40.3807 54.8619 42.2516 54.8619 44.4623C54.8619 46.6731 55.9638 48.544 57.2666 48.544C57.4018 48.5528 57.5287 48.6128 57.6213 48.7118C57.714 48.8107 57.7656 48.9412 57.7656 49.0767C57.7656 49.2123 57.714 49.3427 57.6213 49.4417C57.5287 49.5406 57.4018 49.6006 57.2666 49.6095Z" fill="black"/>
<path d="M65.3242 49.6095C63.3781 49.6095 61.854 47.3485 61.854 44.4623C61.854 41.5762 63.3781 39.3175 65.3242 39.3175C67.2703 39.3175 68.7921 41.5785 68.7921 44.4623C68.7921 44.6033 68.7361 44.7385 68.6364 44.8382C68.5367 44.9379 68.4015 44.9939 68.2605 44.9939C68.1195 44.9939 67.9843 44.9379 67.8846 44.8382C67.7849 44.7385 67.7289 44.6033 67.7289 44.4623C67.7289 42.2516 66.627 40.3807 65.3242 40.3807C64.0215 40.3807 62.9195 42.2516 62.9195 44.4623C62.9195 46.6731 64.0192 48.544 65.3242 48.544C65.4595 48.5528 65.5863 48.6128 65.679 48.7118C65.7716 48.8107 65.8232 48.9412 65.8232 49.0767C65.8232 49.2123 65.7716 49.3427 65.679 49.4417C65.5863 49.5406 65.4595 49.6006 65.3242 49.6095Z" fill="black"/>
<path d="M73.3737 49.6095C71.4298 49.6095 69.9058 47.3485 69.9058 44.4623C69.9058 41.5762 71.4298 39.3175 73.3737 39.3175C75.3176 39.3175 76.8439 41.5785 76.8439 44.4623C76.835 44.5976 76.7751 44.7244 76.6761 44.8171C76.5772 44.9098 76.4467 44.9613 76.3112 44.9613C76.1756 44.9613 76.0451 44.9098 75.9462 44.8171C75.8473 44.7244 75.7873 44.5976 75.7784 44.4623C75.7784 42.2516 74.6787 40.3807 73.3737 40.3807C72.0687 40.3807 70.969 42.2516 70.969 44.4623C70.969 46.6731 72.071 48.544 73.3737 48.544C73.4466 48.5392 73.5197 48.5494 73.5885 48.5741C73.6572 48.5987 73.7202 48.6371 73.7735 48.6871C73.8269 48.737 73.8694 48.7974 73.8984 48.8644C73.9275 48.9314 73.9425 49.0037 73.9425 49.0767C73.9425 49.1498 73.9275 49.222 73.8984 49.2891C73.8694 49.3561 73.8269 49.4164 73.7735 49.4664C73.7202 49.5163 73.6572 49.5548 73.5885 49.5794C73.5197 49.604 73.4466 49.6142 73.3737 49.6095Z" fill="black"/>
<path d="M81.4245 49.6095C79.4806 49.6095 77.9566 47.3485 77.9566 44.4623C77.9566 41.5762 79.4806 39.3175 81.4245 39.3175C83.3684 39.3175 84.8947 41.5785 84.8947 44.4623C84.8858 44.5976 84.8258 44.7244 84.7269 44.8171C84.628 44.9098 84.4975 44.9613 84.362 44.9613C84.2264 44.9613 84.0959 44.9098 83.997 44.8171C83.8981 44.7244 83.8381 44.5976 83.8292 44.4623C83.8292 42.2516 82.7272 40.3807 81.4245 40.3807C80.1218 40.3807 79.0198 42.2516 79.0198 44.4623C79.0198 46.6731 80.1218 48.544 81.4245 48.544C81.5598 48.5528 81.6866 48.6128 81.7793 48.7118C81.8719 48.8107 81.9235 48.9412 81.9235 49.0767C81.9235 49.2123 81.8719 49.3427 81.7793 49.4417C81.6866 49.5406 81.5598 49.6006 81.4245 49.6095Z" fill="black"/>
</g>
<path d="M65.8633 61.2399C64.0016 60.8703 61.9117 61.3015 61.1657 63.2636C60.5656 64.8424 61.3345 66.5536 62.9909 66.9711C64.4511 67.3384 66.9699 66.8889 67.49 65.2052C68.0855 63.2796 65.6648 62.6544 64.3073 62.5404C63.8989 62.5061 63.9012 63.145 64.3073 63.1792C64.9256 63.2317 65.6329 63.2659 66.1804 63.6058C67.3212 64.3199 66.8512 65.4653 65.8793 66.0128C64.9074 66.5604 63.4175 66.6973 62.457 66.0904C61.4075 65.4219 61.3733 63.9526 62.0007 62.9944C62.8243 61.7281 64.3279 61.5867 65.6831 61.8536C66.0846 61.9335 66.2557 61.3175 65.8519 61.2376L65.8633 61.2399Z" fill="#43744B"/>
<path opacity="0.1" d="M65.8633 61.2399C64.0016 60.8703 61.9117 61.3015 61.1657 63.2636C60.5656 64.8424 61.3345 66.5536 62.9909 66.9711C64.4511 67.3384 66.9699 66.8889 67.49 65.2052C68.0855 63.2796 65.6648 62.6544 64.3073 62.5404C63.8989 62.5061 63.9012 63.145 64.3073 63.1792C64.9256 63.2317 65.6329 63.2659 66.1804 63.6058C67.3212 64.3199 66.8512 65.4653 65.8793 66.0128C64.9074 66.5604 63.4175 66.6973 62.457 66.0904C61.4075 65.4219 61.3733 63.9526 62.0007 62.9944C62.8243 61.7281 64.3279 61.5867 65.6831 61.8536C66.0846 61.9335 66.2557 61.3175 65.8519 61.2376L65.8633 61.2399Z" fill="#FAFAFA"/>
<path d="M45.3233 53.8917C47.1037 56.2519 49.0887 58.4507 51.2552 60.4624C51.5564 60.7431 52.0104 60.2913 51.7115 60.0061C49.5821 58.0341 47.63 55.8789 45.8777 53.5654C45.6336 53.2414 45.0792 53.5654 45.3279 53.8871L45.3233 53.8917Z" fill="#43744B"/>
<path d="M45.9822 60.1953C47.3283 57.802 49.6851 55.7601 51.9142 54.1972C52.2473 53.9691 51.9302 53.4078 51.5925 53.6451C49.2745 55.2741 46.8378 57.3777 45.4324 59.8714C45.3938 59.944 45.3848 60.0287 45.4071 60.1079C45.4295 60.1871 45.4815 60.2546 45.5524 60.2963C45.6233 60.3381 45.7075 60.3509 45.7876 60.3321C45.8676 60.3133 45.9374 60.2643 45.9822 60.1953Z" fill="#43744B"/>
<g opacity="0.2">
<path d="M45.3233 53.8917C47.1037 56.2519 49.0887 58.4507 51.2552 60.4624C51.5564 60.7431 52.0104 60.2913 51.7115 60.0061C49.5821 58.0341 47.63 55.8789 45.8777 53.5654C45.6336 53.2414 45.0792 53.5654 45.3279 53.8871L45.3233 53.8917Z" fill="black"/>
<path d="M45.982 60.1953C47.3281 57.802 49.6849 55.76 51.9139 54.1972C52.247 53.969 51.9299 53.4078 51.5922 53.645C49.2742 55.274 46.8376 57.3776 45.4322 59.8713C45.3936 59.944 45.3845 60.0287 45.4069 60.1078C45.4292 60.187 45.4813 60.2545 45.5521 60.2962C45.623 60.338 45.7073 60.3508 45.7873 60.332C45.8674 60.3132 45.9371 60.2642 45.982 60.1953Z" fill="black"/>
</g>
<path d="M70.6971 55.9339H74.8609C74.9407 55.9271 75.015 55.8907 75.0691 55.8317C75.1233 55.7728 75.1533 55.6957 75.1533 55.6156C75.1533 55.5356 75.1233 55.4585 75.0691 55.3995C75.015 55.3406 74.9407 55.3041 74.8609 55.2974H70.6971C70.6174 55.3041 70.5431 55.3406 70.4889 55.3995C70.4347 55.4585 70.4047 55.5356 70.4047 55.6156C70.4047 55.6957 70.4347 55.7728 70.4889 55.8317C70.5431 55.8907 70.6174 55.9271 70.6971 55.9339Z" fill="#43744B"/>
<path d="M70.65 57.1183H73.0638C73.1486 57.1183 73.2298 57.0847 73.2897 57.0248C73.3496 56.9649 73.3833 56.8836 73.3833 56.7989C73.3833 56.7142 73.3496 56.633 73.2897 56.573C73.2298 56.5131 73.1486 56.4795 73.0638 56.4795H70.65C70.5653 56.4795 70.484 56.5131 70.4241 56.573C70.3642 56.633 70.3306 56.7142 70.3306 56.7989C70.3306 56.8836 70.3642 56.9649 70.4241 57.0248C70.484 57.0847 70.5653 57.1183 70.65 57.1183Z" fill="#43744B"/>
<g opacity="0.1">
<path d="M70.6969 55.9338H74.8607C74.9404 55.9271 75.0147 55.8906 75.0689 55.8317C75.123 55.7727 75.1531 55.6956 75.1531 55.6156C75.1531 55.5355 75.123 55.4584 75.0689 55.3995C75.0147 55.3405 74.9404 55.3041 74.8607 55.2973H70.6969C70.6171 55.3041 70.5428 55.3405 70.4887 55.3995C70.4345 55.4584 70.4044 55.5355 70.4044 55.6156C70.4044 55.6956 70.4345 55.7727 70.4887 55.8317C70.5428 55.8906 70.6171 55.9271 70.6969 55.9338Z" fill="#FAFAFA"/>
<path d="M70.6498 57.1183H73.0636C73.1483 57.1183 73.2296 57.0846 73.2895 57.0247C73.3494 56.9648 73.383 56.8836 73.383 56.7988C73.383 56.7141 73.3494 56.6329 73.2895 56.573C73.2296 56.5131 73.1483 56.4794 73.0636 56.4794H70.6498C70.565 56.4794 70.4838 56.5131 70.4239 56.573C70.364 56.6329 70.3304 56.7141 70.3304 56.7988C70.3304 56.8836 70.364 56.9648 70.4239 57.0247C70.4838 57.0846 70.565 57.1183 70.6498 57.1183Z" fill="#FAFAFA"/>
</g>
<path d="M45.757 72.2781H49.3276C49.4123 72.2781 49.4935 72.2445 49.5534 72.1846C49.6133 72.1247 49.647 72.0434 49.647 71.9587C49.647 71.874 49.6133 71.7928 49.5534 71.7329C49.4935 71.673 49.4123 71.6393 49.3276 71.6393H45.757C45.6723 71.6393 45.5911 71.673 45.5312 71.7329C45.4712 71.7928 45.4376 71.874 45.4376 71.9587C45.4376 72.0434 45.4712 72.1247 45.5312 72.1846C45.5911 72.2445 45.6723 72.2781 45.757 72.2781Z" fill="#43744B"/>
<path d="M45.6315 73.6495H50.263C50.3477 73.6495 50.429 73.6158 50.4889 73.5559C50.5488 73.496 50.5824 73.4148 50.5824 73.3301C50.5824 73.2454 50.5488 73.1641 50.4889 73.1042C50.429 73.0443 50.3477 73.0107 50.263 73.0107H45.6315C45.5468 73.0107 45.4656 73.0443 45.4057 73.1042C45.3458 73.1641 45.3121 73.2454 45.3121 73.3301C45.3121 73.4148 45.3458 73.496 45.4057 73.5559C45.4656 73.6158 45.5468 73.6495 45.6315 73.6495Z" fill="#43744B"/>
<path d="M45.6315 75.0618H47.9473C48.032 75.0618 48.1132 75.0282 48.1731 74.9683C48.233 74.9084 48.2667 74.8271 48.2667 74.7424C48.2667 74.6577 48.233 74.5765 48.1731 74.5166C48.1132 74.4567 48.032 74.423 47.9473 74.423H45.6315C45.5468 74.423 45.4656 74.4567 45.4057 74.5166C45.3458 74.5765 45.3121 74.6577 45.3121 74.7424C45.3121 74.8271 45.3458 74.9084 45.4057 74.9683C45.4656 75.0282 45.5468 75.0618 45.6315 75.0618Z" fill="#43744B"/>
<g opacity="0.1">
<path d="M45.7569 72.2782H49.3275C49.4122 72.2782 49.4934 72.2445 49.5533 72.1846C49.6132 72.1247 49.6469 72.0435 49.6469 71.9588C49.6469 71.8741 49.6132 71.7928 49.5533 71.7329C49.4934 71.673 49.4122 71.6394 49.3275 71.6394H45.7569C45.6722 71.6394 45.5909 71.673 45.531 71.7329C45.4711 71.7928 45.4375 71.8741 45.4375 71.9588C45.4375 72.0435 45.4711 72.1247 45.531 72.1846C45.5909 72.2445 45.6722 72.2782 45.7569 72.2782Z" fill="#FAFAFA"/>
<path d="M45.6314 73.6495H50.2629C50.3476 73.6495 50.4288 73.6159 50.4887 73.556C50.5486 73.4961 50.5823 73.4148 50.5823 73.3301C50.5823 73.2454 50.5486 73.1642 50.4887 73.1043C50.4288 73.0444 50.3476 73.0107 50.2629 73.0107H45.6314C45.5467 73.0107 45.4654 73.0444 45.4055 73.1043C45.3456 73.1642 45.312 73.2454 45.312 73.3301C45.312 73.4148 45.3456 73.4961 45.4055 73.556C45.4654 73.6159 45.5467 73.6495 45.6314 73.6495Z" fill="#FAFAFA"/>
<path d="M45.6314 75.0619H47.9471C48.0318 75.0619 48.1131 75.0282 48.173 74.9683C48.2329 74.9084 48.2666 74.8272 48.2666 74.7425C48.2666 74.6578 48.2329 74.5765 48.173 74.5166C48.1131 74.4567 48.0318 74.4231 47.9471 74.4231H45.6314C45.5467 74.4231 45.4654 74.4567 45.4055 74.5166C45.3456 74.5765 45.312 74.6578 45.312 74.7425C45.312 74.8272 45.3456 74.9084 45.4055 74.9683C45.4654 75.0282 45.5467 75.0619 45.6314 75.0619Z" fill="#FAFAFA"/>
</g>
<path d="M20.5776 36.4563L21.6567 36.4083L21.1685 38.4617C20.7833 38.198 20.4323 37.8877 20.1235 37.5377C20.0345 37.433 19.9903 37.2974 20.0005 37.1603C20.0108 37.0232 20.0746 36.8956 20.1783 36.8053L20.5776 36.4563Z" fill="#E4897B"/>
<path d="M22.9098 37.5149L22.4261 39.1849L21.169 38.4571L21.6572 36.4083L22.9098 37.5149Z" fill="#E4897B"/>
<path d="M22.6968 27.6004L20.4886 27.8049L25.5531 82.503L27.7613 82.2985L22.6968 27.6004Z" fill="#43744B"/>
<path opacity="0.3" d="M22.6968 27.6004L20.4886 27.8049L25.5531 82.503L27.7613 82.2985L22.6968 27.6004Z" fill="black"/>
<path d="M27.1135 27.1901L24.9053 27.3945L29.9699 82.0926L32.1781 81.8882L27.1135 27.1901Z" fill="#43744B"/>
<path opacity="0.3" d="M27.1135 27.1901L24.9053 27.3945L29.9699 82.0926L32.1781 81.8882L27.1135 27.1901Z" fill="black"/>
<path d="M24.906 27.3947L22.6978 27.5991L27.7624 82.2972L29.9706 82.0928L24.906 27.3947Z" fill="#43744B"/>
<path opacity="0.1" d="M24.906 27.3947L22.6978 27.5991L27.7624 82.2972L29.9706 82.0928L24.906 27.3947Z" fill="black"/>
<path d="M24.4406 23.5702L22.4534 23.755L20.4891 27.8047L27.1146 27.191L24.4406 23.5702Z" fill="#43744B"/>
<g opacity="0.8">
<path d="M24.4406 23.5702L22.4534 23.755L20.4891 27.8047L27.1146 27.191L24.4406 23.5702Z" fill="#FAFAFA"/>
</g>
<path d="M23.2936 22.0188L22.4517 23.755L24.4389 23.5702L23.2936 22.0188Z" fill="#263238"/>
<path d="M39.9905 25.1108C40.2186 25.339 40.408 25.5557 40.6042 25.7953C40.8004 26.0348 40.9875 26.2516 41.1746 26.4797C41.551 26.936 41.9024 27.4174 42.2446 27.908C42.9501 28.9053 43.5453 29.9763 44.0196 31.1021C44.0767 31.2481 44.1291 31.401 44.1839 31.5584L44.266 31.7866C44.3113 31.9231 44.3433 32.0637 44.3619 32.2064C44.4114 32.6604 44.3511 33.1197 44.1862 33.5456C43.9399 34.1743 43.5949 34.7597 43.1641 35.2796C42.4023 36.2118 41.5253 37.0436 40.554 37.755L39.6939 36.8424C40.3708 35.9961 40.9898 35.1051 41.5465 34.1753C41.7903 33.7781 41.9777 33.3488 42.1032 32.8999C42.1378 32.7898 42.1418 32.6722 42.1146 32.56L42.037 32.3912C41.9845 32.2794 41.9389 32.163 41.8819 32.0535C41.3989 31.1164 40.8339 30.2238 40.1935 29.3864C39.8741 28.9506 39.5364 28.5263 39.1942 28.1019C39.0231 27.892 38.8497 27.6821 38.6718 27.4768L38.1516 26.8767L39.9905 25.1108Z" fill="#E4897B"/>
<path d="M38.3131 37.5378L39.285 39.4612L40.2364 38.6421L39.4561 37.2755L38.3131 37.5378Z" fill="#E4897B"/>
<path d="M30.9924 26.2378C30.4008 27.3649 29.7863 28.479 29.149 29.5802C28.8364 30.1346 28.5079 30.6799 28.1884 31.2298L27.6979 32.0511L27.5747 32.2565C27.5131 32.3546 27.4447 32.4709 27.3831 32.5485C27.3215 32.6261 27.2599 32.7196 27.2006 32.7903C27.1412 32.8611 27.0773 32.9409 27.018 33.0071C26.5571 33.5091 26.0665 33.983 25.5487 34.4262C25.0491 34.8528 24.5494 35.2681 24.0338 35.6628C23.014 36.459 21.9668 37.2005 20.8807 37.9078L20.0982 36.9222L22.8018 34.2596C23.2444 33.8033 23.6916 33.3744 24.1137 32.9227C24.5284 32.4975 24.9191 32.0497 25.2841 31.5811C25.3282 31.5264 25.367 31.4739 25.4004 31.4237C25.4392 31.3689 25.4666 31.3233 25.494 31.2777C25.5176 31.241 25.5389 31.2029 25.5579 31.1636L25.6628 30.9514L26.0849 30.0913C26.3746 29.5232 26.6575 28.9505 26.9519 28.387C27.5344 27.2508 28.1428 26.1275 28.7771 25.0172L30.9924 26.2378Z" fill="#E4897B"/>
<path d="M37.3974 18.5304C37.3678 18.6626 37.4157 18.7881 37.5001 18.8109C37.5845 18.8337 37.678 18.7425 37.7076 18.6102C37.7373 18.4779 37.6871 18.3525 37.6027 18.3296C37.5183 18.3068 37.418 18.3981 37.3974 18.5304Z" fill="#263238"/>
<path d="M37.4008 18.7857C37.4723 19.2307 37.6027 19.6642 37.7887 20.0747C37.6837 20.1163 37.5709 20.1344 37.4581 20.1277C37.3454 20.121 37.2355 20.0897 37.1362 20.036L37.4008 18.7857Z" fill="#DE5753"/>
<path d="M37.7453 17.7277C37.7291 17.7278 37.7132 17.723 37.6997 17.7141C37.6154 17.6626 37.5199 17.6324 37.4214 17.626C37.3228 17.6196 37.2242 17.6373 37.134 17.6776C37.1143 17.6852 37.0924 17.685 37.0729 17.677C37.0533 17.6689 37.0377 17.6536 37.0291 17.6342C37.0214 17.6145 37.0217 17.5926 37.0297 17.5731C37.0378 17.5535 37.0531 17.5379 37.0725 17.5293C37.1877 17.4798 37.3133 17.4589 37.4384 17.4685C37.5635 17.478 37.6844 17.5177 37.7909 17.5841C37.7996 17.5898 37.807 17.5972 37.8127 17.6059C37.8185 17.6145 37.8224 17.6242 37.8243 17.6345C37.8263 17.6447 37.8261 17.6552 37.8239 17.6653C37.8217 17.6755 37.8174 17.6851 37.8114 17.6935C37.804 17.7042 37.7941 17.7129 37.7826 17.7188C37.7711 17.7248 37.7583 17.7279 37.7453 17.7277Z" fill="#263238"/>
<path d="M32.782 19.0347C33.0694 20.2622 33.3957 22.5072 32.5698 23.3262C32.5698 23.3262 32.9531 24.5697 35.2323 24.5697C37.742 24.5697 36.3731 23.3262 36.3731 23.3262C34.9927 23 34.9882 21.9847 35.189 21.0333L32.782 19.0347Z" fill="#E4897B"/>
<path d="M32.259 23.7531C32.0628 23.3607 31.8483 22.9089 32.259 22.7675C32.7016 22.6123 35.1588 22.4549 36.019 22.7447C36.2481 22.806 36.4444 22.9541 36.5662 23.1577C36.6881 23.3613 36.7258 23.6043 36.6715 23.8352L32.259 23.7531Z" fill="#43744B"/>
<path opacity="0.6" d="M32.259 23.7531C32.0628 23.3607 31.8483 22.9089 32.259 22.7675C32.7016 22.6123 35.1588 22.4549 36.019 22.7447C36.2481 22.806 36.4444 22.9541 36.5662 23.1577C36.6881 23.3613 36.7258 23.6043 36.6715 23.8352L32.259 23.7531Z" fill="#FAFAFA"/>
<path d="M28.9757 80.9942C28.8285 80.9934 28.6817 80.9774 28.5378 80.9463C28.5304 80.945 28.5236 80.9415 28.5183 80.9362C28.513 80.9309 28.5095 80.924 28.5082 80.9166C28.5067 80.909 28.5074 80.9011 28.5102 80.8938C28.513 80.8865 28.5178 80.8802 28.5241 80.8756C28.5424 80.8619 28.9803 80.5472 29.2357 80.6019C29.2633 80.6067 29.2895 80.6176 29.3124 80.6338C29.3353 80.65 29.3543 80.671 29.368 80.6954C29.3886 80.7227 29.3997 80.7559 29.3997 80.7901C29.3997 80.8242 29.3886 80.8574 29.368 80.8847C29.3133 80.9737 29.1468 80.9942 28.9757 80.9942ZM28.6496 80.8893C28.9005 80.9303 29.2426 80.9303 29.311 80.8368C29.311 80.8368 29.3384 80.8003 29.2996 80.7342C29.2913 80.7197 29.2797 80.7072 29.2659 80.6977C29.2521 80.6882 29.2363 80.682 29.2198 80.6794C29.0127 80.6928 28.8142 80.7674 28.6496 80.8938V80.8893Z" fill="#FAFAFA"/>
<path d="M28.5467 80.9531H28.5262C28.5203 80.9497 28.5154 80.9447 28.5122 80.9386C28.5089 80.9326 28.5075 80.9257 28.508 80.9189C28.508 80.8984 28.5285 80.4148 28.7178 80.2552C28.7405 80.2348 28.7673 80.2196 28.7965 80.2105C28.8256 80.2015 28.8563 80.1988 28.8866 80.2027C28.9173 80.2027 28.9471 80.2134 28.9709 80.2329C28.9946 80.2525 29.0107 80.2797 29.0166 80.3099C29.0531 80.4969 28.7338 80.8619 28.5604 80.9554L28.5467 80.9531ZM28.8592 80.2689C28.8264 80.2692 28.7948 80.2814 28.7703 80.3031C28.6584 80.4563 28.5963 80.6402 28.5924 80.8299C28.7566 80.6999 28.9596 80.424 28.939 80.3145C28.939 80.3031 28.939 80.2757 28.8775 80.2689H28.8592Z" fill="#FAFAFA"/>
<path d="M39.0411 80.9933C38.8681 80.9932 38.6955 80.9772 38.5255 80.9453C38.5175 80.944 38.5101 80.9402 38.5044 80.9345C38.4986 80.9288 38.4949 80.9214 38.4935 80.9134C38.4923 80.9055 38.4933 80.8974 38.4965 80.8902C38.4998 80.8829 38.5051 80.8767 38.5118 80.8723C38.5962 80.8244 39.34 80.3978 39.5202 80.6921C39.5383 80.7178 39.548 80.7485 39.548 80.7799C39.548 80.8114 39.5383 80.842 39.5202 80.8678C39.47 80.9682 39.2556 80.9933 39.0411 80.9933ZM38.651 80.886C38.9658 80.9317 39.3902 80.9248 39.4632 80.8221C39.4632 80.8221 39.486 80.7902 39.4518 80.7332C39.3514 80.5712 38.8996 80.7651 38.651 80.8906V80.886Z" fill="#FAFAFA"/>
<path d="M38.5321 80.9528C38.5246 80.9549 38.5167 80.9549 38.5093 80.9528C38.5036 80.9488 38.4991 80.9432 38.4963 80.9368C38.4934 80.9304 38.4924 80.9233 38.4933 80.9163C38.4933 80.8981 38.5207 80.4465 38.7214 80.2709C38.7518 80.243 38.7881 80.2224 38.8276 80.2106C38.8671 80.1987 38.9088 80.1959 38.9495 80.2025C39.0612 80.2139 39.0932 80.2709 39.1 80.3165C39.1319 80.5104 38.751 80.8639 38.5503 80.9551L38.5321 80.9528ZM38.9153 80.2686C38.8646 80.268 38.8157 80.2868 38.7784 80.3211C38.6585 80.4679 38.589 80.6494 38.58 80.8388C38.7807 80.7156 39.0361 80.4351 39.0202 80.3188C39.0202 80.3074 39.0202 80.2777 38.9381 80.2686H38.9153Z" fill="#FAFAFA"/>
<path d="M36.6886 80.9112H38.3655L38.3814 77.0304H36.7068L36.6886 80.9112Z" fill="#E4897B"/>
<path d="M26.6233 80.9112H28.3003L28.9938 77.0304H27.3169L26.6233 80.9112Z" fill="#E4897B"/>
<path d="M28.4144 80.7181H26.5322C26.4989 80.7176 26.4665 80.7291 26.441 80.7505C26.4155 80.7718 26.3984 80.8016 26.393 80.8344L26.1192 82.3243C26.1136 82.3612 26.1161 82.399 26.1265 82.4349C26.1369 82.4708 26.155 82.504 26.1795 82.5322C26.204 82.5604 26.2344 82.583 26.2685 82.5983C26.3026 82.6136 26.3396 82.6213 26.377 82.6209C27.0341 82.6095 27.3512 82.5707 28.1794 82.5707C28.6882 82.5707 29.74 82.6254 30.445 82.6254C31.1499 82.6254 31.2115 81.941 30.9218 81.8657C29.6191 81.5828 29.1171 81.1926 28.6905 80.823C28.6143 80.7556 28.5161 80.7183 28.4144 80.7181Z" fill="#263238"/>
<path d="M38.3475 80.7181H36.5222C36.489 80.7176 36.4566 80.7291 36.4311 80.7505C36.4056 80.7718 36.3885 80.8016 36.3831 80.8344L36.1093 82.3243C36.1029 82.361 36.1047 82.3986 36.1145 82.4345C36.1244 82.4705 36.142 82.5038 36.1662 82.5321C36.1904 82.5604 36.2205 82.5831 36.2545 82.5984C36.2884 82.6137 36.3253 82.6214 36.3625 82.6209C37.0219 82.6095 37.9733 82.5707 38.8038 82.5707C39.7757 82.5707 40.6153 82.6254 41.7538 82.6254C42.4382 82.6254 42.6048 81.941 42.315 81.8657C40.9917 81.5782 39.9194 81.5486 38.7604 80.8504C38.6378 80.7686 38.4948 80.7228 38.3475 80.7181Z" fill="#263238"/>
<path d="M29.3729 23.7048C27.8146 24.0652 26.1788 28.3477 26.1788 28.3477L29.4162 30.5105C30.1595 29.3835 30.8111 28.1987 31.3647 26.9673C32.2202 25.0075 30.9631 23.3374 29.3729 23.7048Z" fill="#43744B"/>
<path opacity="0.7" d="M29.3729 23.7048C27.8146 24.0652 26.1788 28.3477 26.1788 28.3477L29.4162 30.5105C30.1595 29.3835 30.8111 28.1987 31.3647 26.9673C32.2202 25.0075 30.9631 23.3374 29.3729 23.7048Z" fill="black"/>
<path d="M30.6025 26.436L29.2632 30.4082L29.4161 30.5108C29.4161 30.5108 30.0276 29.5982 30.6778 28.3822L30.6025 26.436Z" fill="#43744B"/>
<path opacity="0.8" d="M30.6025 26.436L29.2632 30.4082L29.4161 30.5108C29.4161 30.5108 30.0276 29.5982 30.6778 28.3822L30.6025 26.436Z" fill="black"/>
<path d="M39.8292 31.1926C39.8155 33.0634 39.7037 35.3906 39.4254 38.279H30.459C30.3426 36.91 30.9495 30.1887 29.373 23.7046C30.3592 23.5135 31.3568 23.387 32.3595 23.3259C33.6285 23.2528 34.9006 23.2528 36.1696 23.3259C37.0448 23.411 37.9121 23.5635 38.7637 23.7822C38.7637 23.7822 39.5303 24.6127 39.763 28.5072C39.8086 29.2852 39.8337 30.1704 39.8292 31.1926Z" fill="#43744B"/>
<path opacity="0.7" d="M39.8292 31.1926C39.8155 33.0634 39.7037 35.3906 39.4254 38.279H30.459C30.3426 36.91 30.9495 30.1887 29.373 23.7046C30.3592 23.5135 31.3568 23.387 32.3595 23.3259C33.6285 23.2528 34.9006 23.2528 36.1696 23.3259C37.0448 23.411 37.9121 23.5635 38.7637 23.7822C38.7637 23.7822 39.5303 24.6127 39.763 28.5072C39.8086 29.2852 39.8337 30.1704 39.8292 31.1926Z" fill="black"/>
<path d="M39.8285 31.1927C39.2855 30.2025 38.2999 28.2153 38.4391 27.086L39.7623 28.5188C39.808 29.2854 39.8331 30.1706 39.8285 31.1927Z" fill="#43744B"/>
<path opacity="0.8" d="M39.8285 31.1927C39.2855 30.2025 38.2999 28.2153 38.4391 27.086L39.7623 28.5188C39.808 29.2854 39.8331 30.1706 39.8285 31.1927Z" fill="black"/>
<path d="M37.0068 25.307C36.8654 26.904 40.4861 30.7461 40.4861 30.7461L43.3882 28.3825C42.6281 27.0998 41.7174 25.9126 40.6755 24.8461C38.978 23.2057 37.1665 23.5183 37.0068 25.307Z" fill="#43744B"/>
<path opacity="0.7" d="M37.0068 25.307C36.8654 26.904 40.4861 30.7461 40.4861 30.7461L43.3882 28.3825C42.6281 27.0998 41.7174 25.9126 40.6755 24.8461C38.978 23.2057 37.1665 23.5183 37.0068 25.307Z" fill="black"/>
<path d="M38.3827 77.0331L38.3736 79.0317H36.6989L36.7058 77.0331H38.3827Z" fill="#CE6F64"/>
<path d="M27.3194 77.0331H28.9964L28.6382 79.0317H26.9612L27.3194 77.0331Z" fill="#CE6F64"/>
<path d="M33.0817 17.1458C32.8376 18.7976 32.6117 19.7467 33.246 20.7962C33.4476 21.1361 33.7384 21.4143 34.0869 21.6007C34.4353 21.7871 34.8281 21.8746 35.2228 21.8537C35.6174 21.8328 35.9987 21.7042 36.3255 21.482C36.6523 21.2599 36.9121 20.9525 37.0766 20.5932C37.7314 19.2243 38.0235 16.7511 36.5838 15.7062C36.2801 15.4716 35.9199 15.3212 35.5395 15.27C35.1591 15.2188 34.772 15.2687 34.417 15.4146C34.0621 15.5605 33.7518 15.7973 33.5174 16.1012C33.2829 16.4051 33.1327 16.7654 33.0817 17.1458Z" fill="#E4897B"/>
<path d="M38.0432 16.3628C37.5494 16.6324 37.0062 16.7993 36.4461 16.8533C36.0286 18.7629 34.9175 20.96 33.1197 20.328C32.4352 20.0999 31.7508 18.4412 31.68 16.9696C31.5614 17.1134 31.4816 17.3005 31.42 17.378C31.3173 16.724 31.3914 16.0545 31.6344 15.4387C32.1318 14.0288 32.4626 14.9642 33.0033 14.1086C33.3524 13.5428 33.973 13.2508 35.0567 13.2143C34.7533 13.3717 34.6962 13.6249 35.1457 13.5884C35.5951 13.5519 37.5139 13.447 38.6318 14.2022C37.8766 14.3733 38.3375 15.5711 39.3459 14.9322C38.9786 15.5277 38.5223 16.0935 38.0432 16.3628Z" fill="#263238"/>
<path d="M35.1558 18.1677C35.1622 18.5877 35.303 18.9947 35.5574 19.329C35.8973 19.767 36.2875 19.5571 36.381 19.0643C36.4632 18.6263 36.381 17.8688 35.9567 17.6041C35.5323 17.3395 35.1536 17.6657 35.1558 18.1677Z" fill="#E4897B"/>
<path d="M33.1119 14.2864C32.8842 14.2719 32.6635 14.202 32.4691 14.0827C32.2746 13.9634 32.1123 13.7983 31.9962 13.6019C31.9962 13.6019 31.9666 14.9389 33.1119 14.2864Z" fill="#1E2A4C"/>
<path d="M36.241 38.2792C36.241 38.2792 34.8355 51.0877 33.9754 55.8857C33.0354 61.1332 29.4124 78.6461 29.4124 78.6461H26.3323C26.3323 78.6461 28.518 61.5644 28.9743 56.3534C29.4649 50.7066 30.4664 38.2701 30.4664 38.2701L36.241 38.2792Z" fill="#43744B"/>
<path opacity="0.6" d="M36.241 38.2792C36.241 38.2792 34.8355 51.0877 33.9754 55.8857C33.0354 61.1332 29.4124 78.6461 29.4124 78.6461H26.3323C26.3323 78.6461 28.518 61.5644 28.9743 56.3534C29.4649 50.7066 30.4664 38.2701 30.4664 38.2701L36.241 38.2792Z" fill="#FAFAFA"/>
<path d="M29.8482 77.5138C29.8619 77.5138 29.5767 78.6934 29.5767 78.6934H26.1248L26.1476 77.6416L29.8482 77.5138Z" fill="#43744B"/>
<path opacity="0.1" d="M29.8482 77.5138C29.8619 77.5138 29.5767 78.6934 29.5767 78.6934H26.1248L26.1476 77.6416L29.8482 77.5138Z" fill="#FAFAFA"/>
<path d="M35.2187 42.8427C33.0353 43.2739 33.5852 51.4759 34.0118 55.6944C34.532 52.7125 35.2393 46.9745 35.7161 42.902C35.5617 42.8267 35.3865 42.8058 35.2187 42.8427Z" fill="#43744B"/>
<path opacity="0.4" d="M35.2187 42.8427C33.0353 43.2739 33.5852 51.4759 34.0118 55.6944C34.532 52.7125 35.2393 46.9745 35.7161 42.902C35.5617 42.8267 35.3865 42.8058 35.2187 42.8427Z" fill="#FAFAFA"/>
<path d="M39.4229 38.2797C39.4229 38.2797 40.1393 50.8098 40.153 55.9227C40.1689 61.2386 38.9848 78.6466 38.9848 78.6466H36.1444C36.1444 78.6466 35.38 61.5489 35.0515 56.3288C34.6956 50.6364 33.5297 38.2797 33.5297 38.2797H39.4229Z" fill="#43744B"/>
<path opacity="0.6" d="M39.4229 38.2797C39.4229 38.2797 40.1393 50.8098 40.153 55.9227C40.1689 61.2386 38.9848 78.6466 38.9848 78.6466H36.1444C36.1444 78.6466 35.38 61.5489 35.0515 56.3288C34.6956 50.6364 33.5297 38.2797 33.5297 38.2797H39.4229Z" fill="#FAFAFA"/>
<path d="M40.1096 36.6682L39.3134 36.7321C39.2485 36.7376 39.1857 36.7574 39.1294 36.7902C39.0732 36.8229 39.025 36.8678 38.9883 36.9216C38.9515 36.9753 38.9273 37.0366 38.9172 37.1009C38.9072 37.1652 38.9115 37.231 38.9301 37.2934L39.2586 38.3999C39.2864 38.4898 39.3354 38.5717 39.4016 38.6386C39.4678 38.7054 39.5491 38.7553 39.6387 38.784C39.7283 38.8127 39.8236 38.8193 39.9163 38.8033C40.009 38.7872 40.0965 38.749 40.1712 38.6919C40.5825 38.3091 40.8775 37.818 41.0222 37.2751L40.1096 36.6682Z" fill="#E4897B"/>
<path d="M38.3104 76.6066C38.3028 76.6055 38.2958 76.6016 38.2907 76.5958C38.2857 76.5899 38.283 76.5824 38.283 76.5747C38.5979 71.7584 39.328 60.1021 39.3143 55.9224C39.3143 51.6445 38.7941 42.0758 38.6298 39.2445C38.6295 39.2407 38.63 39.2369 38.6312 39.2333C38.6325 39.2297 38.6344 39.2264 38.637 39.2236C38.6396 39.2208 38.6427 39.2186 38.6462 39.2171C38.6497 39.2156 38.6534 39.2148 38.6572 39.2148C38.6647 39.2148 38.6719 39.2176 38.6774 39.2227C38.6829 39.2277 38.6863 39.2347 38.6869 39.2422C38.842 42.0735 39.3508 51.6422 39.3713 55.9224C39.385 60.1044 38.6549 71.7606 38.3401 76.5792C38.3401 76.583 38.3393 76.5868 38.3378 76.5902C38.3363 76.5937 38.3341 76.5968 38.3313 76.5994C38.3285 76.602 38.3252 76.604 38.3216 76.6052C38.318 76.6064 38.3142 76.6069 38.3104 76.6066Z" fill="#43744B"/>
<path opacity="0.3" d="M38.3104 76.6066C38.3028 76.6055 38.2958 76.6016 38.2907 76.5958C38.2857 76.5899 38.283 76.5824 38.283 76.5747C38.5979 71.7584 39.328 60.1021 39.3143 55.9224C39.3143 51.6445 38.7941 42.0758 38.6298 39.2445C38.6295 39.2407 38.63 39.2369 38.6312 39.2333C38.6325 39.2297 38.6344 39.2264 38.637 39.2236C38.6396 39.2208 38.6427 39.2186 38.6462 39.2171C38.6497 39.2156 38.6534 39.2148 38.6572 39.2148C38.6647 39.2148 38.6719 39.2176 38.6774 39.2227C38.6829 39.2277 38.6863 39.2347 38.6869 39.2422C38.842 42.0735 39.3508 51.6422 39.3713 55.9224C39.385 60.1044 38.6549 71.7606 38.3401 76.5792C38.3401 76.583 38.3393 76.5868 38.3378 76.5902C38.3363 76.5937 38.3341 76.5968 38.3313 76.5994C38.3285 76.602 38.3252 76.604 38.3216 76.6052C38.318 76.6064 38.3142 76.6069 38.3104 76.6066Z" fill="#FAFAFA"/>
<path d="M39.4863 77.5138C39.5 77.5138 39.3722 78.6934 39.3722 78.6934H35.918L35.7834 77.6416L39.4863 77.5138Z" fill="#43744B"/>
<path opacity="0.1" d="M39.4863 77.5138C39.5 77.5138 39.3722 78.6934 39.3722 78.6934H35.918L35.7834 77.6416L39.4863 77.5138Z" fill="#FAFAFA"/>
</svg>
