<svg width="297" height="94" viewBox="0 0 297 94" fill="none" xmlns="http://www.w3.org/2000/svg">
<path d="M0.5 81.4155C10.0308 71.4393 28.0514 47.0139 54.6059 55.5681C82.7585 64.6372 77.4799 85.9499 99.0343 91.3916C123.984 97.6904 143.463 75.5207 149.181 66.4513C155.293 56.7579 165.369 30.9905 180.853 25.1862C196.337 19.382 204.28 27.1939 208.126 33.8021C213.404 42.8716 217.275 64.2747 227.481 66.4513C237.686 68.6278 240.237 53.7545 245.076 40.6037C249.915 27.453 259.549 13.0186 276.882 17.7992C282.41 19.3237 288.942 20.7466 292.962 10.1765C296.983 -0.393579 296.48 0.521132 296.48 0.521132" stroke="#0070F0" stroke-linecap="round"/>
</svg>
