<svg width="143" height="135" viewBox="0 0 143 135" fill="none" xmlns="http://www.w3.org/2000/svg">
<g clip-path="url(#clip0_32_981)">
<g filter="url(#filter0_d_32_981)">
<path d="M86.8795 26.5513C86.8795 26.5513 93.3145 23.5297 93.881 20.4203C94.4475 17.3108 94.3871 17.7853 94.1787 16.4202C93.9703 15.0551 94.6369 14.8626 95.4362 15.9069C96.2355 16.9511 95.321 18.4835 95.9641 18.4344C96.6071 18.3853 97.0958 17.5001 98.3429 15.8653C99.7753 13.9872 99.9685 13.6024 100.625 14.156C101.282 14.7097 102.889 17.6344 100.736 20.0505C98.5825 22.4666 98.1528 21.4473 96.3221 23.4429C94.4915 25.4384 94.0322 29.6342 92.3502 31.2171C90.6682 32.8 88.0715 31.4263 87.314 30.4434C86.1487 28.933 86.8795 26.5513 86.8795 26.5513Z" fill="#FFD6D6"/>
</g>
<g filter="url(#filter1_d_32_981)">
<path d="M96.5586 32.358C96.5586 32.358 93.2119 38.3178 88.907 39.2606C84.4173 39.8821 83.9786 41.0239 82.1725 42.4808C80.1635 43.8316 74.846 45.7715 69.1608 40.4989C63.6436 35.3944 63.0162 30.4016 61.0358 20.8423C64.4249 22.0429 65.9355 21.4069 65.9355 21.4069C66.9003 22.1802 68.4437 24.4155 72.3961 26.7444C76.8421 29.3658 77.9184 29.4439 81.5831 26.9692C82.19 26.5624 86.4666 23.5229 86.4666 23.5229L96.5586 32.358Z" fill="#FF6D6D"/>
</g>
<g filter="url(#filter2_d_32_981)">
<path d="M23.575 99.0907L15.8875 100.473L25.4033 118.059C25.4033 118.059 26.7331 116.831 26.4001 114.143C26.0672 111.454 26.9959 105.071 28.8934 102.7L26.5668 99.0907H23.575Z" fill="#BFDDFF"/>
</g>
<g filter="url(#filter3_d_32_981)">
<path d="M67.8532 99.0908L61.2698 104.927L80.3014 115.064C80.1242 113.567 79.5181 112.154 78.5562 110.994C76.9766 109.151 73.9162 104.629 74.8163 101.932L72.0738 98.3995L67.8532 99.0908Z" fill="#BFDDFF"/>
</g>
<g filter="url(#filter4_d_32_981)">
<path d="M27.8515 104.602C27.8515 104.602 32.9267 100.119 38.2871 95.6272C40.3372 93.9091 47.7799 88.1332 50.4752 85.3239C57.6484 77.8466 62.2824 70.8476 64.6013 61.4743C66.501 53.7954 65.1671 45.8577 65.1671 45.8577L54.8233 42.8C54.8233 42.8 53.2549 42.6835 52.0083 44.3729C50.7616 46.0624 50.1626 45.8149 48.4593 50.7028C46.9618 55.0009 47.8514 59.8596 46.771 63.3922C45.6906 66.9247 45.0581 66.3825 43.6454 70.2997C42.2327 74.2169 42.1757 75.3691 39.5994 77.0576C37.0232 78.7461 35.0689 79.6112 33.257 82.4324C31.9087 84.5331 30.7156 87.7106 28.2679 89.3639C25.543 91.2043 23.1476 95.6357 22.8729 99.3249L27.8515 104.602Z" fill="#80BBFF"/>
</g>
<g filter="url(#filter5_d_32_981)">
<path d="M47.8337 48.9352C47.1378 51.4724 46.0342 55.1357 49.0037 59.163C50.6932 61.4546 56.2469 65.6548 59.5461 67.3541C62.259 68.751 69.3302 72.2545 70.7856 74.1246C72.8683 76.7996 71.8499 78.8371 70.0297 83.3472C68.8967 86.154 68.3954 88.81 68.069 92.708C67.8479 95.3502 68.096 97.0276 67.6205 99.2971L74.6669 102.7C74.6669 102.7 80.091 90.823 81.6776 87.0658C85.3929 78.2676 89.5306 69.893 83.6653 64.6015C80.4255 61.6784 78.2763 60.2413 73.7454 56.8522C68.7685 53.1292 66.8959 52.0424 66.3243 49.0156C65.5385 44.8536 67.9249 41.8471 67.9249 41.8471L51.9123 41.7153C51.9123 41.7153 49.261 43.7324 47.8337 48.9352Z" fill="#80BBFF"/>
</g>
<g filter="url(#filter6_d_32_981)">
<path d="M67.0765 17.5373C66.8367 18.7754 66.8184 20.0188 66.7238 21.1982C66.7238 21.1982 64.8762 22.2384 62.4748 19.6802L64.3801 15.5894L67.0765 17.5373Z" fill="#FFD6D6"/>
</g>
<g filter="url(#filter7_d_32_981)">
<path d="M73.6877 10.5417C73.694 10.5724 73.6975 10.595 73.7009 10.6083C73.7033 10.6124 73.7044 10.617 73.7043 10.6217C73.729 10.7445 73.7494 10.8684 73.7666 10.9982C73.952 12.3951 75.0459 13.479 75.043 13.8633C75.04 14.2477 74.2257 14.5027 73.8368 14.5354C73.4479 14.5681 72.9693 16.355 71.3831 17.3834C69.8941 18.3489 67.6682 18.2183 66.2012 17.4611C65.6365 14.4703 65.7411 12.3619 68.8757 11.0314C72.2974 9.57789 72.5345 8.20835 72.5345 8.20835C73.097 8.88445 73.4921 9.68392 73.6877 10.5417Z" fill="#FFD6D6"/>
</g>
<g filter="url(#filter8_d_32_981)">
<path d="M61.6757 5.96701C63.4587 5.96701 64.9041 4.63142 64.9041 2.98387C64.9041 1.33633 63.4587 0.000734747 61.6757 0.000734747C59.8928 0.000734747 58.4474 1.33633 58.4474 2.98387C58.4474 4.63142 59.8928 5.96701 61.6757 5.96701Z" fill="#4099FF"/>
</g>
<g filter="url(#filter9_d_32_981)">
<path d="M72.5241 11.6193C72.7339 11.8379 73.017 11.9712 73.319 11.9937C73.621 12.0162 73.9207 11.9263 74.1605 11.7412C74.3344 11.6064 74.4624 11.421 74.5269 11.2105C74.5754 11.0535 74.319 10.9545 74.2697 11.1134C74.2038 11.3316 74.0567 11.5162 73.8588 11.6291C73.6609 11.742 73.4272 11.7746 73.206 11.7202C73.0298 11.6827 72.8689 11.5931 72.7441 11.463C72.6256 11.3416 72.4041 11.4967 72.5241 11.6193Z" fill="#BFDDFF"/>
</g>
<g filter="url(#filter10_d_32_981)">
<path d="M70.5516 46.9352C65.2522 48.7111 63.0535 49.3243 55.8948 49.2626C49.6848 49.209 44.2475 46.7298 44.2475 46.7298C44.2475 46.7298 42.9824 41.6695 46.2612 37.6131C50.9952 33.0625 49.3744 31.3349 52.1214 27.8948C53.6819 25.7777 54.9239 24.4257 56.993 22.7218C58.4261 21.5421 60.1422 20.0707 62.4944 19.6373C62.4944 19.6373 64.0486 20.9513 66.7394 21.0127C65.9355 36.2799 70.5516 46.9352 70.5516 46.9352Z" fill="#FF6D6D"/>
</g>
<g filter="url(#filter11_d_32_981)">
<path d="M73.7046 10.6233C74.2933 5.94152 69.6347 4.72687 65.8681 4.63584C63.8977 4.58826 62.4626 5.12367 61.4607 5.89194C59.8976 6.06985 58.4456 5.11645 58.1131 3.69396C58.0774 3.55719 57.8512 3.62182 57.8871 3.75812C58.2244 5.17463 59.6047 6.16809 61.1746 6.12588C60.5053 6.71141 60.0084 7.46875 59.7376 8.31618C59.4534 9.23719 58.8106 11.0094 57.2943 12.2868C55.7781 13.5642 55.3292 15.9314 55.3292 15.9314C60.3159 18.679 67.4326 18.345 67.4326 18.345C68.5116 15.7731 66.9169 13.9578 68.4003 12.4603C68.1697 12.8386 68.0406 13.2702 68.0255 13.7131C67.9829 15.283 69.3851 16.8226 68.2178 18.3066C68.1284 18.4199 68.2971 18.573 68.4253 18.4112C68.9812 17.7043 69.0271 16.9872 68.837 16.1412C68.6978 15.5226 68.423 14.9394 68.3302 14.3112C68.2585 13.8298 68.3111 13.3381 68.4829 12.8828C68.6547 12.4274 68.94 12.0237 69.3117 11.7099C72.361 9.71964 72.5333 8.20858 72.5333 8.20858C73.1126 8.90714 73.5145 9.73561 73.7046 10.6233Z" fill="#4099FF"/>
</g>
<g filter="url(#filter12_d_32_981)">
<path d="M46.462 40.4645C46.462 40.4645 48.2492 46.8681 51.4551 47.8895C54.6611 48.9109 54.1672 48.7786 55.6519 48.8085C57.1365 48.8385 57.2283 49.4801 55.9842 50.0439C54.7402 50.6077 53.2678 49.522 53.2114 50.119C53.1549 50.7159 54.0121 51.3068 55.5369 52.7131C57.2887 54.3289 57.6649 54.568 56.9659 55.0803C56.2669 55.5925 52.8898 56.5917 50.6894 54.229C48.4891 51.8663 49.6426 51.6373 47.8338 49.6377C46.0249 47.6382 41.6472 46.5396 40.251 44.7426C38.8549 42.9456 40.9888 41.0821 42.0261 40.7209C43.0754 40.3555 46.462 40.4645 46.462 40.4645Z" fill="#FFD6D6"/>
</g>
<g filter="url(#filter13_d_32_981)">
<path d="M38.1627 49.1022C38.1627 49.1022 33.2992 45.0488 33.4941 40.4538C33.6873 35.8971 31.688 34.7715 31.7958 32.6918C31.9679 29.3725 31.7328 25.5155 38.0805 22.1643C45.2247 18.3926 49.0609 18.8757 61.2853 20.1935L65.1661 23.6308C65.2307 23.6308 61.9884 25.2499 56.4263 26.4706C52.0656 27.4274 47.8055 29.2407 46.7495 32.3025C45.584 35.6854 50.3146 40.4863 50.3146 40.4863L38.1627 49.1022Z" fill="#FF6D6D"/>
</g>
</g>
<g clip-path="url(#clip1_32_981)">
<path d="M4.77381 117.083H135.514V121.697H3.31316V118.54C3.31314 118.349 3.3509 118.159 3.4243 117.983C3.49769 117.806 3.60528 117.645 3.74092 117.51C3.87655 117.374 4.03758 117.267 4.21481 117.194C4.39203 117.121 4.58198 117.083 4.77381 117.083Z" fill="#BFDDFF"/>
<path d="M117.569 57.5906L121.257 55.038L128.476 121.724L124.788 124.277L117.569 57.5906Z" fill="#F7F9FA"/>
<path d="M11.3324 129.159H19.8956V135H11.3324V129.159Z" fill="#BFDDFF"/>
<path d="M122.371 129.159H130.934V135H122.371V129.159Z" fill="#BFDDFF"/>
<path d="M127.229 108.097C112.945 108.097 111.993 115.797 106.581 118.06C104.172 119.067 96.1151 119.52 96.1151 119.52H0V132.371H142.724V119.52C142.724 119.52 142.724 108.097 127.229 108.097Z" fill="#F2F8FF"/>
<path d="M126.082 125.639C128.889 125.639 131.164 123.544 131.164 120.959C131.164 118.374 128.889 116.279 126.082 116.279C123.276 116.279 121 118.374 121 120.959C121 123.544 123.276 125.639 126.082 125.639Z" fill="#FF9898"/>
<path d="M126.082 122.973C127.291 122.973 128.27 122.071 128.27 120.959C128.27 119.846 127.291 118.944 126.082 118.944C124.874 118.944 123.895 119.846 123.895 120.959C123.895 122.071 124.874 122.973 126.082 122.973Z" fill="#F7F9FA"/>
<path d="M121.753 59.0012L133.017 52.4199L130.72 48.8036L104.969 63.8508V67.4671L122.638 67.2005L121.753 59.0012Z" fill="#F2F8FF"/>
<path d="M115.12 61.4361H96.2069C95.8003 61.4361 95.4707 61.7649 95.4707 62.1705V63.1389C95.4707 63.5445 95.8003 63.8733 96.2069 63.8733H115.12C115.526 63.8733 115.856 63.5445 115.856 63.1389V62.1705C115.856 61.7649 115.526 61.4361 115.12 61.4361Z" fill="#BFDDFF"/>
</g>
<defs>
<filter id="filter0_d_32_981" x="62.5771" y="-4.13344" width="63.3192" height="66.1672" filterUnits="userSpaceOnUse" color-interpolation-filters="sRGB">
<feFlood flood-opacity="0" result="BackgroundImageFix"/>
<feColorMatrix in="SourceAlpha" type="matrix" values="0 0 0 0 0 0 0 0 0 0 0 0 0 0 0 0 0 0 127 0" result="hardAlpha"/>
<feOffset dy="6"/>
<feGaussianBlur stdDeviation="12"/>
<feComposite in2="hardAlpha" operator="out"/>
<feColorMatrix type="matrix" values="0 0 0 0 0 0 0 0 0 0 0 0 0 0 0 0 0 0 0.04 0"/>
<feBlend mode="normal" in2="BackgroundImageFix" result="effect1_dropShadow_32_981"/>
<feBlend mode="normal" in="SourceGraphic" in2="effect1_dropShadow_32_981" result="shape"/>
</filter>
<filter id="filter1_d_32_981" x="36.9596" y="2.78518" width="83.6752" height="71.2837" filterUnits="userSpaceOnUse" color-interpolation-filters="sRGB">
<feFlood flood-opacity="0" result="BackgroundImageFix"/>
<feColorMatrix in="SourceAlpha" type="matrix" values="0 0 0 0 0 0 0 0 0 0 0 0 0 0 0 0 0 0 127 0" result="hardAlpha"/>
<feOffset dy="6"/>
<feGaussianBlur stdDeviation="12"/>
<feComposite in2="hardAlpha" operator="out"/>
<feColorMatrix type="matrix" values="0 0 0 0 0 0 0 0 0 0 0 0 0 0 0 0 0 0 0.04 0"/>
<feBlend mode="normal" in2="BackgroundImageFix" result="effect1_dropShadow_32_981"/>
<feBlend mode="normal" in="SourceGraphic" in2="effect1_dropShadow_32_981" result="shape"/>
</filter>
<filter id="filter2_d_32_981" x="-8.1887" y="81.0336" width="61.1583" height="67.1206" filterUnits="userSpaceOnUse" color-interpolation-filters="sRGB">
<feFlood flood-opacity="0" result="BackgroundImageFix"/>
<feColorMatrix in="SourceAlpha" type="matrix" values="0 0 0 0 0 0 0 0 0 0 0 0 0 0 0 0 0 0 127 0" result="hardAlpha"/>
<feOffset dy="6"/>
<feGaussianBlur stdDeviation="12"/>
<feComposite in2="hardAlpha" operator="out"/>
<feColorMatrix type="matrix" values="0 0 0 0 0 0 0 0 0 0 0 0 0 0 0 0 0 0 0.04 0"/>
<feBlend mode="normal" in2="BackgroundImageFix" result="effect1_dropShadow_32_981"/>
<feBlend mode="normal" in="SourceGraphic" in2="effect1_dropShadow_32_981" result="shape"/>
</filter>
<filter id="filter3_d_32_981" x="37.1936" y="80.3424" width="67.184" height="64.8169" filterUnits="userSpaceOnUse" color-interpolation-filters="sRGB">
<feFlood flood-opacity="0" result="BackgroundImageFix"/>
<feColorMatrix in="SourceAlpha" type="matrix" values="0 0 0 0 0 0 0 0 0 0 0 0 0 0 0 0 0 0 127 0" result="hardAlpha"/>
<feOffset dy="6"/>
<feGaussianBlur stdDeviation="12"/>
<feComposite in2="hardAlpha" operator="out"/>
<feColorMatrix type="matrix" values="0 0 0 0 0 0 0 0 0 0 0 0 0 0 0 0 0 0 0.04 0"/>
<feBlend mode="normal" in2="BackgroundImageFix" result="effect1_dropShadow_32_981"/>
<feBlend mode="normal" in="SourceGraphic" in2="effect1_dropShadow_32_981" result="shape"/>
</filter>
<filter id="filter4_d_32_981" x="-1.20327" y="24.7411" width="90.9016" height="109.956" filterUnits="userSpaceOnUse" color-interpolation-filters="sRGB">
<feFlood flood-opacity="0" result="BackgroundImageFix"/>
<feColorMatrix in="SourceAlpha" type="matrix" values="0 0 0 0 0 0 0 0 0 0 0 0 0 0 0 0 0 0 127 0" result="hardAlpha"/>
<feOffset dy="6"/>
<feGaussianBlur stdDeviation="12"/>
<feComposite in2="hardAlpha" operator="out"/>
<feColorMatrix type="matrix" values="0 0 0 0 0 0 0 0 0 0 0 0 0 0 0 0 0 0 0.04 0"/>
<feBlend mode="normal" in2="BackgroundImageFix" result="effect1_dropShadow_32_981"/>
<feBlend mode="normal" in="SourceGraphic" in2="effect1_dropShadow_32_981" result="shape"/>
</filter>
<filter id="filter5_d_32_981" x="22.9679" y="23.6581" width="87.7054" height="109.137" filterUnits="userSpaceOnUse" color-interpolation-filters="sRGB">
<feFlood flood-opacity="0" result="BackgroundImageFix"/>
<feColorMatrix in="SourceAlpha" type="matrix" values="0 0 0 0 0 0 0 0 0 0 0 0 0 0 0 0 0 0 127 0" result="hardAlpha"/>
<feOffset dy="6"/>
<feGaussianBlur stdDeviation="12"/>
<feComposite in2="hardAlpha" operator="out"/>
<feColorMatrix type="matrix" values="0 0 0 0 0 0 0 0 0 0 0 0 0 0 0 0 0 0 0.04 0"/>
<feBlend mode="normal" in2="BackgroundImageFix" result="effect1_dropShadow_32_981"/>
<feBlend mode="normal" in="SourceGraphic" in2="effect1_dropShadow_32_981" result="shape"/>
</filter>
<filter id="filter6_d_32_981" x="38.3986" y="-2.46777" width="52.7542" height="53.9704" filterUnits="userSpaceOnUse" color-interpolation-filters="sRGB">
<feFlood flood-opacity="0" result="BackgroundImageFix"/>
<feColorMatrix in="SourceAlpha" type="matrix" values="0 0 0 0 0 0 0 0 0 0 0 0 0 0 0 0 0 0 127 0" result="hardAlpha"/>
<feOffset dy="6"/>
<feGaussianBlur stdDeviation="12"/>
<feComposite in2="hardAlpha" operator="out"/>
<feColorMatrix type="matrix" values="0 0 0 0 0 0 0 0 0 0 0 0 0 0 0 0 0 0 0.04 0"/>
<feBlend mode="normal" in2="BackgroundImageFix" result="effect1_dropShadow_32_981"/>
<feBlend mode="normal" in="SourceGraphic" in2="effect1_dropShadow_32_981" result="shape"/>
</filter>
<filter id="filter7_d_32_981" x="41.8599" y="-9.8488" width="57.2593" height="58.0125" filterUnits="userSpaceOnUse" color-interpolation-filters="sRGB">
<feFlood flood-opacity="0" result="BackgroundImageFix"/>
<feColorMatrix in="SourceAlpha" type="matrix" values="0 0 0 0 0 0 0 0 0 0 0 0 0 0 0 0 0 0 127 0" result="hardAlpha"/>
<feOffset dy="6"/>
<feGaussianBlur stdDeviation="12"/>
<feComposite in2="hardAlpha" operator="out"/>
<feColorMatrix type="matrix" values="0 0 0 0 0 0 0 0 0 0 0 0 0 0 0 0 0 0 0.04 0"/>
<feBlend mode="normal" in2="BackgroundImageFix" result="effect1_dropShadow_32_981"/>
<feBlend mode="normal" in="SourceGraphic" in2="effect1_dropShadow_32_981" result="shape"/>
</filter>
<filter id="filter8_d_32_981" x="34.3712" y="-18.0564" width="54.609" height="54.1188" filterUnits="userSpaceOnUse" color-interpolation-filters="sRGB">
<feFlood flood-opacity="0" result="BackgroundImageFix"/>
<feColorMatrix in="SourceAlpha" type="matrix" values="0 0 0 0 0 0 0 0 0 0 0 0 0 0 0 0 0 0 127 0" result="hardAlpha"/>
<feOffset dy="6"/>
<feGaussianBlur stdDeviation="12"/>
<feComposite in2="hardAlpha" operator="out"/>
<feColorMatrix type="matrix" values="0 0 0 0 0 0 0 0 0 0 0 0 0 0 0 0 0 0 0.04 0"/>
<feBlend mode="normal" in2="BackgroundImageFix" result="effect1_dropShadow_32_981"/>
<feBlend mode="normal" in="SourceGraphic" in2="effect1_dropShadow_32_981" result="shape"/>
</filter>
<filter id="filter9_d_32_981" x="48.4133" y="-7.02443" width="50.1958" height="49.1166" filterUnits="userSpaceOnUse" color-interpolation-filters="sRGB">
<feFlood flood-opacity="0" result="BackgroundImageFix"/>
<feColorMatrix in="SourceAlpha" type="matrix" values="0 0 0 0 0 0 0 0 0 0 0 0 0 0 0 0 0 0 127 0" result="hardAlpha"/>
<feOffset dy="6"/>
<feGaussianBlur stdDeviation="12"/>
<feComposite in2="hardAlpha" operator="out"/>
<feColorMatrix type="matrix" values="0 0 0 0 0 0 0 0 0 0 0 0 0 0 0 0 0 0 0.04 0"/>
<feBlend mode="normal" in2="BackgroundImageFix" result="effect1_dropShadow_32_981"/>
<feBlend mode="normal" in="SourceGraphic" in2="effect1_dropShadow_32_981" result="shape"/>
</filter>
<filter id="filter10_d_32_981" x="19.9313" y="1.5802" width="74.6965" height="77.7818" filterUnits="userSpaceOnUse" color-interpolation-filters="sRGB">
<feFlood flood-opacity="0" result="BackgroundImageFix"/>
<feColorMatrix in="SourceAlpha" type="matrix" values="0 0 0 0 0 0 0 0 0 0 0 0 0 0 0 0 0 0 127 0" result="hardAlpha"/>
<feOffset dy="6"/>
<feGaussianBlur stdDeviation="12"/>
<feComposite in2="hardAlpha" operator="out"/>
<feColorMatrix type="matrix" values="0 0 0 0 0 0 0 0 0 0 0 0 0 0 0 0 0 0 0.04 0"/>
<feBlend mode="normal" in2="BackgroundImageFix" result="effect1_dropShadow_32_981"/>
<feBlend mode="normal" in="SourceGraphic" in2="effect1_dropShadow_32_981" result="shape"/>
</filter>
<filter id="filter11_d_32_981" x="31.253" y="-14.439" width="66.5784" height="63.0156" filterUnits="userSpaceOnUse" color-interpolation-filters="sRGB">
<feFlood flood-opacity="0" result="BackgroundImageFix"/>
<feColorMatrix in="SourceAlpha" type="matrix" values="0 0 0 0 0 0 0 0 0 0 0 0 0 0 0 0 0 0 127 0" result="hardAlpha"/>
<feOffset dy="6"/>
<feGaussianBlur stdDeviation="12"/>
<feComposite in2="hardAlpha" operator="out"/>
<feColorMatrix type="matrix" values="0 0 0 0 0 0 0 0 0 0 0 0 0 0 0 0 0 0 0.04 0"/>
<feBlend mode="normal" in2="BackgroundImageFix" result="effect1_dropShadow_32_981"/>
<feBlend mode="normal" in="SourceGraphic" in2="effect1_dropShadow_32_981" result="shape"/>
</filter>
<filter id="filter12_d_32_981" x="15.7153" y="22.3922" width="65.6579" height="63.4366" filterUnits="userSpaceOnUse" color-interpolation-filters="sRGB">
<feFlood flood-opacity="0" result="BackgroundImageFix"/>
<feColorMatrix in="SourceAlpha" type="matrix" values="0 0 0 0 0 0 0 0 0 0 0 0 0 0 0 0 0 0 127 0" result="hardAlpha"/>
<feOffset dy="6"/>
<feGaussianBlur stdDeviation="12"/>
<feComposite in2="hardAlpha" operator="out"/>
<feColorMatrix type="matrix" values="0 0 0 0 0 0 0 0 0 0 0 0 0 0 0 0 0 0 0.04 0"/>
<feBlend mode="normal" in2="BackgroundImageFix" result="effect1_dropShadow_32_981"/>
<feBlend mode="normal" in="SourceGraphic" in2="effect1_dropShadow_32_981" result="shape"/>
</filter>
<filter id="filter13_d_32_981" x="7.7154" y="1.17094" width="81.5279" height="78.0265" filterUnits="userSpaceOnUse" color-interpolation-filters="sRGB">
<feFlood flood-opacity="0" result="BackgroundImageFix"/>
<feColorMatrix in="SourceAlpha" type="matrix" values="0 0 0 0 0 0 0 0 0 0 0 0 0 0 0 0 0 0 127 0" result="hardAlpha"/>
<feOffset dy="6"/>
<feGaussianBlur stdDeviation="12"/>
<feComposite in2="hardAlpha" operator="out"/>
<feColorMatrix type="matrix" values="0 0 0 0 0 0 0 0 0 0 0 0 0 0 0 0 0 0 0.04 0"/>
<feBlend mode="normal" in2="BackgroundImageFix" result="effect1_dropShadow_32_981"/>
<feBlend mode="normal" in="SourceGraphic" in2="effect1_dropShadow_32_981" result="shape"/>
</filter>
<clipPath id="clip0_32_981">
<rect width="85.661" height="117.685" fill="white" transform="translate(15.8875) scale(1.00317)"/>
</clipPath>
<clipPath id="clip1_32_981">
<rect width="142.273" height="85.9235" fill="white" transform="translate(0 48.8036) scale(1.00317)"/>
</clipPath>
</defs>
</svg>
