<svg width="11" height="9" viewBox="0 0 11 9" fill="none" xmlns="http://www.w3.org/2000/svg">
<path d="M10.9999 1.49331C11.0003 1.68542 10.9744 1.87524 10.9241 2.04882C10.8738 2.22239 10.8004 2.37531 10.7093 2.49634L5.99542 8.70746C5.85484 8.8966 5.67851 9 5.49654 9C5.31456 9 5.13823 8.8966 4.99765 8.70746L0.283814 2.27773C0.123374 2.05946 0.0224781 1.7458 0.00332444 1.40577C-0.0158293 1.06573 0.0483276 0.727162 0.181681 0.464551C0.315034 0.201939 0.506661 0.0367928 0.714405 0.00544167C0.922149 -0.0259094 1.12899 0.0791025 1.28943 0.297378L5.50046 6.04556L9.7115 0.49027C9.82682 0.33302 9.96724 0.233132 10.1162 0.202424C10.2651 0.171717 10.4163 0.211473 10.5518 0.316994C10.6873 0.422513 10.8016 0.589377 10.881 0.797842C10.9604 1.00631 11.0017 1.24765 10.9999 1.49331Z" fill="#204916"/>
</svg>
