<svg width="58" height="53" viewBox="0 0 58 53" fill="none" xmlns="http://www.w3.org/2000/svg">
<path d="M5.28408 36.0265V50.1786C5.29256 50.8899 5.60863 51.5695 6.16366 52.0697C6.71868 52.57 7.46785 52.8506 8.24852 52.8505H26.3574V36.0265H5.28408Z" fill="white"/>
<path d="M31.6425 52.8505H49.7514C50.532 52.8506 51.2812 52.57 51.8362 52.0697C52.3912 51.5695 52.7073 50.8899 52.7158 50.1786V36.0265H31.6425V52.8505Z" fill="white"/>
<path d="M55.1 12.0088H49.1711C49.7784 10.8849 50.0979 9.65008 50.1055 8.39735C50.097 6.16754 49.1189 4.03171 47.3856 2.45774C45.6522 0.883767 43.3048 -1.35355e-05 40.8578 1.55478e-10C38.3014 0.11047 35.8314 0.877626 33.7332 2.21286C31.635 3.5481 29.9941 5.39695 29 7.54587C28.0059 5.39695 26.365 3.5481 24.2668 2.21286C22.1685 0.877626 19.6986 0.11047 17.1422 1.55478e-10C14.6951 -1.35355e-05 12.3478 0.883767 10.6144 2.45774C8.88105 4.03171 7.90297 6.16754 7.89444 8.39735C7.90209 9.65008 8.22159 10.8849 8.82888 12.0088H2.9C1.28889 12.0088 0 13.7411 0 15.8551V27.3941C0 29.5082 1.28889 31.2405 2.9 31.2405H26.3578V12.0088H31.6422V31.2405H55.1C56.7111 31.2405 58 29.5082 58 27.3941V15.8551C58 13.7411 56.7111 12.0088 55.1 12.0088ZM17.1422 12.0088C16.5939 12.054 16.0412 11.9946 15.5195 11.8344C14.9978 11.6741 14.5184 11.4166 14.1119 11.0782C13.7054 10.7398 13.3808 10.328 13.1587 9.86895C12.9366 9.4099 12.8219 8.91371 12.8219 8.41203C12.8219 7.91034 12.9366 7.41416 13.1587 6.95511C13.3808 6.49606 13.7054 6.08421 14.1119 5.74582C14.5184 5.40743 14.9978 5.14991 15.5195 4.9897C16.0412 4.82948 16.5939 4.77007 17.1422 4.81526C21.6533 4.81526 24.1989 9.0433 25.4555 12.0088H17.1422ZM40.8578 12.0088H32.5444C33.8011 9.07266 36.3467 4.81526 40.8578 4.81526C41.4061 4.77007 41.9587 4.82948 42.4805 4.9897C43.0022 5.14991 43.4816 5.40743 43.8881 5.74582C44.2945 6.08421 44.6192 6.49606 44.8413 6.95511C45.0634 7.41416 45.1781 7.91034 45.1781 8.41203C45.1781 8.91371 45.0634 9.4099 44.8413 9.86895C44.6192 10.328 44.2945 10.7398 43.8881 11.0782C43.4816 11.4166 43.0022 11.6741 42.4805 11.8344C41.9587 11.9946 41.4061 12.054 40.8578 12.0088Z" fill="white"/>
</svg>
