<svg width="16" height="16" viewBox="0 0 16 16" fill="none" xmlns="http://www.w3.org/2000/svg">
<g clip-path="url(#clip0_32_1057)">
<path d="M8.74998 5.33325C8.74998 4.91904 8.41419 4.58325 7.99998 4.58325C7.58577 4.58325 7.24998 4.91904 7.24998 5.33325L8.74998 5.33325ZM9.99998 9.41658C10.4142 9.41658 10.75 9.0808 10.75 8.66658C10.75 8.25237 10.4142 7.91658 9.99998 7.91658V9.41658ZM1.53146 1.58093C1.20801 1.83969 1.15557 2.31166 1.41433 2.63511C1.67309 2.95855 2.14505 3.01099 2.4685 2.75224L1.53146 1.58093ZM4.13517 1.4189C4.45861 1.16015 4.51105 0.688177 4.2523 0.364731C3.99354 0.0412842 3.52157 -0.0111568 3.19812 0.2476L4.13517 1.4189ZM13.5315 2.75224C13.8549 3.01099 14.3269 2.95855 14.5856 2.63511C14.8444 2.31166 14.7919 1.83969 14.4685 1.58093L13.5315 2.75224ZM12.8018 0.2476C12.4784 -0.0111568 12.0064 0.0412842 11.7477 0.364731C11.4889 0.688177 11.5413 1.16015 11.8648 1.4189L12.8018 0.2476ZM8.99998 9.41658C9.41419 9.41658 9.74998 9.0808 9.74998 8.66658C9.74998 8.25237 9.41419 7.91658 8.99998 7.91658V9.41658ZM7.99998 7.66659L7.24998 7.66659L7.99998 7.66659ZM7.24998 5.33325V7.66659L8.74998 7.66659L8.74998 5.33325L7.24998 5.33325ZM13.9166 7.99992C13.9166 11.2676 11.2677 13.9166 7.99998 13.9166V15.4166C12.0961 15.4166 15.4166 12.096 15.4166 7.99992H13.9166ZM7.99998 13.9166C4.73229 13.9166 2.08331 11.2676 2.08331 7.99992H0.583313C0.583313 12.096 3.90387 15.4166 7.99998 15.4166V13.9166ZM2.08331 7.99992C2.08331 4.73223 4.73229 2.08325 7.99998 2.08325V0.583252C3.90387 0.583252 0.583313 3.90381 0.583313 7.99992H2.08331ZM7.99998 2.08325C11.2677 2.08325 13.9166 4.73223 13.9166 7.99992H15.4166C15.4166 3.90381 12.0961 0.583252 7.99998 0.583252V2.08325ZM2.4685 2.75224L4.13517 1.4189L3.19812 0.2476L1.53146 1.58093L2.4685 2.75224ZM14.4685 1.58093L12.8018 0.2476L11.8648 1.4189L13.5315 2.75224L14.4685 1.58093ZM8.99998 9.41658H9.99998V7.91658H8.99998V9.41658ZM7.24998 7.66659C7.24998 8.63308 8.03348 9.41658 8.99998 9.41658V7.91658C8.86191 7.91658 8.74998 7.80466 8.74998 7.66659L7.24998 7.66659Z" fill="#979C9E"/>
</g>
<defs>
<clipPath id="clip0_32_1057">
<rect width="16" height="16" fill="white"/>
</clipPath>
</defs>
</svg>
