<svg width="44" height="35" viewBox="0 0 44 35" fill="none" xmlns="http://www.w3.org/2000/svg">
<path d="M3.45269 18.1407C0.27752 13.8144 0.21831 8.7196 3.08402 5.09625C4.12847 3.786 5.47937 2.73069 7.02853 2.01863C8.57835 1.30627 10.2813 0.958316 11.9983 1.00439L12.004 1.00451C13.6709 1.03977 15.3032 1.4631 16.7632 2.23718C18.2231 3.01121 19.4666 4.11249 20.391 5.44582L20.3929 5.44857C20.653 5.82102 20.9043 6.20731 21.1448 6.60413L22.0003 8.01542L22.8553 6.6039C23.0955 6.2074 23.3469 5.82117 23.6071 5.44857L23.609 5.44583C24.5334 4.11253 25.7769 3.01127 27.2368 2.23727C28.6968 1.46321 30.3291 1.03991 31.996 1.00469L32.0032 1.00449C33.7201 0.955893 35.4235 1.30261 36.9733 2.01495C38.5226 2.72702 39.8728 3.78343 40.9152 5.09523C43.7817 8.71865 43.7228 13.8139 40.5471 18.1404L40.5471 18.1404C37.5404 22.2369 33.0271 26.1278 29.1549 29.0551C25.583 31.7553 22.6133 33.5936 22 33.9672C21.3875 33.5943 18.4175 31.756 14.8451 29.0554C10.9728 26.1281 6.45944 22.2373 3.45269 18.1407ZM3.45269 18.1407L2.64651 18.7324M3.45269 18.1407L2.64651 18.7324M2.64651 18.7324C8.83303 27.1612 21.0683 34.5744 21.5858 34.8855M2.64651 18.7324C-0.752241 14.1014 -0.888075 8.50505 2.30083 4.47446C3.44429 3.03951 4.92106 1.88674 6.61089 1.11002C8.30072 0.333296 10.1558 -0.0454102 12.0252 0.00473535L21.5858 34.8855M21.5858 34.8855C21.7101 34.9603 21.8536 35 22 35C22.1464 35 22.2899 34.9603 22.4143 34.8855C22.9318 34.5741 35.1669 27.1609 41.3532 18.7321L21.5858 34.8855Z" stroke="black" stroke-width="2"/>
</svg>
