<svg width="150" height="108" viewBox="0 0 150 108" fill="none" xmlns="http://www.w3.org/2000/svg">
<path d="M149.737 94.9083H0V94.9811H149.737V94.9083Z" fill="#EBEBEB"/>
<path d="M134.733 99.5729H124.814V99.6457H134.733V99.5729Z" fill="#EBEBEB"/>
<path d="M99.191 100.361H96.5886V100.434H99.191V100.361Z" fill="#EBEBEB"/>
<path d="M124.516 96.883H118.769V96.9558H124.516V96.883Z" fill="#EBEBEB"/>
<path d="M28.6439 97.3695H15.7096V97.4424H28.6439V97.3695Z" fill="#EBEBEB"/>
<path d="M33.2089 97.3695H31.3132V97.4424H33.2089V97.3695Z" fill="#EBEBEB"/>
<path d="M67.4262 98.5927H39.3714V98.6656H67.4262V98.5927Z" fill="#EBEBEB"/>
<path d="M70.9755 81.9797H13.1499C12.6969 81.9789 12.2627 81.8042 11.9426 81.4938C11.6226 81.1835 11.4429 80.7629 11.4429 80.3244V1.64075C11.4468 1.20477 11.6283 0.787903 11.9479 0.480694C12.2675 0.173484 12.6994 0.000746858 13.1499 0H70.9755C71.429 0 71.8639 0.174392 72.1846 0.484811C72.5053 0.79523 72.6855 1.21625 72.6855 1.65525V80.3244C72.6855 80.7634 72.5053 81.1844 72.1846 81.4949C71.8639 81.8053 71.429 81.9797 70.9755 81.9797ZM13.1499 0.0579774C12.7167 0.0587453 12.3016 0.22584 11.9956 0.522585C11.6896 0.819329 11.5177 1.22148 11.5177 1.64075V80.3244C11.5177 80.7437 11.6896 81.1458 11.9956 81.4426C12.3016 81.7393 12.7167 81.9064 13.1499 81.9072H70.9755C71.4089 81.9064 71.8243 81.7394 72.1308 81.4428C72.4373 81.1461 72.6098 80.744 72.6106 80.3244V1.64075C72.6098 1.22121 72.4373 0.81907 72.1308 0.522408C71.8243 0.225746 71.4089 0.0587436 70.9755 0.0579774H13.1499Z" fill="#EBEBEB"/>
<path d="M135.755 81.9797H77.9264C77.4731 81.9789 77.0387 81.8043 76.7181 81.494C76.3976 81.1838 76.2172 80.7632 76.2164 80.3244V1.64075C76.2212 1.20451 76.4033 0.787642 76.7234 0.480512C77.0435 0.173383 77.4757 0.000738713 77.9264 0H135.755C136.205 0.00150871 136.636 0.174583 136.955 0.481711C137.274 0.788839 137.455 1.20527 137.459 1.64075V80.3244C137.459 80.7624 137.28 81.1825 136.96 81.4928C136.641 81.8031 136.207 81.9781 135.755 81.9797ZM77.9264 0.0579774C77.493 0.0587436 77.0776 0.225746 76.7711 0.522408C76.4646 0.81907 76.2921 1.22121 76.2913 1.64075V80.3244C76.2921 80.744 76.4646 81.1461 76.7711 81.4428C77.0776 81.7394 77.493 81.9064 77.9264 81.9072H135.755C136.188 81.9064 136.604 81.7394 136.91 81.4428C137.217 81.1461 137.389 80.744 137.39 80.3244V1.64075C137.389 1.22121 137.217 0.81907 136.91 0.522408C136.604 0.225746 136.188 0.0587436 135.755 0.0579774H77.9264Z" fill="#EBEBEB"/>
<path d="M128.561 93.5955L128.42 73.5934L125.35 71.083L123.931 64.4707L122.092 62.3951L121.104 57.757L119.427 59.8645L118.478 72.5267L117.528 71.0772L116.773 66.1492L115.258 67.7261L113.362 68.1842L112.257 78.6432L84.1068 81.8958L78.2521 77.0605L75.8563 67.5928L73.3856 65.1259L72.6339 60.5631L70.2711 61.3545V66.1695L68.2796 67.2884L67.4201 77.0605L64.8985 80.4376L64.1827 74.3993C64.1827 74.3993 62.2511 72.9035 61.8229 72.544C61.3946 72.1846 58.9599 65.6158 59.3282 65.1259C59.6966 64.636 58.8012 60.3746 58.8012 60.3746L56.3664 61.7835V68.8422L53.8269 69.4655L53.4436 72.544L46.9629 73.5557L45.9208 68.8422H43.0308L42.1324 71.5294L39.503 71.5121L35.3433 74.4109L31.9233 67.9117L28.4434 69.4771L25.9368 63.8475L23.3044 67.1464L22.3281 77.8519L20.9625 77.9794L20.3366 75.6603L17.8031 77.9794V93.5839L128.561 93.5955Z" fill="#F5F5F5"/>
<path d="M81.7712 40.1892H66.2375C65.5942 40.1607 64.9876 39.891 64.546 39.4373C64.1044 38.9836 63.8625 38.3814 63.8715 37.7581C63.8804 37.1348 64.1395 36.5393 64.5939 36.0977C65.0484 35.656 65.6625 35.4028 66.3064 35.3916C66.5478 35.3911 66.788 35.4253 67.0191 35.493C66.982 35.2492 66.9629 35.0032 66.9622 34.7567C66.9622 33.4082 67.5156 32.1149 68.5007 31.1614C69.4858 30.2078 70.8219 29.6721 72.215 29.6721C72.5395 29.6717 72.8634 29.7008 73.1823 29.7591C73.6989 28.9341 74.4791 28.2943 75.4047 27.9366C76.3304 27.5789 77.3512 27.5227 78.3128 27.7765C79.2744 28.0303 80.1244 28.5804 80.7344 29.3434C81.3443 30.1065 81.6809 31.041 81.6934 32.0057H81.7712C82.8736 32.0341 83.921 32.478 84.6904 33.2428C85.4597 34.0076 85.8902 35.0329 85.8902 36.1004C85.8902 37.1678 85.4597 38.1931 84.6904 38.9579C83.921 39.7227 82.8736 40.1666 81.7712 40.195V40.1892Z" fill="#F5F5F5"/>
<path d="M91.0704 16.2335H85.2277C84.9807 16.2304 84.745 16.1325 84.5726 15.9612C84.4002 15.79 84.3051 15.5594 84.3083 15.3203C84.3115 15.0812 84.4126 14.8531 84.5895 14.6862C84.7665 14.5193 85.0046 14.4273 85.2516 14.4304C85.343 14.4292 85.4339 14.442 85.5212 14.4681C85.5058 14.3722 85.4988 14.2752 85.5002 14.1782C85.5002 13.9271 85.5513 13.6784 85.6507 13.4465C85.7501 13.2145 85.8957 13.0038 86.0793 12.8263C86.2629 12.6489 86.4808 12.5083 86.7206 12.4124C86.9604 12.3166 87.2173 12.2675 87.4767 12.2678C87.5983 12.2681 87.7195 12.2788 87.8391 12.2997C88.0337 11.9879 88.3283 11.7463 88.6779 11.6117C89.0276 11.4771 89.4132 11.4568 89.7758 11.554C90.1385 11.6512 90.4584 11.8605 90.6867 12.1501C90.915 12.4396 91.0393 12.7935 91.0405 13.1578H91.0704C91.4806 13.175 91.8681 13.3449 92.1521 13.6319C92.4361 13.919 92.5946 14.3011 92.5946 14.6985C92.5946 15.096 92.4361 15.4781 92.1521 15.7651C91.8681 16.0522 91.4806 16.222 91.0704 16.2393V16.2335Z" fill="#F5F5F5"/>
<path d="M37.8356 17.993H31.9929C31.8706 17.9913 31.7498 17.9663 31.6375 17.9194C31.5252 17.8725 31.4235 17.8047 31.3383 17.7198C31.1661 17.5482 31.0714 17.3176 31.075 17.0785C31.0786 16.8394 31.1801 16.6114 31.3573 16.4448C31.5345 16.2782 31.7728 16.1865 32.0198 16.19C32.1102 16.189 32.2001 16.2017 32.2864 16.2276C32.2727 16.1316 32.2657 16.0347 32.2654 15.9378C32.2662 15.4306 32.4747 14.9444 32.8452 14.5857C33.2157 14.2271 33.718 14.0253 34.2419 14.0245C34.3636 14.0243 34.485 14.036 34.6043 14.0593C34.7982 13.7485 35.0915 13.5074 35.4397 13.3725C35.7879 13.2375 36.172 13.2161 36.5339 13.3115C36.8958 13.4068 37.2157 13.6138 37.4452 13.9009C37.6747 14.1881 37.8013 14.5398 37.8057 14.9029H37.8356C38.2458 14.9201 38.6333 15.0899 38.9173 15.377C39.2013 15.6641 39.3598 16.0462 39.3598 16.4436C39.3598 16.841 39.2013 17.2231 38.9173 17.5102C38.6333 17.7973 38.2458 17.9671 37.8356 17.9843V17.993Z" fill="#F5F5F5"/>
<path d="M37.8356 34.8097H31.9929C31.8706 34.808 31.7498 34.783 31.6375 34.7361C31.5252 34.6892 31.4235 34.6214 31.3383 34.5364C31.1661 34.3649 31.0714 34.1342 31.075 33.8951C31.0786 33.656 31.1801 33.4281 31.3573 33.2614C31.5345 33.0948 31.7728 33.0032 32.0198 33.0066C32.1101 33.0071 32.1998 33.0198 32.2864 33.0443C32.2727 32.9482 32.2657 32.8514 32.2654 32.7544C32.2662 32.2475 32.4748 31.7616 32.8454 31.4034C33.216 31.0452 33.7183 30.8441 34.2419 30.8441C34.3635 30.8443 34.4847 30.855 34.6043 30.876C34.7984 30.565 35.0919 30.3238 35.4404 30.1889C35.7889 30.054 36.1733 30.0328 36.5353 30.1286C36.8974 30.2243 37.2173 30.4317 37.4466 30.7194C37.6758 31.007 37.8019 31.3591 37.8057 31.7224H37.8356C38.2458 31.7397 38.6333 31.9095 38.9173 32.1966C39.2013 32.4836 39.3598 32.8657 39.3598 33.2632C39.3598 33.6606 39.2013 34.0427 38.9173 34.3298C38.6333 34.6168 38.2458 34.7867 37.8356 34.8039V34.8097Z" fill="#F5F5F5"/>
<path d="M123.917 39.1346H115.466C115.109 39.1296 114.768 38.9874 114.519 38.7392C114.27 38.491 114.133 38.1573 114.138 37.8113C114.143 37.4653 114.29 37.1355 114.546 36.8944C114.803 36.6533 115.147 36.5206 115.505 36.5256C115.636 36.5246 115.766 36.5432 115.891 36.5807C115.872 36.4472 115.862 36.3126 115.861 36.1778C115.861 35.4443 116.162 34.7409 116.698 34.2223C117.234 33.7036 117.961 33.4123 118.718 33.4123C118.895 33.4123 119.072 33.4288 119.245 33.4616C119.527 33.0141 119.951 32.6674 120.454 32.4737C120.957 32.28 121.512 32.2496 122.034 32.3873C122.556 32.525 123.018 32.8232 123.35 33.2371C123.683 33.6509 123.867 34.158 123.875 34.682H123.917C124.226 34.6712 124.535 34.7208 124.824 34.8279C125.113 34.935 125.376 35.0973 125.599 35.3053C125.822 35.5132 125.999 35.7625 126.12 36.0381C126.241 36.3138 126.303 36.6102 126.303 36.9097C126.303 37.2093 126.241 37.5057 126.12 37.7814C125.999 38.057 125.822 38.3063 125.599 38.5142C125.376 38.7221 125.113 38.8845 124.824 38.9916C124.535 39.0987 124.226 39.1483 123.917 39.1375V39.1346Z" fill="#F5F5F5"/>
<path d="M60.6556 20.7991H52.2044C51.8625 20.7727 51.5437 20.6214 51.3128 20.3759C51.0819 20.1303 50.9562 19.809 50.9611 19.477C50.9661 19.145 51.1013 18.8272 51.3395 18.5882C51.5776 18.3492 51.9007 18.2069 52.2433 18.1901C52.3742 18.1905 52.5043 18.2091 52.6296 18.2452C52.6091 18.1128 52.5991 17.9791 52.5997 17.8452C52.5997 17.1117 52.9007 16.4083 53.4365 15.8897C53.9723 15.371 54.699 15.0797 55.4567 15.0797C55.6334 15.0803 55.8098 15.0958 55.9838 15.126C56.2657 14.6784 56.6903 14.3316 57.1936 14.138C57.6968 13.9443 58.2515 13.9142 58.774 14.0523C59.2965 14.1903 59.7584 14.489 60.0902 14.9033C60.4221 15.3177 60.6057 15.8252 60.6136 16.3494H60.6556C61.2516 16.3702 61.816 16.614 62.2301 17.0295C62.6441 17.445 62.8755 17.9998 62.8755 18.5771C62.8755 19.1544 62.6441 19.7092 62.2301 20.1247C61.816 20.5403 61.2516 20.7841 60.6556 20.8049V20.7991Z" fill="#F5F5F5"/>
<path d="M87.4466 66.1751C86.8117 61.6906 88.7703 56.6553 91.5195 53.3274C92.0588 52.7402 92.5344 52.1011 92.939 51.42C94.077 49.2603 92.3071 47.7471 90.657 46.5354C84.4189 41.9581 91.4266 41.1638 94.6999 38.5548C95.014 38.3465 95.2437 38.0392 95.3498 37.6852C95.4636 37.1054 94.9485 36.5836 94.4813 36.1894C92.2382 34.2703 89.4232 32.3629 88.92 29.2785C88.7104 27.9943 89.0398 26.5826 90.0011 25.6723C92.4209 23.388 106.299 26.0898 103.714 20.0456C103.337 19.1615 102.783 18.2541 102.983 17.3178C104.232 11.5201 118.99 13.8044 122.979 13.9986C119.589 13.836 116.194 14.222 112.935 15.1408C111.438 15.564 109.719 16.3844 109.56 17.8889C109.401 19.3934 110.845 20.4515 111.956 21.1878C113.654 22.3096 115.798 24.0316 114.001 26.1158C111.722 28.7654 107.284 29.1307 104.064 29.9597C102.938 30.2496 101.723 30.6902 101.669 32.0121C101.633 32.7629 101.968 33.4818 102.348 34.137C103.154 35.54 104.184 36.83 104.816 38.3142C105.448 39.7984 105.505 41.7784 104.427 43.1437C102.36 45.7701 98.632 45.0483 101.294 49.4053C104.651 54.9131 104.472 61.3659 102.007 67.1839C100.767 70.106 98.5002 73.4803 94.8946 73.6919C92.8971 73.8107 90.9445 72.7758 89.6747 71.2771C88.4582 69.809 87.6868 68.0427 87.4466 66.1751Z" fill="#E0E0E0"/>
<path d="M20.0648 88.1601L25.0151 87.2035L26.1291 74.1094L29.5042 71.8454L30.6811 60.6152L33.7148 57.3105L35.1253 59.8847L37.4283 63.9431L38.198 67.9348L39.5037 71.5004L42.3247 75.7704L44.8583 73.5818C44.8583 73.5818 46.2389 71.4134 46.9007 71.1293C47.5625 70.8453 50.2608 70.6076 50.2608 70.6076L54.0162 74.0862V76.8198L57.8585 78.8026L60.2213 81.1014L61.6349 82.7914L64.2613 84.1133C70.0321 80.2578 84.3261 69.4422 87.5065 55.0784L91.1002 58.3512L93.6607 54.4551L95.6672 58.557L94.2507 62.8763L96.7183 65.0533L95.6672 69.4161L98.605 65.0533L97.0298 61.9719L98.2277 59.2556L97.3293 55.2349L100.105 54.0203L103.648 59.2556L106.068 55.0813C106.068 55.0813 109.078 76.8662 134.219 94.7956H14.6443L20.0648 88.1601Z" fill="#EBEBEB"/>
<path d="M74.8687 108C106.937 108 132.934 106.531 132.934 104.719C132.934 102.906 106.937 101.437 74.8687 101.437C42.8002 101.437 16.8036 102.906 16.8036 104.719C16.8036 106.531 42.8002 108 74.8687 108Z" fill="#F5F5F5"/>
<path d="M98.6605 39.3637L94.5531 39.4671C93.943 39.4825 93.4613 39.9737 93.4772 40.5642L93.584 44.5401C93.5999 45.1307 94.1073 45.597 94.7174 45.5816L98.8249 45.4782C99.435 45.4629 99.9167 44.9717 99.9008 44.3811L99.794 40.4052C99.7781 39.8146 99.2706 39.3483 98.6605 39.3637Z" fill="#43744B"/>
<path d="M97.4404 45.0366C97.4404 45.0366 96.6618 46.8919 94.82 47.5122C94.82 47.5122 95.8323 46.9122 95.7035 45.0018L97.4404 45.0366Z" fill="#43744B"/>
<g opacity="0.5">
<path d="M96.3048 43.773C96.3047 43.7239 96.315 43.6753 96.3349 43.6302C96.3548 43.585 96.384 43.5443 96.4207 43.5104C96.4574 43.4765 96.5008 43.4502 96.5483 43.4331C96.5958 43.4159 96.6464 43.4083 96.6971 43.4106C96.7472 43.4086 96.7972 43.4166 96.8441 43.434C96.8909 43.4514 96.9336 43.4779 96.9695 43.5118C97.0054 43.5457 97.0337 43.5864 97.0528 43.6313C97.0719 43.6762 97.0813 43.7244 97.0804 43.773C97.0812 43.8218 97.0719 43.8703 97.0528 43.9155C97.0338 43.9607 97.0056 44.0017 96.9698 44.0361C96.934 44.0705 96.8914 44.0975 96.8445 44.1156C96.7976 44.1336 96.7475 44.1423 96.6971 44.1411C96.6461 44.1427 96.5954 44.1343 96.5479 44.1165C96.5003 44.0987 96.457 44.0718 96.4204 44.0375C96.3838 44.0032 96.3547 43.962 96.3348 43.9166C96.315 43.8712 96.3047 43.8223 96.3048 43.773ZM96.3377 40.8162H97.0565L96.9337 43.0164H96.4545L96.3377 40.8162Z" fill="white"/>
</g>
<path d="M92.4087 85.6964L91.1838 86.9719L88.3957 84.3716L89.6176 83.0961L92.4087 85.6964Z" fill="#EEC1BB"/>
<path opacity="0.2" d="M89.6176 83.0961L88.3957 84.3716L89.8362 85.7138L91.0581 84.4354L89.6176 83.0961Z" fill="black"/>
<path d="M90.7407 86.5424L92.5375 85.58C92.5667 85.5626 92.6013 85.5558 92.6352 85.5605C92.6691 85.5653 92.7003 85.5814 92.7232 85.606L93.6995 86.7163C93.7205 86.7426 93.736 86.7727 93.7448 86.8049C93.7537 86.837 93.7558 86.8706 93.7511 86.9035C93.7463 86.9365 93.7348 86.9682 93.7172 86.9968C93.6996 87.0254 93.6763 87.0503 93.6486 87.07C93.6354 87.0814 93.6202 87.0902 93.6036 87.0961C92.9777 87.4178 92.6393 87.5628 91.8577 87.9802C91.3785 88.2353 89.3541 89.1398 88.6294 89.1398C87.9046 89.1398 87.8627 88.4788 88.1622 88.3919C89.6835 87.9425 90.3064 87.2903 90.531 86.7627C90.5749 86.6695 90.6484 86.5924 90.7407 86.5424Z" fill="#263238"/>
<path d="M90.3484 87.0731C90.2471 87.1368 90.1277 87.1683 90.007 87.1629C89.9684 87.1564 89.9322 87.1401 89.9023 87.1157C89.8723 87.0913 89.8495 87.0595 89.8363 87.0238C89.8253 87.0037 89.8195 86.9813 89.8195 86.9586C89.8195 86.9358 89.8253 86.9134 89.8363 86.8934C89.9711 86.7194 90.6299 86.7281 90.7048 86.731C90.7122 86.7308 90.7194 86.7329 90.7254 86.7371C90.7314 86.7413 90.7357 86.7473 90.7377 86.7542C90.7419 86.7613 90.7442 86.7693 90.7442 86.7774C90.7442 86.7855 90.7419 86.7935 90.7377 86.8006C90.6177 86.9038 90.4873 86.9951 90.3484 87.0731ZM89.9591 86.9021C89.9417 86.9103 89.9263 86.9222 89.9142 86.9368C89.9083 86.9444 89.9052 86.9535 89.9052 86.9629C89.9052 86.9723 89.9083 86.9815 89.9142 86.989C89.9221 87.0136 89.937 87.0356 89.9571 87.0524C89.9772 87.0693 90.0017 87.0805 90.028 87.0847C90.2494 87.0581 90.4535 86.9552 90.603 86.7948C90.3834 86.7922 90.1652 86.8285 89.9591 86.9021Z" fill="#43744B"/>
<path d="M90.7412 86.8062H90.7202C90.5166 86.8062 90.0344 86.6641 89.9835 86.4873C89.9761 86.4573 89.9796 86.4257 89.9932 86.3978C90.0068 86.3699 90.0297 86.3473 90.0584 86.3337C90.084 86.3157 90.1132 86.3029 90.144 86.296C90.1748 86.289 90.2068 86.288 90.238 86.2931C90.4956 86.3308 90.7471 86.7279 90.7561 86.7511C90.7616 86.7604 90.7631 86.7713 90.7603 86.7816C90.7575 86.7919 90.7506 86.8007 90.7412 86.8062ZM90.1063 86.3858H90.0883C90.0434 86.4177 90.0494 86.4409 90.0524 86.4496C90.0823 86.554 90.4087 86.6844 90.6274 86.7105C90.5465 86.6004 90.3698 86.383 90.2081 86.3598C90.1731 86.3537 90.137 86.3598 90.1063 86.3772V86.3858Z" fill="#43744B"/>
<path d="M112.627 88.4817L111.627 89.9312L108.446 87.7918L109.446 86.3424L112.627 88.4817Z" fill="#EEC1BB"/>
<path d="M111.369 89.8384L112.432 88.1368C112.449 88.1079 112.475 88.0854 112.507 88.0732C112.538 88.061 112.573 88.0599 112.606 88.0701L114.025 88.5629C114.089 88.5891 114.139 88.6386 114.165 88.7005C114.191 88.7625 114.19 88.8319 114.163 88.8934C114.156 88.9097 114.147 88.9253 114.136 88.9397C113.759 89.5195 113.537 89.8094 113.076 90.5457C112.792 90.9979 111.501 92.7575 110.872 93.1141C110.243 93.4707 109.869 92.9083 110.084 92.6851C111.174 91.5632 111.378 90.6994 111.3 90.1341C111.288 90.0308 111.312 89.9265 111.369 89.8384Z" fill="#263238"/>
<path opacity="0.2" d="M109.446 86.3424L108.446 87.7918L110.087 88.8934L111.088 87.4439L109.446 86.3424Z" fill="black"/>
<path d="M111.3 90.485C111.245 90.5901 111.157 90.6755 111.049 90.7285C111.012 90.7414 110.972 90.7447 110.934 90.7381C110.896 90.7315 110.86 90.7152 110.83 90.6908C110.811 90.678 110.795 90.6607 110.784 90.6404C110.774 90.6201 110.769 90.5976 110.77 90.5749C110.797 90.3575 111.369 90.0473 111.438 90.0154C111.444 90.0112 111.451 90.0089 111.459 90.0089C111.466 90.0089 111.474 90.0112 111.48 90.0154C111.484 90.0225 111.486 90.0305 111.486 90.0386C111.486 90.0467 111.484 90.0547 111.48 90.0618C111.435 90.2084 111.375 90.3502 111.3 90.485ZM110.872 90.5256C110.862 90.5417 110.856 90.5594 110.854 90.5778C110.853 90.5866 110.854 90.5956 110.858 90.6038C110.861 90.612 110.867 90.619 110.875 90.6242C110.895 90.6416 110.919 90.6534 110.946 90.658C110.972 90.6626 111 90.6599 111.025 90.6503C111.203 90.5257 111.331 90.3439 111.384 90.1372C111.19 90.2354 111.017 90.367 110.872 90.5256Z" fill="#43744B"/>
<path d="M111.492 90.0734H111.474C111.3 90.1778 110.806 90.2821 110.671 90.1517C110.65 90.1294 110.637 90.1006 110.634 90.0701C110.631 90.0396 110.639 90.0091 110.657 89.9835C110.672 89.9548 110.693 89.9295 110.719 89.909C110.744 89.8886 110.774 89.8735 110.806 89.8647C111.046 89.7748 111.471 89.9951 111.492 90.0125C111.499 90.0161 111.504 90.0217 111.507 90.0285C111.511 90.0353 111.512 90.0429 111.51 90.0502C111.509 90.0553 111.507 90.0601 111.504 90.0641C111.501 90.0682 111.497 90.0714 111.492 90.0734ZM110.74 90.0154V90.0299C110.716 90.0792 110.74 90.0966 110.74 90.1053C110.818 90.1807 111.172 90.1372 111.375 90.0531C111.21 89.9635 111.019 89.9269 110.83 89.9488C110.796 89.9609 110.767 89.9846 110.749 90.0154H110.74Z" fill="#43744B"/>
<path d="M110.369 86.7507L110.178 87.0406L110.016 87.2841L109.066 88.6785C109.066 88.6785 100.507 83.7243 99.4833 82.9039C98.4591 82.0836 93.0356 72.3318 93.0356 72.3318C92.9457 72.3579 89.2951 73.4914 86.6448 74.5205C85.1085 75.1147 83.9106 75.68 83.9286 75.9467C83.9795 76.712 90.6847 83.9939 90.6847 83.9939L88.9148 85.0984C88.9148 85.0984 77.951 77.9788 78.2745 74.677C78.5979 71.3752 89.6246 67.511 89.6246 67.511L89.8282 62.583L95.9944 63.3743L96.3178 63.4149L96.8389 63.4816C99.076 68.4734 101.753 79.0166 102.086 79.8862C102.418 80.7559 110.369 86.7507 110.369 86.7507Z" fill="#43744B"/>
<path d="M110.176 87.0321L110.014 87.2756C107.738 85.687 101.303 81.1068 101.069 79.9415C100.835 78.7761 96.6159 65.3689 95.993 63.3861C95.9421 63.2354 95.9181 63.1542 95.9151 63.1426L96.2146 63.0585L96.3314 63.4267C97.0921 65.8385 101.123 78.6776 101.378 79.8864C101.539 80.7532 106.49 84.4608 110.176 87.0321Z" fill="white"/>
<path d="M75.2192 52.8285L72.6048 51.9038C72.5915 51.6753 72.5184 51.4538 72.3922 51.2602C72.1975 51.0196 69.8886 50.0659 69.8976 50.3906C69.9066 50.7152 69.7059 51.5501 70.245 52.0168C70.784 52.4835 72.1916 53.1764 72.4611 52.814L74.6443 54.0344L75.2192 52.8285Z" fill="#EEC1BB"/>
<path d="M85.6199 58.0813C85.6199 58.0813 84.0147 57.7508 82.3556 57.3971L80.0886 56.9101C78.142 56.4753 73.7427 54.507 73.59 53.9562C73.4372 53.4054 73.9613 52.2575 74.7459 52.3212C75.5306 52.385 80.2113 53.8721 80.2113 53.8721L84.6585 53.9301L85.1137 55.91L85.6199 58.0813Z" fill="#43744B"/>
<path d="M81.6944 54.3883C81.2076 54.4129 80.7197 54.4129 80.2329 54.3883C80.1131 54.368 79.7328 54.2492 79.0141 54.0231C77.4837 53.539 74.6357 52.6432 73.8152 52.6606V52.3707C74.6867 52.3533 77.4598 53.2259 79.1129 53.7477C79.6909 53.9274 80.188 54.0839 80.2928 54.1042C80.5923 54.1564 83.2247 54.0752 84.9257 54.0086V54.2984C84.6532 54.2984 82.9731 54.3622 81.6944 54.3883Z" fill="white"/>
<path d="M73.4697 52.0172L74.3891 52.3766L73.5775 53.8406L73.0145 53.4753L73.4697 52.0172Z" fill="#43744B"/>
<path opacity="0.2" d="M73.4697 52.0172L74.3891 52.3766L73.5775 53.8406L73.0145 53.4753L73.4697 52.0172Z" fill="black"/>
<path opacity="0.2" d="M85.6195 58.0816C85.6195 58.0816 84.0143 57.7511 82.3552 57.3975C82.6906 56.4322 84.3138 56.0466 85.1134 55.9104L85.6195 58.0816Z" fill="black"/>
<path d="M97.3946 62.2909C97.4103 62.4523 97.3687 62.614 97.2767 62.7495C97.1847 62.8849 97.0478 62.9859 96.8885 63.036C96.8256 63.0564 96.7601 63.0681 96.6938 63.0707H96.589L89.8239 63.378C89.6601 63.3861 89.4982 63.3408 89.3642 63.2493C89.2301 63.1579 89.1315 63.0256 89.0842 62.8736C88.9922 62.5769 88.8801 62.2864 88.7488 62.004C88.1424 60.7376 87.2939 59.5936 86.2482 58.6326C85.9487 58.3427 85.6073 58.0528 85.2359 57.7629C84.9229 57.5262 84.6655 57.2278 84.4806 56.8874C84.2958 56.5471 84.1878 56.1726 84.1638 55.7888C84.1324 55.2766 84.2354 54.765 84.4633 54.3017C84.5165 54.1972 84.5754 54.0956 84.64 53.9973L84.6789 53.9393C84.6789 53.9393 90.3689 53.0378 93.5583 54.1336C95.7064 56.385 97.0511 59.2444 97.3946 62.2909Z" fill="#43744B"/>
<path d="M96.8888 63.0359C96.8925 63.1746 96.8764 63.3131 96.8409 63.4475L96.5414 63.3606C96.5712 63.2668 96.5834 63.1686 96.5773 63.0707C96.5923 61.2734 93.8341 54.9684 93.325 54.664C91.4982 53.7943 85.8801 54.1654 84.4426 54.2785C84.4958 54.174 84.5548 54.0724 84.6193 53.9741C86.3443 53.8436 91.615 53.5276 93.4628 54.4031C94.0348 54.6872 96.8708 60.9342 96.8888 63.0359Z" fill="white"/>
<path d="M89.5343 63.2098L97.1799 62.8591L97.4763 63.9607L89.5882 64.323L89.5343 63.2098Z" fill="#43744B"/>
<path opacity="0.2" d="M89.5343 63.2098L97.1799 62.8591L97.4763 63.9607L89.5882 64.323L89.5343 63.2098Z" fill="black"/>
<path d="M86.7197 53.4925C86.9174 53.136 89.4509 52.5765 89.7534 52.8171C90.0559 53.0577 90.0319 53.8433 90.0319 53.8433C90.0319 53.8433 88.235 55.1362 87.5073 54.8637C86.7796 54.5912 86.7197 53.4925 86.7197 53.4925Z" fill="#43744B"/>
<path opacity="0.4" d="M86.7197 53.4925C86.9174 53.136 89.4509 52.5765 89.7534 52.8171C90.0559 53.0577 90.0319 53.8433 90.0319 53.8433C90.0319 53.8433 88.235 55.1362 87.5073 54.8637C86.7796 54.5912 86.7197 53.4925 86.7197 53.4925Z" fill="black"/>
<path d="M90.0248 53.6869C89.9679 54.4203 89.3151 55.1914 87.8746 55.2986C86.9762 55.3682 86.7755 55.0088 86.8115 54.7739C87.2667 54.4667 87.0301 54.4464 87.1109 54.113C87.2158 53.5854 86.9253 53.0491 86.5659 52.5592V52.5418L87.4643 50.9359L88.0633 49.8256C88.2729 51.0547 88.8898 53.2376 90.0248 53.6869Z" fill="#EEC1BB"/>
<path opacity="0.2" d="M88.1176 50.9411C88.2298 51.51 88.1956 52.0969 88.0181 52.65C87.8405 53.2031 87.525 53.7054 87.0993 54.1125C87.2042 53.5849 86.9137 53.0486 86.5543 52.5587C86.5543 52.5587 86.5543 52.5413 86.5543 52.5384L87.4527 50.9324C87.5605 51.1151 88.0636 50.7295 88.1176 50.9411Z" fill="black"/>
<path d="M86.7189 53.493C86.8001 53.6799 86.9396 53.8376 87.1178 53.9441C87.296 54.0507 87.5042 54.1007 87.7132 54.0872C88.4619 54.0525 89.7526 52.8175 89.7526 52.8175L90.7798 53.635C90.7798 53.635 89.1267 55.6961 87.8928 55.6642C86.659 55.6323 86.2667 54.3655 86.2667 54.3655L86.7189 53.493Z" fill="#43744B"/>
<path opacity="0.2" d="M86.7189 53.493C86.8001 53.6799 86.9396 53.8376 87.1178 53.9441C87.296 54.0507 87.5042 54.1007 87.7132 54.0872C88.4619 54.0525 89.7526 52.8175 89.7526 52.8175L90.7798 53.635C90.7798 53.635 89.1267 55.6961 87.8928 55.6642C86.659 55.6323 86.2667 54.3655 86.2667 54.3655L86.7189 53.493Z" fill="black"/>
<path d="M91.2579 64.2732L90.9794 63.2238C90.7334 63.036 90.5732 62.7623 90.5332 62.4614C90.4194 62.0382 90.2337 61.328 89.2425 59.9191C87.5774 57.5392 87.7151 55.8607 87.7451 55.652L87.5654 54.1011L87.8649 54.0692L88.0446 55.6578V55.6752C88.0446 55.6926 87.82 57.3681 89.494 59.7597C90.5092 61.2091 90.7069 61.9483 90.8237 62.3919C90.8369 62.517 90.8773 62.6381 90.9423 62.747C91.0074 62.8559 91.0956 62.9503 91.201 63.0238L91.246 63.0528L91.5454 64.2123L91.2579 64.2732Z" fill="#263238"/>
<path opacity="0.2" d="M92.5734 60.6818C91.7738 61.4007 89.956 61.8123 88.7491 62.0153C88.144 60.7447 87.2955 59.5968 86.2485 58.6323C87.5512 58.47 89.4379 58.2438 89.4379 58.2438C90.1387 56.7654 90.9772 55.3798 91.8667 54.9681C92.6932 54.5884 93.948 55.6204 94.0528 56.5451C94.1576 57.4699 93.8222 59.5628 92.5734 60.6818Z" fill="black"/>
<path d="M84.5961 47.0053C84.5242 46.8623 84.4834 46.7065 84.4764 46.5476C84.4693 46.3887 84.4961 46.2301 84.5551 46.0816C84.6141 45.9332 84.704 45.7981 84.8193 45.6847C84.9345 45.5713 85.0726 45.4821 85.225 45.4226C86.363 44.8718 89.4176 45.5675 90.1543 46.6865C90.891 47.8054 91.7086 48.0344 91.7086 48.0344C91.6572 48.1771 91.5571 48.2985 91.4248 48.3786C91.2925 48.4587 91.1359 48.4927 90.9809 48.4751C91.1603 48.5227 91.3195 48.624 91.4358 48.7646C91.552 48.9052 91.6192 49.0779 91.6278 49.2578C91.3906 49.3298 91.1648 49.4332 90.9569 49.565C90.8132 49.7042 90.9569 50.4347 90.5766 50.3709C90.1963 50.3071 90.2771 50.255 90.0435 50.6608C89.8099 51.0666 88.8666 51.8899 88.5012 51.5566C88.1359 51.2232 84.2217 48.1736 84.2217 48.1736C84.2217 48.1736 83.9612 46.9213 84.5961 47.0053Z" fill="#263238"/>
<path d="M88.7974 49.2575C88.5669 50.7069 88.483 51.6432 87.8092 52.3679C87.7169 52.4671 87.6168 52.5592 87.5097 52.6433C86.0872 53.8029 84.0508 52.8549 83.7962 51.1649C83.7537 50.8575 83.7376 50.5472 83.7483 50.2373C83.7932 48.8052 84.3682 47.1123 85.7847 46.7007C86.0793 46.6124 86.3889 46.5813 86.6959 46.609C87.003 46.6367 87.3013 46.7228 87.5739 46.8622C87.8465 47.0017 88.088 47.1919 88.2846 47.4218C88.4812 47.6518 88.629 47.917 88.7196 48.2023C88.8292 48.5435 88.8558 48.9046 88.7974 49.2575Z" fill="#EEC1BB"/>
<path d="M86.1586 49.4833C86.1586 49.6194 86.0599 49.7207 85.9701 49.712C85.8804 49.7033 85.8146 49.5875 85.8266 49.4515C85.8385 49.3154 85.9253 49.217 86.015 49.2257C86.1047 49.2344 86.1705 49.3473 86.1586 49.4833Z" fill="#263238"/>
<path d="M84.5836 49.3414C84.5836 49.4746 84.4849 49.5788 84.3952 49.5701C84.3055 49.5614 84.2427 49.4427 84.2546 49.3096C84.2666 49.1764 84.3533 49.0722 84.443 49.0809C84.5328 49.0896 84.5956 49.214 84.5836 49.3414Z" fill="#263238"/>
<path d="M85.0774 49.4516C84.8715 49.8491 84.6094 50.2169 84.2988 50.5445C84.3886 50.619 84.494 50.6738 84.6077 50.7053C84.7214 50.7368 84.8407 50.7443 84.9577 50.7271L85.0774 49.4516Z" fill="#D4827D"/>
<path d="M86.7729 48.9066C86.7594 48.913 86.7445 48.9164 86.7295 48.9164C86.7144 48.9164 86.6996 48.913 86.686 48.9066C86.6042 48.8467 86.509 48.8063 86.4081 48.7887C86.3071 48.7711 86.2033 48.7767 86.1051 48.8052C86.0848 48.8129 86.0622 48.8127 86.0421 48.8046C86.0219 48.7965 86.0059 48.7811 85.9973 48.7617C85.9894 48.7425 85.9897 48.721 85.9981 48.702C86.0065 48.683 86.0224 48.668 86.0422 48.6602C86.1663 48.6215 86.2983 48.6121 86.4269 48.6327C86.5556 48.6534 86.6773 48.7036 86.7819 48.7791C86.7908 48.7849 86.7985 48.7924 86.8044 48.8011C86.8103 48.8098 86.8144 48.8196 86.8163 48.8299C86.8183 48.8402 86.8181 48.8507 86.8158 48.8609C86.8135 48.8711 86.8091 48.8807 86.8028 48.8892C86.7942 48.897 86.784 48.9029 86.7729 48.9066Z" fill="#263238"/>
<path d="M85.3235 51.4436C85.5245 51.4233 85.7176 51.357 85.8868 51.2501C86.0561 51.1433 86.1966 50.9989 86.2968 50.8291C86.3012 50.8186 86.3015 50.8069 86.2976 50.7962C86.2938 50.7856 86.286 50.7766 86.2758 50.7711C86.2709 50.7686 86.2655 50.767 86.26 50.7666C86.2545 50.7661 86.2489 50.7667 86.2436 50.7683C86.2383 50.7699 86.2334 50.7725 86.2292 50.776C86.2249 50.7795 86.2215 50.7837 86.2189 50.7885C86.1265 50.9465 85.9971 51.0812 85.841 51.1819C85.685 51.2826 85.5067 51.3464 85.3205 51.3683C85.3148 51.3682 85.3092 51.3693 85.3041 51.3716C85.2989 51.3738 85.2943 51.3771 85.2906 51.3813C85.2869 51.3854 85.2842 51.3903 85.2826 51.3955C85.2811 51.4008 85.2807 51.4063 85.2816 51.4117C85.2819 51.4171 85.2834 51.4223 85.2859 51.4271C85.2883 51.4319 85.2918 51.4361 85.2959 51.4396C85.3001 51.4431 85.305 51.4458 85.3102 51.4475C85.3154 51.4492 85.321 51.4498 85.3265 51.4494L85.3235 51.4436Z" fill="#263238"/>
<path d="M83.9825 48.3938C83.9694 48.3846 83.9599 48.3713 83.9556 48.3561C83.9539 48.346 83.9543 48.3357 83.9569 48.3257C83.9595 48.3158 83.9642 48.3064 83.9706 48.2983C83.9771 48.2901 83.9852 48.2834 83.9944 48.2784C84.0037 48.2734 84.0139 48.2702 84.0244 48.2692C84.1538 48.2522 84.2854 48.2655 84.4084 48.3078C84.5313 48.3502 84.642 48.4204 84.7312 48.5127C84.7462 48.5273 84.7546 48.5471 84.7546 48.5678C84.7546 48.5884 84.7462 48.6082 84.7312 48.6228C84.7161 48.6373 84.6956 48.6455 84.6743 48.6455C84.653 48.6455 84.6325 48.6373 84.6174 48.6228C84.545 48.5517 84.4563 48.498 84.3585 48.4663C84.2606 48.4346 84.1565 48.4256 84.0544 48.4402C84.0394 48.4389 84.0249 48.434 84.0123 48.4259C83.9998 48.4178 83.9895 48.4068 83.9825 48.3938Z" fill="#263238"/>
<path d="M84.7782 47.2514C84.9216 47.2309 85.068 47.2431 85.2057 47.2869C85.3435 47.3306 85.4688 47.4048 85.5718 47.5036C86.1069 47.4702 86.6441 47.4829 87.177 47.5413C87.3529 47.5879 87.5118 47.6814 87.6357 47.811C87.7595 47.9406 87.8434 48.1013 87.8777 48.2747C87.9197 48.4022 87.6621 48.6428 87.6621 48.6428C87.6621 48.6428 87.6831 50.1705 87.6921 50.5938L88.309 51.7533C89.0515 50.6781 89.4666 49.4224 89.5069 48.1297C89.5818 45.9556 85.1525 45.9585 85.1525 45.9585L84.7782 47.2514Z" fill="#263238"/>
<path d="M89.3902 51.1502C89.2602 51.315 89.0977 51.4531 88.9121 51.5566C88.7265 51.6602 88.5215 51.7269 88.3091 51.7531C87.7401 51.8227 87.5424 51.3096 87.77 50.8313C87.9766 50.411 88.5217 49.8515 89.0578 50.008C89.1746 50.0424 89.2806 50.1046 89.3661 50.189C89.4516 50.2734 89.5137 50.3773 89.5468 50.4911C89.5799 50.6048 89.5829 50.7248 89.5556 50.84C89.5282 50.9552 89.4713 51.0619 89.3902 51.1502Z" fill="#EEC1BB"/>
<path d="M85.1855 60.1776L82.2477 60.5023C82.2477 60.5023 80.5377 59.4732 80.1514 59.4529C79.765 59.4326 79.798 61.1516 80.2502 61.4821C80.7024 61.8126 81.8104 61.8705 81.9692 61.8618C82.1279 61.8531 82.3884 61.5372 82.3884 61.5372L85.3832 61.2096L85.1855 60.1776Z" fill="#EEC1BB"/>
<path d="M91.1237 60.7048C90.3481 60.9744 84.7389 62.0354 84.4364 61.618L84.3556 61.5078L84.2687 61.3716C83.9842 60.9193 83.6997 60.2526 84.2028 59.8497C84.8018 59.3626 89.3837 58.838 89.6892 58.464C89.9947 58.0901 91.8364 53.4519 93.5494 54.1157C93.5833 54.1296 93.6154 54.1471 93.6453 54.1679C93.7744 54.2433 93.872 54.3603 93.9208 54.4984C94.5137 55.9478 91.8155 60.47 91.1237 60.7048Z" fill="#43744B"/>
<path d="M93.9222 54.4988C93.8379 54.975 93.7117 55.4435 93.5449 55.8989C92.9789 57.5136 91.772 59.9573 90.8496 60.3719C89.6697 60.8966 85.0069 61.4241 84.345 61.4966H84.2732L84.2582 61.3546L84.2402 61.2125C84.2941 61.2125 89.5259 60.6327 90.7268 60.1023C91.4456 59.7834 92.6105 57.6208 93.2514 55.7975C93.4657 55.2749 93.595 54.7234 93.6347 54.1625C93.7695 54.2372 93.8716 54.3567 93.9222 54.4988Z" fill="white"/>
<path d="M83.2158 60.1255L84.1112 59.9719L84.5634 61.6242L83.5153 61.7431L83.2158 60.1255Z" fill="#43744B"/>
<path opacity="0.2" d="M83.2158 60.1255L84.1112 59.9719L84.5634 61.6242L83.5153 61.7431L83.2158 60.1255Z" fill="black"/>
<path d="M109.353 89.0356L110.842 86.7252L110.198 86.3222L108.611 88.6964L109.353 89.0356Z" fill="#43744B"/>
<path opacity="0.2" d="M109.353 89.0356L110.842 86.7252L110.198 86.3222L108.611 88.6964L109.353 89.0356Z" fill="black"/>
<path d="M88.9355 85.664L91.0228 83.8406L90.5197 83.2812L88.3186 85.1393L88.9355 85.664Z" fill="#43744B"/>
<path opacity="0.2" d="M88.9355 85.664L91.0228 83.8406L90.5197 83.2812L88.3186 85.1393L88.9355 85.664Z" fill="black"/>
<path opacity="0.2" d="M93.0319 72.3236C92.942 72.3497 89.2914 73.4831 86.6411 74.5122C86.9016 71.7264 91.1332 70.0132 91.1332 70.0132L93.0319 72.3236Z" fill="black"/>
<path d="M56.6461 33.5256C55.9363 36.8506 51.0788 42.0105 43.6159 37.0796C41.7951 35.8765 41.0494 34.4532 40.9715 32.9922C40.729 28.6033 46.4459 23.8608 46.7963 23.5738H46.8143C46.8143 23.5738 46.5747 21.4982 44.9186 21.2547C44.7706 21.2376 44.6256 21.2015 44.4874 21.1474C43.589 20.7648 44.9186 19.7647 44.9186 19.7647C45.9848 18.9617 47.0509 20.5474 47.7606 20.3851C48.4704 20.2227 49.3029 19.0777 49.7761 19.5357C50.2493 19.9937 49.6563 21.2547 50.7224 21.2547C51.7886 21.2547 53.0643 20.7967 53.4177 21.2547C53.7711 21.7127 53.4177 23.2839 53.4177 23.2839C53.4177 23.2839 50.8273 22.7592 50.1235 23.5506C50.1235 23.5506 56.2418 29.1715 56.664 32.6588C56.706 32.9468 56.6999 33.2394 56.6461 33.5256Z" fill="#43744B"/>
<path d="M50.7851 32.6005L50.9348 33.6673L49.9465 33.6296L49.8238 32.5744C48.6708 32.4729 47.5477 32.1367 46.9308 31.7047L47.401 30.8554C48.1067 31.2626 48.8957 31.5158 49.7129 31.5975L49.5213 29.9278C48.2994 29.6727 47.0057 29.348 46.9638 28.3131C46.9338 27.5942 47.6436 27.0202 49.1799 26.9738L49.096 26.2433L49.8896 26.2723L49.9915 26.9883C50.7128 27.0358 51.4212 27.1984 52.0878 27.4695L51.8093 28.1565C51.2604 27.9332 50.6817 27.7859 50.0903 27.7188L50.2969 29.1856C51.5128 29.4349 52.8724 29.7654 53.115 30.8844C53.3066 31.7656 52.6029 32.5251 50.7851 32.6005ZM49.4135 28.9885L49.2637 27.7043C48.551 27.7565 48.2695 27.9942 48.2934 28.3102C48.3174 28.6262 48.7876 28.8523 49.4135 28.9885ZM51.7045 30.8989C51.6326 30.493 51.1055 30.2872 50.4347 30.1249L50.6473 31.6091C51.4649 31.5569 51.7673 31.2757 51.7045 30.9105V30.8989Z" fill="white"/>
<path opacity="0.2" d="M53.4324 23.2923C53.4324 23.2923 50.842 22.7676 50.1382 23.559C49.1889 23.3763 47.413 23.0459 46.82 23.559C46.82 23.559 46.5804 21.4834 44.9243 21.2399C44.7763 21.2228 44.6313 21.1867 44.4931 21.1326C44.6244 20.9283 44.815 20.7659 45.0411 20.6659C46.239 20.1499 46.9368 22.0429 47.7663 21.7559C48.5959 21.4689 49.1889 20.5529 49.7219 21.1761C50.255 21.7994 52.5879 21.0863 53.4324 23.2923Z" fill="black"/>
<path opacity="0.2" d="M56.646 33.5252C55.9362 36.8502 51.0788 42.0101 43.6159 37.0792C41.795 35.8762 41.0494 34.4528 40.9715 32.9918C41.4177 33.4556 41.9478 33.6846 43.0828 33.6672C45.0354 33.6382 49.0932 31.6931 50.8272 32.8961C52.5612 34.0992 55.526 33.9455 56.673 32.6671C56.711 32.9527 56.7019 33.2424 56.646 33.5252Z" fill="black"/>
<path d="M46.5833 23.7531C46.5833 23.7531 45.8076 23.3183 47.287 22.9153C48.7664 22.5124 51.1802 23.2922 50.6471 24.0517C50.0372 23.7076 49.3546 23.5019 48.6507 23.4502C47.9467 23.3985 47.2398 23.502 46.5833 23.7531Z" fill="#263238"/>
<path d="M48.9593 23.1912C48.9593 23.1912 49.2587 25.4262 50.0434 25.0812C50.828 24.7363 49.5013 23.5738 49.5013 23.5738C49.5013 23.5738 51.3461 24.6754 51.5228 23.9072C51.6995 23.139 49.3306 22.7448 48.9593 23.1912ZM49.9086 24.7102C49.7469 24.8232 49.4804 23.8231 49.4804 23.8231C49.5253 23.8492 50.0733 24.5797 49.9086 24.6957V24.7102ZM51.0736 23.7912C50.9598 23.9652 50.0434 23.3912 50.0434 23.3912C50.0434 23.3912 51.1874 23.6057 51.0736 23.7709V23.7912Z" fill="#263238"/>
<path d="M49.7127 23.4803C49.7127 23.4803 51.3628 24.4659 52.2373 24.521C52.2581 24.5636 52.2689 24.6101 52.2689 24.6572C52.2689 24.7043 52.2581 24.7509 52.2373 24.7935C52.2373 24.7935 50.2607 24.2137 49.8415 23.7383C49.8415 23.7383 50.7968 25.2254 51.5425 24.7935C51.6246 24.8502 51.6863 24.9302 51.7192 25.0225C51.7192 25.0225 51.4467 25.237 50.8657 25.0225C50.2847 24.808 49.5091 23.573 49.5091 23.573L49.7127 23.4803Z" fill="#263238"/>
<path d="M21.1032 104.719L24.1848 78.0202L26.7543 74.2111L28.644 66.048C28.644 66.048 31.3393 57.9688 31.3123 57.2702C31.2854 56.5716 33.0014 48.7679 33.0014 48.7679L34.7982 40.251L37.2689 34.7432L44.8875 34.2417L48.6549 36.4738L59.9511 37.2188L65.5842 43.4514L67.423 49.4085L71.999 52.6668L73.8527 58.0326L79.0337 60.1546L81.4145 61.7605L78.7192 75.5359L92.3423 88.2764L111.443 92.4536L123.17 98.7732L127.174 104.719H21.1032Z" fill="#43744B"/>
<path opacity="0.6" d="M127.171 104.718H21.1034L24.185 78.0197L26.7544 74.2106L28.6441 66.0474C28.6441 66.0474 31.3394 57.9683 31.3125 57.2697C31.2855 56.5711 33.0015 48.7674 33.0015 48.7674L34.3611 42.271L34.7834 40.2418L37.254 34.734L44.8727 34.2325L48.6401 36.4646L59.9363 37.2096L65.5844 43.4509L67.4231 49.408L71.9991 52.6663L73.8529 58.0321L79.0338 60.1541L81.4146 61.76L78.7193 75.5354L92.3424 88.2759L105.316 91.1138L111.443 92.456L115.737 94.7751L123.17 98.7784L127.171 104.718Z" fill="white"/>
<path opacity="0.2" d="M127.171 104.718H21.1032L24.1848 78.02L23.4721 101.434L26.7663 102.883L30.7523 91.7606V99.5875L35.7955 101.449L39.9432 96.9698L46.0735 90.3894L48.4453 77.0547L47.6547 73.576L54.9199 57.3134V79.2346L59.0287 83.9423V90.7344L59.6606 98.0221L64.3863 97.5844L65.8088 86.3861L69.0791 84.4844L72.6878 78.6026L73.5862 94.0506L76.3024 98.7845L87.7244 90.2328L92.3513 88.2877L105.325 91.1257C101.707 91.9664 94.3877 93.7028 94.3308 94.0506C94.253 94.5087 94.9118 96.793 95.927 98.0192C96.9422 99.2454 102.012 101.828 102.012 101.828L108.87 101.446L111.835 97.596L115.746 94.7812L123.179 98.7845H113.596V101.446L127.171 104.718Z" fill="black"/>
<path opacity="0.2" d="M44.8734 34.2357L41.4833 42.854L40.8604 54.29L38.0064 66.4652L43.6964 52.6319L47.3171 47.3646C47.3171 47.3646 45.2657 44.9209 45.4214 44.3266C45.5771 43.7324 49.2128 37.1375 49.2128 37.1375L44.8734 34.2357Z" fill="black"/>
<path opacity="0.2" d="M31.3418 84.8441C31.3415 84.9079 31.3316 84.9713 31.3124 85.0323C31.2919 85.0815 31.3036 85.0091 31.3418 84.8441Z" fill="black"/>
<path opacity="0.2" d="M32.2597 58.6382L34.356 61.166V74.2108C34.356 74.2108 31.7116 83.3538 31.3373 84.8409C31.4241 83.577 30.7383 77.0314 30.7383 77.0314L26.7553 74.2108L28.645 66.0476C28.645 66.0476 31.3403 57.9685 31.3133 57.2699C31.2864 56.5713 33.0024 48.7676 33.0024 48.7676L34.362 42.2712L32.2597 58.6382Z" fill="black"/>
<path opacity="0.2" d="M65.5852 43.4508L62.4258 54.5708L60.7547 56.2377C60.7547 56.2377 58.859 74.0105 58.859 73.3989C58.859 72.7872 62.4288 57.977 62.4288 57.977L65.5852 55.0578L67.424 49.4079L65.5852 43.4508Z" fill="black"/>
<path opacity="0.2" d="M73.857 58.0321L70.416 68.1781V72.2539L72.135 68.5868C72.135 68.5868 75.1507 66.8475 75.2196 66.4474C75.2885 66.0474 79.0379 60.1424 79.0379 60.1424L73.857 58.0321Z" fill="black"/>
<path d="M113.753 104.718H124.445C124.445 104.718 122.315 101.564 121.408 101.964C120.228 102.486 119.351 99.6277 118.045 100.306C117.584 100.544 117.808 101.309 117.518 101.616C117.039 102.124 116.431 102.025 115.85 102.303C114.718 102.851 114.313 103.576 113.753 104.718Z" fill="#263238"/>
<path d="M123.276 103.84C123.276 103.84 122.572 99.8972 123.058 99.3175C123.543 98.7377 123.627 101.468 123.627 101.468C123.627 101.468 125.256 95.7751 126.298 95.7432C127.34 95.7113 125.061 100.686 125.061 100.686C125.061 100.686 129.514 93.6386 130.811 94.2938C132.108 94.9489 126.148 101.196 126.148 101.196C126.148 101.196 129.406 98.4826 130.122 99.2508C130.838 100.019 126.508 102.358 126.508 102.358C126.508 102.358 128.418 101.944 128.415 102.558C128.412 103.173 125.181 104.188 123.276 103.84Z" fill="#43744B"/>
<path opacity="0.2" d="M123.276 103.84C123.276 103.84 122.572 99.8972 123.058 99.3175C123.543 98.7377 123.627 101.468 123.627 101.468C123.627 101.468 125.256 95.7751 126.298 95.7432C127.34 95.7113 125.061 100.686 125.061 100.686C125.061 100.686 129.514 93.6386 130.811 94.2938C132.108 94.9489 126.148 101.196 126.148 101.196C126.148 101.196 129.406 98.4826 130.122 99.2508C130.838 100.019 126.508 102.358 126.508 102.358C126.508 102.358 128.418 101.944 128.415 102.558C128.412 103.173 125.181 104.188 123.276 103.84Z" fill="white"/>
<path d="M122.632 103.275C122.632 103.275 119.287 102.695 118.96 102.161C118.634 101.628 120.841 102.344 120.841 102.344C120.841 102.344 116.75 99.5148 117.02 98.7263C117.289 97.9378 120.614 101.045 120.614 101.045C120.614 101.045 116.244 95.7202 117.134 94.9375C118.023 94.1548 121.326 100.376 121.326 100.376C121.326 100.376 120.078 97.187 120.892 96.8508C121.707 96.5145 122.354 100.437 122.354 100.437C122.354 100.437 122.563 98.8887 123.054 99.0626C123.545 99.2365 123.453 101.941 122.632 103.275Z" fill="#43744B"/>
<path opacity="0.2" d="M122.632 103.275C122.632 103.275 119.287 102.695 118.96 102.161C118.634 101.628 120.841 102.344 120.841 102.344C120.841 102.344 116.75 99.5148 117.02 98.7263C117.289 97.9378 120.614 101.045 120.614 101.045C120.614 101.045 116.244 95.7202 117.134 94.9375C118.023 94.1548 121.326 100.376 121.326 100.376C121.326 100.376 120.078 97.187 120.892 96.8508C121.707 96.5145 122.354 100.437 122.354 100.437C122.354 100.437 122.563 98.8887 123.054 99.0626C123.545 99.2365 123.453 101.941 122.632 103.275Z" fill="white"/>
<path d="M122.381 102.846C122.381 102.846 119.15 99.7092 119.207 98.8888C119.264 98.0684 121.141 100.483 121.141 100.483C121.141 100.483 118.862 94.3231 119.785 93.6506C120.707 92.978 121.92 98.8888 121.92 98.8888C121.92 98.8888 121.321 89.7603 122.914 89.5545C124.508 89.3487 123.241 98.6801 123.241 98.6801C123.241 98.6801 124.403 94.2129 125.559 94.4622C126.715 94.7115 124.334 99.512 124.334 99.512C124.334 99.512 125.789 97.9554 126.194 98.5119C126.598 99.0685 124.346 101.979 122.381 102.846Z" fill="#43744B"/>
<path opacity="0.4" d="M122.381 102.846C122.381 102.846 119.15 99.7092 119.207 98.8888C119.264 98.0684 121.141 100.483 121.141 100.483C121.141 100.483 118.862 94.3231 119.785 93.6506C120.707 92.978 121.92 98.8888 121.92 98.8888C121.92 98.8888 121.321 89.7603 122.914 89.5545C124.508 89.3487 123.241 98.6801 123.241 98.6801C123.241 98.6801 124.403 94.2129 125.559 94.4622C126.715 94.7115 124.334 99.512 124.334 99.512C124.334 99.512 125.789 97.9554 126.194 98.5119C126.598 99.0685 124.346 101.979 122.381 102.846Z" fill="white"/>
<path d="M118.464 104.718H126.978C126.978 104.718 125.28 102.205 124.559 102.524C123.618 102.938 122.921 100.663 121.878 101.202C121.51 101.393 121.69 102.002 121.459 102.245C121.076 102.651 120.591 102.573 120.129 102.796C119.231 103.231 118.911 103.808 118.464 104.718Z" fill="#263238"/>
<path opacity="0.2" d="M118.464 104.718H126.978C126.978 104.718 125.28 102.205 124.559 102.524C123.618 102.938 122.921 100.663 121.878 101.202C121.51 101.393 121.69 102.002 121.459 102.245C121.076 102.651 120.591 102.573 120.129 102.796C119.231 103.231 118.911 103.808 118.464 104.718Z" fill="white"/>
<path d="M32.1907 98.9469C32.1907 98.9469 28.9953 87.6094 26.3989 84.0177C23.8024 80.4261 27.9651 92.1345 27.9651 92.1345C27.9651 92.1345 24.3295 84.67 23.1885 84.9077C22.0475 85.1454 26.9529 93.2013 26.9529 93.2013C26.9529 93.2013 23.2214 86.7514 21.5893 87.8037C19.9572 88.8559 26.3539 95.4885 26.3539 95.4885C26.3539 95.4885 20.601 91.3142 20.032 92.4737C19.463 93.6332 25.5903 97.3438 25.5903 97.3438C25.5903 97.3438 19.7655 96.1987 19.1426 98.1903C18.5197 100.182 24.9464 99.8803 24.9464 99.8803C24.9464 99.8803 21.9786 99.7527 21.4156 101.828C20.8526 103.904 29.2049 103.15 32.1907 98.9469Z" fill="#43744B"/>
<path opacity="0.2" d="M32.1907 98.9469C32.1907 98.9469 28.9953 87.6094 26.3989 84.0177C23.8024 80.4261 27.9651 92.1345 27.9651 92.1345C27.9651 92.1345 24.3295 84.67 23.1885 84.9077C22.0475 85.1454 26.9529 93.2013 26.9529 93.2013C26.9529 93.2013 23.2214 86.7514 21.5893 87.8037C19.9572 88.8559 26.3539 95.4885 26.3539 95.4885C26.3539 95.4885 20.601 91.3142 20.032 92.4737C19.463 93.6332 25.5903 97.3438 25.5903 97.3438C25.5903 97.3438 19.7655 96.1987 19.1426 98.1903C18.5197 100.182 24.9464 99.8803 24.9464 99.8803C24.9464 99.8803 21.9786 99.7527 21.4156 101.828C20.8526 103.904 29.2049 103.15 32.1907 98.9469Z" fill="white"/>
<path d="M33.8223 102.225C33.8223 102.225 29.4889 94.1518 30.3664 92.7372C31.2439 91.3225 33.0946 95.894 33.0946 95.894C33.0946 95.894 29.7525 85.5509 30.9594 84.4117C32.1662 83.2724 34.3794 93.3198 34.3794 93.3198C34.3794 93.3198 33.2054 81.5505 34.3794 80.9214C35.5533 80.2924 36.1193 91.5747 36.1193 91.5747C36.1193 91.5747 36.9189 79.6401 38.3923 79.8199C39.8657 79.9996 38.3923 90.4239 38.3923 90.4239C38.3923 90.4239 41.6865 82.4897 43.16 82.8086C44.6334 83.1275 40.7881 91.0239 40.7881 91.0239C40.7881 91.0239 44.6813 86.2582 45.8163 87.3772C46.9513 88.4961 42.3274 93.7141 42.3274 93.7141C42.3274 93.7141 46.2865 91.3138 47.3167 92.514C48.3469 93.7141 43.1689 96.2825 43.1689 96.2825C43.1689 96.2825 47.3855 97.3406 47.0921 98.358C46.7986 99.3755 43.1689 99.2277 43.1689 99.2277C43.1689 99.2277 41.5877 106.463 33.8223 102.225Z" fill="#43744B"/>
<path opacity="0.2" d="M33.8223 102.225C33.8223 102.225 29.4889 94.1518 30.3664 92.7372C31.2439 91.3225 33.0946 95.894 33.0946 95.894C33.0946 95.894 29.7525 85.5509 30.9594 84.4117C32.1662 83.2724 34.3794 93.3198 34.3794 93.3198C34.3794 93.3198 33.2054 81.5505 34.3794 80.9214C35.5533 80.2924 36.1193 91.5747 36.1193 91.5747C36.1193 91.5747 36.9189 79.6401 38.3923 79.8199C39.8657 79.9996 38.3923 90.4239 38.3923 90.4239C38.3923 90.4239 41.6865 82.4897 43.16 82.8086C44.6334 83.1275 40.7881 91.0239 40.7881 91.0239C40.7881 91.0239 44.6813 86.2582 45.8163 87.3772C46.9513 88.4961 42.3274 93.7141 42.3274 93.7141C42.3274 93.7141 46.2865 91.3138 47.3167 92.514C48.3469 93.7141 43.1689 96.2825 43.1689 96.2825C43.1689 96.2825 47.3855 97.3406 47.0921 98.358C46.7986 99.3755 43.1689 99.2277 43.1689 99.2277C43.1689 99.2277 41.5877 106.463 33.8223 102.225Z" fill="black"/>
<path d="M24.5058 82.9308C24.5052 83.0574 24.5436 83.1813 24.6161 83.2868C24.6885 83.3922 24.7917 83.4744 24.9126 83.5228C25.0334 83.5713 25.1665 83.5838 25.2947 83.5588C25.4229 83.5338 25.5406 83.4725 25.6327 83.3825C25.7247 83.2926 25.7871 83.1781 25.8117 83.0538C25.8364 82.9294 25.8222 82.8008 25.771 82.6842C25.7199 82.5677 25.634 82.4685 25.5244 82.3994C25.4149 82.3302 25.2865 82.2942 25.1557 82.2959C24.9828 82.2975 24.8175 82.365 24.6958 82.4839C24.5741 82.6028 24.5058 82.7634 24.5058 82.9308Z" fill="#43744B"/>
<path d="M32.6792 99.697C32.6444 99.6963 32.6109 99.6842 32.5842 99.6626C32.5575 99.641 32.5393 99.6112 32.5324 99.5782C32.5085 99.4506 30.0887 86.6927 24.3388 81.2197C24.3141 81.1921 24.301 81.1566 24.3022 81.1201C24.3033 81.0836 24.3187 81.0488 24.3452 81.0228C24.3717 80.9968 24.4073 80.9815 24.445 80.9798C24.4827 80.9781 24.5196 80.9903 24.5484 81.0139C30.3672 86.5507 32.805 99.3984 32.8289 99.526C32.8328 99.545 32.8327 99.5647 32.8286 99.5837C32.8244 99.6027 32.8164 99.6207 32.805 99.6367C32.7935 99.6526 32.7789 99.6662 32.7619 99.6766C32.7449 99.6869 32.7259 99.6939 32.7061 99.697H32.6792Z" fill="#43744B"/>
<path d="M23.6742 81.1187C23.6742 81.2661 23.7193 81.4101 23.8039 81.5326C23.8884 81.6551 24.0086 81.7506 24.1493 81.807C24.2899 81.8634 24.4447 81.8781 24.594 81.8494C24.7433 81.8207 24.8804 81.7497 24.988 81.6455C25.0957 81.5413 25.169 81.4086 25.1987 81.2641C25.2284 81.1195 25.2131 80.9697 25.1549 80.8336C25.0966 80.6975 24.998 80.5811 24.8714 80.4993C24.7448 80.4174 24.596 80.3737 24.4438 80.3737C24.2397 80.3737 24.0439 80.4522 23.8996 80.5919C23.7552 80.7316 23.6742 80.9211 23.6742 81.1187Z" fill="#43744B"/>
<path d="M26.1445 87.1193C26.1445 87.2454 26.1831 87.3687 26.2555 87.4736C26.3279 87.5785 26.4308 87.6602 26.5512 87.7085C26.6716 87.7568 26.8041 87.7694 26.9319 87.7448C27.0597 87.7202 27.1771 87.6594 27.2692 87.5703C27.3614 87.4811 27.4241 87.3674 27.4495 87.2437C27.4749 87.12 27.4619 86.9918 27.412 86.8752C27.3622 86.7587 27.2777 86.6591 27.1694 86.589C27.061 86.519 26.9336 86.4815 26.8033 86.4815C26.7167 86.4812 26.6309 86.4974 26.5507 86.5293C26.4706 86.5612 26.3978 86.6082 26.3366 86.6675C26.2753 86.7268 26.2268 86.7972 26.1938 86.8748C26.1609 86.9523 26.1441 87.0354 26.1445 87.1193Z" fill="#43744B"/>
<path d="M29.0492 85.2729C29.0497 85.3983 29.0887 85.5208 29.1611 85.6248C29.2336 85.7288 29.3362 85.8097 29.4561 85.8573C29.576 85.9049 29.7078 85.9171 29.8348 85.8923C29.9618 85.8674 30.0784 85.8067 30.1698 85.7178C30.2612 85.6289 30.3234 85.5158 30.3485 85.3928C30.3735 85.2697 30.3604 85.1422 30.3106 85.0264C30.2609 84.9105 30.1768 84.8115 30.0691 84.7419C29.9613 84.6723 29.8346 84.6351 29.705 84.6351C29.6186 84.6351 29.5331 84.6516 29.4533 84.6837C29.3736 84.7158 29.3011 84.7628 29.2402 84.8221C29.1792 84.8813 29.131 84.9517 29.0982 85.029C29.0654 85.1064 29.0488 85.1892 29.0492 85.2729Z" fill="#43744B"/>
<path d="M27.6781 90.0589C28.0404 90.0589 28.334 89.7746 28.334 89.424C28.334 89.0734 28.0404 88.7892 27.6781 88.7892C27.3159 88.7892 27.0223 89.0734 27.0223 89.424C27.0223 89.7746 27.3159 90.0589 27.6781 90.0589Z" fill="#43744B"/>
<path d="M30.0224 88.5136C30.0224 88.6399 30.0611 88.7633 30.1337 88.8683C30.2062 88.9732 30.3093 89.0549 30.4298 89.1031C30.5504 89.1513 30.683 89.1638 30.8109 89.1389C30.9388 89.1141 31.0562 89.053 31.1482 88.9636C31.2402 88.8741 31.3027 88.7602 31.3278 88.6363C31.3529 88.5124 31.3394 88.3841 31.2891 88.2676C31.2388 88.1511 31.1539 88.0517 31.0451 87.982C30.9364 87.9122 30.8087 87.8753 30.6783 87.8759C30.5919 87.8759 30.5064 87.8924 30.4266 87.9245C30.3468 87.9566 30.2744 88.0036 30.2134 88.0629C30.1525 88.1221 30.1043 88.1924 30.0715 88.2698C30.0387 88.3472 30.022 88.43 30.0224 88.5136Z" fill="#43744B"/>
<path d="M26.7524 81.8631C26.753 81.9886 26.792 82.111 26.8644 82.215C26.9368 82.3191 27.0394 82.4 27.1593 82.4476C27.2792 82.4952 27.411 82.5073 27.538 82.4825C27.6651 82.4577 27.7816 82.397 27.8731 82.3081C27.9645 82.2192 28.0266 82.1061 28.0517 81.983C28.0768 81.86 28.0636 81.7325 28.0139 81.6166C27.9642 81.5008 27.8801 81.4018 27.7723 81.3322C27.6645 81.2625 27.5378 81.2254 27.4083 81.2254C27.3219 81.2254 27.2363 81.2419 27.1566 81.274C27.0768 81.3061 27.0044 81.3531 26.9434 81.4124C26.8825 81.4716 26.8342 81.5419 26.8015 81.6193C26.7687 81.6966 26.752 81.7795 26.7524 81.8631Z" fill="#43744B"/>
<path d="M27.5514 85.125L24.4069 84.3568C24.388 84.3524 24.3701 84.3444 24.3544 84.3332C24.3386 84.322 24.3253 84.3079 24.3153 84.2917C24.3053 84.2755 24.2987 84.2576 24.2959 84.2389C24.2931 84.2202 24.2942 84.2011 24.2991 84.1829C24.3091 84.146 24.3333 84.1143 24.3667 84.0943C24.4002 84.0744 24.4404 84.0676 24.4788 84.0756L27.2579 84.7423V81.8435C27.2579 81.805 27.2737 81.7682 27.3018 81.741C27.3299 81.7138 27.368 81.6985 27.4077 81.6985C27.4474 81.6985 27.4855 81.7138 27.5136 81.741C27.5416 81.7682 27.5574 81.805 27.5574 81.8435L27.5514 85.125Z" fill="#43744B"/>
<path d="M28.966 87.861L26.7708 87.3856C26.7311 87.3776 26.6963 87.3545 26.6741 87.3217C26.652 87.2888 26.6442 87.2487 26.6525 87.2102C26.6609 87.1718 26.6846 87.1381 26.7186 87.1167C26.7526 87.0952 26.794 87.0877 26.8337 87.0957L28.7683 87.5161L29.5769 85.2202C29.5813 85.2002 29.59 85.1812 29.6025 85.1647C29.615 85.1482 29.631 85.1344 29.6494 85.1243C29.6678 85.1142 29.6882 85.108 29.7093 85.106C29.7303 85.1041 29.7516 85.1065 29.7716 85.1131C29.7916 85.1197 29.81 85.1304 29.8255 85.1443C29.8409 85.1583 29.8532 85.1753 29.8614 85.1942C29.8696 85.213 29.8736 85.2334 29.873 85.2539C29.8725 85.2743 29.8675 85.2945 29.8584 85.3129L28.966 87.861Z" fill="#43744B"/>
<path d="M30.0854 90.5255L27.6207 89.5573C27.6007 89.5514 27.5823 89.5415 27.5665 89.5283C27.5507 89.5151 27.5379 89.4989 27.529 89.4806C27.5201 89.4623 27.5152 89.4425 27.5146 89.4223C27.5141 89.4021 27.518 89.382 27.5259 89.3633C27.5339 89.3446 27.5458 89.3278 27.5609 89.3138C27.576 89.2999 27.594 89.2891 27.6136 89.2823C27.6332 89.2754 27.6541 89.2726 27.675 89.2741C27.6958 89.2755 27.7161 89.2811 27.7345 89.2906L29.9087 90.1603L30.5376 88.4789C30.5511 88.4428 30.5789 88.4133 30.6148 88.397C30.6508 88.3807 30.6919 88.3789 30.7293 88.392C30.748 88.3981 30.7652 88.4078 30.78 88.4206C30.7947 88.4334 30.8066 88.4489 30.815 88.4662C30.8234 88.4835 30.8281 88.5023 30.8288 88.5214C30.8295 88.5406 30.8262 88.5596 30.8191 88.5775L30.0854 90.5255Z" fill="#43744B"/>
<path d="M40.537 103.052C40.506 103.052 40.4758 103.042 40.4501 103.026C40.4185 103.002 40.3975 102.968 40.3913 102.931C40.3852 102.893 40.3944 102.854 40.4172 102.823C43.5198 98.6773 47.356 94.1522 52.2974 92.0186C52.3154 92.011 52.3349 92.0068 52.3547 92.0065C52.3744 92.0061 52.394 92.0095 52.4124 92.0165C52.4308 92.0235 52.4475 92.034 52.4617 92.0473C52.4759 92.0606 52.4872 92.0765 52.495 92.094C52.5104 92.1291 52.5112 92.1686 52.4973 92.2042C52.4833 92.2399 52.4557 92.2689 52.4201 92.2853C47.5447 94.387 43.7354 98.8773 40.6598 102.991C40.646 103.01 40.6276 103.025 40.6062 103.036C40.5848 103.047 40.561 103.052 40.537 103.052Z" fill="#43744B"/>
<path d="M53.0797 92.4128C53.0263 92.5507 52.9319 92.6702 52.8084 92.7563C52.6848 92.8423 52.5378 92.8909 52.3857 92.896C52.2336 92.9011 52.0834 92.8625 51.954 92.785C51.8246 92.7076 51.7218 92.5947 51.6587 92.4607C51.5955 92.3267 51.5748 92.1776 51.5992 92.0322C51.6236 91.8868 51.6919 91.7517 51.7956 91.6439C51.8992 91.5361 52.0336 91.4604 52.1817 91.4265C52.3297 91.3926 52.4849 91.4019 52.6275 91.4533C52.8185 91.5229 52.9733 91.663 53.058 91.8428C53.1428 92.0225 53.1505 92.2275 53.0797 92.4128Z" fill="#43744B"/>
<path d="M48.5938 97.1957C48.5478 97.3129 48.4669 97.4143 48.3614 97.4871C48.2558 97.5598 48.1304 97.6007 48.0009 97.6046C47.8714 97.6084 47.7437 97.575 47.6337 97.5087C47.5238 97.4423 47.4367 97.3459 47.3833 97.2316C47.3299 97.1174 47.3127 96.9904 47.3337 96.8666C47.3548 96.7429 47.4133 96.628 47.5018 96.5364C47.5903 96.4448 47.7048 96.3806 47.831 96.352C47.9571 96.3233 48.0892 96.3314 48.2105 96.3754C48.2915 96.4047 48.3657 96.4492 48.4288 96.5063C48.4919 96.5635 48.5428 96.6321 48.5784 96.7084C48.614 96.7846 48.6337 96.8669 48.6364 96.9506C48.639 97.0342 48.6246 97.1175 48.5938 97.1957Z" fill="#43744B"/>
<path d="M46.5323 94.4763C46.4712 94.6343 46.3477 94.7623 46.189 94.8322C46.0303 94.9021 45.8495 94.908 45.6863 94.8488C45.5231 94.7896 45.3908 94.6701 45.3187 94.5165C45.2465 94.363 45.2403 94.1879 45.3015 94.0299C45.3626 93.8719 45.4861 93.7439 45.6448 93.6741C45.8034 93.6042 45.9843 93.5982 46.1475 93.6574C46.3107 93.7166 46.4429 93.8361 46.5151 93.9897C46.5873 94.1433 46.5935 94.3183 46.5323 94.4763Z" fill="#43744B"/>
<path d="M46.9368 99.057C46.9068 99.1353 46.8612 99.2071 46.8025 99.2683C46.7438 99.3295 46.6732 99.3789 46.5947 99.4136C46.5163 99.4484 46.4315 99.4678 46.3453 99.4708C46.2591 99.4737 46.1731 99.4602 46.0923 99.431C46.0115 99.4017 45.9374 99.3572 45.8743 99.3002C45.8113 99.2432 45.7604 99.1747 45.7247 99.0987C45.6525 98.9451 45.6463 98.77 45.7075 98.6121C45.7686 98.4541 45.8921 98.3261 46.0508 98.2562C46.2094 98.1863 46.3903 98.1804 46.5535 98.2396C46.7163 98.2988 46.8482 98.4182 46.92 98.5715C46.9919 98.7248 46.998 98.8994 46.9368 99.057Z" fill="#43744B"/>
<path d="M44.4569 97.1841C44.4115 97.3017 44.3312 97.4036 44.226 97.4769C44.1208 97.5503 43.9955 97.5919 43.866 97.5963C43.7364 97.6008 43.6084 97.568 43.498 97.5021C43.3877 97.4362 43.3001 97.3401 43.2461 97.226C43.1922 97.1119 43.1744 96.9848 43.195 96.8609C43.2157 96.737 43.2737 96.6218 43.362 96.5299C43.4502 96.4379 43.5646 96.3733 43.6907 96.3443C43.8168 96.3152 43.949 96.323 44.0706 96.3667C44.1515 96.3957 44.2256 96.4399 44.2888 96.4967C44.3521 96.5535 44.4031 96.6219 44.439 96.6978C44.4748 96.7737 44.4949 96.8558 44.498 96.9392C44.5011 97.0227 44.4871 97.1059 44.4569 97.1841Z" fill="#43744B"/>
<path d="M49.9283 92.0679C49.8825 92.1851 49.8018 92.2865 49.6965 92.3594C49.5912 92.4324 49.4659 92.4735 49.3365 92.4776C49.2071 92.4817 49.0793 92.4487 48.9693 92.3826C48.8593 92.3165 48.7719 92.2204 48.7182 92.1064C48.6645 91.9923 48.6468 91.8655 48.6675 91.7417C48.6882 91.618 48.7462 91.503 48.8343 91.4111C48.9224 91.3193 49.0366 91.2547 49.1626 91.2256C49.2885 91.1965 49.4205 91.2041 49.542 91.2475C49.6232 91.2765 49.6977 91.3208 49.7612 91.3778C49.8246 91.4349 49.8758 91.5035 49.9117 91.5798C49.9476 91.656 49.9676 91.7384 49.9704 91.8222C49.9733 91.906 49.959 91.9895 49.9283 92.0679Z" fill="#43744B"/>
<path d="M51.2322 95.21H51.2113L47.9889 94.8477L49.1719 91.7923C49.177 91.7725 49.1864 91.754 49.1995 91.738C49.2126 91.7219 49.229 91.7088 49.2477 91.6993C49.2663 91.6899 49.2869 91.6843 49.3079 91.6831C49.329 91.6819 49.35 91.6849 49.3698 91.6921C49.3895 91.6993 49.4074 91.7104 49.4224 91.7248C49.4374 91.7392 49.4491 91.7564 49.4567 91.7755C49.4643 91.7945 49.4677 91.8149 49.4666 91.8352C49.4655 91.8556 49.46 91.8756 49.4504 91.8937L48.4052 94.6042L51.2472 94.923C51.2669 94.9242 51.2861 94.9291 51.3038 94.9374C51.3215 94.9457 51.3374 94.9574 51.3505 94.9716C51.3635 94.9859 51.3736 95.0025 51.38 95.0205C51.3864 95.0386 51.3891 95.0576 51.388 95.0767C51.3868 95.0957 51.3818 95.1143 51.3731 95.1315C51.3645 95.1486 51.3525 95.164 51.3378 95.1766C51.323 95.1893 51.3059 95.199 51.2872 95.2052C51.2686 95.2114 51.2489 95.2141 51.2292 95.2129L51.2322 95.21Z" fill="#43744B"/>
<path d="M47.9319 97.2337H47.9169L45.6858 96.9438L45.7697 94.2566C45.7734 94.2189 45.7913 94.1839 45.82 94.1582C45.8488 94.1325 45.8863 94.118 45.9254 94.1175C45.9451 94.1182 45.9644 94.1227 45.9823 94.1307C46.0002 94.1387 46.0162 94.15 46.0296 94.164C46.0429 94.178 46.0533 94.1944 46.0601 94.2123C46.0669 94.2301 46.07 94.2492 46.0692 94.2682L45.9943 96.6916L47.9559 96.9554C47.9755 96.9576 47.9944 96.9635 48.0116 96.9729C48.0288 96.9823 48.0439 96.9949 48.0559 97.0101C48.0679 97.0252 48.0767 97.0426 48.0816 97.0611C48.0865 97.0796 48.0876 97.0989 48.0846 97.1178C48.077 97.1512 48.0576 97.1811 48.0297 97.2022C48.0019 97.2234 47.9673 97.2345 47.9319 97.2337Z" fill="#43744B"/>
<path d="M43.67 99.0507L43.6909 96.9607C43.6925 96.923 43.7088 96.8873 43.7366 96.8608C43.7645 96.8344 43.8017 96.8193 43.8407 96.8186C43.8602 96.8186 43.8795 96.8224 43.8975 96.8297C43.9155 96.837 43.9318 96.8477 43.9455 96.8612C43.9592 96.8747 43.9699 96.8907 43.9771 96.9083C43.9843 96.9259 43.9878 96.9447 43.9874 96.9636L43.9694 98.7522L46.3173 98.6884C46.3566 98.6891 46.3942 98.7041 46.4225 98.7304C46.4508 98.7567 46.4678 98.7925 46.4701 98.8304C46.4709 98.8496 46.4677 98.8687 46.4607 98.8866C46.4536 98.9045 46.443 98.9208 46.4293 98.9346C46.4155 98.9485 46.3991 98.9594 46.3809 98.9669C46.3627 98.9744 46.3431 98.9783 46.3233 98.9783L43.67 99.0507Z" fill="#43744B"/>
<path d="M53.091 104.715H17.9985C17.9985 104.715 26.8719 101.912 27.0966 101.118C27.3212 100.323 27.3092 99.7724 28.3933 99.0883C29.4774 98.4042 30.9568 97.9722 31.3701 97.2156C31.7833 96.459 33.0561 95.2386 33.4963 94.8821C33.9366 94.5255 39.2013 97.0881 39.2642 97.1461C39.3271 97.204 40.7885 99.9841 41.2887 100.607C41.7888 101.231 45.2327 100.471 46.0563 101.126C46.8799 101.781 49.65 103.483 49.65 103.483C49.65 103.483 50.9976 103.292 53.091 104.715Z" fill="#263238"/>
<path opacity="0.2" d="M53.091 104.715H17.9985C17.9985 104.715 26.8719 101.912 27.0966 101.118C27.3212 100.323 27.3092 99.7724 28.3933 99.0883C29.4774 98.4042 30.9568 97.9722 31.3701 97.2156C31.7833 96.459 33.0561 95.2386 33.4963 94.8821C33.9366 94.5255 39.2013 97.0881 39.2642 97.1461C39.3271 97.204 40.7885 99.9841 41.2887 100.607C41.7888 101.231 45.2327 100.471 46.0563 101.126C46.8799 101.781 49.65 103.483 49.65 103.483C49.65 103.483 50.9976 103.292 53.091 104.715Z" fill="white"/>
<path d="M61.9918 98.9148C61.9918 98.9148 63.0939 98.8569 63.1897 95.9406C63.2856 93.0244 61.3569 92.2446 59.8626 92.6011C59.8626 92.6011 60.0812 90.5255 59.1139 90.6009C58.1466 90.6763 58.2155 92.0503 58.2155 92.0503C58.2155 92.0503 57.883 89.1051 56.5623 89.1022C55.2417 89.0993 56.5623 92.5808 56.5623 92.5808C56.5623 92.5808 54.7356 91.7315 54.0647 92.5808C53.3939 93.4302 54.9033 94.4274 54.9033 94.4274C54.9033 94.4274 52.5314 95.1753 53.5227 97.5553C53.5227 97.5553 51.8726 97.8046 51.4084 98.8685C51.4084 98.8685 51.5402 96.7204 50.9472 96.8653C50.3542 97.0103 50.483 98.8945 50.483 98.8945C50.483 98.8945 49.4947 96.8219 48.6353 97.5553C47.7758 98.2887 49.0306 100.04 49.0306 100.04C49.0306 100.04 47.3805 99.2627 47.1139 100.292C46.8474 101.321 48.0393 101.704 48.0393 101.704C48.0393 101.704 46.3203 101.321 46.3203 103.228C46.3203 103.228 43.0261 102.924 42.2265 104.637H61.914L61.9918 98.9148Z" fill="#263238"/>
<path opacity="0.3" d="M61.9918 98.9148C61.9918 98.9148 63.0939 98.8569 63.1897 95.9406C63.2856 93.0244 61.3569 92.2446 59.8626 92.6011C59.8626 92.6011 60.0812 90.5255 59.1139 90.6009C58.1466 90.6763 58.2155 92.0503 58.2155 92.0503C58.2155 92.0503 57.883 89.1051 56.5623 89.1022C55.2417 89.0993 56.5623 92.5808 56.5623 92.5808C56.5623 92.5808 54.7356 91.7315 54.0647 92.5808C53.3939 93.4302 54.9033 94.4274 54.9033 94.4274C54.9033 94.4274 52.5314 95.1753 53.5227 97.5553C53.5227 97.5553 51.8726 97.8046 51.4084 98.8685C51.4084 98.8685 51.5402 96.7204 50.9472 96.8653C50.3542 97.0103 50.483 98.8945 50.483 98.8945C50.483 98.8945 49.4947 96.8219 48.6353 97.5553C47.7758 98.2887 49.0306 100.04 49.0306 100.04C49.0306 100.04 47.3805 99.2627 47.1139 100.292C46.8474 101.321 48.0393 101.704 48.0393 101.704C48.0393 101.704 46.3203 101.321 46.3203 103.228C46.3203 103.228 43.0261 102.924 42.2265 104.637H61.914L61.9918 98.9148Z" fill="white"/>
<path d="M56.1906 104.657H85.1588L84.7395 103.089L82.2359 102.213L84.7395 98.8592L83.0505 95.1632L78.2529 95.3603L79.1633 89.5278L78.0492 86.9594L74.1651 86.4637L75.0844 82.6083L73.5901 78.8542H71.2901L64.3423 90.5743L63.8601 89.1336L62.0214 87.5508L60.0718 89.5278L56.1906 104.657Z" fill="#43744B"/>
<path opacity="0.2" d="M56.1906 104.657H85.1588L84.7395 103.089L82.2359 102.213L84.7395 98.8593L82.1311 99.3028L77.639 101.952L78.7979 97.7809L78.2529 95.3604L76.9592 93.8936L72.6677 98.0592L75.1863 96.7373L75.8002 97.7143L74.4376 102.419L69.9425 103.066L66.8788 101.787L66.9477 97.0939L69.1938 95.8677L71.2901 98.0592L73.5901 87.8263L70.6732 93.2326L68.9212 91.7542L65.7887 92.9688L64.3423 90.5744L63.8601 89.1337L64.1087 96.6736L63.2702 101.036L62.0214 99.7029L60.3413 99.3028L56.1906 104.657Z" fill="black"/>
<path d="M55.1032 104.59C55.1032 104.59 53.6477 101.161 53.8843 100.451C54.1209 99.7407 55.217 102.257 55.217 102.257C55.217 102.257 54.618 96.378 55.5734 95.9867C56.5287 95.5953 56.2621 101.025 56.2621 101.025C56.2621 101.025 57.7865 92.9081 59.2389 93.0559C60.6914 93.2038 57.466 101.123 57.466 101.123C57.466 101.123 59.4935 97.4535 60.4608 97.9173C61.4281 98.3811 58.2477 102.08 58.2477 102.08C58.2477 102.08 59.8738 101.025 60.1014 101.599C60.329 102.173 57.0018 104.248 55.1032 104.59Z" fill="#263238"/>
<path opacity="0.2" d="M55.1032 104.59C55.1032 104.59 53.6477 101.161 53.8843 100.451C54.1209 99.7407 55.217 102.257 55.217 102.257C55.217 102.257 54.618 96.378 55.5734 95.9867C56.5287 95.5953 56.2621 101.025 56.2621 101.025C56.2621 101.025 57.7865 92.9081 59.2389 93.0559C60.6914 93.2038 57.466 101.123 57.466 101.123C57.466 101.123 59.4935 97.4535 60.4608 97.9173C61.4281 98.3811 58.2477 102.08 58.2477 102.08C58.2477 102.08 59.8738 101.025 60.1014 101.599C60.329 102.173 57.0018 104.248 55.1032 104.59Z" fill="white"/>
<path d="M55.1035 104.591C55.1035 104.591 51.6236 104.912 51.1265 104.535C50.6294 104.159 52.9443 104.048 52.9443 104.048C52.9443 104.048 48.0748 102.84 48.0329 102.019C47.991 101.199 52.2555 102.927 52.2555 102.927C52.2555 102.927 46.1762 99.4798 46.7182 98.4392C47.2603 97.3985 52.6598 102.04 52.6598 102.04C52.6598 102.04 50.2999 99.4885 50.9378 98.903C51.5757 98.3174 53.6331 101.735 53.6331 101.735C53.6331 101.735 53.2468 100.219 53.7708 100.21C54.2949 100.202 55.3551 103.06 55.1035 104.591Z" fill="#263238"/>
<path opacity="0.2" d="M55.1035 104.591C55.1035 104.591 51.6236 104.912 51.1265 104.535C50.6294 104.159 52.9443 104.048 52.9443 104.048C52.9443 104.048 48.0748 102.84 48.0329 102.019C47.991 101.199 52.2555 102.927 52.2555 102.927C52.2555 102.927 46.1762 99.4798 46.7182 98.4392C47.2603 97.3985 52.6598 102.04 52.6598 102.04C52.6598 102.04 50.2999 99.4885 50.9378 98.903C51.5757 98.3174 53.6331 101.735 53.6331 101.735C53.6331 101.735 53.2468 100.219 53.7708 100.21C54.2949 100.202 55.3551 103.06 55.1035 104.591Z" fill="white"/>
<path d="M55.1034 104.591C55.1034 104.591 50.3866 102.182 50.1321 101.402C49.8775 100.622 52.5279 102.214 52.5279 102.214C52.5279 102.214 48.1046 97.2653 48.7156 96.3174C49.3265 95.3695 52.6596 100.454 52.6596 100.454C52.6596 100.454 48.6856 92.1546 50.1051 91.4009C51.5246 90.6472 53.8156 99.8076 53.8156 99.8076C53.8156 99.8076 53.2316 95.2332 54.4146 95.0651C55.5975 94.8969 55.1573 100.199 55.1573 100.199C55.1573 100.199 55.9329 98.2393 56.5199 98.6191C57.1068 98.9988 56.6007 103.098 55.1034 104.591Z" fill="#263238"/>
<path opacity="0.4" d="M55.1034 104.591C55.1034 104.591 50.3866 102.182 50.1321 101.402C49.8775 100.622 52.5279 102.214 52.5279 102.214C52.5279 102.214 48.1046 97.2653 48.7156 96.3174C49.3265 95.3695 52.6596 100.454 52.6596 100.454C52.6596 100.454 48.6856 92.1546 50.1051 91.4009C51.5246 90.6472 53.8156 99.8076 53.8156 99.8076C53.8156 99.8076 53.2316 95.2332 54.4146 95.0651C55.5975 94.8969 55.1573 100.199 55.1573 100.199C55.1573 100.199 55.9329 98.2393 56.5199 98.6191C57.1068 98.9988 56.6007 103.098 55.1034 104.591Z" fill="white"/>
</svg>
