<svg width="16" height="16" viewBox="0 0 16 16" fill="none" xmlns="http://www.w3.org/2000/svg">
<path d="M6.99327 0.353908C7.54505 -0.117969 8.4487 -0.117969 9.00848 0.353908L10.272 1.44162C10.5119 1.64957 10.9597 1.81753 11.2796 1.81753H12.6391C13.4867 1.81753 14.1825 2.51334 14.1825 3.36112V4.72077C14.1825 5.03269 14.3504 5.48857 14.5583 5.72851L15.6459 6.99218C16.1177 7.54403 16.1177 8.4478 15.6459 9.00765L14.5583 10.2713C14.3504 10.5113 14.1825 10.9591 14.1825 11.2791V12.6387C14.1825 13.4865 13.4867 14.1823 12.6391 14.1823H11.2796C10.9677 14.1823 10.5119 14.3503 10.272 14.5582L9.00848 15.6459C8.4567 16.1178 7.55305 16.1178 6.99327 15.6459L5.72976 14.5582C5.48985 14.3503 5.04203 14.1823 4.72215 14.1823H3.3387C2.49103 14.1823 1.7953 13.4865 1.7953 12.6387V11.2711C1.7953 10.9591 1.62736 10.5113 1.42744 10.2713L0.347864 8.99965C-0.115955 8.4478 -0.115955 7.55203 0.347864 7.00017L1.42744 5.72851C1.62736 5.48857 1.7953 5.04068 1.7953 4.72877V3.35312C1.7953 2.50535 2.49103 1.80953 3.3387 1.80953H4.72215C5.03403 1.80953 5.48985 1.64157 5.72976 1.43363L6.99327 0.353908Z" fill="#4AB817"/>
<path d="M7.44494 10.2182C7.3116 10.2182 7.18494 10.1649 7.09161 10.0716L5.4783 8.45824C5.28497 8.26491 5.28497 7.94492 5.4783 7.75158C5.67163 7.55825 5.99163 7.55825 6.18496 7.75158L7.44494 9.01157L10.3116 6.14494C10.5049 5.9516 10.8249 5.9516 11.0182 6.14494C11.2115 6.33827 11.2115 6.65826 11.0182 6.85159L7.79826 10.0716C7.70493 10.1649 7.57827 10.2182 7.44494 10.2182Z" fill="#008128"/>
</svg>
