<svg width="91" height="80" viewBox="0 0 91 80" fill="none" xmlns="http://www.w3.org/2000/svg">
<path d="M90.6668 65.8566H0V65.9069H90.6668V65.8566Z" fill="#EBEBEB"/>
<path d="M31.4106 67.1393H27.2073V67.1896H31.4106V67.1393Z" fill="#EBEBEB"/>
<path d="M83.1885 68.219H72.9124V68.2693H83.1885V68.219Z" fill="#EBEBEB"/>
<path d="M18.0233 68.219H7.74707V68.2693H18.0233V68.219Z" fill="#EBEBEB"/>
<path d="M42.9765 56.8859H7.9628C7.68851 56.8854 7.42561 56.7642 7.23182 56.5488C7.03804 56.3335 6.9292 56.0416 6.9292 55.7374V1.13852C6.93159 0.835995 7.04148 0.546728 7.23501 0.333555C7.42854 0.120381 7.69007 0.000518247 7.9628 0H42.9765C43.2511 0 43.5145 0.121011 43.7087 0.336412C43.9029 0.551812 44.012 0.843958 44.012 1.14858V55.7374C44.012 56.042 43.9029 56.3341 43.7087 56.5495C43.5145 56.7649 43.2511 56.8859 42.9765 56.8859ZM7.9628 0.0402307C7.70053 0.0407635 7.44916 0.156711 7.26388 0.362623C7.0786 0.568535 6.97453 0.847586 6.97453 1.13852V55.7374C6.97453 56.0283 7.0786 56.3073 7.26388 56.5133C7.44916 56.7192 7.70053 56.8351 7.9628 56.8356H42.9765C43.2388 56.8346 43.4901 56.7185 43.6756 56.5128C43.861 56.3071 43.9657 56.0283 43.9666 55.7374V1.13852C43.9657 0.847564 43.861 0.568825 43.6756 0.363084C43.4901 0.157344 43.2388 0.0412906 42.9765 0.0402307H7.9628Z" fill="#EBEBEB"/>
<path d="M82.2005 56.8859H47.185C46.9106 56.8849 46.6478 56.7635 46.4539 56.5484C46.2599 56.3332 46.1505 56.0417 46.1495 55.7374V1.13852C46.1524 0.835812 46.2627 0.546547 46.4565 0.333429C46.6503 0.120311 46.912 0.000512595 47.185 0H82.2005C82.4729 0.0010469 82.734 0.121144 82.9271 0.334261C83.1203 0.547378 83.2299 0.836342 83.2323 1.13852V55.7374C83.2325 55.8879 83.206 56.0371 83.1543 56.1763C83.1026 56.3155 83.0266 56.442 82.9308 56.5487C82.835 56.6553 82.7212 56.74 82.5959 56.7979C82.4706 56.8558 82.3362 56.8857 82.2005 56.8859ZM47.185 0.0402307C46.9227 0.0412906 46.6714 0.157344 46.4859 0.363084C46.3004 0.568825 46.1958 0.847564 46.1949 1.13852V55.7374C46.1958 56.0283 46.3004 56.3071 46.4859 56.5128C46.6714 56.7185 46.9227 56.8346 47.185 56.8356H82.2005C82.4628 56.8346 82.7141 56.7185 82.8995 56.5128C83.085 56.3071 83.1896 56.0283 83.1906 55.7374V1.13852C83.1896 0.847564 83.085 0.568825 82.8995 0.363084C82.7141 0.157344 82.4628 0.0412906 82.2005 0.0402307H47.185Z" fill="#EBEBEB"/>
<path d="M38.8325 37.5419H13.3062V65.8581H38.8325V37.5419Z" fill="#E0E0E0"/>
<path d="M34.3064 37.5419H10.8635V65.8581H34.3064V37.5419Z" fill="#EBEBEB"/>
<path d="M33.3319 39.0726H11.8076V46.8049H33.3319V39.0726Z" fill="#F5F5F5"/>
<path d="M33.3319 48.0234H11.8076V55.7557H33.3319V48.0234Z" fill="#F5F5F5"/>
<path d="M33.3319 56.5933H11.8076V64.3256H33.3319V56.5933Z" fill="#F5F5F5"/>
<path d="M22.7976 42.5123C22.7976 42.6794 22.7529 42.8428 22.6693 42.9817C22.5856 43.1206 22.4666 43.2289 22.3275 43.2929C22.1883 43.3568 22.0352 43.3735 21.8874 43.3409C21.7397 43.3083 21.604 43.2279 21.4975 43.1097C21.391 42.9916 21.3184 42.841 21.289 42.6771C21.2597 42.5133 21.2747 42.3434 21.3324 42.189C21.39 42.0346 21.4876 41.9027 21.6129 41.8099C21.7381 41.717 21.8854 41.6675 22.036 41.6675C22.238 41.6675 22.4317 41.7565 22.5745 41.9149C22.7174 42.0734 22.7976 42.2883 22.7976 42.5123Z" fill="#FAFAFA"/>
<path d="M22.5856 59.6766C22.5856 59.7959 22.5537 59.9126 22.4939 60.0118C22.4341 60.1111 22.3491 60.1884 22.2497 60.2341C22.1503 60.2798 22.041 60.2917 21.9354 60.2684C21.8299 60.2452 21.733 60.1877 21.6569 60.1033C21.5808 60.0189 21.529 59.9114 21.508 59.7943C21.487 59.6772 21.4978 59.5559 21.539 59.4456C21.5801 59.3354 21.6499 59.2411 21.7393 59.1748C21.8288 59.1085 21.934 59.0731 22.0416 59.0731C22.1858 59.0731 22.3242 59.1367 22.4262 59.2499C22.5282 59.363 22.5856 59.5165 22.5856 59.6766Z" fill="#FAFAFA"/>
<path d="M22.5856 51.7723C22.5856 51.8916 22.5537 52.0083 22.4939 52.1075C22.4341 52.2068 22.3491 52.2841 22.2497 52.3298C22.1503 52.3755 22.041 52.3874 21.9354 52.3641C21.8299 52.3409 21.733 52.2834 21.6569 52.199C21.5808 52.1146 21.529 52.0071 21.508 51.89C21.487 51.7729 21.4978 51.6516 21.539 51.5413C21.5801 51.4311 21.6499 51.3368 21.7393 51.2705C21.8288 51.2042 21.934 51.1688 22.0416 51.1688C22.1858 51.1688 22.3242 51.2324 22.4262 51.3456C22.5282 51.4587 22.5856 51.6122 22.5856 51.7723Z" fill="#FAFAFA"/>
<path d="M42.0255 2.75317H12.3484V24.4515H42.0255V2.75317Z" fill="#E0E0E0"/>
<path d="M41.4544 2.75317H11.7773V24.4515H41.4544V2.75317Z" fill="#F0F0F0"/>
<path d="M40.3611 3.78693H12.6279V23.5884H40.3611V3.78693Z" fill="#FAFAFA"/>
<path d="M39.4275 4.07025L31.5377 23.5901H28.2954L35.8842 4.07025H39.4275Z" fill="white"/>
<path d="M32.9609 4.07025L24.9477 23.5901H21.147L29.5246 4.07025H32.9609Z" fill="white"/>
<path d="M41.9875 2.75317H11.7773V4.06871H41.9875V2.75317Z" fill="#E0E0E0"/>
<path d="M41.9875 4.40869H11.7773V5.72423H41.9875V4.40869Z" fill="#E0E0E0"/>
<path d="M41.9875 6.06445H11.7773V7.37999H41.9875V6.06445Z" fill="#E0E0E0"/>
<path d="M41.9875 7.71851H11.7773V9.03404H41.9875V7.71851Z" fill="#E0E0E0"/>
<path d="M41.9875 9.37286H11.7773V10.6884H41.9875V9.37286Z" fill="#E0E0E0"/>
<path d="M42.8875 24.4512H11.1287V26.0886H42.8875V24.4512Z" fill="#E0E0E0"/>
<path d="M79.6349 48.9959V65.8565H74.2637L73.9772 64.1689H53.1075V48.9959H79.6349Z" fill="#E0E0E0"/>
<path d="M75.9581 48.996V65.8566H74.2662L73.9797 64.169H52.6948L52.3575 65.8566H49.4308V48.996H75.9581Z" fill="#EBEBEB"/>
<path d="M74.4605 50.1798H50.7765V55.9891H74.4605V50.1798Z" stroke="#FAFAFA" stroke-miterlimit="10"/>
<path d="M74.4605 57.1454H50.7765V63.013H74.4605V57.1454Z" stroke="#FAFAFA" stroke-miterlimit="10"/>
<path d="M79.1588 1.89746H68.509V17.875H79.1588V1.89746Z" fill="#E0E0E0"/>
<path d="M78.6284 1.88538H67.9786V17.8629H78.6284V1.88538Z" fill="#E6E6E6"/>
<path d="M78.0726 2.48706H68.509V17.2899H78.0726V2.48706Z" fill="#FAFAFA"/>
<path d="M77.0968 14.0764H69.7872V14.4223H77.0968V14.0764Z" fill="#E0E0E0"/>
<path d="M77.0968 14.959H69.7872V15.305H77.0968V14.959Z" fill="#E0E0E0"/>
<path d="M77.0968 15.8436H69.7872V16.1896H77.0968V15.8436Z" fill="#E0E0E0"/>
<path d="M76.0535 7.96295C76.0535 8.53527 75.9006 9.09475 75.614 9.57067C75.3274 10.0466 74.9201 10.4176 74.4435 10.6368C73.9669 10.856 73.4425 10.9136 72.9364 10.8022C72.4303 10.6908 71.9653 10.4156 71.6003 10.0111C71.2352 9.60673 70.9864 9.09134 70.8853 8.53011C70.7842 7.96888 70.8354 7.38701 71.0323 6.85802C71.2292 6.32904 71.5631 5.87669 71.9918 5.55814C72.4204 5.2396 72.9246 5.06916 73.4405 5.06836C73.7835 5.06783 74.1232 5.14231 74.4402 5.28754C74.7572 5.43277 75.0453 5.6459 75.2879 5.91474C75.5306 6.18358 75.7232 6.50286 75.8545 6.85431C75.9859 7.20576 76.0535 7.58249 76.0535 7.96295Z" stroke="#E0E0E0" stroke-miterlimit="10"/>
<path d="M74.9913 22.0013H65.8975V32.0891H74.9913V22.0013Z" fill="#E0E0E0"/>
<path d="M74.2133 22.0015H65.1194V32.0893H74.2133V22.0015Z" fill="#EBEBEB"/>
<path d="M73.587 22.6991H65.7498V31.3929H73.587V22.6991Z" fill="#FAFAFA"/>
<path d="M71.7465 24.7367H67.5903V29.3471H71.7465V24.7367Z" fill="#E0E0E0"/>
<path d="M44.9844 80C61.7251 80 75.2961 78.8616 75.2961 77.4574C75.2961 76.0532 61.7251 74.9149 44.9844 74.9149C28.2436 74.9149 14.6726 76.0532 14.6726 77.4574C14.6726 78.8616 28.2436 80 44.9844 80Z" fill="#F5F5F5"/>
<path d="M29.1049 64.0097H17.9492V77.9757H29.1049V64.0097Z" fill="#43744B"/>
<path d="M34.684 64.0098H23.5283V77.9758H34.684V64.0098Z" fill="#43744B"/>
<path opacity="0.7" d="M29.1049 64.0097H17.9492V77.9757H29.1049V64.0097Z" fill="white"/>
<path opacity="0.2" d="M34.6794 64.0098H29.0907V77.9758H34.6794V64.0098Z" fill="white"/>
<path d="M31.767 73.7802C32.551 73.7598 33.1608 72.5261 33.1292 71.0245C33.0975 69.5229 32.4363 68.3222 31.6524 68.3425C30.8684 68.3628 30.2586 69.5966 30.2902 71.0982C30.3219 72.5997 30.9831 73.8005 31.767 73.7802Z" fill="white"/>
<path d="M32.5702 70.604L31.9645 70.6201L31.9409 69.4816L31.4731 69.4936L31.4967 70.6322L30.8312 70.6503L30.8493 71.5373L31.5148 71.5192L31.5402 72.6477L32.008 72.6356L31.9845 71.5072L32.5901 71.4911L32.5702 70.604Z" fill="#43744B"/>
<path d="M24.8855 64.0098H22.6261V66.5161H24.8855V64.0098Z" fill="#F5F5F5"/>
<path d="M24.8855 69.0145H22.6261V77.9738H24.8855V69.0145Z" fill="#F5F5F5"/>
<path d="M32.6802 52.5527H23.5283V64.0123H32.6802V52.5527Z" fill="#43744B"/>
<path d="M37.2575 52.5526H28.1056V64.0123H37.2575V52.5526Z" fill="#43744B"/>
<path opacity="0.7" d="M31.2531 52.5527H23.5283V64.0123H31.2531V52.5527Z" fill="white"/>
<path opacity="0.2" d="M37.2563 52.5527H31.2523V64.0123H37.2563V52.5527Z" fill="white"/>
<path d="M35.4147 58.3132C35.4419 59.5442 34.9414 60.558 34.2977 60.5741C33.6539 60.5902 33.1118 59.6046 33.0864 58.3735C33.061 57.1425 33.5615 56.1226 34.2034 56.1226C34.8453 56.1226 35.3893 57.0801 35.4147 58.3132Z" fill="white"/>
<path d="M34.9595 57.9646L34.4627 57.9767L34.4427 57.0413L34.0583 57.0514L34.0783 57.9867L33.5306 58.0008L33.547 58.729L34.0928 58.7149L34.1127 59.6422L34.4971 59.6302L34.4772 58.7048L34.9741 58.6928L34.9595 57.9646Z" fill="#43744B"/>
<path d="M27.3643 52.5529H25.5093V64.0126H27.3643V52.5529Z" fill="#F5F5F5"/>
<path d="M43.2272 37.0311C43.2272 37.0311 40.5562 51.0635 40.3259 55.7182C40.0956 60.3728 41.1909 72.0698 41.1909 72.0698L44.6036 72.6733L45.2545 57.7458L46.7505 46.3666C46.7505 46.3666 48.3173 55.6196 48.9918 57.786C49.6664 59.9524 52.8851 66.2344 55.5434 71.2532L57.8282 69.3965C57.8282 69.3965 53.5578 55.8509 52.8288 53.2058C52.0999 50.5606 52.5931 39.3464 50.3446 36.1621L43.2272 37.0311Z" fill="#43744B"/>
<path opacity="0.4" d="M43.2272 37.0311C43.2272 37.0311 40.5562 51.0635 40.3259 55.7182C40.0956 60.3728 41.1909 72.0698 41.1909 72.0698L44.6036 72.6733L45.2545 57.7458L46.7505 46.3666C46.7505 46.3666 48.3173 55.6196 48.9918 57.786C49.6664 59.9524 52.8851 66.2344 55.5434 71.2532L57.8282 69.3965C57.8282 69.3965 53.5578 55.8509 52.8288 53.2058C52.0999 50.5606 52.5931 39.3464 50.3446 36.1621L43.2272 37.0311Z" fill="white"/>
<path d="M43.8632 75.9542C43.8469 76.0668 42.0771 75.6404 42.0771 75.6404L41.9574 73.7013L41.9103 72.9409L43.7236 72.7639C43.7236 72.7639 43.7544 73.3432 43.7871 74.007C43.8233 74.876 43.8832 75.8878 43.8632 75.9542Z" fill="#B55B52"/>
<path opacity="0.2" d="M43.7798 74.007L41.9574 73.7013L41.9103 72.9409L43.7236 72.7639C43.7236 72.7639 43.7472 73.3432 43.7798 74.007Z" fill="black"/>
<path d="M40.7795 76.323L40.707 76.2124C40.6852 76.1782 40.163 75.3675 40.2391 74.9692C40.2462 74.9305 40.261 74.894 40.2823 74.8624C40.3036 74.8307 40.331 74.8047 40.3625 74.7862C40.3882 74.769 40.4176 74.7599 40.4477 74.7599C40.4777 74.7599 40.5072 74.769 40.5329 74.7862C40.7922 74.9612 40.7831 76.0635 40.7813 76.1943L40.7795 76.323ZM40.4531 74.8506C40.4347 74.8512 40.4167 74.8567 40.4005 74.8667C40.3799 74.8795 40.3619 74.8971 40.3478 74.9182C40.3337 74.9394 40.3239 74.9636 40.3189 74.9894C40.2627 75.2629 40.5565 75.794 40.6997 76.0394C40.6997 75.6511 40.6526 74.9713 40.4912 74.8626C40.4798 74.8548 40.4666 74.8506 40.4531 74.8506Z" fill="#43744B"/>
<path d="M40.595 76.3348L40.4898 76.2865C40.3774 76.2362 39.391 75.7796 39.3293 75.3873C39.3237 75.3474 39.3275 75.3065 39.3406 75.2687C39.3536 75.2309 39.3754 75.1976 39.4036 75.1721C39.4334 75.1414 39.4693 75.119 39.5084 75.1067C39.5475 75.0945 39.5887 75.0928 39.6285 75.1017C40.0274 75.1781 40.5207 76.1799 40.5352 76.2221L40.595 76.3348ZM39.5777 75.1862C39.5335 75.1862 39.4911 75.2058 39.4599 75.2405C39.4414 75.2554 39.4271 75.2757 39.4184 75.2992C39.4098 75.3226 39.4072 75.3483 39.4109 75.3732C39.4508 75.6307 40.0673 75.9767 40.4082 76.1497C40.2668 75.8822 39.9005 75.2465 39.614 75.1902L39.5777 75.1862Z" fill="#43744B"/>
<path d="M43.8071 75.8457L41.9757 75.5259C41.8619 75.506 41.7455 75.534 41.6493 75.6043C41.2246 75.9224 40.7467 76.1426 40.2439 76.2521C39.4606 76.3748 38.7642 76.2038 38.699 76.4532C38.6619 76.6153 38.675 76.7865 38.7362 76.9393C38.7974 77.0922 38.903 77.2178 39.0362 77.296C39.2937 77.4449 42.4489 77.988 43.7799 78.2133C43.8496 78.2249 43.9208 78.2188 43.988 78.1954C44.0552 78.172 44.1168 78.132 44.168 78.0783C44.2192 78.0246 44.2587 77.9587 44.2835 77.8855C44.3083 77.8124 44.3178 77.7339 44.3112 77.6561L44.197 76.3084C44.1872 76.1943 44.1436 76.0871 44.0731 76.0034C44.0025 75.9197 43.909 75.8643 43.8071 75.8457Z" fill="#222221"/>
<path d="M40.7394 71.6073L41.0259 73.2809L44.7614 73.6751L44.872 71.9814L40.7394 71.6073Z" fill="#43744B"/>
<path d="M58.977 71.497C59.0278 71.5976 57.403 72.4846 57.403 72.4846L56.3259 71.1711L55.762 70.4812L56.335 69.8777L57.0784 69.0992C57.0784 69.0992 57.1546 69.1958 57.2797 69.3487L57.9398 70.1734C58.4294 70.7889 58.9516 71.4467 58.977 71.497Z" fill="#B55B52"/>
<path opacity="0.2" d="M57.9398 70.1755L56.3259 71.1712L55.762 70.4812L56.335 69.8778L57.2797 69.3488L57.9398 70.1755Z" fill="black"/>
<path d="M56.8758 73.2875L56.7815 73.2392C56.747 73.2232 55.951 72.8188 55.8748 72.4628C55.8679 72.4272 55.8688 72.3903 55.8777 72.3552C55.8865 72.3202 55.903 72.288 55.9256 72.2616C55.9499 72.2271 55.982 72.2004 56.0186 72.1841C56.0552 72.1679 56.0951 72.1627 56.1341 72.1691C56.4569 72.2275 56.7924 73.0864 56.8304 73.1849L56.8758 73.2875ZM56.1051 72.2536C56.0832 72.2542 56.0617 72.2603 56.0422 72.2715C56.0228 72.2826 56.0058 72.2985 55.9927 72.318C55.9782 72.3344 55.9678 72.3547 55.9624 72.3769C55.957 72.3991 55.9568 72.4224 55.9619 72.4447C56.0054 72.67 56.4551 72.9596 56.7144 73.1045C56.5893 72.8068 56.3318 72.2999 56.1269 72.2556L56.1051 72.2536Z" fill="#43744B"/>
<path d="M55.6806 73.7099C55.5174 73.7288 55.3534 73.6824 55.2182 73.5792C55.1839 73.5409 55.1601 73.4926 55.1495 73.4399C55.1389 73.3872 55.142 73.3323 55.1584 73.2815C55.1711 73.2192 55.1969 73.1612 55.2338 73.1122C55.2707 73.0633 55.3176 73.0248 55.3705 72.9998C55.8438 72.7625 56.901 73.3599 56.9463 73.3861L57.037 73.4384L56.9391 73.4705C56.5292 73.6032 56.107 73.6835 55.6806 73.7099ZM55.6462 73.034C55.563 73.031 55.4802 73.0475 55.4032 73.0823C55.3618 73.102 55.3252 73.1323 55.2965 73.1708C55.2678 73.2093 55.2478 73.2548 55.2382 73.3036C55.2274 73.3376 55.2251 73.3743 55.2315 73.4097C55.2378 73.4451 55.2527 73.4779 55.2744 73.5047C55.492 73.7381 56.3788 73.5349 56.8121 73.4062C56.5909 73.2996 56.0306 73.034 55.6462 73.034Z" fill="#43744B"/>
<path d="M58.8717 71.4253L57.2578 72.4311C57.1569 72.4929 57.0811 72.595 57.0457 72.7167C56.8909 73.2584 56.6393 73.7599 56.3058 74.1911C55.7618 74.8288 55.1199 75.1748 55.2087 75.4142C55.2698 75.5668 55.3756 75.6922 55.5088 75.7699C55.6421 75.8477 55.7951 75.8733 55.9431 75.8426C56.2278 75.7823 59.0059 74.0322 60.1755 73.296C60.2368 73.2571 60.2893 73.2031 60.329 73.1383C60.3687 73.0734 60.3945 72.9993 60.4044 72.9217C60.4144 72.8441 60.4083 72.765 60.3865 72.6905C60.3647 72.6159 60.3279 72.5478 60.2788 72.4914L59.4356 71.5118C59.3633 71.4306 59.2688 71.3781 59.1669 71.3624C59.0649 71.3468 58.9612 71.3689 58.8717 71.4253Z" fill="#222221"/>
<path d="M54.1995 70.3903L55.3618 71.5087L58.5116 69.2438L57.6502 67.8397L54.1995 70.3903Z" fill="#43744B"/>
<path d="M47.017 19.5122C47.1167 19.4499 49.193 19.3453 51.1876 19.8099C53.1823 20.2746 49.6282 22.9962 49.6282 22.9962L48.5148 27.9405L46.4748 27.9606L46.2281 20.9404L47.017 19.5122Z" fill="#EBEBEB"/>
<path d="M51.1855 19.8153L46.8589 27.3886L47.3376 19.4471C47.3376 19.4471 45.7655 19.4914 45.2777 19.6483C44.7899 19.8052 44.371 21.0684 44.0211 22.7983C43.6711 24.5283 43.1398 28.676 43.1398 28.676L40.6537 51.8086C40.6537 51.8086 49.1528 53.8201 53.1566 52.2571C53.1566 52.2571 51.6516 31.4801 51.9 30.1967C52.1484 28.9134 52.9517 24.2185 52.9517 24.2185C52.9517 24.2185 54.0651 21.8751 53.581 21.1851C53.0968 20.4952 51.1855 19.8153 51.1855 19.8153Z" fill="#43744B"/>
<path d="M46.0824 34.3857L46.6989 52.7429" stroke="white" stroke-width="0.75" stroke-linecap="round" stroke-linejoin="round"/>
<path d="M45.5601 20.0421L30.5605 25.7129L34.3383 38.0088L49.3379 32.338L45.5601 20.0421Z" fill="#43744B"/>
<path d="M45.5582 20.043L34.3355 38.01L32.2284 36.9499L28.4512 24.6555L43.4511 18.985L45.5582 20.043Z" fill="#43744B"/>
<path opacity="0.7" d="M45.5582 20.043L30.5583 25.7135L34.3355 38.01L32.2284 36.9499L28.4512 24.6555L43.4511 18.985L45.5582 20.043Z" fill="white"/>
<path opacity="0.46" d="M45.5601 20.0421L30.5605 25.7129L34.3383 38.0088L49.3379 32.338L45.5601 20.0421Z" fill="white"/>
<path d="M42.3506 32.663C44.1589 31.0218 44.4255 28.0652 42.9459 26.0592C41.4664 24.0532 38.8011 23.7576 36.9928 25.3988C35.1844 27.0401 34.9179 29.9967 36.3974 32.0027C37.877 34.0086 40.5423 34.3043 42.3506 32.663Z" fill="#FAFAFA"/>
<path d="M42.2105 27.4045L40.486 28.0301L39.9311 26.1514L38.5983 26.6361L39.1532 28.5149L37.2565 29.2028L37.6862 30.6652L39.5848 29.9753L40.1342 31.8379L41.467 31.3532L40.9176 29.4905L42.6421 28.8649L42.2105 27.4045Z" fill="#43744B"/>
<path d="M47.3278 9.68225V6.75548C47.3278 6.75548 50.2164 5.31322 52.9781 8.25809L51.7088 11.0984L47.3278 9.68225Z" fill="#43744B"/>
<path d="M50.1038 7.18541L49.7765 7.11371L49.5787 8.22474L49.9061 8.29644L50.1038 7.18541Z" fill="white"/>
<path d="M49.3777 7.41314L49.3131 7.77625L50.3147 7.99563L50.3793 7.63252L49.3777 7.41314Z" fill="white"/>
<path d="M51.4997 15.0872C50.972 15.93 50.4879 15.8133 50.4879 15.8133C50.3292 16.1334 50.1225 16.4211 49.8768 16.6642C49.7897 19.2933 50.4879 20.0034 50.4879 20.0034C49.7625 21.2445 48.8667 21.2103 47.9601 20.8482C47.0534 20.4861 47.0062 19.6976 47.0062 19.6976C47.8259 19.251 47.8368 18.551 47.7189 18.0723C47.6719 17.887 47.6024 17.7097 47.5122 17.5453C45.9726 17.0766 45.5284 15.4392 45.6335 13.8944C45.6986 12.9574 45.9058 12.0393 46.2465 11.1788L47.1531 9.65607L50.6982 10.4607L50.8886 12.5446L50.1633 14.0895C51.4417 13.0415 52.0328 14.2343 51.4997 15.0872Z" fill="#B55B52"/>
<path d="M47.3263 15.0668C47.2402 15.0673 47.1541 15.0606 47.0688 15.0467C47.0606 15.0451 47.0528 15.0417 47.0457 15.0368C47.0387 15.0318 47.0326 15.0254 47.0278 15.0178C47.023 15.0103 47.0196 15.0017 47.0178 14.9927C47.0159 14.9837 47.0157 14.9743 47.0172 14.9652C47.0186 14.9561 47.0216 14.9474 47.0261 14.9396C47.0306 14.9318 47.0364 14.925 47.0432 14.9197C47.05 14.9144 47.0577 14.9106 47.0658 14.9086C47.074 14.9065 47.0824 14.9063 47.0906 14.9079C47.0906 14.9079 47.9973 15.0829 48.3871 14.3386C48.3913 14.3306 48.3969 14.3235 48.4035 14.3178C48.4101 14.3122 48.4177 14.308 48.4258 14.3056C48.4339 14.3031 48.4423 14.3025 48.4506 14.3037C48.4589 14.3049 48.4669 14.3079 48.4742 14.3125C48.4814 14.3171 48.4878 14.3233 48.4929 14.3306C48.4981 14.338 48.5018 14.3464 48.504 14.3553C48.5062 14.3643 48.5068 14.3737 48.5057 14.3829C48.5046 14.3921 48.5019 14.401 48.4978 14.409C48.1986 14.9763 47.6455 15.0668 47.3263 15.0668Z" fill="#263238"/>
<path d="M47.0809 14.1461C47.119 14.1461 47.2731 12.8627 47.2731 12.8627L46.4498 13.961C46.5347 14.0444 46.6359 14.1046 46.7455 14.1367C46.8551 14.1689 46.97 14.1721 47.0809 14.1461Z" fill="#A02724"/>
<path d="M48.3543 12.8894C48.3343 13.0483 48.2455 13.167 48.1566 13.1529C48.0678 13.1388 48.0115 12.998 48.0315 12.8391C48.0514 12.6802 48.1403 12.5595 48.2291 12.5736C48.318 12.5876 48.3742 12.7285 48.3543 12.8894Z" fill="#263238"/>
<path d="M46.6032 12.7117C46.5832 12.8706 46.4944 12.9893 46.4055 12.9752C46.3167 12.9612 46.2604 12.8224 46.2804 12.6615C46.3003 12.5005 46.3892 12.3839 46.478 12.3979C46.5669 12.412 46.6322 12.5508 46.6032 12.7117Z" fill="#263238"/>
<path d="M49.0649 12.1702C49.0489 12.17 49.0333 12.1648 49.0198 12.1552C49.0063 12.1456 48.9956 12.132 48.9888 12.1159C48.773 11.607 48.4684 11.6734 48.4557 11.6754C48.4346 11.6789 48.4132 11.6735 48.3955 11.6603C48.3779 11.6471 48.3653 11.627 48.3603 11.6041C48.3553 11.5812 48.3582 11.557 48.3685 11.5363C48.3787 11.5156 48.3956 11.4999 48.4158 11.4924C48.4339 11.4924 48.8655 11.3797 49.1411 12.0355C49.146 12.0468 49.1487 12.0591 49.1493 12.0716C49.1498 12.0842 49.1481 12.0967 49.1442 12.1085C49.1403 12.1203 49.1344 12.1311 49.1267 12.1404C49.119 12.1496 49.1097 12.157 49.0994 12.1622C49.0886 12.1676 49.0768 12.1704 49.0649 12.1702Z" fill="#263238"/>
<path d="M46.0457 11.832C46.035 11.8321 46.0243 11.8299 46.0144 11.8254C46.0044 11.8209 45.9953 11.8143 45.9877 11.8059C45.9797 11.7973 45.9733 11.787 45.969 11.7756C45.9646 11.7642 45.9624 11.7519 45.9624 11.7395C45.9624 11.7271 45.9646 11.7149 45.969 11.7035C45.9733 11.6921 45.9797 11.6818 45.9877 11.6731C46.0095 11.649 46.4954 11.0978 47.1083 11.3694C47.1189 11.3738 47.1285 11.3806 47.1366 11.3892C47.1448 11.3977 47.1513 11.408 47.1558 11.4194C47.1604 11.4308 47.1629 11.4431 47.1631 11.4556C47.1634 11.4681 47.1614 11.4805 47.1573 11.4921C47.1485 11.5154 47.1317 11.5339 47.1107 11.5437C47.0897 11.5535 47.0661 11.5537 47.0449 11.5444C46.5353 11.3191 46.1164 11.7979 46.111 11.8039C46.1028 11.8138 46.0926 11.8215 46.0813 11.8263C46.07 11.8312 46.0578 11.8332 46.0457 11.832Z" fill="#263238"/>
<path opacity="0.2" d="M48.3038 17.4377C48.162 17.6968 47.9629 17.9114 47.7254 18.0613C47.6785 17.876 47.6089 17.6986 47.5187 17.5342C47.7836 17.5626 48.051 17.5297 48.3038 17.4377Z" fill="black"/>
<path d="M50.5277 10.6365C50.5277 10.6365 47.4686 11.5437 46.2501 11.0629C45.0315 10.5822 45.4576 8.92064 45.6227 8.76374C45.8475 8.55052 46.3371 9.43156 46.3371 9.43156C46.3371 9.43156 45.9364 8.48816 46.2501 8.28097C46.5638 8.07378 46.6127 9.48789 47.7551 9.33903C48.8975 9.19018 52.0636 8.23471 52.2504 10.4434C52.3625 11.7666 52.1697 13.0997 51.6901 14.3176C51.6901 14.3176 51.5214 13.1106 50.1741 14.0701C50.1741 14.0701 49.7262 13.7161 50.1741 13.2293C50.9539 12.3865 50.6819 11.2781 50.5277 10.6365Z" fill="#263238"/>
<path d="M50.2029 10.4594C50.2029 10.4594 49.6716 12.3865 50.649 12.2939C51.6263 12.2014 51.0261 10.1899 51.0261 10.1899L50.2029 10.4594Z" fill="#263238"/>
<path d="M47.6347 9.45434C47.6347 9.45434 46.9964 8.93335 47.1596 8.55519C47.3228 8.17702 47.5767 9.09025 48.8479 8.9233C50.119 8.75634 51.6277 8.62961 51.9069 9.56497C52.1862 10.5003 49.3683 9.78825 49.3683 9.78825L47.6311 10.2026L47.6347 9.45434Z" fill="#263238"/>
<path d="M47.4125 32.4772L46.1848 32.093C46.1848 32.093 44.7342 31.9944 44.6127 32.6079C44.4912 33.2215 44.4313 34.2795 45.008 34.364C45.5846 34.4485 47.3798 34.3238 47.3798 34.3238L47.4125 32.4772Z" fill="#B55B52"/>
<path d="M51.5999 23.1332L53.5782 21.174C53.5782 21.174 56.0281 27.2086 56.1659 29.5279C56.3037 31.8472 54.688 32.8891 53.3189 33.2794C51.9499 33.6696 47.4129 34.7096 47.4129 34.7096L47.1681 31.9095C47.1681 31.9095 52.0006 30.9943 53.8611 30.0468C53.8539 30.0529 52.1802 24.6519 51.5999 23.1332Z" fill="#43744B"/>
<path opacity="0.1" d="M47.4152 34.7143L51.9884 33.6301L52.0011 34.3945L47.4152 34.7143Z" fill="black"/>
<path d="M47.9626 20.8376L48.4831 22.3623C49.3098 21.687 50.0707 20.9178 50.7534 20.0671L49.999 18.6732C49.999 18.6732 49.3081 20.1979 47.9626 20.8376Z" fill="#FAFAFA"/>
<path d="M47.5824 19.1697C47.5974 19.7498 47.7274 20.3191 47.9632 20.8372L47.3956 22.2453C47.1083 21.9225 46.8892 21.5329 46.7544 21.1046C46.6195 20.6763 46.5722 20.2202 46.6159 19.7691L47.5824 19.1697Z" fill="#FAFAFA"/>
</svg>
