<svg width="82" height="85" viewBox="0 0 82 85" fill="none" xmlns="http://www.w3.org/2000/svg">
<path d="M6.00043 81.356C5.75199 81.1436 5.19822 80.4684 5.62113 79.6852C5.77854 79.3969 6.11043 79.2547 6.41197 79.1276C6.722 79.0227 7.01425 78.8711 7.27866 78.6782C7.74709 78.2799 7.87795 77.6161 8.18897 77.0832C8.5474 76.4707 9.21496 76.0117 9.92045 76.044C10.7284 76.08 11.4035 76.7419 11.7088 77.4929C12.0142 78.2439 12.0255 79.0821 12.0312 79.8957C12.0312 80.3452 12.0142 80.844 11.6842 81.155C11.3542 81.466 10.9313 81.4338 10.5103 81.4338L6.09336 81.2972" fill="#F5F5F5"/>
<path d="M14.4455 69.2091H2.82764L4.91376 81.6879C4.95717 81.9478 5.07342 82.1899 5.24899 82.3863C5.42457 82.5827 5.65226 82.7253 5.90562 82.7974C5.91863 82.802 5.93194 82.8058 5.94545 82.8088C5.97968 82.8196 6.01451 82.8285 6.04976 82.8353C6.12718 82.8515 6.20586 82.8611 6.28492 82.8638V82.8751L6.34181 82.8657H11.5192C11.8711 82.8647 12.2112 82.7387 12.4787 82.5101C12.7462 82.2815 12.9237 81.9652 12.9795 81.6178L13.9884 73.021L14.0339 72.6797L14.4341 69.2755L14.4455 69.2091ZM12.2588 77.1686H11.0622L11.1816 73.5483H12.5623L12.2588 77.1686ZM12.6836 73.5483H13.8215L13.3967 77.1686H12.3688L12.6836 73.5483ZM9.26998 81.1835L9.19791 78.0372H10.9047L10.8004 81.1835H9.26998ZM7.41522 78.0372H9.08223L9.15619 81.1835H7.66176L7.41522 78.0372ZM7.54418 81.1835H6.14648C6.01372 80.3339 5.84114 79.2301 5.65339 78.0372H7.30143L7.54418 81.1835ZM7.35453 77.1686L7.07386 73.5483H8.98171L9.06516 77.1686H7.35453ZM9.18653 77.1686L9.10309 73.5483H11.0659L10.9465 77.1686H9.18653ZM9.08223 72.6797L9.00447 69.3267H11.2063L11.0944 72.6797H9.08223ZM8.96654 72.6797H6.99989L6.74008 69.3267H8.88499L8.96654 72.6797ZM6.88041 72.6797H4.80946C4.7355 72.2169 4.66722 71.7769 4.60464 71.3825C4.38654 70.0265 4.30499 69.5182 4.26138 69.3267H6.62439L6.88041 72.6797ZM6.94869 73.5483L7.22937 77.1686H5.52253C5.46564 76.8007 5.40685 76.429 5.34806 76.0573C5.21341 75.2039 5.07876 74.3505 4.95359 73.5483H6.94869ZM5.39737 77.1686H4.28034L3.67347 73.5483H4.83032C5.00669 74.6672 5.20393 75.9132 5.40116 77.1686H5.39737ZM5.53391 78.0372C5.7046 79.1258 5.87338 80.1992 6.027 81.1835H4.95359L4.42637 78.0372H5.53391ZM10.9313 81.1835L11.0356 78.0372H12.1735L11.9042 81.1835H10.9313ZM11.2139 72.6797L11.3258 69.3267H12.9264L12.6381 72.6797H11.2139ZM4.15138 69.3267C4.1969 69.5675 4.4093 70.8875 4.69377 72.6797H3.53502L2.96608 69.3267H4.15138ZM12.9245 81.1835H12.0256L12.2949 78.0372H13.2924L12.9245 81.1835ZM13.922 72.6797H12.7519L13.0402 69.3267H14.3146L13.922 72.6797Z" fill="#E0E0E0"/>
<path d="M52.0185 60.472H22.1831V74.2329H52.0185V60.472Z" fill="#F5F5F5"/>
<path d="M51.3093 73.5824H22.8621V61.1946H51.3093V73.5824ZM23.0517 73.3927H51.1196V61.3804H23.0517V73.3927Z" fill="#E0E0E0"/>
<path d="M59.3086 60.472H52.0204V74.2329H59.3086V60.472Z" fill="#E0E0E0"/>
<path d="M22.9587 65.0293H51.2163C51.2263 65.0293 51.236 65.0254 51.2431 65.0182C51.2502 65.0111 51.2542 65.0015 51.2542 64.9914C51.2542 64.9814 51.2502 64.9717 51.2431 64.9646C51.236 64.9575 51.2263 64.9535 51.2163 64.9535H22.9587C22.9486 64.9535 22.939 64.9575 22.9319 64.9646C22.9248 64.9717 22.9208 64.9814 22.9208 64.9914C22.9208 65.0015 22.9248 65.0111 22.9319 65.0182C22.939 65.0254 22.9486 65.0293 22.9587 65.0293Z" fill="#E0E0E0"/>
<path d="M37.1805 64.9913C37.2596 63.7467 37.2627 62.4984 37.19 61.2534C37.19 61.2433 37.186 61.2337 37.1789 61.2266C37.1718 61.2194 37.1621 61.2155 37.1521 61.2155C37.142 61.2155 37.1324 61.2194 37.1253 61.2266C37.1181 61.2337 37.1141 61.2433 37.1141 61.2534C37.0414 62.4984 37.0446 63.7467 37.1236 64.9913C37.1236 64.9989 37.1266 65.0061 37.132 65.0115C37.1373 65.0168 37.1445 65.0198 37.1521 65.0198C37.1596 65.0198 37.1669 65.0168 37.1722 65.0115C37.1775 65.0061 37.1805 64.9989 37.1805 64.9913Z" fill="#E0E0E0"/>
<path d="M44.7873 63.1233C44.7873 63.1983 44.765 63.2717 44.7234 63.334C44.6817 63.3964 44.6224 63.445 44.5531 63.4737C44.4838 63.5024 44.4076 63.51 44.334 63.4953C44.2604 63.4807 44.1928 63.4446 44.1398 63.3915C44.0867 63.3385 44.0506 63.2709 44.036 63.1973C44.0213 63.1237 44.0288 63.0475 44.0576 62.9782C44.0863 62.9089 44.1349 62.8496 44.1973 62.8079C44.2596 62.7663 44.333 62.744 44.408 62.744C44.5086 62.744 44.6051 62.784 44.6762 62.8551C44.7473 62.9262 44.7873 63.0227 44.7873 63.1233Z" fill="#E0E0E0"/>
<path d="M29.9568 63.1233C29.9568 63.1983 29.9346 63.2717 29.8929 63.334C29.8512 63.3964 29.792 63.445 29.7227 63.4737C29.6534 63.5024 29.5771 63.51 29.5035 63.4953C29.43 63.4807 29.3624 63.4446 29.3093 63.3915C29.2563 63.3385 29.2202 63.2709 29.2055 63.1973C29.1909 63.1237 29.1984 63.0475 29.2271 62.9782C29.2558 62.9089 29.3044 62.8496 29.3668 62.8079C29.4292 62.7663 29.5025 62.744 29.5775 62.744C29.6781 62.744 29.7746 62.784 29.8457 62.8551C29.9169 62.9262 29.9568 63.0227 29.9568 63.1233Z" fill="#E0E0E0"/>
<path d="M37.482 67.3885C37.482 67.4635 37.4597 67.5368 37.4181 67.5992C37.3764 67.6616 37.3171 67.7102 37.2478 67.7389C37.1785 67.7676 37.1023 67.7751 37.0287 67.7605C36.9551 67.7458 36.8875 67.7097 36.8345 67.6567C36.7814 67.6036 36.7453 67.536 36.7307 67.4624C36.716 67.3889 36.7236 67.3126 36.7523 67.2433C36.781 67.174 36.8296 67.1148 36.892 67.0731C36.9543 67.0314 37.0277 67.0092 37.1027 67.0092C37.2033 67.0092 37.2998 67.0491 37.3709 67.1202C37.442 67.1914 37.482 67.2879 37.482 67.3885Z" fill="#E0E0E0"/>
<path d="M25.7504 74.231L24.2142 82.8694H25.079L27.9105 74.231H25.7504Z" fill="#E0E0E0"/>
<path d="M49.9096 74.231L51.1935 82.8846H50.3287L47.7495 74.231H49.9096Z" fill="#E0E0E0"/>
<path d="M55.6768 74.231L57.1314 82.8846H56.2685L53.5167 74.231H55.6768Z" fill="#E0E0E0"/>
<path d="M37.4479 71.2838C37.4479 71.3589 37.4257 71.4322 37.384 71.4946C37.3423 71.5569 37.2831 71.6056 37.2138 71.6343C37.1445 71.663 37.0682 71.6705 36.9946 71.6558C36.9211 71.6412 36.8535 71.6051 36.8004 71.552C36.7474 71.499 36.7113 71.4314 36.6966 71.3578C36.682 71.2843 36.6895 71.208 36.7182 71.1387C36.7469 71.0694 36.7955 71.0101 36.8579 70.9685C36.9203 70.9268 36.9936 70.9045 37.0686 70.9045C37.1692 70.9045 37.2657 70.9445 37.3368 71.0156C37.408 71.0868 37.4479 71.1832 37.4479 71.2838Z" fill="#E0E0E0"/>
<path d="M22.9587 69.2964H51.2163C51.2263 69.2964 51.236 69.2924 51.2431 69.2853C51.2502 69.2782 51.2542 69.2686 51.2542 69.2585C51.2542 69.2484 51.2502 69.2388 51.2431 69.2317C51.236 69.2246 51.2263 69.2206 51.2163 69.2206H22.9587C22.9486 69.2206 22.939 69.2246 22.9319 69.2317C22.9248 69.2388 22.9208 69.2484 22.9208 69.2585C22.9208 69.2686 22.9248 69.2782 22.9319 69.2853C22.939 69.2924 22.9486 69.2964 22.9587 69.2964Z" fill="#E0E0E0"/>
<path d="M43.0125 55.7971L43.0029 53.9613L33.9815 54.0085L33.9911 55.8443L43.0125 55.7971Z" fill="#E0E0E0"/>
<path d="M44.0973 60.4301L44.0824 57.5759L34.0274 57.6286L34.0423 60.4827L44.0973 60.4301Z" fill="#F5F5F5"/>
<path d="M42.1625 60.4133C42.1126 59.9397 42.0961 59.4631 42.1132 58.9871C42.0961 58.5106 42.1126 58.0333 42.1625 57.5591C42.2101 58.0335 42.2259 58.5106 42.21 58.9871C42.2259 59.463 42.2101 59.9395 42.1625 60.4133Z" fill="#E0E0E0"/>
<path d="M42.5836 60.4133C42.5361 59.9395 42.5202 59.463 42.5362 58.9871C42.5202 58.5106 42.536 58.0335 42.5836 57.5591C42.6324 58.0334 42.6489 58.5106 42.6329 58.9871C42.6488 59.4631 42.6324 59.9396 42.5836 60.4133Z" fill="#E0E0E0"/>
<path d="M35.557 60.4133C35.5083 59.9396 35.4918 59.4631 35.5077 58.9871C35.4918 58.5106 35.5082 58.0334 35.557 57.5591C35.6059 58.0334 35.6223 58.5106 35.6064 58.9871C35.6223 59.4631 35.6058 59.9396 35.557 60.4133Z" fill="#E0E0E0"/>
<path d="M35.98 60.4133C35.9301 59.9397 35.9137 59.4631 35.9307 58.9871C35.9136 58.5106 35.9301 58.0333 35.98 57.5591C36.0276 58.0335 36.0434 58.5106 36.0275 58.9871C36.0434 59.463 36.0276 59.9395 35.98 60.4133Z" fill="#E0E0E0"/>
<path d="M36.9017 59.0326C36.9017 59.006 37.9145 58.9833 39.1661 58.9833C40.4178 58.9833 41.4419 59.006 41.4419 59.0326C41.4419 59.0591 40.4273 59.0819 39.1661 59.0819C37.905 59.0819 36.9017 59.0553 36.9017 59.0326Z" fill="#E0E0E0"/>
<path d="M47.8728 57.5611L47.8632 55.7253L35.4566 55.7903L35.4662 57.6261L47.8728 57.5611Z" fill="#EBEBEB"/>
<path d="M46.0978 57.3352C45.9801 57.3367 45.8645 57.3032 45.7659 57.2389C45.6673 57.1746 45.5901 57.0824 45.544 56.9741C45.4979 56.8658 45.485 56.7462 45.5071 56.6305C45.5291 56.5149 45.585 56.4084 45.6678 56.3246C45.7505 56.2409 45.8562 56.1836 45.9716 56.16C46.0869 56.1365 46.2066 56.1478 46.3156 56.1925C46.4245 56.2372 46.5176 56.3133 46.5832 56.4111C46.6488 56.5088 46.6838 56.6239 46.6838 56.7416C46.6843 56.8191 46.6695 56.8959 46.6403 56.9676C46.6112 57.0394 46.5681 57.1047 46.5137 57.1598C46.4593 57.2149 46.3946 57.2588 46.3232 57.2889C46.2518 57.319 46.1752 57.3347 46.0978 57.3352Z" fill="#E0E0E0"/>
<path d="M44.4857 56.9257V56.5577H36.181V56.9257H44.4857Z" fill="#E0E0E0"/>
<path d="M55.5111 34.4501C63.392 26.5692 63.392 13.7916 55.5111 5.91069C47.6301 -1.97026 34.8526 -1.97026 26.9716 5.91069C19.0907 13.7916 19.0907 26.5692 26.9716 34.4501C34.8526 42.3311 47.6301 42.3311 55.5111 34.4501Z" fill="#E0E0E0"/>
<path d="M52.6575 31.5965C58.9624 25.2916 58.9624 15.0693 52.6575 8.76437C46.3525 2.45946 36.1303 2.45946 29.8254 8.76437C23.5204 15.0693 23.5204 25.2916 29.8254 31.5965C36.1303 37.9014 46.3525 37.9014 52.6575 31.5965Z" fill="#FAFAFA"/>
<path d="M52.7914 23.8074C54.7954 17.4282 51.2486 10.6323 44.8694 8.62826C38.4902 6.62425 31.6943 10.171 29.6902 16.5502C27.6862 22.9295 31.233 29.7254 37.6122 31.7294C43.9914 33.7334 50.7874 30.1866 52.7914 23.8074Z" fill="#E0E0E0"/>
<path d="M48.6153 23.4693C50.4305 19.3979 48.6016 14.6259 44.5302 12.8106C40.4588 10.9954 35.6868 12.8243 33.8715 16.8957C32.0563 20.9671 33.8852 25.7391 37.9566 27.5544C42.028 29.3696 46.8 27.5407 48.6153 23.4693Z" fill="#FAFAFA"/>
<path d="M43.07 23.7784C45.0568 22.7683 45.8485 20.3388 44.8384 18.352C43.8282 16.3652 41.3987 15.5734 39.4119 16.5836C37.4251 17.5937 36.6333 20.0232 37.6435 22.01C38.6536 23.9968 41.0832 24.7886 43.07 23.7784Z" fill="#E0E0E0"/>
<path d="M41.8629 20.7749L36.2607 19.2976L37.6944 17.8259L26.1031 8.30748L26.7442 7.68164L38.3961 17.1432L39.5207 15.6051L41.8629 20.7749Z" fill="#EBEBEB"/>
<path d="M26.1032 8.30745L25.9287 8.40607C25.502 8.64725 25.0189 8.77082 24.5287 8.76415C24.0386 8.75749 23.559 8.62083 23.139 8.36814L18.2821 5.45135L21.5516 4.93741L21.1989 1.49719L25.6689 4.55811C26.1601 4.89442 26.5299 5.38 26.7236 5.94292C26.9173 6.50584 26.9245 7.11617 26.7442 7.68351L26.1032 8.30745Z" fill="#EBEBEB"/>
<path d="M74.2548 68.8109C74.2767 67.6343 74.7311 66.5069 75.5311 65.6438C75.9161 67.233 74.2548 68.8109 74.2548 68.8109Z" fill="#EBEBEB"/>
<path d="M76.1057 67.9157C77.1932 67.4653 78.4086 67.4315 79.5194 67.8209C78.2165 68.807 76.1057 67.9157 76.1057 67.9157Z" fill="#EBEBEB"/>
<path d="M76.3181 66.8841C76.1411 65.9723 76.3058 65.0272 76.7809 64.229C77.3403 65.3953 76.3181 66.8841 76.3181 66.8841Z" fill="#EBEBEB"/>
<path d="M69.1532 63.1688C71.8652 63.8895 73.3255 66.243 73.3255 66.243C71.0023 66.243 69.1532 63.1688 69.1532 63.1688Z" fill="#EBEBEB"/>
<path d="M73.481 64.2783C73.3406 61.3615 76.191 58.0597 76.191 58.0597C75.7605 61.682 73.481 64.2783 73.481 64.2783Z" fill="#EBEBEB"/>
<path d="M73.4658 55.9698C73.5207 57.4289 73.1659 58.8742 72.4417 60.1421C72.0396 58.2722 73.4658 55.9698 73.4658 55.9698Z" fill="#EBEBEB"/>
<path d="M72.3772 61.9C70.2437 61.6725 69.083 59.5503 69.083 59.5503C71.6527 60.2691 72.3772 61.9 72.3772 61.9Z" fill="#EBEBEB"/>
<path d="M67.7668 70.8134C68.7671 70.1933 69.9607 69.9631 71.1198 70.1667C69.9933 71.3539 67.7668 70.8134 67.7668 70.8134Z" fill="#EBEBEB"/>
<path d="M73.2933 71.7731C73.0214 72.4632 72.5142 73.0348 71.8615 73.387C71.9525 72.4027 73.2933 71.7731 73.2933 71.7731Z" fill="#EBEBEB"/>
<path d="M73.0201 71.4584C72.2497 71.9048 71.3467 72.0659 70.4694 71.9135C71.2905 71.0582 73.0201 71.4584 73.0201 71.4584Z" fill="#EBEBEB"/>
<path d="M74.1106 75.3859C74.1085 75.3714 74.1085 75.3567 74.1106 75.3423C74.1106 75.3062 74.1106 75.2645 74.1106 75.2152C74.1106 75.0938 74.1106 74.9307 74.1106 74.7259C74.1106 74.5211 74.1106 74.2537 74.1106 73.9521C74.1106 73.6506 74.1106 73.3073 74.0898 72.928C74.0708 72.1695 74.0177 71.2686 73.9399 70.273C73.8622 69.2773 73.7313 68.1774 73.5606 67.0319C73.2136 64.7447 72.7565 62.6909 72.3772 61.2192C72.1876 60.4834 72.034 59.8916 71.9202 59.482C71.8652 59.2829 71.8235 59.1255 71.7912 59.0098L71.7609 58.8865C71.7591 58.872 71.7591 58.8574 71.7609 58.8429C71.7688 58.8558 71.7746 58.8699 71.7779 58.8846L71.8178 59.0041L71.9619 59.4706C72.089 59.8765 72.2559 60.4682 72.4512 61.2021C72.9557 63.1182 73.3546 65.0606 73.646 67.0205C73.8129 68.1584 73.9323 69.2659 74.0139 70.2673C74.0954 71.2686 74.1334 72.1733 74.1429 72.9337C74.1561 73.313 74.1523 73.6563 74.1429 73.9578C74.1334 74.2594 74.1429 74.5268 74.1315 74.7316C74.1201 74.9364 74.1182 75.1014 74.1144 75.2209C74.1144 75.2721 74.1144 75.3138 74.1144 75.348L74.1106 75.3859Z" fill="#E0E0E0"/>
<path d="M70.1962 69.211C70.2114 69.1882 71.0724 69.7534 72.1212 70.4722C73.1699 71.1909 74.0063 71.7902 73.9911 71.813C73.9759 71.8357 73.1149 71.2706 72.0662 70.5518C71.0174 69.833 70.1811 69.2319 70.1962 69.211Z" fill="#E0E0E0"/>
<path d="M73.9912 69.5221C74.0293 69.4681 74.0739 69.4191 74.124 69.376L74.5033 69.0062L75.7853 67.8038C76.2765 67.343 76.7202 66.9258 77.0673 66.6034L77.4466 66.2374C77.4922 66.19 77.5431 66.148 77.5983 66.1122C77.5634 66.168 77.5213 66.219 77.4731 66.2639C77.3897 66.3587 77.2626 66.4896 77.1052 66.6432C76.7904 66.9656 76.3466 67.4018 75.8422 67.8664C75.3377 68.3311 74.8788 68.7521 74.5412 69.0498C74.3724 69.1978 74.234 69.3153 74.1353 69.3969C74.0924 69.4441 74.044 69.4861 73.9912 69.5221Z" fill="#E0E0E0"/>
<path d="M67.4578 67.8285C67.4578 67.8285 69.6615 67.7867 70.5945 69.5201C69.976 69.5023 69.3702 69.34 68.8255 69.0463C68.2809 68.7526 67.8125 68.3355 67.4578 67.8285Z" fill="#EBEBEB"/>
<path d="M70.4675 66.9427C70.4675 66.9427 72.2616 68.2229 71.9847 70.1668C71.498 69.7848 71.1074 69.2943 70.844 68.7346C70.5806 68.1748 70.4516 67.5612 70.4675 66.9427Z" fill="#EBEBEB"/>
<path d="M79.9196 63.7965C79.9196 63.7965 79.2122 66.2619 76.9611 66.7076C77.1933 66.0255 77.5818 65.407 78.0955 64.9016C78.6091 64.3962 79.2337 64.0177 79.9196 63.7965Z" fill="#EBEBEB"/>
<path d="M69.4889 54.6176C69.4889 54.6176 72.3014 56.4514 71.9979 59.4346C71.233 58.883 70.6077 58.1601 70.1721 57.3237C69.7364 56.4873 69.5024 55.5605 69.4889 54.6176Z" fill="#EBEBEB"/>
<path d="M78.8481 70.933C78.7902 70.9882 78.7266 71.0371 78.6584 71.079C78.5371 71.1662 78.3645 71.2971 78.154 71.4583C77.6099 71.8933 77.1025 72.3722 76.6368 72.8902C76.1726 73.4108 75.7514 73.9683 75.3775 74.5572C75.2353 74.7828 75.1234 74.9687 75.0494 75.0995C75.0138 75.167 74.9712 75.2306 74.9224 75.2892C74.9459 75.2148 74.977 75.143 75.0153 75.0749C75.0798 74.9383 75.1841 74.7468 75.3206 74.506C76.0401 73.2937 76.9913 72.2349 78.1198 71.39C78.336 71.2288 78.5162 71.1056 78.6433 71.0278C78.7081 70.9894 78.7768 70.9576 78.8481 70.933Z" fill="#E0E0E0"/>
<path d="M76.3996 72.765C76.196 71.6058 76.4262 70.4123 77.0463 69.412C77.3479 71.5019 76.3996 72.765 76.3996 72.765Z" fill="#EBEBEB"/>
<path d="M78.2924 71.7334C79.0363 71.3105 79.9095 71.1755 80.7464 71.3541C79.3942 72.0729 78.2924 71.7334 78.2924 71.7334Z" fill="#EBEBEB"/>
<path d="M70.0105 75.6135L71.0649 82.5471H77.1944L78.6167 75.714L70.0105 75.6135Z" fill="#EBEBEB"/>
<path d="M77.7595 80.057C77.7595 80.0779 76.1892 80.0931 74.2529 80.0931C72.3166 80.0931 70.7444 80.0779 70.7444 80.057C70.7444 80.0362 72.3147 80.021 74.2529 80.021C76.1911 80.021 77.7595 80.0381 77.7595 80.057Z" fill="#FAFAFA"/>
<path d="M77.7841 79.727C77.7841 79.7459 76.2025 79.763 74.2529 79.763C72.3033 79.763 70.7197 79.7459 70.7197 79.727C70.7197 79.708 72.3014 79.6909 74.2529 79.6909C76.2043 79.6909 77.7841 79.6966 77.7841 79.727Z" fill="#FAFAFA"/>
<path d="M77.7709 79.3325C77.7709 79.3515 76.1911 79.3686 74.2396 79.3686C72.2881 79.3686 70.7084 79.3515 70.7084 79.3325C70.7084 79.3136 72.29 79.2965 74.2396 79.2965C76.1892 79.2965 77.7709 79.3117 77.7709 79.3325Z" fill="#FAFAFA"/>
<path d="M71.7685 82.1526C71.6834 81.8663 71.62 81.5741 71.5789 81.2783C71.5172 80.9871 71.4779 80.6917 71.4613 80.3945C71.6122 80.9709 71.7144 81.559 71.7666 82.1526H71.7685Z" fill="#FAFAFA"/>
<path d="M72.1876 82.0785C72.1441 81.7966 72.1188 81.5122 72.1117 81.227C72.0796 80.9431 72.0663 80.6574 72.0719 80.3717C72.1824 80.9335 72.2213 81.507 72.1876 82.0785Z" fill="#FAFAFA"/>
<path d="M72.9461 82.0787C72.8633 81.7934 72.8099 81.5005 72.7868 81.2044C72.74 80.9116 72.7241 80.6148 72.7394 80.3187C72.7959 80.6088 72.8351 80.902 72.857 81.1968C72.9029 81.4889 72.9326 81.7833 72.9461 82.0787Z" fill="#FAFAFA"/>
<path d="M73.4791 82.1146C73.4212 81.8223 73.3926 81.525 73.3938 81.227C73.3721 80.9297 73.3816 80.631 73.4222 80.3357C73.4535 80.6311 73.4681 80.9281 73.4658 81.2251C73.4876 81.5211 73.492 81.8181 73.4791 82.1146Z" fill="#FAFAFA"/>
<path d="M74.4236 82.0786C74.3786 81.8002 74.357 81.5186 74.3591 81.2366C74.3349 80.9552 74.3349 80.6722 74.3591 80.3907C74.4042 80.6698 74.4257 80.9521 74.4236 81.2347C74.4478 81.5155 74.4478 81.7978 74.4236 82.0786Z" fill="#FAFAFA"/>
<path d="M75.1138 82.1146C75.0789 81.8258 75.0694 81.5346 75.0854 81.2441C75.0762 80.9533 75.0902 80.6623 75.1271 80.3737C75.162 80.6624 75.1716 80.9537 75.1555 81.2441C75.1647 81.5349 75.1507 81.826 75.1138 82.1146Z" fill="#FAFAFA"/>
<path d="M75.7606 82.0218C75.7535 81.7175 75.7706 81.4131 75.8118 81.1115C75.8291 80.8077 75.8709 80.5058 75.937 80.2087C75.9428 80.5131 75.9251 80.8174 75.8839 81.119C75.8655 81.4226 75.8243 81.7244 75.7606 82.0218Z" fill="#FAFAFA"/>
<path d="M76.595 81.9308C76.5945 81.6694 76.6289 81.4092 76.6974 81.157C76.7407 80.8992 76.8172 80.648 76.925 80.4098C76.8866 80.6654 76.8341 80.9186 76.7676 81.1684C76.724 81.4255 76.6664 81.68 76.595 81.9308Z" fill="#FAFAFA"/>
<path d="M69.3069 74.2423V75.5395C69.3069 75.6748 69.3606 75.8046 69.4563 75.9002C69.552 75.9959 69.6817 76.0497 69.817 76.0497H78.6926C78.828 76.0497 78.958 75.996 79.054 75.9004C79.1499 75.8047 79.2041 75.675 79.2046 75.5395V74.2423H69.3069Z" fill="#EBEBEB"/>
<path d="M70.0768 76.0497L70.1488 76.4631L78.3397 77.0472L78.5465 76.0497H70.0768Z" fill="#E0E0E0"/>
<path d="M78.7589 82.7252C78.7589 82.7537 61.8063 82.7745 40.8976 82.7745C19.9889 82.7745 3.03247 82.7612 3.03247 82.7252C3.03247 82.6892 19.9813 82.6759 40.8976 82.6759C61.8139 82.6759 78.7589 82.6987 78.7589 82.7252Z" fill="#263238"/>
<path d="M0 26.5762C0 26.5762 1.94389 34.5414 10.6449 32.7132C10.6449 32.7132 8.12452 24.6512 0 26.5762Z" fill="#455A64"/>
<path d="M4.20447 38.634C4.20447 38.634 8.19845 44.589 14.7982 40.4698C14.7982 40.4698 10.2979 34.6059 4.20447 38.634Z" fill="#455A64"/>
<path d="M10.5691 47.72C10.5691 47.72 16.397 52.6755 21.9783 46.5328C21.9783 46.5385 15.6573 41.8163 10.5691 47.72Z" fill="#455A64"/>
<path d="M16.5923 28.6035C16.5923 28.6035 10.1291 31.71 13.2659 38.8293C13.7267 38.5733 19.6551 35.0724 16.5923 28.6035Z" fill="#455A64"/>
<path d="M17.9957 37.187C17.9957 37.187 14.7717 41.5394 19.5754 45.2774C19.8751 44.8109 22.6895 40.6595 17.9957 37.187Z" fill="#455A64"/>
<path d="M3.04578 17.4124C3.04578 17.4124 2.30425 23.8604 9.27382 24.8997C9.27382 24.8997 9.61329 18.2127 3.04578 17.4124Z" fill="#455A64"/>
<path d="M13.0421 10.8846C13.0421 10.8846 7.40391 13.2382 9.85227 19.8455C9.85227 19.8455 15.5019 17.0273 13.0421 10.8846Z" fill="#455A64"/>
<path d="M16.4444 20.312C16.4444 20.312 8.97989 21.1635 9.63607 29.2805C9.63607 29.2805 17.2599 27.9226 16.4444 20.312Z" fill="#455A64"/>
<path d="M27.0685 48.6721L26.9736 48.6437L26.693 48.5697C26.4483 48.5052 26.0823 48.418 25.6233 48.2681C24.3218 47.8666 23.0633 47.3368 21.8664 46.6865C20.094 45.7197 18.4576 44.522 17 43.1249C16.1354 42.298 15.3305 41.4107 14.5915 40.4698L14.0226 39.7112C13.9277 39.5861 13.8329 39.459 13.74 39.3319C13.6471 39.2049 13.5636 39.0664 13.4764 38.9337L12.9473 38.122L12.4618 37.2724L12.219 36.8438L12.0028 36.4057C11.8606 36.1155 11.7146 35.8272 11.5761 35.5371L11.1968 34.6609C11.1361 34.5149 11.0716 34.3707 11.0072 34.2247C10.9427 34.0787 10.901 33.9327 10.8498 33.7866L10.5387 32.918C10.4515 32.626 10.3662 32.3377 10.2827 32.0513C10.241 31.9072 10.1974 31.765 10.1557 31.6246C10.1139 31.4843 10.0855 31.3383 10.0513 31.1979C9.98497 30.9135 9.91859 30.629 9.8617 30.354C9.44154 28.3815 9.2607 26.3655 9.32309 24.3497C9.36713 22.9884 9.51869 21.6326 9.77635 20.2951C9.87687 19.8228 9.966 19.4587 10.0229 19.2122C10.0494 19.0889 10.0703 18.996 10.0855 18.9296C10.1007 18.8632 10.1044 18.8329 10.1044 18.8329C10.1044 18.8329 10.0931 18.8632 10.076 18.9277C10.0589 18.9922 10.0362 19.0851 10.0058 19.2065C9.94514 19.4549 9.85032 19.8172 9.74411 20.2875C9.06126 23.6189 9.07805 27.0559 9.79342 30.3806C9.8579 30.6593 9.92428 30.94 9.98307 31.2264C10.0191 31.3686 10.0457 31.5128 10.0874 31.655C10.1291 31.7972 10.1708 31.9395 10.2144 32.0836C10.2979 32.37 10.3832 32.6525 10.4705 32.9522L10.7815 33.8246C10.8327 33.9706 10.8858 34.1185 10.9389 34.2645C10.992 34.4106 11.0603 34.5547 11.1285 34.7007L11.5078 35.5826C11.6444 35.8728 11.7904 36.161 11.9345 36.4531C12.0066 36.601 12.0787 36.747 12.1526 36.8931C12.2266 37.0391 12.3138 37.1794 12.3954 37.3236L12.8828 38.177L13.4138 38.9906C13.5029 39.1233 13.5864 39.2599 13.6774 39.3907L13.9619 39.77L14.5308 40.5286C15.2721 41.4699 16.0795 42.3572 16.9469 43.1837C18.4124 44.5849 20.0586 45.784 21.8418 46.7491C23.0442 47.396 24.3094 47.919 25.6177 48.3099C26.0785 48.4559 26.4464 48.5356 26.693 48.5962L26.9755 48.6607L27.0685 48.6721Z" fill="#263238"/>
<path d="M18.6936 40.6954C18.6855 40.7584 18.6855 40.8221 18.6936 40.8851C18.6936 41.0027 18.7201 41.1714 18.7467 41.3782C18.796 41.7954 18.8832 42.3681 19.0046 42.994C19.126 43.6198 19.2644 44.185 19.3725 44.5889C19.4275 44.7918 19.4749 44.9549 19.511 45.0668C19.5241 45.1262 19.5452 45.1837 19.5736 45.2375C19.5715 45.1733 19.5613 45.1095 19.5432 45.0479L19.4313 44.5662C19.3365 44.1584 19.2113 43.5952 19.0881 42.9693C18.9648 42.3435 18.8719 41.7745 18.8055 41.3611C18.7751 41.1714 18.7486 41.0046 18.7258 40.8718C18.722 40.812 18.7111 40.7528 18.6936 40.6954Z" fill="#263238"/>
<path d="M17.1062 47.1587C17.1699 47.1613 17.2337 47.1556 17.2958 47.1416L17.7927 47.0695C18.21 47.0069 18.7884 46.9254 19.4275 46.8514C20.0666 46.7775 20.6488 46.7225 21.0698 46.6864L21.5686 46.6428C21.6327 46.6419 21.6964 46.633 21.7583 46.6163C21.6953 46.609 21.6316 46.609 21.5686 46.6163C21.4491 46.6163 21.2785 46.6163 21.0679 46.6333C20.645 46.6542 20.0609 46.6997 19.4199 46.7737C18.7789 46.8476 18.2005 46.9406 17.7832 47.0183C17.5765 47.0563 17.4039 47.0904 17.2921 47.1169C17.2286 47.1232 17.1662 47.1372 17.1062 47.1587Z" fill="#263238"/>
<path d="M9.25098 39.2599C9.32067 39.2836 9.39241 39.3007 9.46528 39.3111L10.0551 39.4287C10.5539 39.5254 11.2423 39.6695 11.9952 39.8516C12.7481 40.0337 13.4251 40.2214 13.9125 40.3617L14.4815 40.5286C14.5515 40.5539 14.6239 40.5717 14.6977 40.5817C14.6326 40.5467 14.5639 40.5187 14.4928 40.4983C14.3582 40.449 14.1629 40.3826 13.9239 40.3086C13.4403 40.1531 12.7652 39.9559 12.0085 39.7738C11.2518 39.5918 10.5633 39.4552 10.0608 39.3718C9.81044 39.3301 9.60562 39.2997 9.46528 39.2826C9.39487 39.2674 9.32302 39.2598 9.25098 39.2599Z" fill="#263238"/>
<path d="M14.9557 33.157C14.9046 33.2151 14.8601 33.2787 14.8229 33.3466C14.7414 33.4756 14.6333 33.669 14.5062 33.9156C13.8506 35.1906 13.4505 36.5815 13.3285 38.0101C13.3058 38.2832 13.2963 38.5032 13.2963 38.6568C13.2894 38.7363 13.2894 38.8162 13.2963 38.8957C13.3121 38.8177 13.3204 38.7383 13.3209 38.6587C13.3209 38.507 13.3513 38.2794 13.3797 38.0158C13.5345 36.6008 13.931 35.223 14.5518 33.9421C14.6693 33.6956 14.7717 33.4983 14.8438 33.3732C14.8881 33.305 14.9256 33.2326 14.9557 33.157Z" fill="#263238"/>
<path d="M6.29822 29.4436C6.35079 29.4898 6.40799 29.5305 6.4689 29.565L6.94871 29.876C7.35076 30.1434 7.89695 30.5265 8.46589 30.9892C9.03484 31.452 9.52603 31.9052 9.86929 32.2428L10.2732 32.6449C10.3197 32.6984 10.3719 32.7467 10.4288 32.789C10.3911 32.7295 10.3473 32.6742 10.2979 32.624C10.2107 32.5197 10.0798 32.3756 9.9186 32.2011C9.48161 31.7465 9.0167 31.3196 8.52658 30.9229C8.03629 30.5262 7.522 30.1601 6.98664 29.8267C6.78182 29.6977 6.60734 29.5991 6.49355 29.5365C6.43185 29.4989 6.36638 29.4677 6.29822 29.4436Z" fill="#263238"/>
<path d="M14.4493 23.5493C14.4493 23.5493 14.4246 23.5645 14.3867 23.5967L14.2236 23.7428C14.0813 23.8717 13.8803 24.0633 13.6357 24.3022C13.1483 24.782 12.4978 25.4667 11.8169 26.2613C11.1361 27.0559 10.5672 27.8088 10.1727 28.3683C9.98304 28.6471 9.81805 28.8746 9.71374 29.0358L9.59426 29.2255C9.57889 29.2456 9.56673 29.268 9.55823 29.2919C9.55823 29.2919 9.57909 29.2748 9.60943 29.235L9.74029 29.0586L10.2201 28.4062C10.6278 27.8581 11.2063 27.1128 11.8814 26.3201C12.5566 25.5273 13.209 24.837 13.6793 24.3477L14.2482 23.7788L14.3999 23.6214C14.4201 23.6001 14.4367 23.5758 14.4493 23.5493Z" fill="#263238"/>
<path d="M5.45801 19.5118C5.50534 19.5832 5.55863 19.6505 5.61731 19.7129L6.07057 20.2477C6.44987 20.7009 6.96002 21.34 7.48535 22.0721C8.01067 22.8041 8.44876 23.4963 8.75599 24.0027C8.90202 24.2455 9.02149 24.4484 9.11442 24.6039C9.15494 24.6794 9.20122 24.7517 9.25286 24.8201C9.22333 24.7395 9.18718 24.6615 9.14477 24.5868C9.06891 24.4389 8.95512 24.2284 8.80719 23.9724C8.51324 23.4565 8.08084 22.7605 7.55362 22.0228C7.0264 21.285 6.50866 20.6535 6.11609 20.2078C5.92644 19.986 5.75765 19.8096 5.64197 19.6901C5.58689 19.6246 5.52525 19.5648 5.45801 19.5118Z" fill="#263238"/>
<path d="M12.2076 13.3843C12.1614 13.4596 12.122 13.539 12.09 13.6213C12.0198 13.775 11.9212 14.0006 11.8017 14.2794C11.5647 14.8389 11.2518 15.607 10.9313 16.485C10.6108 17.3631 10.3396 18.1501 10.1556 18.7286C10.0646 19.0168 9.99251 19.252 9.9451 19.4151C9.916 19.4983 9.89442 19.584 9.88062 19.6711C9.92224 19.5903 9.95652 19.5059 9.98303 19.4189C10.0437 19.2444 10.1234 19.0168 10.2182 18.7418C10.4173 18.1729 10.6942 17.3783 11.0166 16.5097C11.339 15.6411 11.6349 14.8673 11.8586 14.2984C11.9648 14.0272 12.0483 13.8015 12.1204 13.6289C12.156 13.5499 12.1852 13.468 12.2076 13.3843Z" fill="#263238"/>
<path d="M82 25.4439C82 25.4439 80.0562 33.4091 71.3551 31.5828C71.3551 31.5828 73.8774 23.519 82 25.4439Z" fill="#455A64"/>
<path d="M77.7955 37.5017C77.7955 37.5017 73.8015 43.4585 67.2018 39.3394C67.2018 39.3318 71.7021 33.4755 77.7955 37.5017Z" fill="#455A64"/>
<path d="M71.4291 46.5878C71.4291 46.5878 65.6031 51.5452 60.0217 45.4006C60.0217 45.4006 66.3427 40.686 71.4291 46.5878Z" fill="#455A64"/>
<path d="M65.4077 27.4733C65.4077 27.4733 71.8709 30.5797 68.7341 37.6972C68.2751 37.4355 62.3543 33.9422 65.4077 27.4733Z" fill="#455A64"/>
<path d="M64.0043 36.0548C64.0043 36.0548 67.2283 40.4072 62.4246 44.1471C62.1249 43.6806 59.3105 39.5216 64.0043 36.0548Z" fill="#455A64"/>
<path d="M78.9562 16.2821C78.9562 16.2821 79.6977 22.7301 72.7262 23.7694C72.7262 23.7694 72.3868 17.0824 78.9562 16.2821Z" fill="#455A64"/>
<path d="M68.9636 9.74683C68.9636 9.74683 74.6019 12.1023 72.1535 18.7096C72.1478 18.7153 66.4982 15.8952 68.9636 9.74683Z" fill="#455A64"/>
<path d="M65.55 19.1818C65.55 19.1818 73.0145 20.0333 72.3583 28.1578C72.364 28.1578 64.7402 26.7923 65.55 19.1818Z" fill="#455A64"/>
<path d="M54.9297 47.5399L55.0245 47.5134L55.3033 47.4375C55.5498 47.373 55.914 47.2877 56.3729 47.1379C57.6742 46.7355 58.9326 46.2057 60.1298 45.5562C61.9049 44.5869 63.5438 43.3867 65.0038 41.987C65.8657 41.1633 66.6692 40.2806 67.4085 39.3452L67.968 38.5866L68.2525 38.2073C68.3435 38.0765 68.4269 37.9418 68.5142 37.8072C68.6905 37.5398 68.865 37.2686 69.0433 36.9974L69.5288 36.1459C69.6103 36.0036 69.6919 35.8614 69.7715 35.7192L69.9877 35.2811C70.1319 34.989 70.2779 34.7121 70.4144 34.4125L70.7937 33.5344C70.8544 33.3884 70.9189 33.2461 70.9834 33.1001C71.0479 32.9541 71.0896 32.8062 71.1408 32.6601L71.4518 31.7934C71.5391 31.5014 71.6244 31.2112 71.7078 30.9249C71.7515 30.7826 71.7932 30.6404 71.8349 30.4981C71.8766 30.3559 71.9051 30.2137 71.9392 30.0714C72.0075 29.787 72.0739 29.5063 72.1383 29.2294C72.5591 27.2525 72.7406 25.2321 72.6788 23.2119C72.6343 21.8498 72.4821 20.4934 72.2237 19.1553C72.1232 18.685 72.034 18.3208 71.979 18.0724C71.9506 17.951 71.9297 17.8562 71.9146 17.7898C71.8994 17.7235 71.8975 17.6931 71.8975 17.6931L71.924 17.7879L71.9942 18.0686C72.0549 18.3152 72.1497 18.6793 72.2578 19.1496C72.5271 20.4885 72.6876 21.8471 72.7376 23.2119C72.8044 25.2378 72.6235 27.2644 72.199 29.2465L72.0094 30.0904C71.9753 30.2326 71.9468 30.3787 71.9051 30.519C71.8634 30.6593 71.8216 30.8054 71.778 30.9476C71.6946 31.2359 71.6092 31.526 71.522 31.8181C71.4196 32.1064 71.3172 32.387 71.211 32.6886C71.1598 32.8365 71.1067 32.9825 71.0536 33.1305C71.0005 33.2784 70.9322 33.4206 70.8639 33.5667L70.4846 34.4485C70.3462 34.7387 70.2001 35.0175 70.056 35.319L69.8398 35.759L69.5952 36.1876L69.1078 37.041L68.5768 37.8546C68.4895 37.9892 68.4042 38.1258 68.3131 38.2548L68.0287 38.634L67.4597 39.3926C66.7178 40.334 65.9098 41.2213 65.0417 42.0477C63.5771 43.4505 61.9308 44.6503 60.1469 45.615C58.9446 46.2618 57.6794 46.7841 56.371 47.1739C55.9102 47.3199 55.5422 47.4015 55.2957 47.4603L55.015 47.5266C54.9868 47.5323 54.9583 47.5368 54.9297 47.5399Z" fill="#263238"/>
<path d="M63.3064 39.5652C63.3145 39.6281 63.3145 39.6919 63.3064 39.7548C63.2969 39.8705 63.2798 40.0393 63.2552 40.2479C63.2039 40.6632 63.1186 41.236 62.9953 41.8637C62.8721 42.4915 62.7374 43.0547 62.6274 43.4587C62.5724 43.6616 62.525 43.8228 62.489 43.9347C62.4751 43.9945 62.454 44.0524 62.4264 44.1073C62.4295 44.0461 62.4403 43.9855 62.4586 43.9271C62.489 43.7943 62.525 43.6331 62.5686 43.4435C62.6635 43.0376 62.7905 42.4725 62.9119 41.8467C63.0333 41.2208 63.13 40.6519 63.1945 40.2384C63.2267 40.0488 63.2533 39.8838 63.2741 39.751C63.2769 39.688 63.2877 39.6255 63.3064 39.5652Z" fill="#263238"/>
<path d="M64.8956 46.0284C64.832 46.031 64.7682 46.0252 64.706 46.0113L64.211 45.9393C63.7919 45.8767 63.2154 45.7951 62.5744 45.7193C61.9334 45.6434 61.353 45.5903 60.932 45.5543L60.4351 45.5107C60.371 45.5107 60.3072 45.5017 60.2455 45.4841C60.3085 45.4766 60.3721 45.4766 60.4351 45.4841C60.5527 45.4841 60.7234 45.4841 60.9358 45.5012C61.3568 45.5221 61.9409 45.5657 62.5819 45.6415C63.223 45.7174 63.8014 45.8084 64.2186 45.8862C64.4253 45.9241 64.5979 45.9582 64.7098 45.9848C64.7732 45.9921 64.8356 46.0067 64.8956 46.0284Z" fill="#263238"/>
<path d="M72.7565 38.1276C72.6864 38.1524 72.614 38.1702 72.5403 38.1807L71.9505 38.2964C71.4518 38.395 70.7652 38.5391 70.0104 38.7212C69.2556 38.9032 68.5805 39.091 68.0931 39.2313L67.5147 39.3982C67.4445 39.4224 67.372 39.4396 67.2985 39.4494C67.3653 39.4167 67.4344 39.3888 67.5052 39.366C67.6379 39.3167 67.8333 39.2522 68.0741 39.1763C68.5577 39.0208 69.2348 38.8236 69.9896 38.6396C70.7444 38.4557 71.4347 38.3229 71.9373 38.2395C72.1876 38.1977 72.3924 38.1674 72.5327 38.1484C72.6065 38.1344 72.6814 38.1275 72.7565 38.1276Z" fill="#263238"/>
<path d="M67.0443 32.0248C67.0949 32.0867 67.1394 32.1534 67.1771 32.2239C67.2605 32.3529 67.3667 32.5463 67.4957 32.7929C68.1496 34.0684 68.549 35.4591 68.6715 36.8874C68.6942 37.1604 68.7056 37.3823 68.7037 37.5359C68.7119 37.6148 68.7119 37.6942 68.7037 37.773C68.689 37.6954 68.6807 37.6168 68.6791 37.5378C68.6791 37.3842 68.6506 37.1586 68.6203 36.893C68.4646 35.4769 68.0676 34.0978 67.4464 32.8156C67.3288 32.571 67.2283 32.3737 67.1543 32.2467C67.1109 32.1762 67.0741 32.102 67.0443 32.0248Z" fill="#263238"/>
<path d="M75.7037 28.3114C75.6509 28.3582 75.593 28.3989 75.5311 28.4328L75.0532 28.7457C74.6512 29.0112 74.105 29.3943 73.536 29.857C72.9671 30.3198 72.4759 30.773 72.1326 31.1106L71.7287 31.5146C71.6822 31.5669 71.6308 31.6145 71.5751 31.6568C71.6115 31.597 71.6548 31.5416 71.704 31.4918C71.7913 31.3894 71.9221 31.2434 72.0833 31.0689C72.5208 30.6148 72.9857 30.1879 73.4753 29.7907C73.9647 29.3936 74.4784 29.0275 75.0134 28.6945C75.2182 28.5674 75.3927 28.4688 75.5065 28.4043C75.569 28.367 75.6351 28.3358 75.7037 28.3114Z" fill="#263238"/>
<path d="M67.5526 22.4191C67.5752 22.4315 67.5957 22.4475 67.6133 22.4665L67.7783 22.6125C67.9205 22.7415 68.1197 22.9311 68.3643 23.172C68.8517 23.6499 69.5022 24.3345 70.183 25.1291C70.8639 25.9238 71.4328 26.6786 71.8292 27.2361C72.0188 27.5149 72.1819 27.7444 72.2862 27.9037L72.4057 28.0933C72.421 28.1142 72.4331 28.1372 72.4417 28.1616C72.4225 28.144 72.4053 28.1243 72.3905 28.1028L72.2597 27.9264L71.7799 27.2759C71.3721 26.7279 70.7937 25.9826 70.1185 25.1898C69.4434 24.3971 68.791 23.7087 68.3207 23.2194L67.7517 22.6504L67.5981 22.4911C67.5792 22.4697 67.5638 22.4454 67.5526 22.4191Z" fill="#263238"/>
<path d="M76.5495 18.3795C76.5028 18.4513 76.4495 18.5187 76.3902 18.5805L75.9369 19.1153C75.5576 19.5705 75.0475 20.2077 74.5222 20.9417C73.9968 21.6756 73.5587 22.3659 73.2534 22.8704L72.8931 23.4716C72.8516 23.5471 72.8053 23.62 72.7546 23.6897C72.784 23.6087 72.8208 23.5306 72.8646 23.4564C72.9386 23.3085 73.0543 23.098 73.2003 22.84C73.4943 22.3261 73.9267 21.6282 74.4539 20.8924C74.9811 20.1565 75.4988 19.5212 75.8914 19.0774C76.0811 18.8555 76.2499 18.6773 76.3655 18.5597C76.4223 18.4951 76.4838 18.4349 76.5495 18.3795Z" fill="#263238"/>
<path d="M69.7924 12.2539C69.8389 12.3284 69.8783 12.4071 69.9099 12.4891C69.982 12.6446 70.0806 12.8684 70.1982 13.149C70.4353 13.7066 70.7482 14.4766 71.0687 15.3547C71.3892 16.2327 71.6604 17.0179 71.8444 17.5963C71.9373 17.8865 72.0074 18.1197 72.0549 18.2847C72.0835 18.3674 72.1051 18.4525 72.1193 18.5388C72.0804 18.4603 72.0486 18.3785 72.0245 18.2942L71.7875 17.6153C71.5883 17.0463 71.3114 16.2517 70.989 15.3831C70.6666 14.5145 70.3651 13.7351 70.1432 13.1718L69.8796 12.5023C69.8452 12.4215 69.8161 12.3385 69.7924 12.2539Z" fill="#263238"/>
<path d="M50.911 59.2829C50.911 59.2829 51.8934 63.2067 50.911 64.7978C50.8712 64.8642 50.8276 64.9306 50.7821 64.9875C50.1432 65.9061 49.221 66.5901 48.1566 66.935C47.0921 67.2799 45.944 67.2666 44.8878 66.8972L33.837 63.1043L34.681 60.1382L41.7757 61.0144L49.3464 58.9529L50.911 59.2829Z" fill="#FFBE9D"/>
<path d="M45.9839 53.2236C45.9839 53.2236 49.5228 63.5348 49.3464 66.0078C49.17 68.4808 42.3294 81.4376 42.3294 81.4376L39.333 80.0607C39.333 80.0607 40.4823 76.4252 41.2484 73.2448C41.6277 71.6385 41.787 69.687 42.0829 68.898C42.9818 66.5407 44.0325 65.3137 44.0325 65.3137L39.2097 55.4008L45.9839 53.2236Z" fill="#FFBE9D"/>
<path d="M36.2872 46.3489C36.2872 46.3489 35.2423 49.2239 35.9648 51.9397C36.6874 54.6554 43.4881 65.784 43.4881 65.784L51.3585 61.2324C51.3585 61.2324 51.0551 51.3138 48.3128 45.7799L36.2872 46.3489Z" fill="#263238"/>
<path d="M49.2838 62.4121C49.2838 62.4121 49.3027 62.4406 49.3293 62.4993C49.3558 62.5581 49.3938 62.6454 49.4336 62.7611C49.5475 63.0888 49.6233 63.4286 49.6593 63.7738C49.7099 64.2868 49.6965 64.804 49.6194 65.3137C49.5758 65.602 49.5246 65.8997 49.4469 66.207C49.3691 66.5142 49.2667 66.8252 49.1548 67.1381C48.7053 68.3974 48.2236 69.503 47.8728 70.3034C47.6964 70.7035 47.5504 71.024 47.4461 71.2516C47.3968 71.3521 47.3569 71.4413 47.3247 71.5038C47.3117 71.5341 47.2951 71.5628 47.2754 71.5892C47.2815 71.557 47.2916 71.5258 47.3057 71.4962L47.41 71.2364L47.8083 70.2882C48.1421 69.4803 48.6143 68.3708 49.0619 67.1173C49.1719 66.8044 49.2724 66.4952 49.352 66.1956C49.4317 65.8959 49.4848 65.5963 49.5303 65.3118C49.611 64.8103 49.632 64.3011 49.5929 63.7946C49.5654 63.4526 49.5018 63.1144 49.4032 62.7857C49.3274 62.5392 49.2743 62.4159 49.2838 62.4121Z" fill="#EB996E"/>
<path d="M41.5253 71.8907C41.5233 71.8018 41.529 71.713 41.5424 71.6252C41.5575 71.4526 41.5879 71.206 41.6296 70.9026C41.7323 70.106 41.9134 69.3215 42.1701 68.5605C42.4498 67.8067 42.813 67.0866 43.253 66.4136C43.418 66.1557 43.5564 65.9471 43.655 65.8068C43.7019 65.731 43.7558 65.6598 43.8162 65.5944C43.7804 65.6759 43.7373 65.7539 43.6873 65.8276C43.5887 65.9907 43.4635 66.2069 43.308 66.4497C42.8889 67.1278 42.5376 67.8456 42.2592 68.5927C42.0045 69.3484 41.8142 70.1243 41.6903 70.9121C41.641 71.2004 41.6011 71.4412 41.5708 71.629C41.5652 71.7176 41.55 71.8054 41.5253 71.8907Z" fill="#EB996E"/>
<path d="M49.2402 60.2538C49.2243 60.2252 49.2121 60.1946 49.2041 60.1628L49.1188 59.8992C49.0448 59.6545 48.9424 59.3302 48.8191 58.9263C48.5669 58.1032 48.2085 56.971 47.7837 55.7307C47.3588 54.4904 46.9473 53.3753 46.6458 52.5693L46.2854 51.6211C46.2475 51.5167 46.2172 51.4314 46.1906 51.3612C46.1773 51.3317 46.1683 51.3004 46.1641 51.2683C46.1835 51.2943 46.1989 51.323 46.2096 51.3537L46.3215 51.6078C46.4182 51.8278 46.5509 52.1502 46.7102 52.556C47.0308 53.3544 47.4518 54.4677 47.8785 55.7099C48.3052 56.9521 48.6522 58.0899 48.8893 58.9168C49.0069 59.3302 49.0998 59.6754 49.1586 59.9011C49.1852 60.0073 49.2079 60.0907 49.225 60.1685C49.2341 60.1961 49.2392 60.2248 49.2402 60.2538Z" fill="#455A64"/>
<path d="M44.609 52.5598C44.5976 52.5731 44.3625 52.3797 43.9434 52.1274C43.6986 51.9809 43.4453 51.8491 43.1848 51.733C42.8637 51.5943 42.5336 51.4777 42.1967 51.384C41.8578 51.296 41.513 51.2326 41.165 51.1944C40.881 51.1629 40.5954 51.1496 40.3097 51.1545C39.8204 51.164 39.5208 51.2133 39.517 51.1944C39.5844 51.1703 39.6544 51.1544 39.7256 51.147C39.9181 51.1135 40.1126 51.0926 40.3078 51.0844C40.5968 51.0697 40.8864 51.076 41.1745 51.1033C41.528 51.1384 41.878 51.2019 42.2213 51.293C42.5638 51.3875 42.8985 51.508 43.2227 51.6533C43.4851 51.7749 43.7386 51.915 43.9813 52.0724C44.1461 52.177 44.3039 52.2923 44.4535 52.4176C44.5109 52.4586 44.5631 52.5063 44.609 52.5598Z" fill="#455A64"/>
<path d="M47.5049 41.4181C47.5618 40.1171 49.0979 38.4823 48.7016 34.7918C48.2843 30.921 47.6964 27.5093 47.6964 27.5093L44.7777 28.2205L44.2771 27.5093L39.4581 28.6472L38.6995 29.3621L35.356 30.7295C35.1583 30.8108 34.9789 30.9311 34.8287 31.0833C34.6785 31.2355 34.5605 31.4164 34.4817 31.6152L32.1529 37.5379L27.0912 34.1337L25.1738 36.7338C25.1738 36.7338 31.546 42.5806 33.2111 42.4118C34.7036 42.2601 35.9534 39.9957 36.5736 38.6397L37.5332 42.6394C37.5332 42.6394 36.016 45.3134 35.7107 49.846L45.7203 50.2253C46.0291 50.2374 46.3365 50.1775 46.6182 50.0505C46.8999 49.9234 47.1483 49.7327 47.3437 49.4933L49.2402 47.1777C49.2402 47.1777 47.448 42.7115 47.5049 41.4181Z" fill="#00610B"/>
<path d="M46.3329 28.2242L47.6244 27.6325L52.6975 23.2118L54.5219 15.5007L57.7459 16.8491C57.7459 16.8491 57.4368 22.6429 57.0328 24.6247C56.6289 26.6065 48.4816 33.0735 48.4816 33.0735L46.3329 28.2242Z" fill="#00610B"/>
<path d="M48.1023 29.4058C48.1453 29.6233 48.1763 29.8429 48.1952 30.0638C48.2502 30.4981 48.3204 31.0481 48.3962 31.655C48.4721 32.2619 48.5366 32.8422 48.5707 33.2499C48.5897 33.4547 48.601 33.6292 48.6067 33.7354C48.6157 33.7951 48.6157 33.8559 48.6067 33.9156C48.5591 33.6986 48.5256 33.4788 48.5062 33.2575C48.4512 32.8232 48.3811 32.2751 48.3033 31.6683C48.2255 31.0614 48.163 30.4811 48.1307 30.0714C48.1137 29.8666 48.1042 29.7016 48.1004 29.5859C48.0914 29.5262 48.0921 29.4653 48.1023 29.4058Z" fill="#263238"/>
<path d="M44.6394 39.7624C44.6051 39.7329 44.5733 39.7006 44.5446 39.6657L44.2885 39.3736C44.061 39.11 43.7423 38.7421 43.3555 38.2908L40.3059 34.6874L38.6294 32.6942L38.6086 32.6696L38.6256 32.643L38.9993 31.9925L39.0448 32.0551C38.8248 32.1006 38.6181 32.112 38.4284 32.1519L38.3734 32.1651V32.1082C38.4758 31.3041 38.5631 30.6385 38.62 30.1624C38.6503 29.9387 38.675 29.7604 38.6939 29.6276C38.6991 29.5635 38.7105 29.4999 38.7281 29.438C38.7294 29.5014 38.7256 29.5648 38.7167 29.6276C38.7034 29.7623 38.6863 29.9406 38.6636 30.1662C38.6124 30.6423 38.5403 31.3041 38.4531 32.1158L38.4038 32.0741C38.5934 32.0286 38.8115 32.0153 39.0201 31.9698L39.113 31.9489L39.0675 32.0324C38.9518 32.241 38.8305 32.4591 38.7034 32.6848V32.6336C39.2173 33.2442 39.7882 33.9175 40.3856 34.6249L43.4199 38.2433L44.3284 39.3471L44.5711 39.6505C44.5978 39.6853 44.6207 39.7228 44.6394 39.7624Z" fill="#263238"/>
<path d="M45.3885 39.2143C45.3872 39.1722 45.391 39.1302 45.3999 39.0891L45.4511 38.7307C45.4985 38.4196 45.5744 37.9721 45.673 37.4164C45.7716 36.8607 45.8873 36.2046 45.9954 35.4706C46.1178 34.677 46.1881 33.8763 46.2059 33.0735C46.2282 32.2052 46.1646 31.3368 46.0162 30.481L46.0504 30.5151L45.3885 30.3577L45.288 30.3331L45.3771 30.2799L45.8607 29.9955L45.8493 30.0505C45.6388 29.7508 45.4833 29.4645 45.3373 29.2141C45.1913 28.9638 45.0718 28.7514 44.9694 28.5693C44.867 28.3873 44.7797 28.2564 44.7285 28.1635C44.6962 28.1185 44.6676 28.071 44.6432 28.0212C44.6548 28.0305 44.665 28.0414 44.6735 28.0535C44.6999 28.085 44.7246 28.118 44.7475 28.1521C44.8101 28.2393 44.8973 28.374 45.0054 28.5466L45.3847 29.1838C45.5345 29.4284 45.6976 29.7148 45.9062 30.005L45.9309 30.0391L45.8949 30.0619L45.4151 30.352L45.4037 30.2762L46.0655 30.4279H46.094V30.4563C46.2541 31.3192 46.3259 32.1961 46.3083 33.0735C46.2894 33.8818 46.2147 34.6878 46.0845 35.4858C45.9726 36.2216 45.8456 36.8797 45.7412 37.4316C45.6369 37.9834 45.5516 38.4177 45.489 38.7382C45.4606 38.8843 45.4378 39.0019 45.4188 39.0929C45.4128 39.1343 45.4027 39.1749 45.3885 39.2143Z" fill="#263238"/>
<path d="M46.0161 41.2549C45.972 41.294 45.9221 41.3259 45.8682 41.3497C45.7696 41.4047 45.6255 41.4787 45.4453 41.5659C44.5029 42.0172 43.5149 42.3662 42.4982 42.6071C42.3085 42.6526 42.1454 42.6867 42.0354 42.7057C41.9787 42.7213 41.9198 42.7277 41.861 42.7247C42.0639 42.6498 42.271 42.5865 42.4811 42.535C42.8604 42.4269 43.3933 42.2676 43.9661 42.0647C44.5388 41.8618 45.0508 41.6531 45.4169 41.4957C45.6114 41.403 45.8115 41.3226 46.0161 41.2549Z" fill="#263238"/>
<path d="M46.1774 42.8062C46.0213 42.8242 45.8639 42.8287 45.7071 42.8195C45.4169 42.8195 45.0167 42.8195 44.5692 42.8422C44.1216 42.865 43.729 42.8934 43.4408 42.9181C43.2887 42.9386 43.135 42.9443 42.9818 42.9352C43.1322 42.8871 43.2874 42.8553 43.4446 42.8403C43.7328 42.7986 44.1349 42.755 44.5824 42.736C45.03 42.7171 45.4302 42.7247 45.7203 42.736C45.8749 42.7413 46.0283 42.7649 46.1774 42.8062Z" fill="#263238"/>
<path d="M45.4473 41.2947C45.3901 40.9513 45.3647 40.6034 45.3714 40.2554C45.3463 39.9084 45.3539 39.5598 45.3942 39.2142C45.4524 39.5575 45.4778 39.9055 45.47 40.2535C45.4963 40.6005 45.4887 40.9492 45.4473 41.2947Z" fill="#263238"/>
<path d="M45.2937 42.7133C45.2193 42.5433 45.175 42.3617 45.1628 42.1766C45.1184 41.9955 45.1068 41.8079 45.1287 41.6228C45.2476 41.9737 45.3035 42.3429 45.2937 42.7133Z" fill="#263238"/>
<path d="M46.4789 50.1134C46.46 50.0204 46.4498 49.9258 46.4486 49.8308C46.4353 49.6412 46.4163 49.3833 46.386 49.059C46.331 48.4066 46.2324 47.5076 46.0863 46.5215C45.9403 45.5353 45.7677 44.6421 45.6369 44.0086C45.5705 43.6881 45.5098 43.4302 45.47 43.25C45.4423 43.1586 45.4245 43.0645 45.4169 42.9694C45.4544 43.0572 45.4849 43.1479 45.5079 43.2406C45.5591 43.415 45.6293 43.6711 45.6976 43.9897C45.8531 44.6269 46.0351 45.5163 46.183 46.5044C46.331 47.4925 46.4182 48.4009 46.4561 49.0514C46.477 49.3795 46.4846 49.6431 46.4865 49.827C46.4935 49.9225 46.4909 50.0184 46.4789 50.1134Z" fill="#263238"/>
<g opacity="0.3">
<path d="M38.3809 32.1385L38.6047 32.2314L38.3582 32.8004C38.3582 32.8004 42.1511 37.4391 43.1885 38.3362C44.4402 39.4248 44.4762 39.5651 44.4762 39.5651L38.6635 32.66L39.0295 32.0095L38.3809 32.1385Z" fill="black"/>
</g>
<g opacity="0.3">
<path d="M41.1062 42.9541L46.6894 41.2131C46.7223 41.3757 46.7098 41.5441 46.6533 41.7C46.5968 41.8559 46.4984 41.9932 46.3689 42.0969C46.106 42.3 45.8017 42.4431 45.4776 42.516C44.133 42.8953 42.5115 43.1305 41.1271 42.9541" fill="black"/>
</g>
<path d="M33.5316 38.763C33.2165 38.1291 32.6626 37.6462 31.9917 37.4202C32.098 37.417 32.2036 37.4378 32.3008 37.4809C32.7885 37.6524 33.1923 38.0038 33.4292 38.4633C33.4844 38.5547 33.5193 38.6569 33.5316 38.763Z" fill="#263238"/>
<path d="M35.5172 33.5798C35.5316 33.6079 35.5419 33.6379 35.5476 33.669C35.5665 33.741 35.5893 33.8264 35.6158 33.9307C35.6727 34.1753 35.7505 34.4996 35.8453 34.8998C36.035 35.7172 36.2929 36.8494 36.5698 38.0991C36.8466 39.3489 37.0856 40.4716 37.2677 41.3061C37.3511 41.7063 37.4194 42.0362 37.4687 42.2809C37.4895 42.3871 37.5066 42.4705 37.5199 42.5464C37.5273 42.5769 37.5317 42.608 37.5332 42.6393C37.4895 42.5255 37.4558 42.4081 37.4327 42.2885C37.3739 42.0457 37.2942 41.7195 37.1994 41.3213C37.0097 40.5039 36.7499 39.3736 36.473 38.1219C36.1962 36.8702 35.9496 35.7285 35.7751 34.915C35.6936 34.5148 35.6253 34.1848 35.5855 33.9402C35.5665 33.834 35.5495 33.7505 35.5362 33.6728C35.526 33.6427 35.5196 33.6115 35.5172 33.5798Z" fill="#263238"/>
<path d="M25.9969 36.4871C25.9781 36.565 25.982 36.6466 26.0083 36.7223C26.0232 36.76 26.0462 36.794 26.0757 36.8218C26.1052 36.8497 26.1405 36.8707 26.179 36.8835C26.2255 36.8942 26.2742 36.8905 26.3186 36.8729C26.363 36.8553 26.4009 36.8246 26.4274 36.7848C26.4578 36.7483 26.4765 36.7034 26.4812 36.6561C26.4859 36.6088 26.4765 36.5612 26.454 36.5193C26.4305 36.4863 26.4002 36.4585 26.3653 36.4379C26.3303 36.4173 26.2914 36.4044 26.2511 36.3999C26.1708 36.3955 26.0911 36.4146 26.0216 36.4549C26.0216 36.4549 26.0216 36.4245 26.0633 36.3923C26.1176 36.3507 26.1846 36.3293 26.2529 36.3316C26.3061 36.3317 26.3586 36.3442 26.406 36.3683C26.4534 36.3923 26.4945 36.4272 26.526 36.47C26.5593 36.5281 26.5747 36.5947 26.5704 36.6615C26.5661 36.7283 26.5423 36.7924 26.5019 36.8457C26.4614 36.8991 26.4062 36.9394 26.3431 36.9616C26.2799 36.9838 26.2117 36.987 26.1467 36.9707C26.0966 36.9527 26.0516 36.923 26.0153 36.8841C25.979 36.8452 25.9525 36.7981 25.9381 36.7469C25.9134 36.6815 25.9134 36.6094 25.9381 36.544C25.9685 36.5004 25.9931 36.4871 25.9969 36.4871Z" fill="#263238"/>
<path d="M54.9467 16.5741C54.9467 16.5741 54.9619 16.5457 55.0169 16.5305C55.055 16.5254 55.0938 16.528 55.1309 16.5381C55.1681 16.5482 55.2028 16.5656 55.2331 16.5893C55.3271 16.6572 55.3905 16.7594 55.4095 16.8738C55.4148 16.9481 55.3952 17.0221 55.3536 17.084C55.312 17.1459 55.2509 17.1921 55.18 17.2152C55.1128 17.2431 55.0391 17.2512 54.9674 17.2385C54.8958 17.2257 54.8294 17.1926 54.7761 17.1431C54.7366 17.099 54.7096 17.0452 54.6979 16.9871C54.6863 16.9291 54.6903 16.869 54.7097 16.8131C54.7704 16.6235 54.8766 16.5666 54.8823 16.5741C54.84 16.6562 54.8051 16.7419 54.7779 16.8302C54.766 16.8735 54.7655 16.9191 54.7765 16.9626C54.7875 17.0062 54.8095 17.0461 54.8405 17.0786C54.8824 17.1134 54.933 17.136 54.9868 17.144C55.0407 17.1521 55.0957 17.1452 55.1459 17.1241C55.1968 17.1081 55.2412 17.076 55.2724 17.0325C55.3035 16.9891 55.3197 16.9367 55.3184 16.8833C55.3056 16.7907 55.2598 16.7059 55.1895 16.6443C55.144 16.6 55.0841 16.5737 55.0207 16.5704C54.9752 16.5741 54.9505 16.5912 54.9467 16.5741Z" fill="#263238"/>
<path d="M28.1684 29.5916C29.4125 28.0042 31.0928 26.7469 33.122 26.4245C34.1689 26.2557 35.1835 26.4245 36.1773 26.7677C37.2317 27.1262 38.2425 27.551 39.3558 27.697C40.634 27.8658 41.9179 27.7482 43.1924 27.6022C43.4389 27.5737 44.3511 27.3424 44.3511 27.0731C44.3511 26.8455 43.4408 26.652 43.1924 26.6805C42.0355 26.8132 40.8654 26.9289 39.7009 26.817C38.563 26.707 37.5295 26.2576 36.4617 25.8935C35.4201 25.5092 34.3036 25.3716 33.1998 25.4914C32.0955 25.6325 31.0346 26.0103 30.0896 26.5989C29.101 27.2227 28.2299 28.0155 27.5161 28.9411C27.4339 29.0295 27.3883 29.1457 27.3883 29.2663C27.3883 29.387 27.4339 29.5032 27.5161 29.5916C27.603 29.6773 27.7202 29.7253 27.8422 29.7253C27.9643 29.7253 28.0815 29.6773 28.1684 29.5916Z" fill="#455A64"/>
<g opacity="0.3">
<path d="M28.1722 29.6048C29.4163 28.0175 31.0966 26.7601 33.1258 26.4377C34.1576 26.2975 35.208 26.4154 36.1829 26.781C37.2374 27.1375 38.2482 27.5642 39.3596 27.7102C40.6378 27.879 41.9236 27.7614 43.1961 27.6154C43.4446 27.587 44.3511 27.4258 44.3511 27.1584C44.3511 26.9308 43.4446 26.6653 43.1961 26.6937C42.0393 26.8265 40.8692 26.9422 39.7047 26.8284C38.5668 26.7203 37.5351 26.2708 36.4674 25.9067C35.425 25.5229 34.3081 25.3846 33.2036 25.5027C32.0992 25.6448 31.0384 26.0232 30.0934 26.6122C29.1054 27.2359 28.2349 28.0288 27.5217 28.9543C27.4388 29.0423 27.3926 29.1586 27.3926 29.2796C27.3926 29.4005 27.4388 29.5168 27.5217 29.6048C27.6083 29.6904 27.7252 29.7384 27.847 29.7384C27.9687 29.7384 28.0856 29.6904 28.1722 29.6048Z" fill="black"/>
</g>
<path d="M46.2058 18.3966C46.6382 18.152 46.7236 17.4939 46.4296 17.0899C46.2707 16.8972 46.0576 16.7565 45.8179 16.6862C45.5782 16.6158 45.3229 16.6191 45.085 16.6955C45.136 16.5515 45.1392 16.395 45.0941 16.2491C45.049 16.1032 44.958 15.9757 44.8347 15.8857C44.583 15.7115 44.2813 15.6243 43.9756 15.6372C43.5678 15.6372 43.1013 15.7643 42.9344 16.136C42.8699 15.8933 42.5949 15.77 42.3446 15.7567C42.0085 15.7452 41.6799 15.858 41.4217 16.0736C41.1635 16.2891 40.9938 16.5922 40.945 16.925C40.7208 16.797 40.4623 16.742 40.2054 16.7675C40.0776 16.7835 39.9586 16.8413 39.8671 16.9318C39.7755 17.0223 39.7164 17.1406 39.699 17.2682C39.6131 17.1751 39.5053 17.105 39.3854 17.0643C39.2655 17.0235 39.1373 17.0134 39.0125 17.035C38.8284 17.0402 38.6504 17.1018 38.5023 17.2113C38.4298 17.2674 38.376 17.3443 38.3482 17.4317C38.3204 17.5191 38.32 17.6129 38.3468 17.7006C38.1722 17.6709 37.9928 17.707 37.8432 17.802C37.6937 17.897 37.5848 18.0441 37.5376 18.2148C37.4904 18.3855 37.5082 18.5677 37.5876 18.726C37.6671 18.8844 37.8024 19.0076 37.9675 19.0718C37.8477 19.1704 37.7549 19.2979 37.698 19.4423C37.6411 19.5867 37.6219 19.7432 37.6422 19.8971C37.6625 20.051 37.7216 20.1971 37.8141 20.3218C37.9065 20.4465 38.0291 20.5456 38.1704 20.6098C38.1359 20.625 38.1053 20.6478 38.0809 20.6766C38.0565 20.7054 38.039 20.7393 38.0296 20.7759C38.0203 20.8124 38.0194 20.8506 38.0271 20.8876C38.0347 20.9245 38.0507 20.9593 38.0737 20.9891C38.1648 21.1143 38.1041 21.1219 38.2634 21.1181C38.2937 21.6491 38.3354 22.0568 38.3658 22.5878C38.3866 22.9311 38.3791 23.3806 38.5042 23.6992C38.5981 23.8776 38.7263 24.0356 38.8816 24.1642C39.0369 24.2928 39.2161 24.3893 39.4088 24.4483L45.7336 22.0739C45.9434 21.8511 46.0857 21.5733 46.1441 21.2729C46.2025 20.9725 46.1746 20.6617 46.0636 20.3765C46.0434 20.3511 46.0292 20.3215 46.0221 20.2898C46.015 20.2581 46.0152 20.2252 46.0227 20.1936C46.0302 20.162 46.0447 20.1325 46.0653 20.1074C46.0859 20.0822 46.1119 20.0621 46.1413 20.0485C46.2695 19.9498 46.3763 19.8262 46.4552 19.685C46.5341 19.5439 46.5835 19.3881 46.6003 19.2273C46.6122 19.0665 46.5822 18.9054 46.513 18.7597C46.4439 18.6141 46.338 18.489 46.2058 18.3966Z" fill="#263238"/>
<path d="M45.6369 20.5568C45.4947 19.2767 44.0534 18.0592 42.7922 18.2545L38.6882 19.2293L38.7356 19.9196L39.7825 29.2123L44.2184 31.856L43.9585 27.2874C43.9585 27.2874 45.5781 26.9385 45.8133 24.7803C45.9309 23.7164 45.7924 21.9716 45.6369 20.5568Z" fill="#FFBE9D"/>
<path d="M44.846 22.4172C44.8497 22.4883 44.8257 22.5581 44.779 22.6118C44.7323 22.6656 44.6666 22.6992 44.5957 22.7054C44.5268 22.7123 44.458 22.6917 44.4043 22.6479C44.3507 22.6042 44.3165 22.541 44.3093 22.4722C44.3046 22.4006 44.3282 22.3301 44.375 22.2758C44.4219 22.2215 44.4882 22.1878 44.5596 22.182C44.6287 22.1757 44.6975 22.1968 44.7511 22.2408C44.8047 22.2848 44.8388 22.3482 44.846 22.4172Z" fill="#263238"/>
<path d="M45.3012 21.4747C45.2689 21.5126 45.0527 21.3685 44.7588 21.3836C44.4648 21.3988 44.2562 21.5562 44.224 21.5221C44.1917 21.4879 44.2372 21.4405 44.3283 21.3666C44.4515 21.273 44.6004 21.2194 44.755 21.2129C44.9087 21.2037 45.0612 21.245 45.1893 21.3305C45.2822 21.395 45.3163 21.4595 45.3012 21.4747Z" fill="#263238"/>
<path d="M42.2707 22.4988C42.2754 22.5698 42.252 22.6399 42.2055 22.6938C42.159 22.7477 42.0932 22.7812 42.0222 22.787C41.9875 22.7915 41.9523 22.789 41.9186 22.7796C41.8849 22.7703 41.8534 22.7542 41.826 22.7325C41.7986 22.7107 41.7758 22.6837 41.759 22.653C41.7422 22.6223 41.7318 22.5886 41.7283 22.5538C41.7235 22.4825 41.7469 22.4123 41.7933 22.358C41.8397 22.3038 41.9056 22.2699 41.9767 22.2636C42.0115 22.2591 42.0469 22.2617 42.0808 22.2712C42.1146 22.2807 42.1461 22.2969 42.1736 22.3188C42.201 22.3408 42.2237 22.368 42.2404 22.3989C42.2571 22.4298 42.2674 22.4638 42.2707 22.4988Z" fill="#263238"/>
<path d="M42.4223 21.7306C42.39 21.7685 42.1757 21.6244 41.8818 21.6396C41.5878 21.6548 41.3792 21.8122 41.3451 21.7761C41.311 21.7401 41.3603 21.6965 41.4513 21.6225C41.573 21.5282 41.721 21.4739 41.8748 21.4672C42.0287 21.4604 42.1808 21.5014 42.3104 21.5846C42.4128 21.651 42.4375 21.7135 42.4223 21.7306Z" fill="#263238"/>
<path d="M43.5849 23.8092C43.7375 23.7521 43.8969 23.7151 44.059 23.6993C44.133 23.6879 44.2031 23.6689 44.2145 23.6177C44.2167 23.5394 44.1956 23.4622 44.1538 23.3958L43.9035 22.8269C43.5546 22.0228 43.2985 21.3609 43.3346 21.3476C43.3706 21.3343 43.6759 21.9735 44.0249 22.7776C44.1083 22.9672 44.188 23.1569 44.2657 23.3465C44.3167 23.4355 44.3355 23.5393 44.3188 23.6405C44.3093 23.6679 44.2935 23.6928 44.2728 23.7132C44.2521 23.7336 44.227 23.7489 44.1994 23.758C44.1588 23.7711 44.1167 23.7787 44.0742 23.7808C43.9128 23.8098 43.7485 23.8194 43.5849 23.8092Z" fill="#263238"/>
<path d="M43.9585 27.2949C42.9547 27.358 41.9532 27.14 41.0664 26.6653C41.0664 26.6653 41.9388 28.2564 44.0628 27.9549L43.9585 27.2949Z" fill="#EB996E"/>
<path d="M43.4958 24.526C43.4363 24.4582 43.3605 24.4066 43.2756 24.3761C43.1906 24.3456 43.0994 24.3372 43.0103 24.3516C42.9462 24.3595 42.8844 24.3804 42.8286 24.413C42.7729 24.4456 42.7244 24.4892 42.686 24.5412C42.65 24.593 42.6307 24.6545 42.6307 24.7176C42.6307 24.7806 42.65 24.8422 42.686 24.8939C42.7355 24.9451 42.7993 24.9801 42.869 24.9943C42.9387 25.0085 43.0111 25.0013 43.0767 24.9736C43.2137 24.9181 43.3382 24.8355 43.4427 24.7309C43.4746 24.7056 43.5016 24.6748 43.5223 24.6398C43.5326 24.6233 43.538 24.6043 43.538 24.5848C43.538 24.5654 43.5326 24.5463 43.5223 24.5298" fill="#EB996E"/>
<path d="M42.7296 24.0538C42.777 24.0538 42.7941 24.3686 43.0786 24.5848C43.363 24.801 43.7006 24.7479 43.7044 24.7916C43.7082 24.8352 43.6324 24.8579 43.4882 24.8693C43.3015 24.8807 43.1167 24.8256 42.9667 24.7138C42.8221 24.6056 42.7244 24.4461 42.6936 24.2681C42.6765 24.1335 42.7069 24.0538 42.7296 24.0538Z" fill="#263238"/>
<path d="M42.4603 20.6705C42.4338 20.752 42.1398 20.7293 41.7966 20.7861C41.4533 20.843 41.1783 20.953 41.129 20.8829C41.1062 20.8487 41.1518 20.771 41.2599 20.6932C41.4058 20.5915 41.5729 20.5241 41.7487 20.4962C41.9244 20.4682 42.1042 20.4805 42.2745 20.532C42.4129 20.5718 42.4698 20.6325 42.4603 20.6705Z" fill="#263238"/>
<path d="M45.1514 20.6251C45.1021 20.6952 44.8953 20.6251 44.6526 20.644C44.4098 20.663 44.205 20.7104 44.1538 20.644C44.1311 20.6099 44.1538 20.5416 44.2467 20.4733C44.3641 20.391 44.5036 20.3461 44.6469 20.3444C44.7903 20.3404 44.9313 20.3808 45.0508 20.4601C45.14 20.5245 45.1722 20.5909 45.1514 20.6251Z" fill="#263238"/>
<path d="M44.6356 18.1236L44.5028 18.0686C44.7095 17.6058 44.3606 17.0122 43.8675 16.8965C43.6173 16.8535 43.3599 16.8925 43.1337 17.0077C42.9074 17.1229 42.7245 17.308 42.612 17.5357C42.4984 17.3371 42.3209 17.1827 42.1085 17.0977C41.8961 17.0127 41.6612 17.0019 41.4419 17.0672C41.0835 17.1867 40.8274 17.4939 40.5809 17.7822C40.5259 17.8467 40.4557 17.9169 40.3704 17.9074C40.3096 17.8913 40.2553 17.8568 40.2149 17.8088C40.0013 17.6326 39.7397 17.5248 39.464 17.4995C39.1883 17.4741 38.9114 17.5323 38.6692 17.6665C38.4307 17.8065 38.2227 17.993 38.0576 18.2148C37.8924 18.4366 37.7735 18.6894 37.7077 18.958C37.6389 19.1752 37.6272 19.4064 37.6736 19.6294C37.6977 19.7399 37.7505 19.8421 37.8268 19.9257C37.9031 20.0093 38 20.0713 38.1079 20.1054C38.0116 20.2406 37.9477 20.3962 37.9211 20.56C37.8945 20.7239 37.9059 20.8917 37.9545 21.0504C38.0031 21.2091 38.0875 21.3546 38.2012 21.4755C38.315 21.5964 38.455 21.6896 38.6105 21.7477C38.6332 21.82 38.6644 21.8894 38.7034 21.9545C38.6674 22.344 38.6541 22.7354 38.6636 23.1265C38.6578 23.2954 38.693 23.4633 38.766 23.6158C38.8049 23.6903 38.8663 23.7507 38.9416 23.7882C39.0169 23.8256 39.1021 23.8383 39.1851 23.8244C39.3615 23.7751 39.608 23.684 39.6611 23.5077C39.754 23.1929 39.6516 22.7586 39.6763 22.4305C39.8589 22.4033 40.03 22.3242 40.1689 22.2025C40.3079 22.0809 40.409 21.9219 40.4601 21.7444C40.5113 21.567 40.5104 21.3786 40.4575 21.2016C40.4046 21.0247 40.3019 20.8667 40.1618 20.7464C40.3149 20.8103 40.481 20.8368 40.6463 20.8239C40.8117 20.811 40.9716 20.7589 41.1129 20.6721C41.2543 20.5852 41.3729 20.466 41.4591 20.3243C41.5453 20.1826 41.5966 20.0224 41.6088 19.857C41.76 19.9983 41.94 20.1053 42.1363 20.1708C42.3327 20.2362 42.5409 20.2586 42.7467 20.2362C42.9446 20.2255 43.1304 20.1377 43.2644 19.9916C43.3279 19.9161 43.3615 19.8199 43.3587 19.7213C43.3559 19.6227 43.3169 19.5286 43.2492 19.4568C43.438 19.5412 43.6474 19.5682 43.8514 19.5344C44.0554 19.5007 44.245 19.4078 44.3966 19.2671C44.543 19.1202 44.6436 18.9339 44.686 18.7309C44.7284 18.5278 44.7109 18.3168 44.6356 18.1236Z" fill="#263238"/>
<path d="M39.2856 22.7661C39.2533 22.7528 38.013 22.4285 38.0927 23.6859C38.1723 24.9432 39.4107 24.6076 39.4107 24.5715C39.4107 24.5355 39.2856 22.7661 39.2856 22.7661Z" fill="#FFBE9D"/>
<path d="M38.9992 24.1183C38.9992 24.1183 38.9784 24.1354 38.9423 24.1544C38.8918 24.18 38.8333 24.1847 38.7793 24.1676C38.6952 24.1204 38.625 24.052 38.5757 23.9691C38.5265 23.8862 38.4999 23.7918 38.4986 23.6954C38.4895 23.5881 38.5037 23.48 38.5403 23.3787C38.5498 23.3389 38.5687 23.3019 38.5954 23.2709C38.6221 23.2398 38.6559 23.2157 38.6939 23.2004C38.7187 23.192 38.7458 23.1927 38.7701 23.2025C38.7944 23.2122 38.8145 23.2303 38.8267 23.2535C38.8456 23.2877 38.8399 23.3123 38.8456 23.3142C38.8513 23.3161 38.8722 23.2915 38.8589 23.2403C38.8497 23.2095 38.8303 23.1827 38.8039 23.1644C38.7863 23.1525 38.7665 23.1442 38.7457 23.1399C38.7249 23.1357 38.7034 23.1356 38.6825 23.1397C38.6316 23.1529 38.5849 23.1791 38.547 23.2156C38.5091 23.2522 38.4813 23.2979 38.4663 23.3484C38.4193 23.4603 38.401 23.5822 38.4132 23.703C38.4133 23.8154 38.4466 23.9253 38.509 24.0188C38.5715 24.1123 38.6602 24.1852 38.7641 24.2283C38.7971 24.2344 38.8311 24.2335 38.8637 24.2256C38.8964 24.2178 38.927 24.2032 38.9537 24.1828C38.9992 24.1487 38.9992 24.1202 38.9992 24.1183Z" fill="#EB996E"/>
<path d="M41.5461 19.6446C41.5575 19.6458 41.5689 19.6458 41.5803 19.6446L41.6808 19.656C41.8075 19.6656 41.935 19.6592 42.0601 19.637C42.1511 19.6194 42.2396 19.5908 42.3237 19.5517C42.4234 19.5068 42.5131 19.4423 42.5873 19.362C42.6712 19.2665 42.7304 19.1519 42.7599 19.0282C42.7929 18.8886 42.774 18.7416 42.7068 18.6148L42.6727 18.6471C42.9348 18.8146 43.2443 18.8925 43.5545 18.8689C43.7238 18.8585 43.8898 18.8167 44.0438 18.7457C44.1246 18.708 44.1999 18.6596 44.2676 18.6015C44.3365 18.5384 44.387 18.4578 44.4136 18.3683C44.4404 18.2647 44.4437 18.1565 44.4231 18.0516C44.4065 17.9505 44.3818 17.8509 44.3491 17.7538C44.3193 17.6581 44.2765 17.5668 44.2221 17.4826C44.1951 17.4393 44.1588 17.4025 44.1159 17.3749C44.0729 17.3473 44.0243 17.3297 43.9736 17.3233V17.3745C44.1597 17.422 44.3564 17.4046 44.5312 17.3252C44.6918 17.2568 44.8299 17.1443 44.9295 17.0009C45.0159 16.8751 45.064 16.7268 45.0679 16.5742C45.0689 16.4148 45.0281 16.2578 44.9496 16.1191C44.8711 15.9803 44.7575 15.8646 44.6203 15.7834C44.5617 15.7487 44.4976 15.7243 44.4307 15.7113C44.4903 15.7374 44.5485 15.7665 44.6052 15.7985C44.7587 15.8957 44.8791 16.0372 44.9503 16.2044C45.0009 16.321 45.0255 16.4472 45.0224 16.5742C45.0192 16.7214 44.9716 16.8642 44.8858 16.9838C44.7905 17.1186 44.659 17.2238 44.5066 17.2873C44.3414 17.3607 44.1562 17.3761 43.9812 17.3309L43.9717 17.384C44.0147 17.3899 44.0557 17.4054 44.0919 17.4294C44.128 17.4534 44.1582 17.4852 44.1804 17.5224C44.2323 17.6013 44.272 17.6876 44.2979 17.7785C44.3737 17.9626 44.396 18.1644 44.3624 18.3607C44.3342 18.4389 44.2892 18.5101 44.2306 18.569C44.1719 18.628 44.101 18.6734 44.0229 18.7021C43.8747 18.7705 43.7154 18.8116 43.5526 18.8234C43.2538 18.847 42.9552 18.7739 42.7011 18.6148L42.6196 18.5617L42.667 18.6471C42.7302 18.7628 42.7485 18.8979 42.7182 19.0264C42.6917 19.1435 42.6377 19.2527 42.5608 19.345C42.491 19.4244 42.4058 19.4889 42.3104 19.5346C42.2297 19.5743 42.1444 19.6036 42.0563 19.6218C41.9316 19.6477 41.8043 19.6585 41.677 19.6541C41.6336 19.6482 41.5899 19.6451 41.5461 19.6446Z" fill="white"/>
<path d="M44.8783 19.0055C44.8783 19.0055 44.903 19.0225 44.9523 19.0358C45.0427 19.0589 45.1374 19.0601 45.2284 19.0393C45.3194 19.0185 45.4042 18.9764 45.4757 18.9163C45.5028 18.8924 45.5248 18.8633 45.5405 18.8308C45.5561 18.7982 45.565 18.7628 45.5667 18.7267C45.5684 18.6881 45.5592 18.6498 45.54 18.6163C45.5209 18.5827 45.4927 18.5552 45.4586 18.537L45.4397 18.5901H45.4586C45.5812 18.6183 45.7084 18.6191 45.8313 18.5925C45.9542 18.566 46.0698 18.5127 46.1698 18.4365C46.23 18.3909 46.2831 18.3366 46.3272 18.2753C46.3449 18.254 46.3584 18.2296 46.367 18.2032C46.2995 18.2763 46.2259 18.3436 46.147 18.4043C46.0497 18.4717 45.9395 18.5184 45.8233 18.5412C45.7072 18.564 45.5875 18.5626 45.4719 18.537H45.4548L45.1912 18.4782L45.4359 18.5882C45.4611 18.6025 45.4818 18.6236 45.4955 18.6491C45.5093 18.6746 45.5156 18.7035 45.5136 18.7324C45.5092 18.7896 45.4835 18.843 45.4416 18.8822C45.3644 18.9518 45.269 18.9978 45.1666 19.0149C45.0705 19.0259 44.9734 19.0227 44.8783 19.0055Z" fill="white"/>
<path d="M55.0718 15.6581L55.2103 14.8729C55.2103 14.8729 54.7513 13.1661 54.7987 12.9196C54.8461 12.673 54.8973 11.5029 54.8973 11.5029L56.0769 10.1753C56.1601 10.1722 56.2423 10.1938 56.3131 10.2373C56.384 10.2809 56.4404 10.3444 56.4752 10.42C56.4752 10.42 57.0138 10.3764 57.1352 10.7405C57.1815 10.7156 57.2334 10.703 57.2859 10.7038C57.3385 10.7045 57.3899 10.7187 57.4355 10.7449C57.481 10.7711 57.5192 10.8084 57.5463 10.8535C57.5734 10.8985 57.5885 10.9497 57.5903 11.0022C57.6146 11.1143 57.6254 11.2289 57.6226 11.3436C57.7003 11.3606 58.1479 11.4668 58.1517 11.6887C58.138 12.03 58.0741 12.3674 57.9621 12.6901C57.9386 12.7474 57.9014 12.7982 57.8538 12.8378C57.8062 12.8775 57.7496 12.9049 57.689 12.9177L57.5562 13.5226C57.5562 13.5226 57.4405 14.5164 57.2186 14.9791L57.0498 15.2541L56.9986 16.4925L55.0718 15.6581Z" fill="#FFBE9D"/>
<path d="M56.8261 11.2508C56.762 10.9338 56.6328 10.6335 56.4468 10.3689L55.9955 10.6572C56.048 10.8107 56.1114 10.9602 56.1851 11.1047C56.2165 11.1901 56.267 11.2671 56.3328 11.3299C56.3985 11.3926 56.4777 11.4395 56.5644 11.467C56.6649 11.4916 56.7939 11.467 56.8261 11.3683C56.8356 11.3297 56.8356 11.2894 56.8261 11.2508Z" fill="#FFBE9D"/>
<path d="M55.9973 10.6571C55.9995 10.689 56.0065 10.7203 56.0182 10.75C56.045 10.8318 56.0773 10.9116 56.1149 10.989C56.1377 11.0402 56.1604 11.0952 56.187 11.154C56.2159 11.217 56.2542 11.2752 56.3008 11.3266C56.3535 11.3851 56.4182 11.4317 56.4904 11.4631C56.5303 11.4801 56.5732 11.4888 56.6165 11.4888C56.6599 11.4888 56.7027 11.4801 56.7426 11.4631C56.764 11.4543 56.7832 11.4412 56.7992 11.4245C56.8152 11.4079 56.8276 11.3881 56.8356 11.3664C56.8459 11.3247 56.8459 11.2811 56.8356 11.2393C56.8234 11.1635 56.8057 11.0887 56.7825 11.0156C56.7445 10.8932 56.6956 10.7745 56.6364 10.6609C56.5852 10.5623 56.5378 10.4883 56.5056 10.4371C56.4888 10.4096 56.4698 10.3836 56.4487 10.3594C56.4611 10.3889 56.4757 10.4174 56.4923 10.4447C56.5226 10.4978 56.5644 10.5737 56.6118 10.6723C56.6679 10.7864 56.7142 10.905 56.7502 11.0269C56.7704 11.0987 56.7868 11.1715 56.7995 11.245C56.8081 11.2805 56.8081 11.3176 56.7995 11.3531C56.7935 11.3701 56.7839 11.3856 56.7715 11.3987C56.7591 11.4118 56.7441 11.4221 56.7275 11.429C56.6924 11.444 56.6546 11.4517 56.6165 11.4517C56.5784 11.4517 56.5406 11.444 56.5056 11.429C56.4383 11.4007 56.3781 11.358 56.3292 11.3038C56.2837 11.2545 56.2454 11.1989 56.2154 11.1388C56.1889 11.0838 56.1661 11.0269 56.1414 10.9776C56.1012 10.9019 56.0652 10.824 56.0333 10.7444C56.0237 10.7144 56.0116 10.6852 55.9973 10.6571Z" fill="#EB996E"/>
<path d="M56.7161 11.4536C56.7161 11.4536 56.7161 11.4536 56.7161 11.4801C56.7141 11.506 56.7141 11.532 56.7161 11.5579C56.7226 11.6529 56.7478 11.7457 56.79 11.831C56.8548 11.9572 56.9491 12.0659 57.065 12.1477C57.1001 12.1734 57.1401 12.1914 57.1826 12.2005C57.2251 12.2097 57.269 12.2098 57.3116 12.2008C57.3583 12.192 57.4006 12.1672 57.431 12.1306C57.4614 12.0915 57.478 12.0436 57.4784 11.9941C57.4733 11.9049 57.4587 11.8165 57.4348 11.7305C57.414 11.647 57.3912 11.5674 57.3684 11.4915L57.2452 11.0933C57.211 10.9814 57.1845 10.8884 57.1693 10.8259C57.1629 10.7914 57.1527 10.7577 57.139 10.7253C57.1403 10.7599 57.1454 10.7943 57.1541 10.8278C57.1674 10.8941 57.1883 10.9871 57.2205 11.1008C57.2528 11.2146 57.2926 11.3531 57.3362 11.501C57.3571 11.5769 57.3779 11.6565 57.3988 11.7381C57.4211 11.8212 57.4351 11.9063 57.4405 11.9922C57.4414 12.0334 57.428 12.0736 57.4026 12.106C57.3768 12.136 57.3424 12.1572 57.304 12.1667C57.266 12.1738 57.227 12.1733 57.1892 12.1652C57.1514 12.157 57.1156 12.1414 57.084 12.1193C56.9719 12.0463 56.8784 11.9482 56.8109 11.8329C56.767 11.7516 56.7387 11.6629 56.7274 11.5712C56.718 11.4991 56.7199 11.4536 56.7161 11.4536Z" fill="#EB996E"/>
<path d="M57.0044 12.1004C57.0044 12.1004 57.0044 12.1003 56.993 12.1307C56.9816 12.161 56.9816 12.18 56.974 12.2198C56.9564 12.331 56.9564 12.4443 56.974 12.5555C56.9961 12.7241 57.0743 12.8804 57.1959 12.9993C57.2702 13.0713 57.3693 13.112 57.4728 13.1131C57.5009 13.1126 57.5287 13.1065 57.5544 13.0951C57.5802 13.0837 57.6033 13.0672 57.6226 13.0467C57.6594 13.0026 57.6819 12.9484 57.6871 12.8912C57.7016 12.6879 57.7016 12.4838 57.6871 12.2805C57.6719 12.0909 57.6586 11.9297 57.6473 11.7874C57.6359 11.6452 57.6321 11.5333 57.6283 11.4555C57.6307 11.4145 57.6307 11.3733 57.6283 11.3323C57.6283 11.3323 57.6283 11.3437 57.6283 11.3645C57.6283 11.3854 57.6283 11.4157 57.6283 11.4555C57.6283 11.5333 57.6283 11.6452 57.6283 11.7893C57.6283 11.9335 57.6492 12.0985 57.6605 12.2843C57.674 12.4845 57.674 12.6853 57.6605 12.8855C57.6562 12.9349 57.637 12.9818 57.6055 13.0201C57.5901 13.0376 57.5711 13.0517 57.5499 13.0615C57.5287 13.0713 57.5056 13.0766 57.4823 13.077C57.3882 13.0748 57.2983 13.0376 57.23 12.9727C57.1123 12.86 57.0355 12.7111 57.012 12.5498C56.9832 12.4016 56.9806 12.2495 57.0044 12.1004Z" fill="#EB996E"/>
<path d="M45.0471 11.4764L45.066 11.429L45.0945 11.4707C45.1171 11.5031 45.1487 11.5282 45.1855 11.5427L45.231 11.5617L45.1912 11.5902C45.1576 11.6119 45.1317 11.6438 45.1172 11.6812L45.0983 11.7267L45.0717 11.685C45.0487 11.653 45.0171 11.628 44.9807 11.6129L44.9352 11.5939L44.975 11.5655C45.007 11.5432 45.0319 11.5123 45.0471 11.4764Z" fill="#E0E0E0"/>
<path d="M57.6776 6.23828L57.7099 6.16052L57.7592 6.2288C57.7977 6.28485 57.8517 6.32837 57.9147 6.35396L57.9925 6.3862L57.9242 6.43551C57.8677 6.47346 57.824 6.52769 57.799 6.59102L57.7668 6.66878L57.7175 6.60051C57.679 6.54445 57.6249 6.50093 57.562 6.47534L57.4823 6.4431L57.5525 6.39379C57.608 6.35478 57.6514 6.30087 57.6776 6.23828Z" fill="#E0E0E0"/>
<path d="M57.122 3.40686L57.1751 3.276L57.2585 3.39169C57.3232 3.48604 57.4142 3.55926 57.5202 3.6022L57.6511 3.6553L57.5354 3.73874C57.4415 3.8039 57.3684 3.89477 57.3249 4.00046L57.2718 4.13131L57.1902 4.01563C57.1244 3.92159 57.0329 3.84851 56.9266 3.80512L56.7958 3.75202L56.9115 3.67047C57.0055 3.60465 57.0786 3.51313 57.122 3.40686Z" fill="#E0E0E0"/>
<path d="M50.7251 15.1802L50.6777 15.0455L50.8162 15.0797C50.9273 15.106 51.0436 15.1007 51.1519 15.0645L51.2865 15.0171L51.2543 15.1555C51.226 15.2665 51.2313 15.3833 51.2694 15.4912L51.315 15.6259L51.1765 15.5917C51.0654 15.5654 50.9491 15.5706 50.8408 15.6069L50.7062 15.6543L50.7403 15.5159C50.7667 15.4047 50.7614 15.2885 50.7251 15.1802Z" fill="#E0E0E0"/>
<path d="M48.4228 10.3157C48.1819 10.6059 47.9335 10.8847 47.7002 11.1843C47.5967 11.3092 47.5217 11.4553 47.4804 11.6121C47.4391 11.769 47.4326 11.9331 47.4612 12.0927C47.4976 12.255 47.5669 12.408 47.6647 12.5424C47.7626 12.6768 47.887 12.7897 48.0302 12.8741C48.9158 13.481 50.0006 13.993 51.1006 13.8584C51.8482 13.7525 52.5269 13.3643 52.9971 12.7736C53.0355 12.7251 53.0535 12.6635 53.0472 12.6019C53.0408 12.5404 53.0107 12.4837 52.9631 12.4441C52.9156 12.4045 52.8544 12.385 52.7927 12.3899C52.731 12.3948 52.6737 12.4236 52.633 12.4701C52.2801 12.9187 51.7841 13.2326 51.2277 13.3596C50.7477 13.443 50.2543 13.4032 49.7939 13.2439C49.3527 13.0978 48.9321 12.8958 48.5422 12.6427C48.3355 12.5403 48.1532 12.3948 48.0074 12.216C47.94 12.1038 47.9093 11.9733 47.9195 11.8428C47.9297 11.7123 47.9803 11.5882 48.0643 11.4878C48.2976 11.1919 48.5479 10.9188 48.7888 10.6192C48.829 10.5706 48.8483 10.5081 48.8425 10.4453C48.8366 10.3826 48.806 10.3247 48.7575 10.2844C48.709 10.2442 48.6464 10.2249 48.5836 10.2308C48.5209 10.2366 48.463 10.2672 48.4228 10.3157Z" fill="#00610B"/>
<path d="M53.3536 5.08337C53.5812 4.81028 53.8069 4.53719 54.0345 4.26599C54.0935 4.18293 54.1705 4.11434 54.2599 4.06539C54.3492 4.01645 54.4485 3.98842 54.5503 3.98342C54.831 3.98342 55.0073 4.17306 55.1875 4.36271C55.8247 5.01889 56.4164 5.86093 56.4809 6.80159C56.509 7.43353 56.2931 8.05207 55.8778 8.52928C55.8394 8.57776 55.8214 8.63936 55.8277 8.70092C55.8341 8.76248 55.8642 8.81912 55.9118 8.85874C55.9593 8.89836 56.0205 8.91782 56.0822 8.91295C56.1439 8.90809 56.2012 8.87929 56.242 8.83272C56.6836 8.32342 56.9402 7.67985 56.9702 7.00641C56.9688 6.42268 56.8152 5.84942 56.5245 5.34319C56.2615 4.87247 55.9355 4.43987 55.5554 4.05738C55.3671 3.81754 55.1126 3.63819 54.8234 3.54154C54.6527 3.49901 54.4742 3.49836 54.3031 3.53964C54.1321 3.58091 53.9736 3.66289 53.841 3.7786C53.5325 4.08927 53.2479 4.42273 52.9895 4.77615C52.9694 4.80005 52.9543 4.82768 52.9449 4.85744C52.9356 4.8872 52.9321 4.91852 52.9349 4.9496C52.9376 4.98068 52.9464 5.01092 52.9608 5.03859C52.9753 5.06626 52.995 5.09083 53.0189 5.11087C53.0428 5.13092 53.0704 5.14607 53.1002 5.15544C53.1299 5.16481 53.1613 5.16823 53.1923 5.1655C53.2234 5.16277 53.2537 5.15395 53.2813 5.13953C53.309 5.12511 53.3336 5.10539 53.3536 5.08148V5.08337Z" fill="#00610B"/>
<path d="M56.7578 11.7551L56.259 12.1344V12.1496H56.2458L55.9651 12.7185C55.9651 12.7185 56.8394 13.5549 57.2111 14.4633L57.9507 13.5776L57.9697 13.553L58.7093 12.6673C57.7383 12.4663 56.7578 11.7551 56.7578 11.7551Z" fill="#00610B"/>
<path d="M56.9722 11.6433L55.8874 12.9443C55.8541 12.9845 55.8132 13.0177 55.767 13.042C55.7208 13.0664 55.6703 13.0813 55.6183 13.0861C55.5663 13.0909 55.5139 13.0853 55.4641 13.0698C55.4143 13.0542 55.368 13.029 55.3279 12.9955C55.2864 12.9621 55.2519 12.9206 55.2267 12.8736C55.2015 12.8266 55.1861 12.775 55.1813 12.7219C55.1765 12.6688 55.1825 12.6152 55.1989 12.5645C55.2153 12.5137 55.2418 12.4668 55.2767 12.4265L56.3615 11.1255C56.3948 11.0853 56.4357 11.0521 56.4819 11.0278C56.5281 11.0034 56.5786 10.9885 56.6306 10.9837C56.6826 10.9789 56.735 10.9845 56.7848 11.0001C56.8347 11.0156 56.8809 11.0409 56.921 11.0743C56.9626 11.1077 56.997 11.1492 57.0222 11.1962C57.0474 11.2432 57.0629 11.2948 57.0676 11.3479C57.0724 11.401 57.0664 11.4546 57.05 11.5053C57.0336 11.5561 57.0072 11.603 56.9722 11.6433Z" fill="#00610B"/>
<path d="M52.4642 3.771L49.904 6.84709L49.7675 7.01018L47.3438 9.91369C47.3874 9.98576 53.1811 15.3262 55.9026 11.8481C58.8421 8.53495 52.5458 3.80324 52.4642 3.771Z" fill="#00610B"/>
<path d="M52.4642 3.771C52.486 3.78088 52.5064 3.79364 52.5249 3.80893C52.5647 3.83548 52.6216 3.8753 52.6937 3.9322C52.8416 4.04219 53.054 4.21098 53.3195 4.44045C54.0701 5.08424 54.7543 5.80152 55.362 6.58158C55.7843 7.12173 56.1343 7.71463 56.4032 8.34531C56.7336 9.07223 56.8098 9.88922 56.6194 10.6647C56.5014 11.0787 56.2942 11.4619 56.0125 11.7874C55.7456 12.147 55.4105 12.4505 55.0263 12.6807C54.6194 12.9088 54.1648 13.0387 53.6988 13.06C53.2228 13.0814 52.7462 13.0296 52.2859 12.9063C51.3083 12.6283 50.3791 12.2024 49.5303 11.6433C49.1188 11.3816 48.7281 11.1066 48.3564 10.824C48.1668 10.6818 47.9923 10.5376 47.8197 10.3935L47.5618 10.1735C47.4764 10.0958 47.4006 10.0351 47.3096 9.94024L47.2887 9.91749L47.3134 9.88714C48.8305 8.076 50.1182 6.54365 51.0267 5.45886L52.0849 4.20719L52.3656 3.8791L52.4395 3.79755C52.4469 3.78793 52.4551 3.77904 52.4642 3.771C52.4579 3.78261 52.4503 3.79343 52.4414 3.80324L52.3694 3.89237L52.0944 4.23374L51.0551 5.50248L47.3835 9.93645L47.3532 9.90611L47.3873 9.88525L47.3987 9.89663L47.429 9.92318L47.4897 9.98007L47.613 10.0882L47.8766 10.3157C48.0511 10.4599 48.2294 10.6002 48.4133 10.7406C48.7831 11.0212 49.1719 11.2943 49.5815 11.5541C50.4229 12.1083 51.3438 12.531 52.3125 12.8077C52.7629 12.9283 53.2291 12.9794 53.695 12.9594C54.1457 12.9376 54.5851 12.8117 54.9789 12.5915C55.3531 12.3668 55.6802 12.0719 55.9423 11.7229C56.2163 11.4074 56.4182 11.0359 56.534 10.6344C56.7206 9.87787 56.6485 9.08069 56.3292 8.36996C56.0655 7.74695 55.7226 7.16053 55.3089 6.6252C54.7076 5.84405 54.0332 5.12202 53.2949 4.4689C53.0331 4.24701 52.8264 4.05736 52.6842 3.94737L52.5211 3.81651L52.4642 3.771Z" fill="#263238"/>
<g opacity="0.3">
<path d="M52.4642 3.771C52.8435 4.08202 53.2019 4.3608 53.5376 4.66613C55.8039 6.72381 57.2642 9.05269 56.4468 11.0288L55.8209 11.9771C55.8209 11.9771 56.4809 9.55336 55.252 7.80481C54.0231 6.05625 52.3314 4.06685 52.3314 4.06685L52.4642 3.771Z" fill="black"/>
</g>
<path d="M60.2663 12.1781L57.0708 16.0052C56.9463 15.9015 56.8435 15.7743 56.7682 15.6309C56.6929 15.4875 56.6466 15.3306 56.632 15.1692C56.6174 15.0079 56.6347 14.8453 56.683 14.6906C56.7312 14.536 56.8095 14.3924 56.9133 14.268L58.5329 12.3355C58.6366 12.211 58.7638 12.1082 58.9072 12.0329C59.0507 11.9576 59.2076 11.9114 59.3689 11.8968C59.5302 11.8821 59.6929 11.8995 59.8475 11.9477C60.0021 11.996 60.1458 12.0743 60.2701 12.1781H60.2663Z" fill="#00610B"/>
<path d="M60.7428 11.5089L56.4539 16.6566L58.9308 18.7203L63.2197 13.5726L60.7428 11.5089Z" fill="#263238"/>
<path d="M60.7445 12.8099L57.7108 16.451L58.9245 17.4623L61.9582 13.8211L60.7445 12.8099Z" fill="#455A64"/>
<path d="M51.4799 8.07027L52.6747 8.35853L53.5907 7.53735L53.6856 8.76248L54.7514 9.37884L53.6135 9.84916L53.3575 11.0534L52.559 10.1166L51.3358 10.2436L51.9787 9.19488L51.4799 8.07027Z" fill="white"/>
<path d="M54.5996 12.4246L54.5844 12.4379L54.5408 12.472C54.481 12.5144 54.4176 12.5512 54.3512 12.582C54.2491 12.6305 54.1414 12.6661 54.0306 12.6882C53.8847 12.7182 53.7358 12.7315 53.5869 12.7281C53.4061 12.7254 53.2259 12.707 53.0483 12.6731L52.7505 12.6162C52.65 12.5934 52.5476 12.565 52.4414 12.5403C51.9852 12.4137 51.541 12.2475 51.1139 12.0434C50.6852 11.8404 50.2691 11.6118 49.8679 11.3588C49.4886 11.1274 49.17 10.9036 48.8988 10.7159C48.6276 10.5281 48.4114 10.3669 48.2634 10.2569L48.1022 10.1261L48.0567 10.0938L48.0435 10.0806L48.0586 10.0919L48.1022 10.1261L48.2748 10.2494C48.4265 10.3575 48.6446 10.513 48.9158 10.7007C49.187 10.8885 49.5132 11.1104 49.8849 11.3398C50.284 11.5915 50.6975 11.8195 51.1233 12.0226C51.5508 12.2254 51.9949 12.391 52.4509 12.5175C52.5571 12.5441 52.6595 12.5725 52.76 12.5953L53.0559 12.6541C53.233 12.687 53.4125 12.7054 53.5926 12.7091C53.7407 12.7138 53.889 12.7017 54.0344 12.6731C54.1444 12.6518 54.2513 12.6174 54.353 12.5706C54.4193 12.5409 54.4827 12.5054 54.5427 12.4644L54.5882 12.4322L54.5996 12.4246Z" fill="white"/>
<path d="M55.3886 12.5593C55.3778 12.5861 55.3708 12.6141 55.3677 12.6428C55.3656 12.6782 55.3716 12.7136 55.385 12.7464C55.3985 12.7793 55.4191 12.8086 55.4455 12.8324C55.4981 12.8773 55.5594 12.9109 55.6256 12.931C55.6749 12.9481 55.7072 12.9576 55.7072 12.9595C55.6774 12.9593 55.648 12.9542 55.6199 12.9443C55.55 12.9273 55.4851 12.8942 55.4303 12.8476C55.4048 12.8232 55.3847 12.7937 55.3713 12.761C55.3579 12.7284 55.3515 12.6932 55.3525 12.6579C55.3553 12.6359 55.3624 12.6147 55.3734 12.5954L55.3886 12.5593Z" fill="white"/>
<path d="M57.1011 14.2566C57.1011 14.2566 57.0878 14.2736 57.065 14.3059C57.0307 14.3497 56.9997 14.396 56.9721 14.4443C56.879 14.6037 56.8227 14.7819 56.8071 14.9658C56.7938 15.1501 56.8203 15.3351 56.8849 15.5082C56.9052 15.5602 56.9286 15.6109 56.955 15.66C56.9658 15.6773 56.9747 15.6958 56.9816 15.715L56.9721 15.7036L56.9475 15.6637C56.919 15.6155 56.8937 15.5654 56.8716 15.5139C56.8014 15.3402 56.7722 15.1527 56.7863 14.9658C56.8069 14.7216 56.9015 14.4894 57.0575 14.3002L57.0897 14.266C57.0897 14.266 57.1011 14.2547 57.1011 14.2566Z" fill="white"/>
<path d="M56.0562 12.9462C56.2765 12.7306 56.4507 12.4725 56.5682 12.1876C56.6256 12.0458 56.6401 11.8903 56.6101 11.7403C56.5801 11.5904 56.5069 11.4525 56.3994 11.3436L55.0719 12.8608L56.5587 14.8009C56.9892 14.0613 56.6365 13.1832 56.0562 12.9462Z" fill="#FFBE9D"/>
<path d="M56.8261 14.488C56.8261 14.488 56.8261 14.4767 56.8261 14.4539C56.8261 14.4311 56.8413 14.3989 56.847 14.3534C56.8679 14.2246 56.8679 14.0934 56.847 13.9646C56.8148 13.7671 56.7404 13.5789 56.6289 13.4127C56.4894 13.2004 56.2919 13.0326 56.0599 12.9291V12.9576C56.1691 12.8407 56.2716 12.7179 56.3672 12.5897C56.4717 12.4521 56.5501 12.2966 56.5985 12.1307C56.6335 11.9868 56.6335 11.8366 56.5985 11.6926C56.5691 11.5549 56.4967 11.4301 56.3918 11.3361L56.3785 11.3247L56.3672 11.338L55.4189 12.4379L55.1477 12.7565L55.0757 12.8438C55.0586 12.8646 55.051 12.8741 55.0529 12.876L55.0795 12.8476L55.1553 12.766L55.436 12.4512L56.3937 11.3626H56.3691C56.4659 11.4527 56.5322 11.5707 56.5587 11.7002C56.589 11.8388 56.5851 11.9826 56.5473 12.1193C56.5011 12.2811 56.4252 12.4328 56.3235 12.5669C56.2295 12.6941 56.1288 12.8162 56.022 12.9329L56.0049 12.95H56.0277C56.2582 13.0486 56.4556 13.2111 56.5966 13.4184C56.707 13.5807 56.7826 13.7641 56.8185 13.957C56.8416 14.0821 56.846 14.2099 56.8318 14.3363C56.8413 14.4406 56.8261 14.488 56.8261 14.488Z" fill="#EB996E"/>
<path d="M56.8962 14.3798C57.4367 13.6686 58.1024 12.929 58.6429 12.2159L56.8962 14.3798Z" fill="#00610B"/>
<path d="M58.6429 12.2122C58.4003 12.6091 58.1202 12.9818 57.8066 13.3254C57.5733 13.6042 57.3609 13.8545 57.1731 14.084C57.0928 14.1943 56.9999 14.2948 56.8962 14.3836C57.1383 13.9868 57.4177 13.6141 57.7307 13.2704L58.366 12.5118C58.4477 12.4026 58.5405 12.3022 58.6429 12.2122Z" fill="#263238"/>
<path d="M34.3661 63.8969L34.129 63.8382C34.129 63.8382 31.5062 67.4737 30.7286 67.3277L32.7579 59.3188L35.394 60.104C34.5406 61.1546 34.1632 62.3855 34.3661 63.8969Z" fill="#455A64"/>
<path d="M34.3377 60.6977C34.3336 60.6147 34.299 60.536 34.2406 60.4769C34.1822 60.4177 34.1039 60.3822 34.0209 60.3772C33.938 60.3786 33.8587 60.4115 33.7991 60.4693C33.7396 60.527 33.7043 60.6053 33.7004 60.6882C33.7046 60.7761 33.7412 60.8593 33.8032 60.9217C33.8653 60.9841 33.9483 61.0212 34.0361 61.0258C34.1227 61.0158 34.202 60.9727 34.2574 60.9055C34.3129 60.8383 34.3403 60.7523 34.3339 60.6655" fill="white"/>
<path d="M32.7579 59.3188L33.3913 59.5085L31.2236 67.1134C31.2236 67.1134 30.9771 67.4301 30.7362 67.3277L32.7579 59.3188Z" fill="#263238"/>
<path d="M34.0987 63.861C34.0608 63.8496 34.0987 63.6486 34.0152 63.4248C33.9318 63.201 33.799 63.0569 33.8256 63.0247C33.8521 62.9924 34.0627 63.1081 34.1499 63.3812C34.2371 63.6543 34.1328 63.8781 34.0987 63.861Z" fill="#263238"/>
<path d="M33.5393 64.6119C33.4995 64.6119 33.4748 64.4223 33.3496 64.2516C33.2245 64.0809 33.0519 63.9936 33.0633 63.9557C33.0747 63.9178 33.3022 63.9557 33.4615 64.1681C33.6208 64.3805 33.5772 64.6214 33.5393 64.6119Z" fill="#263238"/>
<path d="M32.4127 64.8338C32.4127 64.7978 32.6233 64.7921 32.811 64.9476C32.9988 65.1031 33.0386 65.3061 33.0007 65.3136C32.9627 65.3212 32.8774 65.1809 32.72 65.0557C32.5626 64.9306 32.4071 64.8737 32.4127 64.8338Z" fill="#263238"/>
<path d="M42.667 81.0279L42.576 81.2384C42.576 81.2384 45.5136 84.2083 45.2595 84.9005L38.2122 81.8131L39.3387 79.5107C39.7524 79.9873 40.2637 80.3693 40.8379 80.6311C41.4122 80.8928 42.0359 81.0282 42.667 81.0279Z" fill="#455A64"/>
<path d="M39.7236 80.5633C39.6467 80.5538 39.5691 80.5732 39.5057 80.6177C39.4423 80.6622 39.3976 80.7286 39.3803 80.8041C39.3684 80.8805 39.3861 80.9586 39.4298 81.0224C39.4735 81.0862 39.5399 81.1309 39.6155 81.1474C39.697 81.1564 39.779 81.1351 39.8458 81.0875C39.9126 81.0399 39.9596 80.9694 39.9777 80.8895C39.982 80.8086 39.9547 80.7292 39.9017 80.668C39.8486 80.6068 39.7739 80.5686 39.6933 80.5614" fill="white"/>
<path d="M38.2122 81.8131L38.4834 81.2593L45.1381 84.4302C45.1381 84.4302 45.3922 84.7033 45.2595 84.91L38.2122 81.8131Z" fill="#263238"/>
<path d="M42.6025 81.2688C42.5855 81.3029 42.4129 81.2441 42.1891 81.2801C41.9653 81.3162 41.8098 81.4205 41.7908 81.3939C41.7719 81.3674 41.9046 81.1891 42.1701 81.1493C42.4356 81.1095 42.6139 81.2441 42.6025 81.2688Z" fill="#263238"/>
<path d="M43.1961 81.9003C43.1961 81.9363 43.0159 81.9288 42.8339 82.0236C42.6518 82.1184 42.5532 82.2568 42.5191 82.2398C42.4849 82.2227 42.5494 82.0198 42.7751 81.9079C43.0008 81.796 43.2113 81.8662 43.1961 81.9003Z" fill="#263238"/>
<path d="M43.2284 82.9679C43.1943 82.9679 43.2284 82.7783 43.3915 82.619C43.5546 82.4597 43.7575 82.4654 43.7594 82.5014C43.7613 82.5374 43.6172 82.5924 43.4788 82.7176C43.3403 82.8428 43.2644 82.9812 43.2284 82.9679Z" fill="#263238"/>
<path d="M39.1889 24.6114C39.176 24.5411 39.1374 24.4781 39.0806 24.4346C39.0238 24.3911 38.9529 24.3703 38.8817 24.3762H38.8627C38.81 24.3867 38.7616 24.4125 38.7234 24.4502C38.6852 24.488 38.6588 24.5361 38.6476 24.5886C38.6364 24.6411 38.6409 24.6958 38.6604 24.7458C38.6799 24.7959 38.7137 24.8391 38.7575 24.8702C38.8013 24.9013 38.8533 24.9188 38.9069 24.9207C38.9606 24.9226 39.0137 24.9087 39.0596 24.8808C39.1054 24.8529 39.1421 24.8121 39.1651 24.7635C39.1881 24.715 39.1964 24.6608 39.1889 24.6076V24.6114Z" fill="#455A64"/>
<path d="M39.4563 28.649L41.1252 33.2575L45.1287 39.7624L45.2481 32.8611L44.097 27.5282H44.0041L43.1772 31.0538L42.0791 29.7262L39.5815 27.9871L39.4563 28.649Z" fill="#FAFAFA"/>
<path d="M44.7361 30.4924C44.641 30.3983 44.5558 30.2947 44.482 30.1832C44.4061 30.0865 44.3151 29.9708 44.2089 29.8457C44.099 29.7081 43.9715 29.5857 43.8296 29.4815L43.9035 29.4493C43.8879 29.5137 43.8682 29.577 43.8447 29.6389C43.6816 30.0467 43.4939 30.388 43.3725 30.6441C43.2511 30.9001 43.1923 31.0613 43.1829 31.0594C43.1966 30.9043 43.2411 30.7534 43.3137 30.6156C43.418 30.352 43.5982 30.0012 43.7556 29.6048C43.7777 29.5492 43.796 29.4922 43.8106 29.4341L43.8277 29.3658L43.8846 29.4038C44.0357 29.5132 44.1693 29.645 44.2809 29.7945C44.3852 29.9253 44.4706 30.0486 44.5407 30.151C44.6205 30.2557 44.6862 30.3705 44.7361 30.4924Z" fill="#263238"/>
<path d="M45.1287 39.7624C45.0941 39.6555 45.0694 39.5457 45.0547 39.4343C45.0092 39.2067 44.9485 38.9033 44.8764 38.5372C44.7228 37.7786 44.4972 36.7375 44.2411 35.5863C43.9851 34.4352 43.7499 33.4092 43.5774 32.6392C43.4958 32.2751 43.4294 31.9735 43.3877 31.7459C43.3583 31.6372 43.338 31.5262 43.327 31.4141C43.3671 31.519 43.3994 31.6268 43.4237 31.7365C43.4806 31.9451 43.5584 32.2485 43.6532 32.624C43.8429 33.3826 44.0875 34.4124 44.3435 35.5636C44.5996 36.7147 44.8158 37.7635 44.9523 38.524C45.0187 38.9033 45.0718 39.2143 45.1002 39.4286C45.1168 39.5391 45.1263 39.6506 45.1287 39.7624Z" fill="#263238"/>
<path d="M44.3511 27.1585C43.2416 27.9683 40.816 28.1162 39.79 28.0498C38.4075 27.9531 36.9131 27.3841 35.5855 27.0276C34.203 26.6654 32.9305 26.6881 31.5517 26.8854C30.173 27.0826 28.5287 28.0233 27.717 29.1384L28.286 29.7472C28.286 29.7472 30.1825 28.1712 31.9121 27.9398C33.5696 27.7217 34.5937 28.0745 36.5395 28.5884C38.7546 29.1744 41.4324 29.0455 42.2763 28.8179C43.0883 28.5898 43.8645 28.2496 44.5824 27.8071L44.3511 27.1585Z" fill="#455A64"/>
<path d="M39.8545 29.7471C39.914 29.7787 39.9694 29.8176 40.0195 29.8628C40.12 29.9405 40.2641 30.0524 40.4424 30.2022C40.797 30.4924 41.2825 30.9001 41.8136 31.3534L41.842 31.378L41.7624 31.4046C41.8534 30.9817 41.9406 30.5853 42.0165 30.2383L42.0317 30.1681L42.0848 30.2117C42.3882 30.4582 42.6385 30.665 42.813 30.811C42.9083 30.8834 42.9966 30.9647 43.0766 31.0537C42.9718 30.9956 42.8728 30.9276 42.7808 30.8508C42.5911 30.7162 42.3389 30.5189 42.0317 30.2819L42.0999 30.2572L41.8591 31.4274L41.842 31.5089L41.7775 31.4539L41.7491 31.4292C41.2181 30.976 40.7401 30.5607 40.3969 30.2572C40.2243 30.1055 40.0878 29.9803 39.9929 29.8931C39.9407 29.8506 39.8942 29.8015 39.8545 29.7471Z" fill="#263238"/>
<path d="M26.2434 34.2929C26.2548 34.219 25.8641 32.7264 25.8641 32.7264L23.9677 31.8597L24.3014 33.5893C24.5172 33.8031 24.7438 34.0057 24.9804 34.1962C25.0126 34.1848 26.2434 34.2929 26.2434 34.2929Z" fill="#EB996E"/>
<path d="M29.0939 31.1126C29.1364 31.6111 29.03 32.1111 28.7883 32.5493C28.5466 32.9874 28.1804 33.3441 27.736 33.5741C27.2916 33.8041 26.7889 33.8971 26.2916 33.8415C25.7944 33.7858 25.3247 33.5839 24.9422 33.2613C24.5597 32.9387 24.2814 32.5099 24.1425 32.0292C24.0037 31.5484 24.0106 31.0373 24.1622 30.5604C24.3139 30.0836 24.6036 29.6624 24.9946 29.3502C25.3857 29.038 25.8606 28.8488 26.3592 28.8064C27.0276 28.7497 27.6912 28.9608 28.204 29.3932C28.7169 29.8257 29.037 30.4441 29.0939 31.1126Z" fill="#00610B"/>
<g opacity="0.3">
<path d="M29.0939 31.1126C29.1364 31.6111 29.03 32.1111 28.7883 32.5493C28.5466 32.9874 28.1804 33.3441 27.736 33.5741C27.2916 33.8041 26.7889 33.8971 26.2916 33.8415C25.7944 33.7858 25.3247 33.5839 24.9422 33.2613C24.5597 32.9387 24.2814 32.5099 24.1425 32.0292C24.0037 31.5484 24.0106 31.0373 24.1622 30.5604C24.3139 30.0836 24.6036 29.6624 24.9946 29.3502C25.3857 29.038 25.8606 28.8488 26.3592 28.8064C27.0276 28.7497 27.6912 28.9608 28.204 29.3932C28.7169 29.8257 29.037 30.4441 29.0939 31.1126Z" fill="black"/>
</g>
<path d="M29.0939 30.7844C29.1364 31.283 29.03 31.783 28.7883 32.2212C28.5466 32.6593 28.1804 33.016 27.736 33.246C27.2916 33.476 26.7889 33.569 26.2916 33.5133C25.7944 33.4577 25.3247 33.2558 24.9422 32.9332C24.5597 32.6106 24.2814 32.1818 24.1425 31.7011C24.0037 31.2203 24.0106 30.7092 24.1622 30.2323C24.3139 29.7555 24.6036 29.3343 24.9946 29.0221C25.3857 28.7099 25.8606 28.5206 26.3592 28.4783C27.0276 28.4216 27.6912 28.6326 28.204 29.0651C28.7169 29.4976 29.037 30.116 29.0939 30.7844Z" fill="#00610B"/>
<g opacity="0.3">
<path d="M24.8059 31.2547C24.7623 30.7392 24.9252 30.2275 25.2588 29.832C25.5924 29.4366 26.0693 29.1898 26.5848 29.1459H26.6664C26.4019 29.1308 26.1372 29.1698 25.8883 29.2604C25.6394 29.3511 25.4116 29.4915 25.2188 29.6731C25.026 29.8547 24.8722 30.0737 24.7668 30.3168C24.6615 30.5598 24.6067 30.8217 24.606 31.0866C24.6052 31.3515 24.6584 31.6137 24.7623 31.8573C24.8663 32.101 25.0188 32.3209 25.2105 32.5036C25.4023 32.6863 25.6292 32.8281 25.8776 32.9202C26.1259 33.0123 26.3904 33.0528 26.655 33.0393C26.1828 33.0166 25.7349 32.8231 25.3948 32.4948C25.0546 32.1665 24.8454 31.7258 24.8059 31.2547Z" fill="black"/>
</g>
<g opacity="0.3">
<path d="M27.6279 29.4474L28.0433 28.941L28.36 29.2103L27.9143 29.6731L27.6279 29.4474Z" fill="white"/>
</g>
<path d="M28.5155 30.9229C28.4854 30.7665 28.4462 30.6119 28.3979 30.4601C28.2484 30.0515 27.9676 29.704 27.5995 29.4721C27.3288 29.3029 27.0201 29.204 26.7015 29.1845C26.3829 29.1649 26.0644 29.2253 25.7751 29.3602C25.6086 29.4366 25.4545 29.5376 25.318 29.6598C25.1732 29.7852 25.0496 29.9331 24.952 30.0979C24.7407 30.4427 24.6452 30.846 24.6793 31.2489C24.7134 31.6518 24.8754 32.0333 25.1417 32.3377C25.2661 32.483 25.4127 32.6078 25.576 32.7075C25.7312 32.8057 25.9008 32.8792 26.0785 32.9256C26.3368 32.9949 26.6067 33.0097 26.871 32.9691C27.1353 32.9286 27.3883 32.8335 27.6139 32.6899C27.8395 32.5464 28.0327 32.3575 28.1814 32.1352C28.3301 31.913 28.431 31.6622 28.4776 31.3989C28.5003 31.2412 28.513 31.0822 28.5155 30.9229C28.5414 31.0831 28.5414 31.2463 28.5155 31.4065C28.4736 31.6811 28.3742 31.9438 28.2237 32.1773C28.0733 32.4108 27.8752 32.6099 27.6424 32.7616C27.4097 32.9132 27.1475 33.014 26.8731 33.0573C26.5987 33.1006 26.3182 33.0854 26.0501 33.0128C25.6686 32.9115 25.326 32.6989 25.0658 32.4021C24.7831 32.0819 24.6113 31.679 24.5757 31.2533C24.5402 30.8276 24.6429 30.4018 24.8686 30.0391C24.9705 29.868 25.0985 29.7138 25.2479 29.5821C25.3915 29.4542 25.554 29.3493 25.7296 29.2711C26.0533 29.1228 26.4109 29.0638 26.7651 29.1004C27.1414 29.1403 27.4982 29.2878 27.7929 29.5252C28.0875 29.7627 28.3074 30.08 28.4264 30.4393C28.4831 30.5943 28.5132 30.7578 28.5155 30.9229Z" fill="#263238"/>
<path d="M25.6442 28.8595C25.6442 28.8766 25.5038 28.9145 25.3104 29.0491C25.0652 29.2343 24.8507 29.457 24.6751 29.7091C24.4923 29.9552 24.3631 30.2369 24.2958 30.536C24.2427 30.7655 24.2408 30.9153 24.2256 30.9153C24.1963 30.7861 24.1963 30.6519 24.2256 30.5227C24.2784 30.2052 24.4087 29.9055 24.6049 29.6503C24.7864 29.3885 25.017 29.1644 25.2838 28.9904C25.3897 28.9147 25.5144 28.8694 25.6442 28.8595Z" fill="white"/>
<path d="M26.1259 28.6888C26.1259 28.7153 26.088 28.7495 26.0235 28.7684C25.959 28.7874 25.9002 28.7684 25.8926 28.7514C25.8851 28.7343 25.9325 28.6888 25.997 28.6717C26.0614 28.6546 26.1202 28.6622 26.1259 28.6888Z" fill="white"/>
<path d="M27.3965 32.5311C27.2036 32.6604 26.9836 32.7438 26.7535 32.7747C26.5233 32.8056 26.2891 32.7832 26.069 32.7094C26.069 32.6809 26.3781 32.7283 26.7441 32.6771C27.1101 32.6259 27.3851 32.5045 27.3965 32.5311Z" fill="white"/>
<path d="M28.5211 31.892C28.4984 31.8769 28.5401 31.7669 28.5761 31.6284C28.6122 31.49 28.6273 31.3724 28.6558 31.3705C28.6842 31.3686 28.7127 31.4976 28.6709 31.6531C28.6292 31.8086 28.5439 31.9072 28.5211 31.892Z" fill="white"/>
<g opacity="0.3">
<path d="M26.8333 30.3521V32.1006H26.4274V30.6764H26.0785V30.3521H26.8333Z" fill="black"/>
</g>
<path d="M26.3611 34.071C25.9988 33.9212 24.7073 33.7638 24.7073 33.7638L24.8097 33.1683C24.8097 33.1683 25.5342 32.9521 25.7295 32.6373C25.7849 32.5376 25.8152 32.426 25.8178 32.312C25.8205 32.198 25.7954 32.0851 25.7447 31.983L25.3445 32.0968C25.5456 31.892 25.4299 31.4918 25.4299 31.4918L24.9842 31.5866C25.0234 31.5574 25.056 31.5202 25.0798 31.4775C25.1036 31.4348 25.1182 31.3876 25.1225 31.3389C25.1268 31.2902 25.1207 31.2411 25.1048 31.1949C25.0888 31.1487 25.0632 31.1064 25.0297 31.0708L24.6846 31.1827C24.8932 30.9551 24.5215 30.7067 24.5215 30.7067C24.5215 30.7067 22.9512 31.9318 22.8488 32.1006C22.7464 32.2694 22.972 32.7188 22.972 32.7188C22.8468 32.8641 22.7664 33.0427 22.7407 33.2328C22.7312 33.4945 23.0631 33.5912 23.0631 33.5912C23.0431 33.73 23.0521 33.8714 23.0896 34.0065C23.1541 34.2227 24.1972 34.8258 24.1972 34.8258L25.5683 36.2084L26.9471 34.3233C26.9471 34.3233 26.7233 34.2208 26.3611 34.071Z" fill="#FFBE9D"/>
<path d="M25.7238 32.0021C25.6198 32.0693 25.504 32.1163 25.3825 32.1405C25.1001 32.211 24.8227 32.2997 24.5518 32.406C24.4079 32.468 24.2747 32.5525 24.1573 32.6564C24.0492 32.755 23.9677 32.846 23.8823 32.937C23.7268 33.1039 23.6036 33.1798 23.596 33.1684C23.5884 33.157 23.6908 33.0679 23.8311 32.8915C23.9128 32.7857 24.0008 32.685 24.0948 32.59C24.216 32.4747 24.3566 32.3816 24.5101 32.315C24.7867 32.2067 25.0731 32.1254 25.3654 32.0722C25.4827 32.0387 25.6026 32.0152 25.7238 32.0021Z" fill="#EB996E"/>
<path d="M25.4584 33.8984C25.4584 33.9231 25.1322 33.851 24.6998 33.87H24.6334L24.6524 33.8055C24.677 33.7183 24.7017 33.6159 24.7207 33.5248C24.7476 33.3941 24.7653 33.2617 24.7738 33.1285V33.0887H24.8155C24.9667 33.0718 25.114 33.0302 25.2517 32.9654C25.3579 32.9218 25.4186 32.8895 25.4243 32.899C25.4299 32.9085 25.3787 32.954 25.2782 33.0147C25.1378 33.1016 24.9809 33.1584 24.8174 33.1816L24.861 33.138C24.8564 33.2762 24.8406 33.4138 24.8136 33.5495C24.7948 33.647 24.7701 33.7432 24.7396 33.8378L24.6922 33.7752C24.9537 33.7559 25.2161 33.7981 25.4584 33.8984Z" fill="#EB996E"/>
<path d="M23.412 32.5634C23.4751 32.4704 23.5511 32.3867 23.6377 32.3149L23.9032 32.0532C23.9547 31.9973 24.0127 31.9477 24.0758 31.9053C24.1446 31.862 24.2169 31.8246 24.292 31.7934C24.551 31.6927 24.8181 31.6141 25.0904 31.5582C25.2008 31.5254 25.3148 31.5063 25.4298 31.5013C25.3304 31.56 25.2222 31.6023 25.1093 31.6265C24.9083 31.691 24.6238 31.765 24.3318 31.8844C24.2614 31.9128 24.1935 31.9471 24.1289 31.9868C24.0699 32.0251 24.0152 32.0696 23.9658 32.1196L23.687 32.3642C23.6051 32.4432 23.5126 32.5103 23.412 32.5634Z" fill="#EB996E"/>
<path d="M23.1504 32.1613C23.1409 32.1499 23.2281 32.0608 23.376 31.9261L23.6378 31.6947L23.7952 31.5582L23.8786 31.488L23.9222 31.452C23.9395 31.439 23.9579 31.4276 23.9772 31.4179C24.216 31.3102 24.4619 31.219 24.7131 31.1448C24.814 31.1033 24.9209 31.0784 25.0298 31.0708C24.9388 31.1294 24.8407 31.176 24.7377 31.2092C24.5481 31.287 24.2901 31.3799 24.0246 31.5051L23.9829 31.5297L23.9393 31.5639L23.8559 31.6341L23.6947 31.7649L23.4197 31.9811C23.339 32.0538 23.2483 32.1145 23.1504 32.1613Z" fill="#EB996E"/>
<path d="M28.9688 21.2338L29.0389 21.0593L29.147 21.2129C29.2338 21.3366 29.3543 21.4327 29.4941 21.4898L29.6686 21.5619L29.515 21.67C29.3909 21.7555 29.2946 21.8755 29.2381 22.0152L29.166 22.1896L29.0579 22.036C28.9711 21.9124 28.8507 21.8163 28.7109 21.7591L28.5364 21.6871L28.6919 21.579C28.8149 21.4924 28.9109 21.3727 28.9688 21.2338Z" fill="#00610B"/>
<path d="M52.6103 41.2777L52.6804 41.1033L52.7885 41.2569C52.8753 41.3805 52.9958 41.4766 53.1356 41.5338L53.3101 41.6058L53.1545 41.7139C53.0314 41.8013 52.9355 41.9216 52.8777 42.061L52.8075 42.2336L52.6994 42.08C52.6126 41.9563 52.4921 41.8602 52.3523 41.8031L52.1779 41.731L52.3334 41.6229C52.4564 41.5363 52.5524 41.4166 52.6103 41.2777Z" fill="#00610B"/>
<path d="M56.6896 33.1874L56.7598 33.0148L56.8679 33.1684C56.9551 33.2916 57.0754 33.3876 57.2149 33.4453L57.3894 33.5173L57.2358 33.6254C57.1122 33.7115 57.0161 33.8313 56.9589 33.9706L56.8868 34.1451L56.7787 33.9915C56.6919 33.8678 56.5715 33.7717 56.4317 33.7146L56.2572 33.6425L56.4127 33.5344C56.5363 33.4476 56.6324 33.3272 56.6896 33.1874Z" fill="#00610B"/>
<path d="M22.1699 20.28L22.2116 20.1794L22.2742 20.2686C22.3242 20.3406 22.394 20.3966 22.4752 20.4298L22.5757 20.4715L22.4866 20.5341C22.4146 20.5841 22.3586 20.6539 22.3254 20.7351L22.2837 20.8356L22.2211 20.7465C22.1711 20.6744 22.1013 20.6184 22.0201 20.5853L21.9196 20.5436L22.0087 20.481C22.0807 20.431 22.1367 20.3611 22.1699 20.28Z" fill="#00610B"/>
<path d="M52.855 35.3606L52.8967 35.2601L52.9593 35.3493C53.0092 35.4214 53.079 35.4774 53.1603 35.5105L53.2627 35.5522L53.1717 35.6148C53.1006 35.6654 53.0454 35.7351 53.0124 35.8158L52.9706 35.9163L52.9081 35.8272C52.8571 35.756 52.7876 35.7002 52.707 35.666L52.6046 35.6262L52.6937 35.5617C52.7663 35.5122 52.8224 35.4422 52.855 35.3606Z" fill="#00610B"/>
<path d="M25.3655 14.9413L25.5343 14.6777L25.6784 14.9603C25.794 15.1856 25.9717 15.3732 26.1904 15.5008L26.4635 15.6601L26.1829 15.8042C25.9573 15.9203 25.7693 16.0978 25.6405 16.3163L25.4812 16.5894L25.337 16.3087C25.2217 16.0827 25.044 15.8945 24.825 15.7663L24.5519 15.607L24.8345 15.4629C25.058 15.3438 25.2424 15.1627 25.3655 14.9413Z" fill="#00610B"/>
</svg>
