<svg width="16" height="16" viewBox="0 0 16 16" fill="none" xmlns="http://www.w3.org/2000/svg">
<g clip-path="url(#clip0_50_1785)">
<path d="M8 0.960022C7.29375 0.960022 6.72 1.53377 6.72 2.24002C6.72 2.83502 7.13 3.33127 7.68 3.47502V4.48002H4.81C3.3925 4.48002 2.24 5.63252 2.24 7.05002V8.32002H0.639999V12.16H2.24V15.04H13.76V12.16H15.36V8.32002H13.76V7.05002C13.76 5.63252 12.6075 4.48002 11.19 4.48002H8.32V3.47502C8.87125 3.33127 9.28 2.83502 9.28 2.24002C9.28 1.53377 8.70625 0.960022 8 0.960022ZM8 1.60002C8.3525 1.60002 8.64 1.88752 8.64 2.24002C8.64 2.59252 8.3525 2.88002 8 2.88002C7.6475 2.88002 7.36 2.59252 7.36 2.24002C7.36 1.88752 7.6475 1.60002 8 1.60002ZM4.81 5.12002H11.19C12.2537 5.12002 13.12 5.98627 13.12 7.05002V14.4H11.2V11.84H4.8V14.4H2.88V7.05002C2.88 5.98627 3.74625 5.12002 4.81 5.12002ZM5.92 7.04002C5.12625 7.04002 4.48 7.68627 4.48 8.48002C4.48 9.27377 5.12625 9.92002 5.92 9.92002C6.71375 9.92002 7.36 9.27377 7.36 8.48002C7.36 7.68627 6.71375 7.04002 5.92 7.04002ZM10.08 7.04002C9.28625 7.04002 8.64 7.68627 8.64 8.48002C8.64 9.27377 9.28625 9.92002 10.08 9.92002C10.8737 9.92002 11.52 9.27377 11.52 8.48002C11.52 7.68627 10.8737 7.04002 10.08 7.04002ZM5.92 7.68002C6.36125 7.68002 6.72 8.03877 6.72 8.48002C6.72 8.92127 6.36125 9.28002 5.92 9.28002C5.47875 9.28002 5.12 8.92127 5.12 8.48002C5.12 8.03877 5.47875 7.68002 5.92 7.68002ZM10.08 7.68002C10.5212 7.68002 10.88 8.03877 10.88 8.48002C10.88 8.92127 10.5212 9.28002 10.08 9.28002C9.63875 9.28002 9.28 8.92127 9.28 8.48002C9.28 8.03877 9.63875 7.68002 10.08 7.68002ZM1.28 8.96002H2.24V11.52H1.28V8.96002ZM13.76 8.96002H14.72V11.52H13.76V8.96002ZM5.44 12.48H6.72V14.4H5.44V12.48ZM7.36 12.48H8.64V14.4H7.36V12.48ZM9.28 12.48H10.56V14.4H9.28V12.48Z" fill="#0070F0"/>
</g>
<defs>
<clipPath id="clip0_50_1785">
<rect width="16" height="16" fill="white"/>
</clipPath>
</defs>
</svg>
