<svg width="36" height="36" viewBox="0 0 36 36" fill="none" xmlns="http://www.w3.org/2000/svg">
<path d="M6 27C5.575 27 5.219 26.856 4.932 26.568C4.644 26.281 4.5 25.925 4.5 25.5C4.5 25.075 4.644 24.719 4.932 24.432C5.219 24.144 5.575 24 6 24H30C30.425 24 30.781 24.144 31.068 24.432C31.356 24.719 31.5 25.075 31.5 25.5C31.5 25.925 31.356 26.281 31.068 26.568C30.781 26.856 30.425 27 30 27H6ZM6 19.5C5.575 19.5 5.219 19.356 4.932 19.068C4.644 18.781 4.5 18.425 4.5 18C4.5 17.575 4.644 17.2185 4.932 16.9305C5.219 16.6435 5.575 16.5 6 16.5H30C30.425 16.5 30.781 16.6435 31.068 16.9305C31.356 17.2185 31.5 17.575 31.5 18C31.5 18.425 31.356 18.781 31.068 19.068C30.781 19.356 30.425 19.5 30 19.5H6ZM6 12C5.575 12 5.219 11.8565 4.932 11.5695C4.644 11.2815 4.5 10.925 4.5 10.5C4.5 10.075 4.644 9.7185 4.932 9.4305C5.219 9.1435 5.575 9 6 9H30C30.425 9 30.781 9.1435 31.068 9.4305C31.356 9.7185 31.5 10.075 31.5 10.5C31.5 10.925 31.356 11.2815 31.068 11.5695C30.781 11.8565 30.425 12 30 12H6Z" fill="#0A0777"/>
</svg>
