<svg width="17" height="24" viewBox="0 0 17 24" fill="none" xmlns="http://www.w3.org/2000/svg">
<path d="M14.1794 23.6381C13.8165 23.6389 13.4579 23.5833 13.1301 23.4752C12.8022 23.3671 12.5133 23.2093 12.2847 23.0134L0.552572 12.8837C0.195308 12.5816 0 12.2027 0 11.8116C0 11.4206 0.195308 11.0417 0.552572 10.7396L12.6977 0.609896C13.11 0.26512 13.7024 0.0483038 14.3447 0.00714396C14.987 -0.0340159 15.6265 0.103852 16.1226 0.390419C16.6186 0.676985 16.9306 1.08878 16.9898 1.5352C17.049 1.98163 16.8506 2.42612 16.4383 2.7709L5.58064 11.8201L16.074 20.8693C16.371 21.1171 16.5597 21.4189 16.6177 21.7389C16.6757 22.0589 16.6006 22.3837 16.4013 22.675C16.202 22.9663 15.8868 23.2118 15.493 23.3825C15.0993 23.5531 14.6434 23.6418 14.1794 23.6381Z" fill="#204916"/>
</svg>
