<svg width="185" height="144" viewBox="0 0 185 144" fill="none" xmlns="http://www.w3.org/2000/svg">
<path d="M0 56.2718C0 36.3673 0 26.4151 3.40335 18.8397C6.27132 12.4561 10.773 7.2511 16.2941 3.93506C22.8458 0 31.4533 0 48.6683 0H136.332C153.547 0 162.154 0 168.706 3.93506C174.227 7.2511 178.729 12.4561 181.597 18.8397C185 26.4151 185 36.3673 185 56.2718V87.7282C185 107.633 185 117.585 181.597 125.16C178.729 131.544 174.227 136.749 168.706 140.065C162.154 144 153.547 144 136.332 144H48.6683C31.4533 144 22.8458 144 16.2941 140.065C10.773 136.749 6.27132 131.544 3.40335 125.16C0 117.585 0 107.633 0 87.7282V56.2718Z" fill="#F3F3F3"/>
</svg>
