<svg width="129" height="95" viewBox="0 0 129 95" fill="none" xmlns="http://www.w3.org/2000/svg">
<path d="M115.918 88.5019H107.385V88.5663H115.918V88.5019Z" fill="#EBEBEB"/>
<path d="M85.3404 89.2032H83.1014V89.2677H85.3404V89.2032Z" fill="#EBEBEB"/>
<path d="M107.128 86.1103H102.184V86.1747H107.128V86.1103Z" fill="#EBEBEB"/>
<path d="M24.6445 86.5434H13.5164V86.6079H24.6445V86.5434Z" fill="#EBEBEB"/>
<path d="M28.571 86.5434H26.9401V86.6079H28.571V86.5434Z" fill="#EBEBEB"/>
<path d="M58.011 87.6312H33.8739V87.6956H58.011V87.6312Z" fill="#EBEBEB"/>
<path d="M61.0647 72.8646H11.3168C10.9266 72.8646 10.5524 72.7096 10.2765 72.4337C10.0006 72.1578 9.84559 71.7836 9.84559 71.3934V1.45832C9.84899 1.07037 10.0055 0.699466 10.281 0.426342C10.5566 0.153217 10.9288 -1.48733e-05 11.3168 1.0828e-09H61.0647C61.4549 1.08281e-09 61.8291 0.155002 62.105 0.430906C62.3809 0.706811 62.5359 1.08102 62.5359 1.47121V71.3934C62.5359 71.7836 62.3809 72.1578 62.105 72.4337C61.8291 72.7096 61.4549 72.8646 61.0647 72.8646ZM11.3168 0.051531C10.9439 0.0522121 10.5865 0.200646 10.3228 0.464323C10.0591 0.728 9.91069 1.08543 9.91001 1.45832V71.3934C9.91069 71.7663 10.0591 72.1237 10.3228 72.3874C10.5865 72.6511 10.9439 72.7995 11.3168 72.8002H61.0647C61.4376 72.7995 61.795 72.6511 62.0587 72.3874C62.3223 72.1237 62.4708 71.7663 62.4715 71.3934V1.45832C62.4708 1.08543 62.3223 0.728 62.0587 0.464323C61.795 0.200646 61.4376 0.0522121 61.0647 0.051531H11.3168Z" fill="#EBEBEB"/>
<path d="M116.797 72.8646H67.0443C66.6543 72.8639 66.2805 72.7087 66.0047 72.433C65.729 72.1572 65.5738 71.7834 65.5731 71.3934V1.45832C65.5771 1.07058 65.7339 0.700066 66.0093 0.427086C66.2846 0.154105 66.6565 0.000656578 67.0443 0H116.797C117.184 0.00134096 117.555 0.155172 117.83 0.428151C118.104 0.70113 118.26 1.07126 118.263 1.45832V71.3934C118.263 71.7827 118.109 72.1561 117.834 72.4319C117.559 72.7076 117.187 72.8632 116.797 72.8646ZM67.0443 0.051531C66.6714 0.0522121 66.314 0.200646 66.0503 0.464323C65.7866 0.728 65.6382 1.08543 65.6375 1.45832V71.3934C65.6382 71.7663 65.7866 72.1237 66.0503 72.3874C66.314 72.6511 66.6714 72.7995 67.0443 72.8002H116.797C117.17 72.7995 117.528 72.6511 117.791 72.3874C118.055 72.1237 118.203 71.7663 118.204 71.3934V1.45832C118.203 1.08543 118.055 0.728 117.791 0.464323C117.528 0.200646 117.17 0.0522121 116.797 0.051531H67.0443Z" fill="#EBEBEB"/>
<path d="M128.827 84.3566H0V84.421H128.827V84.3566Z" fill="#EBEBEB"/>
<path d="M22.0038 47.5714H23.4544L23.4544 17.0393H22.0038L22.0038 47.5714Z" fill="#E0E0E0"/>
<path d="M50.4457 17.0385H22.8406V47.5705H50.4457V17.0385Z" fill="#E0E0E0"/>
<path d="M51.3278 17.0385H22.6947V47.5705H51.3278V17.0385Z" fill="#F0F0F0"/>
<path d="M50.1156 18.0126H23.8606V46.1665H50.1156V18.0126Z" fill="white"/>
<path d="M50.1176 18.0126H49.3575V46.1665H50.1176V18.0126Z" fill="#E0E0E0"/>
<path d="M23.7935 38.2565V39.0166H49.4378V38.2565L23.7935 38.2565Z" fill="#E0E0E0"/>
<path d="M50.1164 36.9836H23.4544V38.259H50.1164V36.9836Z" fill="#F0F0F0"/>
<path d="M70.5223 84.3566H108.503V36.2602L70.5223 36.2602V84.3566Z" fill="#F0F0F0"/>
<path d="M71.8641 48.2973L107.16 48.2973V38.0118L71.8641 38.0118V48.2973Z" fill="#E0E0E0"/>
<path d="M105.153 48.2973H107.158V39.6788H105.153V48.2973Z" fill="#EBEBEB"/>
<path d="M95.4585 48.2973H97.463V39.6788H95.4585V48.2973Z" fill="#EBEBEB"/>
<path d="M82.9911 47.953L84.9665 48.2935L86.4305 39.8002L84.4551 39.4597L82.9911 47.953Z" fill="#EBEBEB"/>
<path d="M102.673 48.2973H104.678V40.8124H102.673V48.2973Z" fill="#EBEBEB"/>
<path d="M98.0599 48.2973H100.064V40.8124H98.0599V48.2973Z" fill="#EBEBEB"/>
<path d="M86.4274 48.2973H88.432V40.8124H86.4274V48.2973Z" fill="#EBEBEB"/>
<path d="M91.2062 47.8605L93.163 48.2954L94.7868 40.9888L92.83 40.5539L91.2062 47.8605Z" fill="#EBEBEB"/>
<path d="M100.939 48.2973H101.941V39.2485H100.939V48.2973Z" fill="#EBEBEB"/>
<path d="M89.011 48.2974H90.0133V39.2486H89.011V48.2974Z" fill="#EBEBEB"/>
<path d="M107.158 49.9257H71.8618V60.2113H107.158V49.9257Z" fill="#E0E0E0"/>
<path d="M73.8663 51.5901H71.8618V60.2086H73.8663V51.5901Z" fill="#EBEBEB"/>
<path d="M83.5621 51.5901H81.5576V60.2086H83.5621V51.5901Z" fill="#EBEBEB"/>
<path d="M94.5706 51.3704L92.5952 51.7109L94.0592 60.2042L96.0346 59.8637L94.5706 51.3704Z" fill="#EBEBEB"/>
<path d="M76.3539 52.7266H74.3493V60.2114H76.3539V52.7266Z" fill="#EBEBEB"/>
<path d="M80.9597 52.7266H78.9552V60.2114H80.9597V52.7266Z" fill="#EBEBEB"/>
<path d="M92.593 52.7266H90.5885V60.2114H92.593V52.7266Z" fill="#EBEBEB"/>
<path d="M86.1996 52.4649L84.2428 52.8998L85.8666 60.2064L87.8234 59.7715L86.1996 52.4649Z" fill="#EBEBEB"/>
<path d="M78.0879 51.1619H77.0857V60.2107H78.0879V51.1619Z" fill="#EBEBEB"/>
<path d="M90.0118 51.1619H89.0095V60.2107H90.0118V51.1619Z" fill="#EBEBEB"/>
<path d="M105.153 60.2117H107.158V51.5932H105.153V60.2117Z" fill="#EBEBEB"/>
<path d="M102.673 60.2117H104.678V52.7269H102.673V60.2117Z" fill="#EBEBEB"/>
<path d="M98.0599 60.2117H100.064V52.7269H98.0599V60.2117Z" fill="#EBEBEB"/>
<path d="M100.939 60.2117H101.941V51.1629H100.939V60.2117Z" fill="#EBEBEB"/>
<path d="M71.8641 72.1225H107.16V61.837H71.8641V72.1225Z" fill="#E0E0E0"/>
<path d="M84.8944 72.1225H86.8989V63.504H84.8944V72.1225Z" fill="#EBEBEB"/>
<path d="M72.428 71.7806L74.4034 72.1211L75.8674 63.6278L73.892 63.2873L72.428 71.7806Z" fill="#EBEBEB"/>
<path d="M92.1093 72.1225H94.1139V64.6377H92.1093V72.1225Z" fill="#EBEBEB"/>
<path d="M87.4983 72.1225H89.5028V64.6377H87.4983V72.1225Z" fill="#EBEBEB"/>
<path d="M75.8643 72.1225H77.8689V64.6377H75.8643V72.1225Z" fill="#EBEBEB"/>
<path d="M80.6416 71.6847L82.5984 72.1196L84.2222 64.813L82.2654 64.3781L80.6416 71.6847Z" fill="#EBEBEB"/>
<path d="M90.3748 72.1225H91.3771V63.0737H90.3748V72.1225Z" fill="#EBEBEB"/>
<path d="M78.4481 72.1225H79.4504V63.0737H78.4481V72.1225Z" fill="#EBEBEB"/>
<path d="M95.4968 71.781L97.4722 72.1216L98.9362 63.6283L96.9607 63.2878L95.4968 71.781Z" fill="#EBEBEB"/>
<path d="M98.9345 72.1225H100.939V64.6377H98.9345V72.1225Z" fill="#EBEBEB"/>
<path d="M103.709 71.6872L105.666 72.122L107.29 64.8155L105.333 64.3806L103.709 71.6872Z" fill="#EBEBEB"/>
<path d="M101.514 72.1225H102.516V63.0737H101.514V72.1225Z" fill="#EBEBEB"/>
<path d="M45.4512 54.785H23.4063C22.837 54.7843 22.2731 54.8958 21.7469 55.1131C21.2206 55.3305 20.7424 55.6494 20.3395 56.0516C19.9365 56.4538 19.6168 56.9315 19.3985 57.4573C19.1803 57.9831 19.0677 58.5468 19.0674 59.1162V76.33H49.7824V59.1162C49.7824 57.9675 49.326 56.8658 48.5138 56.0536C47.7015 55.2413 46.5999 54.785 45.4512 54.785Z" fill="#E6E6E6"/>
<path d="M56.2996 67.5467H52.3549C51.6716 67.5467 51.0162 67.8181 50.533 68.3013C50.0498 68.7845 49.7784 69.4399 49.7784 70.1232V84.356H58.8684V70.118C58.8671 69.4369 58.5961 68.7841 58.1147 68.3022C57.6333 67.8203 56.9807 67.5487 56.2996 67.5467Z" fill="#E0E0E0"/>
<path d="M56.2997 67.5467H56.2147C55.5313 67.5467 54.876 67.8181 54.3928 68.3013C53.9096 68.7845 53.6381 69.4399 53.6381 70.1232V84.356H58.8659V70.118C58.8646 69.4374 58.5939 68.7849 58.1131 68.3031C57.6323 67.8213 56.9804 67.5494 56.2997 67.5467Z" fill="#EBEBEB"/>
<path d="M52.5437 77.8165H22.2874V84.3558H52.5437V77.8165Z" fill="#E6E6E6"/>
<path d="M52.5845 71.8338H23.4051C21.9608 71.8338 20.7899 73.0046 20.7899 74.449V76.0799C20.7899 77.5242 21.9608 78.6951 23.4051 78.6951H52.5845C54.0288 78.6951 55.1997 77.5242 55.1997 76.0799V74.449C55.1997 73.0046 54.0288 71.8338 52.5845 71.8338Z" fill="#F5F5F5"/>
<path d="M23.063 67.5467H19.1183C18.435 67.5467 17.7796 67.8181 17.2964 68.3013C16.8132 68.7845 16.5418 69.4399 16.5418 70.1232V84.356H25.637V70.118C25.6356 69.436 25.3639 68.7824 24.8814 68.3004C24.3989 67.8184 23.745 67.5473 23.063 67.5467Z" fill="#E0E0E0"/>
<path d="M23.0633 67.5467H22.9809C22.2975 67.5467 21.6422 67.8181 21.159 68.3013C20.6758 68.7845 20.4043 69.4399 20.4043 70.1232V84.356H25.6373V70.118C25.6359 69.436 25.3642 68.7824 24.8817 68.3004C24.3992 67.8184 23.7453 67.5473 23.0633 67.5467Z" fill="#F0F0F0"/>
<path d="M88.5511 24.8327C91.4483 24.8327 93.797 22.4841 93.797 19.5869C93.797 16.6897 91.4483 14.341 88.5511 14.341C85.6539 14.341 83.3053 16.6897 83.3053 19.5869C83.3053 22.4841 85.6539 24.8327 88.5511 24.8327Z" fill="#E0E0E0"/>
<path d="M92.9561 20.3048C93.3508 17.8734 91.6997 15.5825 89.2683 15.1878C86.837 14.7931 84.546 16.4442 84.1514 18.8756C83.7567 21.3069 85.4078 23.5979 87.8391 23.9925C90.2705 24.3872 92.5614 22.7361 92.9561 20.3048Z" fill="#F0F0F0"/>
<path d="M88.3414 16.5284V19.646L86.275 18.4763" fill="#F0F0F0"/>
<path d="M88.3416 19.8669C88.3029 19.8667 88.2649 19.8569 88.2308 19.8386L86.1696 18.6688C86.1183 18.6394 86.0808 18.5909 86.0654 18.5339C86.0499 18.4769 86.0577 18.416 86.0871 18.3648C86.1165 18.3135 86.165 18.2761 86.2221 18.2606C86.2791 18.2451 86.3399 18.253 86.3911 18.2823L88.1226 19.2614V16.5277C88.1192 16.4964 88.1225 16.4648 88.1321 16.4349C88.1418 16.4049 88.1577 16.3773 88.1787 16.3539C88.1997 16.3305 88.2254 16.3118 88.2542 16.299C88.2829 16.2862 88.314 16.2796 88.3455 16.2796C88.3769 16.2796 88.408 16.2862 88.4368 16.299C88.4655 16.3118 88.4912 16.3305 88.5122 16.3539C88.5333 16.3773 88.5491 16.4049 88.5588 16.4349C88.5684 16.4648 88.5717 16.4964 88.5683 16.5277V19.6453C88.5684 19.6841 88.5581 19.7221 88.5387 19.7556C88.5192 19.7891 88.4912 19.8169 88.4575 19.836C88.4227 19.8573 88.3824 19.868 88.3416 19.8669Z" fill="#E0E0E0"/>
<path d="M64.4137 95C92.004 95 114.37 93.6942 114.37 92.0834C114.37 90.4726 92.004 89.1667 64.4137 89.1667C36.8235 89.1667 14.4572 90.4726 14.4572 92.0834C14.4572 93.6942 36.8235 95 64.4137 95Z" fill="#F5F5F5"/>
<path d="M48.1814 55.9108C50.003 56.8461 51.8041 57.8252 53.5922 58.8145C55.102 59.6519 57.341 60.8449 58.7659 61.7801C58.8226 61.8059 58.8689 61.8574 58.82 62.1048C58.6672 62.8282 58.3349 63.5016 57.8538 64.063C57.6863 64.2536 57.6193 64.2459 57.5626 64.215C55.9626 63.6584 53.636 62.6021 52.0617 61.9141C50.186 61.0871 48.3154 60.2548 46.4655 59.3762C44.1672 58.1653 45.8084 54.8235 48.1763 55.9108H48.1814Z" fill="#E4897B"/>
<path d="M49.7967 51.2268L49.5392 51.0955C49.534 51.0929 49.5283 51.0914 49.5224 51.091C49.5166 51.0906 49.5108 51.0914 49.5052 51.0933C49.4997 51.0952 49.4946 51.0982 49.4903 51.1022C49.486 51.1061 49.4825 51.1108 49.48 51.1161C49.4752 51.1265 49.4743 51.1382 49.4777 51.1492C49.481 51.1601 49.4882 51.1694 49.498 51.1753L49.7555 51.3041C49.7651 51.3058 49.7749 51.3045 49.7837 51.3004C49.7925 51.2962 49.7997 51.2894 49.8044 51.2809C49.8095 51.2723 49.8114 51.2623 49.81 51.2525C49.8086 51.2427 49.8039 51.2336 49.7967 51.2268Z" fill="#263238"/>
<path d="M50.6984 51.765L51.2137 51.9995C51.2236 52.002 51.2341 52.0008 51.2432 51.996C51.2522 51.9913 51.2592 51.9833 51.2627 51.9737C51.2672 51.9634 51.2675 51.9518 51.2637 51.9412C51.2599 51.9307 51.2521 51.922 51.2421 51.917L50.7268 51.6825C50.7215 51.6799 50.7158 51.6784 50.71 51.678C50.7042 51.6776 50.6983 51.6784 50.6928 51.6804C50.6873 51.6823 50.6822 51.6853 50.6778 51.6892C50.6735 51.6931 50.67 51.6979 50.6675 51.7032C50.6651 51.7092 50.664 51.7157 50.6643 51.7223C50.6646 51.7288 50.6662 51.7352 50.6691 51.741C50.6721 51.7468 50.6762 51.752 50.6812 51.7561C50.6863 51.7603 50.6921 51.7633 50.6984 51.765Z" fill="#263238"/>
<path d="M52.1873 52.4299C52.5558 52.5845 52.9113 52.7263 53.2489 52.8499C53.2594 52.8519 53.2703 52.8501 53.2797 52.845C53.2891 52.8398 53.2964 52.8315 53.3004 52.8216C53.3039 52.8106 53.3032 52.7988 53.2984 52.7883C53.2937 52.7778 53.2852 52.7695 53.2746 52.7649C52.9397 52.6412 52.5841 52.5073 52.2182 52.3475C52.2129 52.345 52.207 52.3436 52.2011 52.3434C52.1951 52.3432 52.1892 52.3442 52.1836 52.3463C52.1781 52.3485 52.173 52.3518 52.1688 52.356C52.1646 52.3602 52.1612 52.3652 52.159 52.3707C52.1569 52.3764 52.1561 52.3825 52.1564 52.3886C52.1567 52.3947 52.1582 52.4007 52.1609 52.4062C52.1635 52.4117 52.1672 52.4166 52.1717 52.4207C52.1763 52.4248 52.1816 52.4279 52.1873 52.4299Z" fill="#263238"/>
<path d="M53.7852 53.043C54.2627 53.2085 54.7497 53.3453 55.2435 53.4527C55.645 53.5473 56.0587 53.5795 56.47 53.548C57.4439 53.4346 57.547 53.0327 57.5212 52.7957C57.4697 52.3138 56.774 51.765 56.2819 51.8114C56.1917 51.8032 56.1012 51.8224 56.0221 51.8666C55.9431 51.9108 55.8793 51.9779 55.8392 52.059C55.799 52.1402 55.7844 52.2316 55.7972 52.3212C55.81 52.4108 55.8496 52.4945 55.9109 52.5612C55.9803 52.6542 56.0732 52.7271 56.18 52.7723C56.2869 52.8176 56.4038 52.8337 56.5189 52.8188C56.5247 52.8182 56.5303 52.8164 56.5353 52.8136C56.5404 52.8108 56.5449 52.807 56.5485 52.8024C56.5521 52.7979 56.5547 52.7927 56.5563 52.7871C56.5578 52.7815 56.5583 52.7756 56.5576 52.7699C56.5573 52.764 56.5558 52.7582 56.5531 52.7529C56.5504 52.7477 56.5466 52.743 56.5419 52.7394C56.5373 52.7357 56.5319 52.7331 56.5262 52.7317C56.5204 52.7303 56.5144 52.7301 56.5086 52.7312C56.4109 52.7422 56.312 52.7275 56.2216 52.6887C56.1313 52.6498 56.0526 52.5881 55.9933 52.5097C55.9483 52.4552 55.9183 52.3899 55.9066 52.3202C55.8948 52.2506 55.9016 52.1791 55.9263 52.1129C55.9621 52.0475 56.0152 51.9933 56.0797 51.9561C56.1442 51.9188 56.2177 51.9 56.2922 51.9016C56.7353 51.8552 57.3872 52.3731 57.4336 52.806C57.4722 53.1512 57.1244 53.3857 56.4597 53.463C55.8825 53.53 54.991 53.3625 53.8135 52.9605C53.8081 52.9586 53.8024 52.9577 53.7966 52.9581C53.7909 52.9585 53.7853 52.9601 53.7802 52.9627C53.7751 52.9654 53.7706 52.9691 53.7671 52.9736C53.7635 52.9781 53.7609 52.9833 53.7594 52.9889C53.7574 52.9941 53.7565 52.9997 53.7567 53.0053C53.7569 53.0109 53.7583 53.0164 53.7607 53.0215C53.7631 53.0266 53.7665 53.0311 53.7707 53.0348C53.7749 53.0385 53.7799 53.0413 53.7852 53.043Z" fill="#263238"/>
<path d="M49.3303 51.7888L48.9956 51.6034C48.9907 51.5994 48.985 51.5966 48.9789 51.595C48.9728 51.5934 48.9664 51.5932 48.9602 51.5943C48.954 51.5955 48.9481 51.5979 48.9429 51.6015C48.9378 51.6051 48.9335 51.6098 48.9303 51.6153C48.9271 51.6207 48.9251 51.6268 48.9245 51.633C48.9238 51.6393 48.9246 51.6456 48.9266 51.6516C48.9287 51.6576 48.932 51.663 48.9363 51.6676C48.9407 51.6722 48.946 51.6757 48.9518 51.6781L49.2891 51.866C49.2983 51.8676 49.3078 51.8662 49.3161 51.862C49.3244 51.8579 49.3312 51.8511 49.3355 51.8429C49.3413 51.8348 49.344 51.8248 49.3431 51.8148C49.3421 51.8049 49.3376 51.7956 49.3303 51.7888Z" fill="#263238"/>
<path d="M51.1471 52.739C50.74 52.5381 50.3278 52.3242 49.9233 52.1129C49.9183 52.1098 49.9127 52.1079 49.9069 52.1071C49.9011 52.1063 49.8952 52.1068 49.8896 52.1085C49.884 52.1102 49.8788 52.1131 49.8744 52.117C49.87 52.1209 49.8664 52.1256 49.864 52.131C49.8592 52.1413 49.8584 52.1531 49.8617 52.1641C49.865 52.175 49.8723 52.1843 49.8821 52.1902C50.2866 52.4041 50.6988 52.6154 51.1085 52.8189C51.1181 52.8211 51.1281 52.82 51.137 52.8158C51.1459 52.8116 51.1531 52.8045 51.1574 52.7957C51.1629 52.7866 51.1648 52.7759 51.1629 52.7654C51.161 52.755 51.1554 52.7456 51.1471 52.739Z" fill="#263238"/>
<path d="M54.1229 54.1073C53.3499 53.7956 52.5074 53.4142 51.6082 52.9788C51.5979 52.9733 51.5859 52.9722 51.5748 52.9755C51.5637 52.9789 51.5544 52.9866 51.5489 52.9968C51.5443 53.0075 51.5439 53.0195 51.5477 53.0305C51.5515 53.0415 51.5593 53.0506 51.5695 53.0561C52.4687 53.4941 53.3164 53.8754 54.0894 54.1872C55.6095 54.803 56.0244 55.4755 56.1042 55.9264C56.134 56.0779 56.1261 56.2345 56.0812 56.3823C56.0362 56.5301 55.9557 56.6647 55.8466 56.774C55.7295 56.8506 55.5967 56.8999 55.458 56.9182C55.3193 56.9364 55.1782 56.9233 55.0453 56.8797C54.8499 56.8433 54.6662 56.7604 54.5097 56.638C54.3531 56.5155 54.2284 56.3571 54.1461 56.1763C54.1134 56.1103 54.1072 56.0343 54.1288 55.9639C54.1504 55.8935 54.198 55.8339 54.262 55.7975C54.4003 55.7149 54.5583 55.6713 54.7194 55.6713C54.8804 55.6713 55.0384 55.7149 55.1767 55.7975C55.2194 55.8394 55.2448 55.8958 55.2476 55.9555C55.2505 56.0153 55.2307 56.0739 55.1922 56.1196C55.1863 56.1299 55.1847 56.1421 55.1876 56.1536C55.1904 56.1651 55.1976 56.1751 55.2076 56.1814C55.2175 56.1871 55.2293 56.1887 55.2404 56.1858C55.2515 56.1829 55.261 56.1758 55.2669 56.166C55.316 56.1027 55.3401 56.0235 55.3344 55.9436C55.3287 55.8637 55.2936 55.7887 55.236 55.7331C55.0831 55.6335 54.9053 55.5792 54.7229 55.5765C54.5405 55.5737 54.3611 55.6227 54.2053 55.7177C54.1252 55.7652 54.0655 55.8408 54.0379 55.9298C54.0103 56.0188 54.0167 56.1149 54.0559 56.1995C54.1436 56.3938 54.2766 56.5643 54.4438 56.6966C54.6111 56.8288 54.8076 56.919 55.0169 56.9596H55.0659C55.2062 56.9999 55.3538 57.0083 55.4978 56.9842C55.6418 56.9602 55.7786 56.9042 55.8981 56.8204C56.0174 56.7007 56.1054 56.5535 56.1544 56.3917C56.2033 56.23 56.2118 56.0586 56.179 55.8929C56.1068 55.4265 55.6817 54.7283 54.1229 54.1073Z" fill="#263238"/>
<path d="M58.4384 54.6224C58.401 54.5039 58.3312 54.3981 58.237 54.3171C58.1428 54.2361 58.0278 54.183 57.905 54.1638C57.7982 54.1282 57.6827 54.1286 57.5762 54.1649C57.4696 54.2012 57.3779 54.2714 57.315 54.3647C57.3117 54.3694 57.3094 54.3747 57.3083 54.3803C57.3072 54.3858 57.3072 54.3916 57.3084 54.3972C57.3096 54.4028 57.312 54.408 57.3153 54.4126C57.3187 54.4172 57.323 54.4211 57.3279 54.424C57.3379 54.4301 57.3498 54.4321 57.3613 54.4297C57.3728 54.4273 57.3829 54.4207 57.3897 54.4111C57.4457 54.336 57.5235 54.2801 57.6126 54.251C57.7016 54.2219 57.7975 54.2212 57.887 54.2488C57.9917 54.265 58.0901 54.3092 58.1718 54.3768C58.2534 54.4444 58.3153 54.5328 58.3508 54.6327C58.3688 54.777 58.2425 54.8749 58.1343 54.9316C57.4206 55.3103 55.8154 54.3853 55.7871 54.375C55.7772 54.3694 55.7654 54.3678 55.7543 54.3707C55.7432 54.3736 55.7337 54.3807 55.7278 54.3905C55.722 54.4008 55.7204 54.413 55.7233 54.4245C55.7261 54.436 55.7333 54.4459 55.7433 54.4523C56.2279 54.7263 56.7482 54.9318 57.2892 55.063C57.5864 55.1476 57.9035 55.1285 58.1884 55.0089C58.4177 54.88 58.4512 54.7203 58.4384 54.6224Z" fill="#263238"/>
<path d="M53.7337 53.4269C53.7231 53.4226 53.7112 53.4226 53.7006 53.427C53.69 53.4313 53.6816 53.4396 53.677 53.4501C53.6749 53.4555 53.674 53.4613 53.6742 53.4671C53.6743 53.4729 53.6757 53.4786 53.6781 53.4838C53.6805 53.4891 53.6839 53.4939 53.6881 53.4978C53.6924 53.5017 53.6973 53.5048 53.7028 53.5068C53.7028 53.5068 54.3495 53.7645 55.2255 54.1664C55.2351 54.1686 55.2451 54.1675 55.254 54.1633C55.2629 54.1591 55.2701 54.152 55.2745 54.1432C55.2791 54.1326 55.2795 54.1205 55.2757 54.1096C55.2719 54.0986 55.2641 54.0895 55.2539 54.084C54.383 53.6769 53.7414 53.4295 53.7337 53.4269Z" fill="#263238"/>
<g opacity="0.7">
<path d="M49.7968 51.2269L49.5393 51.0956C49.5341 51.093 49.5284 51.0914 49.5226 51.091C49.5167 51.0907 49.5109 51.0915 49.5054 51.0934C49.4999 51.0953 49.4948 51.0983 49.4904 51.1022C49.4861 51.1061 49.4826 51.1109 49.4801 51.1162C49.4753 51.1265 49.4745 51.1383 49.4778 51.1492C49.4811 51.1602 49.4884 51.1695 49.4981 51.1754L49.7556 51.3041C49.7652 51.3059 49.775 51.3046 49.7838 51.3004C49.7926 51.2963 49.7998 51.2895 49.8045 51.281C49.8096 51.2724 49.8116 51.2624 49.8102 51.2526C49.8087 51.2428 49.804 51.2337 49.7968 51.2269Z" fill="white"/>
<path d="M50.6986 51.7649L51.2139 51.9993C51.2238 52.0019 51.2343 52.0007 51.2433 51.9959C51.2523 51.9911 51.2593 51.9832 51.2628 51.9736C51.2673 51.9633 51.2677 51.9517 51.2638 51.9411C51.26 51.9306 51.2523 51.9219 51.2422 51.9169L50.7269 51.6824C50.7217 51.6798 50.716 51.6783 50.7101 51.6779C50.7043 51.6775 50.6984 51.6783 50.6929 51.6802C50.6874 51.6822 50.6823 51.6852 50.678 51.6891C50.6736 51.693 50.6701 51.6977 50.6676 51.703C50.6652 51.7091 50.6641 51.7156 50.6644 51.7221C50.6647 51.7286 50.6664 51.735 50.6693 51.7409C50.6722 51.7467 50.6763 51.7519 50.6814 51.756C50.6864 51.7601 50.6923 51.7632 50.6986 51.7649Z" fill="white"/>
<path d="M52.1874 52.43C52.5559 52.5846 52.9115 52.7263 53.249 52.85C53.2595 52.8519 53.2704 52.8502 53.2798 52.845C53.2892 52.8399 53.2965 52.8316 53.3005 52.8216C53.304 52.8107 53.3033 52.7988 53.2986 52.7883C53.2938 52.7779 53.2853 52.7695 53.2747 52.765C52.9398 52.6413 52.5842 52.5073 52.2184 52.3476C52.213 52.345 52.2071 52.3436 52.2012 52.3434C52.1952 52.3432 52.1893 52.3442 52.1837 52.3464C52.1782 52.3486 52.1732 52.3518 52.1689 52.356C52.1647 52.3602 52.1613 52.3652 52.1591 52.3708C52.1571 52.3765 52.1562 52.3826 52.1565 52.3887C52.1568 52.3948 52.1583 52.4008 52.161 52.4063C52.1636 52.4118 52.1673 52.4167 52.1718 52.4208C52.1764 52.4249 52.1817 52.428 52.1874 52.43Z" fill="white"/>
<path d="M53.7858 53.0431C54.2633 53.2086 54.7503 53.3454 55.2441 53.4527C55.6456 53.5474 56.0593 53.5796 56.4706 53.5481C57.4445 53.4347 57.5476 53.0328 57.5218 52.7957C57.4703 52.3139 56.7746 51.7651 56.2825 51.8115C56.1923 51.8032 56.1018 51.8224 56.0227 51.8666C55.9437 51.9108 55.8799 51.9779 55.8398 52.0591C55.7996 52.1402 55.785 52.2316 55.7978 52.3213C55.8106 52.4109 55.8502 52.4946 55.9115 52.5612C55.9809 52.6542 56.0738 52.7271 56.1806 52.7724C56.2875 52.8177 56.4044 52.8337 56.5195 52.8189C56.5253 52.8183 56.5309 52.8165 56.536 52.8137C56.541 52.8109 56.5455 52.8071 56.5491 52.8025C56.5527 52.798 56.5553 52.7927 56.5569 52.7871C56.5585 52.7815 56.5589 52.7757 56.5582 52.7699C56.5579 52.764 56.5564 52.7583 56.5537 52.753C56.551 52.7477 56.5472 52.7431 56.5425 52.7394C56.5379 52.7358 56.5325 52.7331 56.5268 52.7317C56.521 52.7303 56.515 52.7302 56.5092 52.7313C56.4115 52.7422 56.3126 52.7276 56.2222 52.6887C56.1319 52.6499 56.0532 52.5882 55.9939 52.5097C55.9489 52.4553 55.9189 52.39 55.9072 52.3203C55.8954 52.2506 55.9022 52.1791 55.9269 52.1129C55.9627 52.0476 56.0158 51.9934 56.0803 51.9561C56.1448 51.9189 56.2183 51.9 56.2928 51.9017C56.736 51.8553 57.3878 52.3732 57.4342 52.806C57.4728 53.1513 57.125 53.3857 56.4603 53.463C55.8831 53.53 54.9916 53.3625 53.8142 52.9606C53.8088 52.9586 53.803 52.9578 53.7973 52.9582C53.7915 52.9586 53.7859 52.9601 53.7808 52.9628C53.7757 52.9655 53.7712 52.9692 53.7677 52.9737C53.7641 52.9782 53.7615 52.9834 53.76 52.989C53.758 52.9942 53.7571 52.9998 53.7573 53.0054C53.7575 53.011 53.7589 53.0165 53.7613 53.0216C53.7637 53.0266 53.7671 53.0311 53.7713 53.0348C53.7755 53.0385 53.7805 53.0413 53.7858 53.0431Z" fill="white"/>
<path d="M49.3304 51.7886L48.9957 51.6032C48.9908 51.5992 48.9851 51.5964 48.979 51.5948C48.9729 51.5933 48.9665 51.593 48.9603 51.5942C48.9541 51.5953 48.9482 51.5977 48.9431 51.6014C48.9379 51.605 48.9336 51.6096 48.9304 51.6151C48.9272 51.6205 48.9252 51.6266 48.9246 51.6329C48.924 51.6391 48.9247 51.6455 48.9267 51.6514C48.9288 51.6574 48.9321 51.6628 48.9364 51.6674C48.9408 51.672 48.9461 51.6755 48.9519 51.6779L49.2892 51.8658C49.2984 51.8674 49.3079 51.866 49.3162 51.8619C49.3246 51.8577 49.3313 51.851 49.3356 51.8427C49.3414 51.8346 49.3441 51.8246 49.3432 51.8147C49.3422 51.8047 49.3377 51.7955 49.3304 51.7886Z" fill="white"/>
<path d="M51.1477 52.7389C50.7407 52.5379 50.3284 52.3241 49.9239 52.1128C49.9189 52.1097 49.9133 52.1077 49.9075 52.107C49.9017 52.1062 49.8958 52.1067 49.8902 52.1084C49.8846 52.1101 49.8794 52.113 49.875 52.1169C49.8706 52.1207 49.867 52.1255 49.8646 52.1308C49.8598 52.1412 49.859 52.153 49.8623 52.1639C49.8656 52.1749 49.8729 52.1842 49.8827 52.1901C50.2872 52.404 50.6994 52.6152 51.1091 52.8188C51.1187 52.821 51.1287 52.8199 51.1376 52.8157C51.1465 52.8115 51.1537 52.8044 51.1581 52.7956C51.1635 52.7865 51.1654 52.7757 51.1635 52.7653C51.1616 52.7549 51.156 52.7455 51.1477 52.7389Z" fill="white"/>
<path d="M54.1225 54.1071C53.3496 53.7954 52.507 53.414 51.6078 52.9786C51.5976 52.9731 51.5856 52.972 51.5744 52.9754C51.5633 52.9787 51.554 52.9864 51.5486 52.9966C51.5439 53.0073 51.5435 53.0193 51.5473 53.0303C51.5511 53.0413 51.5589 53.0504 51.5692 53.0559C52.4684 53.4939 53.3161 53.8752 54.089 54.187C55.6092 54.8028 56.024 55.4753 56.1039 55.9262C56.1337 56.0778 56.1257 56.2343 56.0808 56.3822C56.0359 56.53 55.9553 56.6645 55.8462 56.7739C55.7291 56.8504 55.5963 56.8997 55.4576 56.918C55.3189 56.9363 55.1779 56.9231 55.0449 56.8795C54.8496 56.8431 54.6658 56.7602 54.5093 56.6378C54.3528 56.5153 54.2281 56.357 54.1457 56.1761C54.1131 56.1101 54.1069 56.0341 54.1284 55.9637C54.15 55.8933 54.1977 55.8338 54.2617 55.7973C54.3999 55.7147 54.5579 55.6711 54.719 55.6711C54.88 55.6711 55.0381 55.7147 55.1763 55.7973C55.219 55.8392 55.2444 55.8956 55.2473 55.9553C55.2501 56.0151 55.2303 56.0737 55.1918 56.1194C55.186 56.1297 55.1843 56.1419 55.1872 56.1534C55.1901 56.1649 55.1973 56.1749 55.2072 56.1813C55.2172 56.1869 55.2289 56.1885 55.24 56.1856C55.2511 56.1827 55.2606 56.1756 55.2665 56.1658C55.3157 56.1025 55.3397 56.0233 55.334 55.9434C55.3283 55.8635 55.2932 55.7886 55.2356 55.7329C55.0828 55.6333 54.9049 55.579 54.7225 55.5763C54.5401 55.5736 54.3607 55.6225 54.205 55.7175C54.1248 55.765 54.0651 55.8406 54.0375 55.9296C54.0099 56.0186 54.0163 56.1147 54.0555 56.1993C54.1432 56.3936 54.2762 56.5641 54.4435 56.6964C54.6107 56.8286 54.8072 56.9188 55.0166 56.9594H55.0655C55.2058 56.9997 55.3534 57.0081 55.4974 56.9841C55.6414 56.96 55.7782 56.904 55.8978 56.8202C56.017 56.7005 56.105 56.5533 56.154 56.3915C56.203 56.2298 56.2114 56.0585 56.1786 55.8927C56.1065 55.4263 55.6813 54.7281 54.1225 54.1071Z" fill="white"/>
<path d="M58.4385 54.622C58.4011 54.5034 58.3314 54.3977 58.2371 54.3167C58.1429 54.2356 58.0279 54.1825 57.9051 54.1633C57.7983 54.1278 57.6828 54.1282 57.5763 54.1645C57.4697 54.2008 57.378 54.271 57.3151 54.3643C57.3118 54.369 57.3096 54.3742 57.3084 54.3798C57.3073 54.3854 57.3073 54.3912 57.3086 54.3968C57.3098 54.4023 57.3121 54.4076 57.3155 54.4122C57.3188 54.4168 57.3231 54.4207 57.328 54.4236C57.338 54.4296 57.35 54.4317 57.3614 54.4293C57.3729 54.4269 57.3831 54.4202 57.3898 54.4107C57.4458 54.3356 57.5237 54.2796 57.6127 54.2506C57.7017 54.2215 57.7976 54.2207 57.8871 54.2484C57.9918 54.2646 58.0903 54.3088 58.1719 54.3764C58.2536 54.444 58.3154 54.5324 58.3509 54.6323C58.3689 54.7765 58.2427 54.8745 58.1344 54.9311C57.4207 55.3099 55.8156 54.3849 55.7872 54.3746C55.7773 54.3689 55.7655 54.3674 55.7544 54.3703C55.7434 54.3731 55.7339 54.3803 55.728 54.3901C55.7221 54.4004 55.7205 54.4126 55.7234 54.4241C55.7263 54.4356 55.7334 54.4455 55.7434 54.4519C56.228 54.7259 56.7483 54.9314 57.2893 55.0625C57.5865 55.1471 57.9037 55.1281 58.1886 55.0084C58.4179 54.8796 58.4514 54.7199 58.4385 54.622Z" fill="white"/>
<path d="M53.7343 53.4267C53.7237 53.4224 53.7118 53.4225 53.7012 53.4268C53.6906 53.4311 53.6822 53.4394 53.6776 53.4499C53.6756 53.4554 53.6746 53.4611 53.6748 53.4669C53.675 53.4727 53.6763 53.4784 53.6787 53.4837C53.6811 53.4889 53.6845 53.4937 53.6887 53.4976C53.693 53.5016 53.698 53.5046 53.7034 53.5066C53.7034 53.5066 54.3501 53.7643 55.2261 54.1662C55.2357 54.1684 55.2457 54.1673 55.2546 54.1631C55.2635 54.1589 55.2707 54.1518 55.2751 54.143C55.2797 54.1324 55.2801 54.1204 55.2763 54.1094C55.2725 54.0984 55.2647 54.0893 55.2545 54.0838C54.3836 53.6767 53.742 53.4293 53.7343 53.4267Z" fill="white"/>
</g>
<path d="M46.8456 70.1121H34.8802V75.9815H46.8456V70.1121Z" fill="#E4897B"/>
<path d="M32.9513 54.9297C32.9513 54.9297 41.4153 53.0669 48.4106 55.7851C48.4422 57.6411 48.5764 59.4939 48.8125 61.335C49.1372 63.9811 48.055 67.3409 47.3774 70.7188L34.4483 70.8115C34.4483 70.8115 35.1466 67.292 32.2763 60.4822L32.9513 54.9297Z" fill="#43744B"/>
<path opacity="0.1" d="M32.9513 54.9297C32.9513 54.9297 41.4153 53.0669 48.4106 55.7851C48.4106 55.7851 48.274 57.9134 48.8125 61.335C49.2248 63.9682 48.055 67.3409 47.3774 70.7188L34.4483 70.8115C34.4483 70.8115 35.1466 67.292 32.2763 60.4822L32.9513 54.9297Z" fill="black"/>
<path d="M39.1386 50.1677C37.7833 50.1677 37.1676 49.673 36.5415 48.1863C36.5377 48.1788 36.5356 48.1705 36.5352 48.1621C36.5349 48.1537 36.5364 48.1453 36.5396 48.1375C36.5427 48.1297 36.5475 48.1227 36.5536 48.1169C36.5597 48.1111 36.567 48.1066 36.5749 48.1039C36.5827 48.1005 36.5911 48.0986 36.5996 48.0985C36.6081 48.0983 36.6165 48.0998 36.6244 48.1029C36.6323 48.106 36.6395 48.1107 36.6456 48.1166C36.6517 48.1225 36.6566 48.1296 36.66 48.1374C37.317 49.6833 37.9611 50.1213 39.5354 50.026C39.5527 50.0253 39.5697 50.0313 39.5827 50.0428C39.5957 50.0544 39.6036 50.0705 39.605 50.0878C39.6053 50.0963 39.604 50.1047 39.6011 50.1127C39.5981 50.1206 39.5937 50.1279 39.5879 50.1341C39.5822 50.1404 39.5753 50.1454 39.5676 50.1489C39.5599 50.1525 39.5516 50.1545 39.5431 50.1548C39.4014 50.1651 39.2674 50.1677 39.1386 50.1677Z" fill="#263238"/>
<path d="M47.3026 41.2992C47.8413 41.784 48.2664 42.3818 48.5474 43.0499C48.8284 43.718 48.9585 44.4399 48.9284 45.164C48.8305 46.4755 47.3026 47.5679 47.7406 50.9999C46.7873 49.9384 44.2056 43.8758 42.8451 39.5111C42.8503 39.5137 45.8958 40.0109 47.3026 41.2992Z" fill="#263238"/>
<path d="M43.9103 39.831C41.8491 38.8906 39.8471 39.9985 38.6799 40.8178C37.5128 41.6372 36.6007 43.5928 36.6007 45.1671C36.6007 46.7413 36.5569 48.6428 37.5875 49.4621C38.6181 50.2815 39.5405 50.0908 39.5405 50.0908L47.3036 42.9255C47.3036 42.9255 45.9612 40.7689 43.9103 39.831Z" fill="#263238"/>
<path d="M42.4125 56.818C39.4392 56.0862 38.6791 54.6923 38.6791 54.6923C40.0473 53.6617 40.0189 51.9303 39.8257 50.8275C39.77 50.4771 39.6838 50.1323 39.568 49.7969L43.1237 50.8893C42.9813 51.386 42.8754 51.8923 42.8067 52.4043C42.7532 52.7799 42.7445 53.1604 42.781 53.538C42.9047 54.6511 43.5205 54.7387 43.5205 54.7387C44.0203 56.0012 42.4125 56.818 42.4125 56.818Z" fill="#E4897B"/>
<path d="M43.868 41.6211C47.014 42.0771 47.7843 43.9091 47.5473 47.1864C47.2484 51.2805 45.9344 54.0323 42.1366 52.5972C36.9474 50.6493 38.6479 40.8662 43.868 41.6211Z" fill="#E4897B"/>
<path d="M45.538 46.715C45.7214 47.2217 45.9654 47.7045 46.2645 48.1527C46.1538 48.2696 46.0129 48.3536 45.8574 48.3955C45.7019 48.4373 45.5378 48.4353 45.3834 48.3898L45.538 46.715Z" fill="#DE5753"/>
<path d="M42.4952 44.4145C42.5292 44.4153 42.5622 44.4034 42.5879 44.3811C43.1032 43.9147 43.8762 44.1234 43.8942 44.1234C43.9113 44.1285 43.9292 44.1301 43.947 44.1282C43.9647 44.1263 43.9819 44.1209 43.9975 44.1122C44.0131 44.1036 44.0268 44.0919 44.0378 44.0779C44.0488 44.0639 44.057 44.0478 44.0617 44.0306C44.0705 43.9958 44.0655 43.9589 44.0477 43.9277C44.03 43.8965 44.0008 43.8734 43.9664 43.8632C43.9277 43.8632 43.0208 43.6055 42.405 44.1724C42.3923 44.185 42.3822 44.2001 42.3753 44.2167C42.3685 44.2333 42.3649 44.251 42.3649 44.269C42.3649 44.2869 42.3685 44.3047 42.3753 44.3213C42.3822 44.3378 42.3923 44.3529 42.405 44.3656C42.416 44.3794 42.4296 44.3908 42.4451 44.3992C42.4606 44.4076 42.4776 44.4129 42.4952 44.4145Z" fill="#263238"/>
<path d="M47.4555 44.7749C47.4828 44.7745 47.5093 44.7659 47.5316 44.7502C47.554 44.7345 47.5711 44.7125 47.5808 44.687C47.5905 44.6614 47.5924 44.6336 47.5861 44.607C47.5798 44.5805 47.5657 44.5564 47.5456 44.5379C47.3739 44.3627 47.1643 44.2291 46.933 44.1474C46.7017 44.0656 46.4547 44.0379 46.211 44.0664C46.1935 44.0698 46.1768 44.0766 46.162 44.0865C46.1471 44.0964 46.1344 44.1092 46.1246 44.124C46.1147 44.1389 46.108 44.1556 46.1047 44.1731C46.1014 44.1907 46.1016 44.2087 46.1054 44.2261C46.1134 44.2608 46.1344 44.2912 46.1642 44.3108C46.1939 44.3305 46.23 44.338 46.2651 44.3318C46.4673 44.3121 46.6714 44.3385 46.8619 44.409C47.0525 44.4796 47.2246 44.5923 47.3653 44.7389C47.39 44.7613 47.422 44.7741 47.4555 44.7749Z" fill="#263238"/>
<path d="M39.6602 46.4315C39.6602 46.4315 41.505 44.056 41.572 42.0282C41.572 42.0282 48.1783 40.3792 47.5702 46.7562C47.5702 46.7562 48.9924 41.2218 43.5997 40.3148C38.207 39.4079 37.0837 47.3282 39.5391 50.0902C39.5391 50.0902 38.5162 47.9233 39.6602 46.4315Z" fill="#263238"/>
<path d="M40.0783 47.1689C40.1009 46.8003 39.9763 46.4379 39.7319 46.1611C39.4874 45.8843 39.1432 45.7158 38.7746 45.6926C37.7826 45.6591 37.0303 47.5941 39.3852 48.4263C39.7253 48.5448 39.9701 48.233 40.0783 47.1689Z" fill="#E4897B"/>
<path d="M44.3759 49.8941C44.3759 50.1518 44.515 50.3502 44.698 50.3553C44.8809 50.3605 45.0304 50.157 45.0355 49.9045C45.0407 49.652 44.8964 49.4484 44.7134 49.4458C44.5305 49.4433 44.3785 49.6416 44.3759 49.8941Z" fill="#2E353A"/>
<path d="M43.8833 46.1539C43.8901 46.1431 43.8938 46.1306 43.8938 46.1178C43.8938 46.105 43.8901 46.0925 43.8833 46.0817C43.8792 46.0746 43.8739 46.0683 43.8674 46.0633C43.8609 46.0582 43.8535 46.0545 43.8456 46.0523C43.8377 46.0502 43.8294 46.0496 43.8213 46.0507C43.8132 46.0518 43.8053 46.0544 43.7982 46.0586C43.3216 46.3317 42.9377 46.275 42.4352 46.0586C42.4201 46.051 42.4026 46.0494 42.3864 46.0542C42.3701 46.059 42.3563 46.0697 42.3476 46.0843C42.3437 46.0919 42.3412 46.1002 42.3405 46.1088C42.3398 46.1173 42.3408 46.1259 42.3434 46.1341C42.346 46.1422 42.3503 46.1498 42.3559 46.1563C42.3615 46.1628 42.3683 46.1681 42.376 46.1719C42.9171 46.4296 43.3499 46.4734 43.8626 46.1719L43.8833 46.1539Z" fill="#263238"/>
<path d="M45.7855 46.334C45.7791 46.323 45.7758 46.3106 45.7758 46.2979C45.7758 46.2853 45.7791 46.2728 45.7855 46.2619C45.7899 46.2548 45.7957 46.2487 45.8026 46.2439C45.8095 46.2391 45.8172 46.2358 45.8254 46.2341C45.8336 46.2324 45.8421 46.2324 45.8503 46.2341C45.8584 46.2358 45.8662 46.2391 45.8731 46.2438C46.3317 46.5479 46.7182 46.517 47.2361 46.3289C47.2435 46.3254 47.2516 46.3235 47.2597 46.3232C47.2679 46.3229 47.2761 46.3242 47.2838 46.3271C47.2914 46.33 47.2985 46.3343 47.3044 46.3399C47.3104 46.3456 47.3152 46.3523 47.3185 46.3598C47.3224 46.3673 47.3246 46.3756 47.3252 46.3841C47.3257 46.3926 47.3245 46.401 47.3216 46.409C47.3187 46.417 47.3141 46.4243 47.3083 46.4304C47.3025 46.4366 47.2954 46.4415 47.2876 46.4448C46.7311 46.6561 46.2956 46.6844 45.8035 46.3469L45.7855 46.334Z" fill="#263238"/>
<path d="M35.546 44.2057C37.0188 44.2057 38.2128 42.9045 38.2128 41.2993C38.2128 39.6942 37.0188 38.393 35.546 38.393C34.0732 38.393 32.8793 39.6942 32.8793 41.2993C32.8793 42.9045 34.0732 44.2057 35.546 44.2057Z" fill="#263238"/>
<path d="M46.5658 41.0315C47.2769 41.6576 48.0834 43.1056 48.0937 43.9018C48.104 44.6979 47.0167 45.2622 47.0167 45.2622C46.9971 44.8758 46.8612 44.5044 46.6267 44.1968C46.3921 43.8891 46.07 43.6596 45.7026 43.5385C45.6682 44.0763 45.4715 44.5911 45.1384 45.0148C44.9529 43.3839 43.425 42.5748 41.5724 42.0286L42.7757 39.8875C42.7757 39.8875 45.8624 40.408 46.5658 41.0315Z" fill="#263238"/>
<path d="M40.6504 46.437C40.6348 46.437 40.6198 46.4312 40.6084 46.4207C40.5969 46.4102 40.5898 46.3958 40.5885 46.3803C40.4855 45.6073 40.7174 45.1152 40.9828 44.5304C41.3995 43.7379 41.5953 42.848 41.5496 41.9538C41.5496 41.9367 41.5564 41.9203 41.5685 41.9083C41.5805 41.8962 41.5969 41.8894 41.614 41.8894C41.6311 41.8894 41.6475 41.8962 41.6596 41.9083C41.6716 41.9203 41.6784 41.9367 41.6784 41.9538C41.7208 42.8629 41.5217 43.767 41.1013 44.5742C40.8436 45.141 40.6195 45.628 40.7148 46.3545C40.717 46.3713 40.7126 46.3882 40.7025 46.4017C40.6924 46.4152 40.6774 46.4241 40.6607 46.4267L40.6504 46.437Z" fill="#263238"/>
<path d="M48.0943 51.067C48.0804 51.067 48.0668 51.0625 48.0557 51.0541C48.0445 51.0457 48.0364 51.034 48.0325 51.0206C47.5172 49.3716 47.9707 48.1452 48.3675 47.063C48.7359 46.0505 49.0863 45.0971 48.6406 43.93C48.6345 43.9139 48.6349 43.8961 48.6416 43.8802C48.6483 43.8644 48.6609 43.8518 48.6766 43.8449C48.6931 43.839 48.7111 43.8398 48.727 43.847C48.7429 43.8542 48.7553 43.8673 48.7617 43.8836C49.2229 45.0946 48.8647 46.0736 48.4886 47.1068C48.0789 48.2225 47.6589 49.3742 48.1562 50.9717C48.161 50.9881 48.159 51.0057 48.1508 51.0207C48.1426 51.0356 48.1288 51.0467 48.1124 51.0515L48.0943 51.067Z" fill="#263238"/>
<path d="M35.5057 44.1876C34.6508 44.1959 33.8241 43.8826 33.1894 43.3099C32.5547 42.7372 32.1583 41.947 32.0789 41.0958C32.0763 41.0867 32.0758 41.0773 32.0773 41.068C32.0788 41.0587 32.0823 41.0499 32.0876 41.0421C32.0929 41.0343 32.0998 41.0278 32.1079 41.023C32.116 41.0182 32.125 41.0152 32.1343 41.0142C32.1437 41.0133 32.1531 41.0144 32.162 41.0175C32.1709 41.0206 32.179 41.0255 32.1857 41.0321C32.1925 41.0386 32.1977 41.0466 32.201 41.0553C32.2044 41.0641 32.2058 41.0735 32.2051 41.0829C32.2826 41.9026 32.665 42.6634 33.2768 43.2145C33.8885 43.7657 34.6849 44.067 35.5082 44.0588C35.5166 44.0588 35.5248 44.0605 35.5325 44.0638C35.5402 44.067 35.5471 44.0718 35.5529 44.0778C35.5587 44.0838 35.5632 44.091 35.5661 44.0988C35.5691 44.1066 35.5704 44.1149 35.5701 44.1232C35.5701 44.1403 35.5633 44.1567 35.5512 44.1688C35.5391 44.1808 35.5228 44.1876 35.5057 44.1876Z" fill="#263238"/>
<path d="M35.2414 44.1877C34.7274 44.1639 34.2314 43.9909 33.8141 43.6899C33.3968 43.3888 33.0762 42.9727 32.8916 42.4924C32.6688 41.9349 32.5991 41.328 32.6897 40.7346C32.7803 40.1411 33.0279 39.5827 33.4069 39.1171C34.0381 38.4008 34.9528 38.1586 36.0015 38.4343C36.0158 38.4402 36.0275 38.451 36.0345 38.4648C36.0415 38.4787 36.0432 38.4945 36.0395 38.5095C36.0357 38.5245 36.0267 38.5377 36.014 38.5466C36.0014 38.5555 35.9859 38.5595 35.9705 38.558C34.976 38.3003 34.1 38.5245 33.5048 39.2021C33.1422 39.65 32.9058 40.1866 32.8202 40.7565C32.7346 41.3264 32.8028 41.9088 33.0178 42.4434C33.1929 42.8996 33.4967 43.2952 33.8924 43.582C34.288 43.8688 34.7585 44.0345 35.2465 44.0589C35.2636 44.0589 35.28 44.0657 35.2921 44.0778C35.3042 44.0899 35.3109 44.1062 35.3109 44.1233C35.3109 44.1404 35.3042 44.1568 35.2921 44.1689C35.28 44.181 35.2636 44.1877 35.2465 44.1877H35.2414Z" fill="#263238"/>
<path d="M34.4534 63.3826C33.9947 63.429 33.5516 62.6096 33.1058 61.9268L32.2659 60.4814C31.833 59.1364 32.557 56.9825 33.1393 54.929C34.2163 54.813 35.0795 55.2149 35.4582 56.5599C35.9735 58.2398 36.0972 60.1387 35.7623 61.3342C35.4763 62.352 35.4582 63.3826 34.4534 63.3826Z" fill="#E4897B"/>
<path opacity="0.2" d="M32.2638 60.3993C32.3631 60.5416 32.4948 60.6582 32.648 60.7397C32.8012 60.8213 32.9715 60.8653 33.145 60.8682C33.6113 60.8682 33.8174 60.2164 34.1395 59.58C34.4538 58.8482 34.7579 57.2869 34.4538 56.148L32.4338 57.4724C32.0242 58.5365 31.8928 59.5181 32.2638 60.3993Z" fill="black"/>
<path d="M47.0785 73.8742L48.9542 77.1671C53.9914 75.9947 70.1411 73.5316 72.1251 79.0711C74.5882 85.9582 56.7766 91.4385 46.9188 91.7838C37.0609 92.129 28.463 89.7689 34.6957 75.3996L47.0785 73.8742Z" fill="#263238"/>
<path opacity="0.2" d="M47.0785 73.8742L48.9542 77.1671C53.9914 75.9947 70.1411 73.5316 72.1251 79.0711C74.5882 85.9582 56.7766 91.4385 46.9188 91.7838C37.0609 92.129 28.463 89.7689 34.6957 75.3996L47.0785 73.8742Z" fill="black"/>
<path opacity="0.2" d="M55.4733 86.4739C55.4733 86.4739 60.3868 80.3417 63.8548 79.5842C63.8548 79.5842 44.6544 79.561 40.0012 81.1302L51.6703 88.633L55.4733 86.4739Z" fill="black"/>
<path d="M55.9083 86.3189L54.3417 86.878L52.3939 87.5711L52.8937 89.7019L54.7797 89.3L55.9083 89.0603V86.3189Z" fill="#E4897B"/>
<path d="M53.3969 89.5973L53.0877 87.3248C52.66 87.3995 51.2069 87.4922 51.2069 87.4922C51.2069 87.4922 49.8645 87.4407 49.5295 87.8736C48.5479 89.1386 49.1611 94.722 49.8155 94.9178C50.0551 94.99 50.3076 94.6602 50.4107 94.4334C50.7405 93.7146 51.3228 91.8337 51.6062 91.2385C51.936 90.5403 52.9486 89.6643 53.3969 89.5973Z" fill="#E4897B"/>
<path opacity="0.2" d="M55.9086 86.3189L54.3421 86.878L54.7801 89.3L55.9086 89.0603V86.3189Z" fill="black"/>
<path d="M55.4986 89.6662L56.6658 89.7487L55.8851 85.737L54.5607 86.4687L55.4986 89.6662Z" fill="#263238"/>
<path opacity="0.4" d="M55.4986 89.6662L56.6658 89.7487L55.8851 85.737L54.5607 86.4687L55.4986 89.6662Z" fill="white"/>
<path opacity="0.2" d="M55.4493 88.277L55.7971 87.7436L56.3433 88.0941L56.6654 89.1788L55.4493 88.277Z" fill="black"/>
<path d="M52.2631 90.7562L56.3779 92.029L58.3515 92.6422L59.2301 90.6351L57.4781 89.826L53.201 87.8524L52.2631 90.7562Z" fill="#E4897B"/>
<path d="M58.76 90.4185L57.6469 92.423C58.0978 92.642 59.028 93.2785 59.028 93.2785C59.028 93.2785 60.2982 94.2627 60.8315 94.1158C62.3775 93.6907 65.2271 88.8545 64.8226 88.3057C64.6732 88.1048 64.2738 88.2156 64.0496 88.3341C63.354 88.7128 61.7668 89.88 61.1794 90.1789C60.8151 90.3853 60.4117 90.5133 59.995 90.5546C59.5784 90.5959 59.1577 90.5495 58.76 90.4185Z" fill="#E4897B"/>
<path opacity="0.2" d="M52.2631 90.7562L56.3779 92.029L57.4781 89.826L53.201 87.8524L52.2631 90.7562Z" fill="black"/>
<path d="M56.8127 89.2904C56.8127 89.2904 40.985 77.2811 35.0409 76.7374C29.0968 76.1938 27.5097 81.2979 29.5013 84.9025C31.493 88.5071 37.7463 90.7822 37.7463 90.7822C37.7463 90.7822 33.4074 85.1602 34.0103 83.9956C34.6132 82.831 36.1256 84.7685 36.1256 84.7685C36.1256 84.7685 46.4318 89.7413 55.7692 91.8437L56.8127 89.2904Z" fill="#263238"/>
<path d="M57.127 89.0629L56.2458 88.2771L54.468 91.9384L55.9675 92.1445L57.127 89.0629Z" fill="#263238"/>
<path opacity="0.4" d="M57.127 89.0629L56.2458 88.2771L54.468 91.9384L55.9675 92.1445L57.127 89.0629Z" fill="white"/>
<path d="M34.6565 74.6505L34.7003 75.4003L47.078 73.875V73.3906L34.6565 74.6505Z" fill="#263238"/>
<path opacity="0.1" d="M34.6565 74.6505L34.7003 75.4003L47.078 73.875V73.3906L34.6565 74.6505Z" fill="white"/>
<path opacity="0.2" d="M34.8802 72.7205L37.8226 73.3904L40.0822 72.7205V70.7726L34.8802 70.7932V72.7205Z" fill="black"/>
<path d="M33.949 71.6688C33.949 71.6688 37.2727 72.7742 37.6489 72.7175C38.0251 72.6608 39.6638 72.2795 39.6638 72.1481C39.6638 72.0167 39.1021 69.5715 39.1021 69.5715L36.17 68.8913C36.17 68.8913 34.4978 68.9712 33.7635 69.5535L33.949 71.6688Z" fill="#E4897B"/>
<path d="M34.619 58.1906C31.419 61.4782 27.6392 64.5778 24.5551 67.9479L24.1402 65.3997C26.5055 66.9173 29.332 68.0098 32.0038 68.9708C32.934 69.3083 33.8821 69.5943 34.838 69.87C35.0627 69.9391 35.2543 70.0878 35.3769 70.2883C35.4995 70.4888 35.5447 70.7272 35.5038 70.9586C35.463 71.19 35.339 71.3985 35.1552 71.5449C34.9713 71.6913 34.7404 71.7655 34.5057 71.7535C31.3695 71.4731 28.2848 70.7756 25.3332 69.6794C24.2979 69.3028 23.2934 68.8462 22.3289 68.3138C22.1232 68.1958 21.9451 68.035 21.8067 67.8425C21.6682 67.6499 21.5726 67.4299 21.5262 67.1973C21.4799 66.9647 21.4838 66.7249 21.5378 66.4939C21.5918 66.263 21.6947 66.0463 21.8394 65.8584C24.8127 62.0837 28.4843 58.7832 31.9137 55.444C33.7945 53.7589 36.3376 56.3277 34.6293 58.1906H34.619Z" fill="#E4897B"/>
<path opacity="0.2" d="M48.6402 59.8532L57.0809 61.4558L56.6867 62.5611L48.8875 60.5179L48.7098 60.4329L48.6402 59.8532Z" fill="black"/>
<path d="M47.944 62.5092C47.944 62.5092 44.7594 63.8412 44.3832 63.8129C44.0071 63.7846 42.3684 63.532 42.3606 63.4032C42.3529 63.2744 42.7214 60.8396 42.7214 60.8396L45.5556 59.9532C45.5556 59.9532 47.2071 59.9069 47.9724 60.4247L47.944 62.5092Z" fill="#E4897B"/>
<path d="M57.8888 64.4134C54.8305 63.898 51.5531 63.3054 48.5102 62.6819C48.2088 62.6072 47.6419 62.481 47.3456 62.4088C47.2889 62.4088 47.2348 62.3779 47.2065 62.1924C47.1183 61.6524 47.2012 61.0983 47.4435 60.6078C47.5595 60.3502 47.6342 60.4558 47.8094 60.4532L48.1495 60.4764C51.4835 60.7341 54.9979 61.1875 58.3062 61.6127C60.1819 61.9296 59.78 64.6581 57.8888 64.4134Z" fill="#E4897B"/>
<path d="M62.1523 45.5325V45.2903H51.5524C51.5243 45.2204 51.4727 45.1624 51.4065 45.1263C51.3403 45.0903 51.2636 45.0784 51.1896 45.0927C51.1155 45.107 51.0488 45.1467 51.0008 45.2048C50.9528 45.263 50.9266 45.336 50.9266 45.4114C50.9266 45.4868 50.9528 45.5599 51.0008 45.618C51.0488 45.6762 51.1155 45.7158 51.1896 45.7302C51.2636 45.7445 51.3403 45.7326 51.4065 45.6965C51.4727 45.6605 51.5243 45.6025 51.5524 45.5325H62.1523Z" fill="#43744B"/>
<path d="M98.8305 59.321C107.045 51.1064 107.045 37.7878 98.8306 29.5732C90.6159 21.3585 77.2974 21.3585 69.0827 29.5732C60.8681 37.7878 60.8681 51.1064 69.0827 59.321C77.2974 67.5356 90.6159 67.5356 98.8305 59.321Z" fill="#43744B"/>
<path opacity="0.7" d="M98.8305 59.321C107.045 51.1064 107.045 37.7878 98.8306 29.5732C90.6159 21.3585 77.2974 21.3585 69.0827 29.5732C60.8681 37.7878 60.8681 51.1064 69.0827 59.321C77.2974 67.5356 90.6159 67.5356 98.8305 59.321Z" fill="white"/>
<path d="M74.0442 61.9914L75.5901 54.4628C79.4549 54.6251 84.9043 55.2744 85.5382 54.4628C86.3111 53.6408 86.2982 51.6904 86.3446 49.825L87.419 48.614C87.5067 48.3159 87.4951 47.9973 87.3858 47.7064C87.2766 47.4154 87.0758 47.1679 86.8135 47.0011C87.5865 46.8723 88.2281 46.5837 88.563 45.9267L87.7566 43.5073C89.0242 43.3939 90.3125 43.3012 90.9154 42.4999C91.2993 41.6676 88.7923 37.0453 87.1511 33.5593C87.6947 33.0105 88.1817 32.6266 88.1585 31.2069L87.8235 27.1746C87.5144 25.7833 86.896 24.8557 85.9401 24.4177C76.6774 23.9565 68.5613 27.7878 64.8949 38.2434C62.4884 47.7019 65.5854 56.7739 74.0442 61.9914Z" fill="#43744B"/>
<path d="M92.5188 44.7081C92.0582 44.7081 91.5982 44.6728 91.1429 44.6025L91.228 44.0511C92.8444 44.3057 94.5 44.0706 95.9817 43.376C98.7644 42.0465 98.8159 39.604 98.8159 39.5112H99.3776C99.3776 39.6272 99.3415 42.4047 96.229 43.8913C95.069 44.4379 93.8011 44.717 92.5188 44.7081Z" fill="#43744B"/>
<path d="M91.6057 43.5409L90.0134 44.0562L91.2553 45.177L91.6057 43.5409Z" fill="#43744B"/>
<path d="M95.9661 52.6053C96.0766 53.0525 96.1542 53.5072 96.198 53.9658L95.6415 54.0173C95.4977 52.3873 94.8695 50.8377 93.8379 49.5676C91.8772 47.1895 89.4939 47.7357 89.3934 47.764L89.2594 47.2204C89.3728 47.192 92.0781 46.5582 94.2708 49.2172C95.0821 50.2056 95.6614 51.3634 95.9661 52.6053Z" fill="#43744B"/>
<path d="M95.0533 53.7748L95.9371 55.1945L96.7255 53.7181L95.0533 53.7748Z" fill="#43744B"/>
<path d="M62.2813 44.4147H62.0236C62.0236 44.3219 62.0236 44.2292 62.0236 44.1364C62.0236 43.6804 62.0468 43.2218 62.0829 42.7709L62.3406 42.7889C62.3071 43.2346 62.289 43.6881 62.2839 44.139C62.2813 44.2292 62.2813 44.3168 62.2813 44.4147Z" fill="#43744B"/>
<path d="M62.0959 46.2643C62.0547 45.7773 62.0289 45.2852 62.0212 44.7957H62.2789C62.2789 45.28 62.3123 45.767 62.3536 46.2488L62.0959 46.2643Z" fill="#43744B"/>
<path d="M64.2392 54.0202C63.1313 51.7543 62.4251 49.3133 62.1522 46.8059L62.4098 46.7775C62.6781 49.2555 63.3756 51.668 64.4711 53.9068L64.2392 54.0202Z" fill="#43744B"/>
<path d="M65.7366 56.6139C65.4429 56.1733 65.1595 55.7172 64.8967 55.2586L65.1209 55.1298C65.3785 55.5832 65.6593 56.0341 65.9505 56.4696L65.7366 56.6139Z" fill="#43744B"/>
<path d="M67.3659 58.7451C66.9768 58.2968 66.5929 57.8227 66.2476 57.3409L66.4563 57.1889C66.8042 57.6656 67.1778 58.1319 67.5617 58.5777L67.3659 58.7451Z" fill="#43744B"/>
<path d="M73.7058 63.8027C71.5779 62.6734 69.6499 61.2023 67.9987 59.4483L68.1868 59.2705C69.8182 61.004 71.7226 62.4584 73.8243 63.5759L73.7058 63.8027Z" fill="#43744B"/>
<path d="M75.9 64.8156C75.5083 64.661 75.1116 64.491 74.7225 64.3003L74.8307 64.0684C75.2146 64.2462 75.6037 64.4163 75.9953 64.5683L75.9 64.8156Z" fill="#43744B"/>
<path d="M78.1099 65.5578C77.5946 65.4161 77.0792 65.2512 76.5639 65.0683L76.6515 64.8261C77.1488 65.0064 77.6615 65.1688 78.1743 65.3105L78.1099 65.5578Z" fill="#43744B"/>
<path d="M83.9606 66.3489C82.2912 66.3491 80.6273 66.1598 79.0007 65.7846L79.0574 65.5269C81.506 66.0916 84.0337 66.2301 86.5294 65.9366L86.5577 66.1943C85.6958 66.2965 84.8286 66.3481 83.9606 66.3489Z" fill="#43744B"/>
<path d="M87.625 66.0417L87.5837 65.7841C88.1197 65.6913 88.6581 65.5805 89.1863 65.4491L89.2482 65.7068C88.7148 65.8356 88.1686 65.9593 87.625 66.0417Z" fill="#43744B"/>
<path d="M90.068 65.4832L89.9958 65.2255C90.4983 65.0812 91.0058 64.9137 91.5005 64.7282L91.5907 64.9704C91.0883 65.1662 90.5756 65.3363 90.068 65.4832Z" fill="#43744B"/>
<path d="M92.3101 64.6968L92.2122 64.4598C95.1152 63.2512 97.7248 61.4333 99.8645 59.1289L100.053 59.3041C97.8888 61.6367 95.2481 63.476 92.3101 64.6968Z" fill="#43744B"/>
<path d="M100.642 58.6395L100.446 58.472C100.784 58.0778 101.111 57.6655 101.42 57.2481L101.626 57.4001C101.315 57.8253 100.982 58.2298 100.642 58.6395Z" fill="#43744B"/>
<path d="M102.232 56.5372L102.018 56.3929C102.34 55.9085 102.647 55.4061 102.93 54.8959L103.154 55.0222C102.868 55.5349 102.559 56.0451 102.232 56.5372Z" fill="#43744B"/>
<path d="M103.771 53.8242L103.539 53.7134C104.536 51.6256 105.189 49.3904 105.472 47.0942L105.729 47.1252C105.442 49.4491 104.781 51.7113 103.771 53.8242Z" fill="#43744B"/>
<path d="M105.841 45.9472L105.584 45.9292C105.62 45.4293 105.635 44.9192 105.635 44.4142H105.893C105.895 44.9243 105.875 45.4422 105.841 45.9472Z" fill="#43744B"/>
<path d="M105.597 43.0874C105.563 42.5309 105.507 41.9692 105.432 41.4178L105.69 41.3843C105.767 41.9409 105.824 42.5103 105.857 43.072L105.597 43.0874Z" fill="#43744B"/>
<path d="M105.035 39.3306C104.397 36.6766 103.26 34.168 101.685 31.9385L101.894 31.7917C103.491 34.0438 104.643 36.5798 105.29 39.2636L105.035 39.3306Z" fill="#43744B"/>
<path d="M101.032 31.0683C100.664 30.5968 100.259 30.1356 99.8651 29.6976L100.053 29.5224C100.463 29.9655 100.862 30.4319 101.236 30.9086L101.032 31.0683Z" fill="#43744B"/>
<path d="M99.0287 28.8571C98.6422 28.4835 98.2377 28.1202 97.8254 27.7749L97.9903 27.5765C98.4077 27.9269 98.8174 28.2954 99.209 28.6741L99.0287 28.8571Z" fill="#43744B"/>
<path d="M96.8497 26.9944C94.5991 25.3191 92.0423 24.1007 89.3236 23.4078L89.388 23.1502C92.1397 23.8564 94.7263 25.095 97.0017 26.796L96.8497 26.9944Z" fill="#43744B"/>
<path d="M88.5633 23.2273C88.0841 23.1216 87.5919 23.034 87.1024 22.9696L87.1385 22.7119C87.6358 22.7841 88.133 22.8743 88.62 22.9696L88.5633 23.2273Z" fill="#43744B"/>
<path d="M86.5205 22.8848C85.933 22.8153 85.3353 22.7689 84.7401 22.7483V22.4906C85.3404 22.5138 85.9459 22.5602 86.5437 22.6298L86.5205 22.8848Z" fill="#43744B"/>
<path d="M77.0701 23.8561L76.9876 23.5985C79.1626 22.8687 81.439 22.4861 83.733 22.4648H83.9598V22.7225H83.7382C81.4697 22.7474 79.2194 23.13 77.0701 23.8561Z" fill="#43744B"/>
<path d="M74.8609 24.7352L74.7527 24.5007C75.1829 24.3023 75.6235 24.1142 76.0615 23.9442L76.1543 24.1838C75.7214 24.3539 75.286 24.5394 74.8609 24.7352Z" fill="#43744B"/>
<path d="M72.9447 25.7475L72.8133 25.5259C73.1663 25.3172 73.527 25.1162 73.8877 24.9281L74.0063 25.1574C73.6481 25.343 73.2926 25.5413 72.9447 25.7475Z" fill="#43744B"/>
<path d="M66.5862 31.4594L66.3801 31.3048C67.8972 29.2729 69.7538 27.5182 71.8681 26.1183L72.0098 26.3321C69.9211 27.7173 68.0864 29.4517 66.5862 31.4594Z" fill="#43744B"/>
<path d="M65.4989 33.0568L65.2799 32.9228C65.4448 32.6652 65.6148 32.3895 65.7952 32.1318L66.009 32.2787C65.8312 32.5312 65.6612 32.794 65.4989 33.0568Z" fill="#43744B"/>
<path d="M64.7938 34.2839L64.5671 34.1629C64.6727 33.9619 64.7835 33.7635 64.8943 33.5677L65.1185 33.6939C65.0077 33.8897 64.8995 34.0856 64.7938 34.2839Z" fill="#43744B"/>
<path d="M62.4533 41.6626L62.1956 41.6291C62.4722 39.4544 63.0759 37.334 63.9863 35.3398L64.2208 35.448C63.3217 37.4186 62.7258 39.5138 62.4533 41.6626Z" fill="#43744B"/>
<path d="M78.554 81.7001V80.3887H80.8729V81.7104C80.8728 81.8863 80.9097 82.0602 80.9811 82.2209C81.0526 82.3815 81.157 82.5254 81.2877 82.6431C81.4176 82.7613 81.5214 82.9053 81.5924 83.0659C81.6634 83.2265 81.7 83.4002 81.6999 83.5758V91.1586C81.6999 91.3356 81.6296 91.5053 81.5045 91.6305C81.3793 91.7556 81.2096 91.8259 81.0326 91.8259H78.3942C78.2172 91.8259 78.0475 91.7556 77.9224 91.6305C77.7972 91.5053 77.7269 91.3356 77.7269 91.1586V83.5655C77.7268 83.3899 77.7635 83.2162 77.8344 83.0556C77.9054 82.895 78.0092 82.751 78.1391 82.6328C78.2698 82.5151 78.3742 82.3712 78.4457 82.2106C78.5172 82.0499 78.554 81.876 78.554 81.7001Z" fill="#43744B"/>
<path opacity="0.2" d="M78.554 81.7001V80.3887H80.8729V81.7104C80.8728 81.8863 80.9097 82.0602 80.9811 82.2209C81.0526 82.3815 81.157 82.5254 81.2877 82.6431C81.4176 82.7613 81.5214 82.9053 81.5924 83.0659C81.6634 83.2265 81.7 83.4002 81.6999 83.5758V91.1586C81.6999 91.3356 81.6296 91.5053 81.5045 91.6305C81.3793 91.7556 81.2096 91.8259 81.0326 91.8259H78.3942C78.2172 91.8259 78.0475 91.7556 77.9224 91.6305C77.7972 91.5053 77.7269 91.3356 77.7269 91.1586V83.5655C77.7268 83.3899 77.7635 83.2162 77.8344 83.0556C77.9054 82.895 78.0092 82.751 78.1391 82.6328C78.2698 82.5151 78.3742 82.3712 78.4457 82.2106C78.5172 82.0499 78.554 81.876 78.554 81.7001Z" fill="black"/>
<path opacity="0.5" d="M77.7269 85.3923V83.5655C77.7268 83.3899 77.7635 83.2162 77.8344 83.0556C77.9054 82.895 78.0092 82.751 78.1391 82.6328C78.2698 82.5151 78.3742 82.3712 78.4457 82.2106C78.5172 82.0499 78.554 81.876 78.554 81.7001V80.3887H80.8729V81.7104C80.8728 81.8863 80.9097 82.0602 80.9811 82.2209C81.0526 82.3815 81.157 82.5254 81.2877 82.6431C81.4176 82.7613 81.5214 82.9053 81.5924 83.0659C81.6634 83.2265 81.7 83.4002 81.6999 83.5758V85.4026L77.7269 85.3923Z" fill="white"/>
<path opacity="0.6" d="M81.6922 88.0456V91.158C81.6922 91.335 81.6219 91.5048 81.4967 91.6299C81.3716 91.7551 81.2019 91.8254 81.0249 91.8254H78.3942C78.2172 91.8254 78.0475 91.7551 77.9224 91.6299C77.7972 91.5048 77.7269 91.335 77.7269 91.158V88.0456H81.6922Z" fill="white"/>
<path d="M78.4816 81.0528H80.937C81.0125 81.0528 81.0736 80.9916 81.0736 80.9162V80.151C81.0736 80.0756 81.0125 80.0144 80.937 80.0144H78.4816C78.4062 80.0144 78.345 80.0756 78.345 80.151V80.9162C78.345 80.9916 78.4062 81.0528 78.4816 81.0528Z" fill="#43744B"/>
<path d="M74.802 78.6977V77.3759H77.1209V78.6977C77.1208 78.8735 77.1577 79.0474 77.2292 79.2081C77.3006 79.3688 77.4051 79.5126 77.5357 79.6304C77.6657 79.7485 77.7694 79.8925 77.8404 80.0532C77.9114 80.2138 77.9481 80.3875 77.948 80.5631V91.1578C77.948 91.3348 77.8777 91.5045 77.7525 91.6297C77.6274 91.7548 77.4576 91.8251 77.2807 91.8251H74.6423C74.4653 91.8251 74.2956 91.7548 74.1704 91.6297C74.0453 91.5045 73.9749 91.3348 73.9749 91.1578V80.5631C73.9749 80.3875 74.0115 80.2138 74.0825 80.0532C74.1535 79.8925 74.2573 79.7485 74.3872 79.6304C74.5178 79.5126 74.6223 79.3688 74.6937 79.2081C74.7652 79.0474 74.8021 78.8735 74.802 78.6977Z" fill="#43744B"/>
<path opacity="0.6" d="M73.9749 83.8894V80.5631C73.9749 80.3875 74.0115 80.2138 74.0825 80.0532C74.1535 79.8925 74.2573 79.7485 74.3872 79.6304C74.5178 79.5126 74.6223 79.3688 74.6937 79.2081C74.7652 79.0474 74.8021 78.8735 74.802 78.6977V77.3759H77.1209V78.6977C77.1208 78.8735 77.1577 79.0474 77.2292 79.2081C77.3006 79.3688 77.4051 79.5126 77.5357 79.6304C77.6657 79.7485 77.7694 79.8925 77.8404 80.0532C77.9114 80.2138 77.9481 80.3875 77.948 80.5631V83.8894H73.9749Z" fill="white"/>
<path opacity="0.6" d="M77.9403 88.0456V91.158C77.9403 91.335 77.8699 91.5048 77.7448 91.6299C77.6196 91.7551 77.4499 91.8254 77.2729 91.8254H74.6423C74.4653 91.8254 74.2956 91.7551 74.1704 91.6299C74.0453 91.5048 73.9749 91.335 73.9749 91.158V88.0456H77.9403Z" fill="white"/>
<path d="M74.73 78.0543H77.1854C77.2609 78.0543 77.322 77.9932 77.322 77.9177V77.1525C77.322 77.0771 77.2609 77.016 77.1854 77.016H74.73C74.6546 77.016 74.5934 77.0771 74.5934 77.1525V77.9177C74.5934 77.9932 74.6546 78.0543 74.73 78.0543Z" fill="#43744B"/>
<path d="M86.1003 88.3755H72.4318C72.2123 88.3751 71.9949 88.4181 71.7921 88.5018C71.5892 88.5856 71.4048 88.7085 71.2495 88.8636C71.0942 89.0187 70.971 89.2028 70.8869 89.4056C70.8029 89.6083 70.7596 89.8256 70.7596 90.0451V90.7949C70.7596 91.2383 70.9358 91.6637 71.2494 91.9773C71.563 92.2909 71.9883 92.467 72.4318 92.467H88.9809C89.424 92.4663 89.8486 92.2899 90.1617 91.9763C90.4747 91.6628 90.6505 91.2379 90.6505 90.7949C90.6505 90.3521 90.4746 89.9274 90.1615 89.6143C89.8484 89.3012 89.4237 89.1253 88.9809 89.1253H86.3451V88.6099C86.3396 88.5479 86.3117 88.4899 86.2667 88.4468C86.2217 88.4037 86.1626 88.3784 86.1003 88.3755Z" fill="#43744B"/>
<path opacity="0.5" d="M75.5623 88.3755H72.4318C72.2123 88.3751 71.9949 88.4181 71.7921 88.5018C71.5892 88.5856 71.4048 88.7085 71.2495 88.8636C71.0942 89.0187 70.971 89.2028 70.8869 89.4056C70.8029 89.6083 70.7596 89.8256 70.7596 90.0451V90.7949C70.7596 91.2383 70.9358 91.6637 71.2494 91.9773C71.563 92.2909 71.9883 92.467 72.4318 92.467H78.4429C78.8859 92.4663 79.3106 92.2899 79.6236 91.9763C79.9366 91.6628 80.1125 91.2379 80.1125 90.7949C80.1125 90.5756 80.0693 90.3585 79.9854 90.1559C79.9015 89.9534 79.7785 89.7693 79.6234 89.6143C79.4684 89.4592 79.2843 89.3363 79.0818 89.2523C78.8792 89.1684 78.6621 89.1253 78.4429 89.1253H75.8071V88.6099C75.8015 88.5479 75.7737 88.4899 75.7287 88.4468C75.6836 88.4037 75.6245 88.3784 75.5623 88.3755Z" fill="white"/>
<path opacity="0.2" d="M75.8057 89.1299L74.0202 89.0784L73.1261 89.0552C72.9767 89.0552 72.835 89.0552 72.6727 89.0552C72.5136 89.0681 72.3577 89.1073 72.2115 89.1712C71.916 89.3046 71.6732 89.5323 71.5212 89.8187C71.3692 90.105 71.3165 90.4337 71.3715 90.7532C71.43 91.0782 71.5949 91.3745 71.8402 91.5956C72.0856 91.8167 72.3974 91.95 72.7268 91.9744C73.9352 92.0079 75.1127 91.9976 76.3082 92.0079H78.0937C78.2518 92.0148 78.4103 92.0105 78.5678 91.9951C78.744 91.9673 78.9115 91.8994 79.0573 91.7967C79.2042 91.6953 79.326 91.5617 79.4134 91.4061C79.5008 91.2505 79.5516 91.077 79.5618 90.8988C79.572 90.7206 79.5413 90.5425 79.4722 90.3779C79.4031 90.2134 79.2973 90.0668 79.163 89.9493C79.0302 89.8289 78.8715 89.7408 78.6992 89.6916C78.5372 89.6538 78.3705 89.6399 78.2045 89.6504H76.419C75.2286 89.6504 74.0382 89.6504 72.8479 89.6787C72.7508 89.6719 72.6535 89.6882 72.5639 89.7263C72.4743 89.7644 72.395 89.8231 72.3326 89.8978C72.2703 89.9735 72.2278 90.0636 72.209 90.1598C72.1901 90.256 72.1954 90.3554 72.2244 90.4491C72.2536 90.5416 72.3055 90.6254 72.3752 90.6928C72.4449 90.7603 72.5303 90.8094 72.6237 90.8356C72.7081 90.8555 72.7949 90.8624 72.8814 90.8562H73.103L74.8885 90.8305C76.0789 90.797 77.2692 90.7789 78.4622 90.7351C77.2692 90.6888 76.0789 90.6707 74.8885 90.6372L73.103 90.6115C72.9669 90.6151 72.8308 90.6082 72.6959 90.5908C72.6229 90.5649 72.5621 90.5129 72.5251 90.4448C72.4881 90.3768 72.4775 90.2975 72.4954 90.2221C72.5133 90.1468 72.5584 90.0807 72.622 90.0365C72.6856 89.9923 72.7633 89.9732 72.8401 89.9828C74.0305 90.006 75.2209 90.0008 76.4112 90.0111H78.1968C78.3282 90.0048 78.4599 90.0161 78.5884 90.0446C78.7046 90.0778 78.8114 90.1379 78.9002 90.2198C78.99 90.2994 79.06 90.3988 79.1047 90.5102C79.1494 90.6215 79.1676 90.7418 79.1578 90.8614C79.1522 90.9813 79.1194 91.0984 79.0618 91.2037C79.0042 91.3091 78.9234 91.4 78.8255 91.4694C78.7282 91.541 78.615 91.5879 78.4957 91.606C78.3579 91.6209 78.2193 91.6261 78.0808 91.6215H76.2953L72.7319 91.6472C72.4695 91.6289 72.22 91.5262 72.0208 91.3543C71.8215 91.1825 71.6832 90.9508 71.6266 90.6939C71.5728 90.4238 71.6101 90.1434 71.7327 89.8967C71.8554 89.6501 72.0564 89.4511 72.3042 89.3309C72.4289 89.269 72.563 89.2281 72.701 89.2098C72.8376 89.1944 72.9922 89.2098 73.139 89.1918L74.0331 89.1712L75.8057 89.1299Z" fill="black"/>
<path opacity="0.2" d="M86.3449 89.13H75.8069L86.3449 88.7409V89.13Z" fill="black"/>
</svg>
