<svg width="26" height="28" viewBox="0 0 26 28" fill="none" xmlns="http://www.w3.org/2000/svg">
<path d="M25.6721 13.3034L22.62 12.2162C20.6678 11.5042 19.524 9.75839 18.9872 7.56457L17.6441 0.334158C17.609 0.191294 17.5236 0 17.2606 0C17.0393 0 16.9123 0.191294 16.8772 0.334158L15.5341 7.56699C14.9951 9.76081 13.8535 11.5067 11.9013 12.2186L8.84916 13.3058C8.41752 13.4608 8.41094 14.1339 8.84039 14.2962L11.9145 15.4657C13.8601 16.18 14.9951 17.9235 15.5341 20.1076L16.8794 27.2581C16.9145 27.401 16.9868 27.6577 17.2628 27.6577C17.5542 27.6577 17.6112 27.401 17.6463 27.2581L18.9916 20.1076C19.5306 17.9211 20.6656 16.1776 22.6112 15.4657L25.6853 14.2962C26.1103 14.1315 26.1038 13.4583 25.6721 13.3034Z" fill="#FDD835"/>
<path d="M25.9613 13.606C25.9131 13.4729 25.8189 13.3566 25.6721 13.3034L22.62 12.2161C20.6677 11.5042 19.524 9.75838 18.9872 7.56456L17.6441 0.334149C17.6243 0.251821 17.5542 0.101691 17.4731 0.0581055L17.907 7.31515C18.2291 10.6277 18.5051 12.1871 20.8978 12.6423C22.953 13.0346 25.3303 13.485 25.9613 13.606Z" fill="#FFEE58"/>
<path d="M25.968 13.9838L20.6744 15.3252C18.8098 15.8483 17.7822 17.042 17.7822 20.1657L17.2629 27.6576C17.4404 27.6382 17.585 27.5317 17.6463 27.2581L18.9917 20.1076C19.5307 17.921 20.6656 16.1776 22.6113 15.4657L25.6854 14.2961C25.83 14.238 25.922 14.1194 25.968 13.9838Z" fill="#F4B400"/>
<path d="M8.19185 19.5943C6.3667 18.9284 6.20017 18.1778 5.89343 16.9114L5.12874 13.9475C5.08273 13.7562 4.63137 13.7562 4.58317 13.9475L4.06389 16.6862C3.75495 17.9478 3.09763 18.9502 1.97581 19.3594L0.187898 20.2166C-0.0596919 20.3062 -0.064074 20.6937 0.183516 20.7857L1.98457 21.4903C3.10201 21.8995 3.75495 22.902 4.06608 24.1587L4.58536 26.7787C4.63356 26.97 5.08273 26.97 5.12874 26.7787L5.73786 24.1708C6.0468 22.9069 6.52007 21.902 8.03848 21.4903L9.72998 20.7857C9.97757 20.6912 9.97538 20.3038 9.72559 20.2142L8.19185 19.5943Z" fill="#FDD835"/>
<path d="M5.27329 16.8678C5.45953 18.771 5.55374 19.2989 6.94945 19.6936L9.85699 20.3207C9.82631 20.2747 9.78249 20.236 9.72333 20.2166L8.18959 19.5943C6.58792 18.989 6.14533 18.2189 5.84515 16.6789C5.54498 15.1389 5.22508 14.134 5.22508 14.134C5.11334 13.8022 4.95339 13.8192 4.95339 13.8192L5.27329 16.8678Z" fill="#FFEE58"/>
<path d="M5.32576 23.5121C5.32576 21.7178 6.21314 20.8291 7.62418 20.8291L9.81963 20.7299C9.81963 20.7299 9.69255 20.9163 9.47125 20.9744L8.03829 21.4902C6.82225 22.0302 6.26792 22.3014 5.89105 24.1393C5.89105 24.1393 5.40464 26.2774 5.31261 26.5026C5.18553 26.8174 5.03435 26.8827 5.03435 26.8827L5.32576 23.5121Z" fill="#F4B400"/>
<path d="M12.1202 5.38771C12.2429 5.3417 12.2386 5.14798 12.1137 5.10924L10.4222 4.60558C10.0672 4.49904 9.79115 4.19636 9.69036 3.80651L9.02427 0.767604C8.99141 0.619897 8.80078 0.619896 8.76792 0.770025L8.14128 3.79682C8.04487 4.19878 7.76003 4.50872 7.39631 4.61285L5.71577 5.09471C5.59088 5.13103 5.58211 5.32475 5.70481 5.37318L7.47738 6.05118C7.79509 6.17225 8.04049 6.45798 8.13689 6.81393L8.77011 9.62038C8.80298 9.76566 8.99141 9.76809 9.02427 9.62038L9.6794 6.80425C9.778 6.4483 10.0256 6.16499 10.3455 6.04634L12.1202 5.38771Z" fill="#F4B400" stroke="#F4B400" stroke-width="0.766763" stroke-miterlimit="10"/>
</svg>
